<?xml version="1.0" standalone="no"?>
<!DOCTYPE svg PUBLIC "-//W3C//DTD SVG 1.1//EN" "http://www.w3.org/Graphics/SVG/1.1/DTD/svg11.dtd" >
<svg xmlns="http://www.w3.org/2000/svg" xmlns:xlink="http://www.w3.org/1999/xlink" version="1.1">
<metadata>
Created by FontForge 20170731 at Fri Oct  8 07:58:22 2021
 By Aleksey,,,
Copyright 2011 The Genos Project Authors (https://github.com/googlefonts/genos)
</metadata>
<defs>
<font id="Genos-Bold" horiz-adv-x="0" >
  <font-face 
    font-family="Genos"
    font-weight="700"
    font-stretch="normal"
    units-per-em="1000"
    panose-1="0 0 0 0 0 0 0 0 0 0"
    ascent="800"
    descent="-200"
    x-height="399"
    cap-height="460"
    bbox="-139 -255 1170 804"
    underline-thickness="50"
    underline-position="-175"
    unicode-range="U+0020-FB06"
  />
<missing-glyph horiz-adv-x="600" 
d="M98 0q-4 0 -4 4q-4 33 -7 85.5t-5 115.5t-2 129q0 67 2 131.5t5.5 118t7.5 85.5q0 4 4 4h402q4 0 4 -4q4 -32 7.5 -85.5t5.5 -118t2 -131.5q0 -66 -2 -129t-5 -115.5t-7 -85.5q0 -4 -4 -4h-404zM124 30h352q5 42 7 96.5t3 110t1 100.5q0 79 -4 158t-9 148h-348
q-6 -85 -9.5 -162.5t-3.5 -145.5q0 -47 0.5 -101t3 -107t7.5 -97zM170 80q-6 0 -5.5 2.5t1.5 3.5l231 502q3 6 9 6h19q8 0 2 -7l-230 -499q-4 -8 -11 -8h-16zM424 80h-16q-8 0 -11 8l-230 499q-6 7 2 7h19q6 0 9 -6l231 -502q1 -1 1.5 -3.5t-5.5 -2.5z" />
    <glyph glyph-name="fi" unicode="fi" horiz-adv-x="721" 
d="M34 352h36v39q0 46 19 78.5t76 35.5q37 2 79 1t79.5 -4t60.5 -5v-78q-6 2 -22 3.5t-36 2.5t-37.5 1.5t-26.5 0.5q-27 0 -35 -12t-8 -34v-29h253v-78h-253v-274h-102q-29 0 -38 10.5t-9 35.5v228h-36v78zM621 352v-77v-65.5v-77.5q0 -40 7 -59t41 -19q7 0 15 2t11 4v-55
q-7 -1 -27.5 -5t-56.5 -4q-49 0 -77.5 7t-42.5 19.5t-18 28.5t-3 34t1 37v83v80.5v66.5h75h75zM485 467q0 29 20 36t47 6q29 0 46 -7t17 -35q0 -30 -18 -36t-46 -6t-47 6t-19 36z" />
    <glyph glyph-name="fl" unicode="fl" horiz-adv-x="687" 
d="M34 352h36v39q0 46 19 78.5t76 35.5q18 1 53 0.5t79 -2t90.5 -3.5t88 -4t72 -3.5t42.5 -2.5l-29 -75q-5 1 -26.5 2t-53.5 2.5t-67.5 3t-67.5 2.5t-54.5 1.5t-29.5 0.5q-27 0 -35 -12t-8 -34v-29h165v-78h-165v-274h-102q-29 0 -38 10.5t-9 35.5v228h-36v78zM438 436
q0 23 4 34.5t15.5 15.5t35.5 4h97q-1 -2 -1 -11t-0.5 -20.5t-1 -21t-0.5 -11.5v-294q0 -40 6.5 -59t38.5 -19q7 0 16.5 2t12.5 4v-55q-7 -1 -27.5 -5t-55.5 -4q-56 0 -85 11t-40.5 29t-13 40.5t-1.5 45.5v314z" />
    <glyph glyph-name="f_f" unicode="ff" horiz-adv-x="820" 
d="M34 352h36v39q0 46 19 78.5t76 35.5q37 2 79 1t79.5 -4t60.5 -5v-78q-6 2 -22 3.5t-36 2.5t-37.5 1.5t-26.5 0.5q-27 0 -35 -12t-8 -34v-29h267v-78h-267v-274h-102q-29 0 -38 10.5t-9 35.5v228h-36v78zM444 350l36 2v39q0 46 19 78.5t76 35.5q37 2 79 1t79.5 -4t60.5 -5
v-78q-6 2 -22 3.5t-36 2.5t-37.5 1.5t-26.5 0.5q-27 0 -35 -12t-8 -34v-29h165v-78h-165v-274h-102q-29 0 -38 10.5t-9 35.5v228l-36 2v74z" />
    <glyph glyph-name="f_f_i" unicode="ffi" horiz-adv-x="1108" 
d="M28 352h36v39q0 56 25 85.5t91 29.5q35 0 71 -1.5t69.5 -3t58.5 -4.5v-78q-11 3 -32.5 4.5t-46 2.5t-43.5 1q-27 0 -35 -11.5t-8 -34.5v-29h145v-78h-145v-274h-103q-29 0 -38 10.5t-9 35.5v228h-36v78zM420 352h36v39q0 46 19 78.5t76 35.5q37 2 79 1t79.5 -4t60.5 -5
v-78q-6 2 -22 3.5t-36 2.5t-37.5 1.5t-26.5 0.5q-27 0 -35 -12t-8 -34v-29h253v-78h-253v-274h-102q-29 0 -38 10.5t-9 35.5v228h-36v78zM1007 352v-77v-65.5v-77.5q0 -40 7 -59t41 -19q7 0 15 2t11 4v-55q-7 -1 -27.5 -5t-56.5 -4q-49 0 -77.5 7t-42.5 19.5t-18 28.5t-3 34
t1 37v83v80.5v66.5h75h75zM871 467q0 29 20 36t47 6q29 0 46 -7t17 -35q0 -30 -18 -36t-46 -6t-47 6t-19 36z" />
    <glyph glyph-name="f_f_l" unicode="ffl" horiz-adv-x="1097" 
d="M34 352h36v39q0 46 19 78.5t76 35.5q37 2 79 1t79.5 -4t60.5 -5v-78q-6 2 -22 3.5t-36 2.5t-37.5 1.5t-26.5 0.5q-27 0 -35 -12t-8 -34v-29h225v-78h-225v-274h-102q-29 0 -38 10.5t-9 35.5v228h-36v78zM444 352h36v39q0 46 19 78.5t76 35.5q18 1 53 0.5t79 -2t90.5 -3.5
t88 -4t72 -3.5t42.5 -2.5l-29 -75q-5 1 -26.5 2t-53.5 2.5t-67.5 3t-67.5 2.5t-54.5 1.5t-29.5 0.5q-27 0 -35 -12t-8 -34v-29h165v-78h-165v-274h-102q-29 0 -38 10.5t-9 35.5v228h-36v78zM848 436q0 23 4 34.5t15.5 15.5t35.5 4h97q-1 -2 -1 -11t-0.5 -20.5t-1 -21
t-0.5 -11.5v-294q0 -40 6.5 -59t38.5 -19q7 0 16.5 2t12.5 4v-55q-7 -1 -27.5 -5t-55.5 -4q-56 0 -85 11t-40.5 29t-13 40.5t-1.5 45.5v314z" />
    <glyph glyph-name=".notdef" horiz-adv-x="600" 
d="M98 0q-4 0 -4 4q-4 33 -7 85.5t-5 115.5t-2 129q0 67 2 131.5t5.5 118t7.5 85.5q0 4 4 4h402q4 0 4 -4q4 -32 7.5 -85.5t5.5 -118t2 -131.5q0 -66 -2 -129t-5 -115.5t-7 -85.5q0 -4 -4 -4h-404zM124 30h352q5 42 7 96.5t3 110t1 100.5q0 79 -4 158t-9 148h-348
q-6 -85 -9.5 -162.5t-3.5 -145.5q0 -47 0.5 -101t3 -107t7.5 -97zM170 80q-6 0 -5.5 2.5t1.5 3.5l231 502q3 6 9 6h19q8 0 2 -7l-230 -499q-4 -8 -11 -8h-16zM424 80h-16q-8 0 -11 8l-230 499q-6 7 2 7h19q6 0 9 -6l231 -502q1 -1 1.5 -3.5t-5.5 -2.5z" />
    <glyph glyph-name=".null" horiz-adv-x="183" 
 />
    <glyph glyph-name="nonmarkingreturn" horiz-adv-x="333" 
 />
    <glyph glyph-name="space" unicode=" " horiz-adv-x="282" 
 />
    <glyph glyph-name="exclam" unicode="!" horiz-adv-x="242" 
d="M84 161l-36 287q-1 27 13 42t37 15h104l-3 -84l-37 -260h-78zM49 46q0 32 22 40t54 8t51 -8t19 -40q0 -23 -9 -33t-25.5 -13t-38.5 -3q-21 0 -37.5 3t-26 13t-9.5 33z" />
    <glyph glyph-name="quotedbl" unicode="&#x22;" horiz-adv-x="348" 
d="M37 343l42 142h82l-56 -142h-68zM176 343l40 142h85l-59 -142h-66z" />
    <glyph glyph-name="numbersign" unicode="#" horiz-adv-x="540" 
d="M312 97h-98l-11 -112h-67l10 112l-105 1l6 66h107l11 117h-103l6 67h105l11 112h67l-11 -113h98l11 113h67l-12 -113l104 -1l-7 -67h-103l-12 -115l100 -1l-6 -66h-101l-11 -111h-67zM221 164h98l12 115l-98 1z" />
    <glyph glyph-name="dollar" unicode="$" horiz-adv-x="547" 
d="M66 -83q12 22 25.5 47.5l27 51t25.5 47.5q-42 6 -66 18t-34 38t-10 70h62.5h62.5q-2 -22 10.5 -34t35.5 -17t52 -6q19 0 36.5 2t32 7.5t23.5 16.5t9 28q0 22 -10.5 29.5t-31.5 7.5h-63.5h-63.5q-33 0 -61 2t-49 11.5t-32.5 32t-11.5 62.5q0 61 30.5 89.5t86.5 36.5t132 8
q15 0 29 -0.5t28 -1.5q15 29 29 57t29 56h51q-15 -30 -29.5 -58.5t-30.5 -57.5q48 -4 72.5 -17.5t33.5 -39t9 -68.5h-60h-61q0 20 -12 32t-33.5 17.5t-51.5 5.5q-27 0 -49.5 -4t-36 -14.5t-13.5 -30.5q0 -22 12 -28.5t33 -6.5h64h65q41 0 76 -6.5t56.5 -31t21.5 -78.5
q0 -50 -23 -77t-59 -37.5t-78 -13.5q-31 -3 -68 -3.5t-95 0.5l-76 -142h-51z" />
    <glyph glyph-name="percent" unicode="%" horiz-adv-x="679" 
d="M498 460l-202 -474h-104l202 474h104zM635 102q0 -49 -14.5 -70t-40 -26t-60.5 -5q-33 0 -58.5 5.5t-39.5 26.5t-14 69q0 47 16 68.5t42.5 28t60.5 6.5q33 0 57.5 -7t37.5 -29t13 -67zM556 102q0 31 -3 45.5t-10.5 19t-20.5 4.5q-14 0 -21 -4.5t-10.5 -19t-3.5 -45.5
q0 -30 3.5 -45t10.5 -19.5t21 -4.5q13 0 20.5 4.5t10.5 19.5t3 45zM271 356q0 -48 -14 -69.5t-40 -26t-60 -4.5q-33 0 -59 5t-40 26.5t-14 68.5t16 69t43 28.5t59 6.5q34 0 58.5 -7.5t37.5 -29.5t13 -67zM193 357q0 30 -3.5 44.5t-11 19t-20.5 4.5t-20.5 -4.5t-10.5 -19
t-3 -44.5t3 -45t10.5 -19.5t20.5 -4.5t20.5 4.5t11 19.5t3.5 45z" />
    <glyph glyph-name="ampersand" unicode="&#x26;" horiz-adv-x="660" 
d="M628 -14q-21 11 -46.5 24.5t-52.5 29.5q-12 -18 -36 -26.5t-60 -12.5q-49 -4 -101 -5.5t-100 0t-84 5.5q-38 4 -62.5 17t-36 41t-11.5 78q0 31 7.5 59t24 47.5t43.5 23.5q-24 8 -35 29.5t-11 62.5q0 29 8.5 47.5t24 29t36 15.5t44.5 7q37 5 79.5 5.5t85 -0.5t74.5 -3
q35 -2 59.5 -8.5t38.5 -25t14 -57.5q-19 9 -49 13t-59.5 5t-49.5 1q-17 0 -43 -1t-51.5 -6.5t-42.5 -17.5t-17 -34t15 -39.5t52 -37.5l101 -67v86q40 0 72.5 -2.5t54 -14.5t28.5 -38q2 -14 3 -33t1.5 -38t-0.5 -36l82 -44v-79zM230 212q-7 -7 -10.5 -18t-5 -23t-1.5 -22
q0 -37 11 -53.5t36 -22.5q10 -1 22.5 -2t25 -0.5t22.5 2.5q10 1 21.5 4t21.5 11t13 25l-78 50t-78 49z" />
    <glyph glyph-name="quotesingle" unicode="'" horiz-adv-x="250" 
d="M46 314q17 30 33 61t30 58q-3 0 -6.5 0.5t-7.5 0.5q-18 2 -30 11t-12 34q0 22 10.5 32t28.5 13t40 3q34 0 53 -8.5t19 -39.5q0 -24 -12.5 -55.5t-29.5 -61.5t-31 -48h-85z" />
    <glyph glyph-name="parenleft" unicode="(" horiz-adv-x="352" 
d="M316 468q-30 0 -53 -8.5t-38.5 -34t-24 -74t-8.5 -128.5q0 -79 8.5 -128t24 -75t38 -35t52.5 -9v-56q-71 0 -124 9t-88.5 38.5t-53.5 90t-18 163.5q0 100 18 161.5t53.5 93.5t89 43.5t124.5 11.5v-63z" />
    <glyph glyph-name="parenright" unicode=")" horiz-adv-x="352" 
d="M31 531q70 0 123.5 -11.5t89 -43.5t54 -93.5t18.5 -161.5q0 -103 -18 -163.5t-54 -90t-89 -38.5t-123 -9v56q29 0 52 9t38.5 35t24 75t8.5 128q0 80 -8.5 128.5t-24 74t-38.5 34t-53 8.5v63z" />
    <glyph glyph-name="asterisk" unicode="*" horiz-adv-x="512" 
d="M351 96l-90 149l-90 -149l-71 51l115 131l-170 39l27 84l161 -70l-16 175h88l-16 -174l161 69l27 -84l-170 -39l115 -130z" />
    <glyph glyph-name="plus" unicode="+" horiz-adv-x="570" 
d="M211 -29v174h-171v84h171v169h142v-169h177v-84h-177v-174h-142z" />
    <glyph glyph-name="comma" unicode="," horiz-adv-x="245" 
d="M44 -119q17 30 33 61t30 58q-3 0 -6.5 0.5t-7.5 0.5q-18 2 -30 11t-12 34q0 22 10.5 32t28.5 13t40 3q34 0 53 -8.5t19 -39.5q0 -24 -12.5 -55.5t-29.5 -61.5t-31 -48h-85z" />
    <glyph glyph-name="hyphen" unicode="-" horiz-adv-x="360" 
d="M40 222h280v-78h-280v78z" />
    <glyph glyph-name="period" unicode="." horiz-adv-x="232" 
d="M49 46q0 32 22.5 40t53.5 8q33 0 52 -8t19 -40q0 -23 -9.5 -33t-25.5 -13t-38 -3q-21 0 -37.5 3t-26.5 13t-10 33z" />
    <glyph glyph-name="slash" unicode="/" horiz-adv-x="439" 
d="M39 -38l256 604h105l-257 -604h-104z" />
    <glyph glyph-name="zero" unicode="0" horiz-adv-x="561" 
d="M271 -8q-54 0 -98.5 8.5t-77 33t-50 72t-17.5 125.5q0 80 20.5 128t56 72t83 31.5t101.5 7.5q55 0 99.5 -8.5t77 -33t50 -72t17.5 -125.5q0 -80 -20.5 -128t-56 -72t-83 -31.5t-102.5 -7.5zM281 65q22 0 39 5.5t28.5 23t18.5 50.5t7 87q0 55 -6.5 88.5t-18.5 50.5
t-29.5 22.5t-38.5 5.5t-38 -6t-29 -23t-18.5 -50t-6.5 -88q0 -54 6.5 -87t18.5 -50.5t29 -23t38 -5.5z" />
    <glyph glyph-name="one" unicode="1" horiz-adv-x="358" 
d="M143 0v335q0 28 -10.5 39.5t-31.5 11.5q-18 0 -37 -3t-46 -9v73q44 5 85 9t76 4q49 0 78 -9.5t40.5 -30.5t11.5 -57v-363h-166z" />
    <glyph glyph-name="two" unicode="2" horiz-adv-x="557" 
d="M33 0v47.5v47.5q0 53 6.5 87t26 52.5t56 26t95.5 7.5h45.5h44.5q30 0 51.5 9.5t21.5 42.5q0 29 -16.5 39t-41.5 12q-22 1 -40 1.5t-48 0.5q-38 0 -66.5 -2t-45.5 -5q-8 -1 -26 -4t-35.5 -6.5t-24.5 -9.5v22v24v11q0 17 15 28t44.5 18t72 10t96.5 3q77 0 135 -8t90 -38.5
t32 -96.5q0 -64 -23 -94.5t-63 -40t-91 -9.5h-34.5h-50.5q-28 0 -44.5 -6t-23 -18t-6.5 -33v-31h343v-87h-495z" />
    <glyph glyph-name="three" unicode="3" horiz-adv-x="542" 
d="M260 -5q-38 0 -74.5 1.5t-68.5 5t-58 11.5q-20 6 -29.5 18t-9.5 32v48q50 -14 108 -20.5t110 -6.5q43 0 68 5.5t37 18.5t12 35q0 21 -6.5 31.5t-17.5 13.5t-24 3h-217v86h220q19 0 28.5 10.5t9.5 32.5t-10.5 33t-30.5 15t-49 4h-18h-19q-26 0 -61.5 -3t-69 -9t-56.5 -14
v49q0 23 12 35.5t36 18.5q18 4 69 8.5t115 4.5q91 0 142 -10t72 -39.5t21 -86.5q0 -34 -14 -57.5t-44 -27.5v-1q39 0 55 -24.5t16 -76.5q0 -60 -25.5 -91t-81 -42t-147.5 -11z" />
    <glyph glyph-name="four" unicode="4" horiz-adv-x="587" 
d="M336 0v88h-321v81l300 251q18 14 47 22.5t62 13t63 4.5q-1 -2 -1.5 -13.5l-1 -23t-0.5 -15.5v-235h80v-85h-80v-88h-148zM179 173h157v149l-3 -4l-147 -141z" />
    <glyph glyph-name="five" unicode="5" horiz-adv-x="556" 
d="M527 149q0 -47 -10.5 -77t-37 -47t-71.5 -23.5t-114 -6.5q-83 0 -141 4.5t-81 11.5q-19 5 -28 11.5t-11.5 20t-1.5 40.5v29q56 -13 118 -20t119 -7q38 0 66 5.5t42.5 20.5t14.5 42q0 23 -5.5 35t-20 17.5t-39.5 6.5q-34 3 -74 3t-79.5 -1.5t-72.5 -4t-53 -5.5v256h470
v-85h-340v-78h59h66.5t61.5 -1t43 -3q49 -6 75 -23.5t35.5 -47.5t9.5 -73z" />
    <glyph glyph-name="six" unicode="6" horiz-adv-x="544" 
d="M270 -4q-81 0 -129 6.5t-72 29t-32 68t-8 122.5q0 71 6.5 115.5t24.5 69.5t51 36t86 14q28 2 63.5 2.5t63.5 -1.5q36 -1 65 -5t53 -9q21 -1 34.5 -8.5t16 -24.5t-9.5 -48q-31 4 -70.5 6.5t-80.5 4t-80 1.5q-25 0 -45 -5t-31.5 -17t-16.5 -34q0 -5 -1 -15t-2 -19.5
t-1 -12.5q18 6 50 10.5t69.5 7.5t74.5 3q36 -1 67 -5t53.5 -17t35 -40t12.5 -74q0 -48 -11 -79.5t-39 -49t-76 -25t-121 -7.5zM271 78q34 0 60.5 4t42 20t15.5 49q0 28 -11 40.5t-30.5 16.5t-44.5 5q-17 1 -37.5 0.5l-41 -1t-38.5 -1.5t-31 -2q0 -7 0.5 -20.5l1 -27
t1.5 -22.5q4 -27 17.5 -40t37 -17t58.5 -4z" />
    <glyph glyph-name="seven" unicode="7" horiz-adv-x="493" 
d="M75 0l246 374h-307v85h396q48 0 65 -25t-10 -67q-12 -22 -35 -56.5t-51.5 -76t-58 -85t-55.5 -82t-44 -67.5h-146z" />
    <glyph glyph-name="eight" unicode="8" horiz-adv-x="563" 
d="M280 -4q-83 0 -133.5 7t-76 22.5t-33.5 42t-8 65.5q0 44 21 74.5t61 35.5q-33 4 -50 31.5t-17 66.5q0 47 20.5 73t72 37.5t142.5 11.5q73 0 120 -6t73 -20t36.5 -37.5t10.5 -58.5q0 -39 -17 -66.5t-50 -30.5q41 -6 62 -36.5t21 -74.5q0 -38 -8.5 -64t-34.5 -42.5
t-77 -23.5t-135 -7zM259 77h40q55 0 76 12.5t21 48.5q0 26 -7.5 40t-28.5 18.5t-61 4.5h-40q-40 0 -61 -4.5t-28 -18.5t-7 -40q0 -36 20.5 -48.5t75.5 -12.5zM279 287q39 0 61.5 3.5t32 15.5t9.5 35q0 20 -9 31.5t-31.5 16t-62.5 4.5q-41 0 -63 -4.5t-31 -16t-9 -31.5
q0 -23 9 -35t31.5 -15.5t62.5 -3.5z" />
    <glyph glyph-name="nine" unicode="9" horiz-adv-x="544" 
d="M48 91q33 -4 86 -7.5t111 -3.5q60 0 90 5.5t40 19.5t12 37q0 7 0.5 15t0.5 15.5v11.5q-9 -1 -20.5 -3t-25.5 -4q-28 -6 -62 -10.5t-85 -4.5q-83 0 -126 30.5t-43 109.5q0 66 22 101t76 48t150 13q83 0 131 -7.5t71.5 -30t30.5 -68t7 -119.5q0 -67 -5.5 -111t-20.5 -69
t-41 -37.5t-67 -17.5q-38 -4 -74.5 -5.5t-69.5 -1.5q-36 0 -68 1.5t-60 2.5q-32 4 -48.5 17.5t-13.5 42.5zM386 253v36.5t-1 32.5q-1 24 -11.5 37t-35 18t-67.5 5q-44 0 -70 -6.5t-37 -21t-11 -42.5q0 -25 7.5 -39.5t26.5 -20t52 -5.5t64 1t53.5 2.5t29.5 2.5z" />
    <glyph glyph-name="colon" unicode=":" horiz-adv-x="236" 
d="M44 46q0 32 22.5 40t53.5 8q33 0 52 -8t19 -40q0 -23 -9.5 -33t-25.5 -13t-38 -3q-21 0 -37.5 3t-26.5 13t-10 33zM44 315q0 21 10 31.5t27.5 13.5t38.5 3q32 0 51 -8.5t19 -39.5q0 -23 -9 -33.5t-25 -13t-38 -2.5q-21 0 -38 2.5t-26.5 13t-9.5 33.5z" />
    <glyph glyph-name="semicolon" unicode=";" horiz-adv-x="251" 
d="M59 283q0 22 10 32t27.5 13t39.5 3q31 0 50 -8t19 -40q0 -22 -9 -32.5t-25.5 -13.5t-37.5 -3t-38 3t-26.5 13.5t-9.5 32.5zM50 -119q17 30 33.5 61t29.5 58q-3 0 -6.5 0.5t-7.5 0.5q-18 2 -30 11t-12 34q0 22 10.5 32t29 13t40.5 3q33 0 52 -8.5t19 -39.5
q0 -24 -12 -55.5t-29 -61.5t-32 -48h-85z" />
    <glyph glyph-name="less" unicode="&#x3c;" horiz-adv-x="404" 
d="M367 121v-83l-320 153v51l320 156v-88l-201 -93z" />
    <glyph glyph-name="equal" unicode="=" horiz-adv-x="498" 
d="M40 316h418v-81h-418v81zM40 168h418v-81h-418v81z" />
    <glyph glyph-name="greater" unicode="&#x3e;" horiz-adv-x="404" 
d="M248 217l-201 97v84l320 -154v-52l-320 -154v88z" />
    <glyph glyph-name="question" unicode="?" horiz-adv-x="486" 
d="M165 135h-64q0 4 -3 20.5t-7 37t-7 37t-3 23.5q14 0 29 -1t30.5 -1h30.5q66 0 93 13.5t27 58.5q0 39 -24.5 53t-89.5 14h-47q-8 0 -22.5 -1t-30 -1.5t-26.5 -1t-13 -0.5v14.5t1.5 21.5t7 20t15.5 11q11 4 34.5 5t47.5 2h41h44.5h41.5q68 -1 106.5 -13t55 -41t16.5 -82
q0 -48 -19.5 -75.5t-55.5 -39t-87.5 -14t-114.5 -2.5zM72 46q0 32 22 40t54 8t51 -8t19 -40q0 -23 -9 -33t-25.5 -13t-38.5 -3q-21 0 -37.5 3t-26 13t-9.5 33z" />
    <glyph glyph-name="at" unicode="@" horiz-adv-x="801" 
d="M394 424q-78 0 -130.5 -8t-84 -31.5t-44.5 -68.5t-13 -119q0 -65 13.5 -103.5t41.5 -58.5t71 -26.5t102 -6.5q54 0 114 3.5t117 11t102 18.5t69 25v-32.5v-32.5q-32 -11 -76 -21t-94.5 -16t-104.5 -8q-33 -1 -79 -3t-95.5 0t-95.5 11t-80.5 28.5t-48.5 53.5
q-16 26 -22.5 63.5t-6.5 87.5q0 96 18 153t58 85t105 36.5t159 8.5q80 0 143 -4.5t108 -23t69 -60.5t27 -117q1 -42 -4 -76.5t-20 -60t-41.5 -40t-67.5 -16.5q-22 0 -42 3.5t-35 16.5t-24 38q-3 -15 -14.5 -27t-27.5 -17q-21 -6 -50.5 -8.5t-58.5 -2.5q-52 0 -85.5 9.5
t-49.5 38.5t-16 87q0 59 23.5 87t71 36.5t118.5 7.5q16 0 40.5 -1.5t50.5 -2.5t45.5 -3t26.5 -3q-1 -3 -2 -16.5t-1 -30.5v-66v-66q0 -18 11 -25t25 -6q23 1 34.5 19t15 49t3.5 68q0 58 -19.5 91t-55.5 48t-84.5 19.5t-108.5 4.5zM458 279q-4 0 -15.5 1t-25 2t-26.5 1
q-24 0 -40.5 -5.5t-24.5 -19t-8 -38.5q0 -35 6.5 -51.5t22 -21t40.5 -4.5q10 0 22 1.5t23.5 8t18.5 20t7 35.5v71z" />
    <glyph glyph-name="A" unicode="A" horiz-adv-x="609" 
d="M3 0l159 382q16 39 46 60.5t94 21.5q53 0 86 -20t50 -62l160 -382h-178l-43 103h-208l-40 -103h-126zM195 166h152l-54 140q-3 8 -7 14.5t-14 6.5q-11 0 -15.5 -6.5t-7.5 -14.5z" />
    <glyph glyph-name="B" unicode="B" horiz-adv-x="646" 
d="M407 -2h-162h-114t-78 2v414q0 29 12.5 37.5t34.5 8.5q43 0 73.5 0.5t52.5 1t42 0.5h43q28 0 61.5 -0.5t63 -0.5t42.5 -1q55 -4 83 -30t28 -82q0 -40 -13.5 -62.5t-33.5 -32t-41 -10.5q26 0 45.5 -5t32.5 -16.5t20 -33.5t7 -55q0 -45 -11.5 -71.5t-35.5 -40t-62 -18.5
t-90 -5zM354 76q20 0 36 1t27.5 6.5t18 19t6.5 37.5q0 34 -14 47t-58 13h-139q-19 0 -23.5 18.5t-4.5 54.5h162q17 0 30.5 4t21 17.5t7.5 41.5t-11 42t-36 15q-13 1 -29.5 1h-32.5h-37.5h-33.5q-12 0 -19.5 -7t-7.5 -21v-290h25.5h20.5h31.5h59.5z" />
    <glyph glyph-name="C" unicode="C" horiz-adv-x="607" 
d="M31 230q0 70 16 115.5t54 71.5t101.5 37t157.5 11q40 0 75.5 -2.5t74.5 -8.5q42 -5 55 -20t13 -41v-51q-29 11 -67.5 18t-76.5 10.5t-67 3.5q-59 0 -96.5 -10t-54.5 -41t-17 -94q0 -60 17 -91t57 -42t106 -11q28 0 59.5 3.5t66 9.5t73.5 15v-47q0 -24 -14 -39.5
t-57 -21.5q-38 -6 -75.5 -8t-77.5 -2q-95 0 -157.5 10.5t-99 36.5t-51.5 71.5t-15 116.5z" />
    <glyph glyph-name="D" unicode="D" horiz-adv-x="654" 
d="M624 228q0 -73 -16.5 -118.5t-51 -69.5t-87.5 -32.5t-127 -8.5h-86t-77 0.5t-67.5 0.5h-58.5v394q0 35 14 50t52 16q26 0 56.5 0.5t62 0.5h63h58.5q71 -1 121 -10.5t82 -34t47 -70t15 -118.5zM217 83h23.5t29 -0.5t30.5 -0.5h26q35 0 60 6t40 22t22 45t7 73
q0 63 -12.5 95t-41 43.5t-79.5 11.5h-30.5t-36.5 -0.5t-31 -1.5q-3 -5 -5 -12t-2 -20v-261z" />
    <glyph glyph-name="E" unicode="E" horiz-adv-x="605" 
d="M58 0v408q0 32 11 42t43 10h462v-86h-352v-96h320v-85h-320v-107h352v-86h-516z" />
    <glyph glyph-name="F" unicode="F" horiz-adv-x="599" 
d="M58 0v399q0 23 2.5 36t13.5 19t38 6h463v-86h-352v-96h320v-85h-320v-193h-165z" />
    <glyph glyph-name="G" unicode="G" horiz-adv-x="647" 
d="M326 -5q-79 0 -135 9.5t-91.5 35t-52 71t-16.5 117.5q0 78 21.5 125.5t61 71.5t94.5 32t121 8q73 0 129 -2.5t83 -8.5q28 -5 40 -15.5t15.5 -23.5t3.5 -26v-39q-6 8 -29 13t-53.5 8.5t-62.5 5.5t-58.5 2.5t-40.5 0.5q-58 0 -92 -11.5t-49.5 -44t-15.5 -96.5
q0 -60 14.5 -91.5t44.5 -43.5t78 -12q47 0 73.5 7.5t37.5 26.5t12 50v15.5v10.5h-170q0 33 4 51.5t19.5 26.5t50.5 8h255l-1 -110q0 -47 -11.5 -80t-43 -53t-89 -29.5t-147.5 -9.5z" />
    <glyph glyph-name="H" unicode="H" horiz-adv-x="670" 
d="M58 0v414q0 30 12.5 38t42.5 8h109v-179h226v179h164v-408q0 -31 -10 -41.5t-46 -10.5h-108v196h-226v-196h-164z" />
    <glyph glyph-name="I" unicode="I" horiz-adv-x="281" 
d="M58 0v204v204q0 17 2.5 28.5t14 17.5t37.5 6h110v-460h-164z" />
    <glyph glyph-name="J" unicode="J" horiz-adv-x="353" 
d="M300 149v-38t-3 -33q-5 -30 -23.5 -47t-44 -24t-53.5 -9q-29 -1 -51.5 -0.5t-45.5 2.5t-53 5v95q11 -4 33.5 -9t36.5 -5q22 0 30.5 12t8.5 32v330h111q28 0 39.5 -7t13 -20.5t1.5 -33.5v-250z" />
    <glyph glyph-name="K" unicode="K" horiz-adv-x="624" 
d="M508 -13q-29 0 -54 6t-46 21q-7 6 -18 16t-24 22.5t-26.5 25.5t-25.5 25t-22 21q-12 13 -20.5 20t-21.5 15l-28 7v-166h-164v410q0 16 3 27t13.5 17t36.5 6h55.5h55.5v-36.5v-45v-45v-35.5l28 6q9 3 15.5 8.5t16.5 14.5q12 14 33 33.5t43.5 40t38.5 34.5q23 18 50.5 24
t65.5 6q29 0 48 -2.5t40 -6.5q-2 -1 -12.5 -11t-23 -21.5t-19.5 -18.5l-76 -57t-77.5 -60t-67.5 -58l1 46q26 -21 59 -49t71 -60.5t78.5 -66.5t81.5 -65q-5 -7 -19.5 -18t-36.5 -20.5t-52 -9.5z" />
    <glyph glyph-name="L" unicode="L" horiz-adv-x="527" 
d="M222 460v-374h295v-86h-459v406q0 18 2.5 30t13.5 18t38 6h110z" />
    <glyph glyph-name="M" unicode="M" horiz-adv-x="729" 
d="M58 0v409q0 34 12 42.5t50 8.5h125l117 -261l2 -10l2 1l2 10l113 260h133q36 0 46.5 -10t10.5 -41v-358q0 -25 -5 -35.5t-18 -13t-38 -2.5h-103v284l-7 -28l-111 -256h-99l-110 253l-6 28v-281h-116z" />
    <glyph glyph-name="N" unicode="N" horiz-adv-x="672" 
d="M58 0v404q0 35 10 45.5t47 10.5h155l218 -294l6 -23v317h120q-2 -2 -2.5 -12.5t-0.5 -23v-22.5v-353q0 -33 -14 -41t-52 -8h-141l-223 300l-5 25v-325h-118z" />
    <glyph glyph-name="O" unicode="O" horiz-adv-x="656" 
d="M327 -7q-80 0 -136 11t-91.5 37.5t-52 72.5t-16.5 116q0 72 17 117.5t53.5 72t93 37.5t135.5 11t135 -11t91.5 -37.5t52 -72.5t16.5 -117t-17 -117t-53 -72.5t-92.5 -37t-135.5 -10.5zM328 78q33 0 57.5 6.5t40 23.5t23 46.5t7.5 75.5q0 47 -7.5 76.5t-23 46t-40 23
t-57.5 6.5q-34 0 -58.5 -6.5t-39.5 -23t-23 -46t-8 -76.5q0 -46 8 -75.5t23 -46.5t39.5 -23.5t58.5 -6.5z" />
    <glyph glyph-name="P" unicode="P" horiz-adv-x="629" 
d="M54 0q0 97 -0.5 194t-0.5 194q0 38 13 55t53 17q52 0 107.5 0.5t110.5 0t106 -0.5q46 -1 81.5 -14.5t56.5 -45.5t21 -87q0 -60 -19.5 -96.5t-54.5 -52t-81 -15.5q-60 1 -124 1h-123v54.5t5 23t18 5.5h47h54h53q18 0 31 7.5t20.5 24.5t7.5 44q0 32 -11.5 47.5t-37.5 17.5
q-27 1 -52.5 1h-50.5t-47 -1q-6 0 -13 -5t-7 -13v-177.5v-178.5h-163z" />
    <glyph glyph-name="Q" unicode="Q" horiz-adv-x="657" 
d="M327 -7q-80 0 -136 11t-91.5 37.5t-52 72.5t-16.5 116q0 72 17 117.5t53.5 72t93 37.5t135.5 11t135 -11t91.5 -37.5t52 -72.5t16.5 -117t-17 -117t-53 -72.5t-92.5 -37t-135.5 -10.5zM328 78q33 0 57.5 6.5t40 23.5t23 46.5t7.5 75.5q0 47 -7.5 76.5t-23 46t-40 23
t-57.5 6.5q-34 0 -58.5 -6.5t-39.5 -23t-23 -46t-8 -76.5q0 -46 8 -75.5t23 -46.5t39.5 -23.5t58.5 -6.5zM549 -88q-20 0 -40.5 9.5t-43.5 31.5q-11 11 -26.5 29.5t-34 40.5t-38 44.5t-38.5 41.5t-35 32q5 15 16.5 21.5t23.5 6.5q17 0 30.5 -5.5t33.5 -22.5q21 -17 42 -37
t41.5 -41t41.5 -40.5t44 -37t49 -30.5q-11 -23 -27.5 -33t-38.5 -10z" />
    <glyph glyph-name="R" unicode="R" horiz-adv-x="654" 
d="M348 155h-19.5t-49.5 -0.5t-62 -0.5v-154h-164v399q0 29 13 45t53 16q15 0 45 0.5t69 0.5t80.5 0.5t79.5 0t66.5 -1t41.5 -1.5q54 -5 81 -32.5t27 -89.5q0 -56 -8.5 -81.5t-27.5 -39.5q-7 -5 -19 -8t-27 -3v-4h15.5t14.5 -1q38 -7 45.5 -29t7.5 -46v-88q0 -19 4 -27.5
t5 -9.5h-122q-26 0 -40.5 8t-14.5 34v66q0 31 -13.5 39t-47.5 8h-33zM217 233q11 0 33.5 -0.5t49.5 -0.5h49.5h32.5q24 0 42.5 15.5t18.5 58.5q0 30 -10.5 47t-34.5 19q-14 3 -37.5 3h-49t-46.5 -0.5t-31 -0.5q-2 0 -9.5 -3t-7.5 -15v-123z" />
    <glyph glyph-name="S" unicode="S" horiz-adv-x="614" 
d="M39 109q25 -11 64 -16.5t81 -6.5t74 -1h30.5t30.5 1q27 0 46 5.5t28.5 17.5t9.5 34q0 26 -15 34.5t-46 8.5h-25.5h-36.5h-57q-32 0 -64.5 3t-58.5 14.5t-41.5 37t-15.5 70.5q0 54 18.5 84.5t52 45.5t80 19t102.5 4q34 0 73.5 -1t74 -3t53.5 -7q34 -2 52.5 -18t18.5 -40
v-13.5v-18.5v-10q-8 7 -29.5 11.5t-50 6.5t-56 3t-48.5 1h-90q-27 0 -45.5 -4.5t-27.5 -15.5t-9 -31q0 -16 6 -25.5t19 -13.5t34 -4h98h48q48 0 84 -8t56 -36t20 -86q0 -55 -22 -87.5t-60.5 -47.5t-89.5 -18q-48 -3 -91 -3h-91q-40 1 -73.5 3.5t-58.5 9t-38.5 18t-13.5 30.5
v53z" />
    <glyph glyph-name="T" unicode="T" horiz-adv-x="588" 
d="M18 460h552v-87h-193v-319q0 -32 -10 -43t-45 -11h-110v373h-194v87z" />
    <glyph glyph-name="U" unicode="U" horiz-adv-x="644" 
d="M596 228q0 -59 -6.5 -102.5t-32.5 -72t-82 -42t-155 -13.5q-81 0 -132.5 9t-80 27t-41.5 44t-15.5 61t-2.5 78v169q0 31 2 47t15 21.5t44 5.5h103v-275q0 -42 11 -63t35 -27.5t62 -6.5q61 0 86 21t25 75v276h102q32 0 45 -5.5t15.5 -21.5t2.5 -47v-158z" />
    <glyph glyph-name="V" unicode="V" horiz-adv-x="592" 
d="M283 0q-46 0 -69 16.5t-41 57.5l-160 386h180l109 -293q5 -15 12 -21t15 -6h8l123 320h122l-194 -460h-105z" />
    <glyph glyph-name="W" unicode="W" horiz-adv-x="797" 
d="M191 0q-30 0 -50 10t-32 28.5t-16 43.5l-64 378l151 -1l49 -298q3 -16 7.5 -22.5t16.5 -6.5h15l74 328h157l84 -328h17q9 0 13 5.5t5 15.5l36 307h113l-54 -380q-3 -29 -17 -47t-38.5 -25.5t-62.5 -7.5h-112l-60 246l-11 50l-9 -50l-53 -246h-159z" />
    <glyph glyph-name="X" unicode="X" horiz-adv-x="609" 
d="M455 0q-22 0 -39.5 3t-33 12.5t-32.5 29.5l-115 143l-227 272h216l124 -164l209 -240q17 -20 29 -34t24 -22h-155zM91 0l-95 1q17 12 34.5 30.5t31.5 32.5l189 205l176 191h149l-240 -256l-148 -168q-17 -18 -38 -27.5t-59 -8.5z" />
    <glyph glyph-name="Y" unicode="Y" horiz-adv-x="593" 
d="M217 0v183l-196 252l-21 25h228l113 -167l108 167h148l-27 -28l-189 -249v-123q1 -25 -5.5 -38t-22 -17.5t-44.5 -4.5h-92z" />
    <glyph glyph-name="Z" unicode="Z" horiz-adv-x="566" 
d="M241 87h311q0 -31 -1.5 -48.5t-8 -26t-21 -10.5t-40.5 -2h-467v88l17 17t40 39.5t55 54t61 59.5t58 56t46 43q6 6 13.5 10t10.5 6h-286q0 33 2 52t13 27t38 8h461q0 -1 -0.5 -15.5t-5.5 -36t-17.5 -45.5t-37.5 -45l-226 -226z" />
    <glyph glyph-name="bracketleft" unicode="[" horiz-adv-x="357" 
d="M207 0q0 -22 14 -31.5t45 -9.5h38v-56q-2 0 -22 -0.5t-49.5 -0.5h-62.5h-62h-49h-22v632h267v-56h-38q-31 0 -45 -10t-14 -32v-436z" />
    <glyph glyph-name="backslash" unicode="\" horiz-adv-x="470" 
d="M231 151l-116 226h94l114 -226h-92z" />
    <glyph glyph-name="bracketright" unicode="]" horiz-adv-x="357" 
d="M133 436q0 22 -13.5 32t-44.5 10h-38v56h267v-632h-267v57h38q31 0 44.5 9.5t13.5 31.5v436z" />
    <glyph glyph-name="asciicircum" unicode="^" horiz-adv-x="398" 
d="M100 229h-63l126 231h71l127 -231h-67l-94 156z" />
    <glyph glyph-name="underscore" unicode="_" horiz-adv-x="835" 
d="M37 -128h761v-64h-761v64z" />
    <glyph glyph-name="grave" unicode="`" horiz-adv-x="204" 
d="M142 460l-142 90l67 39l137 -129h-62z" />
    <glyph glyph-name="a" unicode="a" horiz-adv-x="534" 
d="M253 -5q-70 0 -113 4.5t-66.5 17.5t-31.5 37t-8 62q0 51 10 77.5t35 36.5t67 10q25 0 57.5 -0.5t64 -1.5t55 -3.5t32.5 -4.5q0 31 -5.5 49t-17.5 27.5t-32 12.5t-49 3q-35 0 -69.5 -1t-67 -4t-59.5 -7v28q0 27 12 40t33 17q23 5 68.5 7t98.5 2q67 0 112.5 -7t71.5 -25
t37 -53.5t11 -94.5v-199q-16 -15 -79.5 -22.5t-166.5 -7.5zM252 57q28 0 47.5 1.5t33.5 4.5t22 7v112q-11 3 -30.5 5t-39.5 3t-31 1q-24 0 -39 -4t-21.5 -18t-6.5 -43q0 -25 5 -40.5t19 -22t41 -6.5z" />
    <glyph glyph-name="b" unicode="b" horiz-adv-x="535" 
d="M266 -4q-68 0 -111.5 7t-67.5 27t-33 59t-9 104l-1 312h148v-108q5 0 17.5 0.5t29 1t35 1t34.5 0.5q77 0 119 -19t58.5 -63.5t16.5 -121.5q0 -69 -14 -109t-43 -59.5t-73.5 -25.5t-105.5 -6zM268 75q36 0 53.5 8.5t24 35.5t6.5 84q0 46 -8 71t-26.5 35t-51.5 10h-19
t-22 -0.5t-19.5 -0.5h-13.5v-145q0 -32 3 -51.5t11 -29.5t22.5 -13.5t39.5 -3.5z" />
    <glyph glyph-name="c" unicode="c" horiz-adv-x="473" 
d="M280 -6q-90 0 -144.5 15.5t-79 58t-24.5 123.5q0 88 24.5 134t79 63t144.5 17q26 0 50.5 -2.5t59.5 -7.5q20 -2 32.5 -9t18.5 -23t6 -48q-11 4 -33.5 7.5t-48.5 5.5t-46 2q-51 0 -80.5 -12t-42 -40t-12.5 -77q0 -48 12.5 -76t42 -40t80.5 -12q23 0 48.5 2t47 5.5
t32.5 7.5v-40q0 -25 -22.5 -36.5t-60.5 -14.5t-84 -3z" />
    <glyph glyph-name="d" unicode="d" horiz-adv-x="524" 
d="M32 200q0 81 24 125.5t68.5 61t104.5 16.5q20 0 42.5 -2t44 -5.5t38 -9t25.5 -12.5l-36 -14v145h148l-1 -304q0 -68 -12 -108.5t-39.5 -61t-74 -27t-114.5 -6.5q-63 0 -105 8t-66.5 30t-35.5 61t-11 103zM257 75q27 0 44 5t26 17t12.5 33t3.5 54l-1 133q-6 0 -16.5 0.5
t-22 1t-22.5 0.5q-38 0 -59.5 -9.5t-30.5 -35t-9 -76.5q0 -52 7.5 -78t24.5 -35.5t43 -9.5z" />
    <glyph glyph-name="e" unicode="e" horiz-adv-x="514" 
d="M266 -6q-70 0 -115 8.5t-71 29.5t-37 59t-11 99q0 78 22 124t76.5 67t151.5 21q76 0 121 -16t65 -50t20 -87v-77h-278q0 21 9.5 35.5t35.5 14.5h100l-1 21q0 41 -16.5 61.5t-61.5 20.5q-37 0 -57.5 -11.5t-28 -40t-7.5 -81.5q0 -48 9.5 -72t34.5 -32.5t71 -8.5q17 0 46 1
t59.5 2.5t54 3t29.5 3.5v-18q0 -14 -4.5 -29.5t-17.5 -25.5q-18 -14 -66.5 -18t-132.5 -4z" />
    <glyph glyph-name="f" unicode="f" horiz-adv-x="394" 
d="M28 352h36v39q0 56 25 85.5t91 29.5q35 0 71 -1.5t69.5 -3t58.5 -4.5v-78q-11 3 -32.5 4.5t-46 2.5t-43.5 1q-27 0 -35 -11.5t-8 -34.5v-29h145v-78h-145v-274h-103q-29 0 -38 10.5t-9 35.5v228h-36v78z" />
    <glyph glyph-name="g" unicode="g" horiz-adv-x="532" 
d="M241 -120q-42 0 -75.5 2t-56.5 8.5t-35.5 18t-12.5 30.5v16v14q10 -5 36.5 -10.5t58.5 -9t57 -3.5q58 0 87 15.5t38 50t4 88.5l17 -2q-11 -30 -28.5 -47t-47.5 -24.5t-76 -7.5q-63 0 -101.5 15.5t-56 54.5t-17.5 111q0 62 12.5 101.5t41.5 61.5t77.5 30t121.5 8
q22 0 54 -1.5t64.5 -4t57.5 -4.5t33 -3q-1 -3 -1.5 -14t-0.5 -25.5v-29.5v-239q0 -81 -26.5 -124t-81.5 -59.5t-143 -16.5zM258 102q22 0 41.5 6.5t31.5 24.5t13 51v134q-8 1 -31 2.5t-49 1.5q-31 0 -48.5 -8.5t-25 -32.5t-7.5 -70q0 -44 8 -68t24.5 -32.5t42.5 -8.5z" />
    <glyph glyph-name="h" unicode="h" horiz-adv-x="538" 
d="M98 0q-35 0 -44 9.5t-9 36.5v459h149v-116q12 3 28.5 5t35.5 3t36 1q68 0 109 -10t62 -31t28.5 -55t7.5 -83v-156q0 -27 -5.5 -40.5t-19.5 -18t-41 -4.5h-80v239q0 38 -9 57.5t-28.5 26t-51.5 6.5q-11 0 -24.5 -1t-26.5 -3.5t-21 -5.5v-319h-96z" />
    <glyph glyph-name="i" unicode="i" horiz-adv-x="274" 
d="M161 -4q-67 0 -93 26t-26 85l1 292h149v-286q0 -31 9.5 -44.5t31.5 -13.5q13 0 22 2t11 3v-55q-4 -1 -15 -3t-32 -4t-58 -2zM119 447q-35 0 -50 9t-15 33t15.5 33.5t51.5 9.5q34 -1 48.5 -10t13.5 -33q0 -24 -13.5 -33t-50.5 -9z" />
    <glyph glyph-name="j" unicode="j" horiz-adv-x="239" 
d="M55 -99q-38 0 -66 4t-36 5v55q7 -2 22.5 -3.5t24.5 -1.5q34 0 41 17t7 57v312q0 22 4 33t15 15.5t34 4.5h96l1 -379q0 -42 -11 -68.5t-42 -38.5t-90 -12zM125 447q-35 0 -50 9t-15 33t15.5 33.5t51.5 9.5q34 -1 48.5 -10t13.5 -33q0 -24 -13.5 -33t-50.5 -9z" />
    <glyph glyph-name="k" unicode="k" horiz-adv-x="548" 
d="M46 0l-1 453q0 30 9.5 41t42.5 11h99v-268l135 133q19 17 38.5 24.5t59.5 7.5q30 0 54.5 -1t45.5 -2q-5 -3 -18 -12.5t-27 -20t-26 -18.5l-125 -107l179 -190q15 -14 30 -27.5t28 -23.5q-42 -1 -83.5 -1h-75.5q-35 0 -52 8t-34 25l-95 101l-34 -14v-119h-150z" />
    <glyph glyph-name="l" unicode="l" horiz-adv-x="272" 
d="M176 -4q-70 0 -101 23.5t-31 83.5v348q0 22 4 34t16 16t35 4h97q-1 -3 -2.5 -22t-1.5 -42v-321q0 -36 9 -50.5t34 -14.5q9 0 19.5 2t12.5 3v-55q-7 -1 -26 -5t-65 -4z" />
    <glyph glyph-name="m" unicode="m" horiz-adv-x="759" 
d="M100 0q-34 0 -44.5 10t-10.5 45v319q15 5 39.5 9.5t53.5 8.5t59.5 6.5t56.5 2.5q40 0 69 -6t49.5 -23t34.5 -51l-21 1q9 26 26 42t40 23.5t45 10.5t40 3q69 0 109 -11.5t57.5 -42t17.5 -85.5v-212q0 -33 -11.5 -41.5t-42.5 -8.5h-95v133.5v133.5q-1 39 -15.5 51t-43.5 12
q-14 0 -26.5 -4t-20.5 -11t-8 -17v-298h-150v278q0 27 -15.5 38.5t-43.5 11.5q-16 0 -28 -2.5t-19 -7t-8 -13.5v-305h-94z" />
    <glyph glyph-name="n" unicode="n" horiz-adv-x="527" 
d="M83 0q-38 0 -38 39v336q30 10 90 18.5t132 8.5q77 0 121.5 -8.5t66 -29t28 -54.5t6.5 -85v-169q0 -22 -3 -34.5t-15.5 -17.5t-38.5 -5l-91 1v260q0 33 -20 47t-54 14q-12 0 -26 -2.5t-26.5 -6t-20.5 -9.5v-303h-111z" />
    <glyph glyph-name="o" unicode="o" horiz-adv-x="530" 
d="M266 -6q-57 0 -101 8t-73.5 30t-44.5 62.5t-15 104.5t15 104.5t44.5 62.5t73.5 30t101 8q58 0 101 -8t72 -30t44 -62.5t15 -104.5t-15 -105t-44.5 -62.5t-72.5 -29.5t-100 -8zM266 67q28 0 45.5 10.5t26.5 39t9 82.5t-9 82.5t-26.5 39t-45.5 10.5q-26 0 -45 -10.5
t-28.5 -39t-9.5 -82.5t9.5 -82.5t28.5 -39t45 -10.5z" />
    <glyph glyph-name="p" unicode="p" horiz-adv-x="543" 
d="M47 -107l1 430q0 24 -0.5 43t-2.5 23q8 2 34 4.5t60 4.5t68.5 3.5t62.5 1.5q93 0 146 -20.5t74.5 -65.5t19.5 -119q-2 -75 -19 -119.5t-57.5 -63t-111.5 -18.5q-44 0 -73 8.5t-46 26t-26 42.5l21 9v-190h-151zM280 77q47 0 62.5 31.5t15.5 98.5q1 65 -16.5 90.5
t-66.5 25.5q-12 0 -26 -0.5t-27.5 -1.5t-23.5 -2v-143q0 -41 10 -62t28 -29t44 -8z" />
    <glyph glyph-name="q" unicode="q" horiz-adv-x="532" 
d="M343 -108v109q-13 -1 -26.5 -1.5t-28 -1t-30 -1t-32.5 -0.5q-73 0 -115 15.5t-60.5 58t-18.5 126.5q0 65 12 105t39.5 61.5t73 29.5t111.5 8h64.5t72 -0.5t61.5 -0.5t31 1q-3 -13 -3.5 -29t-0.5 -38v-442h-150zM277 78h17t20.5 0.5t18 1t10.5 0.5v242h-29.5h-47.5
q-32 0 -50.5 -9t-26 -36t-7.5 -81q1 -50 9.5 -75.5t29 -34t56.5 -8.5z" />
    <glyph glyph-name="r" unicode="r" horiz-adv-x="463" 
d="M195 0h-108q-22 0 -32 11t-10 44v324q28 7 81.5 15t120.5 8q70 0 110.5 -8t59.5 -24.5t24.5 -42t5.5 -61.5h-143v14q0 24 -8.5 35t-20.5 14t-25 3q-20 0 -34.5 -4t-20.5 -12v-316z" />
    <glyph glyph-name="s" unicode="s" horiz-adv-x="517" 
d="M230 -4q-24 0 -51 1t-53.5 4t-48.5 9q-18 4 -29.5 10.5t-17 25t-5.5 58.5q31 -11 64 -17.5t64.5 -9t58.5 -2.5q19 0 41.5 0.5t43.5 5t35 15t14 29.5q0 23 -12 30t-32 7h-114q-46 0 -81.5 5t-56 27.5t-20.5 76.5q0 59 29.5 87.5t84.5 37.5t132 9q28 0 65.5 -1t65.5 -5
q31 -3 48.5 -9.5t25.5 -20t8 -41.5v-28q-6 10 -30.5 15.5t-59 7.5t-72 2h-69.5q-22 0 -40.5 -2.5t-29.5 -12t-11 -30.5q0 -16 7 -23.5t19 -9.5t27 -2h127q42 0 74 -7.5t49 -32t17 -76.5q0 -60 -34 -88t-94 -36.5t-139 -8.5z" />
    <glyph glyph-name="t" unicode="t" horiz-adv-x="330" 
d="M203 -4q-54 0 -84.5 11.5t-42.5 38t-12 73.5v202h-43v78h43v51q0 25 3.5 37t14.5 15t35 3h96v-10v-15v-81h97v-78h-96v-190q0 -40 7.5 -58t40.5 -18q9 0 23.5 2t20.5 4v-55q-7 -1 -34.5 -5.5t-68.5 -4.5z" />
    <glyph glyph-name="u" unicode="u" horiz-adv-x="523" 
d="M187 399v-259q0 -36 17.5 -50.5t56.5 -14.5q41 0 58 15.5t17 48.5v260h13t27.5 0.5t29 0.5h16.5q23 0 37 -2.5t20 -12.5t6 -35v-194q0 -60 -18 -95.5t-67 -51t-142 -15.5q-86 0 -134 12.5t-67 45.5t-19 93v205q0 29 10 39.5t43 10.5q24 0 48 -0.5t48 -0.5z" />
    <glyph glyph-name="v" unicode="v" horiz-adv-x="420" 
d="M192 0q-17 0 -29 3.5t-21.5 15t-19.5 35.5l-132 346h155l69 -207q6 -18 12 -25.5t21 -7.5q15 51 29.5 101t29.5 100q6 18 16.5 28t33.5 10h59l-149 -399h-74z" />
    <glyph glyph-name="w" unicode="w" horiz-adv-x="749" 
d="M217 -5q-64 0 -103.5 10.5t-57.5 41.5t-18 92v204q0 34 9.5 45t39.5 11h100v-259q0 -39 14 -50t41 -11q31 0 44.5 11.5t13.5 43.5v265h150v-266q0 -31 13.5 -42.5t41.5 -11.5q31 0 44.5 11t13.5 51v258h96q34 0 43.5 -10.5t9.5 -45.5v-204q0 -58 -18 -89t-59 -43
t-112 -12q-69 0 -108 22.5t-48 70.5h16q-8 -35 -26.5 -55.5t-52 -29t-87.5 -8.5z" />
    <glyph glyph-name="x" unicode="x" horiz-adv-x="470" 
d="M-6 0l152 198l-118 160q-7 11 -15.5 23t-17.5 19h190l73 -100l77 100h110q-1 -3 -6 -7.5t-12 -14.5l-107 -161l160 -217h-127q-31 0 -54 11t-40 34l-60 79l-94 -124h-111z" />
    <glyph glyph-name="y" unicode="y" horiz-adv-x="514" 
d="M252 -111q-57 0 -106 5t-78.5 16.5t-29.5 29.5v43q16 -9 45 -15t62 -9.5t61 -3.5q48 0 75 10.5t38.5 33.5t11.5 59v39q-11 -20 -29.5 -31.5t-47 -16t-71.5 -4.5q-65 0 -97 20.5t-41.5 57.5t-9.5 86v138q0 15 2.5 27t13.5 18.5t35 6.5h101v-45v-35.5v-35.5v-45
q0 -57 7.5 -83t23.5 -33t40 -7q25 0 40 8t22.5 33t7.5 77v166h104q24 0 36.5 -7.5t12.5 -35.5v-289q0 -90 -53 -134t-176 -44z" />
    <glyph glyph-name="z" unicode="z" horiz-adv-x="465" 
d="M208 79h240l1 -32q2 -27 -10 -37t-41 -10h-380v73l219 247h-209v37q0 20 10.5 31t26.5 11h375q4 -17 -4.5 -38.5t-22.5 -42.5t-28 -37z" />
    <glyph glyph-name="braceleft" unicode="{" horiz-adv-x="417" 
d="M271 88q0 -44 20 -59.5t52 -15.5h17.5h19.5v-14v-23v-14q-83 0 -137.5 2.5t-85 15t-43 42t-12.5 82.5q0 52 -4 75.5t-18 29.5t-43 6v13v21.5v12.5q32 0 45.5 8t16.5 33.5t3 76.5q0 53 17 82.5t51.5 42t86.5 15t123 2.5v-13.5v-23v-14.5h-45q-31 0 -47.5 -13.5
t-16.5 -61.5v-35q0 -41 -11.5 -67.5t-29.5 -39.5t-36 -14q18 -1 36 -13t29.5 -35t11.5 -59v-45z" />
    <glyph glyph-name="bar" unicode="|" horiz-adv-x="289" 
d="M214 460v-619h-139v619h139z" />
    <glyph glyph-name="braceright" unicode="}" horiz-adv-x="417" 
d="M146 88v45q0 36 12.5 59t31.5 35t37 13q-18 1 -37 14t-31.5 39.5t-12.5 67.5v35q0 48 -16 61.5t-48 13.5h-45v14.5v23v13.5q71 0 123.5 -2.5t86.5 -15t51 -42t17 -82.5q0 -51 3.5 -76.5t17 -33.5t44.5 -8v-12.5v-21.5v-13q-29 0 -42.5 -6t-18 -29.5t-4.5 -75.5
q0 -53 -12.5 -82.5t-43 -42t-85 -15t-137.5 -2.5v14v23v14h19.5h17.5q32 0 52 15.5t20 59.5z" />
    <glyph glyph-name="asciitilde" unicode="~" horiz-adv-x="419" 
d="M39 486l7 10.5t19.5 24t28.5 24.5t35 12t39 -5.5t40.5 -15.5t40.5 -16t38 -5q13 1 26.5 9.5t24.5 19t15 15.5l26 -40l-6.5 -9.5t-19 -23t-29 -24.5t-35.5 -13q-18 -2 -38.5 4.5t-41 15.5t-40 16t-38.5 6q-12 -1 -25.5 -10t-24 -19t-15.5 -15z" />
    <glyph glyph-name="uni00A0" unicode="&#xa0;" horiz-adv-x="282" 
 />
    <glyph glyph-name="exclamdown" unicode="&#xa1;" horiz-adv-x="236" 
d="M158 222l37 -287q0 -27 -14 -42t-37 -15h-104l3 84l37 260h78zM194 337q0 -32 -22 -40t-54 -8t-51.5 8.5t-19.5 39.5q0 24 9.5 34t26 12.5t37.5 2.5t37.5 -2.5t26.5 -12.5t10 -34z" />
    <glyph glyph-name="cent" unicode="&#xa2;" horiz-adv-x="539" 
d="M285 53q-74 0 -123.5 11.5t-77.5 36t-40 64t-12 95.5q1 70 23.5 115t76 67t147.5 22q76 0 122 -9.5t69.5 -28.5t31.5 -47.5t8 -66.5h-119q1 49 -24.5 70t-75.5 21q-39 0 -65 -14t-38 -45.5t-12 -82.5q1 -57 13.5 -88t39 -43t66.5 -12q32 0 53 9t32 29.5t11 54.5h123
q0 -45 -10.5 -75t-35.5 -48.5t-70 -26.5t-113 -8zM149 0l221 523h47l-220 -523h-48z" />
    <glyph glyph-name="sterling" unicode="&#xa3;" horiz-adv-x="546" 
d="M34 246h65v125q0 61 25.5 93t73.5 44t117 12q105 0 153 -32.5t48 -90.5v-52h-131v51q0 31 -9 46.5t-23.5 20.5t-32.5 5q-17 0 -33.5 -5t-26.5 -26t-10 -70v-121h93v-40h-92v-39q0 -13 -2.5 -32t-8 -35t-15.5 -21h290v-79h-481v55q20 0 34.5 10t22.5 35.5t8 74.5v31h-65
v40z" />
    <glyph glyph-name="currency" unicode="&#xa4;" horiz-adv-x="487" 
d="M363 469q22 -23 29 -61.5t1 -77.5t-24 -65l65 -78h-39l-60 52q-23 -9 -56.5 -12t-67 0.5t-59.5 12.5l-61 -53h-39l66 81q-16 25 -21.5 61.5t1.5 73.5t26 62l-72 90h39l71 -64q36 13 78 12.5t85 -10.5l70 62h39zM152 364q0 -42 12 -62t34 -26t49 -6t47 6t31.5 26.5
t11.5 61.5q0 42 -11.5 62t-31.5 26t-47 6t-49 -6t-34 -26t-12 -62z" />
    <glyph glyph-name="yen" unicode="&#xa5;" horiz-adv-x="593" 
d="M217 0v183l-196 252l-21 25h228l113 -167l108 167h148l-27 -28l-189 -249v-123q1 -25 -5.5 -38t-22 -17.5t-44.5 -4.5h-92zM136 178h325v-32h-325v32zM136 106h325v-32h-325v32z" />
    <glyph glyph-name="brokenbar" unicode="&#xa6;" horiz-adv-x="227" 
d="M178 102v-261h-139v261h139zM178 460v-252h-139v252h139z" />
    <glyph glyph-name="section" unicode="&#xa7;" horiz-adv-x="605" 
d="M44 -102q11 -6 31 -9t44 -5.5t46 -3.5t36 -1q51 0 83 2t49.5 7.5t24 17t6.5 30.5q0 28 -20 35.5t-74 7.5q-21 0 -50 -0.5t-49 0.5q-22 1 -44.5 5t-42 16.5t-31 38.5t-11.5 69q0 65 30 94.5t87 39.5q-15 8 -23 32.5t-8 67.5t22.5 67.5t59.5 36.5t84 15.5t97 3.5
q53 0 92 -1.5t64.5 -9t38.5 -25t13 -49.5v-18.5v-9.5q-13 11 -34 17.5t-44.5 9t-42 3t-27.5 0.5q-53 0 -86 -1t-51 -5.5t-24 -14.5t-6 -28q0 -20 8.5 -29.5t32.5 -11.5t72 -2h43h42q41 0 70 -9t44 -34t15 -74q0 -57 -18.5 -87t-49.5 -40.5t-67 -10.5q36 -2 59 -28t23 -73
q0 -55 -36.5 -83t-101 -37.5t-148.5 -9.5q-13 0 -39 0.5t-57 3t-59.5 7t-47.5 12.5t-21 19q-3 16 -3.5 33t-0.5 19zM397 78q25 0 39 19t14 42q0 21 -10 37t-34 16l-116 1h-14.5h-16h-10.5q-28 -4 -40 -21.5t-13 -36.5q1 -27 13 -42t37 -15h151z" />
    <glyph glyph-name="dieresis" unicode="&#xa8;" horiz-adv-x="368" 
d="M238 459q-24 0 -39.5 6.5t-15.5 34.5q0 26 16.5 32t40.5 6q22 0 37 -7t15 -31q0 -28 -14.5 -34.5t-39.5 -6.5zM55 459q-24 0 -39.5 6.5t-15.5 34.5q0 26 16.5 32t40.5 6q23 0 37 -7t14 -31q0 -27 -14.5 -34t-38.5 -7z" />
    <glyph glyph-name="copyright" unicode="&#xa9;" horiz-adv-x="583" 
d="M34 245q0 71 34.5 125t93.5 84t130 30q72 0 130 -30t92.5 -84t34.5 -125q0 -70 -34.5 -126.5t-92.5 -89t-130 -32.5q-71 0 -130 32.5t-93.5 89t-34.5 126.5zM83 245q0 -58 28 -103t75 -71t106 -26q56 0 103 26t75 71t28 103q0 59 -28 101.5t-75 65.5t-103 23
q-59 0 -106 -23t-75 -65.5t-28 -101.5zM297 362q36 0 63 -4.5t42 -18.5t15 -45v-7.5v-8.5h-62q0 13 -2.5 21.5t-7.5 13.5q-6 11 -18.5 14.5t-32.5 3.5q-18 0 -33 -5.5t-21 -20.5q-6 -10 -8.5 -25t-2.5 -30q0 -16 2.5 -29t9.5 -23q11 -31 53 -31q16 0 30 4t22 15
q4 4 6.5 10.5t2.5 17.5v3.5v3.5h63v-10.5v-11.5q0 -30 -18 -43.5t-46.5 -16.5t-60.5 -3q-50 0 -80.5 8.5t-44 32.5t-13.5 70q0 43 15 68t46.5 36t80.5 11z" />
    <glyph glyph-name="ordfeminine" unicode="&#xaa;" horiz-adv-x="534" 
d="M253 -5q-70 0 -113 4.5t-66.5 17.5t-31.5 37t-8 62q0 51 10 77.5t35 36.5t67 10q25 0 57.5 -0.5t64 -1.5t55 -3.5t32.5 -4.5q0 31 -5.5 49t-17.5 27.5t-32 12.5t-49 3q-35 0 -69.5 -1t-67 -4t-59.5 -7v28q0 27 12 40t33 17q23 5 68.5 7t98.5 2q67 0 112.5 -7t71.5 -25
t37 -53.5t11 -94.5v-199q-16 -15 -79.5 -22.5t-166.5 -7.5zM252 57q28 0 47.5 1.5t33.5 4.5t22 7v112q-11 3 -30.5 5t-39.5 3t-31 1q-24 0 -39 -4t-21.5 -18t-6.5 -43q0 -25 5 -40.5t19 -22t41 -6.5z" />
    <glyph glyph-name="guillemotleft" unicode="&#xab;" horiz-adv-x="460" 
d="M139 264l94 -186h-83l-113 186l113 187h82zM326 264l94 -186h-83l-113 186l113 187h82z" />
    <glyph glyph-name="logicalnot" unicode="&#xac;" horiz-adv-x="637" 
d="M532 238h-495v108h561v-243h-66v135z" />
    <glyph glyph-name="uni00AD" unicode="&#xad;" horiz-adv-x="360" 
d="M40 222h280v-78h-280v78z" />
    <glyph glyph-name="registered" unicode="&#xae;" horiz-adv-x="386" 
d="M88 435q0 -32 16 -59.5t43 -44t60 -16.5t60 16.5t42.5 44t15.5 59.5q0 33 -15.5 60t-42.5 43t-60 16t-60 -16t-43 -43t-16 -60zM50 435q0 43 21 78.5t56.5 56.5t78.5 21q44 0 79 -21t56 -56.5t21 -78.5t-21 -78.5t-56 -56.5t-79 -21q-43 0 -78.5 21t-56.5 56.5t-21 78.5z
M220 419h-6.5h-16h-19.5v-49h-44v122q0 9 4 14t15 5h12.5h19.5h22.5h22h18.5h12q15 -2 23 -10.5t8 -27.5q0 -17 -2.5 -24.5t-8.5 -12.5q-2 -1 -5.5 -1.5t-6.5 -0.5v-1h3.5t4.5 -1q10 -2 12.5 -9t2.5 -14v-29q0 -4 1 -7t2 -3h-32q-8 0 -11.5 2.5t-3.5 9.5v23q0 9 -4 11.5
t-14 2.5h-9zM178 442h10h15t15 -0.5t10 -0.5q7 0 13 5t6 19q0 9 -3 15t-11 6q-5 1 -12 1.5t-14.5 0t-14 -1t-9.5 -0.5q-1 0 -3 -0.5t-2 -4.5v-39z" />
    <glyph glyph-name="macron" unicode="&#xaf;" horiz-adv-x="316" 
d="M1 460v60h277v-60h-277z" />
    <glyph glyph-name="degree" unicode="&#xb0;" horiz-adv-x="328" 
d="M38 513q0 49 17.5 74.5t48 35.5t65.5 10q36 0 63.5 -10.5t43 -36.5t15.5 -73q0 -51 -16 -78.5t-44.5 -38t-65.5 -10.5t-65.5 10.5t-45 38t-16.5 78.5zM103 514q0 -38 17 -51.5t44 -13.5t44 13.5t17 51.5q0 36 -16.5 49t-42.5 13t-44.5 -12.5t-18.5 -49.5z" />
    <glyph glyph-name="plusminus" unicode="&#xb1;" horiz-adv-x="505" 
d="M48 83h409v-83h-409v83zM48 343h168v125h66v-125h175v-85h-175v-112h-66v112h-168v85z" />
    <glyph glyph-name="uni00B2" unicode="&#xb2;" horiz-adv-x="322" 
d="M14 246v29.5v29.5q0 43 6.5 66t29.5 31.5t72 8.5h25.5h25.5q15 0 26 5t11 23q0 17 -9 21.5t-21 5.5t-22.5 1.5t-28.5 0.5q-22 0 -37.5 -1.5t-22.5 -2.5q-5 -1 -16 -2.5t-21.5 -3.5t-15.5 -6v40q0 15 15 23t45.5 11.5t75.5 3.5q46 0 80.5 -5.5t53 -24t18.5 -59.5
q0 -38 -13.5 -57t-37 -24.5t-55.5 -5.5h-18.5h-28.5q-21 0 -28 -7.5t-7 -24.5v-15h192v-61h-294z" />
    <glyph glyph-name="uni00B3" unicode="&#xb3;" horiz-adv-x="313" 
d="M153 244q-29 0 -61 1.5t-56 8.5q-12 4 -19 12t-6 21v34q31 -8 65 -12t62 -4q35 0 47.5 8t12.5 25q0 15 -7.5 20t-17.5 5h-123v53h123q11 0 16.5 6t5.5 18q0 17 -13 22t-34 5h-11h-10q-14 0 -34 -2t-40.5 -5.5t-34.5 -7.5v34q0 16 8 24t22 11q13 4 42.5 6.5t64.5 2.5
q53 0 83.5 -6.5t43.5 -24t13 -53.5q0 -20 -7.5 -34.5t-25.5 -16.5v-1q24 0 32 -15.5t8 -45.5q0 -37 -14.5 -56t-47.5 -26t-87 -7z" />
    <glyph glyph-name="acute" unicode="&#xb4;" horiz-adv-x="239" 
d="M1 460l136 129l68 -39l-143 -90h-61z" />
    <glyph glyph-name="uni03BC" unicode="&#xb5;" horiz-adv-x="541" 
d="M262 -2q-25 0 -44 5.5t-29 14.5v-35v-23v-36v-13t0.5 -22.5t1 -23t0.5 -14.5h-52h-53q-20 0 -33.5 14.5t-13.5 39.5v146v134v146q0 36 10 50.5t27 16.5t37 1h13t27 -0.5t26.5 -0.5h12.5q0 -1 -0.5 -4.5t-0.5 -10.5v-109.5v-110.5q1 -42 8.5 -63t23 -27.5t39.5 -6.5
q25 0 40 6.5t22.5 28t7.5 66.5v105.5v105.5q0 9 -0.5 14t-0.5 6h12.5t27 0.5t27.5 0.5h14q21 1 38 -1t26 -16.5t9 -53.5v-127q0 -54 -6 -92.5t-27.5 -63t-66 -36t-123.5 -11.5z" />
    <glyph glyph-name="paragraph" unicode="&#xb6;" horiz-adv-x="447" 
d="M382 528v-650h-171v344q-65 0 -102 16.5t-52 51.5t-15 91q0 55 16.5 87t53.5 46t98 14h172z" />
    <glyph glyph-name="periodcentered" unicode="&#xb7;" horiz-adv-x="234" 
d="M44 234q0 32 22.5 40t53.5 8q33 0 52 -8.5t19 -39.5q0 -23 -9.5 -33t-25.5 -13t-38 -3q-21 0 -37.5 3t-26.5 13t-10 33z" />
    <glyph glyph-name="cedilla" unicode="&#xb8;" horiz-adv-x="250" 
d="M59 -179q-35 0 -44.5 7t-9.5 29h15h35q27 0 37 4.5t10 16.5q0 16 -9.5 20t-37.5 4h-43q-1 0 -3.5 5t0 14.5t12.5 22.5q7 7 15 15.5t17.5 17t19 15t17.5 9.5h44l-54 -66q44 1 65.5 -2.5t28.5 -16t7 -39.5t-10 -39t-36 -14.5t-76 -2.5z" />
    <glyph glyph-name="uni00B9" unicode="&#xb9;" horiz-adv-x="204" 
d="M70 246v202q0 16 -6 23.5t-19 7.5q-11 0 -21 -1.5t-28 -5.5v48q30 4 54 6t47 2q48 0 65.5 -13.5t17.5 -47.5l1 -221h-111z" />
    <glyph glyph-name="ordmasculine" unicode="&#xba;" horiz-adv-x="530" 
d="M266 -6q-57 0 -101 8t-73.5 30t-44.5 62.5t-15 104.5t15 104.5t44.5 62.5t73.5 30t101 8q58 0 101 -8t72 -30t44 -62.5t15 -104.5t-15 -105t-44.5 -62.5t-72.5 -29.5t-100 -8zM266 67q28 0 45.5 10.5t26.5 39t9 82.5t-9 82.5t-26.5 39t-45.5 10.5q-26 0 -45 -10.5
t-28.5 -39t-9.5 -82.5t9.5 -82.5t28.5 -39t45 -10.5z" />
    <glyph glyph-name="guillemotright" unicode="&#xbb;" horiz-adv-x="460" 
d="M38 451h82l113 -187l-113 -186h-83l94 186zM225 451h82l112 -187l-112 -186h-83l94 186z" />
    <glyph glyph-name="onequarter" unicode="&#xbc;" horiz-adv-x="633" 
d="M70 246v202q0 16 -6 23.5t-19 7.5q-11 0 -21 -1.5t-28 -5.5v48q30 4 54 6t47 2q48 0 65.5 -13.5t17.5 -47.5l1 -221h-111zM495 519l-342 -600h-88l341 600h89zM477 -78v52h-180v54l163 146q20 17 54.5 23.5t63.5 6.5q-1 -1 -1 -12.5v-20.5v-140h46v-57h-46v-52h-100z
M396 31h81v81z" />
    <glyph glyph-name="onehalf" unicode="&#xbd;" horiz-adv-x="678" 
d="M70 246v202q0 16 -6 23.5t-19 7.5q-11 0 -21 -1.5t-28 -5.5v48q30 4 54 6t47 2q48 0 65.5 -13.5t17.5 -47.5l1 -221h-111zM495 519l-342 -600h-88l341 600h89zM370 -79v29.5v29.5q0 43 6.5 66t29.5 31.5t72 8.5h25.5h25.5q15 0 26 5t11 23q0 17 -9 21.5t-21 5.5
t-22.5 1.5t-28.5 0.5q-22 0 -37.5 -1.5t-22.5 -2.5q-5 -1 -16 -2.5t-21.5 -3.5t-15.5 -6v40q0 15 15 23t45.5 11.5t75.5 3.5q46 0 80.5 -5.5t53 -24t18.5 -59.5q0 -38 -13.5 -57t-37 -24.5t-55.5 -5.5h-18.5h-28.5q-21 0 -28 -7.5t-7 -24.5v-15h192v-61h-294z" />
    <glyph glyph-name="threequarters" unicode="&#xbe;" horiz-adv-x="742" 
d="M153 244q-29 0 -61 1.5t-56 8.5q-12 4 -19 12t-6 21v34q31 -8 65 -12t62 -4q35 0 47.5 8t12.5 25q0 15 -7.5 20t-17.5 5h-123v53h123q11 0 16.5 6t5.5 18q0 17 -13 22t-34 5h-11h-10q-14 0 -34 -2t-40.5 -5.5t-34.5 -7.5v34q0 16 8 24t22 11q13 4 42.5 6.5t64.5 2.5
q53 0 83.5 -6.5t43.5 -24t13 -53.5q0 -20 -7.5 -34.5t-25.5 -16.5v-1q24 0 32 -15.5t8 -45.5q0 -37 -14.5 -56t-47.5 -26t-87 -7zM604 519l-342 -600h-88l341 600h89zM586 -78v52h-180v54l163 146q20 17 54.5 23.5t63.5 6.5q-1 -1 -1 -12.5v-20.5v-140h46v-57h-46v-52h-100z
M505 31h81v81z" />
    <glyph glyph-name="questiondown" unicode="&#xbf;" horiz-adv-x="485" 
d="M321 236h64q0 -4 3 -20.5t7 -37t7 -37t3 -23.5q-14 1 -29 1.5t-30.5 0.5h-30.5q-66 0 -93 -13.5t-27 -58.5q0 -39 24.5 -53t89.5 -14h47q8 0 22.5 1t30 1.5t26.5 1t14 0.5v-14.5t-2 -21.5t-7.5 -20t-15.5 -11q-11 -3 -34 -4.5t-48 -2.5h-40h-44.5h-42.5q-67 1 -106 13
t-55.5 41t-16.5 82q0 49 19.5 76t55.5 38.5t87.5 14t114.5 2.5zM414 325q0 -32 -21.5 -40t-54.5 -8q-32 0 -51 8.5t-19 39.5q0 24 9 34t25.5 12.5t38.5 2.5q21 0 37.5 -2.5t26 -12.5t9.5 -34z" />
    <glyph glyph-name="Agrave" unicode="&#xc0;" horiz-adv-x="609" 
d="M3 0l159 382q16 39 46 60.5t94 21.5q53 0 86 -20t50 -62l160 -382h-178l-43 103h-208l-40 -103h-126zM195 166h152l-54 140q-3 8 -7 14.5t-14 6.5q-11 0 -15.5 -6.5t-7.5 -14.5zM302 521l-120 73l67 40l115 -113h-62z" />
    <glyph glyph-name="Aacute" unicode="&#xc1;" horiz-adv-x="609" 
d="M3 0l159 382q16 39 46 60.5t94 21.5q53 0 86 -20t50 -62l160 -382h-178l-43 103h-208l-40 -103h-126zM195 166h152l-54 140q-3 8 -7 14.5t-14 6.5q-11 0 -15.5 -6.5t-7.5 -14.5zM251 521l115 113l67 -40l-121 -73h-61z" />
    <glyph glyph-name="Acircumflex" unicode="&#xc2;" horiz-adv-x="609" 
d="M3 0l159 382q16 39 46 60.5t94 21.5q53 0 86 -20t50 -62l160 -382h-178l-43 103h-208l-40 -103h-126zM195 166h152l-54 140q-3 8 -7 14.5t-14 6.5q-11 0 -15.5 -6.5t-7.5 -14.5zM174 521l105 113h41l107 -113h-65l-63 53l-65 -53h-60z" />
    <glyph glyph-name="Atilde" unicode="&#xc3;" horiz-adv-x="609" 
d="M3 0l159 382q16 39 46 60.5t94 21.5q53 0 86 -20t50 -62l160 -382h-178l-43 103h-208l-40 -103h-126zM195 166h152l-54 140q-3 8 -7 14.5t-14 6.5q-11 0 -15.5 -6.5t-7.5 -14.5zM357 522q-20 -1 -38 9.5t-36 21.5t-38 9q-19 0 -30.5 -11.5t-15.5 -17.5l-27 23q0 1 5 11.5
t14.5 23.5t23 23.5t30.5 10.5q20 1 38.5 -9.5t36.5 -21t36 -10.5q22 0 34 12.5t17 21.5l27 -22l-5.5 -11.5t-15 -26t-23.5 -25.5t-33 -11z" />
    <glyph glyph-name="Adieresis" unicode="&#xc4;" horiz-adv-x="609" 
d="M3 0l159 382q16 39 46 60.5t94 21.5q53 0 86 -20t50 -62l160 -382h-178l-43 103h-208l-40 -103h-126zM195 166h152l-54 140q-3 8 -7 14.5t-14 6.5q-11 0 -15.5 -6.5t-7.5 -14.5zM392 520q-24 0 -39.5 6.5t-15.5 34.5q0 26 16.5 32t40.5 6q22 0 37 -7t15 -31
q0 -28 -14.5 -34.5t-39.5 -6.5zM209 520q-24 0 -39.5 6.5t-15.5 34.5q0 26 16.5 32t40.5 6q23 0 37 -7t14 -31q0 -27 -14.5 -34t-38.5 -7z" />
    <glyph glyph-name="Aring" unicode="&#xc5;" horiz-adv-x="609" 
d="M3 0l159 382q16 39 46 60.5t94 21.5q53 0 86 -20t50 -62l160 -382h-178l-43 103h-208l-40 -103h-126zM195 166h152l-54 140q-3 8 -7 14.5t-14 6.5q-11 0 -15.5 -6.5t-7.5 -14.5zM300 522q-30 0 -52 4.5t-33.5 18.5t-11.5 41q0 26 11.5 39t34 17t53.5 4q32 0 54 -4t34 -17
t12 -39q0 -27 -12 -41t-34.5 -18.5t-55.5 -4.5zM302 562q21 0 31.5 4.5t10.5 17.5q0 14 -10.5 18.5t-31.5 4.5t-31.5 -4.5t-10.5 -18.5q0 -13 10 -17.5t32 -4.5z" />
    <glyph glyph-name="AE" unicode="&#xc6;" horiz-adv-x="888" 
d="M24 0q37 49 66.5 88t55 73t52 69.5t58 76.5t71.5 93q23 29 46.5 41.5t48 15.5t48.5 3h399v-45.5v-45.5h-330v-90h298v-91h-148.5h-149.5v-97h330v-91h-244h-244v95h-176q-17 -24 -34 -47.5t-34 -47.5h-113zM260 161h60.5h60.5v81v81l-5.5 -5.5t-4.5 -5.5q-7 0 -11.5 -5.5
t-9.5 -12.5q-22 -33 -44.5 -66t-45.5 -67z" />
    <glyph glyph-name="Ccedilla" unicode="&#xc7;" horiz-adv-x="607" 
d="M31 230q0 70 16 115.5t54 71.5t101.5 37t157.5 11q40 0 75.5 -2.5t74.5 -8.5q42 -5 55 -20t13 -41v-51q-29 11 -67.5 18t-76.5 10.5t-67 3.5q-59 0 -96.5 -10t-54.5 -41t-17 -94q0 -60 17 -91t57 -42t106 -11q28 0 59.5 3.5t66 9.5t73.5 15v-47q0 -24 -14 -39.5
t-57 -21.5q-38 -6 -75.5 -8t-77.5 -2q-95 0 -157.5 10.5t-99 36.5t-51.5 71.5t-15 116.5zM304 -179q-35 0 -44.5 7t-9.5 29h15h35q27 0 37 4.5t10 16.5q0 16 -9.5 20t-37.5 4h-43q-1 0 -3.5 5t0 14.5t12.5 22.5q7 7 15 15.5t17.5 17t19 15t17.5 9.5h44l-54 -66
q44 1 65.5 -2.5t28.5 -16t7 -39.5t-10 -39t-36 -14.5t-76 -2.5z" />
    <glyph glyph-name="Egrave" unicode="&#xc8;" horiz-adv-x="605" 
d="M58 0v408q0 32 11 42t43 10h462v-86h-352v-96h320v-85h-320v-107h352v-86h-516zM317 521l-120 73l67 40l115 -113h-62z" />
    <glyph glyph-name="Eacute" unicode="&#xc9;" horiz-adv-x="605" 
d="M58 0v408q0 32 11 42t43 10h462v-86h-352v-96h320v-85h-320v-107h352v-86h-516zM265 521l115 113l67 -40l-121 -73h-61z" />
    <glyph glyph-name="Ecircumflex" unicode="&#xca;" horiz-adv-x="605" 
d="M58 0v408q0 32 11 42t43 10h462v-86h-352v-96h320v-85h-320v-107h352v-86h-516zM189 521l105 113h41l107 -113h-65l-63 53l-65 -53h-60z" />
    <glyph glyph-name="Edieresis" unicode="&#xcb;" horiz-adv-x="605" 
d="M58 0v408q0 32 11 42t43 10h462v-86h-352v-96h320v-85h-320v-107h352v-86h-516zM406 520q-24 0 -39.5 6.5t-15.5 34.5q0 26 16.5 32t40.5 6q22 0 37 -7t15 -31q0 -28 -14.5 -34.5t-39.5 -6.5zM223 520q-24 0 -39.5 6.5t-15.5 34.5q0 26 16.5 32t40.5 6q23 0 37 -7t14 -31
q0 -27 -14.5 -34t-38.5 -7z" />
    <glyph glyph-name="Igrave" unicode="&#xcc;" horiz-adv-x="281" 
d="M58 0v204v204q0 17 2.5 28.5t14 17.5t37.5 6h110v-460h-164zM142 521l-120 73l67 40l115 -113h-62z" />
    <glyph glyph-name="Iacute" unicode="&#xcd;" horiz-adv-x="281" 
d="M58 0v204v204q0 17 2.5 28.5t14 17.5t37.5 6h110v-460h-164zM91 521l115 113l67 -40l-121 -73h-61z" />
    <glyph glyph-name="Icircumflex" unicode="&#xce;" horiz-adv-x="281" 
d="M58 0v204v204q0 17 2.5 28.5t14 17.5t37.5 6h110v-460h-164zM14 521l105 113h41l107 -113h-65l-63 53l-65 -53h-60z" />
    <glyph glyph-name="Idieresis" unicode="&#xcf;" horiz-adv-x="281" 
d="M58 0v204v204q0 17 2.5 28.5t14 17.5t37.5 6h110v-460h-164zM232 520q-24 0 -39.5 6.5t-15.5 34.5q0 26 16.5 32t40.5 6q22 0 37 -7t15 -31q0 -28 -14.5 -34.5t-39.5 -6.5zM49 520q-24 0 -39.5 6.5t-15.5 34.5q0 26 16.5 32t40.5 6q23 0 37 -7t14 -31q0 -27 -14.5 -34
t-38.5 -7z" />
    <glyph glyph-name="Eth" unicode="&#xd0;" horiz-adv-x="654" 
d="M624 228q0 -73 -16.5 -118.5t-51 -69.5t-87.5 -32.5t-127 -8.5h-86t-77 0.5t-67.5 0.5h-58.5v394q0 35 14 50t52 16q26 0 56.5 0.5t62 0.5h63h58.5q71 -1 121 -10.5t82 -34t47 -70t15 -118.5zM217 83h23.5t29 -0.5t30.5 -0.5h26q35 0 60 6t40 22t22 45t7 73
q0 63 -12.5 95t-41 43.5t-79.5 11.5h-30.5t-36.5 -0.5t-31 -1.5q-3 -5 -5 -12t-2 -20v-261zM4 247h327v-48h-327v48z" />
    <glyph glyph-name="Ntilde" unicode="&#xd1;" horiz-adv-x="672" 
d="M58 0v404q0 35 10 45.5t47 10.5h155l218 -294l6 -23v317h120q-2 -2 -2.5 -12.5t-0.5 -23v-22.5v-353q0 -33 -14 -41t-52 -8h-141l-223 300l-5 25v-325h-118zM393 522q-20 -1 -38 9.5t-36 21.5t-38 9q-19 0 -30.5 -11.5t-15.5 -17.5l-27 23q0 1 5 11.5t14.5 23.5t23 23.5
t30.5 10.5q20 1 38.5 -9.5t36.5 -21t36 -10.5q22 0 34 12.5t17 21.5l27 -22l-5.5 -11.5t-15 -26t-23.5 -25.5t-33 -11z" />
    <glyph glyph-name="Ograve" unicode="&#xd2;" horiz-adv-x="656" 
d="M327 -7q-80 0 -136 11t-91.5 37.5t-52 72.5t-16.5 116q0 72 17 117.5t53.5 72t93 37.5t135.5 11t135 -11t91.5 -37.5t52 -72.5t16.5 -117t-17 -117t-53 -72.5t-92.5 -37t-135.5 -10.5zM328 78q33 0 57.5 6.5t40 23.5t23 46.5t7.5 75.5q0 47 -7.5 76.5t-23 46t-40 23
t-57.5 6.5q-34 0 -58.5 -6.5t-39.5 -23t-23 -46t-8 -76.5q0 -46 8 -75.5t23 -46.5t39.5 -23.5t58.5 -6.5zM330 521l-120 73l67 40l115 -113h-62z" />
    <glyph glyph-name="Oacute" unicode="&#xd3;" horiz-adv-x="656" 
d="M327 -7q-80 0 -136 11t-91.5 37.5t-52 72.5t-16.5 116q0 72 17 117.5t53.5 72t93 37.5t135.5 11t135 -11t91.5 -37.5t52 -72.5t16.5 -117t-17 -117t-53 -72.5t-92.5 -37t-135.5 -10.5zM328 78q33 0 57.5 6.5t40 23.5t23 46.5t7.5 75.5q0 47 -7.5 76.5t-23 46t-40 23
t-57.5 6.5q-34 0 -58.5 -6.5t-39.5 -23t-23 -46t-8 -76.5q0 -46 8 -75.5t23 -46.5t39.5 -23.5t58.5 -6.5zM279 521l115 113l67 -40l-121 -73h-61z" />
    <glyph glyph-name="Ocircumflex" unicode="&#xd4;" horiz-adv-x="656" 
d="M327 -7q-80 0 -136 11t-91.5 37.5t-52 72.5t-16.5 116q0 72 17 117.5t53.5 72t93 37.5t135.5 11t135 -11t91.5 -37.5t52 -72.5t16.5 -117t-17 -117t-53 -72.5t-92.5 -37t-135.5 -10.5zM328 78q33 0 57.5 6.5t40 23.5t23 46.5t7.5 75.5q0 47 -7.5 76.5t-23 46t-40 23
t-57.5 6.5q-34 0 -58.5 -6.5t-39.5 -23t-23 -46t-8 -76.5q0 -46 8 -75.5t23 -46.5t39.5 -23.5t58.5 -6.5zM202 521l105 113h41l107 -113h-65l-63 53l-65 -53h-60z" />
    <glyph glyph-name="Otilde" unicode="&#xd5;" horiz-adv-x="656" 
d="M327 -7q-80 0 -136 11t-91.5 37.5t-52 72.5t-16.5 116q0 72 17 117.5t53.5 72t93 37.5t135.5 11t135 -11t91.5 -37.5t52 -72.5t16.5 -117t-17 -117t-53 -72.5t-92.5 -37t-135.5 -10.5zM328 78q33 0 57.5 6.5t40 23.5t23 46.5t7.5 75.5q0 47 -7.5 76.5t-23 46t-40 23
t-57.5 6.5q-34 0 -58.5 -6.5t-39.5 -23t-23 -46t-8 -76.5q0 -46 8 -75.5t23 -46.5t39.5 -23.5t58.5 -6.5zM385 522q-20 -1 -38 9.5t-36 21.5t-38 9q-19 0 -30.5 -11.5t-15.5 -17.5l-27 23q0 1 5 11.5t14.5 23.5t23 23.5t30.5 10.5q20 1 38.5 -9.5t36.5 -21t36 -10.5
q22 0 34 12.5t17 21.5l27 -22l-5.5 -11.5t-15 -26t-23.5 -25.5t-33 -11z" />
    <glyph glyph-name="Odieresis" unicode="&#xd6;" horiz-adv-x="656" 
d="M327 -7q-80 0 -136 11t-91.5 37.5t-52 72.5t-16.5 116q0 72 17 117.5t53.5 72t93 37.5t135.5 11t135 -11t91.5 -37.5t52 -72.5t16.5 -117t-17 -117t-53 -72.5t-92.5 -37t-135.5 -10.5zM328 78q33 0 57.5 6.5t40 23.5t23 46.5t7.5 75.5q0 47 -7.5 76.5t-23 46t-40 23
t-57.5 6.5q-34 0 -58.5 -6.5t-39.5 -23t-23 -46t-8 -76.5q0 -46 8 -75.5t23 -46.5t39.5 -23.5t58.5 -6.5zM420 520q-24 0 -39.5 6.5t-15.5 34.5q0 26 16.5 32t40.5 6q22 0 37 -7t15 -31q0 -28 -14.5 -34.5t-39.5 -6.5zM237 520q-24 0 -39.5 6.5t-15.5 34.5q0 26 16.5 32
t40.5 6q23 0 37 -7t14 -31q0 -27 -14.5 -34t-38.5 -7z" />
    <glyph glyph-name="multiply" unicode="&#xd7;" horiz-adv-x="412" 
d="M148 195l-114 128l66 51l106 -120l107 119l67 -51l-108 -123l107 -114l-70 -56l-100 113l-104 -114l-67 49z" />
    <glyph glyph-name="Oslash" unicode="&#xd8;" horiz-adv-x="647" 
d="M27 230q0 83 24.5 131t67 71t97.5 29.5t115 6.5q61 0 113 -7.5t92 -30.5t62.5 -71t22.5 -129q0 -83 -24.5 -131t-67 -70.5t-97.5 -29t-115 -6.5q-62 0 -115 7t-92 30.5t-61 71.5t-22 128zM458 229q0 51 -9 81t-26.5 46t-42.5 21t-56 5q-32 0 -57.5 -5t-42.5 -21
t-26.5 -46t-9.5 -81q0 -50 9.5 -81t26.5 -46.5t42.5 -20.5t57.5 -5q31 0 56 5t42.5 20.5t26.5 46.5t9 81zM173 -85l234 610h46l-236 -610h-44z" />
    <glyph glyph-name="Ugrave" unicode="&#xd9;" horiz-adv-x="644" 
d="M596 228q0 -59 -6.5 -102.5t-32.5 -72t-82 -42t-155 -13.5q-81 0 -132.5 9t-80 27t-41.5 44t-15.5 61t-2.5 78v169q0 31 2 47t15 21.5t44 5.5h103v-275q0 -42 11 -63t35 -27.5t62 -6.5q61 0 86 21t25 75v276h102q32 0 45 -5.5t15.5 -21.5t2.5 -47v-158zM324 521l-120 73
l67 40l115 -113h-62z" />
    <glyph glyph-name="Uacute" unicode="&#xda;" horiz-adv-x="644" 
d="M596 228q0 -59 -6.5 -102.5t-32.5 -72t-82 -42t-155 -13.5q-81 0 -132.5 9t-80 27t-41.5 44t-15.5 61t-2.5 78v169q0 31 2 47t15 21.5t44 5.5h103v-275q0 -42 11 -63t35 -27.5t62 -6.5q61 0 86 21t25 75v276h102q32 0 45 -5.5t15.5 -21.5t2.5 -47v-158zM273 521l115 113
l67 -40l-121 -73h-61z" />
    <glyph glyph-name="Ucircumflex" unicode="&#xdb;" horiz-adv-x="644" 
d="M596 228q0 -59 -6.5 -102.5t-32.5 -72t-82 -42t-155 -13.5q-81 0 -132.5 9t-80 27t-41.5 44t-15.5 61t-2.5 78v169q0 31 2 47t15 21.5t44 5.5h103v-275q0 -42 11 -63t35 -27.5t62 -6.5q61 0 86 21t25 75v276h102q32 0 45 -5.5t15.5 -21.5t2.5 -47v-158zM196 521l105 113
h41l107 -113h-65l-63 53l-65 -53h-60z" />
    <glyph glyph-name="Udieresis" unicode="&#xdc;" horiz-adv-x="644" 
d="M596 228q0 -59 -6.5 -102.5t-32.5 -72t-82 -42t-155 -13.5q-81 0 -132.5 9t-80 27t-41.5 44t-15.5 61t-2.5 78v169q0 31 2 47t15 21.5t44 5.5h103v-275q0 -42 11 -63t35 -27.5t62 -6.5q61 0 86 21t25 75v276h102q32 0 45 -5.5t15.5 -21.5t2.5 -47v-158zM413 520
q-24 0 -39.5 6.5t-15.5 34.5q0 26 16.5 32t40.5 6q22 0 37 -7t15 -31q0 -28 -14.5 -34.5t-39.5 -6.5zM230 520q-24 0 -39.5 6.5t-15.5 34.5q0 26 16.5 32t40.5 6q23 0 37 -7t14 -31q0 -27 -14.5 -34t-38.5 -7z" />
    <glyph glyph-name="Yacute" unicode="&#xdd;" horiz-adv-x="593" 
d="M217 0v183l-196 252l-21 25h228l113 -167l108 167h148l-27 -28l-189 -249v-123q1 -25 -5.5 -38t-22 -17.5t-44.5 -4.5h-92zM295 521l115 113l67 -40l-121 -73h-61z" />
    <glyph glyph-name="Thorn" unicode="&#xde;" horiz-adv-x="613" 
d="M31 443q0 35 10.5 44.5t43.5 9.5h79v-82h229q68 0 101.5 -16t45 -48.5t11.5 -84.5q0 -48 -15 -82t-52 -52t-104 -18h-215v-114h-134v443zM165 334v-138h211q13 0 22.5 5.5t14.5 21t5 43.5q0 30 -5.5 44t-16 19t-24.5 5h-207z" />
    <glyph glyph-name="germandbls" unicode="&#xdf;" horiz-adv-x="784" 
d="M10 -106q3 -1 13 -2.5t23.5 -1.5h23.5q30 0 48.5 21.5t18.5 59.5v73.5v54.5v48v54.5v73.5h-20.5h-31.5h-21v7.5v20v49.5h21h31.5h20.5v41q1 46 31 70.5t90 33.5t147 9q62 0 104.5 -4t67 -14.5t35 -30.5t8.5 -52q0 -31 -11 -47t-25 -21.5t-22 -5.5q-21 0 -37 -2
t-28.5 -6.5t-19 -14.5t-6.5 -25q0 -16 11 -25t28 -11.5t36 -2.5h52h42q38 0 61.5 -13t35 -38.5t11.5 -63.5q0 -57 -24 -86t-67.5 -38.5t-100.5 -9.5q-32 0 -64.5 0.5t-63 3t-55.5 10t-41 21.5l-7 56q17 -9 46 -14.5t61.5 -7.5t57.5 -2q47 0 72.5 5t35.5 17t10 33
q0 25 -12 33.5t-42 8.5q-18 0 -32 0.5t-27.5 1t-33.5 0.5q-37 0 -66 7.5t-45 31t-16 68.5q0 49 20.5 74t60.5 33.5t98 8.5q3 31 -8 45t-35 17.5t-63 3.5q-27 0 -55 -7t-46.5 -27t-18.5 -58v-387q0 -39 -12 -64.5t-31 -40t-41 -21.5t-43 -9t-36 -2q-42 0 -67.5 3.5t-36 16.5
t-10.5 40z" />
    <glyph glyph-name="agrave" unicode="&#xe0;" horiz-adv-x="534" 
d="M253 -5q-70 0 -113 4.5t-66.5 17.5t-31.5 37t-8 62q0 51 10 77.5t35 36.5t67 10q25 0 57.5 -0.5t64 -1.5t55 -3.5t32.5 -4.5q0 31 -5.5 49t-17.5 27.5t-32 12.5t-49 3q-35 0 -69.5 -1t-67 -4t-59.5 -7v28q0 27 12 40t33 17q23 5 68.5 7t98.5 2q67 0 112.5 -7t71.5 -25
t37 -53.5t11 -94.5v-199q-16 -15 -79.5 -22.5t-166.5 -7.5zM252 57q28 0 47.5 1.5t33.5 4.5t22 7v112q-11 3 -30.5 5t-39.5 3t-31 1q-24 0 -39 -4t-21.5 -18t-6.5 -43q0 -25 5 -40.5t19 -22t41 -6.5zM264 460l-142 90l67 39l137 -129h-62z" />
    <glyph glyph-name="aacute" unicode="&#xe1;" horiz-adv-x="534" 
d="M253 -5q-70 0 -113 4.5t-66.5 17.5t-31.5 37t-8 62q0 51 10 77.5t35 36.5t67 10q25 0 57.5 -0.5t64 -1.5t55 -3.5t32.5 -4.5q0 31 -5.5 49t-17.5 27.5t-32 12.5t-49 3q-35 0 -69.5 -1t-67 -4t-59.5 -7v28q0 27 12 40t33 17q23 5 68.5 7t98.5 2q67 0 112.5 -7t71.5 -25
t37 -53.5t11 -94.5v-199q-16 -15 -79.5 -22.5t-166.5 -7.5zM252 57q28 0 47.5 1.5t33.5 4.5t22 7v112q-11 3 -30.5 5t-39.5 3t-31 1q-24 0 -39 -4t-21.5 -18t-6.5 -43q0 -25 5 -40.5t19 -22t41 -6.5zM225 460l136 129l68 -39l-143 -90h-61z" />
    <glyph glyph-name="acircumflex" unicode="&#xe2;" horiz-adv-x="534" 
d="M253 -5q-70 0 -113 4.5t-66.5 17.5t-31.5 37t-8 62q0 51 10 77.5t35 36.5t67 10q25 0 57.5 -0.5t64 -1.5t55 -3.5t32.5 -4.5q0 31 -5.5 49t-17.5 27.5t-32 12.5t-49 3q-35 0 -69.5 -1t-67 -4t-59.5 -7v28q0 27 12 40t33 17q23 5 68.5 7t98.5 2q67 0 112.5 -7t71.5 -25
t37 -53.5t11 -94.5v-199q-16 -15 -79.5 -22.5t-166.5 -7.5zM252 57q28 0 47.5 1.5t33.5 4.5t22 7v112q-11 3 -30.5 5t-39.5 3t-31 1q-24 0 -39 -4t-21.5 -18t-6.5 -43q0 -25 5 -40.5t19 -22t41 -6.5zM139 460l106 133h41l107 -133h-65l-63 69l-65 -69h-61z" />
    <glyph glyph-name="atilde" unicode="&#xe3;" horiz-adv-x="534" 
d="M253 -5q-70 0 -113 4.5t-66.5 17.5t-31.5 37t-8 62q0 51 10 77.5t35 36.5t67 10q25 0 57.5 -0.5t64 -1.5t55 -3.5t32.5 -4.5q0 31 -5.5 49t-17.5 27.5t-32 12.5t-49 3q-35 0 -69.5 -1t-67 -4t-59.5 -7v28q0 27 12 40t33 17q23 5 68.5 7t98.5 2q67 0 112.5 -7t71.5 -25
t37 -53.5t11 -94.5v-199q-16 -15 -79.5 -22.5t-166.5 -7.5zM252 57q28 0 47.5 1.5t33.5 4.5t22 7v112q-11 3 -30.5 5t-39.5 3t-31 1q-24 0 -39 -4t-21.5 -18t-6.5 -43q0 -25 5 -40.5t19 -22t41 -6.5zM324 460q-20 0 -38.5 10.5t-36.5 21.5t-38 9q-19 0 -30 -12t-15 -18
l-27 23q1 1 5.5 11.5t13.5 24t22.5 23.5t31.5 10q20 2 38 -9t36 -21.5t36 -10.5q22 0 34.5 13t17.5 22l27 -21q0 -1 -5.5 -12.5t-15 -26t-24 -26t-32.5 -11.5z" />
    <glyph glyph-name="adieresis" unicode="&#xe4;" horiz-adv-x="534" 
d="M253 -5q-70 0 -113 4.5t-66.5 17.5t-31.5 37t-8 62q0 51 10 77.5t35 36.5t67 10q25 0 57.5 -0.5t64 -1.5t55 -3.5t32.5 -4.5q0 31 -5.5 49t-17.5 27.5t-32 12.5t-49 3q-35 0 -69.5 -1t-67 -4t-59.5 -7v28q0 27 12 40t33 17q23 5 68.5 7t98.5 2q67 0 112.5 -7t71.5 -25
t37 -53.5t11 -94.5v-199q-16 -15 -79.5 -22.5t-166.5 -7.5zM252 57q28 0 47.5 1.5t33.5 4.5t22 7v112q-11 3 -30.5 5t-39.5 3t-31 1q-24 0 -39 -4t-21.5 -18t-6.5 -43q0 -25 5 -40.5t19 -22t41 -6.5zM358 459q-24 0 -39.5 6.5t-15.5 34.5q0 26 16.5 32t40.5 6q22 0 37 -7
t15 -31q0 -28 -14.5 -34.5t-39.5 -6.5zM175 459q-24 0 -39.5 6.5t-15.5 34.5q0 26 16.5 32t40.5 6q23 0 37 -7t14 -31q0 -27 -14.5 -34t-38.5 -7z" />
    <glyph glyph-name="aring" unicode="&#xe5;" horiz-adv-x="534" 
d="M253 -5q-70 0 -113 4.5t-66.5 17.5t-31.5 37t-8 62q0 51 10 77.5t35 36.5t67 10q25 0 57.5 -0.5t64 -1.5t55 -3.5t32.5 -4.5q0 31 -5.5 49t-17.5 27.5t-32 12.5t-49 3q-35 0 -69.5 -1t-67 -4t-59.5 -7v28q0 27 12 40t33 17q23 5 68.5 7t98.5 2q67 0 112.5 -7t71.5 -25
t37 -53.5t11 -94.5v-199q-16 -15 -79.5 -22.5t-166.5 -7.5zM252 57q28 0 47.5 1.5t33.5 4.5t22 7v112q-11 3 -30.5 5t-39.5 3t-31 1q-24 0 -39 -4t-21.5 -18t-6.5 -43q0 -25 5 -40.5t19 -22t41 -6.5zM263 454q-46 0 -71.5 16t-25.5 58t25.5 56t73.5 14q47 0 73.5 -14
t26.5 -56t-26.5 -58t-75.5 -16zM265 494q20 0 31 6t11 28q0 19 -11 25t-31 6q-19 0 -30.5 -6t-11.5 -25q0 -22 11 -28t31 -6z" />
    <glyph glyph-name="ae" unicode="&#xe6;" horiz-adv-x="865" 
d="M253 -5q-70 0 -113 4.5t-66.5 17.5t-31.5 37t-8 62q0 51 10 77.5t35 36.5t67 10q25 0 57.5 -0.5t64 -1.5t55 -3.5t32.5 -4.5q0 31 -5.5 49t-17.5 27.5t-32 12.5t-49 3q-35 0 -69.5 -1t-67 -4t-59.5 -7v28q0 27 12 40t33 17q23 5 68.5 7t98.5 2q67 0 112.5 -7t71.5 -25
t37 -53.5t11 -94.5v-199q-16 -15 -79.5 -22.5t-166.5 -7.5zM252 57q28 0 47.5 1.5t33.5 4.5t22 7v112q-11 3 -30.5 5t-39.5 3t-31 1q-24 0 -39 -4t-21.5 -18t-6.5 -43q0 -25 5 -40.5t19 -22t41 -6.5zM590 -6q-70 0 -115 8.5t-71 29.5t-37 59t-11 99q0 78 22 124t76.5 67
t151.5 21q76 0 121 -16t65 -50t20 -87v-77h-278q0 21 9.5 35.5t35.5 14.5h100l-1 21q0 41 -16.5 61.5t-61.5 20.5q-37 0 -57.5 -11.5t-28 -40t-7.5 -81.5q0 -48 9.5 -72t34.5 -32.5t71 -8.5q17 0 46 1t59.5 2.5t54 3t29.5 3.5v-18q0 -14 -4.5 -29.5t-17.5 -25.5
q-18 -14 -66.5 -18t-132.5 -4z" />
    <glyph glyph-name="ccedilla" unicode="&#xe7;" horiz-adv-x="473" 
d="M280 -6q-90 0 -144.5 15.5t-79 58t-24.5 123.5q0 88 24.5 134t79 63t144.5 17q26 0 50.5 -2.5t59.5 -7.5q20 -2 32.5 -9t18.5 -23t6 -48q-11 4 -33.5 7.5t-48.5 5.5t-46 2q-51 0 -80.5 -12t-42 -40t-12.5 -77q0 -48 12.5 -76t42 -40t80.5 -12q23 0 48.5 2t47 5.5
t32.5 7.5v-40q0 -25 -22.5 -36.5t-60.5 -14.5t-84 -3zM229 -179q-35 0 -44.5 7t-9.5 29h15h35q27 0 37 4.5t10 16.5q0 16 -9.5 20t-37.5 4h-43q-1 0 -3.5 5t0 14.5t12.5 22.5q7 7 15 15.5t17.5 17t19 15t17.5 9.5h44l-54 -66q44 1 65.5 -2.5t28.5 -16t7 -39.5t-10 -39
t-36 -14.5t-76 -2.5z" />
    <glyph glyph-name="egrave" unicode="&#xe8;" horiz-adv-x="514" 
d="M266 -6q-70 0 -115 8.5t-71 29.5t-37 59t-11 99q0 78 22 124t76.5 67t151.5 21q76 0 121 -16t65 -50t20 -87v-77h-278q0 21 9.5 35.5t35.5 14.5h100l-1 21q0 41 -16.5 61.5t-61.5 20.5q-37 0 -57.5 -11.5t-28 -40t-7.5 -81.5q0 -48 9.5 -72t34.5 -32.5t71 -8.5q17 0 46 1
t59.5 2.5t54 3t29.5 3.5v-18q0 -14 -4.5 -29.5t-17.5 -25.5q-18 -14 -66.5 -18t-132.5 -4zM263 460l-142 90l67 39l137 -129h-62z" />
    <glyph glyph-name="eacute" unicode="&#xe9;" horiz-adv-x="514" 
d="M266 -6q-70 0 -115 8.5t-71 29.5t-37 59t-11 99q0 78 22 124t76.5 67t151.5 21q76 0 121 -16t65 -50t20 -87v-77h-278q0 21 9.5 35.5t35.5 14.5h100l-1 21q0 41 -16.5 61.5t-61.5 20.5q-37 0 -57.5 -11.5t-28 -40t-7.5 -81.5q0 -48 9.5 -72t34.5 -32.5t71 -8.5q17 0 46 1
t59.5 2.5t54 3t29.5 3.5v-18q0 -14 -4.5 -29.5t-17.5 -25.5q-18 -14 -66.5 -18t-132.5 -4zM224 460l136 129l68 -39l-143 -90h-61z" />
    <glyph glyph-name="ecircumflex" unicode="&#xea;" horiz-adv-x="514" 
d="M266 -6q-70 0 -115 8.5t-71 29.5t-37 59t-11 99q0 78 22 124t76.5 67t151.5 21q76 0 121 -16t65 -50t20 -87v-77h-278q0 21 9.5 35.5t35.5 14.5h100l-1 21q0 41 -16.5 61.5t-61.5 20.5q-37 0 -57.5 -11.5t-28 -40t-7.5 -81.5q0 -48 9.5 -72t34.5 -32.5t71 -8.5q17 0 46 1
t59.5 2.5t54 3t29.5 3.5v-18q0 -14 -4.5 -29.5t-17.5 -25.5q-18 -14 -66.5 -18t-132.5 -4zM138 460l106 133h41l107 -133h-65l-63 69l-65 -69h-61z" />
    <glyph glyph-name="edieresis" unicode="&#xeb;" horiz-adv-x="514" 
d="M266 -6q-70 0 -115 8.5t-71 29.5t-37 59t-11 99q0 78 22 124t76.5 67t151.5 21q76 0 121 -16t65 -50t20 -87v-77h-278q0 21 9.5 35.5t35.5 14.5h100l-1 21q0 41 -16.5 61.5t-61.5 20.5q-37 0 -57.5 -11.5t-28 -40t-7.5 -81.5q0 -48 9.5 -72t34.5 -32.5t71 -8.5q17 0 46 1
t59.5 2.5t54 3t29.5 3.5v-18q0 -14 -4.5 -29.5t-17.5 -25.5q-18 -14 -66.5 -18t-132.5 -4zM357 459q-24 0 -39.5 6.5t-15.5 34.5q0 26 16.5 32t40.5 6q22 0 37 -7t15 -31q0 -28 -14.5 -34.5t-39.5 -6.5zM174 459q-24 0 -39.5 6.5t-15.5 34.5q0 26 16.5 32t40.5 6q23 0 37 -7
t14 -31q0 -27 -14.5 -34t-38.5 -7z" />
    <glyph glyph-name="igrave" unicode="&#xec;" horiz-adv-x="271" 
d="M157 -4q-67 0 -92.5 26t-25.5 85l1 292h149v-286q0 -31 9.5 -44.5t31.5 -13.5q13 0 21.5 2t11.5 3v-55q-5 -1 -15.5 -3t-32 -4t-58.5 -2zM108 460l-142 90l67 39l137 -129h-62z" />
    <glyph glyph-name="iacute" unicode="&#xed;" horiz-adv-x="271" 
d="M157 -4q-67 0 -92.5 26t-25.5 85l1 292h149v-286q0 -31 9.5 -44.5t31.5 -13.5q13 0 21.5 2t11.5 3v-55q-5 -1 -15.5 -3t-32 -4t-58.5 -2zM69 460l136 129l68 -39l-143 -90h-61z" />
    <glyph glyph-name="icircumflex" unicode="&#xee;" horiz-adv-x="271" 
d="M157 -4q-67 0 -92.5 26t-25.5 85l1 292h149v-286q0 -31 9.5 -44.5t31.5 -13.5q13 0 21.5 2t11.5 3v-55q-5 -1 -15.5 -3t-32 -4t-58.5 -2zM-17 460l106 133h41l107 -133h-65l-63 69l-65 -69h-61z" />
    <glyph glyph-name="idieresis" unicode="&#xef;" horiz-adv-x="271" 
d="M157 -4q-67 0 -92.5 26t-25.5 85l1 292h149v-286q0 -31 9.5 -44.5t31.5 -13.5q13 0 21.5 2t11.5 3v-55q-5 -1 -15.5 -3t-32 -4t-58.5 -2zM201 459q-24 0 -39.5 6.5t-15.5 34.5q0 26 16.5 32t40.5 6q22 0 37 -7t15 -31q0 -28 -14.5 -34.5t-39.5 -6.5zM18 459
q-24 0 -39.5 6.5t-15.5 34.5q0 26 16.5 32t40.5 6q23 0 37 -7t14 -31q0 -27 -14.5 -34t-38.5 -7z" />
    <glyph glyph-name="eth" unicode="&#xf0;" horiz-adv-x="542" 
d="M113 457l198 200l33 -32l-200 -199zM35 191q0 62 15 100t42 58.5t60.5 28t69.5 8.5h24.5h24.5q-12 15 -34 38t-46.5 48t-46 47.5t-35.5 35.5q11 13 26.5 29.5t32 33.5t29 31t17.5 19q69 -68 118.5 -118t83 -89t53.5 -74.5t30 -74.5v-31v-46v-42q-1 -66 -11.5 -106
t-36 -59t-67.5 -25t-106 -6q-60 0 -105 4.5t-76 22.5t-46.5 58t-15.5 109zM350 250q-3 17 -9 28t-18 16q-6 6 -12 12.5t-14 12.5q-7 1 -15 1h-17q-27 0 -46 -8t-28.5 -33.5t-9.5 -79.5q0 -51 9.5 -76.5t28.5 -33.5t46 -8t45.5 8t29 33.5t10.5 76.5v15.5v21v14.5z" />
    <glyph glyph-name="ntilde" unicode="&#xf1;" horiz-adv-x="527" 
d="M83 0q-38 0 -38 39v336q30 10 90 18.5t132 8.5q77 0 121.5 -8.5t66 -29t28 -54.5t6.5 -85v-169q0 -22 -3 -34.5t-15.5 -17.5t-38.5 -5l-91 1v260q0 33 -20 47t-54 14q-12 0 -26 -2.5t-26.5 -6t-20.5 -9.5v-303h-111zM325 460q-20 0 -38.5 10.5t-36.5 21.5t-38 9
q-19 0 -30 -12t-15 -18l-27 23q1 1 5.5 11.5t13.5 24t22.5 23.5t31.5 10q20 2 38 -9t36 -21.5t36 -10.5q22 0 34.5 13t17.5 22l27 -21q0 -1 -5.5 -12.5t-15 -26t-24 -26t-32.5 -11.5z" />
    <glyph glyph-name="ograve" unicode="&#xf2;" horiz-adv-x="530" 
d="M266 -6q-57 0 -101 8t-73.5 30t-44.5 62.5t-15 104.5t15 104.5t44.5 62.5t73.5 30t101 8q58 0 101 -8t72 -30t44 -62.5t15 -104.5t-15 -105t-44.5 -62.5t-72.5 -29.5t-100 -8zM266 67q28 0 45.5 10.5t26.5 39t9 82.5t-9 82.5t-26.5 39t-45.5 10.5q-26 0 -45 -10.5
t-28.5 -39t-9.5 -82.5t9.5 -82.5t28.5 -39t45 -10.5zM261 460l-142 90l67 39l137 -129h-62z" />
    <glyph glyph-name="oacute" unicode="&#xf3;" horiz-adv-x="530" 
d="M266 -6q-57 0 -101 8t-73.5 30t-44.5 62.5t-15 104.5t15 104.5t44.5 62.5t73.5 30t101 8q58 0 101 -8t72 -30t44 -62.5t15 -104.5t-15 -105t-44.5 -62.5t-72.5 -29.5t-100 -8zM266 67q28 0 45.5 10.5t26.5 39t9 82.5t-9 82.5t-26.5 39t-45.5 10.5q-26 0 -45 -10.5
t-28.5 -39t-9.5 -82.5t9.5 -82.5t28.5 -39t45 -10.5zM223 460l136 129l68 -39l-143 -90h-61z" />
    <glyph glyph-name="ocircumflex" unicode="&#xf4;" horiz-adv-x="530" 
d="M266 -6q-57 0 -101 8t-73.5 30t-44.5 62.5t-15 104.5t15 104.5t44.5 62.5t73.5 30t101 8q58 0 101 -8t72 -30t44 -62.5t15 -104.5t-15 -105t-44.5 -62.5t-72.5 -29.5t-100 -8zM266 67q28 0 45.5 10.5t26.5 39t9 82.5t-9 82.5t-26.5 39t-45.5 10.5q-26 0 -45 -10.5
t-28.5 -39t-9.5 -82.5t9.5 -82.5t28.5 -39t45 -10.5zM136 460l106 133h41l107 -133h-65l-63 69l-65 -69h-61z" />
    <glyph glyph-name="otilde" unicode="&#xf5;" horiz-adv-x="530" 
d="M266 -6q-57 0 -101 8t-73.5 30t-44.5 62.5t-15 104.5t15 104.5t44.5 62.5t73.5 30t101 8q58 0 101 -8t72 -30t44 -62.5t15 -104.5t-15 -105t-44.5 -62.5t-72.5 -29.5t-100 -8zM266 67q28 0 45.5 10.5t26.5 39t9 82.5t-9 82.5t-26.5 39t-45.5 10.5q-26 0 -45 -10.5
t-28.5 -39t-9.5 -82.5t9.5 -82.5t28.5 -39t45 -10.5zM321 460q-20 0 -38.5 10.5t-36.5 21.5t-38 9q-19 0 -30 -12t-15 -18l-27 23q1 1 5.5 11.5t13.5 24t22.5 23.5t31.5 10q20 2 38 -9t36 -21.5t36 -10.5q22 0 34.5 13t17.5 22l27 -21q0 -1 -5.5 -12.5t-15 -26t-24 -26
t-32.5 -11.5z" />
    <glyph glyph-name="odieresis" unicode="&#xf6;" horiz-adv-x="530" 
d="M266 -6q-57 0 -101 8t-73.5 30t-44.5 62.5t-15 104.5t15 104.5t44.5 62.5t73.5 30t101 8q58 0 101 -8t72 -30t44 -62.5t15 -104.5t-15 -105t-44.5 -62.5t-72.5 -29.5t-100 -8zM266 67q28 0 45.5 10.5t26.5 39t9 82.5t-9 82.5t-26.5 39t-45.5 10.5q-26 0 -45 -10.5
t-28.5 -39t-9.5 -82.5t9.5 -82.5t28.5 -39t45 -10.5zM355 459q-24 0 -39.5 6.5t-15.5 34.5q0 26 16.5 32t40.5 6q22 0 37 -7t15 -31q0 -28 -14.5 -34.5t-39.5 -6.5zM172 459q-24 0 -39.5 6.5t-15.5 34.5q0 26 16.5 32t40.5 6q23 0 37 -7t14 -31q0 -27 -14.5 -34t-38.5 -7z
" />
    <glyph glyph-name="divide" unicode="&#xf7;" horiz-adv-x="542" 
d="M49 217h405v-53h-405v53zM195 52q0 33 18 41t43 8t40.5 -9t15.5 -40q0 -24 -7 -34t-20 -12.5t-31 -2.5q-16 0 -29.5 2.5t-21.5 12.5t-8 34zM194 324q0 33 18 41t43 8q26 0 41.5 -8.5t15.5 -40.5q0 -23 -7.5 -33.5t-20.5 -13.5t-30 -3t-30.5 3t-21.5 13.5t-8 33.5z" />
    <glyph glyph-name="oslash" unicode="&#xf8;" horiz-adv-x="530" 
d="M126 -58l229 521h51l-229 -521h-51zM266 -6q-57 0 -101 8t-73.5 30t-44.5 62.5t-15 104.5t15 104.5t44.5 62.5t73.5 30t101 8q58 0 101 -8t72 -30t44 -62.5t15 -104.5t-15 -105t-44.5 -62.5t-72.5 -29.5t-100 -8zM266 67q28 0 45.5 10.5t26.5 39t9 82.5t-9 82.5t-26.5 39
t-45.5 10.5q-26 0 -45 -10.5t-28.5 -39t-9.5 -82.5t9.5 -82.5t28.5 -39t45 -10.5z" />
    <glyph glyph-name="ugrave" unicode="&#xf9;" horiz-adv-x="523" 
d="M187 399v-259q0 -36 17.5 -50.5t56.5 -14.5q41 0 58 15.5t17 48.5v260h13t27.5 0.5t29 0.5h16.5q23 0 37 -2.5t20 -12.5t6 -35v-194q0 -60 -18 -95.5t-67 -51t-142 -15.5q-86 0 -134 12.5t-67 45.5t-19 93v205q0 29 10 39.5t43 10.5q24 0 48 -0.5t48 -0.5zM260 460
l-142 90l67 39l137 -129h-62z" />
    <glyph glyph-name="uacute" unicode="&#xfa;" horiz-adv-x="523" 
d="M187 399v-259q0 -36 17.5 -50.5t56.5 -14.5q41 0 58 15.5t17 48.5v260h13t27.5 0.5t29 0.5h16.5q23 0 37 -2.5t20 -12.5t6 -35v-194q0 -60 -18 -95.5t-67 -51t-142 -15.5q-86 0 -134 12.5t-67 45.5t-19 93v205q0 29 10 39.5t43 10.5q24 0 48 -0.5t48 -0.5zM221 460
l136 129l68 -39l-143 -90h-61z" />
    <glyph glyph-name="ucircumflex" unicode="&#xfb;" horiz-adv-x="523" 
d="M187 399v-259q0 -36 17.5 -50.5t56.5 -14.5q41 0 58 15.5t17 48.5v260h13t27.5 0.5t29 0.5h16.5q23 0 37 -2.5t20 -12.5t6 -35v-194q0 -60 -18 -95.5t-67 -51t-142 -15.5q-86 0 -134 12.5t-67 45.5t-19 93v205q0 29 10 39.5t43 10.5q24 0 48 -0.5t48 -0.5zM135 460
l106 133h41l107 -133h-65l-63 69l-65 -69h-61z" />
    <glyph glyph-name="udieresis" unicode="&#xfc;" horiz-adv-x="523" 
d="M187 399v-259q0 -36 17.5 -50.5t56.5 -14.5q41 0 58 15.5t17 48.5v260h13t27.5 0.5t29 0.5h16.5q23 0 37 -2.5t20 -12.5t6 -35v-194q0 -60 -18 -95.5t-67 -51t-142 -15.5q-86 0 -134 12.5t-67 45.5t-19 93v205q0 29 10 39.5t43 10.5q24 0 48 -0.5t48 -0.5zM354 459
q-24 0 -39.5 6.5t-15.5 34.5q0 26 16.5 32t40.5 6q22 0 37 -7t15 -31q0 -28 -14.5 -34.5t-39.5 -6.5zM171 459q-24 0 -39.5 6.5t-15.5 34.5q0 26 16.5 32t40.5 6q23 0 37 -7t14 -31q0 -27 -14.5 -34t-38.5 -7z" />
    <glyph glyph-name="yacute" unicode="&#xfd;" horiz-adv-x="514" 
d="M252 -111q-57 0 -106 5t-78.5 16.5t-29.5 29.5v43q16 -9 45 -15t62 -9.5t61 -3.5q48 0 75 10.5t38.5 33.5t11.5 59v39q-11 -20 -29.5 -31.5t-47 -16t-71.5 -4.5q-65 0 -97 20.5t-41.5 57.5t-9.5 86v138q0 15 2.5 27t13.5 18.5t35 6.5h101v-45v-35.5v-35.5v-45
q0 -57 7.5 -83t23.5 -33t40 -7q25 0 40 8t22.5 33t7.5 77v166h104q24 0 36.5 -7.5t12.5 -35.5v-289q0 -90 -53 -134t-176 -44zM217 460l136 129l68 -39l-143 -90h-61z" />
    <glyph glyph-name="thorn" unicode="&#xfe;" horiz-adv-x="524" 
d="M44 -107v560q0 32 10.5 42t39.5 10h91v-137q8 1 17.5 2t18.5 1h13q57 0 105 -4t84 -21t56 -53t20 -98q0 -63 -18.5 -98t-53 -50t-84.5 -18.5t-112 -3.5q-7 0 -21 0.5t-25 2.5v-135h-141zM353 198q0 46 -13 69.5t-40 32t-71 9.5q-11 0 -23.5 -1t-20.5 -2v-213
q10 -1 22.5 -1.5t25.5 -0.5q43 2 69.5 10t38.5 31t12 66z" />
    <glyph glyph-name="ydieresis" unicode="&#xff;" horiz-adv-x="514" 
d="M252 -111q-57 0 -106 5t-78.5 16.5t-29.5 29.5v43q16 -9 45 -15t62 -9.5t61 -3.5q48 0 75 10.5t38.5 33.5t11.5 59v39q-11 -20 -29.5 -31.5t-47 -16t-71.5 -4.5q-65 0 -97 20.5t-41.5 57.5t-9.5 86v138q0 15 2.5 27t13.5 18.5t35 6.5h101v-45v-35.5v-35.5v-45
q0 -57 7.5 -83t23.5 -33t40 -7q25 0 40 8t22.5 33t7.5 77v166h104q24 0 36.5 -7.5t12.5 -35.5v-289q0 -90 -53 -134t-176 -44zM350 459q-24 0 -39.5 6.5t-15.5 34.5q0 26 16.5 32t40.5 6q22 0 37 -7t15 -31q0 -28 -14.5 -34.5t-39.5 -6.5zM167 459q-24 0 -39.5 6.5
t-15.5 34.5q0 26 16.5 32t40.5 6q23 0 37 -7t14 -31q0 -27 -14.5 -34t-38.5 -7z" />
    <glyph glyph-name="Amacron" unicode="&#x100;" horiz-adv-x="609" 
d="M3 0l159 382q16 39 46 60.5t94 21.5q53 0 86 -20t50 -62l160 -382h-178l-43 103h-208l-40 -103h-126zM195 166h152l-54 140q-3 8 -7 14.5t-14 6.5q-11 0 -15.5 -6.5t-7.5 -14.5zM160 521v58h280v-58h-280z" />
    <glyph glyph-name="amacron" unicode="&#x101;" horiz-adv-x="534" 
d="M253 -5q-70 0 -113 4.5t-66.5 17.5t-31.5 37t-8 62q0 51 10 77.5t35 36.5t67 10q25 0 57.5 -0.5t64 -1.5t55 -3.5t32.5 -4.5q0 31 -5.5 49t-17.5 27.5t-32 12.5t-49 3q-35 0 -69.5 -1t-67 -4t-59.5 -7v28q0 27 12 40t33 17q23 5 68.5 7t98.5 2q67 0 112.5 -7t71.5 -25
t37 -53.5t11 -94.5v-199q-16 -15 -79.5 -22.5t-166.5 -7.5zM252 57q28 0 47.5 1.5t33.5 4.5t22 7v112q-11 3 -30.5 5t-39.5 3t-31 1q-24 0 -39 -4t-21.5 -18t-6.5 -43q0 -25 5 -40.5t19 -22t41 -6.5zM128 460v60h277v-60h-277z" />
    <glyph glyph-name="Abreve" unicode="&#x102;" horiz-adv-x="609" 
d="M3 0l159 382q16 39 46 60.5t94 21.5q53 0 86 -20t50 -62l160 -382h-178l-43 103h-208l-40 -103h-126zM195 166h152l-54 140q-3 8 -7 14.5t-14 6.5q-11 0 -15.5 -6.5t-7.5 -14.5zM301 520q-41 0 -68 7t-40 30.5t-13 68.5v8h57v-6q0 -14 4.5 -26.5t18 -19.5t40.5 -7
q28 0 41.5 7t18 19t4.5 27v6h56v-8q0 -45 -12.5 -68t-39 -30.5t-67.5 -7.5z" />
    <glyph glyph-name="abreve" unicode="&#x103;" horiz-adv-x="534" 
d="M253 -5q-70 0 -113 4.5t-66.5 17.5t-31.5 37t-8 62q0 51 10 77.5t35 36.5t67 10q25 0 57.5 -0.5t64 -1.5t55 -3.5t32.5 -4.5q0 31 -5.5 49t-17.5 27.5t-32 12.5t-49 3q-35 0 -69.5 -1t-67 -4t-59.5 -7v28q0 27 12 40t33 17q23 5 68.5 7t98.5 2q67 0 112.5 -7t71.5 -25
t37 -53.5t11 -94.5v-199q-16 -15 -79.5 -22.5t-166.5 -7.5zM252 57q28 0 47.5 1.5t33.5 4.5t22 7v112q-11 3 -30.5 5t-39.5 3t-31 1q-24 0 -39 -4t-21.5 -18t-6.5 -43q0 -25 5 -40.5t19 -22t41 -6.5zM267 458q-49 0 -75 12t-35.5 40.5t-9.5 78.5h55q0 -41 14 -58t51 -17
q40 0 51.5 18t11.5 57h56q0 -51 -9.5 -79.5t-35.5 -40t-74 -11.5z" />
    <glyph glyph-name="Aogonek" unicode="&#x104;" horiz-adv-x="609" 
d="M3 0l159 382q16 39 46 60.5t94 21.5q53 0 86 -20t50 -62l160 -382h-178l-43 103h-208l-40 -103h-126zM195 166h152l-54 140q-3 8 -7 14.5t-14 6.5q-11 0 -15.5 -6.5t-7.5 -14.5zM484 -184q-39 0 -60 9t-29 27t-8 43q0 23 10 41.5t24.5 33.5t30.5 25t28 15h68
q-8 -3 -23.5 -12.5t-32 -23t-28 -29t-11.5 -30.5q0 -29 16.5 -36t41.5 -7q20 0 28.5 0.5t11.5 1t5 0.5q0 -20 -4.5 -33t-20 -19t-47.5 -6z" />
    <glyph glyph-name="aogonek" unicode="&#x105;" horiz-adv-x="534" 
d="M253 -5q-70 0 -113 4.5t-66.5 17.5t-31.5 37t-8 62q0 51 10 77.5t35 36.5t67 10q25 0 57.5 -0.5t64 -1.5t55 -3.5t32.5 -4.5q0 31 -5.5 49t-17.5 27.5t-32 12.5t-49 3q-35 0 -69.5 -1t-67 -4t-59.5 -7v28q0 27 12 40t33 17q23 5 68.5 7t98.5 2q67 0 112.5 -7t71.5 -25
t37 -53.5t11 -94.5v-199q-16 -15 -79.5 -22.5t-166.5 -7.5zM252 57q28 0 47.5 1.5t33.5 4.5t22 7v112q-11 3 -30.5 5t-39.5 3t-31 1q-24 0 -39 -4t-21.5 -18t-6.5 -43q0 -25 5 -40.5t19 -22t41 -6.5zM406 -184q-39 0 -60 9t-29 27t-8 43q0 23 10 41.5t24.5 33.5t30.5 25
t28 15h68q-8 -3 -23.5 -12.5t-32 -23t-28 -29t-11.5 -30.5q0 -29 16.5 -36t41.5 -7q20 0 28.5 0.5t11.5 1t5 0.5q0 -20 -4.5 -33t-20 -19t-47.5 -6z" />
    <glyph glyph-name="Cacute" unicode="&#x106;" horiz-adv-x="607" 
d="M31 230q0 70 16 115.5t54 71.5t101.5 37t157.5 11q40 0 75.5 -2.5t74.5 -8.5q42 -5 55 -20t13 -41v-51q-29 11 -67.5 18t-76.5 10.5t-67 3.5q-59 0 -96.5 -10t-54.5 -41t-17 -94q0 -60 17 -91t57 -42t106 -11q28 0 59.5 3.5t66 9.5t73.5 15v-47q0 -24 -14 -39.5
t-57 -21.5q-38 -6 -75.5 -8t-77.5 -2q-95 0 -157.5 10.5t-99 36.5t-51.5 71.5t-15 116.5zM292 521l115 113l67 -40l-121 -73h-61z" />
    <glyph glyph-name="cacute" unicode="&#x107;" horiz-adv-x="473" 
d="M280 -6q-90 0 -144.5 15.5t-79 58t-24.5 123.5q0 88 24.5 134t79 63t144.5 17q26 0 50.5 -2.5t59.5 -7.5q20 -2 32.5 -9t18.5 -23t6 -48q-11 4 -33.5 7.5t-48.5 5.5t-46 2q-51 0 -80.5 -12t-42 -40t-12.5 -77q0 -48 12.5 -76t42 -40t80.5 -12q23 0 48.5 2t47 5.5
t32.5 7.5v-40q0 -25 -22.5 -36.5t-60.5 -14.5t-84 -3zM223 460l136 129l68 -39l-143 -90h-61z" />
    <glyph glyph-name="Ccircumflex" unicode="&#x108;" horiz-adv-x="607" 
d="M31 230q0 70 16 115.5t54 71.5t101.5 37t157.5 11q40 0 75.5 -2.5t74.5 -8.5q42 -5 55 -20t13 -41v-51q-29 11 -67.5 18t-76.5 10.5t-67 3.5q-59 0 -96.5 -10t-54.5 -41t-17 -94q0 -60 17 -91t57 -42t106 -11q28 0 59.5 3.5t66 9.5t73.5 15v-47q0 -24 -14 -39.5
t-57 -21.5q-38 -6 -75.5 -8t-77.5 -2q-95 0 -157.5 10.5t-99 36.5t-51.5 71.5t-15 116.5zM215 521l105 113h41l107 -113h-65l-63 53l-65 -53h-60z" />
    <glyph glyph-name="ccircumflex" unicode="&#x109;" horiz-adv-x="473" 
d="M280 -6q-90 0 -144.5 15.5t-79 58t-24.5 123.5q0 88 24.5 134t79 63t144.5 17q26 0 50.5 -2.5t59.5 -7.5q20 -2 32.5 -9t18.5 -23t6 -48q-11 4 -33.5 7.5t-48.5 5.5t-46 2q-51 0 -80.5 -12t-42 -40t-12.5 -77q0 -48 12.5 -76t42 -40t80.5 -12q23 0 48.5 2t47 5.5
t32.5 7.5v-40q0 -25 -22.5 -36.5t-60.5 -14.5t-84 -3zM137 460l106 133h41l107 -133h-65l-63 69l-65 -69h-61z" />
    <glyph glyph-name="Cdotaccent" unicode="&#x10a;" horiz-adv-x="607" 
d="M31 230q0 70 16 115.5t54 71.5t101.5 37t157.5 11q40 0 75.5 -2.5t74.5 -8.5q42 -5 55 -20t13 -41v-51q-29 11 -67.5 18t-76.5 10.5t-67 3.5q-59 0 -96.5 -10t-54.5 -41t-17 -94q0 -60 17 -91t57 -42t106 -11q28 0 59.5 3.5t66 9.5t73.5 15v-47q0 -24 -14 -39.5
t-57 -21.5q-38 -6 -75.5 -8t-77.5 -2q-95 0 -157.5 10.5t-99 36.5t-51.5 71.5t-15 116.5zM342 519q-24 0 -39.5 5.5t-15.5 31.5q0 25 16.5 31t40.5 6q23 0 37 -6.5t14 -30.5q0 -26 -14.5 -31.5t-38.5 -5.5z" />
    <glyph glyph-name="cdotaccent" unicode="&#x10b;" horiz-adv-x="473" 
d="M280 -6q-90 0 -144.5 15.5t-79 58t-24.5 123.5q0 88 24.5 134t79 63t144.5 17q26 0 50.5 -2.5t59.5 -7.5q20 -2 32.5 -9t18.5 -23t6 -48q-11 4 -33.5 7.5t-48.5 5.5t-46 2q-51 0 -80.5 -12t-42 -40t-12.5 -77q0 -48 12.5 -76t42 -40t80.5 -12q23 0 48.5 2t47 5.5
t32.5 7.5v-40q0 -25 -22.5 -36.5t-60.5 -14.5t-84 -3zM265 458q-24 0 -39.5 5.5t-15.5 31.5q0 25 16.5 31t40.5 6q23 0 37 -6.5t14 -30.5q0 -26 -14.5 -31.5t-38.5 -5.5z" />
    <glyph glyph-name="Ccaron" unicode="&#x10c;" horiz-adv-x="607" 
d="M215 634h60l66 -53l62 53h65l-107 -113h-41zM31 230q0 70 16 115.5t54 71.5t101.5 37t157.5 11q40 0 75.5 -2.5t74.5 -8.5q42 -5 55 -20t13 -41v-51q-29 11 -67.5 18t-76.5 10.5t-67 3.5q-59 0 -96.5 -10t-54.5 -41t-17 -94q0 -60 17 -91t57 -42t106 -11q28 0 59.5 3.5
t66 9.5t73.5 15v-47q0 -24 -14 -39.5t-57 -21.5q-38 -6 -75.5 -8t-77.5 -2q-95 0 -157.5 10.5t-99 36.5t-51.5 71.5t-15 116.5z" />
    <glyph glyph-name="ccaron" unicode="&#x10d;" horiz-adv-x="473" 
d="M138 593h60l66 -69l63 69h64l-107 -133h-41zM280 -6q-90 0 -144.5 15.5t-79 58t-24.5 123.5q0 88 24.5 134t79 63t144.5 17q26 0 50.5 -2.5t59.5 -7.5q20 -2 32.5 -9t18.5 -23t6 -48q-11 4 -33.5 7.5t-48.5 5.5t-46 2q-51 0 -80.5 -12t-42 -40t-12.5 -77q0 -48 12.5 -76
t42 -40t80.5 -12q23 0 48.5 2t47 5.5t32.5 7.5v-40q0 -25 -22.5 -36.5t-60.5 -14.5t-84 -3z" />
    <glyph glyph-name="Dcaron" unicode="&#x10e;" horiz-adv-x="654" 
d="M211 634h60l66 -53l62 53h65l-107 -113h-41zM624 228q0 -73 -16.5 -118.5t-51 -69.5t-87.5 -32.5t-127 -8.5h-86t-77 0.5t-67.5 0.5h-58.5v394q0 35 14 50t52 16q26 0 56.5 0.5t62 0.5h63h58.5q71 -1 121 -10.5t82 -34t47 -70t15 -118.5zM217 83h23.5t29 -0.5t30.5 -0.5
h26q35 0 60 6t40 22t22 45t7 73q0 63 -12.5 95t-41 43.5t-79.5 11.5h-30.5t-36.5 -0.5t-31 -1.5q-3 -5 -5 -12t-2 -20v-261z" />
    <glyph glyph-name="dcaron" unicode="&#x10f;" horiz-adv-x="524" 
d="M32 200q0 81 24 125.5t68.5 61t104.5 16.5q20 0 42.5 -2t44 -5.5t38 -9t25.5 -12.5l-36 -14v145h148l-1 -304q0 -68 -12 -108.5t-39.5 -61t-74 -27t-114.5 -6.5q-63 0 -105 8t-66.5 30t-35.5 61t-11 103zM257 75q27 0 44 5t26 17t12.5 33t3.5 54l-1 133q-6 0 -16.5 0.5
t-22 1t-22.5 0.5q-38 0 -59.5 -9.5t-30.5 -35t-9 -76.5q0 -52 7.5 -78t24.5 -35.5t43 -9.5zM555 356l3 149h67l-18 -149h-52z" />
    <glyph glyph-name="Dcroat" unicode="&#x110;" horiz-adv-x="654" 
d="M624 228q0 -73 -16.5 -118.5t-51 -69.5t-87.5 -32.5t-127 -8.5h-86t-77 0.5t-67.5 0.5h-58.5v394q0 35 14 50t52 16q26 0 56.5 0.5t62 0.5h63h58.5q71 -1 121 -10.5t82 -34t47 -70t15 -118.5zM217 83h23.5t29 -0.5t30.5 -0.5h26q35 0 60 6t40 22t22 45t7 73
q0 63 -12.5 95t-41 43.5t-79.5 11.5h-30.5t-36.5 -0.5t-31 -1.5q-3 -5 -5 -12t-2 -20v-261zM4 247h327v-48h-327v48z" />
    <glyph glyph-name="dcroat" unicode="&#x111;" horiz-adv-x="539" 
d="M279 535h68v80h150v-80h66v-55h-66l-1 -279q0 -60 -9.5 -99.5t-34.5 -62t-71 -32t-119 -9.5q-69 0 -114 7t-70 27.5t-35.5 61t-10.5 106.5q0 76 22.5 119.5t71.5 62t129 18.5q8 0 21.5 -0.5t27.5 -1.5t26 -2t17 -2v86h-68v55zM261 75q24 0 40.5 4t26.5 15t14.5 33t4.5 57
v133q-2 0 -7.5 0.5t-15 0.5t-20 0.5t-21.5 0.5q-41 0 -63 -11t-30 -38t-8 -75q0 -51 8 -77t25.5 -34.5t45.5 -8.5z" />
    <glyph glyph-name="Emacron" unicode="&#x112;" horiz-adv-x="605" 
d="M58 0v408q0 32 11 42t43 10h462v-86h-352v-96h320v-85h-320v-107h352v-86h-516zM175 521v58h280v-58h-280z" />
    <glyph glyph-name="emacron" unicode="&#x113;" horiz-adv-x="514" 
d="M266 -6q-70 0 -115 8.5t-71 29.5t-37 59t-11 99q0 78 22 124t76.5 67t151.5 21q76 0 121 -16t65 -50t20 -87v-77h-278q0 21 9.5 35.5t35.5 14.5h100l-1 21q0 41 -16.5 61.5t-61.5 20.5q-37 0 -57.5 -11.5t-28 -40t-7.5 -81.5q0 -48 9.5 -72t34.5 -32.5t71 -8.5q17 0 46 1
t59.5 2.5t54 3t29.5 3.5v-18q0 -14 -4.5 -29.5t-17.5 -25.5q-18 -14 -66.5 -18t-132.5 -4zM126 460v60h277v-60h-277z" />
    <glyph glyph-name="Ebreve" unicode="&#x114;" horiz-adv-x="605" 
d="M58 0v408q0 32 11 42t43 10h462v-86h-352v-96h320v-85h-320v-107h352v-86h-516zM315 520q-41 0 -68 7t-40 30.5t-13 68.5v8h57v-6q0 -14 4.5 -26.5t18 -19.5t40.5 -7q28 0 41.5 7t18 19t4.5 27v6h56v-8q0 -45 -12.5 -68t-39 -30.5t-67.5 -7.5z" />
    <glyph glyph-name="ebreve" unicode="&#x115;" horiz-adv-x="514" 
d="M266 -6q-70 0 -115 8.5t-71 29.5t-37 59t-11 99q0 78 22 124t76.5 67t151.5 21q76 0 121 -16t65 -50t20 -87v-77h-278q0 21 9.5 35.5t35.5 14.5h100l-1 21q0 41 -16.5 61.5t-61.5 20.5q-37 0 -57.5 -11.5t-28 -40t-7.5 -81.5q0 -48 9.5 -72t34.5 -32.5t71 -8.5q17 0 46 1
t59.5 2.5t54 3t29.5 3.5v-18q0 -14 -4.5 -29.5t-17.5 -25.5q-18 -14 -66.5 -18t-132.5 -4zM266 458q-49 0 -75 12t-35.5 40.5t-9.5 78.5h55q0 -41 14 -58t51 -17q40 0 51.5 18t11.5 57h56q0 -51 -9.5 -79.5t-35.5 -40t-74 -11.5z" />
    <glyph glyph-name="Edotaccent" unicode="&#x116;" horiz-adv-x="605" 
d="M58 0v408q0 32 11 42t43 10h462v-86h-352v-96h320v-85h-320v-107h352v-86h-516zM315 519q-24 0 -39.5 5.5t-15.5 31.5q0 25 16.5 31t40.5 6q23 0 37 -6.5t14 -30.5q0 -26 -14.5 -31.5t-38.5 -5.5z" />
    <glyph glyph-name="edotaccent" unicode="&#x117;" horiz-adv-x="514" 
d="M266 -6q-70 0 -115 8.5t-71 29.5t-37 59t-11 99q0 78 22 124t76.5 67t151.5 21q76 0 121 -16t65 -50t20 -87v-77h-278q0 21 9.5 35.5t35.5 14.5h100l-1 21q0 41 -16.5 61.5t-61.5 20.5q-37 0 -57.5 -11.5t-28 -40t-7.5 -81.5q0 -48 9.5 -72t34.5 -32.5t71 -8.5q17 0 46 1
t59.5 2.5t54 3t29.5 3.5v-18q0 -14 -4.5 -29.5t-17.5 -25.5q-18 -14 -66.5 -18t-132.5 -4zM266 458q-24 0 -39.5 5.5t-15.5 31.5q0 25 16.5 31t40.5 6q23 0 37 -6.5t14 -30.5q0 -26 -14.5 -31.5t-38.5 -5.5z" />
    <glyph glyph-name="Eogonek" unicode="&#x118;" horiz-adv-x="605" 
d="M58 0v408q0 32 11 42t43 10h462v-86h-352v-96h320v-85h-320v-107h352v-86h-516zM465 -184q-39 0 -60 9t-29 27t-8 43q0 23 10 41.5t24.5 33.5t30.5 25t28 15h68q-8 -3 -23.5 -12.5t-32 -23t-28 -29t-11.5 -30.5q0 -29 16.5 -36t41.5 -7q20 0 28.5 0.5t11.5 1t5 0.5
q0 -20 -4.5 -33t-20 -19t-47.5 -6z" />
    <glyph glyph-name="eogonek" unicode="&#x119;" horiz-adv-x="514" 
d="M266 -6q-70 0 -115 8.5t-71 29.5t-37 59t-11 99q0 78 22 124t76.5 67t151.5 21q76 0 121 -16t65 -50t20 -87v-77h-278q0 21 9.5 35.5t35.5 14.5h100l-1 21q0 41 -16.5 61.5t-61.5 20.5q-37 0 -57.5 -11.5t-28 -40t-7.5 -81.5q0 -48 9.5 -72t34.5 -32.5t71 -8.5q17 0 46 1
t59.5 2.5t54 3t29.5 3.5v-18q0 -14 -4.5 -29.5t-17.5 -25.5q-18 -14 -66.5 -18t-132.5 -4zM368 -185q-39 0 -60 9t-29 27t-8 43q0 23 10 41.5t24.5 33.5t30.5 25t28 15h68q-8 -3 -23.5 -12.5t-32 -23t-28 -29t-11.5 -30.5q0 -29 16.5 -36t41.5 -7q20 0 28.5 0.5t11.5 1
t5 0.5q0 -20 -4.5 -33t-20 -19t-47.5 -6z" />
    <glyph glyph-name="Ecaron" unicode="&#x11a;" horiz-adv-x="605" 
d="M188 634h61l65 -53l62 53h65l-106 -113h-42zM58 0v408q0 32 11 42t43 10h462v-86h-352v-96h320v-85h-320v-107h352v-86h-516z" />
    <glyph glyph-name="ecaron" unicode="&#x11b;" horiz-adv-x="514" 
d="M139 593h60l66 -69l63 69h64l-107 -133h-41zM266 -6q-70 0 -115 8.5t-71 29.5t-37 59t-11 99q0 78 22 124t76.5 67t151.5 21q76 0 121 -16t65 -50t20 -87v-77h-278q0 21 9.5 35.5t35.5 14.5h100l-1 21q0 41 -16.5 61.5t-61.5 20.5q-37 0 -57.5 -11.5t-28 -40t-7.5 -81.5
q0 -48 9.5 -72t34.5 -32.5t71 -8.5q17 0 46 1t59.5 2.5t54 3t29.5 3.5v-18q0 -14 -4.5 -29.5t-17.5 -25.5q-18 -14 -66.5 -18t-132.5 -4z" />
    <glyph glyph-name="Gcircumflex" unicode="&#x11c;" horiz-adv-x="647" 
d="M326 -5q-79 0 -135 9.5t-91.5 35t-52 71t-16.5 117.5q0 78 21.5 125.5t61 71.5t94.5 32t121 8q73 0 129 -2.5t83 -8.5q28 -5 40 -15.5t15.5 -23.5t3.5 -26v-39q-6 8 -29 13t-53.5 8.5t-62.5 5.5t-58.5 2.5t-40.5 0.5q-58 0 -92 -11.5t-49.5 -44t-15.5 -96.5
q0 -60 14.5 -91.5t44.5 -43.5t78 -12q47 0 73.5 7.5t37.5 26.5t12 50v15.5v10.5h-170q0 33 4 51.5t19.5 26.5t50.5 8h255l-1 -110q0 -47 -11.5 -80t-43 -53t-89 -29.5t-147.5 -9.5zM202 521l105 113h41l107 -113h-65l-63 53l-65 -53h-60z" />
    <glyph glyph-name="gcircumflex" unicode="&#x11d;" horiz-adv-x="532" 
d="M241 -120q-42 0 -75.5 2t-56.5 8.5t-35.5 18t-12.5 30.5v16v14q10 -5 36.5 -10.5t58.5 -9t57 -3.5q58 0 87 15.5t38 50t4 88.5l17 -2q-11 -30 -28.5 -47t-47.5 -24.5t-76 -7.5q-63 0 -101.5 15.5t-56 54.5t-17.5 111q0 62 12.5 101.5t41.5 61.5t77.5 30t121.5 8
q22 0 54 -1.5t64.5 -4t57.5 -4.5t33 -3q-1 -3 -1.5 -14t-0.5 -25.5v-29.5v-239q0 -81 -26.5 -124t-81.5 -59.5t-143 -16.5zM258 102q22 0 41.5 6.5t31.5 24.5t13 51v134q-8 1 -31 2.5t-49 1.5q-31 0 -48.5 -8.5t-25 -32.5t-7.5 -70q0 -44 8 -68t24.5 -32.5t42.5 -8.5z
M147 460l106 133h41l107 -133h-65l-63 69l-65 -69h-61z" />
    <glyph glyph-name="Gbreve" unicode="&#x11e;" horiz-adv-x="647" 
d="M326 -5q-79 0 -135 9.5t-91.5 35t-52 71t-16.5 117.5q0 78 21.5 125.5t61 71.5t94.5 32t121 8q73 0 129 -2.5t83 -8.5q28 -5 40 -15.5t15.5 -23.5t3.5 -26v-39q-6 8 -29 13t-53.5 8.5t-62.5 5.5t-58.5 2.5t-40.5 0.5q-58 0 -92 -11.5t-49.5 -44t-15.5 -96.5
q0 -60 14.5 -91.5t44.5 -43.5t78 -12q47 0 73.5 7.5t37.5 26.5t12 50v15.5v10.5h-170q0 33 4 51.5t19.5 26.5t50.5 8h255l-1 -110q0 -47 -11.5 -80t-43 -53t-89 -29.5t-147.5 -9.5zM329 520q-41 0 -68 7t-40 30.5t-13 68.5v8h57v-6q0 -14 4.5 -26.5t18 -19.5t40.5 -7
q28 0 41.5 7t18 19t4.5 27v6h56v-8q0 -45 -12.5 -68t-39 -30.5t-67.5 -7.5z" />
    <glyph glyph-name="gbreve" unicode="&#x11f;" horiz-adv-x="532" 
d="M241 -120q-42 0 -75.5 2t-56.5 8.5t-35.5 18t-12.5 30.5v16v14q10 -5 36.5 -10.5t58.5 -9t57 -3.5q58 0 87 15.5t38 50t4 88.5l17 -2q-11 -30 -28.5 -47t-47.5 -24.5t-76 -7.5q-63 0 -101.5 15.5t-56 54.5t-17.5 111q0 62 12.5 101.5t41.5 61.5t77.5 30t121.5 8
q22 0 54 -1.5t64.5 -4t57.5 -4.5t33 -3q-1 -3 -1.5 -14t-0.5 -25.5v-29.5v-239q0 -81 -26.5 -124t-81.5 -59.5t-143 -16.5zM258 102q22 0 41.5 6.5t31.5 24.5t13 51v134q-8 1 -31 2.5t-49 1.5q-31 0 -48.5 -8.5t-25 -32.5t-7.5 -70q0 -44 8 -68t24.5 -32.5t42.5 -8.5z
M275 458q-49 0 -75 12t-35.5 40.5t-9.5 78.5h55q0 -41 14 -58t51 -17q40 0 51.5 18t11.5 57h56q0 -51 -9.5 -79.5t-35.5 -40t-74 -11.5z" />
    <glyph glyph-name="Gdotaccent" unicode="&#x120;" horiz-adv-x="647" 
d="M326 -5q-79 0 -135 9.5t-91.5 35t-52 71t-16.5 117.5q0 78 21.5 125.5t61 71.5t94.5 32t121 8q73 0 129 -2.5t83 -8.5q28 -5 40 -15.5t15.5 -23.5t3.5 -26v-39q-6 8 -29 13t-53.5 8.5t-62.5 5.5t-58.5 2.5t-40.5 0.5q-58 0 -92 -11.5t-49.5 -44t-15.5 -96.5
q0 -60 14.5 -91.5t44.5 -43.5t78 -12q47 0 73.5 7.5t37.5 26.5t12 50v15.5v10.5h-170q0 33 4 51.5t19.5 26.5t50.5 8h255l-1 -110q0 -47 -11.5 -80t-43 -53t-89 -29.5t-147.5 -9.5zM329 519q-24 0 -39.5 5.5t-15.5 31.5q0 25 16.5 31t40.5 6q23 0 37 -6.5t14 -30.5
q0 -26 -14.5 -31.5t-38.5 -5.5z" />
    <glyph glyph-name="gdotaccent" unicode="&#x121;" horiz-adv-x="532" 
d="M241 -120q-42 0 -75.5 2t-56.5 8.5t-35.5 18t-12.5 30.5v16v14q10 -5 36.5 -10.5t58.5 -9t57 -3.5q58 0 87 15.5t38 50t4 88.5l17 -2q-11 -30 -28.5 -47t-47.5 -24.5t-76 -7.5q-63 0 -101.5 15.5t-56 54.5t-17.5 111q0 62 12.5 101.5t41.5 61.5t77.5 30t121.5 8
q22 0 54 -1.5t64.5 -4t57.5 -4.5t33 -3q-1 -3 -1.5 -14t-0.5 -25.5v-29.5v-239q0 -81 -26.5 -124t-81.5 -59.5t-143 -16.5zM258 102q22 0 41.5 6.5t31.5 24.5t13 51v134q-8 1 -31 2.5t-49 1.5q-31 0 -48.5 -8.5t-25 -32.5t-7.5 -70q0 -44 8 -68t24.5 -32.5t42.5 -8.5z
M275 458q-24 0 -39.5 5.5t-15.5 31.5q0 25 16.5 31t40.5 6q23 0 37 -6.5t14 -30.5q0 -26 -14.5 -31.5t-38.5 -5.5z" />
    <glyph glyph-name="uni0122" unicode="&#x122;" horiz-adv-x="647" 
d="M326 -5q-79 0 -135 9.5t-91.5 35t-52 71t-16.5 117.5q0 78 21.5 125.5t61 71.5t94.5 32t121 8q73 0 129 -2.5t83 -8.5q28 -5 40 -15.5t15.5 -23.5t3.5 -26v-39q-6 8 -29 13t-53.5 8.5t-62.5 5.5t-58.5 2.5t-40.5 0.5q-58 0 -92 -11.5t-49.5 -44t-15.5 -96.5
q0 -60 14.5 -91.5t44.5 -43.5t78 -12q47 0 73.5 7.5t37.5 26.5t12 50v15.5v10.5h-170q0 33 4 51.5t19.5 26.5t50.5 8h255l-1 -110q0 -47 -11.5 -80t-43 -53t-89 -29.5t-147.5 -9.5zM264 -255q11 21 18.5 36t15 29.5t15.5 32.5q-3 0 -7 0.5t-8 0.5q-13 2 -24 11t-11 34
q0 32 19 40t52 8q14 0 26 -3t20 -13.5t8 -31.5q0 -23 -9 -49.5t-23 -51t-29 -43.5h-63z" />
    <glyph glyph-name="uni0123" unicode="&#x123;" horiz-adv-x="532" 
d="M241 -120q-42 0 -75.5 2t-56.5 8.5t-35.5 18t-12.5 30.5v16v14q10 -5 36.5 -10.5t58.5 -9t57 -3.5q58 0 87 15.5t38 50t4 88.5l17 -2q-11 -30 -28.5 -47t-47.5 -24.5t-76 -7.5q-63 0 -101.5 15.5t-56 54.5t-17.5 111q0 62 12.5 101.5t41.5 61.5t77.5 30t121.5 8
q22 0 54 -1.5t64.5 -4t57.5 -4.5t33 -3q-1 -3 -1.5 -14t-0.5 -25.5v-29.5v-239q0 -81 -26.5 -124t-81.5 -59.5t-143 -16.5zM258 102q22 0 41.5 6.5t31.5 24.5t13 51v134q-8 1 -31 2.5t-49 1.5q-31 0 -48.5 -8.5t-25 -32.5t-7.5 -70q0 -44 8 -68t24.5 -32.5t42.5 -8.5z
M264 459q-12 0 -24.5 3.5t-20.5 14t-8 31.5q0 24 9 50t23 50.5t28 42.5h64q-11 -19 -19 -34.5t-14.5 -30t-15.5 -32.5q3 0 7 -0.5t7 -1.5q14 -2 24.5 -10.5t10.5 -34.5q0 -31 -18.5 -39.5t-52.5 -8.5z" />
    <glyph glyph-name="Hcircumflex" unicode="&#x124;" horiz-adv-x="670" 
d="M58 0v414q0 30 12.5 38t42.5 8h109v-179h226v179h164v-408q0 -31 -10 -41.5t-46 -10.5h-108v196h-226v-196h-164zM209 521l105 113h41l107 -113h-65l-63 53l-65 -53h-60z" />
    <glyph glyph-name="hcircumflex" unicode="&#x125;" horiz-adv-x="538" 
d="M98 0q-35 0 -44 9.5t-9 36.5v459h149v-116q12 3 28.5 5t35.5 3t36 1q68 0 109 -10t62 -31t28.5 -55t7.5 -83v-156q0 -27 -5.5 -40.5t-19.5 -18t-41 -4.5h-80v239q0 38 -9 57.5t-28.5 26t-51.5 6.5q-11 0 -24.5 -1t-26.5 -3.5t-21 -5.5v-319h-96zM-7 554l106 133h41
l107 -133h-65l-63 69l-65 -69h-61z" />
    <glyph glyph-name="Hbar" unicode="&#x126;" horiz-adv-x="670" 
d="M58 0v414q0 30 12.5 38t42.5 8h109v-179h226v179h164v-408q0 -31 -10 -41.5t-46 -10.5h-108v196h-226v-196h-164zM23 393h625v-42h-625v42z" />
    <glyph glyph-name="hbar" unicode="&#x127;" horiz-adv-x="538" 
d="M116 0q-35 0 -44 9.5t-9 36.5v459h149v-116q12 3 28.5 5t35.5 3t36 1q68 0 109 -10t62 -31t28.5 -55t7.5 -83v-156q0 -27 -5.5 -40.5t-19.5 -18t-41 -4.5h-80v239q0 38 -9 57.5t-28.5 26t-51.5 6.5q-11 0 -24.5 -1t-26.5 -3.5t-21 -5.5v-319h-96zM13 470h276v-38h-276v38
z" />
    <glyph glyph-name="Itilde" unicode="&#x128;" horiz-adv-x="281" 
d="M58 0v204v204q0 17 2.5 28.5t14 17.5t37.5 6h110v-460h-164zM197 522q-20 -1 -38 9.5t-36 21.5t-38 9q-19 0 -30.5 -11.5t-15.5 -17.5l-27 23q0 1 5 11.5t14.5 23.5t23 23.5t30.5 10.5q20 1 38.5 -9.5t36.5 -21t36 -10.5q22 0 34 12.5t17 21.5l27 -22l-5.5 -11.5t-15 -26
t-23.5 -25.5t-33 -11z" />
    <glyph glyph-name="itilde" unicode="&#x129;" horiz-adv-x="271" 
d="M157 -4q-67 0 -92.5 26t-25.5 85l1 292h149v-286q0 -31 9.5 -44.5t31.5 -13.5q13 0 21.5 2t11.5 3v-55q-5 -1 -15.5 -3t-32 -4t-58.5 -2zM168 460q-20 0 -38.5 10.5t-36.5 21.5t-38 9q-19 0 -30 -12t-15 -18l-27 23q1 1 5.5 11.5t13.5 24t22.5 23.5t31.5 10q20 2 38 -9
t36 -21.5t36 -10.5q22 0 34.5 13t17.5 22l27 -21q0 -1 -5.5 -12.5t-15 -26t-24 -26t-32.5 -11.5z" />
    <glyph glyph-name="Imacron" unicode="&#x12a;" horiz-adv-x="281" 
d="M58 0v204v204q0 17 2.5 28.5t14 17.5t37.5 6h110v-460h-164zM0 521v58h280v-58h-280z" />
    <glyph glyph-name="imacron" unicode="&#x12b;" horiz-adv-x="271" 
d="M157 -4q-67 0 -92.5 26t-25.5 85l1 292h149v-286q0 -31 9.5 -44.5t31.5 -13.5q13 0 21.5 2t11.5 3v-55q-5 -1 -15.5 -3t-32 -4t-58.5 -2zM-29 460v60h277v-60h-277z" />
    <glyph glyph-name="Ibreve" unicode="&#x12c;" horiz-adv-x="281" 
d="M58 0v204v204q0 17 2.5 28.5t14 17.5t37.5 6h110v-460h-164zM141 520q-41 0 -68 7t-40 30.5t-13 68.5v8h57v-6q0 -14 4.5 -26.5t18 -19.5t40.5 -7q28 0 41.5 7t18 19t4.5 27v6h56v-8q0 -45 -12.5 -68t-39 -30.5t-67.5 -7.5z" />
    <glyph glyph-name="ibreve" unicode="&#x12d;" horiz-adv-x="271" 
d="M157 -4q-67 0 -92.5 26t-25.5 85l1 292h149v-286q0 -31 9.5 -44.5t31.5 -13.5q13 0 21.5 2t11.5 3v-55q-5 -1 -15.5 -3t-32 -4t-58.5 -2zM110 458q-49 0 -75 12t-35.5 40.5t-9.5 78.5h55q0 -41 14 -58t51 -17q40 0 51.5 18t11.5 57h56q0 -51 -9.5 -79.5t-35.5 -40
t-74 -11.5z" />
    <glyph glyph-name="Iogonek" unicode="&#x12e;" horiz-adv-x="281" 
d="M58 0v204v204q0 17 2.5 28.5t14 17.5t37.5 6h110v-460h-164zM124 -184q-39 0 -60 9t-29 27t-8 43q0 23 10 41.5t24.5 33.5t30.5 25t28 15h68q-8 -3 -23.5 -12.5t-32 -23t-28 -29t-11.5 -30.5q0 -29 16.5 -36t41.5 -7q20 0 28.5 0.5t11.5 1t5 0.5q0 -20 -4.5 -33t-20 -19
t-47.5 -6z" />
    <glyph glyph-name="iogonek" unicode="&#x12f;" horiz-adv-x="271" 
d="M157 -4q-67 0 -92.5 26t-25.5 85l1 292h149v-286q0 -31 9.5 -44.5t31.5 -13.5q13 0 21.5 2t11.5 3v-55q-5 -1 -15.5 -3t-32 -4t-58.5 -2zM111 458q-24 0 -39.5 5.5t-15.5 31.5q0 25 16.5 31t40.5 6q23 0 37 -6.5t14 -30.5q0 -26 -14.5 -31.5t-38.5 -5.5zM173 -184
q-39 0 -60 9t-29 27t-8 43q0 23 10 41.5t24.5 33.5t30.5 25t28 15h68q-8 -3 -23.5 -12.5t-32 -23t-28 -29t-11.5 -30.5q0 -29 16.5 -36t41.5 -7q20 0 28.5 0.5t11.5 1t5 0.5q0 -20 -4.5 -33t-20 -19t-47.5 -6z" />
    <glyph glyph-name="Idotaccent" unicode="&#x130;" horiz-adv-x="281" 
d="M58 0v204v204q0 17 2.5 28.5t14 17.5t37.5 6h110v-460h-164zM141 519q-24 0 -39.5 5.5t-15.5 31.5q0 25 16.5 31t40.5 6q23 0 37 -6.5t14 -30.5q0 -26 -14.5 -31.5t-38.5 -5.5z" />
    <glyph glyph-name="dotlessi" unicode="&#x131;" horiz-adv-x="271" 
d="M157 -4q-67 0 -92.5 26t-25.5 85l1 292h149v-286q0 -31 9.5 -44.5t31.5 -13.5q13 0 21.5 2t11.5 3v-55q-5 -1 -15.5 -3t-32 -4t-58.5 -2z" />
    <glyph glyph-name="IJ" unicode="&#x132;" horiz-adv-x="634" 
d="M58 0v204v204q0 17 2.5 28.5t14 17.5t37.5 6h110v-460h-164zM581 149v-38t-3 -33q-5 -30 -23.5 -47t-44 -24t-53.5 -9q-29 -1 -51.5 -0.5t-45.5 2.5t-53 5v95q11 -4 33.5 -9t36.5 -5q22 0 30.5 12t8.5 32v330h111q28 0 39.5 -7t13 -20.5t1.5 -33.5v-250z" />
    <glyph glyph-name="ij" unicode="&#x133;" horiz-adv-x="568" 
d="M157 -4q-67 0 -92.5 26t-25.5 85l1 292h149v-286q0 -31 9.5 -44.5t31.5 -13.5q13 0 21.5 2t11.5 3v-55q-5 -1 -15.5 -3t-32 -4t-58.5 -2zM315 -99q-38 0 -66 4t-36 5v55q7 -2 22.5 -3.5t24.5 -1.5q34 0 41 17t7 57v312q0 22 4 33t15 15.5t34 4.5h96l1 -379
q0 -42 -11 -68.5t-42 -38.5t-90 -12zM385 447q-35 0 -50 9t-15 33t15.5 33.5t51.5 9.5q34 -1 48.5 -10t13.5 -33q0 -24 -13.5 -33t-50.5 -9z" />
    <glyph glyph-name="Jcircumflex" unicode="&#x134;" horiz-adv-x="353" 
d="M300 149v-38t-3 -33q-5 -30 -23.5 -47t-44 -24t-53.5 -9q-29 -1 -51.5 -0.5t-45.5 2.5t-53 5v95q11 -4 33.5 -9t36.5 -5q22 0 30.5 12t8.5 32v330h111q28 0 39.5 -7t13 -20.5t1.5 -33.5v-250zM85 521l105 113h41l107 -113h-65l-63 53l-65 -53h-60z" />
    <glyph glyph-name="jcircumflex" unicode="&#x135;" horiz-adv-x="298" 
d="M6 -36q7 -2 22.5 -3.5t24.5 -1.5q35 0 41.5 19t6.5 59v155v154q0 22 4 33t15 15.5t34 4.5h48h48v-52.5t0.5 -72t0.5 -81.5v-79v-64q0 -20 1 -41.5t-3.5 -40.5t-18 -34.5t-42.5 -24t-79 -8.5q-38 0 -66.5 4t-36.5 5v26.5v27.5zM58 460l106 133h41l107 -133h-65l-63 69
l-65 -69h-61z" />
    <glyph glyph-name="uni0136" unicode="&#x136;" horiz-adv-x="624" 
d="M508 -13q-29 0 -54 6t-46 21q-7 6 -18 16t-24 22.5t-26.5 25.5t-25.5 25t-22 21q-12 13 -20.5 20t-21.5 15l-28 7v-166h-164v410q0 16 3 27t13.5 17t36.5 6h55.5h55.5v-36.5v-45v-45v-35.5l28 6q9 3 15.5 8.5t16.5 14.5q12 14 33 33.5t43.5 40t38.5 34.5q23 18 50.5 24
t65.5 6q29 0 48 -2.5t40 -6.5q-2 -1 -12.5 -11t-23 -21.5t-19.5 -18.5l-76 -57t-77.5 -60t-67.5 -58l1 46q26 -21 59 -49t71 -60.5t78.5 -66.5t81.5 -65q-5 -7 -19.5 -18t-36.5 -20.5t-52 -9.5zM257 -255q11 21 18.5 36t15 29.5t15.5 32.5q-3 0 -7 0.5t-8 0.5q-13 2 -24 11
t-11 34q0 32 19 40t52 8q14 0 26 -3t20 -13.5t8 -31.5q0 -23 -9 -49.5t-23 -51t-29 -43.5h-63z" />
    <glyph glyph-name="uni0137" unicode="&#x137;" horiz-adv-x="548" 
d="M46 0l-1 453q0 30 9.5 41t42.5 11h99v-268l135 133q19 17 38.5 24.5t59.5 7.5q30 0 54.5 -1t45.5 -2q-5 -3 -18 -12.5t-27 -20t-26 -18.5l-125 -107l179 -190q15 -14 30 -27.5t28 -23.5q-42 -1 -83.5 -1h-75.5q-35 0 -52 8t-34 25l-95 101l-34 -14v-119h-150zM241 -255
q11 21 18.5 36t15 29.5t15.5 32.5q-3 0 -7 0.5t-8 0.5q-13 2 -24 11t-11 34q0 32 19 40t52 8q14 0 26 -3t20 -13.5t8 -31.5q0 -23 -9 -49.5t-23 -51t-29 -43.5h-63z" />
    <glyph glyph-name="kgreenlandic" unicode="&#x138;" horiz-adv-x="632" 
d="M99 0v63.5v75.5t-0.5 75.5t-0.5 64.5v40q0 18 -11.5 25.5t-27 8.5t-30 -0.5t-21.5 -3.5v8v18.5v18.5v9q23 6 54.5 9t63.5 2t60 -8t45 -21t17 -38v-16t0 -0.5t0 -3.5v-25.5v-65.5q5 4 19 17.5t34 32.5t42 39.5t42.5 40t34.5 33.5h17.5h36.5h42h36h17q-11 -6 -20.5 -13.5
t-17.5 -15.5q-56 -49 -95 -83t-49 -45q20 -22 51.5 -54.5t65 -67t61 -62t38.5 -39.5q2 -2 7 -6.5t9.5 -8.5l4.5 -4q-2 1 -18.5 1t-42 -0.5t-52 -1t-48.5 -0.5q-33 0 -54.5 5.5t-40.5 27.5q-14 17 -32 38t-35 41t-29 34l-24 -32v-56v-57h-17h-36h-42.5h-36.5h-17z" />
    <glyph glyph-name="Lacute" unicode="&#x139;" horiz-adv-x="527" 
d="M222 460v-374h295v-86h-459v406q0 18 2.5 30t13.5 18t38 6h110zM126 521l115 113l67 -40l-121 -73h-61z" />
    <glyph glyph-name="lacute" unicode="&#x13a;" horiz-adv-x="272" 
d="M176 -4q-70 0 -101 23.5t-31 83.5v348q0 22 4 34t16 16t35 4h97q-1 -3 -2.5 -22t-1.5 -42v-321q0 -36 9 -50.5t34 -14.5q9 0 19.5 2t12.5 3v-55q-7 -1 -26 -5t-65 -4zM82 566l136 129l68 -39l-143 -90h-61z" />
    <glyph glyph-name="uni013B" unicode="&#x13b;" horiz-adv-x="527" 
d="M222 460v-374h295v-86h-459v406q0 18 2.5 30t13.5 18t38 6h110zM215 -255q11 21 18.5 36t15 29.5t15.5 32.5q-3 0 -7 0.5t-8 0.5q-13 2 -24 11t-11 34q0 32 19 40t52 8q14 0 26 -3t20 -13.5t8 -31.5q0 -23 -9 -49.5t-23 -51t-29 -43.5h-63z" />
    <glyph glyph-name="uni013C" unicode="&#x13c;" horiz-adv-x="272" 
d="M176 -4q-70 0 -101 23.5t-31 83.5v348q0 22 4 34t16 16t35 4h97q-1 -3 -2.5 -22t-1.5 -42v-321q0 -36 9 -50.5t34 -14.5q9 0 19.5 2t12.5 3v-55q-7 -1 -26 -5t-65 -4zM86 -255q11 21 18.5 36t15 29.5t15.5 32.5q-3 0 -7 0.5t-8 0.5q-13 2 -24 11t-11 34q0 32 19 40t52 8
q14 0 26 -3t20 -13.5t8 -31.5q0 -23 -9 -49.5t-23 -51t-29 -43.5h-63z" />
    <glyph glyph-name="Lcaron" unicode="&#x13d;" horiz-adv-x="527" 
d="M222 460v-374h295v-86h-459v406q0 18 2.5 30t13.5 18t38 6h110zM346 311l-8 149h67l-5 -149h-54z" />
    <glyph glyph-name="lcaron" unicode="&#x13e;" horiz-adv-x="272" 
d="M176 -4q-70 0 -101 23.5t-31 83.5v348q0 22 4 34t16 16t35 4h97q-1 -3 -2.5 -22t-1.5 -42v-321q0 -36 9 -50.5t34 -14.5q9 0 19.5 2t12.5 3v-55q-7 -1 -26 -5t-65 -4zM242 362l3 149h67l-18 -149h-52z" />
    <glyph glyph-name="Ldot" unicode="&#x13f;" horiz-adv-x="539" 
d="M222 460v-374h295v-86h-459v406q0 18 2.5 30t13.5 18t38 6h110zM314 231q0 32 22.5 40t53.5 8q33 0 52 -8.5t19 -39.5q0 -23 -9.5 -33t-25.5 -13t-38 -3q-21 0 -37.5 3t-26.5 13t-10 33z" />
    <glyph glyph-name="ldot" unicode="&#x140;" horiz-adv-x="285" 
d="M176 -4q-70 0 -101 23.5t-31 83.5v348q0 22 4 34t16 16t35 4h97q-1 -3 -2.5 -22t-1.5 -42v-321q0 -36 9 -50.5t34 -14.5q9 0 19.5 2t12.5 3v-55q-7 -1 -26 -5t-65 -4zM240 234q0 32 22.5 40t53.5 8q33 0 52 -8.5t19 -39.5q0 -23 -9.5 -33t-25.5 -13t-38 -3q-21 0 -37.5 3
t-26.5 13t-10 33z" />
    <glyph glyph-name="Lslash" unicode="&#x141;" horiz-adv-x="541" 
d="M307 241l12 -40l-317 -109l-16 40zM224 460v-374h295v-86h-459v406q0 18 2.5 30t14 18t38.5 6h109z" />
    <glyph glyph-name="lslash" unicode="&#x142;" horiz-adv-x="309" 
d="M292 267l11 -43l-284 -75l-10 43zM208 -4q-70 0 -101 23.5t-31 83.5v348q0 22 4 34t16 16t35 4h97q-1 -3 -2.5 -22t-1.5 -42v-321q0 -36 9 -50.5t34 -14.5q9 0 19.5 2t12.5 3v-55q-7 -1 -26 -5t-65 -4z" />
    <glyph glyph-name="Nacute" unicode="&#x143;" horiz-adv-x="672" 
d="M58 0v404q0 35 10 45.5t47 10.5h155l218 -294l6 -23v317h120q-2 -2 -2.5 -12.5t-0.5 -23v-22.5v-353q0 -33 -14 -41t-52 -8h-141l-223 300l-5 25v-325h-118zM287 521l115 113l67 -40l-121 -73h-61z" />
    <glyph glyph-name="nacute" unicode="&#x144;" horiz-adv-x="527" 
d="M83 0q-38 0 -38 39v336q30 10 90 18.5t132 8.5q77 0 121.5 -8.5t66 -29t28 -54.5t6.5 -85v-169q0 -22 -3 -34.5t-15.5 -17.5t-38.5 -5l-91 1v260q0 33 -20 47t-54 14q-12 0 -26 -2.5t-26.5 -6t-20.5 -9.5v-303h-111zM227 460l136 129l68 -39l-143 -90h-61z" />
    <glyph glyph-name="uni0145" unicode="&#x145;" horiz-adv-x="672" 
d="M58 0v404q0 35 10 45.5t47 10.5h155l218 -294l6 -23v317h120q-2 -2 -2.5 -12.5t-0.5 -23v-22.5v-353q0 -33 -14 -41t-52 -8h-141l-223 300l-5 25v-325h-118zM272 -255q11 21 18.5 36t15 29.5t15.5 32.5q-3 0 -7 0.5t-8 0.5q-13 2 -24 11t-11 34q0 32 19 40t52 8
q14 0 26 -3t20 -13.5t8 -31.5q0 -23 -9 -49.5t-23 -51t-29 -43.5h-63z" />
    <glyph glyph-name="uni0146" unicode="&#x146;" horiz-adv-x="527" 
d="M83 0q-38 0 -38 39v336q30 10 90 18.5t132 8.5q77 0 121.5 -8.5t66 -29t28 -54.5t6.5 -85v-169q0 -22 -3 -34.5t-15.5 -17.5t-38.5 -5l-91 1v260q0 33 -20 47t-54 14q-12 0 -26 -2.5t-26.5 -6t-20.5 -9.5v-303h-111zM203 -255q11 21 18.5 36t15 29.5t15.5 32.5
q-3 0 -7 0.5t-8 0.5q-13 2 -24 11t-11 34q0 32 19 40t52 8q14 0 26 -3t20 -13.5t8 -31.5q0 -23 -9 -49.5t-23 -51t-29 -43.5h-63z" />
    <glyph glyph-name="Ncaron" unicode="&#x147;" horiz-adv-x="672" 
d="M210 634h60l66 -53l62 53h65l-107 -113h-41zM58 0v404q0 35 10 45.5t47 10.5h155l218 -294l6 -23v317h120q-2 -2 -2.5 -12.5t-0.5 -23v-22.5v-353q0 -33 -14 -41t-52 -8h-141l-223 300l-5 25v-325h-118z" />
    <glyph glyph-name="ncaron" unicode="&#x148;" horiz-adv-x="527" 
d="M141 593h60l66 -69l63 69h64l-106 -133h-42zM83 0q-38 0 -38 39v336q30 10 90 18.5t132 8.5q77 0 121.5 -8.5t66 -29t28 -54.5t6.5 -85v-169q0 -22 -3 -34.5t-15.5 -17.5t-38.5 -5l-91 1v260q0 33 -20 47t-54 14q-12 0 -26 -2.5t-26.5 -6t-20.5 -9.5v-303h-111z" />
    <glyph glyph-name="napostrophe" unicode="&#x149;" horiz-adv-x="554" 
d="M3 395q13 22 24.5 45.5t20.5 43.5h-4.5h-5.5q-13 1 -22 7.5t-9 25.5q0 16 8 23.5t21 9.5t28 2q25 0 39 -6.5t14 -29.5q0 -17 -9.5 -40.5t-22 -46t-22.5 -34.5h-60zM114 0q-38 0 -38 39v336q31 10 90.5 18.5t131.5 8.5q77 0 121.5 -8.5t66.5 -29t28.5 -54.5t6.5 -85v-169
q0 -22 -3.5 -34.5t-16 -17.5t-38.5 -5l-91 1v260q0 33 -20 47t-53 14q-12 0 -26 -2.5t-27 -6t-21 -9.5v-303h-111z" />
    <glyph glyph-name="Eng" unicode="&#x14a;" horiz-adv-x="676" 
d="M58 0q2 3 3 15.5t1 28.5v180v180q0 35 14.5 45.5t51.5 10.5h73h73l112 -150l112 -150v150v150h59.5h60.5q-2 -2 -2.5 -12.5t-0.5 -23v-22.5v-226v-225q0 -17 -0.5 -37.5t-2.5 -33.5q-5 -29 -23.5 -46t-44.5 -24.5t-53 -8.5q-29 -1 -52 -1t-46 2.5t-52 4.5v48v48
q11 -4 33 -9.5t36 -5.5q23 0 31.5 12t8.5 32v33.5v32.5h-20.5h-20.5l-229 309v-153v-154h-61h-61z" />
    <glyph glyph-name="eng" unicode="&#x14b;" horiz-adv-x="519" 
d="M34 375q16 5 46.5 11.5t75.5 11t101 4.5q77 0 121 -8.5t65.5 -29t28 -54.5t6.5 -85v-117q0 -20 0.5 -39t0.5 -46q0 -19 1 -40t-3.5 -40t-18.5 -34t-43 -24t-79 -9q-32 0 -61 4.5t-41 10.5v14v20.5v14.5q38 -5 58 0.5t28.5 20t8.5 37.5v132.5v132.5q-1 33 -20.5 46
t-51.5 13q-16 0 -30.5 -2.5t-26 -7t-17.5 -10.5v-302h-17.5t-36 -0.5t-37.5 -0.5h-20q-26 0 -32 14t-6 42v320z" />
    <glyph glyph-name="Omacron" unicode="&#x14c;" horiz-adv-x="656" 
d="M327 -7q-80 0 -136 11t-91.5 37.5t-52 72.5t-16.5 116q0 72 17 117.5t53.5 72t93 37.5t135.5 11t135 -11t91.5 -37.5t52 -72.5t16.5 -117t-17 -117t-53 -72.5t-92.5 -37t-135.5 -10.5zM328 78q33 0 57.5 6.5t40 23.5t23 46.5t7.5 75.5q0 47 -7.5 76.5t-23 46t-40 23
t-57.5 6.5q-34 0 -58.5 -6.5t-39.5 -23t-23 -46t-8 -76.5q0 -46 8 -75.5t23 -46.5t39.5 -23.5t58.5 -6.5zM188 521v58h280v-58h-280z" />
    <glyph glyph-name="omacron" unicode="&#x14d;" horiz-adv-x="530" 
d="M266 -6q-57 0 -101 8t-73.5 30t-44.5 62.5t-15 104.5t15 104.5t44.5 62.5t73.5 30t101 8q58 0 101 -8t72 -30t44 -62.5t15 -104.5t-15 -105t-44.5 -62.5t-72.5 -29.5t-100 -8zM266 67q28 0 45.5 10.5t26.5 39t9 82.5t-9 82.5t-26.5 39t-45.5 10.5q-26 0 -45 -10.5
t-28.5 -39t-9.5 -82.5t9.5 -82.5t28.5 -39t45 -10.5zM125 460v60h277v-60h-277z" />
    <glyph glyph-name="Obreve" unicode="&#x14e;" horiz-adv-x="656" 
d="M327 -7q-80 0 -136 11t-91.5 37.5t-52 72.5t-16.5 116q0 72 17 117.5t53.5 72t93 37.5t135.5 11t135 -11t91.5 -37.5t52 -72.5t16.5 -117t-17 -117t-53 -72.5t-92.5 -37t-135.5 -10.5zM328 78q33 0 57.5 6.5t40 23.5t23 46.5t7.5 75.5q0 47 -7.5 76.5t-23 46t-40 23
t-57.5 6.5q-34 0 -58.5 -6.5t-39.5 -23t-23 -46t-8 -76.5q0 -46 8 -75.5t23 -46.5t39.5 -23.5t58.5 -6.5zM329 520q-41 0 -68 7t-40 30.5t-13 68.5v8h57v-6q0 -14 4.5 -26.5t18 -19.5t40.5 -7q28 0 41.5 7t18 19t4.5 27v6h56v-8q0 -45 -12.5 -68t-39 -30.5t-67.5 -7.5z" />
    <glyph glyph-name="obreve" unicode="&#x14f;" horiz-adv-x="530" 
d="M266 -6q-57 0 -101 8t-73.5 30t-44.5 62.5t-15 104.5t15 104.5t44.5 62.5t73.5 30t101 8q58 0 101 -8t72 -30t44 -62.5t15 -104.5t-15 -105t-44.5 -62.5t-72.5 -29.5t-100 -8zM266 67q28 0 45.5 10.5t26.5 39t9 82.5t-9 82.5t-26.5 39t-45.5 10.5q-26 0 -45 -10.5
t-28.5 -39t-9.5 -82.5t9.5 -82.5t28.5 -39t45 -10.5zM264 458q-49 0 -75 12t-35.5 40.5t-9.5 78.5h55q0 -41 14 -58t51 -17q40 0 51.5 18t11.5 57h56q0 -51 -9.5 -79.5t-35.5 -40t-74 -11.5z" />
    <glyph glyph-name="Ohungarumlaut" unicode="&#x150;" horiz-adv-x="656" 
d="M327 -7q-80 0 -136 11t-91.5 37.5t-52 72.5t-16.5 116q0 72 17 117.5t53.5 72t93 37.5t135.5 11t135 -11t91.5 -37.5t52 -72.5t16.5 -117t-17 -117t-53 -72.5t-92.5 -37t-135.5 -10.5zM328 78q33 0 57.5 6.5t40 23.5t23 46.5t7.5 75.5q0 47 -7.5 76.5t-23 46t-40 23
t-57.5 6.5q-34 0 -58.5 -6.5t-39.5 -23t-23 -46t-8 -76.5q0 -46 8 -75.5t23 -46.5t39.5 -23.5t58.5 -6.5zM368 521l39 113l85 -1l-61 -112h-63zM234 521l40 113l84 -1l-61 -112h-63z" />
    <glyph glyph-name="ohungarumlaut" unicode="&#x151;" horiz-adv-x="530" 
d="M266 -6q-57 0 -101 8t-73.5 30t-44.5 62.5t-15 104.5t15 104.5t44.5 62.5t73.5 30t101 8q58 0 101 -8t72 -30t44 -62.5t15 -104.5t-15 -105t-44.5 -62.5t-72.5 -29.5t-100 -8zM266 67q28 0 45.5 10.5t26.5 39t9 82.5t-9 82.5t-26.5 39t-45.5 10.5q-26 0 -45 -10.5
t-28.5 -39t-9.5 -82.5t9.5 -82.5t28.5 -39t45 -10.5zM299 460l42 126l85 -1l-64 -125h-63zM165 460l42 126l85 -1l-64 -125h-63z" />
    <glyph glyph-name="OE" unicode="&#x152;" horiz-adv-x="1033" 
d="M327 -7q-80 0 -136 11t-91.5 37.5t-52 72.5t-16.5 116q0 72 17 117.5t53.5 72t93 37.5t135.5 11t135 -11t91.5 -37.5t52 -72.5t16.5 -117t-17 -117t-53 -72.5t-92.5 -37t-135.5 -10.5zM328 78q33 0 57.5 6.5t40 23.5t23 46.5t7.5 75.5q0 47 -7.5 76.5t-23 46t-40 23
t-57.5 6.5q-34 0 -58.5 -6.5t-39.5 -23t-23 -46t-8 -76.5q0 -46 8 -75.5t23 -46.5t39.5 -23.5t58.5 -6.5zM494 0v408q0 32 11 42t43 10h462v-86h-352v-96h320v-85h-320v-107h352v-86h-516z" />
    <glyph glyph-name="oe" unicode="&#x153;" horiz-adv-x="856" 
d="M266 -6q-57 0 -101 8t-73.5 30t-44.5 62.5t-15 104.5t15 104.5t44.5 62.5t73.5 30t101 8q58 0 101 -8t72 -30t44 -62.5t15 -104.5t-15 -105t-44.5 -62.5t-72.5 -29.5t-100 -8zM266 67q28 0 45.5 10.5t26.5 39t9 82.5t-9 82.5t-26.5 39t-45.5 10.5q-26 0 -45 -10.5
t-28.5 -39t-9.5 -82.5t9.5 -82.5t28.5 -39t45 -10.5zM592 -6q-70 0 -115 8.5t-71 29.5t-37 59t-11 99q0 78 22 124t76.5 67t151.5 21q76 0 121 -16t65 -50t20 -87v-77h-278q0 21 9.5 35.5t35.5 14.5h100l-1 21q0 41 -16.5 61.5t-61.5 20.5q-37 0 -57.5 -11.5t-28 -40
t-7.5 -81.5q0 -48 9.5 -72t34.5 -32.5t71 -8.5q17 0 46 1t59.5 2.5t54 3t29.5 3.5v-18q0 -14 -4.5 -29.5t-17.5 -25.5q-18 -14 -66.5 -18t-132.5 -4z" />
    <glyph glyph-name="Racute" unicode="&#x154;" horiz-adv-x="654" 
d="M348 155h-19.5t-49.5 -0.5t-62 -0.5v-154h-164v399q0 29 13 45t53 16q15 0 45 0.5t69 0.5t80.5 0.5t79.5 0t66.5 -1t41.5 -1.5q54 -5 81 -32.5t27 -89.5q0 -56 -8.5 -81.5t-27.5 -39.5q-7 -5 -19 -8t-27 -3v-4h15.5t14.5 -1q38 -7 45.5 -29t7.5 -46v-88q0 -19 4 -27.5
t5 -9.5h-122q-26 0 -40.5 8t-14.5 34v66q0 31 -13.5 39t-47.5 8h-33zM217 233q11 0 33.5 -0.5t49.5 -0.5h49.5h32.5q24 0 42.5 15.5t18.5 58.5q0 30 -10.5 47t-34.5 19q-14 3 -37.5 3h-49t-46.5 -0.5t-31 -0.5q-2 0 -9.5 -3t-7.5 -15v-123zM286 521l115 113l67 -40l-121 -73
h-61z" />
    <glyph glyph-name="racute" unicode="&#x155;" horiz-adv-x="463" 
d="M195 0h-108q-22 0 -32 11t-10 44v324q28 7 81.5 15t120.5 8q70 0 110.5 -8t59.5 -24.5t24.5 -42t5.5 -61.5h-143v14q0 24 -8.5 35t-20.5 14t-25 3q-20 0 -34.5 -4t-20.5 -12v-316zM202 460l136 129l68 -39l-143 -90h-61z" />
    <glyph glyph-name="uni0156" unicode="&#x156;" horiz-adv-x="654" 
d="M348 155h-19.5t-49.5 -0.5t-62 -0.5v-154h-164v399q0 29 13 45t53 16q15 0 45 0.5t69 0.5t80.5 0.5t79.5 0t66.5 -1t41.5 -1.5q54 -5 81 -32.5t27 -89.5q0 -56 -8.5 -81.5t-27.5 -39.5q-7 -5 -19 -8t-27 -3v-4h15.5t14.5 -1q38 -7 45.5 -29t7.5 -46v-88q0 -19 4 -27.5
t5 -9.5h-122q-26 0 -40.5 8t-14.5 34v66q0 31 -13.5 39t-47.5 8h-33zM217 233q11 0 33.5 -0.5t49.5 -0.5h49.5h32.5q24 0 42.5 15.5t18.5 58.5q0 30 -10.5 47t-34.5 19q-14 3 -37.5 3h-49t-46.5 -0.5t-31 -0.5q-2 0 -9.5 -3t-7.5 -15v-123zM271 -255q11 21 18.5 36t15 29.5
t15.5 32.5q-3 0 -7 0.5t-8 0.5q-13 2 -24 11t-11 34q0 32 19 40t52 8q14 0 26 -3t20 -13.5t8 -31.5q0 -23 -9 -49.5t-23 -51t-29 -43.5h-63z" />
    <glyph glyph-name="uni0157" unicode="&#x157;" horiz-adv-x="463" 
d="M195 0h-108q-22 0 -32 11t-10 44v324q28 7 81.5 15t120.5 8q70 0 110.5 -8t59.5 -24.5t24.5 -42t5.5 -61.5h-143v14q0 24 -8.5 35t-20.5 14t-25 3q-20 0 -34.5 -4t-20.5 -12v-316zM57 -255q11 21 18.5 36t15 29.5t15.5 32.5q-3 0 -7 0.5t-8 0.5q-13 2 -24 11t-11 34
q0 32 19 40t52 8q14 0 26 -3t20 -13.5t8 -31.5q0 -23 -9 -49.5t-23 -51t-29 -43.5h-63z" />
    <glyph glyph-name="Rcaron" unicode="&#x158;" horiz-adv-x="654" 
d="M209 634h60l66 -53l62 53h65l-107 -113h-41zM348 155h-19.5t-49.5 -0.5t-62 -0.5v-154h-164v399q0 29 13 45t53 16q15 0 45 0.5t69 0.5t80.5 0.5t79.5 0t66.5 -1t41.5 -1.5q54 -5 81 -32.5t27 -89.5q0 -56 -8.5 -81.5t-27.5 -39.5q-7 -5 -19 -8t-27 -3v-4h15.5t14.5 -1
q38 -7 45.5 -29t7.5 -46v-88q0 -19 4 -27.5t5 -9.5h-122q-26 0 -40.5 8t-14.5 34v66q0 31 -13.5 39t-47.5 8h-33zM217 233q11 0 33.5 -0.5t49.5 -0.5h49.5h32.5q24 0 42.5 15.5t18.5 58.5q0 30 -10.5 47t-34.5 19q-14 3 -37.5 3h-49t-46.5 -0.5t-31 -0.5q-2 0 -9.5 -3
t-7.5 -15v-123z" />
    <glyph glyph-name="rcaron" unicode="&#x159;" horiz-adv-x="463" 
d="M116 593h61l65 -69l63 69h65l-107 -133h-41zM195 0h-108q-22 0 -32 11t-10 44v324q28 7 81.5 15t120.5 8q70 0 110.5 -8t59.5 -24.5t24.5 -42t5.5 -61.5h-143v14q0 24 -8.5 35t-20.5 14t-25 3q-20 0 -34.5 -4t-20.5 -12v-316z" />
    <glyph glyph-name="Sacute" unicode="&#x15a;" horiz-adv-x="614" 
d="M39 109q25 -11 64 -16.5t81 -6.5t74 -1h30.5t30.5 1q27 0 46 5.5t28.5 17.5t9.5 34q0 26 -15 34.5t-46 8.5h-25.5h-36.5h-57q-32 0 -64.5 3t-58.5 14.5t-41.5 37t-15.5 70.5q0 54 18.5 84.5t52 45.5t80 19t102.5 4q34 0 73.5 -1t74 -3t53.5 -7q34 -2 52.5 -18t18.5 -40
v-13.5v-18.5v-10q-8 7 -29.5 11.5t-50 6.5t-56 3t-48.5 1h-90q-27 0 -45.5 -4.5t-27.5 -15.5t-9 -31q0 -16 6 -25.5t19 -13.5t34 -4h98h48q48 0 84 -8t56 -36t20 -86q0 -55 -22 -87.5t-60.5 -47.5t-89.5 -18q-48 -3 -91 -3h-91q-40 1 -73.5 3.5t-58.5 9t-38.5 18t-13.5 30.5
v53zM263 521l115 113l67 -40l-121 -73h-61z" />
    <glyph glyph-name="sacute" unicode="&#x15b;" horiz-adv-x="517" 
d="M230 -4q-24 0 -51 1t-53.5 4t-48.5 9q-18 4 -29.5 10.5t-17 25t-5.5 58.5q31 -11 64 -17.5t64.5 -9t58.5 -2.5q19 0 41.5 0.5t43.5 5t35 15t14 29.5q0 23 -12 30t-32 7h-114q-46 0 -81.5 5t-56 27.5t-20.5 76.5q0 59 29.5 87.5t84.5 37.5t132 9q28 0 65.5 -1t65.5 -5
q31 -3 48.5 -9.5t25.5 -20t8 -41.5v-28q-6 10 -30.5 15.5t-59 7.5t-72 2h-69.5q-22 0 -40.5 -2.5t-29.5 -12t-11 -30.5q0 -16 7 -23.5t19 -9.5t27 -2h127q42 0 74 -7.5t49 -32t17 -76.5q0 -60 -34 -88t-94 -36.5t-139 -8.5zM230 460l136 129l68 -39l-143 -90h-61z" />
    <glyph glyph-name="Scircumflex" unicode="&#x15c;" horiz-adv-x="614" 
d="M39 109q25 -11 64 -16.5t81 -6.5t74 -1h30.5t30.5 1q27 0 46 5.5t28.5 17.5t9.5 34q0 26 -15 34.5t-46 8.5h-25.5h-36.5h-57q-32 0 -64.5 3t-58.5 14.5t-41.5 37t-15.5 70.5q0 54 18.5 84.5t52 45.5t80 19t102.5 4q34 0 73.5 -1t74 -3t53.5 -7q34 -2 52.5 -18t18.5 -40
v-13.5v-18.5v-10q-8 7 -29.5 11.5t-50 6.5t-56 3t-48.5 1h-90q-27 0 -45.5 -4.5t-27.5 -15.5t-9 -31q0 -16 6 -25.5t19 -13.5t34 -4h98h48q48 0 84 -8t56 -36t20 -86q0 -55 -22 -87.5t-60.5 -47.5t-89.5 -18q-48 -3 -91 -3h-91q-40 1 -73.5 3.5t-58.5 9t-38.5 18t-13.5 30.5
v53zM186 521l105 113h41l107 -113h-65l-63 53l-65 -53h-60z" />
    <glyph glyph-name="scircumflex" unicode="&#x15d;" horiz-adv-x="517" 
d="M230 -4q-24 0 -51 1t-53.5 4t-48.5 9q-18 4 -29.5 10.5t-17 25t-5.5 58.5q31 -11 64 -17.5t64.5 -9t58.5 -2.5q19 0 41.5 0.5t43.5 5t35 15t14 29.5q0 23 -12 30t-32 7h-114q-46 0 -81.5 5t-56 27.5t-20.5 76.5q0 59 29.5 87.5t84.5 37.5t132 9q28 0 65.5 -1t65.5 -5
q31 -3 48.5 -9.5t25.5 -20t8 -41.5v-28q-6 10 -30.5 15.5t-59 7.5t-72 2h-69.5q-22 0 -40.5 -2.5t-29.5 -12t-11 -30.5q0 -16 7 -23.5t19 -9.5t27 -2h127q42 0 74 -7.5t49 -32t17 -76.5q0 -60 -34 -88t-94 -36.5t-139 -8.5zM144 460l106 133h41l107 -133h-65l-63 69l-65 -69
h-61z" />
    <glyph glyph-name="Scedilla" unicode="&#x15e;" horiz-adv-x="614" 
d="M39 109q25 -11 64 -16.5t81 -6.5t74 -1h30.5t30.5 1q27 0 46 5.5t28.5 17.5t9.5 34q0 26 -15 34.5t-46 8.5h-25.5h-36.5h-57q-32 0 -64.5 3t-58.5 14.5t-41.5 37t-15.5 70.5q0 54 18.5 84.5t52 45.5t80 19t102.5 4q34 0 73.5 -1t74 -3t53.5 -7q34 -2 52.5 -18t18.5 -40
v-13.5v-18.5v-10q-8 7 -29.5 11.5t-50 6.5t-56 3t-48.5 1h-90q-27 0 -45.5 -4.5t-27.5 -15.5t-9 -31q0 -16 6 -25.5t19 -13.5t34 -4h98h48q48 0 84 -8t56 -36t20 -86q0 -55 -22 -87.5t-60.5 -47.5t-89.5 -18q-48 -3 -91 -3h-91q-40 1 -73.5 3.5t-58.5 9t-38.5 18t-13.5 30.5
v53zM275 -179q-35 0 -44.5 7t-9.5 29h15h35q27 0 37 4.5t10 16.5q0 16 -9.5 20t-37.5 4h-43q-1 0 -3.5 5t0 14.5t12.5 22.5q7 7 15 15.5t17.5 17t19 15t17.5 9.5h44l-54 -66q44 1 65.5 -2.5t28.5 -16t7 -39.5t-10 -39t-36 -14.5t-76 -2.5z" />
    <glyph glyph-name="scedilla" unicode="&#x15f;" horiz-adv-x="517" 
d="M230 -4q-24 0 -51 1t-53.5 4t-48.5 9q-18 4 -29.5 10.5t-17 25t-5.5 58.5q31 -11 64 -17.5t64.5 -9t58.5 -2.5q19 0 41.5 0.5t43.5 5t35 15t14 29.5q0 23 -12 30t-32 7h-114q-46 0 -81.5 5t-56 27.5t-20.5 76.5q0 59 29.5 87.5t84.5 37.5t132 9q28 0 65.5 -1t65.5 -5
q31 -3 48.5 -9.5t25.5 -20t8 -41.5v-28q-6 10 -30.5 15.5t-59 7.5t-72 2h-69.5q-22 0 -40.5 -2.5t-29.5 -12t-11 -30.5q0 -16 7 -23.5t19 -9.5t27 -2h127q42 0 74 -7.5t49 -32t17 -76.5q0 -60 -34 -88t-94 -36.5t-139 -8.5zM228 -179q-35 0 -44.5 7t-9.5 29h15h35
q27 0 37 4.5t10 16.5q0 16 -9.5 20t-37.5 4h-43q-1 0 -3.5 5t0 14.5t12.5 22.5q7 7 15 15.5t17.5 17t19 15t17.5 9.5h44l-54 -66q44 1 65.5 -2.5t28.5 -16t7 -39.5t-10 -39t-36 -14.5t-76 -2.5z" />
    <glyph glyph-name="Scaron" unicode="&#x160;" horiz-adv-x="614" 
d="M186 634h60l65 -53l63 53h65l-107 -113h-41zM39 109q25 -11 64 -16.5t81 -6.5t74 -1h30.5t30.5 1q27 0 46 5.5t28.5 17.5t9.5 34q0 26 -15 34.5t-46 8.5h-25.5h-36.5h-57q-32 0 -64.5 3t-58.5 14.5t-41.5 37t-15.5 70.5q0 54 18.5 84.5t52 45.5t80 19t102.5 4
q34 0 73.5 -1t74 -3t53.5 -7q34 -2 52.5 -18t18.5 -40v-13.5v-18.5v-10q-8 7 -29.5 11.5t-50 6.5t-56 3t-48.5 1h-90q-27 0 -45.5 -4.5t-27.5 -15.5t-9 -31q0 -16 6 -25.5t19 -13.5t34 -4h98h48q48 0 84 -8t56 -36t20 -86q0 -55 -22 -87.5t-60.5 -47.5t-89.5 -18
q-48 -3 -91 -3h-91q-40 1 -73.5 3.5t-58.5 9t-38.5 18t-13.5 30.5v53z" />
    <glyph glyph-name="scaron" unicode="&#x161;" horiz-adv-x="517" 
d="M145 593h60l66 -69l63 69h64l-107 -133h-41zM230 -4q-24 0 -51 1t-53.5 4t-48.5 9q-18 4 -29.5 10.5t-17 25t-5.5 58.5q31 -11 64 -17.5t64.5 -9t58.5 -2.5q19 0 41.5 0.5t43.5 5t35 15t14 29.5q0 23 -12 30t-32 7h-114q-46 0 -81.5 5t-56 27.5t-20.5 76.5
q0 59 29.5 87.5t84.5 37.5t132 9q28 0 65.5 -1t65.5 -5q31 -3 48.5 -9.5t25.5 -20t8 -41.5v-28q-6 10 -30.5 15.5t-59 7.5t-72 2h-69.5q-22 0 -40.5 -2.5t-29.5 -12t-11 -30.5q0 -16 7 -23.5t19 -9.5t27 -2h127q42 0 74 -7.5t49 -32t17 -76.5q0 -60 -34 -88t-94 -36.5
t-139 -8.5z" />
    <glyph glyph-name="uni0162" unicode="&#x162;" horiz-adv-x="588" 
d="M18 460h552v-87h-193v-319q0 -32 -10 -43t-45 -11h-110v373h-194v87zM261 -179q-35 0 -44.5 7t-9.5 29h15h35q27 0 37 4.5t10 16.5q0 16 -9.5 20t-37.5 4h-43q-1 0 -3.5 5t0 14.5t12.5 22.5q7 7 15 15.5t17.5 17t19 15t17.5 9.5h44l-54 -66q44 1 65.5 -2.5t28.5 -16
t7 -39.5t-10 -39t-36 -14.5t-76 -2.5z" />
    <glyph glyph-name="uni0163" unicode="&#x163;" horiz-adv-x="330" 
d="M203 -4q-54 0 -84.5 11.5t-42.5 38t-12 73.5v202h-43v78h43v51q0 25 3.5 37t14.5 15t35 3h96v-10v-15v-81h97v-78h-96v-190q0 -40 7.5 -58t40.5 -18q9 0 23.5 2t20.5 4v-55q-7 -1 -34.5 -5.5t-68.5 -4.5zM144 -179q-35 0 -44.5 7t-9.5 29h15h35q27 0 37 4.5t10 16.5
q0 16 -9.5 20t-37.5 4h-43q-1 0 -3.5 5t0 14.5t12.5 22.5q7 7 15 15.5t17.5 17t19 15t17.5 9.5h44l-54 -66q44 1 65.5 -2.5t28.5 -16t7 -39.5t-10 -39t-36 -14.5t-76 -2.5z" />
    <glyph glyph-name="Tcaron" unicode="&#x164;" horiz-adv-x="588" 
d="M168 634h60l65 -53l63 53h64l-106 -113h-42zM18 460h552v-87h-193v-319q0 -32 -10 -43t-45 -11h-110v373h-194v87z" />
    <glyph glyph-name="tcaron" unicode="&#x165;" horiz-adv-x="330" 
d="M203 -4q-54 0 -84.5 11.5t-42.5 38t-12 73.5v202h-43v78h43v51q0 25 3.5 37t14.5 15t35 3h96v-10v-15v-81h97v-78h-96v-190q0 -40 7.5 -58t40.5 -18q9 0 23.5 2t20.5 4v-55q-7 -1 -34.5 -5.5t-68.5 -4.5zM264 463l3 149h67l-18 -149h-52z" />
    <glyph glyph-name="Tbar" unicode="&#x166;" horiz-adv-x="585" 
d="M92 279h119v94h-194v87h551v-87h-192v-94h124v-44h-124v-181q0 -32 -10 -43t-45 -11h-110v235h-119v44z" />
    <glyph glyph-name="tbar" unicode="&#x167;" horiz-adv-x="354" 
d="M30 264h261v-34h-261v34zM33 399h43v51q0 26 4.5 37.5t15.5 14.5t33 3h96v-10v-15v-81h97v-78h-96v-188q0 -40 7 -59t41 -19q7 0 22.5 1.5t21.5 3.5v-54q-7 -1 -36.5 -5.5t-65.5 -4.5q-49 0 -77.5 9.5t-42.5 24.5t-18 34.5t-3 39.5t1 38v179h-43v39.5v38.5z" />
    <glyph glyph-name="Utilde" unicode="&#x168;" horiz-adv-x="644" 
d="M596 228q0 -59 -6.5 -102.5t-32.5 -72t-82 -42t-155 -13.5q-81 0 -132.5 9t-80 27t-41.5 44t-15.5 61t-2.5 78v169q0 31 2 47t15 21.5t44 5.5h103v-275q0 -42 11 -63t35 -27.5t62 -6.5q61 0 86 21t25 75v276h102q32 0 45 -5.5t15.5 -21.5t2.5 -47v-158zM379 522
q-20 -1 -38 9.5t-36 21.5t-38 9q-19 0 -30.5 -11.5t-15.5 -17.5l-27 23q0 1 5 11.5t14.5 23.5t23 23.5t30.5 10.5q20 1 38.5 -9.5t36.5 -21t36 -10.5q22 0 34 12.5t17 21.5l27 -22l-5.5 -11.5t-15 -26t-23.5 -25.5t-33 -11z" />
    <glyph glyph-name="utilde" unicode="&#x169;" horiz-adv-x="523" 
d="M187 399v-259q0 -36 17.5 -50.5t56.5 -14.5q41 0 58 15.5t17 48.5v260h13t27.5 0.5t29 0.5h16.5q23 0 37 -2.5t20 -12.5t6 -35v-194q0 -60 -18 -95.5t-67 -51t-142 -15.5q-86 0 -134 12.5t-67 45.5t-19 93v205q0 29 10 39.5t43 10.5q24 0 48 -0.5t48 -0.5zM320 460
q-20 0 -38.5 10.5t-36.5 21.5t-38 9q-19 0 -30 -12t-15 -18l-27 23q1 1 5.5 11.5t13.5 24t22.5 23.5t31.5 10q20 2 38 -9t36 -21.5t36 -10.5q22 0 34.5 13t17.5 22l27 -21q0 -1 -5.5 -12.5t-15 -26t-24 -26t-32.5 -11.5z" />
    <glyph glyph-name="Umacron" unicode="&#x16a;" horiz-adv-x="644" 
d="M596 228q0 -59 -6.5 -102.5t-32.5 -72t-82 -42t-155 -13.5q-81 0 -132.5 9t-80 27t-41.5 44t-15.5 61t-2.5 78v169q0 31 2 47t15 21.5t44 5.5h103v-275q0 -42 11 -63t35 -27.5t62 -6.5q61 0 86 21t25 75v276h102q32 0 45 -5.5t15.5 -21.5t2.5 -47v-158zM182 521v58h280
v-58h-280z" />
    <glyph glyph-name="umacron" unicode="&#x16b;" horiz-adv-x="523" 
d="M187 399v-259q0 -36 17.5 -50.5t56.5 -14.5q41 0 58 15.5t17 48.5v260h13t27.5 0.5t29 0.5h16.5q23 0 37 -2.5t20 -12.5t6 -35v-194q0 -60 -18 -95.5t-67 -51t-142 -15.5q-86 0 -134 12.5t-67 45.5t-19 93v205q0 29 10 39.5t43 10.5q24 0 48 -0.5t48 -0.5zM123 460v60
h277v-60h-277z" />
    <glyph glyph-name="Ubreve" unicode="&#x16c;" horiz-adv-x="644" 
d="M596 228q0 -59 -6.5 -102.5t-32.5 -72t-82 -42t-155 -13.5q-81 0 -132.5 9t-80 27t-41.5 44t-15.5 61t-2.5 78v169q0 31 2 47t15 21.5t44 5.5h103v-275q0 -42 11 -63t35 -27.5t62 -6.5q61 0 86 21t25 75v276h102q32 0 45 -5.5t15.5 -21.5t2.5 -47v-158zM322 520
q-41 0 -68 7t-40 30.5t-13 68.5v8h57v-6q0 -14 4.5 -26.5t18 -19.5t40.5 -7q28 0 41.5 7t18 19t4.5 27v6h56v-8q0 -45 -12.5 -68t-39 -30.5t-67.5 -7.5z" />
    <glyph glyph-name="ubreve" unicode="&#x16d;" horiz-adv-x="523" 
d="M187 399v-259q0 -36 17.5 -50.5t56.5 -14.5q41 0 58 15.5t17 48.5v260h13t27.5 0.5t29 0.5h16.5q23 0 37 -2.5t20 -12.5t6 -35v-194q0 -60 -18 -95.5t-67 -51t-142 -15.5q-86 0 -134 12.5t-67 45.5t-19 93v205q0 29 10 39.5t43 10.5q24 0 48 -0.5t48 -0.5zM263 458
q-49 0 -75 12t-35.5 40.5t-9.5 78.5h55q0 -41 14 -58t51 -17q40 0 51.5 18t11.5 57h56q0 -51 -9.5 -79.5t-35.5 -40t-74 -11.5z" />
    <glyph glyph-name="Uring" unicode="&#x16e;" horiz-adv-x="644" 
d="M596 228q0 -59 -6.5 -102.5t-32.5 -72t-82 -42t-155 -13.5q-81 0 -132.5 9t-80 27t-41.5 44t-15.5 61t-2.5 78v169q0 31 2 47t15 21.5t44 5.5h103v-275q0 -42 11 -63t35 -27.5t62 -6.5q61 0 86 21t25 75v276h102q32 0 45 -5.5t15.5 -21.5t2.5 -47v-158zM321 522
q-30 0 -52 4.5t-33.5 18.5t-11.5 41q0 26 11.5 39t34 17t53.5 4q32 0 54 -4t34 -17t12 -39q0 -27 -12 -41t-34.5 -18.5t-55.5 -4.5zM323 562q21 0 31.5 4.5t10.5 17.5q0 14 -10.5 18.5t-31.5 4.5t-31.5 -4.5t-10.5 -18.5q0 -13 10 -17.5t32 -4.5z" />
    <glyph glyph-name="uring" unicode="&#x16f;" horiz-adv-x="523" 
d="M187 399v-259q0 -36 17.5 -50.5t56.5 -14.5q41 0 58 15.5t17 48.5v260h13t27.5 0.5t29 0.5h16.5q23 0 37 -2.5t20 -12.5t6 -35v-194q0 -60 -18 -95.5t-67 -51t-142 -15.5q-86 0 -134 12.5t-67 45.5t-19 93v205q0 29 10 39.5t43 10.5q24 0 48 -0.5t48 -0.5zM259 454
q-46 0 -71.5 16t-25.5 58t25.5 56t73.5 14q47 0 73.5 -14t26.5 -56t-26.5 -58t-75.5 -16zM261 494q20 0 31 6t11 28q0 19 -11 25t-31 6q-19 0 -30.5 -6t-11.5 -25q0 -22 11 -28t31 -6z" />
    <glyph glyph-name="Uhungarumlaut" unicode="&#x170;" horiz-adv-x="644" 
d="M596 228q0 -59 -6.5 -102.5t-32.5 -72t-82 -42t-155 -13.5q-81 0 -132.5 9t-80 27t-41.5 44t-15.5 61t-2.5 78v169q0 31 2 47t15 21.5t44 5.5h103v-275q0 -42 11 -63t35 -27.5t62 -6.5q61 0 86 21t25 75v276h102q32 0 45 -5.5t15.5 -21.5t2.5 -47v-158zM362 521l39 113
l85 -1l-61 -112h-63zM228 521l40 113l84 -1l-61 -112h-63z" />
    <glyph glyph-name="uhungarumlaut" unicode="&#x171;" horiz-adv-x="523" 
d="M187 399v-259q0 -36 17.5 -50.5t56.5 -14.5q41 0 58 15.5t17 48.5v260h13t27.5 0.5t29 0.5h16.5q23 0 37 -2.5t20 -12.5t6 -35v-194q0 -60 -18 -95.5t-67 -51t-142 -15.5q-86 0 -134 12.5t-67 45.5t-19 93v205q0 29 10 39.5t43 10.5q24 0 48 -0.5t48 -0.5zM297 460
l42 126l85 -1l-64 -125h-63zM163 460l42 126l85 -1l-64 -125h-63z" />
    <glyph glyph-name="Uogonek" unicode="&#x172;" horiz-adv-x="644" 
d="M596 228q0 -59 -6.5 -102.5t-32.5 -72t-82 -42t-155 -13.5q-81 0 -132.5 9t-80 27t-41.5 44t-15.5 61t-2.5 78v169q0 31 2 47t15 21.5t44 5.5h103v-275q0 -42 11 -63t35 -27.5t62 -6.5q61 0 86 21t25 75v276h102q32 0 45 -5.5t15.5 -21.5t2.5 -47v-158zM312 -184
q-39 0 -60 9t-29 27t-8 43q0 23 10 41.5t24.5 33.5t30.5 25t28 15h68q-8 -3 -23.5 -12.5t-32 -23t-28 -29t-11.5 -30.5q0 -29 16.5 -36t41.5 -7q20 0 28.5 0.5t11.5 1t5 0.5q0 -20 -4.5 -33t-20 -19t-47.5 -6z" />
    <glyph glyph-name="uogonek" unicode="&#x173;" horiz-adv-x="523" 
d="M187 399v-259q0 -36 17.5 -50.5t56.5 -14.5q41 0 58 15.5t17 48.5v260h13t27.5 0.5t29 0.5h16.5q23 0 37 -2.5t20 -12.5t6 -35v-194q0 -60 -18 -95.5t-67 -51t-142 -15.5q-86 0 -134 12.5t-67 45.5t-19 93v205q0 29 10 39.5t43 10.5q24 0 48 -0.5t48 -0.5zM256 -185
q-39 0 -60 9t-29 27t-8 43q0 23 10 41.5t24.5 33.5t30.5 25t28 15h68q-8 -3 -23.5 -12.5t-32 -23t-28 -29t-11.5 -30.5q0 -29 16.5 -36t41.5 -7q20 0 28.5 0.5t11.5 1t5 0.5q0 -20 -4.5 -33t-20 -19t-47.5 -6z" />
    <glyph glyph-name="Wcircumflex" unicode="&#x174;" horiz-adv-x="797" 
d="M191 0q-30 0 -50 10t-32 28.5t-16 43.5l-64 378l151 -1l49 -298q3 -16 7.5 -22.5t16.5 -6.5h15l74 328h157l84 -328h17q9 0 13 5.5t5 15.5l36 307h113l-54 -380q-3 -29 -17 -47t-38.5 -25.5t-62.5 -7.5h-112l-60 246l-11 50l-9 -50l-53 -246h-159zM297 521l105 113h41
l107 -113h-65l-63 53l-65 -53h-60z" />
    <glyph glyph-name="wcircumflex" unicode="&#x175;" horiz-adv-x="749" 
d="M217 -5q-64 0 -103.5 10.5t-57.5 41.5t-18 92v204q0 34 9.5 45t39.5 11h100v-259q0 -39 14 -50t41 -11q31 0 44.5 11.5t13.5 43.5v265h150v-266q0 -31 13.5 -42.5t41.5 -11.5q31 0 44.5 11t13.5 51v258h96q34 0 43.5 -10.5t9.5 -45.5v-204q0 -58 -18 -89t-59 -43
t-112 -12q-69 0 -108 22.5t-48 70.5h16q-8 -35 -26.5 -55.5t-52 -29t-87.5 -8.5zM248 460l106 133h41l107 -133h-65l-63 69l-65 -69h-61z" />
    <glyph glyph-name="Ycircumflex" unicode="&#x176;" horiz-adv-x="593" 
d="M217 0v183l-196 252l-21 25h228l113 -167l108 167h148l-27 -28l-189 -249v-123q1 -25 -5.5 -38t-22 -17.5t-44.5 -4.5h-92zM219 521l105 113h41l107 -113h-65l-63 53l-65 -53h-60z" />
    <glyph glyph-name="ycircumflex" unicode="&#x177;" horiz-adv-x="514" 
d="M252 -111q-57 0 -106 5t-78.5 16.5t-29.5 29.5v43q16 -9 45 -15t62 -9.5t61 -3.5q48 0 75 10.5t38.5 33.5t11.5 59v39q-11 -20 -29.5 -31.5t-47 -16t-71.5 -4.5q-65 0 -97 20.5t-41.5 57.5t-9.5 86v138q0 15 2.5 27t13.5 18.5t35 6.5h101v-45v-35.5v-35.5v-45
q0 -57 7.5 -83t23.5 -33t40 -7q25 0 40 8t22.5 33t7.5 77v166h104q24 0 36.5 -7.5t12.5 -35.5v-289q0 -90 -53 -134t-176 -44zM131 460l106 133h41l107 -133h-65l-63 69l-65 -69h-61z" />
    <glyph glyph-name="Ydieresis" unicode="&#x178;" horiz-adv-x="593" 
d="M217 0v183l-196 252l-21 25h228l113 -167l108 167h148l-27 -28l-189 -249v-123q1 -25 -5.5 -38t-22 -17.5t-44.5 -4.5h-92zM436 520q-24 0 -39.5 6.5t-15.5 34.5q0 26 16.5 32t40.5 6q22 0 37 -7t15 -31q0 -28 -14.5 -34.5t-39.5 -6.5zM253 520q-24 0 -39.5 6.5
t-15.5 34.5q0 26 16.5 32t40.5 6q23 0 37 -7t14 -31q0 -27 -14.5 -34t-38.5 -7z" />
    <glyph glyph-name="Zacute" unicode="&#x179;" horiz-adv-x="566" 
d="M241 87h311q0 -31 -1.5 -48.5t-8 -26t-21 -10.5t-40.5 -2h-467v88l17 17t40 39.5t55 54t61 59.5t58 56t46 43q6 6 13.5 10t10.5 6h-286q0 33 2 52t13 27t38 8h461q0 -1 -0.5 -15.5t-5.5 -36t-17.5 -45.5t-37.5 -45l-226 -226zM234 521l115 113l67 -40l-121 -73h-61z" />
    <glyph glyph-name="zacute" unicode="&#x17a;" horiz-adv-x="465" 
d="M208 79h240l1 -32q2 -27 -10 -37t-41 -10h-380v73l219 247h-209v37q0 20 10.5 31t26.5 11h375q4 -17 -4.5 -38.5t-22.5 -42.5t-28 -37zM193 460l136 129l68 -39l-143 -90h-61z" />
    <glyph glyph-name="Zdotaccent" unicode="&#x17b;" horiz-adv-x="566" 
d="M241 87h311q0 -31 -1.5 -48.5t-8 -26t-21 -10.5t-40.5 -2h-467v88l17 17t40 39.5t55 54t61 59.5t58 56t46 43q6 6 13.5 10t10.5 6h-286q0 33 2 52t13 27t38 8h461q0 -1 -0.5 -15.5t-5.5 -36t-17.5 -45.5t-37.5 -45l-226 -226zM284 519q-24 0 -39.5 5.5t-15.5 31.5
q0 25 16.5 31t40.5 6q23 0 37 -6.5t14 -30.5q0 -26 -14.5 -31.5t-38.5 -5.5z" />
    <glyph glyph-name="zdotaccent" unicode="&#x17c;" horiz-adv-x="465" 
d="M208 79h240l1 -32q2 -27 -10 -37t-41 -10h-380v73l219 247h-209v37q0 20 10.5 31t26.5 11h375q4 -17 -4.5 -38.5t-22.5 -42.5t-28 -37zM235 458q-24 0 -39.5 5.5t-15.5 31.5q0 25 16.5 31t40.5 6q23 0 37 -6.5t14 -30.5q0 -26 -14.5 -31.5t-38.5 -5.5z" />
    <glyph glyph-name="Zcaron" unicode="&#x17d;" horiz-adv-x="566" 
d="M157 634h60l65 -53l63 53h64l-106 -113h-42zM241 87h311q0 -31 -1.5 -48.5t-8 -26t-21 -10.5t-40.5 -2h-467v88l17 17t40 39.5t55 54t61 59.5t58 56t46 43q6 6 13.5 10t10.5 6h-286q0 33 2 52t13 27t38 8h461q0 -1 -0.5 -15.5t-5.5 -36t-17.5 -45.5t-37.5 -45l-226 -226z
" />
    <glyph glyph-name="zcaron" unicode="&#x17e;" horiz-adv-x="465" 
d="M107 593h61l65 -69l63 69h65l-107 -133h-41zM208 79h240l1 -32q2 -27 -10 -37t-41 -10h-380v73l219 247h-209v37q0 20 10.5 31t26.5 11h375q4 -17 -4.5 -38.5t-22.5 -42.5t-28 -37z" />
    <glyph glyph-name="longs" unicode="&#x17f;" horiz-adv-x="410" 
d="M74 274h-36v78h36v35q1 53 20.5 85t77.5 33q49 1 95 -1.5t80 -6t46 -6.5v-77q-4 3 -25.5 6.5t-46.5 6t-44 2.5q-20 0 -31.5 -6t-16 -18.5t-5.5 -33.5v-400q0 -39 -12 -64.5t-31.5 -40t-43.5 -21.5t-48.5 -9t-45.5 -2q-42 0 -63 7.5t-27.5 21t-6.5 30.5q10 -1 20.5 -2
t23.5 -1q47 0 65.5 23.5t18.5 86.5v274z" />
    <glyph glyph-name="uni018F" unicode="&#x18f;" horiz-adv-x="606" 
d="M302 465q81 0 133 -9.5t82 -33.5t42 -68t12 -114q0 -89 -24.5 -142.5t-87.5 -77.5t-176 -24q-87 0 -139 18.5t-75 57.5t-23 99q0 37 5.5 56t22.5 26t51 7h315q0 -24 -11 -40.5t-41 -16.5h-164q-8 0 -16 -5.5t-8 -19.5q0 -46 19.5 -70t71.5 -24q43 0 66.5 13.5t32 46.5
t8.5 93q0 55 -10.5 83t-39 37.5t-83.5 9.5q-16 0 -41 -0.5t-53 -1.5t-54.5 -3t-45 -3.5t-24.5 -2.5v21q0 16 5.5 34.5t20.5 27.5q21 17 77 21.5t152 4.5z" />
    <glyph glyph-name="florin" unicode="&#x192;" horiz-adv-x="396" 
d="M-54 -145q-2 1 -4.5 9t-3.5 17.5t0 11.5q4 -2 14.5 -2.5t15.5 -0.5q13 0 30 3t32.5 11t26 25t10.5 45v64v52.5v50.5v58.5v75.5h-18.5h-19.5v13v25v25.5v13.5h19.5h18.5v30v30q0 21 8 37.5t29.5 29.5t60.5 19.5t102 6.5q17 0 37 -1t39 -2.5t31 -2.5l12 -1v-43v-18.5v-6.5
l-13 1t-31 2.5t-35.5 2.5t-28.5 1q-27 0 -40 -4t-17.5 -13.5t-4.5 -25.5v-20.5v-21.5h60h59v-13.5v-25.5v-25v-13h-59h-60v-126v-99.5v-91.5q0 -37 -19.5 -61.5t-48 -38t-59 -19t-52.5 -5.5q-38 0 -56.5 4.5t-24.5 10t-10 6.5z" />
    <glyph glyph-name="Ohorn" unicode="&#x1a0;" horiz-adv-x="656" 
d="M327 -7q-80 0 -136 11t-91.5 37.5t-52 72.5t-16.5 116q0 72 17 117.5t53.5 72t93 37.5t135.5 11t135 -11t91.5 -37.5t52 -72.5t16.5 -117t-17 -117t-53 -72.5t-92.5 -37t-135.5 -10.5zM328 78q33 0 57.5 6.5t40 23.5t23 46.5t7.5 75.5q0 47 -7.5 76.5t-23 46t-40 23
t-57.5 6.5q-34 0 -58.5 -6.5t-39.5 -23t-23 -46t-8 -76.5q0 -46 8 -75.5t23 -46.5t39.5 -23.5t58.5 -6.5zM453 410l-2 50h21q15 0 24 6.5t13 17t4 23.5v21h75v-20q0 -53 -34 -76t-101 -22z" />
    <glyph glyph-name="ohorn" unicode="&#x1a1;" horiz-adv-x="530" 
d="M266 -6q-57 0 -101 8t-73.5 30t-44.5 62.5t-15 104.5t15 104.5t44.5 62.5t73.5 30t101 8q58 0 101 -8t72 -30t44 -62.5t15 -104.5t-15 -105t-44.5 -62.5t-72.5 -29.5t-100 -8zM266 67q28 0 45.5 10.5t26.5 39t9 82.5t-9 82.5t-26.5 39t-45.5 10.5q-26 0 -45 -10.5
t-28.5 -39t-9.5 -82.5t9.5 -82.5t28.5 -39t45 -10.5zM348 349l-2 50h21q15 0 24 6.5t13 17t4 23.5v21h75v-20q0 -53 -34 -76t-101 -22z" />
    <glyph glyph-name="Uhorn" unicode="&#x1af;" horiz-adv-x="644" 
d="M596 228q0 -59 -6.5 -102.5t-32.5 -72t-82 -42t-155 -13.5q-81 0 -132.5 9t-80 27t-41.5 44t-15.5 61t-2.5 78v169q0 31 2 47t15 21.5t44 5.5h103v-275q0 -42 11 -63t35 -27.5t62 -6.5q61 0 86 21t25 75v276h102q32 0 45 -5.5t15.5 -21.5t2.5 -47v-158zM517 410l-2 50h21
q15 0 24 6.5t13 17t4 23.5v21h75v-20q0 -53 -34 -76t-101 -22z" />
    <glyph glyph-name="uhorn" unicode="&#x1b0;" horiz-adv-x="523" 
d="M187 399v-259q0 -36 17.5 -50.5t56.5 -14.5q41 0 58 15.5t17 48.5v260h13t27.5 0.5t29 0.5h16.5q23 0 37 -2.5t20 -12.5t6 -35v-194q0 -60 -18 -95.5t-67 -51t-142 -15.5q-86 0 -134 12.5t-67 45.5t-19 93v205q0 29 10 39.5t43 10.5q24 0 48 -0.5t48 -0.5zM409 349l-2 50
h21q15 0 24 6.5t13 17t4 23.5v21h75v-20q0 -53 -34 -76t-101 -22z" />
    <glyph glyph-name="uni01C5" unicode="&#x1c5;" horiz-adv-x="1119" 
d="M762 593h60l66 -69l63 69h64l-107 -133h-41zM624 228q0 -73 -16.5 -118.5t-51 -69.5t-87.5 -32.5t-127 -8.5h-86t-77 0.5t-67.5 0.5h-58.5v394q0 35 14 50t52 16q26 0 56.5 0.5t62 0.5h63h58.5q71 -1 121 -10.5t82 -34t47 -70t15 -118.5zM217 83h23.5t29 -0.5t30.5 -0.5
h26q35 0 60 6t40 22t22 45t7 73q0 63 -12.5 95t-41 43.5t-79.5 11.5h-30.5t-36.5 -0.5t-31 -1.5q-3 -5 -5 -12t-2 -20v-261zM863 79h239l2 -32q1 -27 -11 -37t-40 -10h-380v73l218 247h-209v37q0 20 11 31t26 11h375q5 -17 -3.5 -38.5t-23 -42.5t-28.5 -37z" />
    <glyph glyph-name="uni01C6" unicode="&#x1c6;" horiz-adv-x="988" 
d="M631 593h60l66 -69l63 69h64l-106 -133h-42zM32 200q0 81 24 125.5t68.5 61t104.5 16.5q20 0 42.5 -2t44 -5.5t38 -9t25.5 -12.5l-36 -14v145h148l-1 -304q0 -68 -12 -108.5t-39.5 -61t-74 -27t-114.5 -6.5q-63 0 -105 8t-66.5 30t-35.5 61t-11 103zM257 75q27 0 44 5
t26 17t12.5 33t3.5 54l-1 133q-6 0 -16.5 0.5t-22 1t-22.5 0.5q-38 0 -59.5 -9.5t-30.5 -35t-9 -76.5q0 -52 7.5 -78t24.5 -35.5t43 -9.5zM732 79h240l1 -32q1 -27 -10.5 -37t-40.5 -10h-380v73l218 247h-209v37q0 20 11 31t26 11h376q4 -17 -4.5 -38.5t-23 -42.5t-28.5 -37
z" />
    <glyph glyph-name="uni01C7" unicode="&#x1c7;" horiz-adv-x="880" 
d="M222 460v-374h295v-86h-459v406q0 18 2.5 30t13.5 18t38 6h110zM827 149v-38t-3 -33q-5 -30 -23.5 -47t-44 -24t-53.5 -9q-29 -1 -51.5 -0.5t-45.5 2.5t-53 5v95q11 -4 33.5 -9t36.5 -5q22 0 30.5 12t8.5 32v330h111q28 0 39.5 -7t13 -20.5t1.5 -33.5v-250z" />
    <glyph glyph-name="uni01C9" unicode="&#x1c9;" horiz-adv-x="511" 
d="M176 -4q-70 0 -101 23.5t-31 83.5v348q0 22 4 34t16 16t35 4h97q-1 -3 -2.5 -22t-1.5 -42v-321q0 -36 9 -50.5t34 -14.5q9 0 19.5 2t12.5 3v-55q-7 -1 -26 -5t-65 -4zM327 -99q-38 0 -66 4t-36 5v55q7 -2 22.5 -3.5t24.5 -1.5q34 0 41 17t7 57v312q0 22 4 33t15 15.5
t34 4.5h96l1 -379q0 -42 -11 -68.5t-42 -38.5t-90 -12zM397 447q-35 0 -50 9t-15 33t15.5 33.5t51.5 9.5q34 -1 48.5 -10t13.5 -33q0 -24 -13.5 -33t-50.5 -9z" />
    <glyph glyph-name="uni01CA" unicode="&#x1ca;" horiz-adv-x="1025" 
d="M58 0v404q0 35 10 45.5t47 10.5h155l218 -294l6 -23v317h120q-2 -2 -2.5 -12.5t-0.5 -23v-22.5v-353q0 -33 -14 -41t-52 -8h-141l-223 300l-5 25v-325h-118zM972 149v-38t-3 -33q-5 -30 -23.5 -47t-44 -24t-53.5 -9q-29 -1 -51.5 -0.5t-45.5 2.5t-53 5v95q11 -4 33.5 -9
t36.5 -5q22 0 30.5 12t8.5 32v330h111q28 0 39.5 -7t13 -20.5t1.5 -33.5v-250z" />
    <glyph glyph-name="uni01CC" unicode="&#x1cc;" horiz-adv-x="766" 
d="M83 0q-38 0 -38 39v336q30 10 90 18.5t132 8.5q77 0 121.5 -8.5t66 -29t28 -54.5t6.5 -85v-169q0 -22 -3 -34.5t-15.5 -17.5t-38.5 -5l-91 1v260q0 33 -20 47t-54 14q-12 0 -26 -2.5t-26.5 -6t-20.5 -9.5v-303h-111zM582 -99q-38 0 -66 4t-36 5v55q7 -2 22.5 -3.5
t24.5 -1.5q34 0 41 17t7 57v312q0 22 4 33t15 15.5t34 4.5h96l1 -379q0 -42 -11 -68.5t-42 -38.5t-90 -12zM652 447q-35 0 -50 9t-15 33t15.5 33.5t51.5 9.5q34 -1 48.5 -10t13.5 -33q0 -24 -13.5 -33t-50.5 -9z" />
    <glyph glyph-name="Gcaron" unicode="&#x1e6;" horiz-adv-x="647" 
d="M202 634h60l66 -53l62 53h65l-107 -113h-41zM326 -5q-79 0 -135 9.5t-91.5 35t-52 71t-16.5 117.5q0 78 21.5 125.5t61 71.5t94.5 32t121 8q73 0 129 -2.5t83 -8.5q28 -5 40 -15.5t15.5 -23.5t3.5 -26v-39q-6 8 -29 13t-53.5 8.5t-62.5 5.5t-58.5 2.5t-40.5 0.5
q-58 0 -92 -11.5t-49.5 -44t-15.5 -96.5q0 -60 14.5 -91.5t44.5 -43.5t78 -12q47 0 73.5 7.5t37.5 26.5t12 50v15.5v10.5h-170q0 33 4 51.5t19.5 26.5t50.5 8h255l-1 -110q0 -47 -11.5 -80t-43 -53t-89 -29.5t-147.5 -9.5z" />
    <glyph glyph-name="gcaron" unicode="&#x1e7;" horiz-adv-x="532" 
d="M148 593h60l65 -69l64 69h64l-107 -133h-41zM241 -120q-42 0 -75.5 2t-56.5 8.5t-35.5 18t-12.5 30.5v16v14q10 -5 36.5 -10.5t58.5 -9t57 -3.5q58 0 87 15.5t38 50t4 88.5l17 -2q-11 -30 -28.5 -47t-47.5 -24.5t-76 -7.5q-63 0 -101.5 15.5t-56 54.5t-17.5 111
q0 62 12.5 101.5t41.5 61.5t77.5 30t121.5 8q22 0 54 -1.5t64.5 -4t57.5 -4.5t33 -3q-1 -3 -1.5 -14t-0.5 -25.5v-29.5v-239q0 -81 -26.5 -124t-81.5 -59.5t-143 -16.5zM258 102q22 0 41.5 6.5t31.5 24.5t13 51v134q-8 1 -31 2.5t-49 1.5q-31 0 -48.5 -8.5t-25 -32.5
t-7.5 -70q0 -44 8 -68t24.5 -32.5t42.5 -8.5z" />
    <glyph glyph-name="uni01EA" unicode="&#x1ea;" horiz-adv-x="656" 
d="M327 -7q-80 0 -136 11t-91.5 37.5t-52 72.5t-16.5 116q0 72 17 117.5t53.5 72t93 37.5t135.5 11t135 -11t91.5 -37.5t52 -72.5t16.5 -117t-17 -117t-53 -72.5t-92.5 -37t-135.5 -10.5zM328 78q33 0 57.5 6.5t40 23.5t23 46.5t7.5 75.5q0 47 -7.5 76.5t-23 46t-40 23
t-57.5 6.5q-34 0 -58.5 -6.5t-39.5 -23t-23 -46t-8 -76.5q0 -46 8 -75.5t23 -46.5t39.5 -23.5t58.5 -6.5zM340 -184q-39 0 -60 9t-29 27t-8 43q0 23 10 41.5t24.5 33.5t30.5 25t28 15h68q-8 -3 -23.5 -12.5t-32 -23t-28 -29t-11.5 -30.5q0 -29 16.5 -36t41.5 -7
q20 0 28.5 0.5t11.5 1t5 0.5q0 -20 -4.5 -33t-20 -19t-47.5 -6z" />
    <glyph glyph-name="uni01EB" unicode="&#x1eb;" horiz-adv-x="530" 
d="M266 -6q-57 0 -101 8t-73.5 30t-44.5 62.5t-15 104.5t15 104.5t44.5 62.5t73.5 30t101 8q58 0 101 -8t72 -30t44 -62.5t15 -104.5t-15 -105t-44.5 -62.5t-72.5 -29.5t-100 -8zM266 67q28 0 45.5 10.5t26.5 39t9 82.5t-9 82.5t-26.5 39t-45.5 10.5q-26 0 -45 -10.5
t-28.5 -39t-9.5 -82.5t9.5 -82.5t28.5 -39t45 -10.5zM286 -184q-39 0 -60 9t-29 27t-8 43q0 23 10 41.5t24.5 33.5t30.5 25t28 15h68q-8 -3 -23.5 -12.5t-32 -23t-28 -29t-11.5 -30.5q0 -29 16.5 -36t41.5 -7q20 0 28.5 0.5t11.5 1t5 0.5q0 -20 -4.5 -33t-20 -19t-47.5 -6z
" />
    <glyph glyph-name="Aringacute" unicode="&#x1fa;" horiz-adv-x="609" 
d="M3 0l159 382q16 39 46 60.5t94 21.5q53 0 86 -20t50 -62l160 -382h-178l-43 103h-208l-40 -103h-126zM195 166h152l-54 140q-3 8 -7 14.5t-14 6.5q-11 0 -15.5 -6.5t-7.5 -14.5zM300 522q-30 0 -52 4.5t-33.5 18.5t-11.5 41q0 26 11.5 39t34 17t53.5 4q32 0 54 -4t34 -17
t12 -39q0 -27 -12 -41t-34.5 -18.5t-55.5 -4.5zM302 562q21 0 31.5 4.5t10.5 17.5q0 14 -10.5 18.5t-31.5 4.5t-31.5 -4.5t-10.5 -18.5q0 -13 10 -17.5t32 -4.5zM251 679l115 113l67 -40l-121 -73h-61z" />
    <glyph glyph-name="aringacute" unicode="&#x1fb;" horiz-adv-x="534" 
d="M253 -5q-70 0 -113 4.5t-66.5 17.5t-31.5 37t-8 62q0 51 10 77.5t35 36.5t67 10q25 0 57.5 -0.5t64 -1.5t55 -3.5t32.5 -4.5q0 31 -5.5 49t-17.5 27.5t-32 12.5t-49 3q-35 0 -69.5 -1t-67 -4t-59.5 -7v28q0 27 12 40t33 17q23 5 68.5 7t98.5 2q67 0 112.5 -7t71.5 -25
t37 -53.5t11 -94.5v-199q-16 -15 -79.5 -22.5t-166.5 -7.5zM252 57q28 0 47.5 1.5t33.5 4.5t22 7v112q-11 3 -30.5 5t-39.5 3t-31 1q-24 0 -39 -4t-21.5 -18t-6.5 -43q0 -25 5 -40.5t19 -22t41 -6.5zM263 454q-46 0 -71.5 16t-25.5 58t25.5 56t73.5 14q47 0 73.5 -14
t26.5 -56t-26.5 -58t-75.5 -16zM265 494q20 0 31 6t11 28q0 19 -11 25t-31 6q-19 0 -30.5 -6t-11.5 -25q0 -22 11 -28t31 -6zM224 628l136 129l68 -39l-143 -90h-61z" />
    <glyph glyph-name="AEacute" unicode="&#x1fc;" horiz-adv-x="888" 
d="M24 0q37 49 66.5 88t55 73t52 69.5t58 76.5t71.5 93q23 29 46.5 41.5t48 15.5t48.5 3h399v-45.5v-45.5h-330v-90h298v-91h-148.5h-149.5v-97h330v-91h-244h-244v95h-176q-17 -24 -34 -47.5t-34 -47.5h-113zM260 161h60.5h60.5v81v81l-5.5 -5.5t-4.5 -5.5q-7 0 -11.5 -5.5
t-9.5 -12.5q-22 -33 -44.5 -66t-45.5 -67zM533 521l136 129l68 -39l-143 -90h-61z" />
    <glyph glyph-name="aeacute" unicode="&#x1fd;" horiz-adv-x="865" 
d="M253 -5q-70 0 -113 4.5t-66.5 17.5t-31.5 37t-8 62q0 51 10 77.5t35 36.5t67 10q25 0 57.5 -0.5t64 -1.5t55 -3.5t32.5 -4.5q0 31 -5.5 49t-17.5 27.5t-32 12.5t-49 3q-35 0 -69.5 -1t-67 -4t-59.5 -7v28q0 27 12 40t33 17q23 5 68.5 7t98.5 2q67 0 112.5 -7t71.5 -25
t37 -53.5t11 -94.5v-199q-16 -15 -79.5 -22.5t-166.5 -7.5zM252 57q28 0 47.5 1.5t33.5 4.5t22 7v112q-11 3 -30.5 5t-39.5 3t-31 1q-24 0 -39 -4t-21.5 -18t-6.5 -43q0 -25 5 -40.5t19 -22t41 -6.5zM590 -6q-70 0 -115 8.5t-71 29.5t-37 59t-11 99q0 78 22 124t76.5 67
t151.5 21q76 0 121 -16t65 -50t20 -87v-77h-278q0 21 9.5 35.5t35.5 14.5h100l-1 21q0 41 -16.5 61.5t-61.5 20.5q-37 0 -57.5 -11.5t-28 -40t-7.5 -81.5q0 -48 9.5 -72t34.5 -32.5t71 -8.5q17 0 46 1t59.5 2.5t54 3t29.5 3.5v-18q0 -14 -4.5 -29.5t-17.5 -25.5
q-18 -14 -66.5 -18t-132.5 -4zM392 460l136 129l68 -39l-143 -90h-61z" />
    <glyph glyph-name="Oslashacute" unicode="&#x1fe;" horiz-adv-x="647" 
d="M27 230q0 83 24.5 131t67 71t97.5 29.5t115 6.5q61 0 113 -7.5t92 -30.5t62.5 -71t22.5 -129q0 -83 -24.5 -131t-67 -70.5t-97.5 -29t-115 -6.5q-62 0 -115 7t-92 30.5t-61 71.5t-22 128zM458 229q0 51 -9 81t-26.5 46t-42.5 21t-56 5q-32 0 -57.5 -5t-42.5 -21
t-26.5 -46t-9.5 -81q0 -50 9.5 -81t26.5 -46.5t42.5 -20.5t57.5 -5q31 0 56 5t42.5 20.5t26.5 46.5t9 81zM173 -85l234 610h46l-236 -610h-44zM275 521l115 113l67 -40l-121 -73h-61z" />
    <glyph glyph-name="oslashacute" unicode="&#x1ff;" horiz-adv-x="530" 
d="M126 -58l229 521h51l-229 -521h-51zM266 -6q-57 0 -101 8t-73.5 30t-44.5 62.5t-15 104.5t15 104.5t44.5 62.5t73.5 30t101 8q58 0 101 -8t72 -30t44 -62.5t15 -104.5t-15 -105t-44.5 -62.5t-72.5 -29.5t-100 -8zM266 67q28 0 45.5 10.5t26.5 39t9 82.5t-9 82.5t-26.5 39
t-45.5 10.5q-26 0 -45 -10.5t-28.5 -39t-9.5 -82.5t9.5 -82.5t28.5 -39t45 -10.5zM225 460l136 129l68 -39l-143 -90h-61z" />
    <glyph glyph-name="uni0200" unicode="&#x200;" horiz-adv-x="609" 
d="M3 0l159 382q16 39 46 60.5t94 21.5q53 0 86 -20t50 -62l160 -382h-178l-43 103h-208l-40 -103h-126zM195 166h152l-54 140q-3 8 -7 14.5t-14 6.5q-11 0 -15.5 -6.5t-7.5 -14.5zM233 521l-121 90l78 39l104 -129h-61zM342 521l-96 114l78 38l73 -152h-55z" />
    <glyph glyph-name="uni0201" unicode="&#x201;" horiz-adv-x="534" 
d="M253 -5q-70 0 -113 4.5t-66.5 17.5t-31.5 37t-8 62q0 51 10 77.5t35 36.5t67 10q25 0 57.5 -0.5t64 -1.5t55 -3.5t32.5 -4.5q0 31 -5.5 49t-17.5 27.5t-32 12.5t-49 3q-35 0 -69.5 -1t-67 -4t-59.5 -7v28q0 27 12 40t33 17q23 5 68.5 7t98.5 2q67 0 112.5 -7t71.5 -25
t37 -53.5t11 -94.5v-199q-16 -15 -79.5 -22.5t-166.5 -7.5zM252 57q28 0 47.5 1.5t33.5 4.5t22 7v112q-11 3 -30.5 5t-39.5 3t-31 1q-24 0 -39 -4t-21.5 -18t-6.5 -43q0 -25 5 -40.5t19 -22t41 -6.5zM199 460l-121 90l78 39l104 -129h-61zM308 460l-96 114l78 38l73 -152
h-55z" />
    <glyph glyph-name="uni0202" unicode="&#x202;" horiz-adv-x="609" 
d="M3 0l159 382q16 39 46 60.5t94 21.5q53 0 86 -20t50 -62l160 -382h-178l-43 103h-208l-40 -103h-126zM195 166h152l-54 140q-3 8 -7 14.5t-14 6.5q-11 0 -15.5 -6.5t-7.5 -14.5zM180 520v7q0 46 13 69t40 30.5t68 7.5t67.5 -8t39 -30.5t12.5 -68.5v-7h-56v6q0 14 -4.5 26
t-18 19t-41.5 7q-27 0 -40 -7t-17.5 -18.5t-5.5 -26.5v-6h-57z" />
    <glyph glyph-name="uni0203" unicode="&#x203;" horiz-adv-x="534" 
d="M266 588q49 0 75 -11.5t35.5 -40t9.5 -79.5h-56q0 40 -11.5 57.5t-52.5 17.5q-36 0 -50 -17.5t-14 -57.5h-55q0 50 9.5 78.5t35.5 40.5t74 12zM253 -5q-70 0 -113 4.5t-66.5 17.5t-31.5 37t-8 62q0 51 10 77.5t35 36.5t67 10q25 0 57.5 -0.5t64 -1.5t55 -3.5t32.5 -4.5
q0 31 -5.5 49t-17.5 27.5t-32 12.5t-49 3q-35 0 -69.5 -1t-67 -4t-59.5 -7v28q0 27 12 40t33 17q23 5 68.5 7t98.5 2q67 0 112.5 -7t71.5 -25t37 -53.5t11 -94.5v-199q-16 -15 -79.5 -22.5t-166.5 -7.5zM252 57q28 0 47.5 1.5t33.5 4.5t22 7v112q-11 3 -30.5 5t-39.5 3
t-31 1q-24 0 -39 -4t-21.5 -18t-6.5 -43q0 -25 5 -40.5t19 -22t41 -6.5z" />
    <glyph glyph-name="uni0204" unicode="&#x204;" horiz-adv-x="605" 
d="M58 0v408q0 32 11 42t43 10h462v-86h-352v-96h320v-85h-320v-107h352v-86h-516zM247 521l-121 90l78 39l104 -129h-61zM356 521l-96 114l78 38l73 -152h-55z" />
    <glyph glyph-name="uni0205" unicode="&#x205;" horiz-adv-x="514" 
d="M266 -6q-70 0 -115 8.5t-71 29.5t-37 59t-11 99q0 78 22 124t76.5 67t151.5 21q76 0 121 -16t65 -50t20 -87v-77h-278q0 21 9.5 35.5t35.5 14.5h100l-1 21q0 41 -16.5 61.5t-61.5 20.5q-37 0 -57.5 -11.5t-28 -40t-7.5 -81.5q0 -48 9.5 -72t34.5 -32.5t71 -8.5q17 0 46 1
t59.5 2.5t54 3t29.5 3.5v-18q0 -14 -4.5 -29.5t-17.5 -25.5q-18 -14 -66.5 -18t-132.5 -4zM198 460l-121 90l78 39l104 -129h-61zM307 460l-96 114l78 38l73 -152h-55z" />
    <glyph glyph-name="uni0206" unicode="&#x206;" horiz-adv-x="605" 
d="M58 0v408q0 32 11 42t43 10h462v-86h-352v-96h320v-85h-320v-107h352v-86h-516zM194 520v7q0 46 13 69t40 30.5t68 7.5t67.5 -8t39 -30.5t12.5 -68.5v-7h-56v6q0 14 -4.5 26t-18 19t-41.5 7q-27 0 -40 -7t-17.5 -18.5t-5.5 -26.5v-6h-57z" />
    <glyph glyph-name="uni0207" unicode="&#x207;" horiz-adv-x="514" 
d="M265 588q49 0 74.5 -11.5t35.5 -40t10 -79.5h-56q0 40 -11.5 57.5t-52.5 17.5q-36 0 -50 -17.5t-14 -57.5h-56q0 50 9.5 78.5t36 40.5t74.5 12zM266 -6q-70 0 -115 8.5t-71 29.5t-37 59t-11 99q0 78 22 124t76.5 67t151.5 21q76 0 121 -16t65 -50t20 -87v-77h-278
q0 21 9.5 35.5t35.5 14.5h100l-1 21q0 41 -16.5 61.5t-61.5 20.5q-37 0 -57.5 -11.5t-28 -40t-7.5 -81.5q0 -48 9.5 -72t34.5 -32.5t71 -8.5q17 0 46 1t59.5 2.5t54 3t29.5 3.5v-18q0 -14 -4.5 -29.5t-17.5 -25.5q-18 -14 -66.5 -18t-132.5 -4z" />
    <glyph glyph-name="uni0208" unicode="&#x208;" horiz-adv-x="281" 
d="M58 0v204v204q0 17 2.5 28.5t14 17.5t37.5 6h110v-460h-164zM73 521l-121 90l78 39l104 -129h-61zM182 521l-96 114l78 38l73 -152h-55z" />
    <glyph glyph-name="uni0209" unicode="&#x209;" horiz-adv-x="271" 
d="M157 -4q-67 0 -92.5 26t-25.5 85l1 292h149v-286q0 -31 9.5 -44.5t31.5 -13.5q13 0 21.5 2t11.5 3v-55q-5 -1 -15.5 -3t-32 -4t-58.5 -2zM43 460l-121 90l78 39l104 -129h-61zM152 460l-96 114l78 38l73 -152h-55z" />
    <glyph glyph-name="uni020A" unicode="&#x20a;" horiz-adv-x="281" 
d="M58 0v204v204q0 17 2.5 28.5t14 17.5t37.5 6h110v-460h-164zM20 520v7q0 46 13 69t40 30.5t68 7.5t67.5 -8t39 -30.5t12.5 -68.5v-7h-56v6q0 14 -4.5 26t-18 19t-41.5 7q-27 0 -40 -7t-17.5 -18.5t-5.5 -26.5v-6h-57z" />
    <glyph glyph-name="uni020B" unicode="&#x20b;" horiz-adv-x="271" 
d="M110 588q49 0 74.5 -11.5t35 -40t9.5 -79.5h-55q0 40 -12 57.5t-52 17.5q-37 0 -51 -17.5t-14 -57.5h-55q0 50 9.5 78.5t35.5 40.5t75 12zM157 -4q-67 0 -92.5 26t-25.5 85l1 292h149v-286q0 -31 9.5 -44.5t31.5 -13.5q13 0 21.5 2t11.5 3v-55q-5 -1 -15.5 -3t-32 -4
t-58.5 -2z" />
    <glyph glyph-name="uni020C" unicode="&#x20c;" horiz-adv-x="656" 
d="M327 -7q-80 0 -136 11t-91.5 37.5t-52 72.5t-16.5 116q0 72 17 117.5t53.5 72t93 37.5t135.5 11t135 -11t91.5 -37.5t52 -72.5t16.5 -117t-17 -117t-53 -72.5t-92.5 -37t-135.5 -10.5zM328 78q33 0 57.5 6.5t40 23.5t23 46.5t7.5 75.5q0 47 -7.5 76.5t-23 46t-40 23
t-57.5 6.5q-34 0 -58.5 -6.5t-39.5 -23t-23 -46t-8 -76.5q0 -46 8 -75.5t23 -46.5t39.5 -23.5t58.5 -6.5zM261 521l-121 90l78 39l104 -129h-61zM370 521l-96 114l78 38l73 -152h-55z" />
    <glyph glyph-name="uni020D" unicode="&#x20d;" horiz-adv-x="530" 
d="M266 -6q-57 0 -101 8t-73.5 30t-44.5 62.5t-15 104.5t15 104.5t44.5 62.5t73.5 30t101 8q58 0 101 -8t72 -30t44 -62.5t15 -104.5t-15 -105t-44.5 -62.5t-72.5 -29.5t-100 -8zM266 67q28 0 45.5 10.5t26.5 39t9 82.5t-9 82.5t-26.5 39t-45.5 10.5q-26 0 -45 -10.5
t-28.5 -39t-9.5 -82.5t9.5 -82.5t28.5 -39t45 -10.5zM197 460l-121 90l78 39l104 -129h-61zM306 460l-96 114l78 38l73 -152h-55z" />
    <glyph glyph-name="uni020E" unicode="&#x20e;" horiz-adv-x="656" 
d="M327 -7q-80 0 -136 11t-91.5 37.5t-52 72.5t-16.5 116q0 72 17 117.5t53.5 72t93 37.5t135.5 11t135 -11t91.5 -37.5t52 -72.5t16.5 -117t-17 -117t-53 -72.5t-92.5 -37t-135.5 -10.5zM328 78q33 0 57.5 6.5t40 23.5t23 46.5t7.5 75.5q0 47 -7.5 76.5t-23 46t-40 23
t-57.5 6.5q-34 0 -58.5 -6.5t-39.5 -23t-23 -46t-8 -76.5q0 -46 8 -75.5t23 -46.5t39.5 -23.5t58.5 -6.5zM208 520v7q0 46 13 69t40 30.5t68 7.5t67.5 -8t39 -30.5t12.5 -68.5v-7h-56v6q0 14 -4.5 26t-18 19t-41.5 7q-27 0 -40 -7t-17.5 -18.5t-5.5 -26.5v-6h-57z" />
    <glyph glyph-name="uni020F" unicode="&#x20f;" horiz-adv-x="530" 
d="M264 588q49 0 74.5 -11.5t35 -40t9.5 -79.5h-56q0 40 -11.5 57.5t-51.5 17.5q-37 0 -51 -17.5t-14 -57.5h-55q0 50 9.5 78.5t35.5 40.5t75 12zM266 -6q-57 0 -101 8t-73.5 30t-44.5 62.5t-15 104.5t15 104.5t44.5 62.5t73.5 30t101 8q58 0 101 -8t72 -30t44 -62.5
t15 -104.5t-15 -105t-44.5 -62.5t-72.5 -29.5t-100 -8zM266 67q28 0 45.5 10.5t26.5 39t9 82.5t-9 82.5t-26.5 39t-45.5 10.5q-26 0 -45 -10.5t-28.5 -39t-9.5 -82.5t9.5 -82.5t28.5 -39t45 -10.5z" />
    <glyph glyph-name="uni0210" unicode="&#x210;" horiz-adv-x="654" 
d="M348 155h-19.5t-49.5 -0.5t-62 -0.5v-154h-164v399q0 29 13 45t53 16q15 0 45 0.5t69 0.5t80.5 0.5t79.5 0t66.5 -1t41.5 -1.5q54 -5 81 -32.5t27 -89.5q0 -56 -8.5 -81.5t-27.5 -39.5q-7 -5 -19 -8t-27 -3v-4h15.5t14.5 -1q38 -7 45.5 -29t7.5 -46v-88q0 -19 4 -27.5
t5 -9.5h-122q-26 0 -40.5 8t-14.5 34v66q0 31 -13.5 39t-47.5 8h-33zM217 233q11 0 33.5 -0.5t49.5 -0.5h49.5h32.5q24 0 42.5 15.5t18.5 58.5q0 30 -10.5 47t-34.5 19q-14 3 -37.5 3h-49t-46.5 -0.5t-31 -0.5q-2 0 -9.5 -3t-7.5 -15v-123zM268 521l-121 90l78 39l104 -129
h-61zM377 521l-96 114l78 38l73 -152h-55z" />
    <glyph glyph-name="uni0211" unicode="&#x211;" horiz-adv-x="463" 
d="M195 0h-108q-22 0 -32 11t-10 44v324q28 7 81.5 15t120.5 8q70 0 110.5 -8t59.5 -24.5t24.5 -42t5.5 -61.5h-143v14q0 24 -8.5 35t-20.5 14t-25 3q-20 0 -34.5 -4t-20.5 -12v-316zM176 460l-121 90l78 39l104 -129h-61zM285 460l-96 114l78 38l73 -152h-55z" />
    <glyph glyph-name="uni0212" unicode="&#x212;" horiz-adv-x="654" 
d="M348 155h-19.5t-49.5 -0.5t-62 -0.5v-154h-164v399q0 29 13 45t53 16q15 0 45 0.5t69 0.5t80.5 0.5t79.5 0t66.5 -1t41.5 -1.5q54 -5 81 -32.5t27 -89.5q0 -56 -8.5 -81.5t-27.5 -39.5q-7 -5 -19 -8t-27 -3v-4h15.5t14.5 -1q38 -7 45.5 -29t7.5 -46v-88q0 -19 4 -27.5
t5 -9.5h-122q-26 0 -40.5 8t-14.5 34v66q0 31 -13.5 39t-47.5 8h-33zM217 233q11 0 33.5 -0.5t49.5 -0.5h49.5h32.5q24 0 42.5 15.5t18.5 58.5q0 30 -10.5 47t-34.5 19q-14 3 -37.5 3h-49t-46.5 -0.5t-31 -0.5q-2 0 -9.5 -3t-7.5 -15v-123zM215 520v7q0 46 13 69t40 30.5
t68 7.5t67.5 -8t39 -30.5t12.5 -68.5v-7h-56v6q0 14 -4.5 26t-18 19t-41.5 7q-27 0 -40 -7t-17.5 -18.5t-5.5 -26.5v-6h-57z" />
    <glyph glyph-name="uni0213" unicode="&#x213;" horiz-adv-x="463" 
d="M243 588q49 0 74.5 -11.5t35 -40t9.5 -79.5h-55q0 40 -11.5 57.5t-52.5 17.5q-37 0 -50.5 -17.5t-13.5 -57.5h-56q0 50 9.5 78.5t35.5 40.5t75 12zM195 0h-108q-22 0 -32 11t-10 44v324q28 7 81.5 15t120.5 8q70 0 110.5 -8t59.5 -24.5t24.5 -42t5.5 -61.5h-143v14
q0 24 -8.5 35t-20.5 14t-25 3q-20 0 -34.5 -4t-20.5 -12v-316z" />
    <glyph glyph-name="uni0214" unicode="&#x214;" horiz-adv-x="644" 
d="M596 228q0 -59 -6.5 -102.5t-32.5 -72t-82 -42t-155 -13.5q-81 0 -132.5 9t-80 27t-41.5 44t-15.5 61t-2.5 78v169q0 31 2 47t15 21.5t44 5.5h103v-275q0 -42 11 -63t35 -27.5t62 -6.5q61 0 86 21t25 75v276h102q32 0 45 -5.5t15.5 -21.5t2.5 -47v-158zM255 521l-121 90
l78 39l104 -129h-61zM364 521l-96 114l78 38l73 -152h-55z" />
    <glyph glyph-name="uni0215" unicode="&#x215;" horiz-adv-x="523" 
d="M187 399v-259q0 -36 17.5 -50.5t56.5 -14.5q41 0 58 15.5t17 48.5v260h13t27.5 0.5t29 0.5h16.5q23 0 37 -2.5t20 -12.5t6 -35v-194q0 -60 -18 -95.5t-67 -51t-142 -15.5q-86 0 -134 12.5t-67 45.5t-19 93v205q0 29 10 39.5t43 10.5q24 0 48 -0.5t48 -0.5zM195 460
l-121 90l78 39l104 -129h-61zM304 460l-96 114l78 38l73 -152h-55z" />
    <glyph glyph-name="uni0216" unicode="&#x216;" horiz-adv-x="644" 
d="M596 228q0 -59 -6.5 -102.5t-32.5 -72t-82 -42t-155 -13.5q-81 0 -132.5 9t-80 27t-41.5 44t-15.5 61t-2.5 78v169q0 31 2 47t15 21.5t44 5.5h103v-275q0 -42 11 -63t35 -27.5t62 -6.5q61 0 86 21t25 75v276h102q32 0 45 -5.5t15.5 -21.5t2.5 -47v-158zM201 520v7
q0 46 13 69t40 30.5t68 7.5t67.5 -8t39 -30.5t12.5 -68.5v-7h-56v6q0 14 -4.5 26t-18 19t-41.5 7q-27 0 -40 -7t-17.5 -18.5t-5.5 -26.5v-6h-57z" />
    <glyph glyph-name="uni0217" unicode="&#x217;" horiz-adv-x="523" 
d="M262 588q49 0 74.5 -11.5t35 -40t9.5 -79.5h-55q0 40 -11.5 57.5t-52.5 17.5q-37 0 -50.5 -17.5t-13.5 -57.5h-56q0 50 9.5 78.5t36 40.5t74.5 12zM187 399v-259q0 -36 17.5 -50.5t56.5 -14.5q41 0 58 15.5t17 48.5v260h13t27.5 0.5t29 0.5h16.5q23 0 37 -2.5t20 -12.5
t6 -35v-194q0 -60 -18 -95.5t-67 -51t-142 -15.5q-86 0 -134 12.5t-67 45.5t-19 93v205q0 29 10 39.5t43 10.5q24 0 48 -0.5t48 -0.5z" />
    <glyph glyph-name="uni0218" unicode="&#x218;" horiz-adv-x="614" 
d="M39 109q25 -11 64 -16.5t81 -6.5t74 -1h30.5t30.5 1q27 0 46 5.5t28.5 17.5t9.5 34q0 26 -15 34.5t-46 8.5h-25.5h-36.5h-57q-32 0 -64.5 3t-58.5 14.5t-41.5 37t-15.5 70.5q0 54 18.5 84.5t52 45.5t80 19t102.5 4q34 0 73.5 -1t74 -3t53.5 -7q34 -2 52.5 -18t18.5 -40
v-13.5v-18.5v-10q-8 7 -29.5 11.5t-50 6.5t-56 3t-48.5 1h-90q-27 0 -45.5 -4.5t-27.5 -15.5t-9 -31q0 -16 6 -25.5t19 -13.5t34 -4h98h48q48 0 84 -8t56 -36t20 -86q0 -55 -22 -87.5t-60.5 -47.5t-89.5 -18q-48 -3 -91 -3h-91q-40 1 -73.5 3.5t-58.5 9t-38.5 18t-13.5 30.5
v53zM244 -255q11 21 18.5 36t15 29.5t15.5 32.5q-3 0 -7 0.5t-8 0.5q-13 2 -24 11t-11 34q0 32 19 40t52 8q14 0 26 -3t20 -13.5t8 -31.5q0 -23 -9 -49.5t-23 -51t-29 -43.5h-63z" />
    <glyph glyph-name="uni0219" unicode="&#x219;" horiz-adv-x="517" 
d="M230 -4q-24 0 -51 1t-53.5 4t-48.5 9q-18 4 -29.5 10.5t-17 25t-5.5 58.5q31 -11 64 -17.5t64.5 -9t58.5 -2.5q19 0 41.5 0.5t43.5 5t35 15t14 29.5q0 23 -12 30t-32 7h-114q-46 0 -81.5 5t-56 27.5t-20.5 76.5q0 59 29.5 87.5t84.5 37.5t132 9q28 0 65.5 -1t65.5 -5
q31 -3 48.5 -9.5t25.5 -20t8 -41.5v-28q-6 10 -30.5 15.5t-59 7.5t-72 2h-69.5q-22 0 -40.5 -2.5t-29.5 -12t-11 -30.5q0 -16 7 -23.5t19 -9.5t27 -2h127q42 0 74 -7.5t49 -32t17 -76.5q0 -60 -34 -88t-94 -36.5t-139 -8.5zM197 -255q11 21 18.5 36t15 29.5t15.5 32.5
q-3 0 -7 0.5t-8 0.5q-13 2 -24 11t-11 34q0 32 19 40t52 8q14 0 26 -3t20 -13.5t8 -31.5q0 -23 -9 -49.5t-23 -51t-29 -43.5h-63z" />
    <glyph glyph-name="uni021A" unicode="&#x21a;" horiz-adv-x="588" 
d="M18 460h552v-87h-193v-319q0 -32 -10 -43t-45 -11h-110v373h-194v87zM230 -255q11 21 18.5 36t15 29.5t15.5 32.5q-3 0 -7 0.5t-8 0.5q-13 2 -24 11t-11 34q0 32 19 40t52 8q14 0 26 -3t20 -13.5t8 -31.5q0 -23 -9 -49.5t-23 -51t-29 -43.5h-63z" />
    <glyph glyph-name="uni021B" unicode="&#x21b;" horiz-adv-x="330" 
d="M203 -4q-54 0 -84.5 11.5t-42.5 38t-12 73.5v202h-43v78h43v51q0 25 3.5 37t14.5 15t35 3h96v-10v-15v-81h97v-78h-96v-190q0 -40 7.5 -58t40.5 -18q9 0 23.5 2t20.5 4v-55q-7 -1 -34.5 -5.5t-68.5 -4.5zM113 -255q11 21 18.5 36t15 29.5t15.5 32.5q-3 0 -7 0.5t-8 0.5
q-13 2 -24 11t-11 34q0 32 19 40t52 8q14 0 26 -3t20 -13.5t8 -31.5q0 -23 -9 -49.5t-23 -51t-29 -43.5h-63z" />
    <glyph glyph-name="uni022A" unicode="&#x22a;" horiz-adv-x="656" 
d="M327 -7q-80 0 -136 11t-91.5 37.5t-52 72.5t-16.5 116q0 72 17 117.5t53.5 72t93 37.5t135.5 11t135 -11t91.5 -37.5t52 -72.5t16.5 -117t-17 -117t-53 -72.5t-92.5 -37t-135.5 -10.5zM328 78q33 0 57.5 6.5t40 23.5t23 46.5t7.5 75.5q0 47 -7.5 76.5t-23 46t-40 23
t-57.5 6.5q-34 0 -58.5 -6.5t-39.5 -23t-23 -46t-8 -76.5q0 -46 8 -75.5t23 -46.5t39.5 -23.5t58.5 -6.5zM420 520q-24 0 -39.5 6.5t-15.5 34.5q0 26 16.5 32t40.5 6q22 0 37 -7t15 -31q0 -28 -14.5 -34.5t-39.5 -6.5zM237 520q-24 0 -39.5 6.5t-15.5 34.5q0 26 16.5 32
t40.5 6q23 0 37 -7t14 -31q0 -27 -14.5 -34t-38.5 -7zM188 655v58h280v-58h-280z" />
    <glyph glyph-name="uni022B" unicode="&#x22b;" horiz-adv-x="530" 
d="M266 -6q-57 0 -101 8t-73.5 30t-44.5 62.5t-15 104.5t15 104.5t44.5 62.5t73.5 30t101 8q58 0 101 -8t72 -30t44 -62.5t15 -104.5t-15 -105t-44.5 -62.5t-72.5 -29.5t-100 -8zM266 67q28 0 45.5 10.5t26.5 39t9 82.5t-9 82.5t-26.5 39t-45.5 10.5q-26 0 -45 -10.5
t-28.5 -39t-9.5 -82.5t9.5 -82.5t28.5 -39t45 -10.5zM355 459q-24 0 -39.5 6.5t-15.5 34.5q0 26 16.5 32t40.5 6q22 0 37 -7t15 -31q0 -28 -14.5 -34.5t-39.5 -6.5zM172 459q-24 0 -39.5 6.5t-15.5 34.5q0 26 16.5 32t40.5 6q23 0 37 -7t14 -31q0 -27 -14.5 -34t-38.5 -7z
M125 594v60h277v-60h-277z" />
    <glyph glyph-name="uni022C" unicode="&#x22c;" horiz-adv-x="656" 
d="M327 -7q-80 0 -136 11t-91.5 37.5t-52 72.5t-16.5 116q0 72 17 117.5t53.5 72t93 37.5t135.5 11t135 -11t91.5 -37.5t52 -72.5t16.5 -117t-17 -117t-53 -72.5t-92.5 -37t-135.5 -10.5zM328 78q33 0 57.5 6.5t40 23.5t23 46.5t7.5 75.5q0 47 -7.5 76.5t-23 46t-40 23
t-57.5 6.5q-34 0 -58.5 -6.5t-39.5 -23t-23 -46t-8 -76.5q0 -46 8 -75.5t23 -46.5t39.5 -23.5t58.5 -6.5zM385 522q-20 -1 -38 9.5t-36 21.5t-38 9q-19 0 -30.5 -11.5t-15.5 -17.5l-27 23q0 1 5 11.5t14.5 23.5t23 23.5t30.5 10.5q20 1 38.5 -9.5t36.5 -21t36 -10.5
q22 0 34 12.5t17 21.5l27 -22l-5.5 -11.5t-15 -26t-23.5 -25.5t-33 -11zM188 661v58h280v-58h-280z" />
    <glyph glyph-name="uni022D" unicode="&#x22d;" horiz-adv-x="530" 
d="M266 -6q-57 0 -101 8t-73.5 30t-44.5 62.5t-15 104.5t15 104.5t44.5 62.5t73.5 30t101 8q58 0 101 -8t72 -30t44 -62.5t15 -104.5t-15 -105t-44.5 -62.5t-72.5 -29.5t-100 -8zM266 67q28 0 45.5 10.5t26.5 39t9 82.5t-9 82.5t-26.5 39t-45.5 10.5q-26 0 -45 -10.5
t-28.5 -39t-9.5 -82.5t9.5 -82.5t28.5 -39t45 -10.5zM321 460q-20 0 -38.5 10.5t-36.5 21.5t-38 9q-19 0 -30 -12t-15 -18l-27 23q1 1 5.5 11.5t13.5 24t22.5 23.5t31.5 10q20 2 38 -9t36 -21.5t36 -10.5q22 0 34.5 13t17.5 22l27 -21q0 -1 -5.5 -12.5t-15 -26t-24 -26
t-32.5 -11.5zM125 602v60h277v-60h-277z" />
    <glyph glyph-name="uni0230" unicode="&#x230;" horiz-adv-x="656" 
d="M327 -7q-80 0 -136 11t-91.5 37.5t-52 72.5t-16.5 116q0 72 17 117.5t53.5 72t93 37.5t135.5 11t135 -11t91.5 -37.5t52 -72.5t16.5 -117t-17 -117t-53 -72.5t-92.5 -37t-135.5 -10.5zM328 78q33 0 57.5 6.5t40 23.5t23 46.5t7.5 75.5q0 47 -7.5 76.5t-23 46t-40 23
t-57.5 6.5q-34 0 -58.5 -6.5t-39.5 -23t-23 -46t-8 -76.5q0 -46 8 -75.5t23 -46.5t39.5 -23.5t58.5 -6.5zM329 519q-24 0 -39.5 5.5t-15.5 31.5q0 25 16.5 31t40.5 6q23 0 37 -6.5t14 -30.5q0 -26 -14.5 -31.5t-38.5 -5.5zM188 656v58h280v-58h-280z" />
    <glyph glyph-name="uni0231" unicode="&#x231;" horiz-adv-x="530" 
d="M266 -6q-57 0 -101 8t-73.5 30t-44.5 62.5t-15 104.5t15 104.5t44.5 62.5t73.5 30t101 8q58 0 101 -8t72 -30t44 -62.5t15 -104.5t-15 -105t-44.5 -62.5t-72.5 -29.5t-100 -8zM266 67q28 0 45.5 10.5t26.5 39t9 82.5t-9 82.5t-26.5 39t-45.5 10.5q-26 0 -45 -10.5
t-28.5 -39t-9.5 -82.5t9.5 -82.5t28.5 -39t45 -10.5zM264 458q-24 0 -39.5 5.5t-15.5 31.5q0 25 16.5 31t40.5 6q23 0 37 -6.5t14 -30.5q0 -26 -14.5 -31.5t-38.5 -5.5zM125 570v60h277v-60h-277z" />
    <glyph glyph-name="uni0232" unicode="&#x232;" horiz-adv-x="593" 
d="M217 0v183l-196 252l-21 25h228l113 -167l108 167h148l-27 -28l-189 -249v-123q1 -25 -5.5 -38t-22 -17.5t-44.5 -4.5h-92zM205 521v58h280v-58h-280z" />
    <glyph glyph-name="uni0233" unicode="&#x233;" horiz-adv-x="514" 
d="M252 -111q-57 0 -106 5t-78.5 16.5t-29.5 29.5v43q16 -9 45 -15t62 -9.5t61 -3.5q48 0 75 10.5t38.5 33.5t11.5 59v39q-11 -20 -29.5 -31.5t-47 -16t-71.5 -4.5q-65 0 -97 20.5t-41.5 57.5t-9.5 86v138q0 15 2.5 27t13.5 18.5t35 6.5h101v-45v-35.5v-35.5v-45
q0 -57 7.5 -83t23.5 -33t40 -7q25 0 40 8t22.5 33t7.5 77v166h104q24 0 36.5 -7.5t12.5 -35.5v-289q0 -90 -53 -134t-176 -44zM119 460v60h277v-60h-277z" />
    <glyph glyph-name="uni0237" unicode="&#x237;" horiz-adv-x="298" 
d="M6 -36q7 -2 22.5 -3.5t24.5 -1.5q35 0 41.5 19t6.5 59v155v154q0 22 4 33t15 15.5t34 4.5h48h48v-52.5t0.5 -72t0.5 -81.5v-79v-64q0 -20 1 -41.5t-3.5 -40.5t-18 -34.5t-42.5 -24t-79 -8.5q-38 0 -66.5 4t-36.5 5v26.5v27.5z" />
    <glyph glyph-name="uni02B9" unicode="&#x2b9;" horiz-adv-x="128" 
d="M43 555h85l-62 -156h-66z" />
    <glyph glyph-name="uni02BA" unicode="&#x2ba;" horiz-adv-x="392" 
d="M42 546h85l-62 -147h-66zM186 546h85l-62 -147h-66z" />
    <glyph glyph-name="uni02BC" unicode="&#x2bc;" horiz-adv-x="128" 
d="M43 546h85l-62 -147h-66z" />
    <glyph glyph-name="circumflex" unicode="&#x2c6;" horiz-adv-x="284" 
d="M0 460l106 133h41l107 -133h-65l-63 69l-65 -69h-61z" />
    <glyph glyph-name="caron" unicode="&#x2c7;" horiz-adv-x="283" 
d="M0 593h61l65 -69l63 69h65l-107 -133h-41z" />
    <glyph glyph-name="breve" unicode="&#x2d8;" horiz-adv-x="260" 
d="M121 458q-49 0 -75 12t-35.5 40.5t-9.5 78.5h55q0 -41 14 -58t51 -17q40 0 51.5 18t11.5 57h56q0 -51 -9.5 -79.5t-35.5 -40t-74 -11.5z" />
    <glyph glyph-name="dotaccent" unicode="&#x2d9;" horiz-adv-x="143" 
d="M55 458q-24 0 -39.5 5.5t-15.5 31.5q0 25 16.5 31t40.5 6q23 0 37 -6.5t14 -30.5q0 -26 -14.5 -31.5t-38.5 -5.5z" />
    <glyph glyph-name="ring" unicode="&#x2da;" horiz-adv-x="249" 
d="M98 454q-46 0 -71.5 16t-25.5 58t25.5 56t73.5 14q47 0 73.5 -14t26.5 -56t-26.5 -58t-75.5 -16zM100 494q20 0 31 6t11 28q0 19 -11 25t-31 6q-19 0 -30.5 -6t-11.5 -25q0 -22 11 -28t31 -6z" />
    <glyph glyph-name="ogonek" unicode="&#x2db;" horiz-adv-x="211" 
d="M111 -190q-39 0 -60 9t-29 27t-8 43q0 23 10 41.5t24.5 33.5t30.5 25t28 15h68q-8 -3 -23.5 -12.5t-32 -23t-28 -29t-11.5 -30.5q0 -29 16.5 -36t41.5 -7q20 0 28.5 0.5t11.5 1t5 0.5q0 -20 -4.5 -33t-20 -19t-47.5 -6z" />
    <glyph glyph-name="tilde" unicode="&#x2dc;" horiz-adv-x="298" 
d="M185 460q-20 0 -38.5 10.5t-36.5 21.5t-38 9q-19 0 -30 -12t-15 -18l-27 23q1 1 5.5 11.5t13.5 24t22.5 23.5t31.5 10q20 2 38 -9t36 -21.5t36 -10.5q22 0 34.5 13t17.5 22l27 -21q0 -1 -5.5 -12.5t-15 -26t-24 -26t-32.5 -11.5z" />
    <glyph glyph-name="hungarumlaut" unicode="&#x2dd;" horiz-adv-x="293" 
d="M134 460l42 126l85 -1l-64 -125h-63zM0 460l42 126l85 -1l-64 -125h-63z" />
    <glyph glyph-name="gravecomb" unicode="&#x300;" 
d="M143 460l-142 90l67 39l137 -129h-62z" />
    <glyph glyph-name="acutecomb" unicode="&#x301;" 
d="M1 460l136 129l68 -39l-143 -90h-61z" />
    <glyph glyph-name="uni0302" unicode="&#x302;" 
d="M0 460l106 133h41l107 -133h-65l-63 69l-65 -69h-61z" />
    <glyph glyph-name="tildecomb" unicode="&#x303;" 
d="M185 460q-20 0 -38.5 10.5t-36.5 21.5t-38 9q-19 0 -30 -12t-15 -18l-27 23q1 1 5.5 11.5t13.5 24t22.5 23.5t31.5 10q20 2 38 -9t36 -21.5t36 -10.5q22 0 34.5 13t17.5 22l27 -21q0 -1 -5.5 -12.5t-15 -26t-24 -26t-32.5 -11.5z" />
    <glyph glyph-name="uni0304" unicode="&#x304;" 
d="M1 460v60h277v-60h-277z" />
    <glyph glyph-name="uni0306" unicode="&#x306;" 
d="M121 458q-49 0 -75 12t-35.5 40.5t-9.5 78.5h55q0 -41 14 -58t51 -17q40 0 51.5 18t11.5 57h56q0 -51 -9.5 -79.5t-35.5 -40t-74 -11.5z" />
    <glyph glyph-name="uni0307" unicode="&#x307;" 
d="M55 458q-24 0 -39.5 5.5t-15.5 31.5q0 25 16.5 31t40.5 6q23 0 37 -6.5t14 -30.5q0 -26 -14.5 -31.5t-38.5 -5.5z" />
    <glyph glyph-name="uni0308" unicode="&#x308;" 
d="M238 459q-24 0 -39.5 6.5t-15.5 34.5q0 26 16.5 32t40.5 6q22 0 37 -7t15 -31q0 -28 -14.5 -34.5t-39.5 -6.5zM55 459q-24 0 -39.5 6.5t-15.5 34.5q0 26 16.5 32t40.5 6q23 0 37 -7t14 -31q0 -27 -14.5 -34t-38.5 -7z" />
    <glyph glyph-name="hookabovecomb" unicode="&#x309;" 
d="M51 458v13q0 13 9.5 19t18 12t8.5 18v9q0 14 -3.5 19.5t-15.5 5.5q-10 0 -14 -6t-5 -16l-50 8q5 56 74 56q40 0 60.5 -13.5t20.5 -49.5v-3q0 -22 -10.5 -32t-21 -16t-10.5 -17v-7h-61z" />
    <glyph glyph-name="uni030A" unicode="&#x30a;" 
d="M98 454q-46 0 -71.5 16t-25.5 58t25.5 56t73.5 14q47 0 73.5 -14t26.5 -56t-26.5 -58t-75.5 -16zM100 494q20 0 31 6t11 28q0 19 -11 25t-31 6q-19 0 -30.5 -6t-11.5 -25q0 -22 11 -28t31 -6z" />
    <glyph glyph-name="uni030B" unicode="&#x30b;" 
d="M134 460l42 126l85 -1l-64 -125h-63zM0 460l42 126l85 -1l-64 -125h-63z" />
    <glyph glyph-name="uni030C" unicode="&#x30c;" 
d="M0 593h61l65 -69l63 69h65l-107 -133h-41z" />
    <glyph glyph-name="uni030F" unicode="&#x30f;" 
d="M121 460l-121 90l78 39l104 -129h-61zM230 460l-96 114l78 38l73 -152h-55z" />
    <glyph glyph-name="uni0311" unicode="&#x311;" 
d="M121 589q48 0 74 -11.5t35.5 -40t9.5 -79.5h-56q0 40 -11.5 57.5t-51.5 17.5q-37 0 -51 -17.5t-14 -57.5h-55q0 50 9.5 78.5t35.5 40.5t75 12z" />
    <glyph glyph-name="uni0312" unicode="&#x312;" 
d="M53 460q-12 0 -24.5 3.5t-20.5 14t-8 31.5q0 24 9 50t23 50.5t28 42.5h64q-11 -19 -19 -34.5t-14.5 -30t-15.5 -32.5q3 0 7 -0.5t7 -1.5q14 -2 24.5 -10.5t10.5 -34.5q0 -31 -18.5 -39.5t-52.5 -8.5z" />
    <glyph glyph-name="uni031B" unicode="&#x31b;" 
d="M2 349l-2 50h21q15 0 24 6.5t13 17t4 23.5v21h75v-20q0 -53 -34 -76t-101 -22z" />
    <glyph glyph-name="dotbelowcomb" unicode="&#x323;" 
d="M74 -160q-22 0 -38.5 3t-26 13t-9.5 32q0 33 22 41t54 8t51 -8.5t19 -40.5q0 -22 -9 -32t-25 -13t-38 -3z" />
    <glyph glyph-name="uni0324" unicode="&#x324;" 
d="M238 -102q-24 0 -39.5 6.5t-15.5 34.5q0 26 16.5 32t40.5 6q22 0 37 -7t15 -31q0 -28 -14.5 -34.5t-39.5 -6.5zM55 -102q-24 0 -39.5 6.5t-15.5 34.5q0 26 16.5 32t40.5 6q23 0 37 -7t14 -31q0 -27 -14.5 -34t-38.5 -7z" />
    <glyph glyph-name="uni0326" unicode="&#x326;" 
d="M2 -255q11 21 18.5 36t15 29.5t15.5 32.5q-3 0 -7 0.5t-8 0.5q-13 2 -24 11t-11 34q0 32 19 40t52 8q14 0 26 -3t20 -13.5t8 -31.5q0 -23 -9 -49.5t-23 -51t-29 -43.5h-63z" />
    <glyph glyph-name="uni0327" unicode="&#x327;" 
d="M59 -179q-35 0 -44.5 7t-9.5 29h15h35q27 0 37 4.5t10 16.5q0 16 -9.5 20t-37.5 4h-43q-1 0 -3.5 5t0 14.5t12.5 22.5q7 7 15 15.5t17.5 17t19 15t17.5 9.5h44l-54 -66q44 1 65.5 -2.5t28.5 -16t7 -39.5t-10 -39t-36 -14.5t-76 -2.5z" />
    <glyph glyph-name="uni0328" unicode="&#x328;" 
d="M111 -190q-39 0 -60 9t-29 27t-8 43q0 23 10 41.5t24.5 33.5t30.5 25t28 15h68q-8 -3 -23.5 -12.5t-32 -23t-28 -29t-11.5 -30.5q0 -29 16.5 -36t41.5 -7q20 0 28.5 0.5t11.5 1t5 0.5q0 -20 -4.5 -33t-20 -19t-47.5 -6z" />
    <glyph glyph-name="uni032E" unicode="&#x32e;" 
d="M121 -172q-49 0 -75 12t-35.5 40.5t-9.5 78.5h55q0 -41 14 -58t51 -17q40 0 51.5 18t11.5 57h56q0 -51 -9.5 -79.5t-35.5 -40t-74 -11.5z" />
    <glyph glyph-name="uni0331" unicode="&#x331;" 
d="M0 -100v60h277v-60h-277z" />
    <glyph glyph-name="uni0335" unicode="&#x335;" 
d="M0 471h276v-38h-276v38z" />
    <glyph glyph-name="pi" unicode="&#x3c0;" horiz-adv-x="570" 
d="M37 341h496v-28h-42q-16 0 -26.5 -8t-10.5 -26v-241q0 -12 -11.5 -20.5t-30.5 -13.5t-41 -7.5t-42 -2.5v319h-85v-275q0 -12 -12 -20.5t-31 -13.5t-41 -7.5t-43 -2.5q1 46 1.5 79.5t0.5 63.5t-0.5 63.5t-1.5 78.5q0 18 -11 26t-26 8h-43v28z" />
    <glyph glyph-name="tsaa" unicode="&#x13a0;" horiz-adv-x="466" 
d="M423 225q0 -88 -13.5 -135t-39.5 -66.5t-63.5 -23t-84.5 -3.5q-28 0 -69.5 1.5t-85.5 1.5v403q0 28 4 40.5t24 14.5q21 2 56 3t70.5 1.5t57.5 -1.5q31 -2 57.5 -8t46 -27.5t30 -69t10.5 -131.5zM272 423q-17 2 -42 2t-49.5 -1t-38.5 -4q-12 -1 -17.5 -6t-5.5 -19v-356
q29 -2 57.5 -3t51.5 -2q50 -2 82 10.5t47.5 53.5t15.5 126q0 65 -5 103.5t-17 58.5t-31 27.5t-48 9.5z" />
    <glyph glyph-name="tsae" unicode="&#x13a1;" horiz-adv-x="547" 
d="M328 185q-16 2 -44.5 3t-60 1t-59.5 -0.5t-45 -1.5v-187h-52v402q0 29 12.5 41.5t43.5 13.5q34 2 57 3t41.5 1t39 -1t50.5 -3q42 -3 64 -15.5t30.5 -41t8.5 -78.5q2 -87 -55 -103q31 -7 41 -27.5t10 -44.5v-86q0 -22 6.5 -25.5t15.5 -3.5q14 0 21.5 12.5t7.5 58.5h36v-45
q0 -46 -16.5 -55.5t-48.5 -9.5t-48 6t-21 24t-6 55v69q0 15 -7 25.5t-22 12.5zM119 234q36 -1 59.5 -1.5t47 -0.5t60.5 1q34 1 55.5 18t21.5 69q0 53 -14.5 72.5t-52.5 23.5q-26 2 -71.5 2t-105.5 -6v-178z" />
    <glyph glyph-name="tsai" unicode="&#x13a2;" horiz-adv-x="453" 
d="M32 460h391v-42q-1 1 -22.5 1.5t-51.5 0.5h-56.5h-38.5v-362q0 -27 -7 -42.5t-31 -15.5h-14v420l-170 -2v42z" />
    <glyph glyph-name="tsao" unicode="&#x13a3;" horiz-adv-x="572" 
d="M294 460h172v-39h-61v-70q40 -1 71.5 -13t50.5 -46.5t19 -106.5q0 -61 -7.5 -97t-23 -55t-38.5 -28q-18 -7 -40.5 -8t-37.5 0q-12 1 -27 5t-26 16.5t-11 35.5v26h28q-2 -18 8 -33.5t47 -15.5q23 0 39 12t25 44.5t9 94.5q0 49 -6.5 75.5t-21 37t-39.5 12.5t-61 2
q-49 0 -71 -11t-26 -49q17 -15 26 -42t9 -72q0 -64 -18.5 -93.5t-49.5 -37.5t-69 -8t-68.5 8t-48 37.5t-17.5 93.5t19 93.5t51 37.5t69 8q20 0 37 -2t32 -7v23q0 25 18.5 38.5t46.5 19.5t55 6v69h-64v39zM250 135q0 47 -11 69.5t-29.5 29.5t-43.5 7t-44.5 -6.5t-30.5 -29
t-11 -70.5t11 -70.5t30.5 -29.5t44.5 -7t43.5 7t29.5 30t11 70z" />
    <glyph glyph-name="tsau" unicode="&#x13a4;" horiz-adv-x="601" 
d="M211 -5q-67 0 -108 19t-59 70.5t-18 148.5q0 88 18 138t59 71t108 21q55 0 91.5 -12t58 -42.5t29.5 -87.5q11 -7 31.5 -18.5t43 -20t41.5 -8.5t28 16q15 26 3.5 42t-28.5 23l13 24l23 -11q41 -22 41 -55.5t-32 -68.5q-22 -24 -59.5 -17.5t-99.5 35.5q0 -9 0.5 -18
t0.5 -19q0 -88 -18 -138t-58.5 -71t-108.5 -21zM210 32q58 0 87 20.5t39 63.5t10 108q0 70 -10 114.5t-38.5 66t-85.5 21.5q-58 0 -87 -20.5t-39 -63t-10 -108.5q0 -70 10 -114.5t39 -65.5t86 -21z" />
    <glyph glyph-name="tsav" unicode="&#x13a5;" horiz-adv-x="183" 
d="M118 399v-399q-26 0 -37 5t-13 15t-2 26v353h52zM124 474q0 -19 -9 -22.5t-24 -3.5q-14 0 -23.5 3.5t-9.5 22.5q0 17 9 21.5t23 4.5t24 -4t10 -22z" />
    <glyph glyph-name="tsaga" unicode="&#x13a6;" horiz-adv-x="480" 
d="M26 258h85q-27 15 -41 37t-14 56q0 41 17 63.5t45.5 32.5t63 12.5t69.5 2.5q23 0 49.5 -2t51 -6.5t40 -12t15.5 -17.5v-33q-9 6 -35.5 14t-60 13.5t-64.5 5.5q-36 0 -68.5 -4t-52.5 -19t-20 -49q0 -32 28.5 -50.5t62.5 -29.5l43 -14h212v-39h-100q27 -12 45.5 -34
t18.5 -72q0 -48 -23.5 -72.5t-66 -33.5t-99.5 -11q-40 -1 -81 3.5t-60 9.5q-16 5 -24.5 17.5t-8.5 40.5q33 -15 79.5 -23.5t93.5 -8.5q18 0 41.5 2.5t46 10t37.5 23.5t15 44q0 24 -20.5 44.5t-47.5 29.5l-87 30h-185v39z" />
    <glyph glyph-name="tsaka" unicode="&#x13a7;" horiz-adv-x="607" 
d="M356 39q23 3 42.5 17t31.5 55.5t12 124.5q0 77 -12.5 117t-35.5 55t-53.5 16.5t-66.5 1.5q-50 0 -81.5 -11.5t-46 -27.5t-14.5 -30h-35v20q0 34 25.5 53t66 27t85.5 8q49 0 90 -4.5t71.5 -25t47 -66t16.5 -127.5q0 -79 -10 -126t-30 -72t-50 -37q-13 -5 -47 -7.5t-74 -3
t-72 0.5q-39 2 -69.5 13.5t-47.5 43t-17 92.5q0 62 18 95t52 45.5t80 12.5q77 0 102 -28.5t25 -81.5q0 -39 -19.5 -69.5t-52 -51t-71.5 -30.5h9q26 -1 62.5 -2t68.5 3zM134 149q0 -36 7 -57.5t20 -33.5q29 6 64 22t60 43.5t25 64.5q0 73 -78 73q-23 0 -45.5 -8t-37.5 -31.5
t-15 -72.5z" />
    <glyph glyph-name="tsage" unicode="&#x13a8;" horiz-adv-x="353" 
d="M105 460v-171l89 62q3 -13 14.5 -26t36.5 -13t45 19.5t32 39.5q11 -5 15 -16t-13 -34q-40 -52 -79 -52q-14 0 -34.5 7t-33.5 18l-72 -50v-186q0 -27 -7 -42.5t-31 -15.5h-14v460h52z" />
    <glyph glyph-name="tsagi" unicode="&#x13a9;" horiz-adv-x="411" 
d="M352 460h49l-94 -251q-30 -82 -51.5 -130.5t-41.5 -68.5t-45 -18q-47 4 -70.5 28t-8.5 68l9 23l26 -8q-7 -16 -4.5 -36t31.5 -28q16 -5 28.5 7t22.5 31t18 36l7.5 17.5t17 40t15.5 38.5l-24 -10q-16 -7 -30 8t-25 44l-81 209h56l79 -209q4 -11 15.5 -14.5t18.5 -3.5z" />
    <glyph glyph-name="tsago" unicode="&#x13aa;" horiz-adv-x="406" 
d="M103 118l-34 -118h-46l119 396q13 44 32.5 54t41.5 10h37l138 -460h-50l-35 118h-203zM115 159h178l-78 259q-25 -7 -33 -34z" />
    <glyph glyph-name="tsagu" unicode="&#x13ab;" horiz-adv-x="296" 
d="M97 105q0 -32 11.5 -49t39.5 -17q35 0 47.5 20t12.5 55v346h25q22 0 25 -9t3 -40v-280q0 -55 -9 -84t-34 -39t-73 -10q-37 0 -55 11.5t-23.5 35t-5.5 60.5h36z" />
    <glyph glyph-name="tsagv" unicode="&#x13ac;" horiz-adv-x="385" 
d="M341 460v-40h-221v-160h142v-39h-142v-182h221v-39h-273v415q0 19 8.5 32t30.5 13h234z" />
    <glyph glyph-name="tsaha" unicode="&#x13ad;" horiz-adv-x="557" 
d="M187 460h172v-39h-61v-121h239v-52l-200 -202l-24.5 -24.5t-25 -15.5t-40.5 -4q1 2 1.5 13t0.5 19v225h-66q-5 -48 -28 -60t-59 -12q-26 0 -46 6t-31 27t-11 65q0 41 12 60.5t33.5 25.5t47.5 6q35 0 57 -13.5t25 -63.5h66v121h-62v39zM479 259h-180v-186zM48 286
q0 -41 13 -52.5t34 -11.5q22 0 35 11.5t13 52.5q0 38 -12 49.5t-34 11.5q-20 0 -34.5 -11t-14.5 -50z" />
    <glyph glyph-name="tsahe" unicode="&#x13ae;" horiz-adv-x="353" 
d="M113 304v-67h48q59 0 87 19t28 80q0 51 -22.5 68t-78.5 17h-59q-5 0 -20 -0.5t-32.5 -1t-31 -1.5t-16.5 -1v10q0 23 24.5 28t89.5 5h65q46 0 76 -9t45.5 -36.5t15.5 -82.5q0 -63 -28.5 -91.5t-78 -35.5t-112.5 -7v-198q-26 0 -37 5t-13 15t-2 26v258h52z" />
    <glyph glyph-name="tsahi" unicode="&#x13af;" horiz-adv-x="477" 
d="M278 105q0 -32 11.5 -49t39.5 -17q34 0 47 22.5t14 74.5v83h-171v-43q0 -61 -6 -97t-19.5 -53.5t-34 -22.5t-50.5 -5q-40 0 -59.5 11.5t-25 35t-5.5 60.5h36q0 -32 11.5 -49t39.5 -17q35 0 47.5 21.5t12.5 77.5v103q0 83 7.5 132t37 70t94.5 21q50 0 78 -11.5t40.5 -36
t15 -63.5t2.5 -94v-89q0 -60 -6.5 -95t-19.5 -51.5t-33.5 -21t-49.5 -4.5q-40 0 -59.5 11.5t-25 35t-5.5 60.5h36zM219 258h171v24q0 62 -8.5 93t-27.5 41t-49 10q-47 0 -66.5 -28t-19.5 -101v-39z" />
    <glyph glyph-name="tsaho" unicode="&#x13b0;" horiz-adv-x="228" 
d="M91 460v-202h122v-39h-122v-219q-26 0 -37 5t-13 15t-2 26v414h52z" />
    <glyph glyph-name="tsahu" unicode="&#x13b1;" horiz-adv-x="322" 
d="M313 460v-40h-221v-420h-52v415q0 19 8.5 32t30.5 13h234z" />
    <glyph glyph-name="tsahv" unicode="&#x13b2;" horiz-adv-x="540" 
d="M372 208h153v-39h-49q4 -28 3.5 -57.5t-10 -55.5t-31 -42t-59.5 -16q-42 0 -74.5 20t-64.5 70q-31 -49 -63.5 -69.5t-73.5 -20.5q-35 0 -63 19.5t-28 60.5q0 26 11 53.5t27 49.5l35 -18q-10 -17 -20 -39t-10 -42q0 -19 15 -31t36 -12q45 0 106 99q-10 20 -21 43t-22 49
q-16 37 -27.5 77t-11.5 80q0 30 13 45.5t35 21.5q29 8 66.5 7t65.5 -9q42 -12 42 -65q0 -40 -11 -80t-28 -77q-12 -26 -22.5 -48.5t-20.5 -42.5q59 -100 106 -100q34 0 48 21.5t16 52t0 56.5h-68v39zM202 279q10 -25 19.5 -46.5t19.5 -41.5q10 20 19.5 42t19.5 46
q13 32 18 55t5 39q0 24 -13.5 38t-46.5 14q-64 0 -64 -52q0 -16 5 -39t18 -55z" />
    <glyph glyph-name="tsala" unicode="&#x13b3;" horiz-adv-x="510" 
d="M396 92l55 368h42l-65 -426q-4 -25 -14.5 -29.5t-26.5 -4.5h-17l-110 395l-99 -395h-12q-25 0 -41.5 3.5t-20.5 30.5l-65 426h47l62 -407l103 407h61z" />
    <glyph glyph-name="tsale" unicode="&#x13b4;" horiz-adv-x="500" 
d="M341 171q0 -59 -12 -94.5t-34 -53t-51 -23t-63 -5.5q-44 0 -77 13t-51 51.5t-18 114.5q0 59 12.5 94.5t34.5 53t51 23t62 5.5q23 0 43.5 -3t36.5 -11q-7 71 12 100.5t75 29.5q42 0 63.5 -11.5t31 -35t14.5 -60.5h-42q-5 32 -18.5 49t-42.5 17q-28 0 -39.5 -17
t-10.5 -44.5t7 -58.5q7 -31 11.5 -68.5t4.5 -65.5zM296 172q0 63 -13.5 94t-38 41t-56.5 10q-31 1 -55.5 -9t-38 -40.5t-13.5 -93.5q0 -62 13.5 -93t38 -41t56.5 -11q32 0 56 9.5t37.5 40.5t13.5 93z" />
    <glyph glyph-name="tsali" unicode="&#x13b5;" horiz-adv-x="363" 
d="M40 0v317q0 61 17 93t51 44t85 12q71 0 106.5 -24t35.5 -94q0 -29 -12 -49t-28.5 -32t-30.5 -17l-12 29l8.5 7.5t17 21.5t8.5 34q0 41 -18.5 62t-73.5 21q-45 0 -67 -13.5t-28.5 -39t-6.5 -60.5v-312h-52z" />
    <glyph glyph-name="tsalo" unicode="&#x13b6;" horiz-adv-x="461" 
d="M239 135v131h39v-44h33q62 0 88 -19t26 -72q0 -82 -46.5 -110.5t-139.5 -28.5q-73 0 -120.5 17t-70 67t-22.5 147q0 88 20.5 140.5t68.5 76.5t130 24q59 0 98 -11.5t58 -47t19 -108.5h-45q0 33 -6.5 63.5t-29.5 44.5q-20 13 -47.5 17t-58.5 4q-63 0 -97 -19.5t-47 -63.5
t-13 -118q0 -67 11.5 -106t33.5 -57.5t52 -23.5t66 -5t69 6.5t54 24.5t21 53q0 31 -11.5 50t-60.5 19h-33v-51h-39z" />
    <glyph glyph-name="tsalu" unicode="&#x13b7;" horiz-adv-x="528" 
d="M404 460h36q17 0 24 -7.5t7 -29.5v-382q0 -28 -8.5 -34.5t-27.5 -6.5h-15v407l-151 -407h-25l-159 408v-408h-39q2 2 2 8.5v13.5v401q0 22 7 29.5t23 7.5h37l8.5 -22t22.5 -58t31 -79.5t33 -86.5t29.5 -78.5t20.5 -55.5z" />
    <glyph glyph-name="tsalv" unicode="&#x13b8;" horiz-adv-x="385" 
d="M39 275h122l53 -78h68v115q0 35 -6.5 60.5t-28 39t-67.5 13.5q-55 0 -73.5 -21t-18.5 -62h-49q0 70 36 97t106 27q51 0 85 -12t51.5 -44t16.5 -93v-317h-52v158h-93l-51 78h-99v39z" />
    <glyph glyph-name="tsama" unicode="&#x13b9;" horiz-adv-x="577" 
d="M229 460h153v-39h-57v-46q12 -31 34.5 -38.5t51.5 3.5q41 16 66.5 18.5t41.5 -16.5q30 -33 27 -68t-44 -57l-23 -11l-13 24q17 7 28.5 23t-3.5 42q-8 15 -26.5 16t-39.5 -7q-28 -10 -53.5 -13.5t-41.5 9.5q-7 6 -14.5 14.5t-13.5 15.5q-14 -16 -25.5 -27t-21.5 -22
q35 -36 48 -84.5t13 -95.5q0 -42 -19.5 -67t-47.5 -33.5t-56.5 -0.5t-48 33t-19.5 67q0 35 19.5 81.5t52.5 90.5q-24 18 -51 18q-33 0 -48.5 -12.5t-20.5 -32t-5 -41.5h-45q0 15 1 33.5t9 34.5q14 28 43.5 41t61.5 14q46 2 83 -21q9 9 19 18.5t20 18.5q6 5 15 18.5t9 23.5
v36h-59v39zM267 101q0 43 -8 75.5t-34 66.5q-22 -31 -36 -66.5t-14 -75.5q0 -33 14 -49t32 -16t32 16.5t14 48.5z" />
    <glyph glyph-name="tsame" unicode="&#x13ba;" horiz-adv-x="540" 
d="M457 0v202h-62q-2 -79 -21 -124t-58.5 -64t-104.5 -19q-67 0 -108 19t-59 70.5t-18 148.5q0 88 18 138t59 71t108 21q66 0 106 -18t59 -66t20 -138h61v219h24q19 0 22 -8t3 -23v-429h-49zM210 32q58 0 87 20.5t39 63.5t10 108q0 70 -10 114.5t-38.5 66t-85.5 21.5
q-58 0 -87 -20.5t-39 -63t-10 -108.5q0 -70 10 -114.5t39 -65.5t86 -21z" />
    <glyph glyph-name="tsami" unicode="&#x13bb;" horiz-adv-x="445" 
d="M360 0v221h-275v-43.5t0.5 -67t0.5 -67v-43.5h-53v409q0 20 6.5 35.5t25.5 15.5h21v-40.5t-0.5 -59.5t-0.5 -59.5v-40.5h275v200h52v-410q0 -20 -6 -35t-25 -15h-21z" />
    <glyph glyph-name="tsamo" unicode="&#x13bc;" horiz-adv-x="353" 
d="M106 460h153v-39h-57v-67q57 -4 85 -24.5t37 -59t9 -99.5t-10.5 -97t-31 -53t-52 -22t-73.5 -5q-47 0 -80 4.5t-50 25.5t-17 69q0 44 17 63.5t78 19.5v-34q-32 0 -42 -12t-10 -36q0 -33 12.5 -46t35.5 -15.5t56 -2.5q35 0 61 8t40.5 38t14.5 97q0 65 -9.5 95.5t-36 39.5
t-77.5 9q-22 0 -47.5 -5.5t-34.5 -10.5l-8 38q7 5 35 11t57 6h4v65h-59v39z" />
    <glyph glyph-name="tsamu" unicode="&#x13bd;" horiz-adv-x="452" 
d="M21 178h143v-39h-55v-65q0 -23 9 -29.5t34 -6.5q12 0 23.5 9t20.5 31l54 131l-24 -10q-16 -7 -29.5 8t-26.5 44l-88 209h56l86 -209q5 -11 16.5 -14.5t18.5 -3.5l67 188h-45v39h153v-39h-59l-79 -212q-27 -74 -46.5 -120.5t-38.5 -69.5q-12 -16 -31.5 -19.5t-34.5 -3.5
q-39 0 -54 9t-17 29.5t-2 53.5v51h-51v39z" />
    <glyph glyph-name="tsana" unicode="&#x13be;" horiz-adv-x="420" 
d="M211 -5q-67 0 -108 19t-59 70.5t-18 148.5q0 88 18 138t59 71t108 21q68 0 108.5 -19t58.5 -70.5t18 -148.5q0 -88 -18 -138t-58.5 -71t-108.5 -21zM210 32q58 0 87 20.5t39 62.5t10 106h-270q1 -65 11.5 -107t39.5 -61.5t84 -19.5zM212 426q-54 0 -83 -18t-40 -54.5
t-13 -93.5h269q-3 86 -29.5 125.5t-103.5 40.5z" />
    <glyph glyph-name="tsahna" unicode="&#x13bf;" horiz-adv-x="394" 
d="M238 178h143v-39h-43v-121q0 -49 -18 -79.5t-66 -30.5q-14 0 -36.5 1.5t-28.5 2.5v38q5 -2 17.5 -3t18.5 -1q60 0 60 59v15q-2 -13 -25.5 -18t-53 -5h-52.5q-34 0 -48.5 20t-17.5 51.5t-3 66.5v227h-45v38h45q0 1 0.5 16.5t0.5 31v16.5q0 20 7.5 30.5t26.5 10.5h20
q-1 -2 -1.5 -11t-0.5 -17v-9v-68h103v-38h-103v-255q0 -40 10.5 -56.5t44.5 -16.5q17 0 38.5 2.5t37.5 9.5t16 19v74h-47v39z" />
    <glyph glyph-name="tsanah" unicode="&#x13c0;" horiz-adv-x="455" 
d="M239 -8q-73 0 -120.5 17t-70 67t-22.5 147q0 88 20.5 140.5t68.5 76.5t130 24q41 0 80 -8t65.5 -33.5t27.5 -76.5h-47q-3 19 -10.5 34.5t-21.5 24.5q-20 13 -47.5 17t-58.5 4q-63 0 -97 -19.5t-47 -63.5t-13 -118q0 -67 12.5 -107t35 -60t53 -26t66.5 -6q24 0 54 4
t54.5 13.5t31.5 23.5v119h-110v36h152v-158q0 -28 -28 -43.5t-71 -22t-87 -6.5z" />
    <glyph glyph-name="tsane" unicode="&#x13c1;" horiz-adv-x="512" 
d="M447 0l-131 374q-9 25 -18.5 38.5t-33.5 13.5q-29 0 -37 -27.5t-8 -98.5v-145q0 -71 -11 -104.5t-35 -43t-64 -9.5t-59.5 11.5t-25 35t-5.5 60.5h36q0 -32 11.5 -49t39.5 -17q35 0 47.5 21.5t12.5 77.5v162q0 54 3.5 90.5t23.5 55t70 18.5q35 0 54 -6t31.5 -25.5
t25.5 -58.5l130 -374h-57z" />
    <glyph glyph-name="tsani" unicode="&#x13c2;" horiz-adv-x="385" 
d="M99 0q-22 0 -37 4.5t-15 31.5v423h53v-195l33 7.5t76 7.5q51 0 79.5 -8.5t41.5 -27.5t16.5 -50.5t3.5 -78.5v-62q0 -28 -7.5 -40.5t-31.5 -12.5h-14v139q0 49 -13 70t-35 26t-50 5q-22 0 -45.5 -3.5t-39 -7.5l-15.5 -4v-224z" />
    <glyph glyph-name="tsano" unicode="&#x13c3;" horiz-adv-x="389" 
d="M83 37h26t68 0.5t92 0.5h98v-4q0 -11 -3.5 -22.5t-18.5 -11.5h-323v37l19 26t49 67t64 88.5t66 91.5t54.5 75.5t28.5 39.5h-258v7q0 9 3 18t20 9h298q-1 -23 -17 -50t-42 -62z" />
    <glyph glyph-name="tsanu" unicode="&#x13c4;" horiz-adv-x="439" 
d="M195 303h-143v39h43v22q0 41 21 67t66 29q14 1 38 1.5t47 0.5t32 -2q47 -7 62.5 -33.5t15.5 -82.5v-314q0 -17 -8 -23.5t-27 -6.5h-20q1 3 1.5 11.5t0.5 17v8.5v89q-12 0 -33 -0.5t-43.5 -0.5h-40.5t-25 1q-45 4 -66 29.5t-21 66.5v6h-43v39h143v-39h-47v-4q0 -27 14 -44
t58 -17h104v187q0 40 -16 56.5t-63 16.5q-42 0 -63 -7.5t-27.5 -21.5t-6.5 -32v-20h47v-39z" />
    <glyph glyph-name="tsanv" unicode="&#x13c5;" horiz-adv-x="708" 
d="M468 283q0 17 -7 19t-14.5 -1.5t-9.5 -4.5l-42 -27q0 -10 0.5 -21.5t0.5 -22.5q0 -88 -18 -138t-58.5 -71t-108.5 -21q-67 0 -108 19t-59 70.5t-18 148.5q0 88 18 138t59 71t108 21q58 0 95.5 -13.5t58.5 -48t27 -99.5l53 42q27 22 44 13.5t17 -25.5v-32q0 -28 8 -43.5
t43 -15.5q27 0 36.5 16t9.5 43v68h15q14 0 17 -10t3 -53q0 -51 -15 -72.5t-66 -21.5q-52 0 -70.5 13.5t-18.5 58.5zM210 32q58 0 87 20.5t39 63.5t10 108q0 70 -10 114.5t-38.5 66t-85.5 21.5q-58 0 -87 -20.5t-39 -63t-10 -108.5q0 -70 10 -114.5t39 -65.5t86 -21z" />
    <glyph glyph-name="tsaqua" unicode="&#x13c6;" horiz-adv-x="496" 
d="M254 33h38.5h56.5t51.5 0.5t22.5 1.5v-35h-391v35l170 -2v394l-170 -2v35h391v-35q-1 1 -22.5 1.5t-51.5 0.5h-56.5h-38.5v-394z" />
    <glyph glyph-name="tsaque" unicode="&#x13c7;" horiz-adv-x="578" 
d="M97 215l-3 -28t-3 -60q0 -47 21.5 -70.5t77.5 -23.5q33 0 47.5 13t17.5 39.5t3 67.5h44q0 -41 3.5 -67.5t17.5 -39.5t47 -13q23 0 44 5t37.5 23.5t26 59t9.5 112.5t-13.5 111t-36 55.5t-50.5 20t-58 3.5q-61 0 -94.5 -32t-38.5 -112h-41v21q0 76 48 119.5t127 43.5
q36 0 72.5 -4t66.5 -24t48 -66.5t18 -131.5q0 -60 -6.5 -106t-25.5 -77.5t-57 -47t-101 -12.5q-18 1 -41 7.5t-36 28.5q-15 -16 -38.5 -26t-54.5 -10q-61 0 -97 31t-36 98q-1 35 2 63.5l3 28.5h50z" />
    <glyph glyph-name="tsaqui" unicode="&#x13c8;" horiz-adv-x="518" 
d="M103 464q42 0 74.5 -20.5t64.5 -71.5q35 51 71 71.5t75 20.5q50 0 77 -23t27 -78q0 -66 -33 -88t-104 -22v34q38 0 64 15.5t26 57.5q2 28 -11 47.5t-45 19.5q-39 0 -68.5 -32.5t-51.5 -70.5q11 -19 21.5 -42.5t22.5 -49.5q17 -37 28 -77t11 -80q0 -27 -11 -46t-31 -25
q-28 -8 -65.5 -8.5t-66.5 6.5q-22 6 -35 24.5t-13 48.5q0 40 11.5 80t27.5 77q11 26 22 48.5t21 41.5q-61 101 -106 101q-21 0 -33.5 -11.5t-12.5 -31.5q0 -7 0.5 -19.5t0.5 -22.5h-45v57q0 44 26 56.5t61 12.5zM280 183q-10 24 -20 46t-20 41q-9 -19 -18.5 -41t-19.5 -46
q-13 -31 -18 -54.5t-5 -39.5q0 -52 64 -52q33 0 46.5 14t13.5 38q0 16 -5 39.5t-18 54.5z" />
    <glyph glyph-name="tsaquo" unicode="&#x13c9;" horiz-adv-x="642" 
d="M54 417v-31q0 -26 30 -26q21 0 30.5 14.5t14.5 37.5t10 48h44l48 -159l67 -224l76 259h-2q-35 0 -45 14t-10 49t10 48t44 13h86l-27 -90h14q14 0 22.5 4t8.5 12q0 20 11 31t57 12q47 1 63 -13.5t16 -60.5q0 -32 -10 -54.5t-53 -22.5v34q9 0 12.5 8.5t4 19t0.5 15.5
q0 25 -8 32t-25 7t-23.5 -5.5t-6.5 -22.5q0 -14 -12 -22t-46 -8h-35l-101 -336h-48l-119 399q-8 -39 -20.5 -57t-47.5 -18q-40 0 -53 13.5t-13 38.5v41h36zM356 399q0 -11 2 -20t14 -9h12l17 56h-30q-6 0 -10.5 -4t-4.5 -23z" />
    <glyph glyph-name="tsaquu" unicode="&#x13ca;" horiz-adv-x="649" 
d="M323 124q2 -47 19 -69t60 -22q23 0 44 5t37.5 23.5t26 59t9.5 112.5t-12.5 111.5t-33.5 56.5t-48 20.5t-57 3.5q-67 0 -101 -33t-39 -113h-41v21q0 76 48 119.5t127 43.5q36 0 72.5 -4t66.5 -24t48 -66.5t18 -131.5q0 -60 -6.5 -106t-25.5 -77.5t-57 -47t-101 -12.5
q-19 1 -44.5 9.5t-36.5 36.5q-15 -22 -40 -34t-60 -12q-75 0 -104 31t-29 98q-1 35 3.5 68.5t8.5 43.5h49q-4 -13 -8 -44.5t-4 -63.5q0 -47 16.5 -71.5t72.5 -24.5q50 0 64 30.5t14 91.5v6q0 44 23.5 64t63.5 20q79 0 79 -67v-23h-37q0 31 -6.5 44.5t-35.5 13.5
q-28 0 -35.5 -13.5t-7.5 -44.5v-29z" />
    <glyph glyph-name="tsaquv" unicode="&#x13cb;" horiz-adv-x="407" 
d="M194 33q53 0 79.5 5.5t36 18t9.5 33.5v52h42v-55q0 -38 -19.5 -58t-54 -27.5t-78.5 -7.5q-60 0 -96.5 10.5t-53 39.5t-16.5 86q0 44 21 72.5t48 30.5q-34 2 -47 32t-13 74q0 48 13 75t46 38t92 11q34 0 62 -3t59 -9q14 -3 16 -11t2 -22v-8q-25 9 -64.5 13t-77.5 4
q-30 0 -53 -6.5t-35.5 -26t-12.5 -58.5q0 -46 17 -64t66 -18h40v-40h-39q-34 0 -53.5 -5.5t-28 -24t-8.5 -57.5q0 -55 27 -73.5t74 -20.5z" />
    <glyph glyph-name="tsasa" unicode="&#x13cc;" horiz-adv-x="413" 
d="M364 464v-259q0 -55 -3.5 -94t-18 -63.5t-46 -36t-88.5 -11.5t-89 11.5t-47 37.5t-19 69t-4 105v241h53v-218h211v218h51zM208 38q43 0 65.5 10t31 41t8.5 93v24h-211v-39q0 -49 9 -77t32 -40t65 -12z" />
    <glyph glyph-name="tsas" unicode="&#x13cd;" horiz-adv-x="690" 
d="M30 135q0 64 19 93.5t51 37.5t69 8q35 0 62.5 -7t45.5 -30t22 -70h75v68h-49v39h142v-39h-46v-92q0 -49 12.5 -75.5t63.5 -26.5q31 0 51 15t30.5 56t10.5 119q0 62 -9.5 97.5t-31 52t-57 21t-88.5 4.5q-52 0 -80.5 -6.5t-40.5 -26t-14 -59.5q-6 0 -18 1t-17 1v48
q0 32 26 49.5t64.5 24.5t74.5 7q50 0 93.5 -4t76.5 -22.5t52 -61.5t19 -122q0 -40 -4 -81.5t-17.5 -77t-43 -57t-80.5 -21.5q-25 0 -53 7.5t-47.5 29.5t-19.5 64v26h-73q-1 -60 -20 -87t-49.5 -34.5t-67.5 -7.5q-38 0 -68.5 8t-48 37.5t-17.5 93.5zM250 135q0 47 -11 69.5
t-29.5 29.5t-43.5 7t-44.5 -6.5t-30.5 -29t-11 -70.5t11 -70.5t30.5 -29.5t44.5 -7t43.5 7t29.5 30t11 70z" />
    <glyph glyph-name="tsase" unicode="&#x13ce;" horiz-adv-x="371" 
d="M45 185l159 232q20 21 37 33.5t51 10.5q-1 -2 -1.5 -13t-0.5 -19v-226h48v-34h-48v-169h-51v169h-194v16zM113 203h125v187z" />
    <glyph glyph-name="tsasi" unicode="&#x13cf;" horiz-adv-x="370" 
d="M99 460v-193h95q47 0 78.5 -8t47.5 -39t16 -102q0 -59 -18 -83.5t-54.5 -29.5t-90.5 -5h-126v460h52zM162 36q47 0 72.5 4t36 21.5t10.5 56.5q0 55 -9 78t-28.5 27.5t-51.5 4.5h-93v-192h63z" />
    <glyph glyph-name="tsaso" unicode="&#x13d0;" horiz-adv-x="439" 
d="M254 291q16 0 33 7q41 16 66.5 18.5t41.5 -16.5q30 -33 27 -68t-44 -57l-23 -11l-13 24q17 7 28.5 23t-3.5 42q-8 15 -26.5 16t-39.5 -7q-13 -4 -24.5 -7.5t-22.5 -5.5v-249h-52v224q-4 -1 -7.5 -1.5t-6.5 -2.5q-40 -16 -65.5 -18.5t-42.5 16.5q-30 33 -27 68t44 57
l23 11l13 -24q-17 -7 -28.5 -23t3.5 -42q8 -15 26.5 -15.5t39.5 6.5q8 2 15 5t13 4v194h52v-168z" />
    <glyph glyph-name="tsasu" unicode="&#x13d1;" horiz-adv-x="477" 
d="M47 115q0 44 19 96.5t42 98.5q-68 19 -68 87q0 33 14 46t35.5 15t41.5 2q49 0 63 -16t7 -41t-21 -52l-4 -8q20 3 32.5 14t22.5 25.5t20 25.5q19 22 42.5 40t60.5 18q24 0 46 -4.5t36 -20t14 -48.5q0 -25 0.5 -37l0.5 -12l-40 -2l-0.5 13t-0.5 38q0 22 -18 27.5t-38 5.5
q-25 0 -41.5 -13.5t-31.5 -30.5q-14 -15 -27.5 -33.5t-33 -32t-52.5 -13.5h-14q-21 -41 -38 -88t-17 -97q0 -46 24.5 -64t64.5 -18q28 0 49 4t32.5 21.5t11.5 56.5q0 55 -9 78t-28.5 27.5t-51.5 4.5l2 39q47 0 78.5 -8t47.5 -39t16 -102q0 -59 -17.5 -83.5t-50.5 -29.5
t-80 -5q-46 0 -77.5 9t-47.5 33.5t-16 72.5zM80 397q0 -40 47 -50q22 42 23 59t-8.5 20t-21.5 3q-6 0 -15.5 -1t-17 -7.5t-7.5 -23.5z" />
    <glyph glyph-name="tsasv" unicode="&#x13d2;" horiz-adv-x="433" 
d="M216 277h53l17 -34q17 3 36 22t19 55q0 53 -19.5 72t-69.5 24q-9 1 -33.5 1.5t-52 -0.5t-47.5 -3v-414h-52v402q0 29 12.5 41.5t43.5 13.5q33 2 54 2.5t38.5 0t40.5 -1.5q58 -2 87 -15t39 -42t10 -79q0 -55 -27.5 -80t-65.5 -30l100 -212h-54z" />
    <glyph glyph-name="tsada" unicode="&#x13d3;" horiz-adv-x="294" 
d="M262 105q0 -37 -5.5 -60.5t-23 -35t-55.5 -11.5q-48 0 -73 10t-34 39t-9 84v280q0 31 3 40t25 9h25v-346q0 -35 13 -55t47 -20q29 0 40 17t11 49h36z" />
    <glyph glyph-name="tsata" unicode="&#x13d4;" horiz-adv-x="570" 
d="M282 324l44 136h51l-70 -212l57 -171l123 383h51l-151 -460h-53l-53 167l-55 -167h-53l-147 460h51l126 -383l53 166l-69 217h51z" />
    <glyph glyph-name="tsade" unicode="&#x13d5;" horiz-adv-x="529" 
d="M339 354q0 43 -22.5 56.5t-69.5 13.5q-36 0 -68.5 -4t-52.5 -19t-20 -49q0 -32 28.5 -50.5t62.5 -29.5l43 -14h230v-39h-118q27 -12 45.5 -34t18.5 -72q0 -48 -23.5 -72.5t-66 -33.5t-99.5 -11q-40 -1 -81 3.5t-60 9.5q-16 5 -24.5 17.5t-8.5 40.5q33 -15 79.5 -23.5
t93.5 -8.5q18 0 41.5 2.5t46 10t37.5 23.5t15 44q0 24 -20.5 44.5t-47.5 29.5l-144 50q-47 17 -72.5 42t-25.5 70q0 41 17 63.5t45.5 32.5t63 12.5t69.5 2.5q30 0 61 -5t52 -21.5t21 -50.5q0 -16 -3 -24h88v-39h-131v32z" />
    <glyph glyph-name="tsate" unicode="&#x13d6;" horiz-adv-x="414" 
d="M18 460h139v-310q0 -51 6 -75t19.5 -31.5t37.5 -7.5q47 0 72.5 4t36 21.5t10.5 56.5q0 55 -9 78t-28.5 27.5t-51.5 4.5h-62l-2 39h66q47 0 78.5 -8t47.5 -39t16 -102q0 -59 -18 -83.5t-54.5 -29.5t-90.5 -5q-47 0 -73 5.5t-37.5 22.5t-13.5 51.5t-2 93.5v248h-87v39z" />
    <glyph glyph-name="tsa_di" unicode="&#x13d7;" horiz-adv-x="501" 
d="M100 105v-19q0 -15 4 -32t29 -17h34q34 0 53.5 27.5t31.5 55.5l60 158v182h13q22 0 30.5 -9t8.5 -28v-423h-52v169q-9 -22 -16.5 -40t-11.5 -26q-12 -25 -26 -49.5t-35 -40.5t-55 -16h-35q-37 0 -52 15t-18 35.5t-3 38.5v19h40z" />
    <glyph glyph-name="tsati" unicode="&#x13d8;" horiz-adv-x="364" 
d="M70 105v-19q0 -15 4 -32t29 -17h34q34 0 53.5 27.5t31.5 55.5l60 158v142h-221v40h234q22 0 30.5 -13t8.5 -32v-415h-52v169q-9 -22 -16.5 -40t-11.5 -26q-12 -25 -26 -49.5t-35 -40.5t-55 -16h-35q-37 0 -52 15t-18 35.5t-3 38.5v19h40z" />
    <glyph glyph-name="tsado" unicode="&#x13d9;" horiz-adv-x="407" 
d="M222 77l138 383h49l-169 -460h-45l-164 460h50z" />
    <glyph glyph-name="tsadu" unicode="&#x13da;" horiz-adv-x="455" 
d="M226 35q18 0 41.5 2.5t46 10t37.5 23.5t15 44q0 24 -20.5 44.5t-47.5 29.5l-144 50q-47 17 -72.5 42t-25.5 70q0 41 17 63.5t45.5 32.5t63 12.5t69.5 2.5q23 0 49.5 -2t51 -6.5t40 -12t15.5 -17.5v-33q-9 6 -35.5 14t-60 13.5t-64.5 5.5q-36 0 -68.5 -4t-52.5 -19
t-20 -49q0 -32 28.5 -50.5t62.5 -29.5l115 -37q27 -11 51 -21.5t38.5 -32.5t14.5 -68q0 -48 -23.5 -72.5t-66 -33.5t-99.5 -11q-40 -1 -81 3.5t-60 9.5q-16 5 -24.5 17.5t-8.5 40.5q33 -15 79.5 -23.5t93.5 -8.5z" />
    <glyph glyph-name="tsadv" unicode="&#x13db;" horiz-adv-x="593" 
d="M314 316v36q-1 28 -14 46.5t-42 18.5q-25 0 -38 -3.5t-21 -13t-18 -28.5q11 -24 21.5 -50.5t22.5 -57.5q17 -43 28 -96t11 -93q0 -27 -11 -46t-31 -25q-28 -8 -65.5 -8.5t-66.5 6.5q-22 6 -35 24.5t-13 48.5q0 40 11.5 93t27.5 96q15 39 29.5 70t27.5 57q16 32 32.5 46.5
t37 18.5t49.5 4q67 0 92 -51q11 21 34 34t68 13q50 0 74 -16t33 -49q5 -18 6 -39.5t1 -35.5q-1 -11 -4.5 -25.5t-12 -25t-25.5 -10.5h-30v26q11 -1 20 9t9 44q0 32 -16 57t-57 25t-64.5 -22t-23.5 -78h-47zM192 207q-19 57 -39 102q-19 -45 -39 -102q-13 -37 -18 -69.5
t-5 -48.5q0 -52 64 -52q33 0 46.5 14t13.5 38q0 16 -5 48.5t-18 69.5z" />
    <glyph glyph-name="tsadla" unicode="&#x13dc;" horiz-adv-x="519" 
d="M310 283q10 -10 25.5 -23t32.5 -27q13 -12 32.5 -27t39.5 -32.5t33.5 -36.5t13.5 -39q0 -16 -1 -33t-9.5 -31t-28.5 -23t-59 -9t-59 9t-28.5 23t-9.5 31t-1 33q0 29 16.5 58t31.5 49q-21 18 -37 32.5t-27 25.5q-12 -12 -27.5 -25.5t-32.5 -27.5l-11 -9q14 -20 29.5 -47.5
t15.5 -55.5q0 -16 -1 -33t-9.5 -31t-28.5 -23t-59 -9t-59 9t-28.5 23t-9.5 31t-1 33q0 21 14.5 40t36.5 37t45 34t40 31q17 14 30.5 25t21.5 18q-2 2 -5 4.5t-5 5.5q-15 16 -33.5 41t-18.5 50q0 18 3 36t23.5 30t71.5 12q52 0 72 -12t23 -30t3 -36q0 -25 -19 -50t-33 -41z
M442 93q0 16 -13 31.5t-30 29t-30 24.5q-12 -16 -25 -38.5t-13 -41.5q0 -12 3 -26.5t16.5 -24.5t43.5 -10q24 0 34 9t12 22t2 25zM209 98q0 18 -12.5 40t-24.5 38q-25 -20 -49.5 -43t-24.5 -40q0 -12 2 -25t12 -22t34 -9q31 0 44 10t16 24.5t3 26.5zM276 297l9.5 9.5
l5.5 5.5q12 14 28 35t16 37q0 10 -2 20.5t-13.5 17.5t-42.5 7q-30 0 -42 -7t-14 -17.5t-2 -20.5q0 -17 15.5 -37.5t28.5 -34.5z" />
    <glyph glyph-name="tsatla" unicode="&#x13dd;" horiz-adv-x="335" 
d="M225 355q0 41 -17.5 54t-50.5 12t-49.5 -17.5t-16.5 -57.5v-306h213v-40h-238q-22 0 -25 9t-3 40v280q0 76 29.5 104.5t87.5 28.5q65 0 92.5 -25.5t27.5 -81.5h-50z" />
    <glyph glyph-name="tsatle" unicode="&#x13de;" horiz-adv-x="327" 
d="M96 459v-419h213v-40h-238q-22 0 -25 9t-3 40v410h53z" />
    <glyph glyph-name="tsatli" unicode="&#x13df;" horiz-adv-x="492" 
d="M442 460v-158h-42v30q0 20 -6 39.5t-29 33.5q-20 13 -47.5 17t-58.5 4q-63 0 -97 -19.5t-47 -63.5t-13 -118q0 -66 11 -110t45.5 -66t104.5 -22q27 0 64.5 6t70.5 20t48 38v-42q-20 -27 -71 -42t-110 -15q-73 0 -120.5 17t-70 67t-22.5 147q0 88 20.5 140.5t68.5 76.5
t130 24q94 0 129 -35v31h42z" />
    <glyph glyph-name="tsatlo" unicode="&#x13e0;" horiz-adv-x="497" 
d="M112 159q-29 0 -51 5.5t-34 24t-12 57.5q0 37 13.5 54t36.5 22.5t52 5.5q28 0 50 -5.5t35 -23t13 -53.5v-47h137v261h51v-259v-2h73v-40h-73q0 -57 -8 -93t-32.5 -53t-77.5 -17q-45 0 -69 11t-34 32.5t-11.5 51.5t-1.5 68h-57zM285 34q33 0 47 9t17 36t3 80h-137
q0 -47 3.5 -74.5t18 -39t48.5 -11.5zM58 251q0 -35 15 -43t40 -8q15 0 31 -0.5t25 -0.5v52q0 32 -14 40t-39 8q-24 0 -41 -8t-17 -40z" />
    <glyph glyph-name="tsatlu" unicode="&#x13e1;" horiz-adv-x="577" 
d="M14 344h62v51q0 44 26 56.5t61 12.5q42 0 74.5 -20.5t64.5 -71.5q35 51 71 71.5t75 20.5q50 0 77 -23t27 -78q0 -66 -33 -88t-104 -22v34q38 0 64 15.5t26 57.5q2 28 -11 47.5t-45 19.5q-39 0 -68.5 -32.5t-51.5 -70.5q11 -19 21.5 -42.5t22.5 -49.5q17 -37 28 -77
t11 -80q0 -27 -11 -46t-31 -25q-28 -8 -65.5 -8.5t-66.5 6.5q-22 6 -35 24.5t-13 48.5q0 40 11.5 80t27.5 77q11 26 22 48.5t21 41.5q-61 101 -106 101q-21 0 -33.5 -11.5t-12.5 -31.5q0 -7 0.5 -17t0.5 -19h64v-40h-171v40zM340 183q-10 24 -20 46t-20 41q-9 -19 -18.5 -41
t-19.5 -46q-13 -31 -18 -54.5t-5 -39.5q0 -52 64 -52q33 0 46.5 14t13.5 38q0 16 -5 39.5t-18 54.5z" />
    <glyph glyph-name="tsatlv" unicode="&#x13e2;" horiz-adv-x="423" 
d="M289 190q-23 -2 -54 -2.5t-62 0t-54 1.5v-189h-52v402q0 33 11.5 43t36.5 12q12 1 36.5 2t53 1t55 -0.5t43.5 -1.5q39 -2 57.5 -17.5t24.5 -44.5t6 -73q0 -64 -20.5 -95.5t-81.5 -37.5zM119 232h136q45 0 64.5 18.5t19.5 71.5t-10 72t-37 22q-24 2 -54 2t-57 -0.5
t-44.5 -1l-17.5 -0.5v-184z" />
    <glyph glyph-name="tsatsa" unicode="&#x13e3;" horiz-adv-x="477" 
d="M473 315h-139v35h58q-1 13 -6.5 29t-20.5 26q-20 13 -47.5 17t-58.5 4q-63 0 -97 -19.5t-47 -63.5t-13 -118q0 -66 11 -110t45.5 -66t104.5 -22q27 0 64.5 6t70.5 20t48 38v-42q-20 -27 -71 -42t-110 -15q-73 0 -120.5 17t-70 67t-22.5 147q0 88 20.5 140.5t68.5 76.5
t130 24q85 0 123 -26.5t41 -87.5h38v-35z" />
    <glyph glyph-name="tsatse" unicode="&#x13e4;" horiz-adv-x="420" 
d="M159 86l195 374h49l-244 -460h-53v425h-86v35h139v-374z" />
    <glyph glyph-name="tsatsi" unicode="&#x13e5;" horiz-adv-x="447" 
d="M354 320q-25 0 -51 -21q-7 -5 -15 -11.5t-23 -19.5q38 -10 56 -33t23.5 -62.5t5.5 -101.5v-21q0 -25 -3 -35.5t-11.5 -12.5t-26.5 -2h-12v115q0 51 -16.5 79.5t-56.5 38.5l-124 -105v-128h-53v462q0 43 34 43h21q-1 -3 -1.5 -17t-0.5 -27v-13v-268l181 155q20 16 38.5 24
t40.5 8q35 0 52.5 -15.5t17.5 -59.5v-43h-45v28q0 20 -6 31.5t-25 11.5z" />
    <glyph glyph-name="tsatso" unicode="&#x13e6;" horiz-adv-x="378" 
d="M111 247q11 7 26 24l142 168q20 23 39.5 24.5t36.5 -3.5l-194 -223l200 -237q-7 -4 -19 -4q-24 0 -38.5 6t-26.5 20t-31 36l-96 119q-10 11 -19 20t-20 9v-206h-52v409q0 20 5.5 35.5t28.5 15.5h18v-213z" />
    <glyph glyph-name="tsatsu" unicode="&#x13e7;" horiz-adv-x="358" 
d="M29 118q0 71 16 102t48 39t78 8h95v193h52v-287q0 -59 -2 -93.5t-13.5 -51.5t-37.5 -22.5t-73 -5.5q-54 0 -90 5t-54.5 29.5t-18.5 83.5zM203 36q24 0 38 7.5t19.5 31.5t5.5 75v78h-93q-31 0 -51 -4.5t-29 -27.5t-9 -78q0 -39 10.5 -56.5t36.5 -21.5t72 -4z" />
    <glyph glyph-name="tsatsv" unicode="&#x13e8;" horiz-adv-x="617" 
d="M381 332q0 20 -6 39.5t-29 33.5q-20 13 -47.5 17t-58.5 4q-63 0 -97 -19.5t-47 -63.5t-13 -118t13 -117t47 -61t97 -18q31 0 58.5 4t47.5 17q23 14 29 33.5t6 39.5v38l81 -45l59 48l76 -57l-26 -30l-9 7t-21 17t-22 18l-59 -48l-42 28q-6 -61 -45.5 -84.5t-120.5 -23.5
q-82 0 -130 21.5t-68.5 72.5t-20.5 138q0 88 20.5 140.5t68.5 76.5t130 24q81 0 120.5 -23.5t45.5 -84.5l42 28l59 -48q10 8 22 18t21 17l9 7l26 -30l-76 -57l-59 48l-81 -45v38z" />
    <glyph glyph-name="tsawa" unicode="&#x13e9;" horiz-adv-x="603" 
d="M309 198h171v-40h-55v-43q0 -41 14.5 -60t55.5 -19t51.5 13t10.5 32h30v-12q0 -39 -16.5 -52t-33.5 -15q-10 -1 -27.5 -1.5t-34.5 1t-28 4.5q-24 7 -36 25q-23 -22 -72 -30.5t-100 -8.5q-73 0 -120.5 17t-70 67t-22.5 147q0 88 20.5 140.5t68.5 76.5t130 24q41 0 80 -8
t65.5 -33.5t27.5 -76.5h-47q-3 19 -10.5 34.5t-21.5 24.5q-20 13 -47.5 17t-58.5 4q-63 0 -97 -19.5t-47 -63.5t-13 -118q0 -67 12.5 -107t35 -60t53 -26t66.5 -6q24 0 54 4t54.5 13.5t31.5 23.5v91h-74v40z" />
    <glyph glyph-name="tsawe" unicode="&#x13ea;" horiz-adv-x="682" 
d="M635 381q0 -31 -11 -74.5t-30 -92.5t-44.5 -95.5t-55.5 -82.5q-20 -25 -39 -31t-59 -5q-26 1 -43 1.5t-29.5 5.5t-27.5 20q-10 10 -20.5 22t-19.5 26q-31 -37 -65.5 -60t-72.5 -23q-49 0 -76.5 23t-27.5 78q0 66 33 88t104 22v-34q-37 0 -63.5 -15.5t-26.5 -57.5
q-1 -28 11.5 -47.5t44.5 -19.5q30 0 60 23t56 59q-24 43 -41.5 91.5t-27.5 95.5t-10 83q0 27 11 46t31 25q28 8 66 9t66 -7q22 -6 35 -24.5t13 -48.5q0 -36 -11 -81.5t-31 -92.5t-47 -89q16 -27 32 -46q17 -19 33.5 -24.5t43.5 -6.5t39.5 4t25.5 21q22 28 43.5 68.5
t38.5 83.5q-52 19 -80 47.5t-39 59.5t-11 56q0 27 11 46t31 25q28 8 66 9t66 -7q22 -6 35 -24.5t13 -48.5zM203 367q0 -37 17 -95t44 -112q28 51 45 107.5t18 99.5q0 52 -64 52q-33 0 -46.5 -14t-13.5 -38zM462 367q0 -10 9.5 -30t31.5 -40.5t58 -32.5q11 32 18 59.5t7 43.5
q0 52 -64 52q-33 0 -46.5 -14t-13.5 -38z" />
    <glyph glyph-name="tsawi" unicode="&#x13eb;" horiz-adv-x="425" 
d="M211 -5q-67 0 -108 19t-59 70.5t-18 148.5q0 88 18 138t59 71t108 21q68 0 108.5 -19t58.5 -70.5t18 -148.5q0 -88 -18 -138t-58.5 -71t-108.5 -21zM210 32q73 0 101 33t33 101h-35q-48 0 -78 18.5t-42 38.5q-8 15 -29.5 28.5t-43.5 13.5h-40v-31q0 -70 10 -114.5
t39 -65.5t86 -21zM212 426q-70 0 -98 -29.5t-35 -91.5h35q48 0 73.5 -15.5t38.5 -35.5q11 -18 30.5 -33t46.5 -15h43v18q0 70 -10 114.5t-38.5 66t-85.5 21.5z" />
    <glyph glyph-name="tsawo" unicode="&#x13ec;" horiz-adv-x="539" 
d="M252 255q0 -24 -20 -44.5t-49 -36.5t-58 -26.5t-48 -14.5q5 -33 19 -54.5t45.5 -31.5t85.5 -10h108q32 0 61.5 17.5t48.5 57t19 105.5v52q0 82 -17 119.5t-61 37.5q-26 0 -47.5 -8.5t-35.5 -17.5t-16 -13v40q4 8 12.5 17t28.5 15.5t58 6.5q57 0 83.5 -17t34 -59.5
t7.5 -120.5v-52q0 -89 -22.5 -136t-62 -64t-91.5 -17h-108q-79 0 -123 14.5t-61 53.5t-17 112v107q0 50 19 74.5t46 32.5t50 8q24 0 50 -5t43.5 -22t17.5 -53v-67zM74 174q16 4 37.5 12.5t42.5 21t35 28.5t14 34v52q0 26 -19.5 33t-42.5 7q-16 0 -31 -5t-25.5 -21t-10.5 -49
v-88v-25z" />
    <glyph glyph-name="tsawu" unicode="&#x13ed;" horiz-adv-x="407" 
d="M117 29q30 0 60 23t56 59q-24 43 -41.5 91.5t-27.5 95.5t-10 83q0 27 11 46t31 25q28 8 66 9t66 -7q22 -6 35 -24.5t13 -48.5q0 -40 -13.5 -91t-38 -103.5t-57 -96.5t-70.5 -71t-79 -27q-49 0 -76.5 19.5t-27.5 64.5q0 55 33 73t104 18v-28q-37 0 -63.5 -12.5
t-26.5 -47.5q-1 -23 11.5 -36.5t44.5 -13.5zM203 367q0 -37 17 -94.5t44 -112.5q28 51 45 107.5t18 99.5q0 52 -64 52q-33 0 -46.5 -14t-13.5 -38z" />
    <glyph glyph-name="tsawv" unicode="&#x13ee;" horiz-adv-x="380" 
d="M317 454q16 -4 20.5 -15t1.5 -30q-22 5 -65.5 9.5t-94.5 3.5q-37 -1 -56 -17t-25 -60q-1 -19 -2.5 -44.5t-1.5 -37.5q21 6 58 11t74 3q23 0 45 -3t40.5 -15t29.5 -37.5t11 -71.5q0 -63 -14 -96.5t-48.5 -46t-95.5 -12.5q-53 0 -83.5 8t-45 31.5t-18.5 68.5t-4 118
q0 87 6 136t23 71t49 28q27 6 64.5 6.5t73.5 -1.5t58 -7zM94 228v-57t1 -47q3 -40 14 -60t32 -26.5t53 -6.5q31 0 55 7t38.5 30t14.5 70q0 55 -14.5 75t-43.5 24q-36 5 -79.5 0t-70.5 -9z" />
    <glyph glyph-name="tsaya" unicode="&#x13ef;" horiz-adv-x="575" 
d="M148 177l67 52l49 -48l54 48l49 -48q13 12 28.5 27l15.5 15l22 -30l-64 -57l-50 47l-24 -21v-29q1 -51 12 -75.5t56 -24.5q23 0 44 5t37.5 23.5t26 59t9.5 112.5t-13.5 111t-36 55.5t-50.5 20t-58 3.5q-61 0 -94.5 -32t-38.5 -112h-41v21q0 76 48 119.5t127 43.5
q36 0 72.5 -4t66.5 -24t48 -66.5t18 -131.5q0 -60 -6.5 -106t-25.5 -77.5t-57 -47t-101 -12.5q-18 1 -41 7.5t-36 28.5q-15 -16 -38.5 -26t-54.5 -10q-61 0 -97 31t-36 98q-1 35 2 63.5l3 28.5h50l-3 -28t-3 -60q0 -47 21.5 -70.5t77.5 -23.5q43 0 55 22.5t13 68.5v26
l-35 34l-68 -45v38z" />
    <glyph glyph-name="tsaye" unicode="&#x13f0;" horiz-adv-x="452" 
d="M25 50l49 -6l43 358q4 29 12 40t28 14q16 2 37.5 4t61.5 2q60 0 93 -8t46.5 -34t13.5 -80q0 -19 -5.5 -40.5t-16 -37t-25.5 -18.5q24 -3 36.5 -20.5t17 -42.5t4.5 -52q0 -60 -18.5 -89t-59 -38t-106.5 -9q-29 0 -61.5 1.5t-61.5 2.5l-4 -52h-47l6 55q-16 2 -31 3.5
t-25 3.5zM293 221q-16 2 -41 3.5t-49.5 3t-41 2.5l-16.5 1l-26 -191q8 -3 44 -4.5t73 -1.5q24 0 47.5 1t42.5 8.5t30.5 27.5t11.5 58t-10 57t-27 26t-38 9zM151 274l144 -12q27 0 45 13t18 62q0 42 -9 59t-33.5 20.5t-72.5 3.5q-38 0 -55.5 -3t-20.5 -26z" />
    <glyph glyph-name="tsayi" unicode="&#x13f1;" horiz-adv-x="581" 
d="M294 460h172v-39h-61v-71q31 0 56.5 -5t44.5 -21.5t29.5 -49.5t10.5 -89q0 -61 -7.5 -97t-23 -55t-38.5 -28q-18 -7 -42 -8t-39 0q-23 2 -42.5 7.5t-31 22t-11.5 51.5q0 36 15.5 56.5t55.5 20.5q64 0 64 -43v-11h-30q0 10 -5.5 17.5t-28.5 7.5q-19 0 -27 -11t-8 -37
q0 -47 71 -47q23 0 39 12t25 44.5t9 94.5q0 49 -6.5 75.5t-20 37t-35 12.5t-52.5 2q-40 0 -64 -10.5t-43 -49.5l-120 -249l-80 124h-50v40h78l46 -71l92 192q20 41 46.5 52.5t75.5 12.5v71h-64v39z" />
    <glyph glyph-name="tsayo" unicode="&#x13f2;" horiz-adv-x="359" 
d="M92 271q13 5 35 7.5t46 2.5q59 0 92.5 -13t47 -43.5t13.5 -83.5v-89q0 -28 -12 -40.5t-30 -12.5h-10v126q0 49 -12 74t-35 34t-56 9q-10 0 -27 -1.5t-31.5 -3.5t-20.5 -6q0 -67 -0.5 -118.5t-0.5 -112.5q-16 0 -33.5 4.5t-17.5 31.5v300q0 57 15.5 84.5t45 36t70.5 8.5
q63 0 91 -15.5t35 -42.5t7 -61h-45q0 23 -5 41.5t-21.5 29t-53.5 10.5q-51 0 -69 -23.5t-18 -70.5v-62z" />
    <glyph glyph-name="tsayu" unicode="&#x13f3;" horiz-adv-x="624" 
d="M309 198h171v-40h-55v-94q0 -28 -28 -43.5t-71 -22t-87 -6.5q-73 0 -120.5 17t-70 67t-22.5 147q0 88 20.5 140.5t68.5 76.5t130 24q34 0 67 -5.5t59 -21t38 -47.5l70 46l59 -48q10 8 22 18t21 17l9 7l26 -30l-76 -57l-59 48l-63 -45h-47q-3 19 -10.5 34.5t-21.5 24.5
q-20 13 -47.5 17t-58.5 4q-63 0 -97 -19.5t-47 -63.5t-13 -118q0 -67 12.5 -107t35 -60t53 -26t66.5 -6q24 0 54 4t54.5 13.5t31.5 23.5v91h-74v40z" />
    <glyph glyph-name="tsayv" unicode="&#x13f4;" horiz-adv-x="428" 
d="M37 402q0 29 11.5 41.5t31.5 13.5q28 2 59.5 3.5t59.5 1.5q73 0 112 -8t53.5 -34t14.5 -80q0 -19 -5.5 -40.5t-16 -37t-25.5 -18.5q24 -3 36.5 -20.5t17 -42.5t4.5 -52q0 -60 -18.5 -89t-59 -38t-106.5 -9q-43 0 -90.5 2t-78.5 5v402zM274 217q-22 0 -56 0.5t-69 0.5h-60
v-178q8 -3 44 -4.5t73 -1.5q24 0 47.5 1t42.5 8.5t30.5 27.5t11.5 58q0 56 -16 72t-48 16zM89 262h176q27 0 45 13t18 62q0 42 -10 59t-40.5 20.5t-93.5 3.5q-22 0 -42.5 -1t-36.5 -3q-7 -1 -11.5 -5t-4.5 -20v-129z" />
    <glyph glyph-name="Wgrave" unicode="&#x1e80;" horiz-adv-x="797" 
d="M191 0q-30 0 -50 10t-32 28.5t-16 43.5l-64 378l151 -1l49 -298q3 -16 7.5 -22.5t16.5 -6.5h15l74 328h157l84 -328h17q9 0 13 5.5t5 15.5l36 307h113l-54 -380q-3 -29 -17 -47t-38.5 -25.5t-62.5 -7.5h-112l-60 246l-11 50l-9 -50l-53 -246h-159zM425 521l-120 73l67 40
l115 -113h-62z" />
    <glyph glyph-name="wgrave" unicode="&#x1e81;" horiz-adv-x="749" 
d="M217 -5q-64 0 -103.5 10.5t-57.5 41.5t-18 92v204q0 34 9.5 45t39.5 11h100v-259q0 -39 14 -50t41 -11q31 0 44.5 11.5t13.5 43.5v265h150v-266q0 -31 13.5 -42.5t41.5 -11.5q31 0 44.5 11t13.5 51v258h96q34 0 43.5 -10.5t9.5 -45.5v-204q0 -58 -18 -89t-59 -43
t-112 -12q-69 0 -108 22.5t-48 70.5h16q-8 -35 -26.5 -55.5t-52 -29t-87.5 -8.5zM373 460l-142 90l67 39l137 -129h-62z" />
    <glyph glyph-name="Wacute" unicode="&#x1e82;" horiz-adv-x="797" 
d="M191 0q-30 0 -50 10t-32 28.5t-16 43.5l-64 378l151 -1l49 -298q3 -16 7.5 -22.5t16.5 -6.5h15l74 328h157l84 -328h17q9 0 13 5.5t5 15.5l36 307h113l-54 -380q-3 -29 -17 -47t-38.5 -25.5t-62.5 -7.5h-112l-60 246l-11 50l-9 -50l-53 -246h-159zM374 521l115 113
l67 -40l-121 -73h-61z" />
    <glyph glyph-name="wacute" unicode="&#x1e83;" horiz-adv-x="749" 
d="M217 -5q-64 0 -103.5 10.5t-57.5 41.5t-18 92v204q0 34 9.5 45t39.5 11h100v-259q0 -39 14 -50t41 -11q31 0 44.5 11.5t13.5 43.5v265h150v-266q0 -31 13.5 -42.5t41.5 -11.5q31 0 44.5 11t13.5 51v258h96q34 0 43.5 -10.5t9.5 -45.5v-204q0 -58 -18 -89t-59 -43
t-112 -12q-69 0 -108 22.5t-48 70.5h16q-8 -35 -26.5 -55.5t-52 -29t-87.5 -8.5zM334 460l136 129l68 -39l-143 -90h-61z" />
    <glyph glyph-name="Wdieresis" unicode="&#x1e84;" horiz-adv-x="797" 
d="M191 0q-30 0 -50 10t-32 28.5t-16 43.5l-64 378l151 -1l49 -298q3 -16 7.5 -22.5t16.5 -6.5h15l74 328h157l84 -328h17q9 0 13 5.5t5 15.5l36 307h113l-54 -380q-3 -29 -17 -47t-38.5 -25.5t-62.5 -7.5h-112l-60 246l-11 50l-9 -50l-53 -246h-159zM514 520
q-24 0 -39.5 6.5t-15.5 34.5q0 26 16.5 32t40.5 6q22 0 37 -7t15 -31q0 -28 -14.5 -34.5t-39.5 -6.5zM331 520q-24 0 -39.5 6.5t-15.5 34.5q0 26 16.5 32t40.5 6q23 0 37 -7t14 -31q0 -27 -14.5 -34t-38.5 -7z" />
    <glyph glyph-name="wdieresis" unicode="&#x1e85;" horiz-adv-x="749" 
d="M217 -5q-64 0 -103.5 10.5t-57.5 41.5t-18 92v204q0 34 9.5 45t39.5 11h100v-259q0 -39 14 -50t41 -11q31 0 44.5 11.5t13.5 43.5v265h150v-266q0 -31 13.5 -42.5t41.5 -11.5q31 0 44.5 11t13.5 51v258h96q34 0 43.5 -10.5t9.5 -45.5v-204q0 -58 -18 -89t-59 -43
t-112 -12q-69 0 -108 22.5t-48 70.5h16q-8 -35 -26.5 -55.5t-52 -29t-87.5 -8.5zM467 459q-24 0 -39.5 6.5t-15.5 34.5q0 26 16.5 32t40.5 6q22 0 37 -7t15 -31q0 -28 -14.5 -34.5t-39.5 -6.5zM284 459q-24 0 -39.5 6.5t-15.5 34.5q0 26 16.5 32t40.5 6q23 0 37 -7t14 -31
q0 -27 -14.5 -34t-38.5 -7z" />
    <glyph glyph-name="uni1E9E" unicode="&#x1e9e;" horiz-adv-x="784" 
d="M137 -26v74.5v60.5v65v88v131q1 34 19 56.5t53.5 35t86.5 17.5t116 5q62 0 114 -4t89.5 -15t57 -31t18.5 -52q0 -21 -14 -35.5t-32.5 -22.5t-35 -12t-20.5 -5q-19 -5 -37 -9.5t-33 -11t-24 -15.5t-9 -20q0 -21 16 -25.5t44 -4.5h31h32q38 0 62 -13t35.5 -38.5t11.5 -63.5
q0 -57 -23.5 -86t-60.5 -38.5t-78 -9.5q-32 0 -64.5 0.5t-63 3t-55.5 10t-41 21.5l-7 56q17 -9 46 -14.5t61.5 -7.5t57.5 -2q32 0 51.5 5t28 17t8.5 33q0 25 -12.5 34t-41.5 9h-21.5h-41.5q-37 0 -66 7t-45 26t-16 52q0 27 15 48.5t41.5 38.5t60.5 30t72 23q0 23 -12.5 36
t-31 19t-37 8t-29.5 2q-20 0 -42 -4t-41 -13.5t-31 -27.5t-12 -47v-384h-150z" />
    <glyph glyph-name="uni1EA0" unicode="&#x1ea0;" horiz-adv-x="609" 
d="M3 0l159 382q16 39 46 60.5t94 21.5q53 0 86 -20t50 -62l160 -382h-178l-43 103h-208l-40 -103h-126zM195 166h152l-54 140q-3 8 -7 14.5t-14 6.5q-11 0 -15.5 -6.5t-7.5 -14.5zM301 -160q-22 0 -38.5 3t-26 13t-9.5 32q0 33 22 41t54 8t51 -8.5t19 -40.5q0 -22 -9 -32
t-25 -13t-38 -3z" />
    </font>
</defs>
</svg>
