<?xml version="1.0" standalone="no"?>
<!DOCTYPE svg PUBLIC "-//W3C//DTD SVG 1.1//EN" "http://www.w3.org/Graphics/SVG/1.1/DTD/svg11.dtd" >
<svg xmlns="http://www.w3.org/2000/svg" xmlns:xlink="http://www.w3.org/1999/xlink" version="1.1">
<metadata>
Created by FontForge 20170731 at Fri Oct  8 07:58:22 2021
 By Aleksey,,,
Copyright 2011 The Genos Project Authors (https://github.com/googlefonts/genos)
</metadata>
<defs>
<font id="Genos-Regular" horiz-adv-x="0" >
  <font-face 
    font-family="Genos"
    font-weight="400"
    font-stretch="normal"
    units-per-em="1000"
    panose-1="0 0 0 0 0 0 0 0 0 0"
    ascent="800"
    descent="-200"
    x-height="399"
    cap-height="460"
    bbox="-100 -201 1066 758"
    underline-thickness="50"
    underline-position="-175"
    unicode-range="U+0020-FB06"
  />
<missing-glyph horiz-adv-x="600" 
d="M98 0q-4 0 -4 4q-4 33 -7 85.5t-5 115.5t-2 129q0 67 2 131.5t5.5 118t7.5 85.5q0 4 4 4h402q4 0 4 -4q4 -32 7.5 -85.5t5.5 -118t2 -131.5q0 -66 -2 -129t-5 -115.5t-7 -85.5q0 -4 -4 -4h-404zM124 30h352q5 42 7 96.5t3 110t1 100.5q0 79 -4 158t-9 148h-348
q-6 -85 -9.5 -162.5t-3.5 -145.5q0 -47 0.5 -101t3 -107t7.5 -97zM170 80q-6 0 -5.5 2.5t1.5 3.5l231 502q3 6 9 6h19q8 0 2 -7l-230 -499q-4 -8 -11 -8h-16zM424 80h-16q-8 0 -11 8l-230 499q-6 7 2 7h19q6 0 9 -6l231 -502q1 -1 1.5 -3.5t-5.5 -2.5z" />
    <glyph glyph-name="fi" unicode="fi" horiz-adv-x="550" 
d="M39 352h33v59q0 38 13.5 65.5t60.5 28.5q28 1 54.5 -0.5t46.5 -3.5t28 -3v-39q-2 0 -11 1.5t-21.5 2.5l-25 2t-22.5 1q-35 0 -44.5 -15.5t-9.5 -46.5v-52h230v-39h-230v-313h-44q-15 0 -20 6t-5 21v286h-33v39zM440 352v-86v-74.5v-86.5q0 -40 7.5 -58.5t36.5 -18.5
q6 0 17.5 1.5t14.5 3.5v-30q-6 -1 -24.5 -4t-36.5 -3q-28 0 -45 6t-25.5 16.5t-11.5 25t-3 30.5v34v86v78.5v79.5h35h35zM370 475q0 17 11 21.5t25 3.5q16 0 26 -4t10 -21q0 -19 -10.5 -22.5t-25.5 -3.5q-14 0 -25 3.5t-11 22.5z" />
    <glyph glyph-name="fl" unicode="fl" horiz-adv-x="521" 
d="M39 352h33v59q0 38 13.5 65.5t60.5 28.5q14 0 37.5 -0.5t51.5 -1.5t57.5 -2.5t55 -3l42.5 -2.5t22 -1l-14 -39q-2 1 -16 2t-34.5 2t-44.5 2.5t-46 2.5t-38.5 1.5t-23.5 0.5q-35 0 -44.5 -15.5t-9.5 -46.5v-52h134v-39h-134v-313h-44q-15 0 -20 6t-5 21v286h-33v39z
M340 460q0 13 2.5 20.5t8.5 10.5t18 3h43q0 -1 -0.5 -5.5t-1 -11.5t-0.5 -14v-12l1 -346q0 -40 7.5 -58.5t35.5 -18.5q6 0 18 1.5t15 3.5v-30q-6 -1 -24.5 -4t-36.5 -3q-33 0 -50.5 9.5t-25 25t-8.5 35.5t-1 42z" />
    <glyph glyph-name="f_f" unicode="ff" horiz-adv-x="619" 
d="M39 352h33v59q0 38 13.5 65.5t60.5 28.5q28 1 54.5 -0.5t46.5 -3.5t28 -3v-39q-2 0 -11 1.5t-21.5 2.5l-25 2t-22.5 1q-35 0 -44.5 -15.5t-9.5 -46.5v-52h244v-39h-244v-313h-44q-15 0 -20 6t-5 21v286h-33v39zM348 351l33 1v59q0 38 14 65.5t60 28.5q28 1 54.5 -0.5
t46.5 -3.5t29 -3v-39q-3 0 -11.5 1.5t-21 2.5l-25 2t-22.5 1q-36 0 -45.5 -15.5t-9.5 -46.5v-52h135v-39h-135v-313h-44q-15 0 -20 6t-5 21v286l-33 1v37z" />
    <glyph glyph-name="f_f_i" unicode="ffi" horiz-adv-x="819" 
d="M38 352h33v59q0 47 18 71t70 24q24 0 45.5 -1.5t39 -3.5t30.5 -3v-41q-7 3 -20 4.5t-28.5 2.5t-31.5 1q-33 0 -43.5 -13.5t-10.5 -47.5v-52h114v-39h-114v-313h-44q-15 0 -20 6t-5 21v286h-33v39zM305 352h33v59q0 38 13.5 65.5t60.5 28.5q28 1 54.5 -0.5t46.5 -3.5
t28 -3v-39q-2 0 -11 1.5t-21.5 2.5l-25 2t-22.5 1q-35 0 -44.5 -15.5t-9.5 -46.5v-52h230v-39h-230v-313h-44q-15 0 -20 6t-5 21v286h-33v39zM706 352v-86v-74.5v-86.5q0 -40 7.5 -58.5t36.5 -18.5q6 0 17.5 1.5t14.5 3.5v-30q-6 -1 -24.5 -4t-36.5 -3q-28 0 -45 6
t-25.5 16.5t-11.5 25t-3 30.5v34v86v78.5v79.5h35h35zM636 475q0 17 11 21.5t25 3.5q16 0 26 -4t10 -21q0 -19 -10.5 -22.5t-25.5 -3.5q-14 0 -25 3.5t-11 22.5z" />
    <glyph glyph-name="f_f_l" unicode="ffl" horiz-adv-x="831" 
d="M39 352h33v59q0 38 13.5 65.5t60.5 28.5q28 1 54.5 -0.5t46.5 -3.5t28 -3v-39q-2 0 -11 1.5t-21.5 2.5l-25 2t-22.5 1q-35 0 -44.5 -15.5t-9.5 -46.5v-52h207v-39h-207v-313h-44q-15 0 -20 6t-5 21v286h-33v39zM348 352h33v59q0 38 14 65.5t60 28.5q14 0 37.5 -0.5
t52.5 -1.5t57.5 -2.5t54 -3t43 -2.5t21.5 -1l-14 -39q-2 1 -16 2t-34.5 2t-44 2.5t-45.5 2.5t-39 1.5t-23 0.5q-36 0 -45.5 -15.5t-9.5 -46.5v-52h135v-39h-135v-313h-44q-15 0 -20 6t-5 21v286h-33v39zM650 460q0 13 2 20.5t8 10.5t18 3h43v-5.5t-0.5 -11.5l-1 -14
t-0.5 -12l1 -346q0 -40 7.5 -58.5t35.5 -18.5q6 0 18 1.5t16 3.5v-30q-6 -1 -25 -4t-37 -3q-32 0 -49.5 9.5t-25 25t-9 35.5t-1.5 42v352z" />
    <glyph glyph-name=".notdef" horiz-adv-x="600" 
d="M98 0q-4 0 -4 4q-4 33 -7 85.5t-5 115.5t-2 129q0 67 2 131.5t5.5 118t7.5 85.5q0 4 4 4h402q4 0 4 -4q4 -32 7.5 -85.5t5.5 -118t2 -131.5q0 -66 -2 -129t-5 -115.5t-7 -85.5q0 -4 -4 -4h-404zM124 30h352q5 42 7 96.5t3 110t1 100.5q0 79 -4 158t-9 148h-348
q-6 -85 -9.5 -162.5t-3.5 -145.5q0 -47 0.5 -101t3 -107t7.5 -97zM170 80q-6 0 -5.5 2.5t1.5 3.5l231 502q3 6 9 6h19q8 0 2 -7l-230 -499q-4 -8 -11 -8h-16zM424 80h-16q-8 0 -11 8l-230 499q-6 7 2 7h19q6 0 9 -6l231 -502q1 -1 1.5 -3.5t-5.5 -2.5z" />
    <glyph glyph-name=".null" horiz-adv-x="436" 
 />
    <glyph glyph-name="nonmarkingreturn" horiz-adv-x="333" 
 />
    <glyph glyph-name="space" unicode=" " horiz-adv-x="257" 
 />
    <glyph glyph-name="exclam" unicode="!" horiz-adv-x="186" 
d="M82 154l-17 310q0 21 7 31.5t26 10.5h42l-1 -94l-19 -258h-38zM61 27q0 19 12 24t28 5q17 0 28 -4.5t11 -24.5q0 -13 -5.5 -19t-14 -7.5t-19.5 -1.5t-20 1.5t-14.5 7.5t-5.5 19z" />
    <glyph glyph-name="quotedbl" unicode="&#x22;" horiz-adv-x="302" 
d="M40 343l46 142h41l-48 -142h-39zM151 343l42 142h45l-52 -142h-35z" />
    <glyph glyph-name="numbersign" unicode="#" horiz-adv-x="491" 
d="M294 111h-104l-12 -126h-38l11 126l-103 1l3 38h103l15 148l-98 1l2 38h99l11 122h39l-11 -123h104l11 124h39l-12 -124h109l-3 -38h-109l-14 -148l103 -1l-3 -38h-104l-12 -126h-37zM193 150h105l14 148h-105z" />
    <glyph glyph-name="dollar" unicode="$" horiz-adv-x="475" 
d="M59 -83l23.5 47l27 54t23.5 45q-33 8 -53 21t-28.5 36.5t-8.5 60.5h29.5h29.5q-1 -35 13.5 -53.5t43 -25.5t70.5 -7q26 0 50.5 2t44 10t31.5 25.5t12 48.5q0 39 -17.5 51.5t-56.5 12.5h-62h-63q-21 0 -43.5 1.5t-41 10.5t-29 29.5t-10.5 56.5q0 57 26 82.5t72 32.5t104 7
q16 0 31.5 -1t29.5 -2q15 28 29.5 56.5t28.5 56.5h31q-15 -28 -29.5 -57l-29.5 -59q36 -3 56.5 -17.5t28.5 -39t8 -61.5h-28.5h-29.5q0 33 -12.5 51t-39.5 26t-73 8q-38 0 -68 -5t-47 -22t-17 -52q0 -36 18.5 -47t51.5 -11h62h63q33 0 62.5 -5t48.5 -27.5t19 -74.5
q0 -55 -24 -81t-63 -34t-86 -9q-25 -1 -50.5 0t-53.5 1l-73 -142h-31z" />
    <glyph glyph-name="percent" unicode="%" horiz-adv-x="592" 
d="M407 460l-183 -465h-51l183 465h51zM535 104q0 -48 -12 -70t-34 -28t-49 -6t-48 7t-31.5 29t-10.5 68q0 47 12.5 68.5t34.5 28.5t49 7q28 0 48 -7.5t30.5 -29.5t10.5 -67zM494 104q0 38 -6 55.5t-17.5 23.5t-28.5 6q-16 0 -27 -6t-17 -23.5t-6 -55.5t5.5 -56t17 -23.5
t27.5 -5.5q17 0 28.5 5.5t17.5 23.5t6 56zM242 356q0 -48 -12.5 -70t-33.5 -28t-49 -6q-27 0 -47.5 7t-31.5 28.5t-11 68.5t12.5 68.5t34.5 28.5t49 7t47.5 -7.5t31 -29.5t10.5 -67zM202 356q0 37 -6.5 55t-18 24t-28.5 6q-15 0 -26.5 -6t-18 -24t-6.5 -55t6.5 -55.5
t17.5 -24t27 -5.5q17 0 28.5 5.5t18 24t6.5 55.5z" />
    <glyph glyph-name="ampersand" unicode="&#x26;" horiz-adv-x="561" 
d="M534 -5q-15 7 -36.5 21t-48.5 33q-10 -21 -29.5 -31.5t-47.5 -15.5q-35 -6 -78.5 -8t-85.5 0t-73 6q-31 5 -52.5 18.5t-32 43t-10.5 82.5q0 29 7.5 56.5t22.5 47t38 23.5q-20 12 -31 31.5t-11 56.5q0 34 13.5 54.5t35 30.5t48 13.5t52.5 4.5q24 2 51 2t53.5 -1.5
t47.5 -3.5q22 -2 40 -6t29 -15.5t11 -36.5q-15 10 -44 14.5t-60 6.5t-52 2t-47 -1.5t-50 -9t-40 -23t-16 -44.5q0 -25 14.5 -44t42.5 -39l190 -137v139q22 0 37.5 -2.5t24.5 -9.5t11 -21q1 -22 1.5 -49t0 -52t-1.5 -43l76 -49v-44zM161 241q-16 -5 -24.5 -21.5t-12 -36.5
t-3.5 -33q0 -59 15.5 -82t47.5 -30q19 -4 44.5 -5.5t52 0t45.5 6.5q13 3 25 7.5t21 13t12 23.5q-56 40 -112 79.5t-111 78.5z" />
    <glyph glyph-name="quotesingle" unicode="'" horiz-adv-x="220" 
d="M70 345q11 23 20 48t14 40h-3h-4q-10 1 -18.5 6t-8.5 21q0 14 5.5 19.5t15.5 7.5t23 2q19 0 29 -5.5t10 -24.5q0 -17 -8 -40t-18 -43.5t-17 -30.5h-40z" />
    <glyph glyph-name="parenleft" unicode="(" horiz-adv-x="277" 
d="M238 493q-31 0 -55.5 -10t-43 -37t-28.5 -78t-10 -134q0 -81 10 -132.5t28.5 -79t43 -38t54.5 -10.5v-28q-49 0 -88.5 10t-67 39.5t-42 86.5t-14.5 152q0 93 15 150.5t42.5 88t67 41.5t88.5 11v-32z" />
    <glyph glyph-name="parenright" unicode=")" horiz-adv-x="277" 
d="M25 525q49 0 88.5 -11t67 -41.5t42.5 -88t15 -150.5q0 -95 -14.5 -152t-42 -86.5t-67 -39.5t-88.5 -10v28q30 0 55 10.5t43 38t28 79t10 132.5q0 83 -10 134t-28 78t-43 37t-56 10v32z" />
    <glyph glyph-name="asterisk" unicode="*" horiz-adv-x="513" 
d="M370 82l-101 161l-102 -161l-46 33l123 146l-185 45l17 54l177 -71l-13 190h56l-13 -189l177 71l17 -54l-183 -46l122 -146z" />
    <glyph glyph-name="plus" unicode="+" horiz-adv-x="466" 
d="M198 -12v176h-150v43h150v164h66v-164h155v-43h-155v-176h-66z" />
    <glyph glyph-name="comma" unicode="," horiz-adv-x="194" 
d="M57 -88q11 23 20 48t14 40h-3h-4q-10 1 -18.5 6t-8.5 21q0 14 5.5 19.5t15.5 7.5t23 2q19 0 29 -5.5t10 -24.5q0 -17 -8 -40t-18 -43.5t-17 -30.5h-40z" />
    <glyph glyph-name="hyphen" unicode="-" horiz-adv-x="324" 
d="M48 215h228v-40h-228v40z" />
    <glyph glyph-name="period" unicode="." horiz-adv-x="215" 
d="M83 27q0 19 12 24t28 5q17 0 28 -4.5t11 -24.5q0 -13 -5.5 -19t-14 -7.5t-19.5 -1.5q-10 0 -19 1.5t-15 7.5t-6 19z" />
    <glyph glyph-name="slash" unicode="/" horiz-adv-x="382" 
d="M44 -38l241 613h53l-241 -613h-53z" />
    <glyph glyph-name="zero" unicode="0" horiz-adv-x="498" 
d="M242 -7q-44 0 -80.5 8t-64 31.5t-42.5 71t-15 127.5q0 82 17 130t47 71t69 30t82 7q44 0 81 -8t64.5 -31.5t42.5 -71t15 -127.5q0 -82 -17.5 -130t-47 -71t-68.5 -30t-83 -7zM249 31q31 0 55.5 7t42 27t27 60t9.5 105q0 67 -9.5 107t-27 60t-42 27t-55.5 7t-55.5 -7
t-41.5 -27t-26 -60t-9 -107q0 -65 9 -105t25.5 -60t41 -27t56.5 -7z" />
    <glyph glyph-name="one" unicode="1" horiz-adv-x="284" 
d="M138 0v370q0 32 -10 42t-29 10q-16 0 -34.5 -4.5t-32.5 -8.5v38q22 5 50 9.5t55 4.5q30 0 47.5 -8t24.5 -25t7 -45v-383h-78z" />
    <glyph glyph-name="two" unicode="2" horiz-adv-x="484" 
d="M45 0v47.5v47.5q0 48 9 77.5t28.5 44.5t49.5 20t72 5h40h40q39 0 64 18.5t25 68.5q0 43 -18.5 61t-50.5 23q-17 3 -35 4t-43 1q-29 0 -60 -2.5t-53 -9.5q-10 -2 -23.5 -5.5t-24.5 -8t-16 -10.5v11.5v14.5v7q0 13 15.5 22t41.5 14.5t58.5 8t65.5 2.5q60 0 108 -7
t75.5 -35.5t27.5 -91.5q0 -56 -20 -84.5t-52 -38.5t-69 -10h-39h-44q-34 0 -56 -7t-33 -26t-11 -55v-62h327v-45h-399z" />
    <glyph glyph-name="three" unicode="3" horiz-adv-x="473" 
d="M218 -6q-30 0 -63 1.5t-62 5.5t-47 10q-13 4 -18.5 12t-4.5 20l1 21q33 -12 80 -19t105 -7q48 0 80.5 7.5t49.5 28t17 58.5q0 35 -9 51.5t-25 22t-34 5.5h-200v45h201q27 0 42 17t15 57q0 37 -13 55.5t-38.5 25.5t-63.5 7h-14.5h-16.5q-28 0 -60.5 -3.5t-59.5 -9
t-42 -11.5v24q0 13 7 19.5t24 11.5q16 5 60 9t98 4q78 0 119.5 -12t57 -40.5t15.5 -77.5q0 -41 -15 -66t-42 -29v-1q33 0 50.5 -23t17.5 -83q0 -55 -21.5 -84t-67.5 -40.5t-123 -11.5z" />
    <glyph glyph-name="four" unicode="4" horiz-adv-x="491" 
d="M321 0v104h-307v41l283 287q12 11 27.5 17t33 8.5t35.5 2.5q-1 -1 -1.5 -9.5t-0.5 -16.5v-12v-275h66v-43h-66v-104h-70zM95 147h225v246l-2 -4l-218 -238z" />
    <glyph glyph-name="five" unicode="5" horiz-adv-x="488" 
d="M447 144q0 -46 -10.5 -75t-34 -45.5t-62.5 -23t-96 -6.5q-64 0 -113 5t-68 12q-10 3 -15.5 7.5t-7 12t-0.5 21.5v14q36 -12 84.5 -19.5t108.5 -7.5q46 0 79.5 8.5t51.5 31.5t18 67q0 39 -9.5 59.5t-35.5 28.5t-76 8q-27 1 -57.5 0.5t-59.5 -2.5t-52 -4.5t-36 -4.5v229
h383v-44h-320v-136q17 2 40 2.5t47.5 1t48.5 0.5t43 -1q63 -2 95 -15.5t43 -43.5t11 -80z" />
    <glyph glyph-name="six" unicode="6" horiz-adv-x="479" 
d="M237 -4q-65 0 -104.5 7.5t-59 30t-25.5 68t-6 119.5q0 76 7 123t27 71.5t56.5 34t92.5 10.5q33 1 68 -0.5t56 -5.5q24 -3 35.5 -9.5t21.5 -13.5q6 1 9.5 -1t1.5 -7.5t-11 -16.5q-20 4 -47.5 6.5t-57.5 3.5t-62 1q-43 0 -70.5 -8t-41.5 -27t-19 -52q0 -8 -1.5 -22.5
t-2 -26.5t-0.5 -17q24 7 59.5 10.5t74 6t73.5 1.5q29 -1 53 -6t41.5 -18.5t27 -39t9.5 -67.5q0 -46 -10 -76.5t-33.5 -47.5t-63 -24t-98.5 -7zM237 38q46 0 77 7t48.5 31t17.5 75q0 33 -9.5 52t-29 27.5t-49.5 10.5q-20 2 -48 1t-56.5 -2.5t-51 -4t-32.5 -3.5v-26.5t0.5 -41
t1.5 -35.5q4 -39 19 -59t43 -26t69 -6z" />
    <glyph glyph-name="seven" unicode="7" horiz-adv-x="425" 
d="M96 0l226 417h-304v42h343q26 0 34.5 -13.5t-5.5 -36.5q-17 -35 -39 -75t-46 -83t-48.5 -86.5t-47.5 -85t-43 -79.5h-70z" />
    <glyph glyph-name="eight" unicode="8" horiz-adv-x="485" 
d="M242 -4q-68 0 -109 6.5t-61.5 22t-27 41.5t-6.5 65q0 44 19.5 75.5t54.5 36.5q-28 2 -45 30.5t-17 71.5q0 45 17 70.5t59 36.5t115 11q58 0 95.5 -6t58.5 -20t30 -36.5t9 -55.5q0 -43 -16.5 -71.5t-45.5 -30.5q39 -4 57 -36t18 -76q0 -38 -6.5 -64t-27.5 -41.5t-62 -22.5
t-109 -7zM219 38h45q64 0 90.5 16.5t26.5 69.5q0 41 -9.5 61.5t-34.5 27.5t-73 7h-45q-48 0 -73 -7t-34.5 -27.5t-9.5 -61.5q0 -53 26.5 -69.5t90.5 -16.5zM241 264q50 0 77.5 5t39 22.5t11.5 53.5q0 29 -10.5 46.5t-38.5 25t-79 7.5q-50 0 -77.5 -7.5t-38.5 -25t-11 -46.5
q0 -36 11.5 -53.5t39.5 -22.5t76 -5z" />
    <glyph glyph-name="nine" unicode="9" horiz-adv-x="479" 
d="M53 52q21 -5 65 -9t100 -4q59 0 90.5 7.5t45.5 27.5t19 58q1 9 1.5 22t1 25t0.5 16q-13 -2 -30.5 -4.5t-37.5 -4.5q-26 -4 -55.5 -7t-63.5 -3q-79 0 -115.5 28t-36.5 104q0 65 20 98.5t65 45.5t120 12q70 0 109 -9t58 -33t24 -68.5t5 -113.5q0 -66 -5 -109.5t-17 -69
t-32.5 -38.5t-51.5 -19q-27 -4 -59.5 -6t-64.5 -2q-37 0 -69 1.5t-51 4.5q-18 2 -27.5 10t-8.5 24zM376 231v54.5t-2 46.5q-3 37 -17 56.5t-43 27t-75 7.5q-47 0 -78 -9t-46.5 -31t-15.5 -65q0 -40 11 -61t36.5 -29t69.5 -8q33 0 66.5 1.5t59.5 5t34 4.5z" />
    <glyph glyph-name="colon" unicode=":" horiz-adv-x="195" 
d="M57 27q0 19 12 24t29 5t28 -4.5t11 -24.5q0 -13 -5.5 -19t-14.5 -7.5t-20 -1.5q-10 0 -19 1.5t-15 7.5t-6 19zM57 314q0 13 5 19t14.5 8t20.5 2q17 0 28 -5t11 -24q0 -13 -5.5 -19t-14.5 -7.5t-19 -1.5q-11 0 -20 1.5t-14.5 7.5t-5.5 19z" />
    <glyph glyph-name="semicolon" unicode=";" horiz-adv-x="208" 
d="M71 302q0 13 5 19t14.5 8t20.5 2q17 0 28 -5t11 -24q0 -13 -5.5 -19t-14 -7.5t-19.5 -1.5q-10 0 -19.5 1.5t-15 7.5t-5.5 19zM71 -88q12 23 20.5 48t14.5 40h-3.5h-3.5q-10 1 -19 6t-9 21q0 14 6 19.5t16 7.5t23 2q19 0 29 -5.5t10 -24.5q0 -17 -8 -40t-18 -43.5
t-17 -30.5h-41z" />
    <glyph glyph-name="less" unicode="&#x3c;" horiz-adv-x="379" 
d="M340 86v-48l-278 162v31l278 167v-52l-218 -130z" />
    <glyph glyph-name="equal" unicode="=" horiz-adv-x="437" 
d="M48 287h342v-41h-342v41zM48 155h342v-40h-342v40z" />
    <glyph glyph-name="greater" unicode="&#x3e;" horiz-adv-x="379" 
d="M281 216l-219 132v50l278 -166v-32l-278 -162v50z" />
    <glyph glyph-name="question" unicode="?" horiz-adv-x="412" 
d="M125 118h-31q0 10 -1.5 25.5t-3 32.5t-3 32.5t-1.5 26.5q9 0 23 -0.5t29 -0.5h25q73 2 105 21t32 78q0 51 -25.5 71t-97.5 20h-65q-11 0 -23 -1t-22.5 -2t-17.5 -2t-8 -1v7.5t0.5 9t3 8.5t5.5 5q5 7 22 9t36 2q14 1 35 1h43.5t37.5 -1q50 0 83 -10t49.5 -36.5t16.5 -79.5
q0 -48 -18 -75t-50.5 -38.5t-77 -14t-95.5 -2.5zM76 27q0 19 12.5 24t28.5 5q17 0 27.5 -4.5t10.5 -24.5q0 -13 -5.5 -19t-14 -7.5t-19.5 -1.5t-20 1.5t-14.5 7.5t-5.5 19z" />
    <glyph glyph-name="at" unicode="@" horiz-adv-x="774" 
d="M379 441q-77 0 -129 -9t-83 -34t-44.5 -71t-13.5 -120q0 -73 15.5 -115.5t48 -64.5t81 -29t114.5 -7q48 0 98 4t96.5 11.5t84 17.5t59.5 22v-19.5v-20.5q-30 -10 -75.5 -20.5t-99.5 -17.5t-111 -8q-34 0 -70 -0.5t-70.5 2.5t-66 10t-56 20t-39.5 34q-25 26 -37.5 69.5
t-12.5 109.5q0 88 18 141t55.5 80t96 36t139.5 9q74 0 131 -5.5t96 -24.5t59.5 -60t21.5 -113q1 -30 -2.5 -61.5t-14.5 -58t-33.5 -42.5t-61.5 -17q-24 0 -41 6t-26 17t-13 27q-7 -14 -21 -25t-33 -17t-43.5 -8.5t-49.5 -2.5q-49 0 -80.5 10t-46.5 38t-15 83q0 60 20.5 87
t62 34.5t102.5 6.5q19 -1 41 -2t44 -2.5t38.5 -2.5t22.5 -2q-1 -3 -1.5 -16t-0.5 -30v-68.5v-68.5q0 -23 13.5 -29t29.5 -6q29 0 43.5 19.5t20 53.5t5.5 76q0 63 -19.5 98t-54.5 51.5t-84 20.5t-108 4zM476 306q-6 0 -23.5 1t-39 2.5t-40.5 1.5q-42 0 -66 -7.5t-34 -26.5
t-10 -55q0 -42 8.5 -63.5t31.5 -29t64 -7.5q14 0 33 2t36 11t28.5 27t11.5 50v94z" />
    <glyph glyph-name="A" unicode="A" horiz-adv-x="514" 
d="M17 0l133 393q12 34 33 52.5t72 18.5q46 0 68 -17t35 -54l136 -393h-83l-43 127h-250l-41 -127h-60zM131 162h223l-66 201q-5 15 -13 26.5t-32 11.5q-27 0 -35.5 -12t-12.5 -26z" />
    <glyph glyph-name="B" unicode="B" horiz-adv-x="593" 
d="M336 -2h-119.5t-84 0.5t-54.5 1.5v414q0 29 12.5 37t34.5 9q24 0 45 0.5t39 1t36 0.5h38q23 0 47 -0.5t46 -1t35 -1.5q56 -4 81.5 -31.5t25.5 -79.5q0 -39 -12.5 -62.5t-31.5 -33.5t-37 -12q18 0 35.5 -3.5t32 -15t23.5 -34t9 -60.5q0 -46 -17 -72.5t-45 -38.5t-64 -15
t-75 -3zM316 38q27 0 52.5 2t46 10t32.5 27t12 53q0 49 -21.5 67.5t-84.5 18.5h-156q-13 0 -17 10t-4 30h174q24 0 44.5 6t33.5 25.5t13 57.5q0 35 -16 54.5t-52 22.5q-20 2 -44 2.5t-47 0.5h-56.5t-44.5 -1q-11 0 -18.5 -6.5t-7.5 -21.5v-356q7 0 18.5 -0.5t29 -1t45 -0.5
h68.5z" />
    <glyph glyph-name="C" unicode="C" horiz-adv-x="531" 
d="M45 230q0 71 14.5 117t46.5 72t82.5 36t122.5 10q37 0 71.5 -2.5t70.5 -8.5q30 -5 38.5 -13.5t8.5 -23.5v-25q-19 9 -53 15.5t-70 9.5t-64 3q-70 0 -111.5 -16.5t-59.5 -57.5t-18 -116t17 -116.5t59.5 -58.5t117.5 -17q27 0 61 3t66 9.5t55 13.5v-23q0 -13 -9 -22.5
t-40 -13.5q-35 -7 -70 -9.5t-72 -2.5q-74 0 -125 10.5t-81.5 36t-44 71.5t-13.5 119z" />
    <glyph glyph-name="D" unicode="D" horiz-adv-x="601" 
d="M556 226q0 -82 -18 -128.5t-51.5 -67.5t-82 -26.5t-109.5 -5.5q-29 0 -60.5 0.5t-62 0.5t-55 0.5t-39.5 0.5v396q0 32 8.5 47t44.5 17q16 1 42 1t55.5 0.5t57.5 0.5t47 -1q55 -2 96.5 -9t70 -30t42.5 -69.5t14 -126.5zM155 43q7 0 25.5 -0.5t40.5 -0.5t42.5 -0.5
t31.5 -0.5q51 0 86 7t56.5 26.5t31 56t9.5 95.5q0 80 -16.5 121.5t-55 56.5t-107.5 15h-39.5t-50.5 -0.5t-39 -2.5q-7 -4 -11 -10.5t-4 -25.5v-337z" />
    <glyph glyph-name="E" unicode="E" horiz-adv-x="545" 
d="M83 0v428q0 18 5 25t22 7h397v-44h-347v-153h318v-44h-318v-175h347v-44h-424z" />
    <glyph glyph-name="F" unicode="F" horiz-adv-x="539" 
d="M83 0v425q0 13 1 20t7 11t19 4h397v-44h-347v-153h318v-44h-318v-219h-77z" />
    <glyph glyph-name="G" unicode="G" horiz-adv-x="565" 
d="M291 -7q-69 0 -116 11t-75.5 38.5t-41.5 73t-13 113.5q0 75 17 121.5t49.5 71.5t79.5 34.5t108 9.5q50 0 92.5 -2.5t73.5 -9.5q20 -3 29.5 -9t12 -13.5t2.5 -15.5v-20q-7 6 -25 10t-41.5 7t-48.5 5.5t-47.5 3t-37.5 0.5q-70 0 -110 -17t-57.5 -58.5t-17.5 -117.5
q0 -73 15.5 -115t53 -59.5t101.5 -17.5q58 0 92 11t50 42t17 87q1 13 0.5 22.5t-0.5 14.5h-189q0 18 2.5 27t11 13t26.5 4h224v-79q0 -54 -12.5 -89.5t-40 -57t-73 -30.5t-111.5 -9z" />
    <glyph glyph-name="H" unicode="H" horiz-adv-x="623" 
d="M83 0v431q0 19 6.5 24t22.5 5h48v-200h303v200h77v-429q0 -19 -5 -25t-24 -6h-48v215h-303v-215h-77z" />
    <glyph glyph-name="I" unicode="I" horiz-adv-x="243" 
d="M83 0v214v214q0 11 1.5 17.5t7 10.5t18.5 4h50v-460h-77z" />
    <glyph glyph-name="J" unicode="J" horiz-adv-x="294" 
d="M216 149v-45.5t-3 -43.5q-3 -18 -14 -32t-29.5 -22t-43.5 -8q-14 -1 -28.5 -1t-30 2t-32.5 4v48q7 -3 24 -6t27 -3q28 0 40.5 12t12.5 39v367h49q14 0 20 -4t7 -11t1 -18v-278z" />
    <glyph glyph-name="K" unicode="K" horiz-adv-x="523" 
d="M457 -5q-15 0 -28 4t-26 14q-6 6 -20.5 22t-33 36.5t-37.5 42t-34 38.5t-22 25q-11 12 -19 17t-25 9l-53 2v-205h-76v432q0 10 1.5 16t7 9t17.5 3h25.5h24.5v-40.5v-56v-56v-40.5l53 3q14 1 21 6t16 15q22 24 46.5 50t50.5 53t49 52q12 9 25 13t30 4q14 0 23 -2t18 -5
q-2 -1 -13.5 -13.5t-26.5 -28t-26 -27.5q-26 -24 -55 -50t-55.5 -51.5t-49.5 -47.5l3 16q14 -11 39.5 -36.5t58.5 -60t69 -72.5t70 -71q-2 -3 -9 -7.5t-16 -8t-23 -3.5z" />
    <glyph glyph-name="L" unicode="L" horiz-adv-x="477" 
d="M159 460v-416h307v-44h-383v427q0 11 1 18t7 11t19 4h49z" />
    <glyph glyph-name="M" unicode="M" horiz-adv-x="682" 
d="M83 0v421q0 27 5.5 33t27.5 6h55l165 -367l2 -7l2 3l2 7l165 364h58q21 0 27.5 -4.5t6.5 -25.5v-399q0 -14 -2.5 -20t-9 -8.5t-19.5 -2.5h-47v376l-4 -14l-163 -362h-52l-160 355l-3 14v-369h-56z" />
    <glyph glyph-name="N" unicode="N" horiz-adv-x="624" 
d="M83 0v419q0 27 4.5 34t26.5 7h67l298 -381l3 -2v383h59q-1 -1 -2 -7.5t-1 -14v-14.5v-386q0 -26 -6.5 -32t-27.5 -6h-62l-301 384l-1 4v-388h-57z" />
    <glyph glyph-name="O" unicode="O" horiz-adv-x="599" 
d="M296 -7q-60 0 -106 9t-78.5 33.5t-49.5 71.5t-17 124q0 78 18.5 125.5t52.5 71.5t81.5 32t106.5 8t105 -8.5t78.5 -33t49.5 -71.5t17 -124q0 -79 -18.5 -126t-52 -71.5t-81 -32.5t-106.5 -8zM299 36q42 0 75 7.5t55.5 27.5t34 58.5t11.5 101.5q0 62 -11.5 100.5t-34 59
t-55.5 27.5t-75 7q-43 0 -75.5 -7t-54.5 -27.5t-33.5 -59t-11.5 -100.5q0 -63 11.5 -101.5t33.5 -58.5t54.5 -27.5t75.5 -7.5z" />
    <glyph glyph-name="P" unicode="P" horiz-adv-x="560" 
d="M78 0v202v201q0 34 12.5 45t41.5 12q39 1 86.5 1h95t83.5 -2q41 -2 69.5 -16.5t43 -43t14.5 -72.5q0 -50 -17.5 -83t-49 -48t-75.5 -15h-102.5h-104.5q0 17 0.5 26t4 13t12.5 4h44.5h60.5h58q24 0 44.5 9t33 32t12.5 63q0 39 -16 61.5t-53 24.5q-31 3 -69 3.5t-71.5 0
t-56.5 -1.5q-5 0 -14.5 -4.5t-9.5 -19.5v-195.5v-196.5h-77z" />
    <glyph glyph-name="Q" unicode="Q" horiz-adv-x="600" 
d="M296 -7q-60 0 -106 9t-78.5 33.5t-49.5 71.5t-17 124q0 78 18.5 125.5t52.5 71.5t81.5 32t106.5 8t105 -8.5t78.5 -33t49.5 -71.5t17 -124q0 -79 -18.5 -126t-52 -71.5t-81 -32.5t-106.5 -8zM299 36q42 0 75 7.5t55.5 27.5t34 58.5t11.5 101.5q0 62 -11.5 100.5t-34 59
t-55.5 27.5t-75 7q-43 0 -75.5 -7t-54.5 -27.5t-33.5 -59t-11.5 -100.5q0 -63 11.5 -101.5t33.5 -58.5t54.5 -27.5t75.5 -7.5zM491 -80q-11 0 -23 6.5t-25 19.5q-9 9 -26 29t-37.5 44.5t-41.5 49t-38.5 44t-26.5 28.5q4 8 10 11t13 3q10 0 18.5 -5t19.5 -17q10 -9 27.5 -28
t38.5 -43t43.5 -48t44 -44t37.5 -30q-6 -10 -14 -15t-20 -5z" />
    <glyph glyph-name="R" unicode="R" horiz-adv-x="597" 
d="M362 189h-28h-75t-104 -1v-188h-77v408q0 29 12.5 40t41.5 12q15 1 39.5 1t54.5 0.5t61.5 0.5h61t52.5 -1t36 -2q52 -5 76 -34.5t24 -87.5q0 -46 -12.5 -73t-37.5 -40q-3 -3 -9.5 -4.5t-13.5 -1.5v-2h9h8q38 -7 46 -30.5t8 -47.5v-114q0 -10 2 -16.5t3 -7.5h-54
q-14 0 -22 5t-8 24v106q0 31 -13.5 42.5t-47.5 11.5h-33zM155 231q14 0 44 -0.5t65.5 -0.5h65.5h44q33 0 58.5 20.5t25.5 76.5q0 38 -14.5 60.5t-46.5 26.5q-21 3 -52 3.5t-64 0t-61 -1t-42 -0.5q-3 0 -13 -3.5t-10 -20.5v-161z" />
    <glyph glyph-name="S" unicode="S" horiz-adv-x="548" 
d="M52 70q21 -14 54.5 -20.5t70 -8t63.5 -1.5h23t23 1q40 1 70 9.5t47 29t17 58.5q0 46 -24 60t-70 14h-32h-36h-44q-28 0 -57 2.5t-53 13t-38 33t-14 64.5q0 49 17.5 77t49.5 41t73.5 17t88.5 4q28 0 63.5 -1t67 -5t49.5 -14q16 -2 24.5 -10t8.5 -20v-9.5v-10.5v-7
q-9 10 -30 16t-47.5 9.5t-51.5 5t-41 1.5h-59q-36 0 -67 -6t-49.5 -24.5t-18.5 -58.5q0 -31 12.5 -46t35.5 -19.5t55 -4.5h69h49q44 0 78 -7.5t53 -33t19 -79.5q0 -53 -23.5 -84t-64 -44t-92.5 -16q-25 -1 -48 -1.5t-48 0.5q-23 0 -53 2t-57.5 6.5t-45 14t-17.5 25.5v27z
" />
    <glyph glyph-name="T" unicode="T" horiz-adv-x="499" 
d="M22 460h455v-45h-189v-382q0 -19 -4.5 -26t-22.5 -7h-49v415h-190v45z" />
    <glyph glyph-name="U" unicode="U" horiz-adv-x="588" 
d="M515 197q0 -43 -4 -79.5t-24.5 -63.5t-66 -42t-128.5 -15q-66 0 -107.5 9.5t-64 27.5t-32.5 42t-12.5 53.5t-2.5 61.5v229q0 16 1 25t8 12t21 3h47v-303q0 -45 14.5 -69.5t46 -34.5t81.5 -10q78 0 112.5 26.5t34.5 87.5v303h45q15 0 22 -3t8 -12t1 -25v-223z" />
    <glyph glyph-name="V" unicode="V" horiz-adv-x="493" 
d="M243 0q-38 0 -58 18.5t-33 56.5l-130 385h82l111 -353q8 -24 21 -33t27 -9h15l131 395h59l-162 -460h-63z" />
    <glyph glyph-name="W" unicode="W" horiz-adv-x="708" 
d="M189 0q-28 0 -47 5.5t-29 23t-16 52.5l-55 379h72l49 -352q5 -27 13 -36t30 -9h29l86 397h75l91 -397h31q17 0 26 7t12 24l45 366h57l-52 -383q-4 -35 -16 -51.5t-33 -21t-54 -4.5h-64l-76 338l-8 36l-7 -37l-72 -337h-87z" />
    <glyph glyph-name="X" unicode="X" horiz-adv-x="499" 
d="M413 0q-11 0 -20 2t-16.5 7t-15.5 15l-146 185l-197 252h100l148 -198l180 -220q13 -16 21 -26t15 -17h-69zM55 0h-45q10 9 20 20t19 21l173 208l175 212h72l-205 -245l-160 -195q-8 -10 -19 -15.5t-30 -5.5z" />
    <glyph glyph-name="Y" unicode="Y" horiz-adv-x="476" 
d="M199 0v187l-169 248l-18 25h102l140 -219l142 219h70l-22 -28l-169 -245v-152q1 -13 -2 -20.5t-10 -11t-22 -3.5h-42z" />
    <glyph glyph-name="Z" unicode="Z" horiz-adv-x="479" 
d="M123 45h335q0 -16 -1 -25t-5 -13.5t-12.5 -5.5t-24.5 -1h-395v48q1 0 17 18t43 48.5t59.5 67t66.5 74.5t63.5 71.5t50.5 56.5q11 11 19 19.5t11 11.5h-312q0 17 1 26.5t7.5 14t21.5 4.5h384q0 -1 -0.5 -9t-3 -20.5t-9.5 -26t-20 -25.5l-286 -327z" />
    <glyph glyph-name="bracketleft" unicode="[" horiz-adv-x="283" 
d="M118 -23q0 -24 11 -34t40 -10h38v-30h-19.5h-30t-34.5 -0.5t-35 -0.5h-30h-19v632h168v-30h-38q-29 0 -40 -10.5t-11 -34.5v-482z" />
    <glyph glyph-name="backslash" unicode="\" horiz-adv-x="394" 
d="M131 412l94 -286h26l-95 286h-25z" />
    <glyph glyph-name="bracketright" unicode="]" horiz-adv-x="283" 
d="M127 459q0 24 -10.5 34.5t-39.5 10.5h-38v30h168v-632l-168 1v30h38q29 0 39.5 10t10.5 34v482z" />
    <glyph glyph-name="asciicircum" unicode="^" horiz-adv-x="346" 
d="M74 229h-34l113 231h39l114 -231h-38l-95 191z" />
    <glyph glyph-name="underscore" unicode="_" horiz-adv-x="772" 
d="M40 -141h692v-40h-692v40z" />
    <glyph glyph-name="grave" unicode="`" horiz-adv-x="148" 
d="M115 460l-115 86l36 27l113 -113h-34z" />
    <glyph glyph-name="a" unicode="a" horiz-adv-x="483" 
d="M230 -7q-59 0 -96 6t-56.5 20.5t-27 38.5t-7.5 59q0 51 12 78t42 37t80 10q25 0 54.5 -1.5t57 -3t48 -3.5t27.5 -5q0 46 -8 73t-24.5 40t-41 17t-56.5 4q-33 0 -66.5 -2.5t-61.5 -8t-43 -14.5v15q0 21 12.5 29.5t28.5 11.5q19 5 55.5 8t76.5 2q51 0 87.5 -5t60.5 -21.5
t36 -49.5t12 -90v-206q-6 -20 -53 -29.5t-149 -9.5zM230 27q46 0 73.5 3t42 8t18.5 13v149q-9 3 -33.5 6t-51.5 5.5t-46 2.5q-43 0 -69.5 -5t-38 -25t-11.5 -62q0 -33 8 -54t32.5 -31t75.5 -10z" />
    <glyph glyph-name="b" unicode="b" horiz-adv-x="489" 
d="M240 -3q-56 0 -92.5 6.5t-55.5 26.5t-26 59t-7 104l-1 312h69v-110q3 0 19 1t38 1.5t43 1.5t35 1q70 0 109.5 -19t56 -63t17.5 -118q0 -73 -14.5 -114.5t-41 -60.5t-64.5 -23.5t-85 -4.5zM241 38q52 0 80.5 11.5t41 47t12.5 106.5q-1 58 -13.5 91.5t-39.5 49t-71 15.5
q-14 0 -33 -0.5t-38.5 -1.5t-34 -1.5t-17.5 -0.5v-170q0 -48 3.5 -77t14.5 -44t34 -20.5t61 -5.5z" />
    <glyph glyph-name="c" unicode="c" horiz-adv-x="435" 
d="M261 -6q-78 0 -126 16t-69.5 59.5t-21.5 127.5q0 85 21.5 130t69.5 61.5t126 16.5q26 0 48.5 -2t51.5 -7q16 -2 26 -7.5t14 -15t4 -27.5q-11 6 -34.5 10t-49.5 6.5t-46 2.5q-60 0 -95 -15.5t-49.5 -51t-14.5 -97.5t14 -98.5t49 -51.5t96 -15q28 0 53 2.5t45.5 7
t31.5 10.5v-22q0 -15 -18.5 -23.5t-50.5 -12.5t-75 -4z" />
    <glyph glyph-name="d" unicode="d" horiz-adv-x="480" 
d="M44 202q0 81 21.5 124t62.5 59t100 16q17 0 40.5 -1t47.5 -3.5t42 -5.5t25 -6l-21 -10v130h69l-1 -304q0 -68 -9 -108.5t-30.5 -60.5t-60 -27t-96.5 -7q-54 0 -91 7t-58.5 28t-31 61t-9.5 108zM228 38q45 0 71.5 5.5t40.5 22t18 46.5t4 79v162q-11 1 -31.5 2t-42.5 2
t-39 1q-48 0 -78 -12.5t-43.5 -47t-13.5 -99.5q0 -69 10.5 -103.5t35.5 -46t68 -11.5z" />
    <glyph glyph-name="e" unicode="e" horiz-adv-x="465" 
d="M249 -6q-58 0 -97.5 8t-63 30t-34 61.5t-10.5 102.5q0 72 18 118t64 68t129 22q64 0 102.5 -17t56 -52t17.5 -91v-57h-282q0 12 6 20.5t22 8.5h191l-1 29q-1 62 -26.5 90t-88.5 28q-53 0 -83 -16t-42 -52t-12 -98q0 -66 13.5 -100.5t45.5 -47t87 -12.5q19 0 43.5 1.5
t49.5 3.5t44.5 5.5t27.5 7.5v-12q0 -10 -5.5 -19t-22.5 -15q-22 -9 -59.5 -12t-89.5 -3z" />
    <glyph glyph-name="f" unicode="f" horiz-adv-x="287" 
d="M38 352h33v59q0 47 18 71t70 24q24 0 45.5 -1.5t39 -3.5t30.5 -3v-41q-7 3 -20 4.5t-28.5 2.5t-31.5 1q-33 0 -43.5 -13.5t-10.5 -47.5v-52h114v-39h-114v-313h-44q-15 0 -20 6t-5 21v286h-33v39z" />
    <glyph glyph-name="g" unicode="g" horiz-adv-x="488" 
d="M230 -114q-22 0 -49.5 1.5t-52.5 6t-41.5 13t-16.5 21.5v10v8q14 -7 40.5 -13t56.5 -9t52 -3q58 0 90 17t43.5 56.5t8.5 104.5h15q-10 -34 -34 -52t-57 -25t-71 -7q-58 0 -96 13.5t-56 54t-18 119.5q0 64 11.5 103.5t36.5 60.5t65.5 28.5t98.5 7.5q22 0 49 -2t54 -3.5
t47.5 -3.5t27.5 -4q-1 -3 -2 -16.5t-1 -31v-33.5v-237q0 -70 -20.5 -110.5t-64.5 -57.5t-116 -17zM230 57q37 0 66 8.5t47 28t18 52.5v206q-9 2 -41 5.5t-74 3.5q-49 0 -77 -12.5t-40.5 -45t-12.5 -93.5q0 -62 11 -95.5t36 -45.5t67 -12z" />
    <glyph glyph-name="h" unicode="h" horiz-adv-x="483" 
d="M89 0q-20 0 -24.5 6t-4.5 25v473h70v-119q11 5 32.5 7.5t45 4.5t43.5 2q60 0 96 -11.5t53 -33t22.5 -53t5.5 -71.5v-191q0 -17 -2.5 -25.5t-9.5 -11t-21 -2.5h-35v246q0 48 -13.5 73t-40.5 34t-66 9q-15 0 -36.5 -1.5t-42 -4.5t-31.5 -8v-348h-41z" />
    <glyph glyph-name="i" unicode="i" horiz-adv-x="215" 
d="M140 -4q-47 0 -63 25t-16 73v305h70v-301q0 -41 9 -55t32 -14q8 0 20 2t15 3v-31q-3 -1 -11.5 -2.5t-22 -3t-33.5 -1.5zM97 457q-17 0 -27 5t-10 21t9.5 21t26.5 5q19 0 28 -5t8 -21q0 -16 -9 -21t-26 -5z" />
    <glyph glyph-name="j" unicode="j" horiz-adv-x="194" 
d="M45 -90q-24 0 -43 2t-25 3v31q5 -1 20 -2.5t25 -1.5q30 0 37 15t7 55v358q0 11 2 17.5t8 9t18 2.5h42v-391q0 -36 -7 -57.5t-26.5 -31t-57.5 -9.5zM103 457q-17 0 -27 5t-10 21t9.5 21t26.5 5q19 0 28 -5t8 -21q0 -16 -9 -21t-26 -5z" />
    <glyph glyph-name="k" unicode="k" horiz-adv-x="438" 
d="M60 0v478q0 16 5 22t22 6h43v-322l186 197q10 10 20.5 14.5t29.5 5.5q15 0 27 -0.5t22 -1.5q-3 -3 -11 -9.5t-17.5 -14t-17.5 -14.5l-130 -131l172 -193q9 -11 18.5 -20t18.5 -17q-19 -1 -37 -1h-34q-17 0 -26 5t-20 16l-141 159l-60 -56v-123h-70z" />
    <glyph glyph-name="l" unicode="l" horiz-adv-x="213" 
d="M144 -4q-46 0 -66 20.5t-20 73.5v382q0 12 2 19.5t8.5 10.5t18.5 3h42q0 -1 -1 -13t-1 -30v-361q0 -38 8.5 -55t33.5 -17q7 0 19 2t16 3v-31q-6 -1 -19.5 -4t-40.5 -3z" />
    <glyph glyph-name="m" unicode="m" horiz-adv-x="688" 
d="M90 0q-18 0 -24 5.5t-6 23.5v341q8 3 23 8t36 10.5t48.5 9t60.5 3.5q34 0 59 -5.5t43 -19t30 -36.5h-14q8 17 23 29.5t35 19.5t41.5 10t41.5 3q56 0 88 -11t45.5 -37t13.5 -69v-258q0 -16 -6 -21.5t-22 -5.5h-42v143.5v143.5q0 44 -21.5 60.5t-63.5 16.5q-20 0 -42.5 -5
t-38.5 -15t-16 -23v-321h-70v313q0 21 -24.5 35.5t-62.5 14.5q-23 0 -44 -3.5t-35 -10t-16 -17.5v-332h-40z" />
    <glyph glyph-name="n" unicode="n" horiz-adv-x="481" 
d="M83 0q-23 0 -23 24v346q29 13 76.5 23t109.5 10q58 0 94 -8t55 -24t25.5 -41.5t6.5 -61.5v-238q0 -11 -2.5 -18t-9 -9.5t-19.5 -2.5h-39v282q0 40 -26 59t-85 19q-19 0 -41.5 -3t-42.5 -8.5t-33 -14.5v-334h-46z" />
    <glyph glyph-name="o" unicode="o" horiz-adv-x="486" 
d="M244 -6q-46 0 -82.5 7t-63 28t-40.5 62t-14 108t14 108t40.5 62t63 28t82.5 7q45 0 81.5 -7t62.5 -28t40 -62t14 -108q0 -68 -14 -109t-40 -61.5t-62.5 -27.5t-81.5 -7zM244 33q40 0 68.5 12t43.5 47t15 107t-15 107t-43.5 47t-68.5 12t-68.5 -12t-44 -47t-15.5 -107
t15.5 -107t44 -47t68.5 -12z" />
    <glyph glyph-name="p" unicode="p" horiz-adv-x="494" 
d="M61 -107l1 422q0 28 -0.5 48.5t-1.5 26.5q7 2 28 4t48 3.5t55.5 3t51.5 1.5q81 0 126.5 -21.5t64.5 -67.5t15 -119q-2 -72 -19 -115.5t-55 -63t-104 -19.5q-40 0 -72.5 8t-52.5 27.5t-26 56.5l12 11v-206h-71zM257 38q62 0 92 37t30 125q2 89 -28 125t-108 36
q-15 0 -37.5 -1t-43 -2.5t-30.5 -3.5v-200q0 -47 15.5 -72t43.5 -34.5t66 -9.5z" />
    <glyph glyph-name="q" unicode="q" horiz-adv-x="486" 
d="M362 -107v110q-9 -1 -25.5 -1.5t-36 -1.5t-38.5 -1.5t-34 -0.5q-64 0 -104.5 15t-60 57.5t-19.5 122.5q0 65 10 105t32.5 62.5t61 31.5t96.5 9q26 0 57.5 -0.5t60.5 -1t49.5 0t23.5 1.5q-2 -7 -2.5 -19.5t-0.5 -33.5v-455h-70zM242 38q12 0 31 1t38.5 2t33.5 2t17 1v314
q-12 0 -37 1t-78 1q-52 0 -81 -12.5t-40.5 -48.5t-11.5 -107q0 -59 14 -92.5t42.5 -47.5t71.5 -14z" />
    <glyph glyph-name="r" unicode="r" horiz-adv-x="391" 
d="M130 0h-44q-13 0 -19.5 6.5t-6.5 24.5v348q22 7 60.5 15t95.5 8q54 0 85.5 -7.5t46 -20.5t19 -31.5t4.5 -41.5h-67l-1 14q-1 23 -15 33.5t-33 13t-38 2.5q-29 0 -51.5 -5t-35.5 -13v-346z" />
    <glyph glyph-name="s" unicode="s" horiz-adv-x="450" 
d="M200 -4q-17 0 -42.5 1t-52 4.5t-47.5 10.5q-10 4 -16 8t-8.5 14t-2.5 30q22 -11 52 -17.5t60 -8.5t50 -2q30 0 58.5 2.5t51.5 11t36.5 25.5t13.5 45q0 41 -21 52.5t-57 11.5h-101q-37 0 -69.5 4.5t-53 25t-20.5 69.5q0 53 26 79t73.5 34t110.5 8q23 0 55 -1t61 -6
q20 -3 33.5 -7.5t20 -12.5t6.5 -23v-20q-9 10 -30 16t-48.5 9t-56.5 3.5t-54 0.5q-32 0 -62 -4t-48.5 -19.5t-18.5 -52.5q0 -28 12 -41t32.5 -16.5t46.5 -3.5h103q38 0 67.5 -6.5t46 -29t16.5 -70.5q0 -53 -29 -80t-79.5 -35.5t-114.5 -8.5z" />
    <glyph glyph-name="t" unicode="t" horiz-adv-x="254" 
d="M160 -3q-34 0 -53 8.5t-28 29.5t-9 57v268h-38v39h38v72q0 15 2.5 22.5t8.5 9.5t17 2h43q0 -2 -0.5 -8.5t-0.5 -18.5v-79h93v-39h-93v-260q0 -39 8 -55t36 -16q11 0 23 2t17 4v-31q-6 -1 -23 -4t-41 -3z" />
    <glyph glyph-name="u" unicode="u" horiz-adv-x="476" 
d="M121 399v-271q0 -50 28.5 -70.5t87.5 -20.5q63 0 90.5 21.5t27.5 69.5v271h6.5h12h12.5h8q12 0 19 -1.5t9.5 -7.5t2.5 -20v-229q0 -50 -15 -82.5t-56 -48t-118 -15.5q-70 0 -110.5 13t-57.5 44t-17 84v234q0 17 5.5 23t21.5 6h21.5h21.5z" />
    <glyph glyph-name="v" unicode="v" horiz-adv-x="379" 
d="M187 0q-17 0 -29 4.5t-20.5 15.5t-15.5 30l-118 349h73l88 -286q8 -25 18.5 -33.5t38.5 -8.5q24 77 45.5 154t44.5 153q3 10 9 15.5t19 5.5h27l-129 -399h-51z" />
    <glyph glyph-name="w" unicode="w" horiz-adv-x="675" 
d="M202 -3q-52 0 -85.5 8.5t-49.5 36t-16 83.5v237q0 22 5 29.5t23 7.5h42v-277q0 -51 21.5 -67t68.5 -16q49 0 70.5 17t21.5 51l-1 292h71v-293q0 -33 21.5 -50t70.5 -17q47 0 68.5 16t21.5 67v277h40q20 0 24.5 -7t4.5 -30v-237q0 -55 -16 -82.5t-49.5 -36.5t-87.5 -9
q-56 0 -93.5 17.5t-45.5 64.5h12q-6 -31 -23.5 -49.5t-47 -25.5t-71.5 -7z" />
    <glyph glyph-name="x" unicode="x" horiz-adv-x="401" 
d="M7 0l152 198l-126 170q-7 11 -12.5 19t-12.5 13h90l113 -152l116 151h56q-4 -4 -8 -9t-9 -12l-124 -170l154 -208h-57q-16 0 -28 5.5t-22 18.5l-103 136l-123 -160h-56z" />
    <glyph glyph-name="y" unicode="y" horiz-adv-x="471" 
d="M230 -111q-45 0 -85 4.5t-65 13.5t-25 20v25q16 -9 42.5 -15t56.5 -9.5t58 -3.5q48 0 78.5 13t46 42t15.5 73v54q-9 -20 -29 -34t-49.5 -20t-68.5 -6q-71 0 -104.5 20t-43 57t-9.5 86v151q0 15 1.5 23.5t7 12t18.5 3.5h44v-49.5v-46v-45.5v-49q0 -57 15.5 -84t42 -34
t58.5 -7t58 8.5t42 33.5t16 75v198h43q15 0 21.5 -4.5t6.5 -25.5v-309q0 -89 -46.5 -130t-145.5 -41z" />
    <glyph glyph-name="z" unicode="z" horiz-adv-x="399" 
d="M102 41h277l3 -15q4 -14 -3.5 -20t-24.5 -6h-338v40l268 318h-254v16q0 12 6 18.5t17 6.5h324q1 -11 -3 -22.5t-12.5 -24t-20.5 -25.5z" />
    <glyph glyph-name="braceleft" unicode="{" horiz-adv-x="325" 
d="M174 65q0 -44 17 -59.5t49 -15.5h21.5h23.5v-8v-11.5v-8.5q-62 0 -99.5 2.5t-57 15t-26 42t-6.5 82.5q0 57 -5 82.5t-17 32.5t-34 7v7.5v11v7.5q23 0 35 8.5t16.5 36t4.5 83.5q0 53 8.5 82.5t29 42t57.5 15t94 2.5v-8v-11.5v-8.5h-47q-31 0 -47.5 -13.5t-16.5 -61.5v-58
q0 -46 -9.5 -72t-23 -37t-25.5 -12q12 -1 25.5 -11t23 -32.5t9.5 -63.5v-68z" />
    <glyph glyph-name="bar" unicode="|" horiz-adv-x="174" 
d="M120 460v-619h-66v619h66z" />
    <glyph glyph-name="braceright" unicode="}" horiz-adv-x="325" 
d="M151 65v68q0 41 10 63.5t23.5 32.5t26.5 11q-12 1 -26 12t-24 37t-10 72v58q0 48 -16 61.5t-48 13.5h-47v8.5v11.5v8q57 0 94 -2.5t57.5 -15t28.5 -42t8 -82.5q0 -56 5 -83.5t17.5 -36t34.5 -8.5v-7.5v-11v-7.5q-21 0 -33.5 -7t-18 -32.5t-5.5 -82.5q0 -53 -6 -82.5
t-25 -42t-56.5 -15t-100.5 -2.5v8.5v11.5v8h23.5h21.5q32 0 49 15.5t17 59.5z" />
    <glyph glyph-name="asciitilde" unicode="~" horiz-adv-x="377" 
d="M45 490l5.5 9t15.5 21t24 21.5t31 9.5q16 1 33 -4.5t34 -13.5t33.5 -13.5t31.5 -5.5q18 1 30 10t19.5 19t10.5 15l17 -19l-5 -9t-14.5 -21t-24 -21.5t-31.5 -9.5q-17 -1 -34 4.5t-34 13.5t-33.5 14t-32.5 5q-16 0 -28 -9t-19.5 -19t-11.5 -15z" />
    <glyph glyph-name="uni00A0" unicode="&#xa0;" horiz-adv-x="257" 
 />
    <glyph glyph-name="exclamdown" unicode="&#xa1;" horiz-adv-x="187" 
d="M112 229l17 -310q1 -21 -6 -31.5t-26 -10.5h-43l2 94l19 258h37zM134 356q0 -19 -12 -24t-29 -5q-16 0 -27 5t-11 24q0 14 5 19.5t14 7t20 1.5q10 0 19 -1.5t15 -7t6 -19.5z" />
    <glyph glyph-name="cent" unicode="&#xa2;" horiz-adv-x="478" 
d="M255 53q-55 0 -95 10.5t-65.5 33.5t-38 62.5t-12.5 96.5q0 65 18 111.5t63 71.5t128 25q58 0 95.5 -8.5t59.5 -26t30.5 -45t8.5 -65.5h-58q1 63 -31.5 87.5t-99.5 24.5q-55 0 -87 -20t-46 -59t-14 -95q1 -69 18.5 -105.5t50.5 -50t79 -13.5q42 0 70.5 8.5t44 33
t15.5 69.5h59q0 -45 -11.5 -73.5t-35.5 -44.5t-60.5 -22t-85.5 -6zM123 0l223 523h28l-221 -523h-30z" />
    <glyph glyph-name="sterling" unicode="&#xa3;" horiz-adv-x="493" 
d="M46 219h57v147q0 61 21.5 93t63 44t100.5 12q90 0 131.5 -32.5t41.5 -90.5v-38h-64v42q0 35 -15 55t-39.5 28t-52.5 8t-54.5 -7.5t-44 -32.5t-17.5 -80v-148h102v-24h-101v-45q0 -30 -5 -54t-12 -38.5t-13 -17.5h315v-40h-414v28q18 0 30.5 14t19.5 45t7 83v25h-57v24z
" />
    <glyph glyph-name="currency" unicode="&#xa4;" horiz-adv-x="487" 
d="M363 469q22 -23 29 -61.5t1 -77.5t-24 -65l65 -78h-26l-73 52q-23 -9 -56.5 -12t-67 0.5t-59.5 12.5l-74 -53h-26l66 81q-16 25 -21.5 61.5t1.5 73.5t26 62l-72 90h26l84 -64q36 13 78 12.5t85 -10.5l83 62h26zM130 364q0 -49 15.5 -73t42 -31.5t59.5 -7.5t57.5 7.5
t39 32t14.5 72.5q0 49 -14.5 73t-39 31.5t-57.5 7.5t-59.5 -7.5t-42 -31t-15.5 -73.5z" />
    <glyph glyph-name="yen" unicode="&#xa5;" horiz-adv-x="476" 
d="M199 0v187l-169 248l-18 25h102l140 -219l142 219h70l-22 -28l-169 -245v-152q1 -13 -2 -20.5t-10 -11t-22 -3.5h-42zM100 168h273v-22h-273v22zM100 110h273v-22h-273v22z" />
    <glyph glyph-name="brokenbar" unicode="&#xa6;" horiz-adv-x="179" 
d="M111 93v-252h-66v252h66zM111 460v-252h-66v252h66z" />
    <glyph glyph-name="section" unicode="&#xa7;" horiz-adv-x="533" 
d="M65 -100q12 -8 30.5 -13t40.5 -7.5t43.5 -3.5t35.5 -1q42 0 73.5 3t54 11.5t33.5 26.5t11 47q0 43 -24 54.5t-74 11.5q-22 0 -47.5 -0.5t-48.5 0.5q-22 0 -45 3t-42.5 13t-31 32t-11.5 59q0 58 28 84.5t76 35.5q-21 8 -33.5 29.5t-12.5 62.5t18 64.5t48.5 35t69.5 14.5
t80 3q26 0 56 -1t57 -6t44 -16t17 -31v-11.5v-8.5q-10 12 -29.5 18.5t-42 9.5t-43.5 3.5t-35 0.5q-41 0 -72.5 -2t-53 -9t-32 -23t-10.5 -45t12 -42.5t37.5 -17t64.5 -3.5h43h43q37 0 66 -7.5t44.5 -30t15.5 -68.5q0 -43 -15.5 -69t-41 -38t-55.5 -12q30 -2 49 -26t19 -69
q0 -53 -29 -79.5t-81.5 -36t-121.5 -9.5q-11 0 -31.5 1t-45.5 3t-47 6t-36.5 11t-15.5 18q-1 7 -1.5 15t-0.5 10zM362 77q39 0 61 26t22 60q0 26 -13 47t-48 22l-102 1h-20h-23h-10q-52 -4 -73 -28t-22 -51q-2 -41 16.5 -59t57.5 -18h154z" />
    <glyph glyph-name="dieresis" unicode="&#xa8;" horiz-adv-x="389" 
d="M174 459q-13 0 -23.5 4.5t-10.5 23.5q0 18 11 21.5t23 3.5q13 0 23.5 -4t10.5 -21q0 -19 -9.5 -23.5t-24.5 -4.5zM34 459q-14 0 -24 4.5t-10 23.5q0 18 10.5 21.5t23.5 3.5t23.5 -4t10.5 -21q0 -18 -10 -23t-24 -5z" />
    <glyph glyph-name="copyright" unicode="&#xa9;" horiz-adv-x="578" 
d="M30 244q0 72 34.5 125.5t93.5 83t130 29.5q72 0 130.5 -29.5t93.5 -83t35 -125.5q0 -71 -35 -127.5t-93.5 -89t-130.5 -32.5q-71 0 -130 32.5t-93.5 89t-34.5 127.5zM58 244q0 -64 31 -114.5t83 -79.5t116 -29q63 0 115 29t83 79.5t31 114.5q0 65 -31 112t-83 73t-115 26
q-64 0 -116 -26t-83 -73t-31 -112zM288 374q34 0 60 -5t41 -21.5t15 -51.5v-6.5v-5.5h-31q0 22 -5 36t-16 21q-11 10 -27 13t-38 3q-26 0 -45.5 -8t-29.5 -24q-10 -14 -14.5 -35t-4.5 -45q0 -25 5.5 -45.5t18.5 -35.5q20 -28 69 -28q22 0 39 3t28 13q10 7 15 18t5 28v5v5h32
v-6v-7q0 -34 -16 -50.5t-43 -21.5t-60 -5q-47 0 -75.5 12.5t-41.5 40t-13 72.5q0 42 12 71t41 44.5t79 15.5z" />
    <glyph glyph-name="ordfeminine" unicode="&#xaa;" horiz-adv-x="483" 
d="M230 -7q-59 0 -96 6t-56.5 20.5t-27 38.5t-7.5 59q0 51 12 78t42 37t80 10q25 0 54.5 -1.5t57 -3t48 -3.5t27.5 -5q0 46 -8 73t-24.5 40t-41 17t-56.5 4q-33 0 -66.5 -2.5t-61.5 -8t-43 -14.5v15q0 21 12.5 29.5t28.5 11.5q19 5 55.5 8t76.5 2q51 0 87.5 -5t60.5 -21.5
t36 -49.5t12 -90v-206q-6 -20 -53 -29.5t-149 -9.5zM230 27q46 0 73.5 3t42 8t18.5 13v149q-9 3 -33.5 6t-51.5 5.5t-46 2.5q-43 0 -69.5 -5t-38 -25t-11.5 -62q0 -33 8 -54t32.5 -31t75.5 -10z" />
    <glyph glyph-name="guillemotleft" unicode="&#xab;" horiz-adv-x="386" 
d="M92 264l92 -186h-42l-102 186l102 187h41zM246 264l92 -186h-42l-102 186l102 187h41z" />
    <glyph glyph-name="logicalnot" unicode="&#xac;" horiz-adv-x="553" 
d="M472 270h-432v55h467v-204h-35v149z" />
    <glyph glyph-name="uni00AD" unicode="&#xad;" horiz-adv-x="324" 
d="M48 215h228v-40h-228v40z" />
    <glyph glyph-name="registered" unicode="&#xae;" horiz-adv-x="400" 
d="M75 435q0 -36 18 -66t47.5 -48.5t65.5 -18.5q37 0 67 18.5t47 48.5t17 66q0 37 -17 66.5t-47 47.5t-67 18q-36 0 -65.5 -18t-47.5 -47.5t-18 -66.5zM50 435q0 43 21 78.5t56.5 56.5t78.5 21q44 0 79 -21t56 -56.5t21 -78.5t-21 -78.5t-56 -56.5t-79 -21q-43 0 -78.5 21
t-56.5 56.5t-21 78.5zM242 426l-9.5 0.5t-26.5 0t-37 -0.5v-69h-22v146q0 10 4.5 13.5t13.5 3.5q5 0 13 0.5t17.5 0.5h19.5h19.5t17 -0.5t12.5 -0.5q17 -2 25 -12.5t8 -30.5q0 -16 -4.5 -25.5t-12.5 -14.5q-2 -1 -4 -1h-3v-1h2t3 -1q12 -2 15 -10.5t3 -16.5v-42q0 -2 0.5 -5
t1.5 -3h-15q-5 0 -7 2t-2 8v40q0 11 -4.5 15t-15.5 4h-12zM169 439h15.5h22.5h22.5h15.5q11 0 20 7.5t9 27.5q0 14 -4.5 22.5t-16.5 9.5q-7 1 -18 1.5t-22.5 0.5t-21 -0.5t-14.5 -0.5q-1 0 -4.5 -1.5t-3.5 -6.5v-60z" />
    <glyph glyph-name="macron" unicode="&#xaf;" horiz-adv-x="315" 
d="M3 461v33h222v-33h-222z" />
    <glyph glyph-name="degree" unicode="&#xb0;" horiz-adv-x="301" 
d="M42 506q0 40 15.5 66t40.5 38t56 12q30 0 54.5 -12.5t38.5 -38t14 -65.5t-14.5 -67.5t-39 -41t-55.5 -13.5t-56 13.5t-39.5 41t-14.5 67.5zM89 507q0 -37 18 -55.5t44 -18.5q27 0 44.5 18.5t17.5 55.5q0 34 -17.5 51t-43.5 17t-44.5 -16.5t-18.5 -51.5z" />
    <glyph glyph-name="plusminus" unicode="&#xb1;" horiz-adv-x="473" 
d="M66 41h340v-41h-340v41zM65 313h150v146h37v-146h153v-44h-153v-151h-37v151h-150v44z" />
    <glyph glyph-name="uni00B2" unicode="&#xb2;" horiz-adv-x="273" 
d="M20 255v28.5v28.5q0 40 9 59t28.5 25.5t53.5 6.5h23h23q20 0 33.5 10.5t13.5 38.5q0 27 -10.5 36t-25.5 12q-11 1 -20.5 2t-24.5 1q-18 0 -34.5 -2t-27.5 -5q-6 -1 -13.5 -3t-14.5 -4.5t-10 -6.5v23q0 11 15 17.5t39 9.5t51 3q36 0 64 -5t43.5 -22t15.5 -55
q0 -35 -11.5 -52t-30.5 -23t-41 -6h-20h-26q-26 0 -38.5 -10t-12.5 -40v-35h182v-32h-233z" />
    <glyph glyph-name="uni00B3" unicode="&#xb3;" horiz-adv-x="268" 
d="M126 251q-25 0 -53.5 2.5t-44.5 8.5q-7 2 -11.5 7t-3.5 14v16q21 -7 47.5 -11t58.5 -4q39 0 58.5 10.5t19.5 42.5q0 29 -11 36.5t-25 7.5h-112v29h112q15 0 23 10t8 33q0 30 -16 39t-45 9h-8.5h-8.5q-16 0 -34.5 -2t-34 -5t-24.5 -6v17q0 10 4.5 14.5t13.5 6.5
q12 4 36.5 6.5t55.5 2.5q45 0 68.5 -7.5t33 -24.5t9.5 -48q0 -23 -8 -38.5t-23 -17.5v-1q20 0 29 -15t9 -48t-12.5 -51.5t-39.5 -25.5t-71 -7z" />
    <glyph glyph-name="acute" unicode="&#xb4;" horiz-adv-x="233" 
d="M2 460l112 113l37 -27l-116 -86h-33z" />
    <glyph glyph-name="uni03BC" unicode="&#xb5;" horiz-adv-x="471" 
d="M231 -2q-43 0 -74.5 12t-42.5 34v-47v-33v-47v-16v-18t0.5 -17.5t0.5 -14.5h-23.5h-22.5q-13 0 -19 8.5t-6 24.5v162.5v151v162.5q0 20 4.5 28t13 10t20.5 1h5h11.5h11.5h5v-5.5v-8.5v-123.5v-124.5q1 -43 17 -65.5t41.5 -30t57.5 -7.5t58 7t41.5 31.5t15.5 77.5v115v115
q0 6 -0.5 11t-0.5 8h6h11h11h6q14 1 22 -1t12 -11t4 -34v-178q0 -44 -5.5 -77t-23.5 -55t-55 -33.5t-102 -11.5z" />
    <glyph glyph-name="paragraph" unicode="&#xb6;" horiz-adv-x="381" 
d="M295 528v-650h-79v370q-65 0 -101 15t-50 47.5t-14 83.5q0 49 15 78.5t51 42.5t98 13h80z" />
    <glyph glyph-name="periodcentered" unicode="&#xb7;" horiz-adv-x="192" 
d="M57 223q0 19 12 24t29 5t28 -5t11 -24q0 -13 -5.5 -19t-14.5 -7.5t-20 -1.5q-10 0 -19 1.5t-15 7.5t-6 19z" />
    <glyph glyph-name="cedilla" unicode="&#xb8;" horiz-adv-x="256" 
d="M58 -183q-28 0 -38 4.5t-10 18.5h20.5h41.5q29 0 39 7.5t10 24.5q0 23 -9 29.5t-43 6.5h-34q-5 0 -10.5 2t-8.5 5t-2 8q3 4 12 15t20.5 23.5t22 24t15.5 16.5h24l-54 -75q45 3 68.5 0t31.5 -15.5t8 -40.5q0 -27 -12 -38.5t-35.5 -13.5t-56.5 -2z" />
    <glyph glyph-name="uni00B9" unicode="&#xb9;" horiz-adv-x="155" 
d="M64 255v220q0 19 -5.5 25.5t-17.5 6.5q-9 0 -19 -2.5t-20 -5.5v27q15 2 31.5 5t34.5 3q28 0 38.5 -11.5t10.5 -37.5l1 -230h-54z" />
    <glyph glyph-name="ordmasculine" unicode="&#xba;" horiz-adv-x="486" 
d="M244 -6q-46 0 -82.5 7t-63 28t-40.5 62t-14 108t14 108t40.5 62t63 28t82.5 7q45 0 81.5 -7t62.5 -28t40 -62t14 -108q0 -68 -14 -109t-40 -61.5t-62.5 -27.5t-81.5 -7zM244 33q40 0 68.5 12t43.5 47t15 107t-15 107t-43.5 47t-68.5 12t-68.5 -12t-44 -47t-15.5 -107
t15.5 -107t44 -47t68.5 -12z" />
    <glyph glyph-name="guillemotright" unicode="&#xbb;" horiz-adv-x="386" 
d="M41 451h41l102 -187l-102 -186h-42l92 186zM194 451h42l101 -187l-101 -186h-43l92 186z" />
    <glyph glyph-name="onequarter" unicode="&#xbc;" horiz-adv-x="536" 
d="M64 255v220q0 19 -5.5 25.5t-17.5 6.5q-9 0 -19 -2.5t-20 -5.5v27q15 2 31.5 5t34.5 3q28 0 38.5 -11.5t10.5 -37.5l1 -230h-54zM405 525l-305 -600h-45l304 600h46zM432 -73v61h-171v29l156 169q12 11 30 15t35 4q0 -1 -0.5 -9.5t-0.5 -14.5v-161h38v-32h-38v-61h-49z
M313 20h118v138z" />
    <glyph glyph-name="onehalf" unicode="&#xbd;" horiz-adv-x="579" 
d="M64 255v220q0 19 -5.5 25.5t-17.5 6.5q-9 0 -19 -2.5t-20 -5.5v27q15 2 31.5 5t34.5 3q28 0 38.5 -11.5t10.5 -37.5l1 -230h-54zM405 525l-305 -600h-45l304 600h46zM325 -73v28.5v28.5q0 40 9 59t28.5 25.5t53.5 6.5h23h23q20 0 33.5 10.5t13.5 38.5q0 27 -10.5 36
t-25.5 12q-11 1 -20.5 2t-24.5 1q-18 0 -34.5 -2t-27.5 -5q-6 -1 -13.5 -3t-14.5 -4.5t-10 -6.5v23q0 11 15 17.5t39 9.5t51 3q36 0 64 -5t43.5 -22t15.5 -55q0 -35 -11.5 -52t-30.5 -23t-41 -6h-20h-26q-26 0 -38.5 -10t-12.5 -40v-35h182v-32h-233z" />
    <glyph glyph-name="threequarters" unicode="&#xbe;" horiz-adv-x="649" 
d="M126 251q-25 0 -53.5 2.5t-44.5 8.5q-7 2 -11.5 7t-3.5 14v16q21 -7 47.5 -11t58.5 -4q39 0 58.5 10.5t19.5 42.5q0 29 -11 36.5t-25 7.5h-112v29h112q15 0 23 10t8 33q0 30 -16 39t-45 9h-8.5h-8.5q-16 0 -34.5 -2t-34 -5t-24.5 -6v17q0 10 4.5 14.5t13.5 6.5
q12 4 36.5 6.5t55.5 2.5q45 0 68.5 -7.5t33 -24.5t9.5 -48q0 -23 -8 -38.5t-23 -17.5v-1q20 0 29 -15t9 -48t-12.5 -51.5t-39.5 -25.5t-71 -7zM518 525l-305 -600h-45l304 600h46zM545 -73v61h-171v29l156 169q12 11 30 15t35 4q0 -1 -0.5 -9.5t-0.5 -14.5v-161h38v-32h-38
v-61h-49zM426 20h118v138z" />
    <glyph glyph-name="questiondown" unicode="&#xbf;" horiz-adv-x="398" 
d="M279 253h32q0 -10 1 -25.5t3 -32.5t3.5 -32.5t1.5 -26.5q-9 1 -23 1t-28.5 0.5t-25.5 -0.5q-73 -1 -105 -20.5t-32 -78.5q0 -51 25.5 -71t97.5 -20h64q12 0 24 1t22.5 2t17.5 2t8 1v-7.5t-0.5 -9t-3 -8.5t-6.5 -5q-4 -7 -21 -9t-36 -2q-14 0 -35 -0.5t-43.5 0t-37.5 0.5
q-50 1 -83 10.5t-49.5 36.5t-16.5 79q0 49 18 75.5t50.5 38t77 14t95.5 2.5zM328 344q0 -19 -11.5 -24t-28.5 -5q-16 0 -27 5t-11 24q0 14 5 19.5t14.5 7t19.5 1.5t19 -1.5t14.5 -7t5.5 -19.5z" />
    <glyph glyph-name="Agrave" unicode="&#xc0;" horiz-adv-x="514" 
d="M17 0l133 393q12 34 33 52.5t72 18.5q46 0 68 -17t35 -54l136 -393h-83l-43 127h-250l-41 -127h-60zM131 162h223l-66 201q-5 15 -13 26.5t-32 11.5q-27 0 -35.5 -12t-12.5 -26zM264 521l-104 68l36 27l102 -95h-34z" />
    <glyph glyph-name="Aacute" unicode="&#xc1;" horiz-adv-x="514" 
d="M17 0l133 393q12 34 33 52.5t72 18.5q46 0 68 -17t35 -54l136 -393h-83l-43 127h-250l-41 -127h-60zM131 162h223l-66 201q-5 15 -13 26.5t-32 11.5q-27 0 -35.5 -12t-12.5 -26zM223 521l102 95l36 -27l-105 -68h-33z" />
    <glyph glyph-name="Acircumflex" unicode="&#xc2;" horiz-adv-x="514" 
d="M17 0l133 393q12 34 33 52.5t72 18.5q46 0 68 -17t35 -54l136 -393h-83l-43 127h-250l-41 -127h-60zM131 162h223l-66 201q-5 15 -13 26.5t-32 11.5q-27 0 -35.5 -12t-12.5 -26zM154 521l87 95h27l88 -95h-35l-66 61l-67 -61h-34z" />
    <glyph glyph-name="Atilde" unicode="&#xc3;" horiz-adv-x="514" 
d="M17 0l133 393q12 34 33 52.5t72 18.5q46 0 68 -17t35 -54l136 -393h-83l-43 127h-250l-41 -127h-60zM131 162h223l-66 201q-5 15 -13 26.5t-32 11.5q-27 0 -35.5 -12t-12.5 -26zM304 520q-17 0 -33.5 9l-33 18t-32.5 9q-18 0 -28 -10.5t-14 -17.5l-17 14l5 10t11.5 17
t18 16.5t25.5 7.5q18 1 34 -9t31.5 -19t31.5 -9q21 0 31.5 12t14.5 20l17 -14q-1 -3 -5 -11t-11.5 -18t-19 -17.5t-26.5 -7.5z" />
    <glyph glyph-name="Adieresis" unicode="&#xc4;" horiz-adv-x="514" 
d="M17 0l133 393q12 34 33 52.5t72 18.5q46 0 68 -17t35 -54l136 -393h-83l-43 127h-250l-41 -127h-60zM131 162h223l-66 201q-5 15 -13 26.5t-32 11.5q-27 0 -35.5 -12t-12.5 -26zM325 520q-13 0 -23.5 4.5t-10.5 23.5q0 18 11 21.5t23 3.5q13 0 23.5 -4t10.5 -21
q0 -19 -9.5 -23.5t-24.5 -4.5zM185 520q-14 0 -24 4.5t-10 23.5q0 18 10.5 21.5t23.5 3.5t23.5 -4t10.5 -21q0 -18 -10 -23t-24 -5z" />
    <glyph glyph-name="Aring" unicode="&#xc5;" horiz-adv-x="514" 
d="M17 0l133 393q12 34 33 52.5t72 18.5q46 0 68 -17t35 -54l136 -393h-83l-43 127h-250l-41 -127h-60zM131 162h223l-66 201q-5 15 -13 26.5t-32 11.5q-27 0 -35.5 -12t-12.5 -26zM255 522q-26 0 -42.5 5t-24 15.5t-7.5 29.5q0 18 7.5 28.5t24 14.5t42.5 4q28 0 44.5 -4
t23.5 -14.5t7 -28.5q0 -19 -7 -29.5t-23.5 -15.5t-44.5 -5zM255 545q21 0 31.5 5t10.5 21t-10.5 21t-31.5 5q-19 0 -30.5 -5t-11.5 -21t11 -21t31 -5z" />
    <glyph glyph-name="AE" unicode="&#xc6;" horiz-adv-x="777" 
d="M9 0q29 43 55 82.5t50.5 77t49 75.5t51.5 78t57 85q19 29 38.5 42t38 16.5t36.5 3.5h371v-23v-23h-338v-151h310v-46h-155h-155v-171h338v-46h-206h-207v124h-199q-20 -31 -39.5 -62t-39.5 -62h-56zM171 160h86.5h85.5v118v117q-1 -1 -3 -1.5t-4 -1.5q-14 -1 -23.5 -10.5
t-18.5 -23.5q-31 -50 -61.5 -99.5t-61.5 -98.5z" />
    <glyph glyph-name="Ccedilla" unicode="&#xc7;" horiz-adv-x="531" 
d="M45 230q0 71 14.5 117t46.5 72t82.5 36t122.5 10q37 0 71.5 -2.5t70.5 -8.5q30 -5 38.5 -13.5t8.5 -23.5v-25q-19 9 -53 15.5t-70 9.5t-64 3q-70 0 -111.5 -16.5t-59.5 -57.5t-18 -116t17 -116.5t59.5 -58.5t117.5 -17q27 0 61 3t66 9.5t55 13.5v-23q0 -13 -9 -22.5
t-40 -13.5q-35 -7 -70 -9.5t-72 -2.5q-74 0 -125 10.5t-81.5 36t-44 71.5t-13.5 119zM272 -183q-28 0 -38 4.5t-10 18.5h20.5h41.5q29 0 39 7.5t10 24.5q0 23 -9 29.5t-43 6.5h-34q-5 0 -10.5 2t-8.5 5t-2 8q3 4 12 15t20.5 23.5t22 24t15.5 16.5h24l-54 -75q45 3 68.5 0
t31.5 -15.5t8 -40.5q0 -27 -12 -38.5t-35.5 -13.5t-56.5 -2z" />
    <glyph glyph-name="Egrave" unicode="&#xc8;" horiz-adv-x="545" 
d="M83 0v428q0 18 5 25t22 7h397v-44h-347v-153h318v-44h-318v-175h347v-44h-424zM300 521l-104 68l36 27l102 -95h-34z" />
    <glyph glyph-name="Eacute" unicode="&#xc9;" horiz-adv-x="545" 
d="M83 0v428q0 18 5 25t22 7h397v-44h-347v-153h318v-44h-318v-175h347v-44h-424zM258 521l102 95l36 -27l-105 -68h-33z" />
    <glyph glyph-name="Ecircumflex" unicode="&#xca;" horiz-adv-x="545" 
d="M83 0v428q0 18 5 25t22 7h397v-44h-347v-153h318v-44h-318v-175h347v-44h-424zM189 521l87 95h27l88 -95h-35l-66 61l-67 -61h-34z" />
    <glyph glyph-name="Edieresis" unicode="&#xcb;" horiz-adv-x="545" 
d="M83 0v428q0 18 5 25t22 7h397v-44h-347v-153h318v-44h-318v-175h347v-44h-424zM360 520q-13 0 -23.5 4.5t-10.5 23.5q0 18 11 21.5t23 3.5q13 0 23.5 -4t10.5 -21q0 -19 -9.5 -23.5t-24.5 -4.5zM220 520q-14 0 -24 4.5t-10 23.5q0 18 10.5 21.5t23.5 3.5t23.5 -4
t10.5 -21q0 -18 -10 -23t-24 -5z" />
    <glyph glyph-name="Igrave" unicode="&#xcc;" horiz-adv-x="243" 
d="M83 0v214v214q0 11 1.5 17.5t7 10.5t18.5 4h50v-460h-77zM130 521l-104 68l36 27l102 -95h-34z" />
    <glyph glyph-name="Iacute" unicode="&#xcd;" horiz-adv-x="243" 
d="M83 0v214v214q0 11 1.5 17.5t7 10.5t18.5 4h50v-460h-77zM89 521l102 95l36 -27l-105 -68h-33z" />
    <glyph glyph-name="Icircumflex" unicode="&#xce;" horiz-adv-x="243" 
d="M83 0v214v214q0 11 1.5 17.5t7 10.5t18.5 4h50v-460h-77zM20 521l87 95h27l88 -95h-35l-66 61l-67 -61h-34z" />
    <glyph glyph-name="Idieresis" unicode="&#xcf;" horiz-adv-x="243" 
d="M83 0v214v214q0 11 1.5 17.5t7 10.5t18.5 4h50v-460h-77zM191 520q-13 0 -23.5 4.5t-10.5 23.5q0 18 11 21.5t23 3.5q13 0 23.5 -4t10.5 -21q0 -19 -9.5 -23.5t-24.5 -4.5zM51 520q-14 0 -24 4.5t-10 23.5q0 18 10.5 21.5t23.5 3.5t23.5 -4t10.5 -21q0 -18 -10 -23
t-24 -5z" />
    <glyph glyph-name="Eth" unicode="&#xd0;" horiz-adv-x="601" 
d="M556 226q0 -82 -18 -128.5t-51.5 -67.5t-82 -26.5t-109.5 -5.5q-29 0 -60.5 0.5t-62 0.5t-55 0.5t-39.5 0.5v396q0 32 8.5 47t44.5 17q16 1 42 1t55.5 0.5t57.5 0.5t47 -1q55 -2 96.5 -9t70 -30t42.5 -69.5t14 -126.5zM155 43q7 0 25.5 -0.5t40.5 -0.5t42.5 -0.5
t31.5 -0.5q51 0 86 7t56.5 26.5t31 56t9.5 95.5q0 80 -16.5 121.5t-55 56.5t-107.5 15h-39.5t-50.5 -0.5t-39 -2.5q-7 -4 -11 -10.5t-4 -25.5v-337zM16 235h260v-28h-260v28z" />
    <glyph glyph-name="Ntilde" unicode="&#xd1;" horiz-adv-x="624" 
d="M83 0v419q0 27 4.5 34t26.5 7h67l298 -381l3 -2v383h59q-1 -1 -2 -7.5t-1 -14v-14.5v-386q0 -26 -6.5 -32t-27.5 -6h-62l-301 384l-1 4v-388h-57zM361 520q-17 0 -33.5 9l-33 18t-32.5 9q-18 0 -28 -10.5t-14 -17.5l-17 14l5 10t11.5 17t18 16.5t25.5 7.5q18 1 34 -9
t31.5 -19t31.5 -9q21 0 31.5 12t14.5 20l17 -14q-1 -3 -5 -11t-11.5 -18t-19 -17.5t-26.5 -7.5z" />
    <glyph glyph-name="Ograve" unicode="&#xd2;" horiz-adv-x="599" 
d="M296 -7q-60 0 -106 9t-78.5 33.5t-49.5 71.5t-17 124q0 78 18.5 125.5t52.5 71.5t81.5 32t106.5 8t105 -8.5t78.5 -33t49.5 -71.5t17 -124q0 -79 -18.5 -126t-52 -71.5t-81 -32.5t-106.5 -8zM299 36q42 0 75 7.5t55.5 27.5t34 58.5t11.5 101.5q0 62 -11.5 100.5t-34 59
t-55.5 27.5t-75 7q-43 0 -75.5 -7t-54.5 -27.5t-33.5 -59t-11.5 -100.5q0 -63 11.5 -101.5t33.5 -58.5t54.5 -27.5t75.5 -7.5zM308 521l-104 68l36 27l102 -95h-34z" />
    <glyph glyph-name="Oacute" unicode="&#xd3;" horiz-adv-x="599" 
d="M296 -7q-60 0 -106 9t-78.5 33.5t-49.5 71.5t-17 124q0 78 18.5 125.5t52.5 71.5t81.5 32t106.5 8t105 -8.5t78.5 -33t49.5 -71.5t17 -124q0 -79 -18.5 -126t-52 -71.5t-81 -32.5t-106.5 -8zM299 36q42 0 75 7.5t55.5 27.5t34 58.5t11.5 101.5q0 62 -11.5 100.5t-34 59
t-55.5 27.5t-75 7q-43 0 -75.5 -7t-54.5 -27.5t-33.5 -59t-11.5 -100.5q0 -63 11.5 -101.5t33.5 -58.5t54.5 -27.5t75.5 -7.5zM267 521l102 95l36 -27l-105 -68h-33z" />
    <glyph glyph-name="Ocircumflex" unicode="&#xd4;" horiz-adv-x="599" 
d="M296 -7q-60 0 -106 9t-78.5 33.5t-49.5 71.5t-17 124q0 78 18.5 125.5t52.5 71.5t81.5 32t106.5 8t105 -8.5t78.5 -33t49.5 -71.5t17 -124q0 -79 -18.5 -126t-52 -71.5t-81 -32.5t-106.5 -8zM299 36q42 0 75 7.5t55.5 27.5t34 58.5t11.5 101.5q0 62 -11.5 100.5t-34 59
t-55.5 27.5t-75 7q-43 0 -75.5 -7t-54.5 -27.5t-33.5 -59t-11.5 -100.5q0 -63 11.5 -101.5t33.5 -58.5t54.5 -27.5t75.5 -7.5zM198 521l87 95h27l88 -95h-35l-66 61l-67 -61h-34z" />
    <glyph glyph-name="Otilde" unicode="&#xd5;" horiz-adv-x="599" 
d="M296 -7q-60 0 -106 9t-78.5 33.5t-49.5 71.5t-17 124q0 78 18.5 125.5t52.5 71.5t81.5 32t106.5 8t105 -8.5t78.5 -33t49.5 -71.5t17 -124q0 -79 -18.5 -126t-52 -71.5t-81 -32.5t-106.5 -8zM299 36q42 0 75 7.5t55.5 27.5t34 58.5t11.5 101.5q0 62 -11.5 100.5t-34 59
t-55.5 27.5t-75 7q-43 0 -75.5 -7t-54.5 -27.5t-33.5 -59t-11.5 -100.5q0 -63 11.5 -101.5t33.5 -58.5t54.5 -27.5t75.5 -7.5zM349 520q-17 0 -33.5 9l-33 18t-32.5 9q-18 0 -28 -10.5t-14 -17.5l-17 14l5 10t11.5 17t18 16.5t25.5 7.5q18 1 34 -9t31.5 -19t31.5 -9
q21 0 31.5 12t14.5 20l17 -14q-1 -3 -5 -11t-11.5 -18t-19 -17.5t-26.5 -7.5z" />
    <glyph glyph-name="Odieresis" unicode="&#xd6;" horiz-adv-x="599" 
d="M296 -7q-60 0 -106 9t-78.5 33.5t-49.5 71.5t-17 124q0 78 18.5 125.5t52.5 71.5t81.5 32t106.5 8t105 -8.5t78.5 -33t49.5 -71.5t17 -124q0 -79 -18.5 -126t-52 -71.5t-81 -32.5t-106.5 -8zM299 36q42 0 75 7.5t55.5 27.5t34 58.5t11.5 101.5q0 62 -11.5 100.5t-34 59
t-55.5 27.5t-75 7q-43 0 -75.5 -7t-54.5 -27.5t-33.5 -59t-11.5 -100.5q0 -63 11.5 -101.5t33.5 -58.5t54.5 -27.5t75.5 -7.5zM369 520q-13 0 -23.5 4.5t-10.5 23.5q0 18 11 21.5t23 3.5q13 0 23.5 -4t10.5 -21q0 -19 -9.5 -23.5t-24.5 -4.5zM229 520q-14 0 -24 4.5
t-10 23.5q0 18 10.5 21.5t23.5 3.5t23.5 -4t10.5 -21q0 -18 -10 -23t-24 -5z" />
    <glyph glyph-name="multiply" unicode="&#xd7;" horiz-adv-x="387" 
d="M163 197l-127 142l35 27l122 -138l126 137l35 -27l-128 -139l118 -128l-37 -31l-113 128l-118 -130l-34 27z" />
    <glyph glyph-name="Oslash" unicode="&#xd8;" horiz-adv-x="578" 
d="M36 231q0 83 21 131t57.5 71t83.5 29t98 6q52 0 96.5 -7t78.5 -30.5t53 -71t19 -128.5q0 -83 -21 -131t-57.5 -71t-83.5 -29.5t-98 -6.5q-52 0 -97.5 7.5t-79 30.5t-52 71t-18.5 129zM467 230q0 64 -12.5 103t-35.5 59t-55.5 26.5t-74.5 6.5t-75 -6.5t-55.5 -26.5
t-34.5 -59t-12 -103t12 -103t34.5 -59t55.5 -26.5t75 -6.5t74.5 6.5t55.5 26.5t35.5 59t12.5 103zM140 -83l234 608h29l-235 -608h-28z" />
    <glyph glyph-name="Ugrave" unicode="&#xd9;" horiz-adv-x="588" 
d="M515 197q0 -43 -4 -79.5t-24.5 -63.5t-66 -42t-128.5 -15q-66 0 -107.5 9.5t-64 27.5t-32.5 42t-12.5 53.5t-2.5 61.5v229q0 16 1 25t8 12t21 3h47v-303q0 -45 14.5 -69.5t46 -34.5t81.5 -10q78 0 112.5 26.5t34.5 87.5v303h45q15 0 22 -3t8 -12t1 -25v-223zM303 521
l-104 68l36 27l102 -95h-34z" />
    <glyph glyph-name="Uacute" unicode="&#xda;" horiz-adv-x="588" 
d="M515 197q0 -43 -4 -79.5t-24.5 -63.5t-66 -42t-128.5 -15q-66 0 -107.5 9.5t-64 27.5t-32.5 42t-12.5 53.5t-2.5 61.5v229q0 16 1 25t8 12t21 3h47v-303q0 -45 14.5 -69.5t46 -34.5t81.5 -10q78 0 112.5 26.5t34.5 87.5v303h45q15 0 22 -3t8 -12t1 -25v-223zM262 521
l102 95l36 -27l-105 -68h-33z" />
    <glyph glyph-name="Ucircumflex" unicode="&#xdb;" horiz-adv-x="588" 
d="M515 197q0 -43 -4 -79.5t-24.5 -63.5t-66 -42t-128.5 -15q-66 0 -107.5 9.5t-64 27.5t-32.5 42t-12.5 53.5t-2.5 61.5v229q0 16 1 25t8 12t21 3h47v-303q0 -45 14.5 -69.5t46 -34.5t81.5 -10q78 0 112.5 26.5t34.5 87.5v303h45q15 0 22 -3t8 -12t1 -25v-223zM193 521
l87 95h27l88 -95h-35l-66 61l-67 -61h-34z" />
    <glyph glyph-name="Udieresis" unicode="&#xdc;" horiz-adv-x="588" 
d="M515 197q0 -43 -4 -79.5t-24.5 -63.5t-66 -42t-128.5 -15q-66 0 -107.5 9.5t-64 27.5t-32.5 42t-12.5 53.5t-2.5 61.5v229q0 16 1 25t8 12t21 3h47v-303q0 -45 14.5 -69.5t46 -34.5t81.5 -10q78 0 112.5 26.5t34.5 87.5v303h45q15 0 22 -3t8 -12t1 -25v-223zM363 520
q-13 0 -23.5 4.5t-10.5 23.5q0 18 11 21.5t23 3.5q13 0 23.5 -4t10.5 -21q0 -19 -9.5 -23.5t-24.5 -4.5zM223 520q-14 0 -24 4.5t-10 23.5q0 18 10.5 21.5t23.5 3.5t23.5 -4t10.5 -21q0 -18 -10 -23t-24 -5z" />
    <glyph glyph-name="Yacute" unicode="&#xdd;" horiz-adv-x="476" 
d="M199 0v187l-169 248l-18 25h102l140 -219l142 219h70l-22 -28l-169 -245v-152q1 -13 -2 -20.5t-10 -11t-22 -3.5h-42zM229 521l102 95l36 -27l-105 -68h-33z" />
    <glyph glyph-name="Thorn" unicode="&#xde;" horiz-adv-x="516" 
d="M37 453q0 27 5 37t24 10h36v-88h222q53 0 81.5 -15.5t39 -47t10.5 -80.5q0 -47 -13.5 -79.5t-44.5 -49.5t-84 -17h-211v-123h-65v453zM102 372v-209h216q20 0 37 8.5t27 31.5t10 67q0 43 -10.5 65t-28.5 29.5t-38 7.5h-213z" />
    <glyph glyph-name="germandbls" unicode="&#xdf;" horiz-adv-x="662" 
d="M16 -131q3 -1 9.5 -3t16 -2.5t19.5 -0.5q26 0 42.5 15.5t16.5 53.5v81v74v71.5v73.5v81h-18.5h-27h-18.5v6v10.5v22.5h18.5h27h18.5v52q0 41 25.5 62.5t67.5 30.5t94 9q41 0 72.5 -3.5t53 -14t31.5 -31t6 -52.5q-1 -18 -8 -26.5t-16 -10.5t-17 -2q-23 0 -46 -2.5
t-42 -9.5t-30.5 -22.5t-11.5 -43.5t13.5 -41t35.5 -17t50 -4h47h43q37 0 63 -8.5t40.5 -31.5t14.5 -66q0 -52 -25.5 -79t-69.5 -36.5t-100 -9.5q-19 0 -46 0.5t-54.5 4t-48 10.5t-26.5 20l-3 27q16 -11 44 -17t57.5 -7.5t51.5 -1.5q50 0 84 6t52 24.5t18 55.5q0 42 -21 54
t-61 12h-31h-30h-32q-34 0 -63.5 6t-48 27t-18.5 66q0 51 24 75t65.5 31.5t93.5 7.5q6 35 -8 52t-41 22.5t-60 5.5q-27 0 -54.5 -7t-46.5 -27t-19 -58v-452q0 -24 -6 -41t-16.5 -28.5t-23.5 -17.5t-27.5 -8.5t-27.5 -2.5q-19 0 -35.5 1.5t-26.5 9.5t-10 24z" />
    <glyph glyph-name="agrave" unicode="&#xe0;" horiz-adv-x="483" 
d="M230 -7q-59 0 -96 6t-56.5 20.5t-27 38.5t-7.5 59q0 51 12 78t42 37t80 10q25 0 54.5 -1.5t57 -3t48 -3.5t27.5 -5q0 46 -8 73t-24.5 40t-41 17t-56.5 4q-33 0 -66.5 -2.5t-61.5 -8t-43 -14.5v15q0 21 12.5 29.5t28.5 11.5q19 5 55.5 8t76.5 2q51 0 87.5 -5t60.5 -21.5
t36 -49.5t12 -90v-206q-6 -20 -53 -29.5t-149 -9.5zM230 27q46 0 73.5 3t42 8t18.5 13v149q-9 3 -33.5 6t-51.5 5.5t-46 2.5q-43 0 -69.5 -5t-38 -25t-11.5 -62q0 -33 8 -54t32.5 -31t75.5 -10zM236 460l-115 86l36 27l113 -113h-34z" />
    <glyph glyph-name="aacute" unicode="&#xe1;" horiz-adv-x="483" 
d="M230 -7q-59 0 -96 6t-56.5 20.5t-27 38.5t-7.5 59q0 51 12 78t42 37t80 10q25 0 54.5 -1.5t57 -3t48 -3.5t27.5 -5q0 46 -8 73t-24.5 40t-41 17t-56.5 4q-33 0 -66.5 -2.5t-61.5 -8t-43 -14.5v15q0 21 12.5 29.5t28.5 11.5q19 5 55.5 8t76.5 2q51 0 87.5 -5t60.5 -21.5
t36 -49.5t12 -90v-206q-6 -20 -53 -29.5t-149 -9.5zM230 27q46 0 73.5 3t42 8t18.5 13v149q-9 3 -33.5 6t-51.5 5.5t-46 2.5q-43 0 -69.5 -5t-38 -25t-11.5 -62q0 -33 8 -54t32.5 -31t75.5 -10zM211 460l112 113l37 -27l-116 -86h-33z" />
    <glyph glyph-name="acircumflex" unicode="&#xe2;" horiz-adv-x="483" 
d="M230 -7q-59 0 -96 6t-56.5 20.5t-27 38.5t-7.5 59q0 51 12 78t42 37t80 10q25 0 54.5 -1.5t57 -3t48 -3.5t27.5 -5q0 46 -8 73t-24.5 40t-41 17t-56.5 4q-33 0 -66.5 -2.5t-61.5 -8t-43 -14.5v15q0 21 12.5 29.5t28.5 11.5q19 5 55.5 8t76.5 2q51 0 87.5 -5t60.5 -21.5
t36 -49.5t12 -90v-206q-6 -20 -53 -29.5t-149 -9.5zM230 27q46 0 73.5 3t42 8t18.5 13v149q-9 3 -33.5 6t-51.5 5.5t-46 2.5q-43 0 -69.5 -5t-38 -25t-11.5 -62q0 -33 8 -54t32.5 -31t75.5 -10zM135 460l88 114h26l89 -114h-35l-67 78l-68 -78h-33z" />
    <glyph glyph-name="atilde" unicode="&#xe3;" horiz-adv-x="483" 
d="M230 -7q-59 0 -96 6t-56.5 20.5t-27 38.5t-7.5 59q0 51 12 78t42 37t80 10q25 0 54.5 -1.5t57 -3t48 -3.5t27.5 -5q0 46 -8 73t-24.5 40t-41 17t-56.5 4q-33 0 -66.5 -2.5t-61.5 -8t-43 -14.5v15q0 21 12.5 29.5t28.5 11.5q19 5 55.5 8t76.5 2q51 0 87.5 -5t60.5 -21.5
t36 -49.5t12 -90v-206q-6 -20 -53 -29.5t-149 -9.5zM230 27q46 0 73.5 3t42 8t18.5 13v149q-9 3 -33.5 6t-51.5 5.5t-46 2.5q-43 0 -69.5 -5t-38 -25t-11.5 -62q0 -33 8 -54t32.5 -31t75.5 -10zM287 458q-18 0 -34 9.5t-32.5 18.5t-33.5 9t-26 -11.5t-13 -18.5l-18 13
q1 3 5 11t11 18t17.5 17t25.5 7q17 0 33 -9.5l32 -19t32 -9.5q20 0 30.5 12.5t14.5 20.5l19 -13q-2 -3 -6 -11.5t-12 -18.5t-19 -17.5t-26 -7.5z" />
    <glyph glyph-name="adieresis" unicode="&#xe4;" horiz-adv-x="483" 
d="M230 -7q-59 0 -96 6t-56.5 20.5t-27 38.5t-7.5 59q0 51 12 78t42 37t80 10q25 0 54.5 -1.5t57 -3t48 -3.5t27.5 -5q0 46 -8 73t-24.5 40t-41 17t-56.5 4q-33 0 -66.5 -2.5t-61.5 -8t-43 -14.5v15q0 21 12.5 29.5t28.5 11.5q19 5 55.5 8t76.5 2q51 0 87.5 -5t60.5 -21.5
t36 -49.5t12 -90v-206q-6 -20 -53 -29.5t-149 -9.5zM230 27q46 0 73.5 3t42 8t18.5 13v149q-9 3 -33.5 6t-51.5 5.5t-46 2.5q-43 0 -69.5 -5t-38 -25t-11.5 -62q0 -33 8 -54t32.5 -31t75.5 -10zM307 459q-13 0 -23.5 4.5t-10.5 23.5q0 18 11 21.5t23 3.5q13 0 23.5 -4
t10.5 -21q0 -19 -9.5 -23.5t-24.5 -4.5zM167 459q-14 0 -24 4.5t-10 23.5q0 18 10.5 21.5t23.5 3.5t23.5 -4t10.5 -21q0 -18 -10 -23t-24 -5z" />
    <glyph glyph-name="aring" unicode="&#xe5;" horiz-adv-x="483" 
d="M230 -7q-59 0 -96 6t-56.5 20.5t-27 38.5t-7.5 59q0 51 12 78t42 37t80 10q25 0 54.5 -1.5t57 -3t48 -3.5t27.5 -5q0 46 -8 73t-24.5 40t-41 17t-56.5 4q-33 0 -66.5 -2.5t-61.5 -8t-43 -14.5v15q0 21 12.5 29.5t28.5 11.5q19 5 55.5 8t76.5 2q51 0 87.5 -5t60.5 -21.5
t36 -49.5t12 -90v-206q-6 -20 -53 -29.5t-149 -9.5zM230 27q46 0 73.5 3t42 8t18.5 13v149q-9 3 -33.5 6t-51.5 5.5t-46 2.5q-43 0 -69.5 -5t-38 -25t-11.5 -62q0 -33 8 -54t32.5 -31t75.5 -10zM230 458q-40 0 -57 13.5t-17 46.5q0 32 17 45t57 13q42 0 58.5 -13t16.5 -45
q0 -33 -16.5 -46.5t-58.5 -13.5zM230 481q20 0 31 6.5t11 30.5q0 22 -11 28.5t-31 6.5q-19 0 -30.5 -6.5t-11.5 -28.5q0 -24 11 -30.5t31 -6.5z" />
    <glyph glyph-name="ae" unicode="&#xe6;" horiz-adv-x="814" 
d="M230 -7q-59 0 -96 6t-56.5 20.5t-27 38.5t-7.5 59q0 51 12 78t42 37t80 10q25 0 54.5 -1.5t57 -3t48 -3.5t27.5 -5q0 46 -8 73t-24.5 40t-41 17t-56.5 4q-33 0 -66.5 -2.5t-61.5 -8t-43 -14.5v15q0 21 12.5 29.5t28.5 11.5q19 5 55.5 8t76.5 2q51 0 87.5 -5t60.5 -21.5
t36 -49.5t12 -90v-206q-6 -20 -53 -29.5t-149 -9.5zM230 27q46 0 73.5 3t42 8t18.5 13v149q-9 3 -33.5 6t-51.5 5.5t-46 2.5q-43 0 -69.5 -5t-38 -25t-11.5 -62q0 -33 8 -54t32.5 -31t75.5 -10zM575 -6q-58 0 -97.5 8t-63 30t-34 61.5t-10.5 102.5q0 72 18 118t64 68t129 22
q64 0 102.5 -17t56 -52t17.5 -91v-57h-282q0 12 6 20.5t22 8.5h191l-1 29q-1 62 -26.5 90t-88.5 28q-53 0 -83 -16t-42 -52t-12 -98q0 -66 13.5 -100.5t45.5 -47t87 -12.5q19 0 43.5 1.5t49.5 3.5t44.5 5.5t27.5 7.5v-12q0 -10 -5.5 -19t-22.5 -15q-22 -9 -59.5 -12
t-89.5 -3z" />
    <glyph glyph-name="ccedilla" unicode="&#xe7;" horiz-adv-x="435" 
d="M261 -6q-78 0 -126 16t-69.5 59.5t-21.5 127.5q0 85 21.5 130t69.5 61.5t126 16.5q26 0 48.5 -2t51.5 -7q16 -2 26 -7.5t14 -15t4 -27.5q-11 6 -34.5 10t-49.5 6.5t-46 2.5q-60 0 -95 -15.5t-49.5 -51t-14.5 -97.5t14 -98.5t49 -51.5t96 -15q28 0 53 2.5t45.5 7
t31.5 10.5v-22q0 -15 -18.5 -23.5t-50.5 -12.5t-75 -4zM224 -183q-28 0 -38 4.5t-10 18.5h20.5h41.5q29 0 39 7.5t10 24.5q0 23 -9 29.5t-43 6.5h-34q-5 0 -10.5 2t-8.5 5t-2 8q3 4 12 15t20.5 23.5t22 24t15.5 16.5h24l-54 -75q45 3 68.5 0t31.5 -15.5t8 -40.5
q0 -27 -12 -38.5t-35.5 -13.5t-56.5 -2z" />
    <glyph glyph-name="egrave" unicode="&#xe8;" horiz-adv-x="465" 
d="M249 -6q-58 0 -97.5 8t-63 30t-34 61.5t-10.5 102.5q0 72 18 118t64 68t129 22q64 0 102.5 -17t56 -52t17.5 -91v-57h-282q0 12 6 20.5t22 8.5h191l-1 29q-1 62 -26.5 90t-88.5 28q-53 0 -83 -16t-42 -52t-12 -98q0 -66 13.5 -100.5t45.5 -47t87 -12.5q19 0 43.5 1.5
t49.5 3.5t44.5 5.5t27.5 7.5v-12q0 -10 -5.5 -19t-22.5 -15q-22 -9 -59.5 -12t-89.5 -3zM239 460l-115 86l36 27l113 -113h-34z" />
    <glyph glyph-name="eacute" unicode="&#xe9;" horiz-adv-x="465" 
d="M249 -6q-58 0 -97.5 8t-63 30t-34 61.5t-10.5 102.5q0 72 18 118t64 68t129 22q64 0 102.5 -17t56 -52t17.5 -91v-57h-282q0 12 6 20.5t22 8.5h191l-1 29q-1 62 -26.5 90t-88.5 28q-53 0 -83 -16t-42 -52t-12 -98q0 -66 13.5 -100.5t45.5 -47t87 -12.5q19 0 43.5 1.5
t49.5 3.5t44.5 5.5t27.5 7.5v-12q0 -10 -5.5 -19t-22.5 -15q-22 -9 -59.5 -12t-89.5 -3zM214 460l112 113l37 -27l-116 -86h-33z" />
    <glyph glyph-name="ecircumflex" unicode="&#xea;" horiz-adv-x="465" 
d="M249 -6q-58 0 -97.5 8t-63 30t-34 61.5t-10.5 102.5q0 72 18 118t64 68t129 22q64 0 102.5 -17t56 -52t17.5 -91v-57h-282q0 12 6 20.5t22 8.5h191l-1 29q-1 62 -26.5 90t-88.5 28q-53 0 -83 -16t-42 -52t-12 -98q0 -66 13.5 -100.5t45.5 -47t87 -12.5q19 0 43.5 1.5
t49.5 3.5t44.5 5.5t27.5 7.5v-12q0 -10 -5.5 -19t-22.5 -15q-22 -9 -59.5 -12t-89.5 -3zM139 460l88 114h26l89 -114h-35l-67 78l-68 -78h-33z" />
    <glyph glyph-name="edieresis" unicode="&#xeb;" horiz-adv-x="465" 
d="M249 -6q-58 0 -97.5 8t-63 30t-34 61.5t-10.5 102.5q0 72 18 118t64 68t129 22q64 0 102.5 -17t56 -52t17.5 -91v-57h-282q0 12 6 20.5t22 8.5h191l-1 29q-1 62 -26.5 90t-88.5 28q-53 0 -83 -16t-42 -52t-12 -98q0 -66 13.5 -100.5t45.5 -47t87 -12.5q19 0 43.5 1.5
t49.5 3.5t44.5 5.5t27.5 7.5v-12q0 -10 -5.5 -19t-22.5 -15q-22 -9 -59.5 -12t-89.5 -3zM310 459q-13 0 -23.5 4.5t-10.5 23.5q0 18 11 21.5t23 3.5q13 0 23.5 -4t10.5 -21q0 -19 -9.5 -23.5t-24.5 -4.5zM170 459q-14 0 -24 4.5t-10 23.5q0 18 10.5 21.5t23.5 3.5t23.5 -4
t10.5 -21q0 -18 -10 -23t-24 -5z" />
    <glyph glyph-name="igrave" unicode="&#xec;" horiz-adv-x="208" 
d="M133 -4q-47 0 -63 25t-16 73v305h70v-301q0 -41 9 -55t32 -14q9 0 20.5 2t14.5 3v-31q-3 -1 -11.5 -2.5t-22 -3t-33.5 -1.5zM78 460l-115 86l36 27l113 -113h-34z" />
    <glyph glyph-name="iacute" unicode="&#xed;" horiz-adv-x="208" 
d="M133 -4q-47 0 -63 25t-16 73v305h70v-301q0 -41 9 -55t32 -14q9 0 20.5 2t14.5 3v-31q-3 -1 -11.5 -2.5t-22 -3t-33.5 -1.5zM53 460l112 113l37 -27l-116 -86h-33z" />
    <glyph glyph-name="icircumflex" unicode="&#xee;" horiz-adv-x="208" 
d="M133 -4q-47 0 -63 25t-16 73v305h70v-301q0 -41 9 -55t32 -14q9 0 20.5 2t14.5 3v-31q-3 -1 -11.5 -2.5t-22 -3t-33.5 -1.5zM-22 460l88 114h26l89 -114h-35l-67 78l-68 -78h-33z" />
    <glyph glyph-name="idieresis" unicode="&#xef;" horiz-adv-x="208" 
d="M133 -4q-47 0 -63 25t-16 73v305h70v-301q0 -41 9 -55t32 -14q9 0 20.5 2t14.5 3v-31q-3 -1 -11.5 -2.5t-22 -3t-33.5 -1.5zM149 459q-13 0 -23.5 4.5t-10.5 23.5q0 18 11 21.5t23 3.5q13 0 23.5 -4t10.5 -21q0 -19 -9.5 -23.5t-24.5 -4.5zM9 459q-14 0 -24 4.5t-10 23.5
q0 18 10.5 21.5t23.5 3.5t23.5 -4t10.5 -21q0 -18 -10 -23t-24 -5z" />
    <glyph glyph-name="eth" unicode="&#xf0;" horiz-adv-x="471" 
d="M100 475l177 146l18 -22l-176 -145zM35 196q0 68 15 107.5t41 59.5t59 26.5t69 6.5h23t23 -1q-19 25 -41.5 54.5t-45 57.5t-41 51.5t-28.5 36.5l12.5 12.5l15 15t13.5 14t9 9.5q48 -56 87.5 -105t72.5 -93t61 -87t52 -87v-22v-28.5v-26.5q0 -70 -13 -110.5t-38.5 -60
t-62 -25t-83.5 -5.5q-46 0 -82.5 5t-62.5 25t-40.5 60.5t-14.5 109.5zM362 244q-8 17 -16.5 30.5t-20.5 25.5q-10 14 -21 29.5t-23 29.5q-10 1 -22.5 2t-26.5 1q-40 0 -69 -11t-43.5 -46t-14.5 -106t14.5 -105.5t43.5 -45.5t69 -11q42 0 70.5 11t44 45.5t15.5 105.5v14.5
v16.5v14z" />
    <glyph glyph-name="ntilde" unicode="&#xf1;" horiz-adv-x="481" 
d="M83 0q-23 0 -23 24v346q29 13 76.5 23t109.5 10q58 0 94 -8t55 -24t25.5 -41.5t6.5 -61.5v-238q0 -11 -2.5 -18t-9 -9.5t-19.5 -2.5h-39v282q0 40 -26 59t-85 19q-19 0 -41.5 -3t-42.5 -8.5t-33 -14.5v-334h-46zM293 458q-18 0 -34 9.5t-32.5 18.5t-33.5 9t-26 -11.5
t-13 -18.5l-18 13q1 3 5 11t11 18t17.5 17t25.5 7q17 0 33 -9.5l32 -19t32 -9.5q20 0 30.5 12.5t14.5 20.5l19 -13q-2 -3 -6 -11.5t-12 -18.5t-19 -17.5t-26 -7.5z" />
    <glyph glyph-name="ograve" unicode="&#xf2;" horiz-adv-x="486" 
d="M244 -6q-46 0 -82.5 7t-63 28t-40.5 62t-14 108t14 108t40.5 62t63 28t82.5 7q45 0 81.5 -7t62.5 -28t40 -62t14 -108q0 -68 -14 -109t-40 -61.5t-62.5 -27.5t-81.5 -7zM244 33q40 0 68.5 12t43.5 47t15 107t-15 107t-43.5 47t-68.5 12t-68.5 -12t-44 -47t-15.5 -107
t15.5 -107t44 -47t68.5 -12zM241 460l-115 86l36 27l113 -113h-34z" />
    <glyph glyph-name="oacute" unicode="&#xf3;" horiz-adv-x="486" 
d="M244 -6q-46 0 -82.5 7t-63 28t-40.5 62t-14 108t14 108t40.5 62t63 28t82.5 7q45 0 81.5 -7t62.5 -28t40 -62t14 -108q0 -68 -14 -109t-40 -61.5t-62.5 -27.5t-81.5 -7zM244 33q40 0 68.5 12t43.5 47t15 107t-15 107t-43.5 47t-68.5 12t-68.5 -12t-44 -47t-15.5 -107
t15.5 -107t44 -47t68.5 -12zM216 460l112 113l37 -27l-116 -86h-33z" />
    <glyph glyph-name="ocircumflex" unicode="&#xf4;" horiz-adv-x="486" 
d="M244 -6q-46 0 -82.5 7t-63 28t-40.5 62t-14 108t14 108t40.5 62t63 28t82.5 7q45 0 81.5 -7t62.5 -28t40 -62t14 -108q0 -68 -14 -109t-40 -61.5t-62.5 -27.5t-81.5 -7zM244 33q40 0 68.5 12t43.5 47t15 107t-15 107t-43.5 47t-68.5 12t-68.5 -12t-44 -47t-15.5 -107
t15.5 -107t44 -47t68.5 -12zM141 460l88 114h26l89 -114h-35l-67 78l-68 -78h-33z" />
    <glyph glyph-name="otilde" unicode="&#xf5;" horiz-adv-x="486" 
d="M244 -6q-46 0 -82.5 7t-63 28t-40.5 62t-14 108t14 108t40.5 62t63 28t82.5 7q45 0 81.5 -7t62.5 -28t40 -62t14 -108q0 -68 -14 -109t-40 -61.5t-62.5 -27.5t-81.5 -7zM244 33q40 0 68.5 12t43.5 47t15 107t-15 107t-43.5 47t-68.5 12t-68.5 -12t-44 -47t-15.5 -107
t15.5 -107t44 -47t68.5 -12zM293 458q-18 0 -34 9.5t-32.5 18.5t-33.5 9t-26 -11.5t-13 -18.5l-18 13q1 3 5 11t11 18t17.5 17t25.5 7q17 0 33 -9.5l32 -19t32 -9.5q20 0 30.5 12.5t14.5 20.5l19 -13q-2 -3 -6 -11.5t-12 -18.5t-19 -17.5t-26 -7.5z" />
    <glyph glyph-name="odieresis" unicode="&#xf6;" horiz-adv-x="486" 
d="M244 -6q-46 0 -82.5 7t-63 28t-40.5 62t-14 108t14 108t40.5 62t63 28t82.5 7q45 0 81.5 -7t62.5 -28t40 -62t14 -108q0 -68 -14 -109t-40 -61.5t-62.5 -27.5t-81.5 -7zM244 33q40 0 68.5 12t43.5 47t15 107t-15 107t-43.5 47t-68.5 12t-68.5 -12t-44 -47t-15.5 -107
t15.5 -107t44 -47t68.5 -12zM312 459q-13 0 -23.5 4.5t-10.5 23.5q0 18 11 21.5t23 3.5q13 0 23.5 -4t10.5 -21q0 -19 -9.5 -23.5t-24.5 -4.5zM172 459q-14 0 -24 4.5t-10 23.5q0 18 10.5 21.5t23.5 3.5t23.5 -4t10.5 -21q0 -18 -10 -23t-24 -5z" />
    <glyph glyph-name="divide" unicode="&#xf7;" horiz-adv-x="458" 
d="M51 207h337v-33h-337v33zM187 40q0 19 10.5 24t24.5 5t23.5 -5t9.5 -24q0 -13 -4.5 -19t-12 -7.5t-16.5 -1.5t-16.5 1.5t-13 7.5t-5.5 19zM187 328q0 20 10.5 24.5t23.5 4.5q14 0 23.5 -4.5t9.5 -24.5q0 -13 -4.5 -19t-11.5 -7.5t-17 -1.5q-8 0 -16 1.5t-13 7.5t-5 19z
" />
    <glyph glyph-name="oslash" unicode="&#xf8;" horiz-adv-x="486" 
d="M113 -63l216 530h31l-216 -530h-31zM244 -6q-46 0 -82.5 7t-63 28t-40.5 62t-14 108t14 108t40.5 62t63 28t82.5 7q45 0 81.5 -7t62.5 -28t40 -62t14 -108q0 -68 -14 -109t-40 -61.5t-62.5 -27.5t-81.5 -7zM244 33q40 0 68.5 12t43.5 47t15 107t-15 107t-43.5 47
t-68.5 12t-68.5 -12t-44 -47t-15.5 -107t15.5 -107t44 -47t68.5 -12z" />
    <glyph glyph-name="ugrave" unicode="&#xf9;" horiz-adv-x="476" 
d="M121 399v-271q0 -50 28.5 -70.5t87.5 -20.5q63 0 90.5 21.5t27.5 69.5v271h6.5h12h12.5h8q12 0 19 -1.5t9.5 -7.5t2.5 -20v-229q0 -50 -15 -82.5t-56 -48t-118 -15.5q-70 0 -110.5 13t-57.5 44t-17 84v234q0 17 5.5 23t21.5 6h21.5h21.5zM238 460l-115 86l36 27l113 -113
h-34z" />
    <glyph glyph-name="uacute" unicode="&#xfa;" horiz-adv-x="476" 
d="M121 399v-271q0 -50 28.5 -70.5t87.5 -20.5q63 0 90.5 21.5t27.5 69.5v271h6.5h12h12.5h8q12 0 19 -1.5t9.5 -7.5t2.5 -20v-229q0 -50 -15 -82.5t-56 -48t-118 -15.5q-70 0 -110.5 13t-57.5 44t-17 84v234q0 17 5.5 23t21.5 6h21.5h21.5zM213 460l112 113l37 -27
l-116 -86h-33z" />
    <glyph glyph-name="ucircumflex" unicode="&#xfb;" horiz-adv-x="476" 
d="M121 399v-271q0 -50 28.5 -70.5t87.5 -20.5q63 0 90.5 21.5t27.5 69.5v271h6.5h12h12.5h8q12 0 19 -1.5t9.5 -7.5t2.5 -20v-229q0 -50 -15 -82.5t-56 -48t-118 -15.5q-70 0 -110.5 13t-57.5 44t-17 84v234q0 17 5.5 23t21.5 6h21.5h21.5zM137 460l88 114h26l89 -114h-35
l-67 78l-68 -78h-33z" />
    <glyph glyph-name="udieresis" unicode="&#xfc;" horiz-adv-x="476" 
d="M121 399v-271q0 -50 28.5 -70.5t87.5 -20.5q63 0 90.5 21.5t27.5 69.5v271h6.5h12h12.5h8q12 0 19 -1.5t9.5 -7.5t2.5 -20v-229q0 -50 -15 -82.5t-56 -48t-118 -15.5q-70 0 -110.5 13t-57.5 44t-17 84v234q0 17 5.5 23t21.5 6h21.5h21.5zM309 459q-13 0 -23.5 4.5
t-10.5 23.5q0 18 11 21.5t23 3.5q13 0 23.5 -4t10.5 -21q0 -19 -9.5 -23.5t-24.5 -4.5zM169 459q-14 0 -24 4.5t-10 23.5q0 18 10.5 21.5t23.5 3.5t23.5 -4t10.5 -21q0 -18 -10 -23t-24 -5z" />
    <glyph glyph-name="yacute" unicode="&#xfd;" horiz-adv-x="471" 
d="M230 -111q-45 0 -85 4.5t-65 13.5t-25 20v25q16 -9 42.5 -15t56.5 -9.5t58 -3.5q48 0 78.5 13t46 42t15.5 73v54q-9 -20 -29 -34t-49.5 -20t-68.5 -6q-71 0 -104.5 20t-43 57t-9.5 86v151q0 15 1.5 23.5t7 12t18.5 3.5h44v-49.5v-46v-45.5v-49q0 -57 15.5 -84t42 -34
t58.5 -7t58 8.5t42 33.5t16 75v198h43q15 0 21.5 -4.5t6.5 -25.5v-309q0 -89 -46.5 -130t-145.5 -41zM209 460l112 113l37 -27l-116 -86h-33z" />
    <glyph glyph-name="thorn" unicode="&#xfe;" horiz-adv-x="458" 
d="M42 -108v576q0 23 5.5 29t20.5 6h42v-136q13 3 30 4.5t31.5 2.5t20.5 1q53 0 94.5 -5t71 -23t45 -53.5t15.5 -96.5t-15 -96t-44 -51.5t-72 -21t-98 -4.5q-10 0 -34.5 1t-44.5 5v-138h-68zM349 198q0 62 -16.5 92.5t-52 41t-93.5 11.5q-22 0 -44 -2.5t-33 -5.5v-269
q16 -3 36.5 -5.5t42.5 -1.5q58 0 93 9.5t51 39t16 90.5z" />
    <glyph glyph-name="ydieresis" unicode="&#xff;" horiz-adv-x="471" 
d="M230 -111q-45 0 -85 4.5t-65 13.5t-25 20v25q16 -9 42.5 -15t56.5 -9.5t58 -3.5q48 0 78.5 13t46 42t15.5 73v54q-9 -20 -29 -34t-49.5 -20t-68.5 -6q-71 0 -104.5 20t-43 57t-9.5 86v151q0 15 1.5 23.5t7 12t18.5 3.5h44v-49.5v-46v-45.5v-49q0 -57 15.5 -84t42 -34
t58.5 -7t58 8.5t42 33.5t16 75v198h43q15 0 21.5 -4.5t6.5 -25.5v-309q0 -89 -46.5 -130t-145.5 -41zM305 459q-13 0 -23.5 4.5t-10.5 23.5q0 18 11 21.5t23 3.5q13 0 23.5 -4t10.5 -21q0 -19 -9.5 -23.5t-24.5 -4.5zM165 459q-14 0 -24 4.5t-10 23.5q0 18 10.5 21.5
t23.5 3.5t23.5 -4t10.5 -21q0 -18 -10 -23t-24 -5z" />
    <glyph glyph-name="Amacron" unicode="&#x100;" horiz-adv-x="514" 
d="M17 0l133 393q12 34 33 52.5t72 18.5q46 0 68 -17t35 -54l136 -393h-83l-43 127h-250l-41 -127h-60zM131 162h223l-66 201q-5 15 -13 26.5t-32 11.5q-27 0 -35.5 -12t-12.5 -26zM141 522v30h228v-30h-228z" />
    <glyph glyph-name="amacron" unicode="&#x101;" horiz-adv-x="483" 
d="M230 -7q-59 0 -96 6t-56.5 20.5t-27 38.5t-7.5 59q0 51 12 78t42 37t80 10q25 0 54.5 -1.5t57 -3t48 -3.5t27.5 -5q0 46 -8 73t-24.5 40t-41 17t-56.5 4q-33 0 -66.5 -2.5t-61.5 -8t-43 -14.5v15q0 21 12.5 29.5t28.5 11.5q19 5 55.5 8t76.5 2q51 0 87.5 -5t60.5 -21.5
t36 -49.5t12 -90v-206q-6 -20 -53 -29.5t-149 -9.5zM230 27q46 0 73.5 3t42 8t18.5 13v149q-9 3 -33.5 6t-51.5 5.5t-46 2.5q-43 0 -69.5 -5t-38 -25t-11.5 -62q0 -33 8 -54t32.5 -31t75.5 -10zM126 461v33h222v-33h-222z" />
    <glyph glyph-name="Abreve" unicode="&#x102;" horiz-adv-x="514" 
d="M17 0l133 393q12 34 33 52.5t72 18.5q46 0 68 -17t35 -54l136 -393h-83l-43 127h-250l-41 -127h-60zM131 162h223l-66 201q-5 15 -13 26.5t-32 11.5q-27 0 -35.5 -12t-12.5 -26zM256 520q-29 0 -52 6t-36.5 25.5t-14.5 57.5v6h34v-5q0 -14 4.5 -28t19 -22.5t43.5 -8.5
q31 0 45.5 8.5t19.5 22.5t5 28v5h32v-5q0 -39 -13 -58t-35.5 -25t-51.5 -7z" />
    <glyph glyph-name="abreve" unicode="&#x103;" horiz-adv-x="483" 
d="M230 -7q-59 0 -96 6t-56.5 20.5t-27 38.5t-7.5 59q0 51 12 78t42 37t80 10q25 0 54.5 -1.5t57 -3t48 -3.5t27.5 -5q0 46 -8 73t-24.5 40t-41 17t-56.5 4q-33 0 -66.5 -2.5t-61.5 -8t-43 -14.5v15q0 21 12.5 29.5t28.5 11.5q19 5 55.5 8t76.5 2q51 0 87.5 -5t60.5 -21.5
t36 -49.5t12 -90v-206q-6 -20 -53 -29.5t-149 -9.5zM230 27q46 0 73.5 3t42 8t18.5 13v149q-9 3 -33.5 6t-51.5 5.5t-46 2.5q-43 0 -69.5 -5t-38 -25t-11.5 -62q0 -33 8 -54t32.5 -31t75.5 -10zM237 458q-37 0 -59.5 11.5t-32 36t-9.5 60.5h31q0 -38 17 -56.5t53 -18.5
q42 0 56 19t14 56h30q0 -37 -8.5 -61t-30.5 -35.5t-61 -11.5z" />
    <glyph glyph-name="Aogonek" unicode="&#x104;" horiz-adv-x="514" 
d="M17 0l133 393q12 34 33 52.5t72 18.5q46 0 68 -17t35 -54l136 -393h-83l-43 127h-250l-41 -127h-60zM131 162h223l-66 201q-5 15 -13 26.5t-32 11.5q-27 0 -35.5 -12t-12.5 -26zM430 -175q-33 0 -54 6.5t-30.5 22t-9.5 41.5q0 21 11.5 39.5t27 33.5t32 26t26.5 16h39
q-8 -3 -23.5 -13.5t-32.5 -25.5t-29 -32.5t-12 -32.5q0 -32 17.5 -41.5t45.5 -9.5q13 0 21.5 0.5t13.5 1t7 0.5q0 -11 -3 -18.5t-13.5 -10.5t-33.5 -3z" />
    <glyph glyph-name="aogonek" unicode="&#x105;" horiz-adv-x="483" 
d="M230 -7q-59 0 -96 6t-56.5 20.5t-27 38.5t-7.5 59q0 51 12 78t42 37t80 10q25 0 54.5 -1.5t57 -3t48 -3.5t27.5 -5q0 46 -8 73t-24.5 40t-41 17t-56.5 4q-33 0 -66.5 -2.5t-61.5 -8t-43 -14.5v15q0 21 12.5 29.5t28.5 11.5q19 5 55.5 8t76.5 2q51 0 87.5 -5t60.5 -21.5
t36 -49.5t12 -90v-206q-6 -20 -53 -29.5t-149 -9.5zM230 27q46 0 73.5 3t42 8t18.5 13v149q-9 3 -33.5 6t-51.5 5.5t-46 2.5q-43 0 -69.5 -5t-38 -25t-11.5 -62q0 -33 8 -54t32.5 -31t75.5 -10zM367 -175q-33 0 -54 6.5t-30.5 22t-9.5 41.5q0 21 11.5 39.5t27 33.5t32 26
t26.5 16h39q-8 -3 -23.5 -13.5t-32.5 -25.5t-29 -32.5t-12 -32.5q0 -32 17.5 -41.5t45.5 -9.5q13 0 21.5 0.5t13.5 1t7 0.5q0 -11 -3 -18.5t-13.5 -10.5t-33.5 -3z" />
    <glyph glyph-name="Cacute" unicode="&#x106;" horiz-adv-x="531" 
d="M45 230q0 71 14.5 117t46.5 72t82.5 36t122.5 10q37 0 71.5 -2.5t70.5 -8.5q30 -5 38.5 -13.5t8.5 -23.5v-25q-19 9 -53 15.5t-70 9.5t-64 3q-70 0 -111.5 -16.5t-59.5 -57.5t-18 -116t17 -116.5t59.5 -58.5t117.5 -17q27 0 61 3t66 9.5t55 13.5v-23q0 -13 -9 -22.5
t-40 -13.5q-35 -7 -70 -9.5t-72 -2.5q-74 0 -125 10.5t-81.5 36t-44 71.5t-13.5 119zM271 521l102 95l36 -27l-105 -68h-33z" />
    <glyph glyph-name="cacute" unicode="&#x107;" horiz-adv-x="435" 
d="M261 -6q-78 0 -126 16t-69.5 59.5t-21.5 127.5q0 85 21.5 130t69.5 61.5t126 16.5q26 0 48.5 -2t51.5 -7q16 -2 26 -7.5t14 -15t4 -27.5q-11 6 -34.5 10t-49.5 6.5t-46 2.5q-60 0 -95 -15.5t-49.5 -51t-14.5 -97.5t14 -98.5t49 -51.5t96 -15q28 0 53 2.5t45.5 7
t31.5 10.5v-22q0 -15 -18.5 -23.5t-50.5 -12.5t-75 -4zM227 460l112 113l37 -27l-116 -86h-33z" />
    <glyph glyph-name="Ccircumflex" unicode="&#x108;" horiz-adv-x="531" 
d="M45 230q0 71 14.5 117t46.5 72t82.5 36t122.5 10q37 0 71.5 -2.5t70.5 -8.5q30 -5 38.5 -13.5t8.5 -23.5v-25q-19 9 -53 15.5t-70 9.5t-64 3q-70 0 -111.5 -16.5t-59.5 -57.5t-18 -116t17 -116.5t59.5 -58.5t117.5 -17q27 0 61 3t66 9.5t55 13.5v-23q0 -13 -9 -22.5
t-40 -13.5q-35 -7 -70 -9.5t-72 -2.5q-74 0 -125 10.5t-81.5 36t-44 71.5t-13.5 119zM202 521l87 95h27l88 -95h-35l-66 61l-67 -61h-34z" />
    <glyph glyph-name="ccircumflex" unicode="&#x109;" horiz-adv-x="435" 
d="M261 -6q-78 0 -126 16t-69.5 59.5t-21.5 127.5q0 85 21.5 130t69.5 61.5t126 16.5q26 0 48.5 -2t51.5 -7q16 -2 26 -7.5t14 -15t4 -27.5q-11 6 -34.5 10t-49.5 6.5t-46 2.5q-60 0 -95 -15.5t-49.5 -51t-14.5 -97.5t14 -98.5t49 -51.5t96 -15q28 0 53 2.5t45.5 7
t31.5 10.5v-22q0 -15 -18.5 -23.5t-50.5 -12.5t-75 -4zM152 460l88 114h26l89 -114h-35l-67 78l-68 -78h-33z" />
    <glyph glyph-name="Cdotaccent" unicode="&#x10a;" horiz-adv-x="531" 
d="M45 230q0 71 14.5 117t46.5 72t82.5 36t122.5 10q37 0 71.5 -2.5t70.5 -8.5q30 -5 38.5 -13.5t8.5 -23.5v-25q-19 9 -53 15.5t-70 9.5t-64 3q-70 0 -111.5 -16.5t-59.5 -57.5t-18 -116t17 -116.5t59.5 -58.5t117.5 -17q27 0 61 3t66 9.5t55 13.5v-23q0 -13 -9 -22.5
t-40 -13.5q-35 -7 -70 -9.5t-72 -2.5q-74 0 -125 10.5t-81.5 36t-44 71.5t-13.5 119zM304 520q-16 0 -26 4.5t-10 22.5q0 20 10.5 24.5t26.5 4.5t24.5 -5t8.5 -24q0 -18 -9 -22.5t-25 -4.5z" />
    <glyph glyph-name="cdotaccent" unicode="&#x10b;" horiz-adv-x="435" 
d="M261 -6q-78 0 -126 16t-69.5 59.5t-21.5 127.5q0 85 21.5 130t69.5 61.5t126 16.5q26 0 48.5 -2t51.5 -7q16 -2 26 -7.5t14 -15t4 -27.5q-11 6 -34.5 10t-49.5 6.5t-46 2.5q-60 0 -95 -15.5t-49.5 -51t-14.5 -97.5t14 -98.5t49 -51.5t96 -15q28 0 53 2.5t45.5 7
t31.5 10.5v-22q0 -15 -18.5 -23.5t-50.5 -12.5t-75 -4zM254 459q-16 0 -26 4.5t-10 22.5q0 20 10.5 24.5t26.5 4.5t24.5 -5t8.5 -24q0 -18 -9 -22.5t-25 -4.5z" />
    <glyph glyph-name="Ccaron" unicode="&#x10c;" horiz-adv-x="531" 
d="M202 616h34l67 -61l66 61h35l-88 -95h-27zM45 230q0 71 14.5 117t46.5 72t82.5 36t122.5 10q37 0 71.5 -2.5t70.5 -8.5q30 -5 38.5 -13.5t8.5 -23.5v-25q-19 9 -53 15.5t-70 9.5t-64 3q-70 0 -111.5 -16.5t-59.5 -57.5t-18 -116t17 -116.5t59.5 -58.5t117.5 -17
q27 0 61 3t66 9.5t55 13.5v-23q0 -13 -9 -22.5t-40 -13.5q-35 -7 -70 -9.5t-72 -2.5q-74 0 -125 10.5t-81.5 36t-44 71.5t-13.5 119z" />
    <glyph glyph-name="ccaron" unicode="&#x10d;" horiz-adv-x="435" 
d="M152 574h33l68 -78l68 78h34l-88 -114h-26zM261 -6q-78 0 -126 16t-69.5 59.5t-21.5 127.5q0 85 21.5 130t69.5 61.5t126 16.5q26 0 48.5 -2t51.5 -7q16 -2 26 -7.5t14 -15t4 -27.5q-11 6 -34.5 10t-49.5 6.5t-46 2.5q-60 0 -95 -15.5t-49.5 -51t-14.5 -97.5t14 -98.5
t49 -51.5t96 -15q28 0 53 2.5t45.5 7t31.5 10.5v-22q0 -15 -18.5 -23.5t-50.5 -12.5t-75 -4z" />
    <glyph glyph-name="Dcaron" unicode="&#x10e;" horiz-adv-x="601" 
d="M209 616h33l67 -61l66 61h35l-88 -95h-27zM556 226q0 -82 -18 -128.5t-51.5 -67.5t-82 -26.5t-109.5 -5.5q-29 0 -60.5 0.5t-62 0.5t-55 0.5t-39.5 0.5v396q0 32 8.5 47t44.5 17q16 1 42 1t55.5 0.5t57.5 0.5t47 -1q55 -2 96.5 -9t70 -30t42.5 -69.5t14 -126.5zM155 43
q7 0 25.5 -0.5t40.5 -0.5t42.5 -0.5t31.5 -0.5q51 0 86 7t56.5 26.5t31 56t9.5 95.5q0 80 -16.5 121.5t-55 56.5t-107.5 15h-39.5t-50.5 -0.5t-39 -2.5q-7 -4 -11 -10.5t-4 -25.5v-337z" />
    <glyph glyph-name="dcaron" unicode="&#x10f;" horiz-adv-x="480" 
d="M44 202q0 81 21.5 124t62.5 59t100 16q17 0 40.5 -1t47.5 -3.5t42 -5.5t25 -6l-21 -10v130h69l-1 -304q0 -68 -9 -108.5t-30.5 -60.5t-60 -27t-96.5 -7q-54 0 -91 7t-58.5 28t-31 61t-9.5 108zM228 38q45 0 71.5 5.5t40.5 22t18 46.5t4 79v162q-11 1 -31.5 2t-42.5 2
t-39 1q-48 0 -78 -12.5t-43.5 -47t-13.5 -99.5q0 -69 10.5 -103.5t35.5 -46t68 -11.5zM494 369l5 136h38l-15 -136h-28z" />
    <glyph glyph-name="Dcroat" unicode="&#x110;" horiz-adv-x="601" 
d="M556 226q0 -82 -18 -128.5t-51.5 -67.5t-82 -26.5t-109.5 -5.5q-29 0 -60.5 0.5t-62 0.5t-55 0.5t-39.5 0.5v396q0 32 8.5 47t44.5 17q16 1 42 1t55.5 0.5t57.5 0.5t47 -1q55 -2 96.5 -9t70 -30t42.5 -69.5t14 -126.5zM155 43q7 0 25.5 -0.5t40.5 -0.5t42.5 -0.5
t31.5 -0.5q51 0 86 7t56.5 26.5t31 56t9.5 95.5q0 80 -16.5 121.5t-55 56.5t-107.5 15h-39.5t-50.5 -0.5t-39 -2.5q-7 -4 -11 -10.5t-4 -25.5v-337zM16 235h260v-28h-260v28z" />
    <glyph glyph-name="dcroat" unicode="&#x111;" horiz-adv-x="492" 
d="M283 525h80v75h69v-75h82v-30h-82v-294q0 -65 -8 -105t-28 -61.5t-57.5 -29t-97.5 -7.5q-58 0 -96.5 7t-60.5 27.5t-31 61t-9 108.5q0 79 21 122t63.5 59.5t109.5 16.5q10 0 29.5 -0.5t40.5 -1.5t36.5 -2t18.5 -2v101h-80v30zM230 37q41 0 67 4t40.5 18.5t20 46t5.5 85.5
v163q-2 0 -14.5 1t-31 2t-36.5 1.5t-32 0.5q-56 0 -85 -16.5t-39.5 -52t-10.5 -93.5q0 -70 11.5 -104.5t37 -45t67.5 -10.5z" />
    <glyph glyph-name="Emacron" unicode="&#x112;" horiz-adv-x="545" 
d="M83 0v428q0 18 5 25t22 7h397v-44h-347v-153h318v-44h-318v-175h347v-44h-424zM177 522v30h228v-30h-228z" />
    <glyph glyph-name="emacron" unicode="&#x113;" horiz-adv-x="465" 
d="M249 -6q-58 0 -97.5 8t-63 30t-34 61.5t-10.5 102.5q0 72 18 118t64 68t129 22q64 0 102.5 -17t56 -52t17.5 -91v-57h-282q0 12 6 20.5t22 8.5h191l-1 29q-1 62 -26.5 90t-88.5 28q-53 0 -83 -16t-42 -52t-12 -98q0 -66 13.5 -100.5t45.5 -47t87 -12.5q19 0 43.5 1.5
t49.5 3.5t44.5 5.5t27.5 7.5v-12q0 -10 -5.5 -19t-22.5 -15q-22 -9 -59.5 -12t-89.5 -3zM130 461v33h222v-33h-222z" />
    <glyph glyph-name="Ebreve" unicode="&#x114;" horiz-adv-x="545" 
d="M83 0v428q0 18 5 25t22 7h397v-44h-347v-153h318v-44h-318v-175h347v-44h-424zM291 520q-29 0 -52 6t-36.5 25.5t-14.5 57.5v6h34v-5q0 -14 4.5 -28t19 -22.5t43.5 -8.5q31 0 45.5 8.5t19.5 22.5t5 28v5h32v-5q0 -39 -13 -58t-35.5 -25t-51.5 -7z" />
    <glyph glyph-name="ebreve" unicode="&#x115;" horiz-adv-x="465" 
d="M249 -6q-58 0 -97.5 8t-63 30t-34 61.5t-10.5 102.5q0 72 18 118t64 68t129 22q64 0 102.5 -17t56 -52t17.5 -91v-57h-282q0 12 6 20.5t22 8.5h191l-1 29q-1 62 -26.5 90t-88.5 28q-53 0 -83 -16t-42 -52t-12 -98q0 -66 13.5 -100.5t45.5 -47t87 -12.5q19 0 43.5 1.5
t49.5 3.5t44.5 5.5t27.5 7.5v-12q0 -10 -5.5 -19t-22.5 -15q-22 -9 -59.5 -12t-89.5 -3zM241 458q-37 0 -59.5 11.5t-32 36t-9.5 60.5h31q0 -38 17 -56.5t53 -18.5q42 0 56 19t14 56h30q0 -37 -8.5 -61t-30.5 -35.5t-61 -11.5z" />
    <glyph glyph-name="Edotaccent" unicode="&#x116;" horiz-adv-x="545" 
d="M83 0v428q0 18 5 25t22 7h397v-44h-347v-153h318v-44h-318v-175h347v-44h-424zM291 520q-16 0 -26 4.5t-10 22.5q0 20 10.5 24.5t26.5 4.5t24.5 -5t8.5 -24q0 -18 -9 -22.5t-25 -4.5z" />
    <glyph glyph-name="edotaccent" unicode="&#x117;" horiz-adv-x="465" 
d="M249 -6q-58 0 -97.5 8t-63 30t-34 61.5t-10.5 102.5q0 72 18 118t64 68t129 22q64 0 102.5 -17t56 -52t17.5 -91v-57h-282q0 12 6 20.5t22 8.5h191l-1 29q-1 62 -26.5 90t-88.5 28q-53 0 -83 -16t-42 -52t-12 -98q0 -66 13.5 -100.5t45.5 -47t87 -12.5q19 0 43.5 1.5
t49.5 3.5t44.5 5.5t27.5 7.5v-12q0 -10 -5.5 -19t-22.5 -15q-22 -9 -59.5 -12t-89.5 -3zM241 459q-16 0 -26 4.5t-10 22.5q0 20 10.5 24.5t26.5 4.5t24.5 -5t8.5 -24q0 -18 -9 -22.5t-25 -4.5z" />
    <glyph glyph-name="Eogonek" unicode="&#x118;" horiz-adv-x="545" 
d="M83 0v428q0 18 5 25t22 7h397v-44h-347v-153h318v-44h-318v-175h347v-44h-424zM442 -175q-33 0 -54 6.5t-30.5 22t-9.5 41.5q0 21 11.5 39.5t27 33.5t32 26t26.5 16h39q-8 -3 -23.5 -13.5t-32.5 -25.5t-29 -32.5t-12 -32.5q0 -32 17.5 -41.5t45.5 -9.5q13 0 21.5 0.5
t13.5 1t7 0.5q0 -11 -3 -18.5t-13.5 -10.5t-33.5 -3z" />
    <glyph glyph-name="eogonek" unicode="&#x119;" horiz-adv-x="465" 
d="M249 -6q-58 0 -97.5 8t-63 30t-34 61.5t-10.5 102.5q0 72 18 118t64 68t129 22q64 0 102.5 -17t56 -52t17.5 -91v-57h-282q0 12 6 20.5t22 8.5h191l-1 29q-1 62 -26.5 90t-88.5 28q-53 0 -83 -16t-42 -52t-12 -98q0 -66 13.5 -100.5t45.5 -47t87 -12.5q19 0 43.5 1.5
t49.5 3.5t44.5 5.5t27.5 7.5v-12q0 -10 -5.5 -19t-22.5 -15q-22 -9 -59.5 -12t-89.5 -3zM332 -178q-33 0 -54 6.5t-30.5 22t-9.5 41.5q0 21 11.5 39.5t27 33.5t32 26t26.5 16h39q-8 -3 -23.5 -13.5t-32.5 -25.5t-29 -32.5t-12 -32.5q0 -32 17.5 -41.5t45.5 -9.5
q13 0 21.5 0.5t13.5 1t7 0.5q0 -11 -3 -18.5t-13.5 -10.5t-33.5 -3z" />
    <glyph glyph-name="Ecaron" unicode="&#x11a;" horiz-adv-x="545" 
d="M190 616h33l67 -61l66 61h36l-88 -95h-27zM83 0v428q0 18 5 25t22 7h397v-44h-347v-153h318v-44h-318v-175h347v-44h-424z" />
    <glyph glyph-name="ecaron" unicode="&#x11b;" horiz-adv-x="465" 
d="M139 574h34l67 -78l68 78h35l-89 -114h-26zM249 -6q-58 0 -97.5 8t-63 30t-34 61.5t-10.5 102.5q0 72 18 118t64 68t129 22q64 0 102.5 -17t56 -52t17.5 -91v-57h-282q0 12 6 20.5t22 8.5h191l-1 29q-1 62 -26.5 90t-88.5 28q-53 0 -83 -16t-42 -52t-12 -98
q0 -66 13.5 -100.5t45.5 -47t87 -12.5q19 0 43.5 1.5t49.5 3.5t44.5 5.5t27.5 7.5v-12q0 -10 -5.5 -19t-22.5 -15q-22 -9 -59.5 -12t-89.5 -3z" />
    <glyph glyph-name="Gcircumflex" unicode="&#x11c;" horiz-adv-x="565" 
d="M291 -7q-69 0 -116 11t-75.5 38.5t-41.5 73t-13 113.5q0 75 17 121.5t49.5 71.5t79.5 34.5t108 9.5q50 0 92.5 -2.5t73.5 -9.5q20 -3 29.5 -9t12 -13.5t2.5 -15.5v-20q-7 6 -25 10t-41.5 7t-48.5 5.5t-47.5 3t-37.5 0.5q-70 0 -110 -17t-57.5 -58.5t-17.5 -117.5
q0 -73 15.5 -115t53 -59.5t101.5 -17.5q58 0 92 11t50 42t17 87q1 13 0.5 22.5t-0.5 14.5h-189q0 18 2.5 27t11 13t26.5 4h224v-79q0 -54 -12.5 -89.5t-40 -57t-73 -30.5t-111.5 -9zM187 521l87 95h27l88 -95h-35l-66 61l-67 -61h-34z" />
    <glyph glyph-name="gcircumflex" unicode="&#x11d;" horiz-adv-x="488" 
d="M230 -114q-22 0 -49.5 1.5t-52.5 6t-41.5 13t-16.5 21.5v10v8q14 -7 40.5 -13t56.5 -9t52 -3q58 0 90 17t43.5 56.5t8.5 104.5h15q-10 -34 -34 -52t-57 -25t-71 -7q-58 0 -96 13.5t-56 54t-18 119.5q0 64 11.5 103.5t36.5 60.5t65.5 28.5t98.5 7.5q22 0 49 -2t54 -3.5
t47.5 -3.5t27.5 -4q-1 -3 -2 -16.5t-1 -31v-33.5v-237q0 -70 -20.5 -110.5t-64.5 -57.5t-116 -17zM230 57q37 0 66 8.5t47 28t18 52.5v206q-9 2 -41 5.5t-74 3.5q-49 0 -77 -12.5t-40.5 -45t-12.5 -93.5q0 -62 11 -95.5t36 -45.5t67 -12zM142 460l88 114h26l89 -114h-35
l-67 78l-68 -78h-33z" />
    <glyph glyph-name="Gbreve" unicode="&#x11e;" horiz-adv-x="565" 
d="M291 -7q-69 0 -116 11t-75.5 38.5t-41.5 73t-13 113.5q0 75 17 121.5t49.5 71.5t79.5 34.5t108 9.5q50 0 92.5 -2.5t73.5 -9.5q20 -3 29.5 -9t12 -13.5t2.5 -15.5v-20q-7 6 -25 10t-41.5 7t-48.5 5.5t-47.5 3t-37.5 0.5q-70 0 -110 -17t-57.5 -58.5t-17.5 -117.5
q0 -73 15.5 -115t53 -59.5t101.5 -17.5q58 0 92 11t50 42t17 87q1 13 0.5 22.5t-0.5 14.5h-189q0 18 2.5 27t11 13t26.5 4h224v-79q0 -54 -12.5 -89.5t-40 -57t-73 -30.5t-111.5 -9zM288 520q-29 0 -52 6t-36.5 25.5t-14.5 57.5v6h34v-5q0 -14 4.5 -28t19 -22.5t43.5 -8.5
q31 0 45.5 8.5t19.5 22.5t5 28v5h32v-5q0 -39 -13 -58t-35.5 -25t-51.5 -7z" />
    <glyph glyph-name="gbreve" unicode="&#x11f;" horiz-adv-x="488" 
d="M230 -114q-22 0 -49.5 1.5t-52.5 6t-41.5 13t-16.5 21.5v10v8q14 -7 40.5 -13t56.5 -9t52 -3q58 0 90 17t43.5 56.5t8.5 104.5h15q-10 -34 -34 -52t-57 -25t-71 -7q-58 0 -96 13.5t-56 54t-18 119.5q0 64 11.5 103.5t36.5 60.5t65.5 28.5t98.5 7.5q22 0 49 -2t54 -3.5
t47.5 -3.5t27.5 -4q-1 -3 -2 -16.5t-1 -31v-33.5v-237q0 -70 -20.5 -110.5t-64.5 -57.5t-116 -17zM230 57q37 0 66 8.5t47 28t18 52.5v206q-9 2 -41 5.5t-74 3.5q-49 0 -77 -12.5t-40.5 -45t-12.5 -93.5q0 -62 11 -95.5t36 -45.5t67 -12zM244 458q-37 0 -59.5 11.5t-32 36
t-9.5 60.5h31q0 -38 17 -56.5t53 -18.5q42 0 56 19t14 56h30q0 -37 -8.5 -61t-30.5 -35.5t-61 -11.5z" />
    <glyph glyph-name="Gdotaccent" unicode="&#x120;" horiz-adv-x="565" 
d="M291 -7q-69 0 -116 11t-75.5 38.5t-41.5 73t-13 113.5q0 75 17 121.5t49.5 71.5t79.5 34.5t108 9.5q50 0 92.5 -2.5t73.5 -9.5q20 -3 29.5 -9t12 -13.5t2.5 -15.5v-20q-7 6 -25 10t-41.5 7t-48.5 5.5t-47.5 3t-37.5 0.5q-70 0 -110 -17t-57.5 -58.5t-17.5 -117.5
q0 -73 15.5 -115t53 -59.5t101.5 -17.5q58 0 92 11t50 42t17 87q1 13 0.5 22.5t-0.5 14.5h-189q0 18 2.5 27t11 13t26.5 4h224v-79q0 -54 -12.5 -89.5t-40 -57t-73 -30.5t-111.5 -9zM288 520q-16 0 -26 4.5t-10 22.5q0 20 10.5 24.5t26.5 4.5t24.5 -5t8.5 -24
q0 -18 -9 -22.5t-25 -4.5z" />
    <glyph glyph-name="gdotaccent" unicode="&#x121;" horiz-adv-x="488" 
d="M230 -114q-22 0 -49.5 1.5t-52.5 6t-41.5 13t-16.5 21.5v10v8q14 -7 40.5 -13t56.5 -9t52 -3q58 0 90 17t43.5 56.5t8.5 104.5h15q-10 -34 -34 -52t-57 -25t-71 -7q-58 0 -96 13.5t-56 54t-18 119.5q0 64 11.5 103.5t36.5 60.5t65.5 28.5t98.5 7.5q22 0 49 -2t54 -3.5
t47.5 -3.5t27.5 -4q-1 -3 -2 -16.5t-1 -31v-33.5v-237q0 -70 -20.5 -110.5t-64.5 -57.5t-116 -17zM230 57q37 0 66 8.5t47 28t18 52.5v206q-9 2 -41 5.5t-74 3.5q-49 0 -77 -12.5t-40.5 -45t-12.5 -93.5q0 -62 11 -95.5t36 -45.5t67 -12zM245 459q-16 0 -26 4.5t-10 22.5
q0 20 10.5 24.5t26.5 4.5t24.5 -5t8.5 -24q0 -18 -9 -22.5t-25 -4.5z" />
    <glyph glyph-name="uni0122" unicode="&#x122;" horiz-adv-x="565" 
d="M291 -7q-69 0 -116 11t-75.5 38.5t-41.5 73t-13 113.5q0 75 17 121.5t49.5 71.5t79.5 34.5t108 9.5q50 0 92.5 -2.5t73.5 -9.5q20 -3 29.5 -9t12 -13.5t2.5 -15.5v-20q-7 6 -25 10t-41.5 7t-48.5 5.5t-47.5 3t-37.5 0.5q-70 0 -110 -17t-57.5 -58.5t-17.5 -117.5
q0 -73 15.5 -115t53 -59.5t101.5 -17.5q58 0 92 11t50 42t17 87q1 13 0.5 22.5t-0.5 14.5h-189q0 18 2.5 27t11 13t26.5 4h224v-79q0 -54 -12.5 -89.5t-40 -57t-73 -30.5t-111.5 -9zM252 -201q7 16 12 30.5t9.5 27t7.5 22.5h-4h-4q-8 1 -16 6t-8 21q0 19 11 24t30 5
q10 0 17 -2.5t11 -9t4 -19.5q0 -16 -7 -37t-16 -39.5t-16 -28.5h-31z" />
    <glyph glyph-name="uni0123" unicode="&#x123;" horiz-adv-x="488" 
d="M230 -114q-22 0 -49.5 1.5t-52.5 6t-41.5 13t-16.5 21.5v10v8q14 -7 40.5 -13t56.5 -9t52 -3q58 0 90 17t43.5 56.5t8.5 104.5h15q-10 -34 -34 -52t-57 -25t-71 -7q-58 0 -96 13.5t-56 54t-18 119.5q0 64 11.5 103.5t36.5 60.5t65.5 28.5t98.5 7.5q22 0 49 -2t54 -3.5
t47.5 -3.5t27.5 -4q-1 -3 -2 -16.5t-1 -31v-33.5v-237q0 -70 -20.5 -110.5t-64.5 -57.5t-116 -17zM230 57q37 0 66 8.5t47 28t18 52.5v206q-9 2 -41 5.5t-74 3.5q-49 0 -77 -12.5t-40.5 -45t-12.5 -93.5q0 -62 11 -95.5t36 -45.5t67 -12zM239 460q-9 0 -16.5 2t-11.5 9
t-4 19q0 17 7 38t16 39.5t15 27.5h32q-7 -15 -12.5 -29.5t-9.5 -27t-7 -22.5q2 0 4 -0.5t4 -0.5q8 -1 16 -5.5t8 -21.5q0 -18 -11 -23t-30 -5z" />
    <glyph glyph-name="Hcircumflex" unicode="&#x124;" horiz-adv-x="623" 
d="M83 0v431q0 19 6.5 24t22.5 5h48v-200h303v200h77v-429q0 -19 -5 -25t-24 -6h-48v215h-303v-215h-77zM210 521l87 95h27l88 -95h-35l-66 61l-67 -61h-34z" />
    <glyph glyph-name="hcircumflex" unicode="&#x125;" horiz-adv-x="483" 
d="M89 0q-20 0 -24.5 6t-4.5 25v473h70v-119q11 5 32.5 7.5t45 4.5t43.5 2q60 0 96 -11.5t53 -33t22.5 -53t5.5 -71.5v-191q0 -17 -2.5 -25.5t-9.5 -11t-21 -2.5h-35v246q0 48 -13.5 73t-40.5 34t-66 9q-15 0 -36.5 -1.5t-42 -4.5t-31.5 -8v-348h-41zM-6 539l88 114h26
l89 -114h-35l-67 78l-68 -78h-33z" />
    <glyph glyph-name="Hbar" unicode="&#x126;" horiz-adv-x="623" 
d="M83 0v431q0 19 6.5 24t22.5 5h48v-200h303v200h77v-429q0 -19 -5 -25t-24 -6h-48v215h-303v-215h-77zM42 382h537v-26h-537v26z" />
    <glyph glyph-name="hbar" unicode="&#x127;" horiz-adv-x="483" 
d="M96 0q-20 0 -24.5 6t-4.5 25v473h70v-119q11 5 32.5 7.5t45 4.5t43.5 2q60 0 96 -11.5t53 -33t22.5 -53t5.5 -71.5v-191q0 -17 -2.5 -25.5t-9.5 -11t-21 -2.5h-35v246q0 48 -13.5 73t-40.5 34t-66 9q-15 0 -36.5 -1.5t-42 -4.5t-31.5 -8v-348h-41zM11 471h227v-24h-227
v24z" />
    <glyph glyph-name="Itilde" unicode="&#x128;" horiz-adv-x="243" 
d="M83 0v214v214q0 11 1.5 17.5t7 10.5t18.5 4h50v-460h-77zM171 520q-17 0 -33.5 9l-33 18t-32.5 9q-18 0 -28 -10.5t-14 -17.5l-17 14l5 10t11.5 17t18 16.5t25.5 7.5q18 1 34 -9t31.5 -19t31.5 -9q21 0 31.5 12t14.5 20l17 -14q-1 -3 -5 -11t-11.5 -18t-19 -17.5
t-26.5 -7.5z" />
    <glyph glyph-name="itilde" unicode="&#x129;" horiz-adv-x="208" 
d="M133 -4q-47 0 -63 25t-16 73v305h70v-301q0 -41 9 -55t32 -14q9 0 20.5 2t14.5 3v-31q-3 -1 -11.5 -2.5t-22 -3t-33.5 -1.5zM129 458q-18 0 -34 9.5t-32.5 18.5t-33.5 9t-26 -11.5t-13 -18.5l-18 13q1 3 5 11t11 18t17.5 17t25.5 7q17 0 33 -9.5l32 -19t32 -9.5
q20 0 30.5 12.5t14.5 20.5l19 -13q-2 -3 -6 -11.5t-12 -18.5t-19 -17.5t-26 -7.5z" />
    <glyph glyph-name="Imacron" unicode="&#x12a;" horiz-adv-x="243" 
d="M83 0v214v214q0 11 1.5 17.5t7 10.5t18.5 4h50v-460h-77zM8 522v30h228v-30h-228z" />
    <glyph glyph-name="imacron" unicode="&#x12b;" horiz-adv-x="208" 
d="M133 -4q-47 0 -63 25t-16 73v305h70v-301q0 -41 9 -55t32 -14q9 0 20.5 2t14.5 3v-31q-3 -1 -11.5 -2.5t-22 -3t-33.5 -1.5zM-31 461v33h222v-33h-222z" />
    <glyph glyph-name="Ibreve" unicode="&#x12c;" horiz-adv-x="243" 
d="M83 0v214v214q0 11 1.5 17.5t7 10.5t18.5 4h50v-460h-77zM122 520q-29 0 -52 6t-36.5 25.5t-14.5 57.5v6h34v-5q0 -14 4.5 -28t19 -22.5t43.5 -8.5q31 0 45.5 8.5t19.5 22.5t5 28v5h32v-5q0 -39 -13 -58t-35.5 -25t-51.5 -7z" />
    <glyph glyph-name="ibreve" unicode="&#x12d;" horiz-adv-x="208" 
d="M133 -4q-47 0 -63 25t-16 73v305h70v-301q0 -41 9 -55t32 -14q9 0 20.5 2t14.5 3v-31q-3 -1 -11.5 -2.5t-22 -3t-33.5 -1.5zM79 458q-37 0 -59.5 11.5t-32 36t-9.5 60.5h31q0 -38 17 -56.5t53 -18.5q42 0 56 19t14 56h30q0 -37 -8.5 -61t-30.5 -35.5t-61 -11.5z" />
    <glyph glyph-name="Iogonek" unicode="&#x12e;" horiz-adv-x="243" 
d="M83 0v214v214q0 11 1.5 17.5t7 10.5t18.5 4h50v-460h-77zM105 -175q-33 0 -54 6.5t-30.5 22t-9.5 41.5q0 21 11.5 39.5t27 33.5t32 26t26.5 16h39q-8 -3 -23.5 -13.5t-32.5 -25.5t-29 -32.5t-12 -32.5q0 -32 17.5 -41.5t45.5 -9.5q13 0 21.5 0.5t13.5 1t7 0.5
q0 -11 -3 -18.5t-13.5 -10.5t-33.5 -3z" />
    <glyph glyph-name="iogonek" unicode="&#x12f;" horiz-adv-x="208" 
d="M133 -4q-47 0 -63 25t-16 73v305h70v-301q0 -41 9 -55t32 -14q9 0 20.5 2t14.5 3v-31q-3 -1 -11.5 -2.5t-22 -3t-33.5 -1.5zM80 459q-16 0 -26 4.5t-10 22.5q0 20 10.5 24.5t26.5 4.5t24.5 -5t8.5 -24q0 -18 -9 -22.5t-25 -4.5zM126 -175q-33 0 -54 6.5t-30.5 22
t-9.5 41.5q0 21 11.5 39.5t27 33.5t32 26t26.5 16h39q-8 -3 -23.5 -13.5t-32.5 -25.5t-29 -32.5t-12 -32.5q0 -32 17.5 -41.5t45.5 -9.5q13 0 21.5 0.5t13.5 1t7 0.5q0 -11 -3 -18.5t-13.5 -10.5t-33.5 -3z" />
    <glyph glyph-name="Idotaccent" unicode="&#x130;" horiz-adv-x="243" 
d="M83 0v214v214q0 11 1.5 17.5t7 10.5t18.5 4h50v-460h-77zM122 520q-16 0 -26 4.5t-10 22.5q0 20 10.5 24.5t26.5 4.5t24.5 -5t8.5 -24q0 -18 -9 -22.5t-25 -4.5z" />
    <glyph glyph-name="dotlessi" unicode="&#x131;" horiz-adv-x="208" 
d="M133 -4q-47 0 -63 25t-16 73v305h70v-301q0 -41 9 -55t32 -14q9 0 20.5 2t14.5 3v-31q-3 -1 -11.5 -2.5t-22 -3t-33.5 -1.5z" />
    <glyph glyph-name="IJ" unicode="&#x132;" horiz-adv-x="536" 
d="M83 0v214v214q0 11 1.5 17.5t7 10.5t18.5 4h50v-460h-77zM459 149v-45.5t-3 -43.5q-3 -18 -14 -32t-29.5 -22t-43.5 -8q-14 -1 -28.5 -1t-30 2t-32.5 4v48q7 -3 24 -6t27 -3q28 0 40.5 12t12.5 39v367h49q14 0 20 -4t7 -11t1 -18v-278z" />
    <glyph glyph-name="ij" unicode="&#x133;" horiz-adv-x="427" 
d="M133 -4q-47 0 -63 25t-16 73v305h70v-301q0 -41 9 -55t32 -14q9 0 20.5 2t14.5 3v-31q-3 -1 -11.5 -2.5t-22 -3t-33.5 -1.5zM234 -90q-24 0 -43 2t-25 3v31q5 -1 20 -2.5t25 -1.5q30 0 37 15t7 55v358q0 11 2 17.5t8 9t18 2.5h42v-391q0 -36 -7 -57.5t-26.5 -31
t-57.5 -9.5zM292 457q-17 0 -27 5t-10 21t9.5 21t26.5 5q19 0 28 -5t8 -21q0 -16 -9 -21t-26 -5z" />
    <glyph glyph-name="Jcircumflex" unicode="&#x134;" horiz-adv-x="294" 
d="M216 149v-45.5t-3 -43.5q-3 -18 -14 -32t-29.5 -22t-43.5 -8q-14 -1 -28.5 -1t-30 2t-32.5 4v48q7 -3 24 -6t27 -3q28 0 40.5 12t12.5 39v367h49q14 0 20 -4t7 -11t1 -18v-278zM74 521l87 95h27l88 -95h-35l-66 61l-67 -61h-34z" />
    <glyph glyph-name="jcircumflex" unicode="&#x135;" horiz-adv-x="234" 
d="M15 -55q5 -2 20 -3t25 -1q32 0 38 18.5t6 58.5v176v176q0 11 2 17.5t8 9t18 2.5h21h21v-66v-73v-77v-76v-71v-41.5t-3 -35t-12 -26.5t-26.5 -17t-48.5 -6q-23 0 -43 2t-26 3v15v15zM43 460l88 114h26l89 -114h-35l-67 78l-68 -78h-33z" />
    <glyph glyph-name="uni0136" unicode="&#x136;" horiz-adv-x="523" 
d="M457 -5q-15 0 -28 4t-26 14q-6 6 -20.5 22t-33 36.5t-37.5 42t-34 38.5t-22 25q-11 12 -19 17t-25 9l-53 2v-205h-76v432q0 10 1.5 16t7 9t17.5 3h25.5h24.5v-40.5v-56v-56v-40.5l53 3q14 1 21 6t16 15q22 24 46.5 50t50.5 53t49 52q12 9 25 13t30 4q14 0 23 -2t18 -5
q-2 -1 -13.5 -13.5t-26.5 -28t-26 -27.5q-26 -24 -55 -50t-55.5 -51.5t-49.5 -47.5l3 16q14 -11 39.5 -36.5t58.5 -60t69 -72.5t70 -71q-2 -3 -9 -7.5t-16 -8t-23 -3.5zM248 -201q7 16 12 30.5t9.5 27t7.5 22.5h-4h-4q-8 1 -16 6t-8 21q0 19 11 24t30 5q10 0 17 -2.5t11 -9
t4 -19.5q0 -16 -7 -37t-16 -39.5t-16 -28.5h-31z" />
    <glyph glyph-name="uni0137" unicode="&#x137;" horiz-adv-x="438" 
d="M60 0v478q0 16 5 22t22 6h43v-322l186 197q10 10 20.5 14.5t29.5 5.5q15 0 27 -0.5t22 -1.5q-3 -3 -11 -9.5t-17.5 -14t-17.5 -14.5l-130 -131l172 -193q9 -11 18.5 -20t18.5 -17q-19 -1 -37 -1h-34q-17 0 -26 5t-20 16l-141 159l-60 -56v-123h-70zM212 -201
q7 16 12 30.5t9.5 27t7.5 22.5h-4h-4q-8 1 -16 6t-8 21q0 19 11 24t30 5q10 0 17 -2.5t11 -9t4 -19.5q0 -16 -7 -37t-16 -39.5t-16 -28.5h-31z" />
    <glyph glyph-name="kgreenlandic" unicode="&#x138;" horiz-adv-x="492" 
d="M91 0v65.5v80.5t-0.5 81.5t-0.5 69v41.5q0 18 -9.5 26t-23 9t-26 -0.5t-19.5 -3.5v4.5v10v10v5.5q10 2 28 4.5t38.5 2.5t40 -4.5t31.5 -15.5t12 -32v-46.5v-22v-16.5v-28.5v-58.5q6 6 20.5 21t35.5 36.5t46 47.5t51.5 55t53.5 57h9.5h17.5h19h17h10q-7 -4 -16 -12.5
t-17 -16.5q-42 -41 -78 -77t-60 -62q17 -20 45 -51.5t59 -65.5t57 -62.5t36 -40.5q2 -2 5 -4.5t4.5 -4.5l1.5 -2q0 1 -7.5 1t-18.5 -0.5t-23 -1t-21 -0.5q-17 0 -28 4t-23 17q-23 27 -47 55t-47.5 55.5t-45.5 53.5l-56 -63v-60v-61h-9h-16.5h-19.5h-17h-9z" />
    <glyph glyph-name="Lacute" unicode="&#x139;" horiz-adv-x="477" 
d="M159 460v-416h307v-44h-383v427q0 11 1 18t7 11t19 4h49zM103 521l102 95l36 -27l-105 -68h-33z" />
    <glyph glyph-name="lacute" unicode="&#x13a;" horiz-adv-x="213" 
d="M144 -4q-46 0 -66 20.5t-20 73.5v382q0 12 2 19.5t8.5 10.5t18.5 3h42q0 -1 -1 -13t-1 -30v-361q0 -38 8.5 -55t33.5 -17q7 0 19 2t16 3v-31q-6 -1 -19.5 -4t-40.5 -3zM70 566l112 113l37 -27l-116 -86h-33z" />
    <glyph glyph-name="uni013B" unicode="&#x13b;" horiz-adv-x="477" 
d="M159 460v-416h307v-44h-383v427q0 11 1 18t7 11t19 4h49zM225 -201q7 16 12 30.5t9.5 27t7.5 22.5h-4h-4q-8 1 -16 6t-8 21q0 19 11 24t30 5q10 0 17 -2.5t11 -9t4 -19.5q0 -16 -7 -37t-16 -39.5t-16 -28.5h-31z" />
    <glyph glyph-name="uni013C" unicode="&#x13c;" horiz-adv-x="213" 
d="M144 -4q-46 0 -66 20.5t-20 73.5v382q0 12 2 19.5t8.5 10.5t18.5 3h42q0 -1 -1 -13t-1 -30v-361q0 -38 8.5 -55t33.5 -17q7 0 19 2t16 3v-31q-6 -1 -19.5 -4t-40.5 -3zM88 -201q7 16 12 30.5t9.5 27t7.5 22.5h-4h-4q-8 1 -16 6t-8 21q0 19 11 24t30 5q10 0 17 -2.5t11 -9
t4 -19.5q0 -16 -7 -37t-16 -39.5t-16 -28.5h-31z" />
    <glyph glyph-name="Lcaron" unicode="&#x13d;" horiz-adv-x="477" 
d="M159 460v-416h307v-44h-383v427q0 11 1 18t7 11t19 4h49zM293 324l-7 136h38l-2 -136h-29z" />
    <glyph glyph-name="lcaron" unicode="&#x13e;" horiz-adv-x="213" 
d="M144 -4q-46 0 -66 20.5t-20 73.5v382q0 12 2 19.5t8.5 10.5t18.5 3h42q0 -1 -1 -13t-1 -30v-361q0 -38 8.5 -55t33.5 -17q7 0 19 2t16 3v-31q-6 -1 -19.5 -4t-40.5 -3zM190 371l5 136h38l-15 -136h-28z" />
    <glyph glyph-name="Ldot" unicode="&#x13f;" horiz-adv-x="455" 
d="M159 460v-416h307v-44h-383v427q0 11 1 18t7 11t19 4h49zM264 222q0 19 12 24t29 5t28 -5t11 -24q0 -13 -5.5 -19t-14.5 -7.5t-20 -1.5q-10 0 -19 1.5t-15 7.5t-6 19z" />
    <glyph glyph-name="ldot" unicode="&#x140;" horiz-adv-x="231" 
d="M144 -4q-46 0 -66 20.5t-20 73.5v382q0 12 2 19.5t8.5 10.5t18.5 3h42q0 -1 -1 -13t-1 -30v-361q0 -38 8.5 -55t33.5 -17q7 0 19 2t16 3v-31q-6 -1 -19.5 -4t-40.5 -3zM179 223q0 19 12 24t29 5t28 -5t11 -24q0 -13 -5.5 -19t-14.5 -7.5t-20 -1.5q-10 0 -19 1.5t-15 7.5
t-6 19z" />
    <glyph glyph-name="Lslash" unicode="&#x141;" horiz-adv-x="460" 
d="M230 217l7 -24l-233 -82l-9 24zM165 460v-416h307v-44h-384v427q0 11 1.5 18t7 11t18.5 4h50z" />
    <glyph glyph-name="lslash" unicode="&#x142;" horiz-adv-x="240" 
d="M224 227l7 -24l-221 -70l-7 26zM156 -4q-45 0 -65.5 20.5t-20.5 73.5v382q0 12 2.5 19.5t8.5 10.5t19 3h42q-1 -1 -1.5 -13t-0.5 -30v-361q0 -38 8 -55t34 -17q7 0 19 2t16 3v-31q-6 -1 -19.5 -4t-41.5 -3z" />
    <glyph glyph-name="Nacute" unicode="&#x143;" horiz-adv-x="624" 
d="M83 0v419q0 27 4.5 34t26.5 7h67l298 -381l3 -2v383h59q-1 -1 -2 -7.5t-1 -14v-14.5v-386q0 -26 -6.5 -32t-27.5 -6h-62l-301 384l-1 4v-388h-57zM280 521l102 95l36 -27l-105 -68h-33z" />
    <glyph glyph-name="nacute" unicode="&#x144;" horiz-adv-x="481" 
d="M83 0q-23 0 -23 24v346q29 13 76.5 23t109.5 10q58 0 94 -8t55 -24t25.5 -41.5t6.5 -61.5v-238q0 -11 -2.5 -18t-9 -9.5t-19.5 -2.5h-39v282q0 40 -26 59t-85 19q-19 0 -41.5 -3t-42.5 -8.5t-33 -14.5v-334h-46zM217 460l112 113l37 -27l-116 -86h-33z" />
    <glyph glyph-name="uni0145" unicode="&#x145;" horiz-adv-x="624" 
d="M83 0v419q0 27 4.5 34t26.5 7h67l298 -381l3 -2v383h59q-1 -1 -2 -7.5t-1 -14v-14.5v-386q0 -26 -6.5 -32t-27.5 -6h-62l-301 384l-1 4v-388h-57zM276 -201q7 16 12 30.5t9.5 27t7.5 22.5h-4h-4q-8 1 -16 6t-8 21q0 19 11 24t30 5q10 0 17 -2.5t11 -9t4 -19.5
q0 -16 -7 -37t-16 -39.5t-16 -28.5h-31z" />
    <glyph glyph-name="uni0146" unicode="&#x146;" horiz-adv-x="481" 
d="M83 0q-23 0 -23 24v346q29 13 76.5 23t109.5 10q58 0 94 -8t55 -24t25.5 -41.5t6.5 -61.5v-238q0 -11 -2.5 -18t-9 -9.5t-19.5 -2.5h-39v282q0 40 -26 59t-85 19q-19 0 -41.5 -3t-42.5 -8.5t-33 -14.5v-334h-46zM208 -201q7 16 12 30.5t9.5 27t7.5 22.5h-4h-4q-8 1 -16 6
t-8 21q0 19 11 24t30 5q10 0 17 -2.5t11 -9t4 -19.5q0 -16 -7 -37t-16 -39.5t-16 -28.5h-31z" />
    <glyph glyph-name="Ncaron" unicode="&#x147;" horiz-adv-x="624" 
d="M211 616h33l67 -61l66 61h36l-88 -95h-27zM83 0v419q0 27 4.5 34t26.5 7h67l298 -381l3 -2v383h59q-1 -1 -2 -7.5t-1 -14v-14.5v-386q0 -26 -6.5 -32t-27.5 -6h-62l-301 384l-1 4v-388h-57z" />
    <glyph glyph-name="ncaron" unicode="&#x148;" horiz-adv-x="481" 
d="M142 574h33l68 -78l68 78h34l-88 -114h-26zM83 0q-23 0 -23 24v346q29 13 76.5 23t109.5 10q58 0 94 -8t55 -24t25.5 -41.5t6.5 -61.5v-238q0 -11 -2.5 -18t-9 -9.5t-19.5 -2.5h-39v282q0 40 -26 59t-85 19q-19 0 -41.5 -3t-42.5 -8.5t-33 -14.5v-334h-46z" />
    <glyph glyph-name="napostrophe" unicode="&#x149;" horiz-adv-x="483" 
d="M7 384q9 20 17 42t11 34h-2.5h-3.5q-8 1 -15.5 5t-7.5 18q0 10 4.5 15.5t12.5 6.5t19 1q16 0 24 -4.5t8 -20.5q0 -15 -7 -35t-15.5 -37.5t-13.5 -24.5h-31zM95 0q-23 0 -23 24v346q30 13 77.5 23t108.5 10q59 0 94.5 -8t54.5 -24t25.5 -41.5t6.5 -61.5v-238q0 -11 -2 -18
t-9 -9.5t-20 -2.5h-38v282q0 40 -26 59t-86 19q-19 0 -41.5 -3t-42.5 -8.5t-32 -14.5v-334h-47z" />
    <glyph glyph-name="Eng" unicode="&#x14a;" horiz-adv-x="627" 
d="M83 0q2 2 2.5 11.5t0.5 19.5v194v194q0 27 6 34t28 7h32h31q76 -96 151 -192t151 -192v192v192h29h30q-2 -1 -2.5 -7.5t-0.5 -14v-14.5v-232v-231q0 -20 0.5 -47t-2.5 -43q-3 -18 -15 -32t-30 -21.5t-43 -8.5h-28t-30.5 1.5t-32.5 4.5v23.5v23.5q7 -3 24 -6t27 -3
q29 0 41 12t12 39v46v46h-8.5h-8.5l-305 391v-193.5v-193.5h-29h-30z" />
    <glyph glyph-name="eng" unicode="&#x14b;" horiz-adv-x="459" 
d="M39 370q9 4 30 11.5t60 14t100 6.5q57 0 92 -7.5t53.5 -23.5t25 -41.5t6.5 -61.5v-174q0 -29 0.5 -49.5t0.5 -32.5q0 -20 -0.5 -38.5t-4 -33.5t-13 -26t-26.5 -16.5t-47 -5.5q-21 0 -41 2.5t-29 5.5v8.5v11v7.5q39 -5 58 0.5t25.5 22t6.5 45.5v144v144q0 42 -28 60.5
t-81 18.5q-28 0 -54 -3.5t-43 -10.5t-21 -17v-331h-8.5h-14.5h-15h-9q-14 0 -18.5 6.5t-4.5 22.5v341z" />
    <glyph glyph-name="Omacron" unicode="&#x14c;" horiz-adv-x="599" 
d="M296 -7q-60 0 -106 9t-78.5 33.5t-49.5 71.5t-17 124q0 78 18.5 125.5t52.5 71.5t81.5 32t106.5 8t105 -8.5t78.5 -33t49.5 -71.5t17 -124q0 -79 -18.5 -126t-52 -71.5t-81 -32.5t-106.5 -8zM299 36q42 0 75 7.5t55.5 27.5t34 58.5t11.5 101.5q0 62 -11.5 100.5t-34 59
t-55.5 27.5t-75 7q-43 0 -75.5 -7t-54.5 -27.5t-33.5 -59t-11.5 -100.5q0 -63 11.5 -101.5t33.5 -58.5t54.5 -27.5t75.5 -7.5zM186 522v30h228v-30h-228z" />
    <glyph glyph-name="omacron" unicode="&#x14d;" horiz-adv-x="486" 
d="M244 -6q-46 0 -82.5 7t-63 28t-40.5 62t-14 108t14 108t40.5 62t63 28t82.5 7q45 0 81.5 -7t62.5 -28t40 -62t14 -108q0 -68 -14 -109t-40 -61.5t-62.5 -27.5t-81.5 -7zM244 33q40 0 68.5 12t43.5 47t15 107t-15 107t-43.5 47t-68.5 12t-68.5 -12t-44 -47t-15.5 -107
t15.5 -107t44 -47t68.5 -12zM132 461v33h222v-33h-222z" />
    <glyph glyph-name="Obreve" unicode="&#x14e;" horiz-adv-x="599" 
d="M296 -7q-60 0 -106 9t-78.5 33.5t-49.5 71.5t-17 124q0 78 18.5 125.5t52.5 71.5t81.5 32t106.5 8t105 -8.5t78.5 -33t49.5 -71.5t17 -124q0 -79 -18.5 -126t-52 -71.5t-81 -32.5t-106.5 -8zM299 36q42 0 75 7.5t55.5 27.5t34 58.5t11.5 101.5q0 62 -11.5 100.5t-34 59
t-55.5 27.5t-75 7q-43 0 -75.5 -7t-54.5 -27.5t-33.5 -59t-11.5 -100.5q0 -63 11.5 -101.5t33.5 -58.5t54.5 -27.5t75.5 -7.5zM300 520q-29 0 -52 6t-36.5 25.5t-14.5 57.5v6h34v-5q0 -14 4.5 -28t19 -22.5t43.5 -8.5q31 0 45.5 8.5t19.5 22.5t5 28v5h32v-5q0 -39 -13 -58
t-35.5 -25t-51.5 -7z" />
    <glyph glyph-name="obreve" unicode="&#x14f;" horiz-adv-x="486" 
d="M244 -6q-46 0 -82.5 7t-63 28t-40.5 62t-14 108t14 108t40.5 62t63 28t82.5 7q45 0 81.5 -7t62.5 -28t40 -62t14 -108q0 -68 -14 -109t-40 -61.5t-62.5 -27.5t-81.5 -7zM244 33q40 0 68.5 12t43.5 47t15 107t-15 107t-43.5 47t-68.5 12t-68.5 -12t-44 -47t-15.5 -107
t15.5 -107t44 -47t68.5 -12zM243 458q-37 0 -59.5 11.5t-32 36t-9.5 60.5h31q0 -38 17 -56.5t53 -18.5q42 0 56 19t14 56h30q0 -37 -8.5 -61t-30.5 -35.5t-61 -11.5z" />
    <glyph glyph-name="Ohungarumlaut" unicode="&#x150;" horiz-adv-x="599" 
d="M296 -7q-60 0 -106 9t-78.5 33.5t-49.5 71.5t-17 124q0 78 18.5 125.5t52.5 71.5t81.5 32t106.5 8t105 -8.5t78.5 -33t49.5 -71.5t17 -124q0 -79 -18.5 -126t-52 -71.5t-81 -32.5t-106.5 -8zM299 36q42 0 75 7.5t55.5 27.5t34 58.5t11.5 101.5q0 62 -11.5 100.5t-34 59
t-55.5 27.5t-75 7q-43 0 -75.5 -7t-54.5 -27.5t-33.5 -59t-11.5 -100.5q0 -63 11.5 -101.5t33.5 -58.5t54.5 -27.5t75.5 -7.5zM342 521l26 95l50 -1l-43 -94h-33zM232 521l27 95l48 -1l-42 -94h-33z" />
    <glyph glyph-name="ohungarumlaut" unicode="&#x151;" horiz-adv-x="486" 
d="M244 -6q-46 0 -82.5 7t-63 28t-40.5 62t-14 108t14 108t40.5 62t63 28t82.5 7q45 0 81.5 -7t62.5 -28t40 -62t14 -108q0 -68 -14 -109t-40 -61.5t-62.5 -27.5t-81.5 -7zM244 33q40 0 68.5 12t43.5 47t15 107t-15 107t-43.5 47t-68.5 12t-68.5 -12t-44 -47t-15.5 -107
t15.5 -107t44 -47t68.5 -12zM282 460l34 112l48 -1l-49 -111h-33zM172 460l33 112l49 -1l-49 -111h-33z" />
    <glyph glyph-name="OE" unicode="&#x152;" horiz-adv-x="931" 
d="M296 -7q-60 0 -106 9t-78.5 33.5t-49.5 71.5t-17 124q0 78 18.5 125.5t52.5 71.5t81.5 32t106.5 8t105 -8.5t78.5 -33t49.5 -71.5t17 -124q0 -79 -18.5 -126t-52 -71.5t-81 -32.5t-106.5 -8zM299 36q42 0 75 7.5t55.5 27.5t34 58.5t11.5 101.5q0 62 -11.5 100.5t-34 59
t-55.5 27.5t-75 7q-43 0 -75.5 -7t-54.5 -27.5t-33.5 -59t-11.5 -100.5q0 -63 11.5 -101.5t33.5 -58.5t54.5 -27.5t75.5 -7.5zM509 0v428q0 18 5 25t22 7h397v-44h-347v-153h318v-44h-318v-175h347v-44h-424z" />
    <glyph glyph-name="oe" unicode="&#x153;" horiz-adv-x="802" 
d="M244 -6q-46 0 -82.5 7t-63 28t-40.5 62t-14 108t14 108t40.5 62t63 28t82.5 7q45 0 81.5 -7t62.5 -28t40 -62t14 -108q0 -68 -14 -109t-40 -61.5t-62.5 -27.5t-81.5 -7zM244 33q40 0 68.5 12t43.5 47t15 107t-15 107t-43.5 47t-68.5 12t-68.5 -12t-44 -47t-15.5 -107
t15.5 -107t44 -47t68.5 -12zM581 -6q-58 0 -97.5 8t-63 30t-34 61.5t-10.5 102.5q0 72 18 118t64 68t129 22q64 0 102.5 -17t56 -52t17.5 -91v-57h-282q0 12 6 20.5t22 8.5h191l-1 29q-1 62 -26.5 90t-88.5 28q-53 0 -83 -16t-42 -52t-12 -98q0 -66 13.5 -100.5t45.5 -47
t87 -12.5q19 0 43.5 1.5t49.5 3.5t44.5 5.5t27.5 7.5v-12q0 -10 -5.5 -19t-22.5 -15q-22 -9 -59.5 -12t-89.5 -3z" />
    <glyph glyph-name="Racute" unicode="&#x154;" horiz-adv-x="597" 
d="M362 189h-28h-75t-104 -1v-188h-77v408q0 29 12.5 40t41.5 12q15 1 39.5 1t54.5 0.5t61.5 0.5h61t52.5 -1t36 -2q52 -5 76 -34.5t24 -87.5q0 -46 -12.5 -73t-37.5 -40q-3 -3 -9.5 -4.5t-13.5 -1.5v-2h9h8q38 -7 46 -30.5t8 -47.5v-114q0 -10 2 -16.5t3 -7.5h-54
q-14 0 -22 5t-8 24v106q0 31 -13.5 42.5t-47.5 11.5h-33zM155 231q14 0 44 -0.5t65.5 -0.5h65.5h44q33 0 58.5 20.5t25.5 76.5q0 38 -14.5 60.5t-46.5 26.5q-21 3 -52 3.5t-64 0t-61 -1t-42 -0.5q-3 0 -13 -3.5t-10 -20.5v-161zM275 521l102 95l36 -27l-105 -68h-33z" />
    <glyph glyph-name="racute" unicode="&#x155;" horiz-adv-x="391" 
d="M130 0h-44q-13 0 -19.5 6.5t-6.5 24.5v348q22 7 60.5 15t95.5 8q54 0 85.5 -7.5t46 -20.5t19 -31.5t4.5 -41.5h-67l-1 14q-1 23 -15 33.5t-33 13t-38 2.5q-29 0 -51.5 -5t-35.5 -13v-346zM185 460l112 113l37 -27l-116 -86h-33z" />
    <glyph glyph-name="uni0156" unicode="&#x156;" horiz-adv-x="597" 
d="M362 189h-28h-75t-104 -1v-188h-77v408q0 29 12.5 40t41.5 12q15 1 39.5 1t54.5 0.5t61.5 0.5h61t52.5 -1t36 -2q52 -5 76 -34.5t24 -87.5q0 -46 -12.5 -73t-37.5 -40q-3 -3 -9.5 -4.5t-13.5 -1.5v-2h9h8q38 -7 46 -30.5t8 -47.5v-114q0 -10 2 -16.5t3 -7.5h-54
q-14 0 -22 5t-8 24v106q0 31 -13.5 42.5t-47.5 11.5h-33zM155 231q14 0 44 -0.5t65.5 -0.5h65.5h44q33 0 58.5 20.5t25.5 76.5q0 38 -14.5 60.5t-46.5 26.5q-21 3 -52 3.5t-64 0t-61 -1t-42 -0.5q-3 0 -13 -3.5t-10 -20.5v-161zM272 -201q7 16 12 30.5t9.5 27t7.5 22.5h-4
h-4q-8 1 -16 6t-8 21q0 19 11 24t30 5q10 0 17 -2.5t11 -9t4 -19.5q0 -16 -7 -37t-16 -39.5t-16 -28.5h-31z" />
    <glyph glyph-name="uni0157" unicode="&#x157;" horiz-adv-x="391" 
d="M130 0h-44q-13 0 -19.5 6.5t-6.5 24.5v348q22 7 60.5 15t95.5 8q54 0 85.5 -7.5t46 -20.5t19 -31.5t4.5 -41.5h-67l-1 14q-1 23 -15 33.5t-33 13t-38 2.5q-29 0 -51.5 -5t-35.5 -13v-346zM64 -201q7 16 12 30.5t9.5 27t7.5 22.5h-4h-4q-8 1 -16 6t-8 21q0 19 11 24t30 5
q10 0 17 -2.5t11 -9t4 -19.5q0 -16 -7 -37t-16 -39.5t-16 -28.5h-31z" />
    <glyph glyph-name="Rcaron" unicode="&#x158;" horiz-adv-x="597" 
d="M207 616h33l67 -61l66 61h35l-88 -95h-27zM362 189h-28h-75t-104 -1v-188h-77v408q0 29 12.5 40t41.5 12q15 1 39.5 1t54.5 0.5t61.5 0.5h61t52.5 -1t36 -2q52 -5 76 -34.5t24 -87.5q0 -46 -12.5 -73t-37.5 -40q-3 -3 -9.5 -4.5t-13.5 -1.5v-2h9h8q38 -7 46 -30.5
t8 -47.5v-114q0 -10 2 -16.5t3 -7.5h-54q-14 0 -22 5t-8 24v106q0 31 -13.5 42.5t-47.5 11.5h-33zM155 231q14 0 44 -0.5t65.5 -0.5h65.5h44q33 0 58.5 20.5t25.5 76.5q0 38 -14.5 60.5t-46.5 26.5q-21 3 -52 3.5t-64 0t-61 -1t-42 -0.5q-3 0 -13 -3.5t-10 -20.5v-161z" />
    <glyph glyph-name="rcaron" unicode="&#x159;" horiz-adv-x="391" 
d="M110 574h33l68 -78l67 78h35l-89 -114h-26zM130 0h-44q-13 0 -19.5 6.5t-6.5 24.5v348q22 7 60.5 15t95.5 8q54 0 85.5 -7.5t46 -20.5t19 -31.5t4.5 -41.5h-67l-1 14q-1 23 -15 33.5t-33 13t-38 2.5q-29 0 -51.5 -5t-35.5 -13v-346z" />
    <glyph glyph-name="Sacute" unicode="&#x15a;" horiz-adv-x="548" 
d="M52 70q21 -14 54.5 -20.5t70 -8t63.5 -1.5h23t23 1q40 1 70 9.5t47 29t17 58.5q0 46 -24 60t-70 14h-32h-36h-44q-28 0 -57 2.5t-53 13t-38 33t-14 64.5q0 49 17.5 77t49.5 41t73.5 17t88.5 4q28 0 63.5 -1t67 -5t49.5 -14q16 -2 24.5 -10t8.5 -20v-9.5v-10.5v-7
q-9 10 -30 16t-47.5 9.5t-51.5 5t-41 1.5h-59q-36 0 -67 -6t-49.5 -24.5t-18.5 -58.5q0 -31 12.5 -46t35.5 -19.5t55 -4.5h69h49q44 0 78 -7.5t53 -33t19 -79.5q0 -53 -23.5 -84t-64 -44t-92.5 -16q-25 -1 -48 -1.5t-48 0.5q-23 0 -53 2t-57.5 6.5t-45 14t-17.5 25.5v27z
M255 521l102 95l36 -27l-105 -68h-33z" />
    <glyph glyph-name="sacute" unicode="&#x15b;" horiz-adv-x="450" 
d="M200 -4q-17 0 -42.5 1t-52 4.5t-47.5 10.5q-10 4 -16 8t-8.5 14t-2.5 30q22 -11 52 -17.5t60 -8.5t50 -2q30 0 58.5 2.5t51.5 11t36.5 25.5t13.5 45q0 41 -21 52.5t-57 11.5h-101q-37 0 -69.5 4.5t-53 25t-20.5 69.5q0 53 26 79t73.5 34t110.5 8q23 0 55 -1t61 -6
q20 -3 33.5 -7.5t20 -12.5t6.5 -23v-20q-9 10 -30 16t-48.5 9t-56.5 3.5t-54 0.5q-32 0 -62 -4t-48.5 -19.5t-18.5 -52.5q0 -28 12 -41t32.5 -16.5t46.5 -3.5h103q38 0 67.5 -6.5t46 -29t16.5 -70.5q0 -53 -29 -80t-79.5 -35.5t-114.5 -8.5zM204 460l112 113l37 -27
l-116 -86h-33z" />
    <glyph glyph-name="Scircumflex" unicode="&#x15c;" horiz-adv-x="548" 
d="M52 70q21 -14 54.5 -20.5t70 -8t63.5 -1.5h23t23 1q40 1 70 9.5t47 29t17 58.5q0 46 -24 60t-70 14h-32h-36h-44q-28 0 -57 2.5t-53 13t-38 33t-14 64.5q0 49 17.5 77t49.5 41t73.5 17t88.5 4q28 0 63.5 -1t67 -5t49.5 -14q16 -2 24.5 -10t8.5 -20v-9.5v-10.5v-7
q-9 10 -30 16t-47.5 9.5t-51.5 5t-41 1.5h-59q-36 0 -67 -6t-49.5 -24.5t-18.5 -58.5q0 -31 12.5 -46t35.5 -19.5t55 -4.5h69h49q44 0 78 -7.5t53 -33t19 -79.5q0 -53 -23.5 -84t-64 -44t-92.5 -16q-25 -1 -48 -1.5t-48 0.5q-23 0 -53 2t-57.5 6.5t-45 14t-17.5 25.5v27z
M186 521l87 95h27l88 -95h-35l-66 61l-67 -61h-34z" />
    <glyph glyph-name="scircumflex" unicode="&#x15d;" horiz-adv-x="450" 
d="M200 -4q-17 0 -42.5 1t-52 4.5t-47.5 10.5q-10 4 -16 8t-8.5 14t-2.5 30q22 -11 52 -17.5t60 -8.5t50 -2q30 0 58.5 2.5t51.5 11t36.5 25.5t13.5 45q0 41 -21 52.5t-57 11.5h-101q-37 0 -69.5 4.5t-53 25t-20.5 69.5q0 53 26 79t73.5 34t110.5 8q23 0 55 -1t61 -6
q20 -3 33.5 -7.5t20 -12.5t6.5 -23v-20q-9 10 -30 16t-48.5 9t-56.5 3.5t-54 0.5q-32 0 -62 -4t-48.5 -19.5t-18.5 -52.5q0 -28 12 -41t32.5 -16.5t46.5 -3.5h103q38 0 67.5 -6.5t46 -29t16.5 -70.5q0 -53 -29 -80t-79.5 -35.5t-114.5 -8.5zM129 460l88 114h26l89 -114h-35
l-67 78l-68 -78h-33z" />
    <glyph glyph-name="Scedilla" unicode="&#x15e;" horiz-adv-x="548" 
d="M52 70q21 -14 54.5 -20.5t70 -8t63.5 -1.5h23t23 1q40 1 70 9.5t47 29t17 58.5q0 46 -24 60t-70 14h-32h-36h-44q-28 0 -57 2.5t-53 13t-38 33t-14 64.5q0 49 17.5 77t49.5 41t73.5 17t88.5 4q28 0 63.5 -1t67 -5t49.5 -14q16 -2 24.5 -10t8.5 -20v-9.5v-10.5v-7
q-9 10 -30 16t-47.5 9.5t-51.5 5t-41 1.5h-59q-36 0 -67 -6t-49.5 -24.5t-18.5 -58.5q0 -31 12.5 -46t35.5 -19.5t55 -4.5h69h49q44 0 78 -7.5t53 -33t19 -79.5q0 -53 -23.5 -84t-64 -44t-92.5 -16q-25 -1 -48 -1.5t-48 0.5q-23 0 -53 2t-57.5 6.5t-45 14t-17.5 25.5v27z
M249 -183q-28 0 -38 4.5t-10 18.5h20.5h41.5q29 0 39 7.5t10 24.5q0 23 -9 29.5t-43 6.5h-34q-5 0 -10.5 2t-8.5 5t-2 8q3 4 12 15t20.5 23.5t22 24t15.5 16.5h24l-54 -75q45 3 68.5 0t31.5 -15.5t8 -40.5q0 -27 -12 -38.5t-35.5 -13.5t-56.5 -2z" />
    <glyph glyph-name="scedilla" unicode="&#x15f;" horiz-adv-x="450" 
d="M200 -4q-17 0 -42.5 1t-52 4.5t-47.5 10.5q-10 4 -16 8t-8.5 14t-2.5 30q22 -11 52 -17.5t60 -8.5t50 -2q30 0 58.5 2.5t51.5 11t36.5 25.5t13.5 45q0 41 -21 52.5t-57 11.5h-101q-37 0 -69.5 4.5t-53 25t-20.5 69.5q0 53 26 79t73.5 34t110.5 8q23 0 55 -1t61 -6
q20 -3 33.5 -7.5t20 -12.5t6.5 -23v-20q-9 10 -30 16t-48.5 9t-56.5 3.5t-54 0.5q-32 0 -62 -4t-48.5 -19.5t-18.5 -52.5q0 -28 12 -41t32.5 -16.5t46.5 -3.5h103q38 0 67.5 -6.5t46 -29t16.5 -70.5q0 -53 -29 -80t-79.5 -35.5t-114.5 -8.5zM198 -183q-28 0 -38 4.5
t-10 18.5h20.5h41.5q29 0 39 7.5t10 24.5q0 23 -9 29.5t-43 6.5h-34q-5 0 -10.5 2t-8.5 5t-2 8q3 4 12 15t20.5 23.5t22 24t15.5 16.5h24l-54 -75q45 3 68.5 0t31.5 -15.5t8 -40.5q0 -27 -12 -38.5t-35.5 -13.5t-56.5 -2z" />
    <glyph glyph-name="Scaron" unicode="&#x160;" horiz-adv-x="548" 
d="M186 616h34l67 -61l66 61h35l-88 -95h-27zM52 70q21 -14 54.5 -20.5t70 -8t63.5 -1.5h23t23 1q40 1 70 9.5t47 29t17 58.5q0 46 -24 60t-70 14h-32h-36h-44q-28 0 -57 2.5t-53 13t-38 33t-14 64.5q0 49 17.5 77t49.5 41t73.5 17t88.5 4q28 0 63.5 -1t67 -5t49.5 -14
q16 -2 24.5 -10t8.5 -20v-9.5v-10.5v-7q-9 10 -30 16t-47.5 9.5t-51.5 5t-41 1.5h-59q-36 0 -67 -6t-49.5 -24.5t-18.5 -58.5q0 -31 12.5 -46t35.5 -19.5t55 -4.5h69h49q44 0 78 -7.5t53 -33t19 -79.5q0 -53 -23.5 -84t-64 -44t-92.5 -16q-25 -1 -48 -1.5t-48 0.5
q-23 0 -53 2t-57.5 6.5t-45 14t-17.5 25.5v27z" />
    <glyph glyph-name="scaron" unicode="&#x161;" horiz-adv-x="450" 
d="M129 574h34l67 -78l68 78h34l-88 -114h-26zM200 -4q-17 0 -42.5 1t-52 4.5t-47.5 10.5q-10 4 -16 8t-8.5 14t-2.5 30q22 -11 52 -17.5t60 -8.5t50 -2q30 0 58.5 2.5t51.5 11t36.5 25.5t13.5 45q0 41 -21 52.5t-57 11.5h-101q-37 0 -69.5 4.5t-53 25t-20.5 69.5
q0 53 26 79t73.5 34t110.5 8q23 0 55 -1t61 -6q20 -3 33.5 -7.5t20 -12.5t6.5 -23v-20q-9 10 -30 16t-48.5 9t-56.5 3.5t-54 0.5q-32 0 -62 -4t-48.5 -19.5t-18.5 -52.5q0 -28 12 -41t32.5 -16.5t46.5 -3.5h103q38 0 67.5 -6.5t46 -29t16.5 -70.5q0 -53 -29 -80t-79.5 -35.5
t-114.5 -8.5z" />
    <glyph glyph-name="uni0162" unicode="&#x162;" horiz-adv-x="499" 
d="M22 460h455v-45h-189v-382q0 -19 -4.5 -26t-22.5 -7h-49v415h-190v45zM220 -183q-28 0 -38 4.5t-10 18.5h20.5h41.5q29 0 39 7.5t10 24.5q0 23 -9 29.5t-43 6.5h-34q-5 0 -10.5 2t-8.5 5t-2 8q3 4 12 15t20.5 23.5t22 24t15.5 16.5h24l-54 -75q45 3 68.5 0t31.5 -15.5
t8 -40.5q0 -27 -12 -38.5t-35.5 -13.5t-56.5 -2z" />
    <glyph glyph-name="uni0163" unicode="&#x163;" horiz-adv-x="254" 
d="M160 -3q-34 0 -53 8.5t-28 29.5t-9 57v268h-38v39h38v72q0 15 2.5 22.5t8.5 9.5t17 2h43q0 -2 -0.5 -8.5t-0.5 -18.5v-79h93v-39h-93v-260q0 -39 8 -55t36 -16q11 0 23 2t17 4v-31q-6 -1 -23 -4t-41 -3zM118 -183q-28 0 -38 4.5t-10 18.5h20.5h41.5q29 0 39 7.5t10 24.5
q0 23 -9 29.5t-43 6.5h-34q-5 0 -10.5 2t-8.5 5t-2 8q3 4 12 15t20.5 23.5t22 24t15.5 16.5h24l-54 -75q45 3 68.5 0t31.5 -15.5t8 -40.5q0 -27 -12 -38.5t-35.5 -13.5t-56.5 -2z" />
    <glyph glyph-name="Tcaron" unicode="&#x164;" horiz-adv-x="499" 
d="M149 616h33l67 -61l66 61h36l-88 -95h-27zM22 460h455v-45h-189v-382q0 -19 -4.5 -26t-22.5 -7h-49v415h-190v45z" />
    <glyph glyph-name="tcaron" unicode="&#x165;" horiz-adv-x="254" 
d="M160 -3q-34 0 -53 8.5t-28 29.5t-9 57v268h-38v39h38v72q0 15 2.5 22.5t8.5 9.5t17 2h43q0 -2 -0.5 -8.5t-0.5 -18.5v-79h93v-39h-93v-260q0 -39 8 -55t36 -16q11 0 23 2t17 4v-31q-6 -1 -23 -4t-41 -3zM193 460l5 136h38l-15 -136h-28z" />
    <glyph glyph-name="Tbar" unicode="&#x166;" horiz-adv-x="492" 
d="M81 296h127v119h-189v45h455v-45h-189v-119h130v-22h-130v-241q0 -19 -5 -26t-23 -7h-49v274h-127v22z" />
    <glyph glyph-name="tbar" unicode="&#x167;" horiz-adv-x="272" 
d="M29 301h190v-20h-190v20zM37 399h38v72q0 14 2.5 21.5t8.5 10t17 2.5h43q0 -2 -0.5 -8.5t-0.5 -18.5v-79h93v-39h-93v-254q0 -40 8 -59t37 -19q5 0 19.5 1.5t19.5 3.5v-29q-6 -1 -28.5 -4t-39.5 -3q-29 0 -45.5 6.5t-25 18t-12 27t-3.5 32.5v34v245h-38v19.5v19.5z" />
    <glyph glyph-name="Utilde" unicode="&#x168;" horiz-adv-x="588" 
d="M515 197q0 -43 -4 -79.5t-24.5 -63.5t-66 -42t-128.5 -15q-66 0 -107.5 9.5t-64 27.5t-32.5 42t-12.5 53.5t-2.5 61.5v229q0 16 1 25t8 12t21 3h47v-303q0 -45 14.5 -69.5t46 -34.5t81.5 -10q78 0 112.5 26.5t34.5 87.5v303h45q15 0 22 -3t8 -12t1 -25v-223zM343 520
q-17 0 -33.5 9l-33 18t-32.5 9q-18 0 -28 -10.5t-14 -17.5l-17 14l5 10t11.5 17t18 16.5t25.5 7.5q18 1 34 -9t31.5 -19t31.5 -9q21 0 31.5 12t14.5 20l17 -14q-1 -3 -5 -11t-11.5 -18t-19 -17.5t-26.5 -7.5z" />
    <glyph glyph-name="utilde" unicode="&#x169;" horiz-adv-x="476" 
d="M121 399v-271q0 -50 28.5 -70.5t87.5 -20.5q63 0 90.5 21.5t27.5 69.5v271h6.5h12h12.5h8q12 0 19 -1.5t9.5 -7.5t2.5 -20v-229q0 -50 -15 -82.5t-56 -48t-118 -15.5q-70 0 -110.5 13t-57.5 44t-17 84v234q0 17 5.5 23t21.5 6h21.5h21.5zM289 458q-18 0 -34 9.5
t-32.5 18.5t-33.5 9t-26 -11.5t-13 -18.5l-18 13q1 3 5 11t11 18t17.5 17t25.5 7q17 0 33 -9.5l32 -19t32 -9.5q20 0 30.5 12.5t14.5 20.5l19 -13q-2 -3 -6 -11.5t-12 -18.5t-19 -17.5t-26 -7.5z" />
    <glyph glyph-name="Umacron" unicode="&#x16a;" horiz-adv-x="588" 
d="M515 197q0 -43 -4 -79.5t-24.5 -63.5t-66 -42t-128.5 -15q-66 0 -107.5 9.5t-64 27.5t-32.5 42t-12.5 53.5t-2.5 61.5v229q0 16 1 25t8 12t21 3h47v-303q0 -45 14.5 -69.5t46 -34.5t81.5 -10q78 0 112.5 26.5t34.5 87.5v303h45q15 0 22 -3t8 -12t1 -25v-223zM180 522v30
h228v-30h-228z" />
    <glyph glyph-name="umacron" unicode="&#x16b;" horiz-adv-x="476" 
d="M121 399v-271q0 -50 28.5 -70.5t87.5 -20.5q63 0 90.5 21.5t27.5 69.5v271h6.5h12h12.5h8q12 0 19 -1.5t9.5 -7.5t2.5 -20v-229q0 -50 -15 -82.5t-56 -48t-118 -15.5q-70 0 -110.5 13t-57.5 44t-17 84v234q0 17 5.5 23t21.5 6h21.5h21.5zM128 461v33h222v-33h-222z" />
    <glyph glyph-name="Ubreve" unicode="&#x16c;" horiz-adv-x="588" 
d="M515 197q0 -43 -4 -79.5t-24.5 -63.5t-66 -42t-128.5 -15q-66 0 -107.5 9.5t-64 27.5t-32.5 42t-12.5 53.5t-2.5 61.5v229q0 16 1 25t8 12t21 3h47v-303q0 -45 14.5 -69.5t46 -34.5t81.5 -10q78 0 112.5 26.5t34.5 87.5v303h45q15 0 22 -3t8 -12t1 -25v-223zM295 520
q-29 0 -52 6t-36.5 25.5t-14.5 57.5v6h34v-5q0 -14 4.5 -28t19 -22.5t43.5 -8.5q31 0 45.5 8.5t19.5 22.5t5 28v5h32v-5q0 -39 -13 -58t-35.5 -25t-51.5 -7z" />
    <glyph glyph-name="ubreve" unicode="&#x16d;" horiz-adv-x="476" 
d="M121 399v-271q0 -50 28.5 -70.5t87.5 -20.5q63 0 90.5 21.5t27.5 69.5v271h6.5h12h12.5h8q12 0 19 -1.5t9.5 -7.5t2.5 -20v-229q0 -50 -15 -82.5t-56 -48t-118 -15.5q-70 0 -110.5 13t-57.5 44t-17 84v234q0 17 5.5 23t21.5 6h21.5h21.5zM239 458q-37 0 -59.5 11.5
t-32 36t-9.5 60.5h31q0 -38 17 -56.5t53 -18.5q42 0 56 19t14 56h30q0 -37 -8.5 -61t-30.5 -35.5t-61 -11.5z" />
    <glyph glyph-name="Uring" unicode="&#x16e;" horiz-adv-x="588" 
d="M515 197q0 -43 -4 -79.5t-24.5 -63.5t-66 -42t-128.5 -15q-66 0 -107.5 9.5t-64 27.5t-32.5 42t-12.5 53.5t-2.5 61.5v229q0 16 1 25t8 12t21 3h47v-303q0 -45 14.5 -69.5t46 -34.5t81.5 -10q78 0 112.5 26.5t34.5 87.5v303h45q15 0 22 -3t8 -12t1 -25v-223zM294 522
q-26 0 -42.5 5t-24 15.5t-7.5 29.5q0 18 7.5 28.5t24 14.5t42.5 4q28 0 44.5 -4t23.5 -14.5t7 -28.5q0 -19 -7 -29.5t-23.5 -15.5t-44.5 -5zM294 545q21 0 31.5 5t10.5 21t-10.5 21t-31.5 5q-19 0 -30.5 -5t-11.5 -21t11 -21t31 -5z" />
    <glyph glyph-name="uring" unicode="&#x16f;" horiz-adv-x="476" 
d="M121 399v-271q0 -50 28.5 -70.5t87.5 -20.5q63 0 90.5 21.5t27.5 69.5v271h6.5h12h12.5h8q12 0 19 -1.5t9.5 -7.5t2.5 -20v-229q0 -50 -15 -82.5t-56 -48t-118 -15.5q-70 0 -110.5 13t-57.5 44t-17 84v234q0 17 5.5 23t21.5 6h21.5h21.5zM232 458q-40 0 -57 13.5
t-17 46.5q0 32 17 45t57 13q42 0 58.5 -13t16.5 -45q0 -33 -16.5 -46.5t-58.5 -13.5zM232 481q20 0 31 6.5t11 30.5q0 22 -11 28.5t-31 6.5q-19 0 -30.5 -6.5t-11.5 -28.5q0 -24 11 -30.5t31 -6.5z" />
    <glyph glyph-name="Uhungarumlaut" unicode="&#x170;" horiz-adv-x="588" 
d="M515 197q0 -43 -4 -79.5t-24.5 -63.5t-66 -42t-128.5 -15q-66 0 -107.5 9.5t-64 27.5t-32.5 42t-12.5 53.5t-2.5 61.5v229q0 16 1 25t8 12t21 3h47v-303q0 -45 14.5 -69.5t46 -34.5t81.5 -10q78 0 112.5 26.5t34.5 87.5v303h45q15 0 22 -3t8 -12t1 -25v-223zM336 521
l26 95l50 -1l-43 -94h-33zM226 521l27 95l48 -1l-42 -94h-33z" />
    <glyph glyph-name="uhungarumlaut" unicode="&#x171;" horiz-adv-x="476" 
d="M121 399v-271q0 -50 28.5 -70.5t87.5 -20.5q63 0 90.5 21.5t27.5 69.5v271h6.5h12h12.5h8q12 0 19 -1.5t9.5 -7.5t2.5 -20v-229q0 -50 -15 -82.5t-56 -48t-118 -15.5q-70 0 -110.5 13t-57.5 44t-17 84v234q0 17 5.5 23t21.5 6h21.5h21.5zM279 460l34 112l48 -1l-49 -111
h-33zM169 460l33 112l49 -1l-49 -111h-33z" />
    <glyph glyph-name="Uogonek" unicode="&#x172;" horiz-adv-x="588" 
d="M515 197q0 -43 -4 -79.5t-24.5 -63.5t-66 -42t-128.5 -15q-66 0 -107.5 9.5t-64 27.5t-32.5 42t-12.5 53.5t-2.5 61.5v229q0 16 1 25t8 12t21 3h47v-303q0 -45 14.5 -69.5t46 -34.5t81.5 -10q78 0 112.5 26.5t34.5 87.5v303h45q15 0 22 -3t8 -12t1 -25v-223zM304 -175
q-33 0 -54 6.5t-30.5 22t-9.5 41.5q0 21 11.5 39.5t27 33.5t32 26t26.5 16h39q-8 -3 -23.5 -13.5t-32.5 -25.5t-29 -32.5t-12 -32.5q0 -32 17.5 -41.5t45.5 -9.5q13 0 21.5 0.5t13.5 1t7 0.5q0 -11 -3 -18.5t-13.5 -10.5t-33.5 -3z" />
    <glyph glyph-name="uogonek" unicode="&#x173;" horiz-adv-x="476" 
d="M121 399v-271q0 -50 28.5 -70.5t87.5 -20.5q63 0 90.5 21.5t27.5 69.5v271h6.5h12h12.5h8q12 0 19 -1.5t9.5 -7.5t2.5 -20v-229q0 -50 -15 -82.5t-56 -48t-118 -15.5q-70 0 -110.5 13t-57.5 44t-17 84v234q0 17 5.5 23t21.5 6h21.5h21.5zM249 -176q-33 0 -54 6.5
t-30.5 22t-9.5 41.5q0 21 11.5 39.5t27 33.5t32 26t26.5 16h39q-8 -3 -23.5 -13.5t-32.5 -25.5t-29 -32.5t-12 -32.5q0 -32 17.5 -41.5t45.5 -9.5q13 0 21.5 0.5t13.5 1t7 0.5q0 -11 -3 -18.5t-13.5 -10.5t-33.5 -3z" />
    <glyph glyph-name="Wcircumflex" unicode="&#x174;" horiz-adv-x="708" 
d="M189 0q-28 0 -47 5.5t-29 23t-16 52.5l-55 379h72l49 -352q5 -27 13 -36t30 -9h29l86 397h75l91 -397h31q17 0 26 7t12 24l45 366h57l-52 -383q-4 -35 -16 -51.5t-33 -21t-54 -4.5h-64l-76 338l-8 36l-7 -37l-72 -337h-87zM259 521l87 95h27l88 -95h-35l-66 61l-67 -61
h-34z" />
    <glyph glyph-name="wcircumflex" unicode="&#x175;" horiz-adv-x="675" 
d="M202 -3q-52 0 -85.5 8.5t-49.5 36t-16 83.5v237q0 22 5 29.5t23 7.5h42v-277q0 -51 21.5 -67t68.5 -16q49 0 70.5 17t21.5 51l-1 292h71v-293q0 -33 21.5 -50t70.5 -17q47 0 68.5 16t21.5 67v277h40q20 0 24.5 -7t4.5 -30v-237q0 -55 -16 -82.5t-49.5 -36.5t-87.5 -9
q-56 0 -93.5 17.5t-45.5 64.5h12q-6 -31 -23.5 -49.5t-47 -25.5t-71.5 -7zM236 460l88 114h26l89 -114h-35l-67 78l-68 -78h-33z" />
    <glyph glyph-name="Ycircumflex" unicode="&#x176;" horiz-adv-x="476" 
d="M199 0v187l-169 248l-18 25h102l140 -219l142 219h70l-22 -28l-169 -245v-152q1 -13 -2 -20.5t-10 -11t-22 -3.5h-42zM160 521l87 95h27l88 -95h-35l-66 61l-67 -61h-34z" />
    <glyph glyph-name="ycircumflex" unicode="&#x177;" horiz-adv-x="471" 
d="M230 -111q-45 0 -85 4.5t-65 13.5t-25 20v25q16 -9 42.5 -15t56.5 -9.5t58 -3.5q48 0 78.5 13t46 42t15.5 73v54q-9 -20 -29 -34t-49.5 -20t-68.5 -6q-71 0 -104.5 20t-43 57t-9.5 86v151q0 15 1.5 23.5t7 12t18.5 3.5h44v-49.5v-46v-45.5v-49q0 -57 15.5 -84t42 -34
t58.5 -7t58 8.5t42 33.5t16 75v198h43q15 0 21.5 -4.5t6.5 -25.5v-309q0 -89 -46.5 -130t-145.5 -41zM134 460l88 114h26l89 -114h-35l-67 78l-68 -78h-33z" />
    <glyph glyph-name="Ydieresis" unicode="&#x178;" horiz-adv-x="476" 
d="M199 0v187l-169 248l-18 25h102l140 -219l142 219h70l-22 -28l-169 -245v-152q1 -13 -2 -20.5t-10 -11t-22 -3.5h-42zM331 520q-13 0 -23.5 4.5t-10.5 23.5q0 18 11 21.5t23 3.5q13 0 23.5 -4t10.5 -21q0 -19 -9.5 -23.5t-24.5 -4.5zM191 520q-14 0 -24 4.5t-10 23.5
q0 18 10.5 21.5t23.5 3.5t23.5 -4t10.5 -21q0 -18 -10 -23t-24 -5z" />
    <glyph glyph-name="Zacute" unicode="&#x179;" horiz-adv-x="479" 
d="M123 45h335q0 -16 -1 -25t-5 -13.5t-12.5 -5.5t-24.5 -1h-395v48q1 0 17 18t43 48.5t59.5 67t66.5 74.5t63.5 71.5t50.5 56.5q11 11 19 19.5t11 11.5h-312q0 17 1 26.5t7.5 14t21.5 4.5h384q0 -1 -0.5 -9t-3 -20.5t-9.5 -26t-20 -25.5l-286 -327zM207 521l102 95l36 -27
l-105 -68h-33z" />
    <glyph glyph-name="zacute" unicode="&#x17a;" horiz-adv-x="399" 
d="M102 41h277l3 -15q4 -14 -3.5 -20t-24.5 -6h-338v40l268 318h-254v16q0 12 6 18.5t17 6.5h324q1 -11 -3 -22.5t-12.5 -24t-20.5 -25.5zM173 460l112 113l37 -27l-116 -86h-33z" />
    <glyph glyph-name="Zdotaccent" unicode="&#x17b;" horiz-adv-x="479" 
d="M123 45h335q0 -16 -1 -25t-5 -13.5t-12.5 -5.5t-24.5 -1h-395v48q1 0 17 18t43 48.5t59.5 67t66.5 74.5t63.5 71.5t50.5 56.5q11 11 19 19.5t11 11.5h-312q0 17 1 26.5t7.5 14t21.5 4.5h384q0 -1 -0.5 -9t-3 -20.5t-9.5 -26t-20 -25.5l-286 -327zM239 520q-16 0 -26 4.5
t-10 22.5q0 20 10.5 24.5t26.5 4.5t24.5 -5t8.5 -24q0 -18 -9 -22.5t-25 -4.5z" />
    <glyph glyph-name="zdotaccent" unicode="&#x17c;" horiz-adv-x="399" 
d="M102 41h277l3 -15q4 -14 -3.5 -20t-24.5 -6h-338v40l268 318h-254v16q0 12 6 18.5t17 6.5h324q1 -11 -3 -22.5t-12.5 -24t-20.5 -25.5zM200 459q-16 0 -26 4.5t-10 22.5q0 20 10.5 24.5t26.5 4.5t24.5 -5t8.5 -24q0 -18 -9 -22.5t-25 -4.5z" />
    <glyph glyph-name="Zcaron" unicode="&#x17d;" horiz-adv-x="479" 
d="M138 616h33l67 -61l66 61h36l-88 -95h-27zM123 45h335q0 -16 -1 -25t-5 -13.5t-12.5 -5.5t-24.5 -1h-395v48q1 0 17 18t43 48.5t59.5 67t66.5 74.5t63.5 71.5t50.5 56.5q11 11 19 19.5t11 11.5h-312q0 17 1 26.5t7.5 14t21.5 4.5h384q0 -1 -0.5 -9t-3 -20.5t-9.5 -26
t-20 -25.5l-286 -327z" />
    <glyph glyph-name="zcaron" unicode="&#x17e;" horiz-adv-x="399" 
d="M98 574h34l67 -78l68 78h35l-89 -114h-26zM102 41h277l3 -15q4 -14 -3.5 -20t-24.5 -6h-338v40l268 318h-254v16q0 12 6 18.5t17 6.5h324q1 -11 -3 -22.5t-12.5 -24t-20.5 -25.5z" />
    <glyph glyph-name="longs" unicode="&#x17f;" horiz-adv-x="309" 
d="M83 313h-34v39h34v50q1 54 16 78t63 25q33 1 62 -1t49 -5t25 -4v-38q-2 1 -17 3.5t-34.5 4.5t-36.5 2q-24 0 -36.5 -6.5t-17 -23.5t-4.5 -49v-456q0 -24 -6 -41t-16.5 -28.5t-24.5 -17.5t-29.5 -8.5t-31.5 -2.5q-19 0 -34 3.5t-23.5 11t-7.5 19.5q6 -1 15 -3t24 -2
q32 0 48.5 16t16.5 64v370z" />
    <glyph glyph-name="uni018F" unicode="&#x18f;" horiz-adv-x="524" 
d="M248 467q67 0 112 -9.5t72 -34.5t39.5 -71t12.5 -118q0 -83 -21 -136t-73.5 -78t-148.5 -25q-74 0 -118.5 19.5t-65 60t-20.5 104.5q0 24 6.5 38.5t21.5 21t41 6.5h325q0 -15 -6.5 -25t-25.5 -10h-255q-12 0 -22.5 -7.5t-10.5 -24.5q0 -71 30.5 -103.5t101.5 -32.5
q62 0 97 18t48.5 60.5t13.5 112.5q0 76 -15 116t-51.5 54t-101.5 14q-17 0 -39 -1t-45.5 -3t-45 -4.5t-37.5 -5t-24 -6.5v13q0 11 6.5 22t25.5 17q27 11 70 14.5t103 3.5z" />
    <glyph glyph-name="florin" unicode="&#x192;" horiz-adv-x="307" 
d="M-18 -156q-1 2 -2 6.5t-1.5 9t0.5 6.5q4 -2 14.5 -2.5t15.5 -0.5q13 0 26 3t23.5 9.5t17 20.5t6.5 37v77v73v72.5v75.5v82h-16h-17v7.5v12v12v7.5h17h16v30v30q1 25 6 42t17.5 28.5t36 17t60.5 5.5q17 0 34 -1t31 -2.5t22 -2.5l8 -1v-19.5v-10v-5.5l-8.5 1t-22.5 2.5
t-28 2.5t-25 1q-27 0 -40 -6t-17.5 -21.5t-4.5 -44.5v-23v-23h59h58v-7.5v-12v-12v-7.5h-58h-59v-137v-126v-123q0 -26 -9.5 -44t-25 -28.5t-34 -15.5t-35.5 -5q-19 0 -32.5 2t-21 4.5t-11.5 3.5z" />
    <glyph glyph-name="Ohorn" unicode="&#x1a0;" horiz-adv-x="599" 
d="M296 -7q-60 0 -106 9t-78.5 33.5t-49.5 71.5t-17 124q0 78 18.5 125.5t52.5 71.5t81.5 32t106.5 8t105 -8.5t78.5 -33t49.5 -71.5t17 -124q0 -79 -18.5 -126t-52 -71.5t-81 -32.5t-106.5 -8zM299 36q42 0 75 7.5t55.5 27.5t34 58.5t11.5 101.5q0 62 -11.5 100.5t-34 59
t-55.5 27.5t-75 7q-43 0 -75.5 -7t-54.5 -27.5t-33.5 -59t-11.5 -100.5q0 -63 11.5 -101.5t33.5 -58.5t54.5 -27.5t75.5 -7.5zM414 431l-4 29h21q16 0 24.5 8t12 19t3.5 19v22h41v-20q0 -39 -25.5 -58.5t-72.5 -18.5z" />
    <glyph glyph-name="ohorn" unicode="&#x1a1;" horiz-adv-x="486" 
d="M244 -6q-46 0 -82.5 7t-63 28t-40.5 62t-14 108t14 108t40.5 62t63 28t82.5 7q45 0 81.5 -7t62.5 -28t40 -62t14 -108q0 -68 -14 -109t-40 -61.5t-62.5 -27.5t-81.5 -7zM244 33q40 0 68.5 12t43.5 47t15 107t-15 107t-43.5 47t-68.5 12t-68.5 -12t-44 -47t-15.5 -107
t15.5 -107t44 -47t68.5 -12zM317 370l-4 29h21q16 0 24.5 8t12 19t3.5 19v22h41v-20q0 -39 -25.5 -58.5t-72.5 -18.5z" />
    <glyph glyph-name="Uhorn" unicode="&#x1af;" horiz-adv-x="588" 
d="M515 197q0 -43 -4 -79.5t-24.5 -63.5t-66 -42t-128.5 -15q-66 0 -107.5 9.5t-64 27.5t-32.5 42t-12.5 53.5t-2.5 61.5v229q0 16 1 25t8 12t21 3h47v-303q0 -45 14.5 -69.5t46 -34.5t81.5 -10q78 0 112.5 26.5t34.5 87.5v303h45q15 0 22 -3t8 -12t1 -25v-223zM475 431
l-4 29h21q16 0 24.5 8t12 19t3.5 19v22h41v-20q0 -39 -25.5 -58.5t-72.5 -18.5z" />
    <glyph glyph-name="uhorn" unicode="&#x1b0;" horiz-adv-x="476" 
d="M121 399v-271q0 -50 28.5 -70.5t87.5 -20.5q63 0 90.5 21.5t27.5 69.5v271h6.5h12h12.5h8q12 0 19 -1.5t9.5 -7.5t2.5 -20v-229q0 -50 -15 -82.5t-56 -48t-118 -15.5q-70 0 -110.5 13t-57.5 44t-17 84v234q0 17 5.5 23t21.5 6h21.5h21.5zM389 370l-4 29h21q16 0 24.5 8
t12 19t3.5 19v22h41v-20q0 -39 -25.5 -58.5t-72.5 -18.5z" />
    <glyph glyph-name="uni01C5" unicode="&#x1c5;" horiz-adv-x="1000" 
d="M699 574h34l67 -78l68 78h35l-89 -114h-26zM556 226q0 -82 -18 -128.5t-51.5 -67.5t-82 -26.5t-109.5 -5.5q-29 0 -60.5 0.5t-62 0.5t-55 0.5t-39.5 0.5v396q0 32 8.5 47t44.5 17q16 1 42 1t55.5 0.5t57.5 0.5t47 -1q55 -2 96.5 -9t70 -30t42.5 -69.5t14 -126.5zM155 43
q7 0 25.5 -0.5t40.5 -0.5t42.5 -0.5t31.5 -0.5q51 0 86 7t56.5 26.5t31 56t9.5 95.5q0 80 -16.5 121.5t-55 56.5t-107.5 15h-39.5t-50.5 -0.5t-39 -2.5q-7 -4 -11 -10.5t-4 -25.5v-337zM703 41h277l3 -15q4 -14 -3.5 -20t-24.5 -6h-338v40l268 318h-254v16q0 12 6 18.5
t17 6.5h324q1 -11 -3 -22.5t-12.5 -24t-20.5 -25.5z" />
    <glyph glyph-name="uni01C6" unicode="&#x1c6;" horiz-adv-x="879" 
d="M578 574h34l67 -78l68 78h35l-89 -114h-26zM44 202q0 81 21.5 124t62.5 59t100 16q17 0 40.5 -1t47.5 -3.5t42 -5.5t25 -6l-21 -10v130h69l-1 -304q0 -68 -9 -108.5t-30.5 -60.5t-60 -27t-96.5 -7q-54 0 -91 7t-58.5 28t-31 61t-9.5 108zM228 38q45 0 71.5 5.5t40.5 22
t18 46.5t4 79v162q-11 1 -31.5 2t-42.5 2t-39 1q-48 0 -78 -12.5t-43.5 -47t-13.5 -99.5q0 -69 10.5 -103.5t35.5 -46t68 -11.5zM583 41h276l3 -15q4 -14 -3.5 -20t-24.5 -6h-338v40l268 318h-254v16q0 12 6 18.5t17 6.5h324q2 -11 -2.5 -22.5t-13 -24t-20.5 -25.5z" />
    <glyph glyph-name="uni01C7" unicode="&#x1c7;" horiz-adv-x="771" 
d="M159 460v-416h307v-44h-383v427q0 11 1 18t7 11t19 4h49zM693 149v-45.5t-3 -43.5q-3 -18 -14 -32t-29.5 -22t-43.5 -8q-14 -1 -28.5 -1t-30 2t-32.5 4v48q7 -3 24 -6t27 -3q28 0 40.5 12t12.5 39v367h49q14 0 20 -4t7 -11t1 -18v-278z" />
    <glyph glyph-name="uni01C9" unicode="&#x1c9;" horiz-adv-x="407" 
d="M144 -4q-46 0 -66 20.5t-20 73.5v382q0 12 2 19.5t8.5 10.5t18.5 3h42q0 -1 -1 -13t-1 -30v-361q0 -38 8.5 -55t33.5 -17q7 0 19 2t16 3v-31q-6 -1 -19.5 -4t-40.5 -3zM258 -90q-24 0 -43 2t-25 3v31q5 -1 20 -2.5t25 -1.5q30 0 37 15t7 55v358q0 11 2 17.5t8 9t18 2.5
h42v-391q0 -36 -7 -57.5t-26.5 -31t-57.5 -9.5zM316 457q-17 0 -27 5t-10 21t9.5 21t26.5 5q19 0 28 -5t8 -21q0 -16 -9 -21t-26 -5z" />
    <glyph glyph-name="uni01CA" unicode="&#x1ca;" horiz-adv-x="918" 
d="M83 0v419q0 27 4.5 34t26.5 7h67l298 -381l3 -2v383h59q-1 -1 -2 -7.5t-1 -14v-14.5v-386q0 -26 -6.5 -32t-27.5 -6h-62l-301 384l-1 4v-388h-57zM840 149v-45.5t-3 -43.5q-3 -18 -14 -32t-29.5 -22t-43.5 -8q-14 -1 -28.5 -1t-30 2t-32.5 4v48q7 -3 24 -6t27 -3
q28 0 40.5 12t12.5 39v367h49q14 0 20 -4t7 -11t1 -18v-278z" />
    <glyph glyph-name="uni01CC" unicode="&#x1cc;" horiz-adv-x="675" 
d="M83 0q-23 0 -23 24v346q29 13 76.5 23t109.5 10q58 0 94 -8t55 -24t25.5 -41.5t6.5 -61.5v-238q0 -11 -2.5 -18t-9 -9.5t-19.5 -2.5h-39v282q0 40 -26 59t-85 19q-19 0 -41.5 -3t-42.5 -8.5t-33 -14.5v-334h-46zM526 -90q-24 0 -43 2t-25 3v31q5 -1 20 -2.5t25 -1.5
q30 0 37 15t7 55v358q0 11 2 17.5t8 9t18 2.5h42v-391q0 -36 -7 -57.5t-26.5 -31t-57.5 -9.5zM584 457q-17 0 -27 5t-10 21t9.5 21t26.5 5q19 0 28 -5t8 -21q0 -16 -9 -21t-26 -5z" />
    <glyph glyph-name="Gcaron" unicode="&#x1e6;" horiz-adv-x="565" 
d="M187 616h33l67 -61l66 61h36l-88 -95h-27zM291 -7q-69 0 -116 11t-75.5 38.5t-41.5 73t-13 113.5q0 75 17 121.5t49.5 71.5t79.5 34.5t108 9.5q50 0 92.5 -2.5t73.5 -9.5q20 -3 29.5 -9t12 -13.5t2.5 -15.5v-20q-7 6 -25 10t-41.5 7t-48.5 5.5t-47.5 3t-37.5 0.5
q-70 0 -110 -17t-57.5 -58.5t-17.5 -117.5q0 -73 15.5 -115t53 -59.5t101.5 -17.5q58 0 92 11t50 42t17 87q1 13 0.5 22.5t-0.5 14.5h-189q0 18 2.5 27t11 13t26.5 4h224v-79q0 -54 -12.5 -89.5t-40 -57t-73 -30.5t-111.5 -9z" />
    <glyph glyph-name="gcaron" unicode="&#x1e7;" horiz-adv-x="488" 
d="M143 574h33l68 -78l67 78h35l-89 -114h-26zM230 -114q-22 0 -49.5 1.5t-52.5 6t-41.5 13t-16.5 21.5v10v8q14 -7 40.5 -13t56.5 -9t52 -3q58 0 90 17t43.5 56.5t8.5 104.5h15q-10 -34 -34 -52t-57 -25t-71 -7q-58 0 -96 13.5t-56 54t-18 119.5q0 64 11.5 103.5t36.5 60.5
t65.5 28.5t98.5 7.5q22 0 49 -2t54 -3.5t47.5 -3.5t27.5 -4q-1 -3 -2 -16.5t-1 -31v-33.5v-237q0 -70 -20.5 -110.5t-64.5 -57.5t-116 -17zM230 57q37 0 66 8.5t47 28t18 52.5v206q-9 2 -41 5.5t-74 3.5q-49 0 -77 -12.5t-40.5 -45t-12.5 -93.5q0 -62 11 -95.5t36 -45.5
t67 -12z" />
    <glyph glyph-name="uni01EA" unicode="&#x1ea;" horiz-adv-x="599" 
d="M296 -7q-60 0 -106 9t-78.5 33.5t-49.5 71.5t-17 124q0 78 18.5 125.5t52.5 71.5t81.5 32t106.5 8t105 -8.5t78.5 -33t49.5 -71.5t17 -124q0 -79 -18.5 -126t-52 -71.5t-81 -32.5t-106.5 -8zM299 36q42 0 75 7.5t55.5 27.5t34 58.5t11.5 101.5q0 62 -11.5 100.5t-34 59
t-55.5 27.5t-75 7q-43 0 -75.5 -7t-54.5 -27.5t-33.5 -59t-11.5 -100.5q0 -63 11.5 -101.5t33.5 -58.5t54.5 -27.5t75.5 -7.5zM323 -175q-33 0 -54 6.5t-30.5 22t-9.5 41.5q0 21 11.5 39.5t27 33.5t32 26t26.5 16h39q-8 -3 -23.5 -13.5t-32.5 -25.5t-29 -32.5t-12 -32.5
q0 -32 17.5 -41.5t45.5 -9.5q13 0 21.5 0.5t13.5 1t7 0.5q0 -11 -3 -18.5t-13.5 -10.5t-33.5 -3z" />
    <glyph glyph-name="uni01EB" unicode="&#x1eb;" horiz-adv-x="486" 
d="M244 -6q-46 0 -82.5 7t-63 28t-40.5 62t-14 108t14 108t40.5 62t63 28t82.5 7q45 0 81.5 -7t62.5 -28t40 -62t14 -108q0 -68 -14 -109t-40 -61.5t-62.5 -27.5t-81.5 -7zM244 33q40 0 68.5 12t43.5 47t15 107t-15 107t-43.5 47t-68.5 12t-68.5 -12t-44 -47t-15.5 -107
t15.5 -107t44 -47t68.5 -12zM273 -175q-33 0 -54 6.5t-30.5 22t-9.5 41.5q0 21 11.5 39.5t27 33.5t32 26t26.5 16h39q-8 -3 -23.5 -13.5t-32.5 -25.5t-29 -32.5t-12 -32.5q0 -32 17.5 -41.5t45.5 -9.5q13 0 21.5 0.5t13.5 1t7 0.5q0 -11 -3 -18.5t-13.5 -10.5t-33.5 -3z" />
    <glyph glyph-name="Aringacute" unicode="&#x1fa;" horiz-adv-x="514" 
d="M17 0l133 393q12 34 33 52.5t72 18.5q46 0 68 -17t35 -54l136 -393h-83l-43 127h-250l-41 -127h-60zM131 162h223l-66 201q-5 15 -13 26.5t-32 11.5q-27 0 -35.5 -12t-12.5 -26zM255 522q-26 0 -42.5 5t-24 15.5t-7.5 29.5q0 18 7.5 28.5t24 14.5t42.5 4q28 0 44.5 -4
t23.5 -14.5t7 -28.5q0 -19 -7 -29.5t-23.5 -15.5t-44.5 -5zM255 545q21 0 31.5 5t10.5 21t-10.5 21t-31.5 5q-19 0 -30.5 -5t-11.5 -21t11 -21t31 -5zM223 652l102 95l36 -27l-105 -68h-33z" />
    <glyph glyph-name="aringacute" unicode="&#x1fb;" horiz-adv-x="483" 
d="M230 -7q-59 0 -96 6t-56.5 20.5t-27 38.5t-7.5 59q0 51 12 78t42 37t80 10q25 0 54.5 -1.5t57 -3t48 -3.5t27.5 -5q0 46 -8 73t-24.5 40t-41 17t-56.5 4q-33 0 -66.5 -2.5t-61.5 -8t-43 -14.5v15q0 21 12.5 29.5t28.5 11.5q19 5 55.5 8t76.5 2q51 0 87.5 -5t60.5 -21.5
t36 -49.5t12 -90v-206q-6 -20 -53 -29.5t-149 -9.5zM230 27q46 0 73.5 3t42 8t18.5 13v149q-9 3 -33.5 6t-51.5 5.5t-46 2.5q-43 0 -69.5 -5t-38 -25t-11.5 -62q0 -33 8 -54t32.5 -31t75.5 -10zM230 458q-40 0 -57 13.5t-17 46.5q0 32 17 45t57 13q42 0 58.5 -13t16.5 -45
q0 -33 -16.5 -46.5t-58.5 -13.5zM230 481q20 0 31 6.5t11 30.5q0 22 -11 28.5t-31 6.5q-19 0 -30.5 -6.5t-11.5 -28.5q0 -24 11 -30.5t31 -6.5zM208 602l112 113l37 -27l-116 -86h-33z" />
    <glyph glyph-name="AEacute" unicode="&#x1fc;" horiz-adv-x="777" 
d="M9 0q29 43 55 82.5t50.5 77t49 75.5t51.5 78t57 85q19 29 38.5 42t38 16.5t36.5 3.5h371v-23v-23h-338v-151h310v-46h-155h-155v-171h338v-46h-206h-207v124h-199q-20 -31 -39.5 -62t-39.5 -62h-56zM171 160h86.5h85.5v118v117q-1 -1 -3 -1.5t-4 -1.5q-14 -1 -23.5 -10.5
t-18.5 -23.5q-31 -50 -61.5 -99.5t-61.5 -98.5zM413 521l112 113l37 -27l-116 -86h-33z" />
    <glyph glyph-name="aeacute" unicode="&#x1fd;" horiz-adv-x="814" 
d="M230 -7q-59 0 -96 6t-56.5 20.5t-27 38.5t-7.5 59q0 51 12 78t42 37t80 10q25 0 54.5 -1.5t57 -3t48 -3.5t27.5 -5q0 46 -8 73t-24.5 40t-41 17t-56.5 4q-33 0 -66.5 -2.5t-61.5 -8t-43 -14.5v15q0 21 12.5 29.5t28.5 11.5q19 5 55.5 8t76.5 2q51 0 87.5 -5t60.5 -21.5
t36 -49.5t12 -90v-206q-6 -20 -53 -29.5t-149 -9.5zM230 27q46 0 73.5 3t42 8t18.5 13v149q-9 3 -33.5 6t-51.5 5.5t-46 2.5q-43 0 -69.5 -5t-38 -25t-11.5 -62q0 -33 8 -54t32.5 -31t75.5 -10zM575 -6q-58 0 -97.5 8t-63 30t-34 61.5t-10.5 102.5q0 72 18 118t64 68t129 22
q64 0 102.5 -17t56 -52t17.5 -91v-57h-282q0 12 6 20.5t22 8.5h191l-1 29q-1 62 -26.5 90t-88.5 28q-53 0 -83 -16t-42 -52t-12 -98q0 -66 13.5 -100.5t45.5 -47t87 -12.5q19 0 43.5 1.5t49.5 3.5t44.5 5.5t27.5 7.5v-12q0 -10 -5.5 -19t-22.5 -15q-22 -9 -59.5 -12
t-89.5 -3zM381 460l112 113l37 -27l-116 -86h-33z" />
    <glyph glyph-name="Oslashacute" unicode="&#x1fe;" horiz-adv-x="578" 
d="M36 231q0 83 21 131t57.5 71t83.5 29t98 6q52 0 96.5 -7t78.5 -30.5t53 -71t19 -128.5q0 -83 -21 -131t-57.5 -71t-83.5 -29.5t-98 -6.5q-52 0 -97.5 7.5t-79 30.5t-52 71t-18.5 129zM467 230q0 64 -12.5 103t-35.5 59t-55.5 26.5t-74.5 6.5t-75 -6.5t-55.5 -26.5
t-34.5 -59t-12 -103t12 -103t34.5 -59t55.5 -26.5t75 -6.5t74.5 6.5t55.5 26.5t35.5 59t12.5 103zM140 -83l234 608h29l-235 -608h-28zM258 521l102 95l36 -27l-105 -68h-33z" />
    <glyph glyph-name="oslashacute" unicode="&#x1ff;" horiz-adv-x="486" 
d="M113 -63l216 530h31l-216 -530h-31zM244 -6q-46 0 -82.5 7t-63 28t-40.5 62t-14 108t14 108t40.5 62t63 28t82.5 7q45 0 81.5 -7t62.5 -28t40 -62t14 -108q0 -68 -14 -109t-40 -61.5t-62.5 -27.5t-81.5 -7zM244 33q40 0 68.5 12t43.5 47t15 107t-15 107t-43.5 47
t-68.5 12t-68.5 -12t-44 -47t-15.5 -107t15.5 -107t44 -47t68.5 -12zM207 460l112 113l37 -27l-116 -86h-33z" />
    <glyph glyph-name="uni0200" unicode="&#x200;" horiz-adv-x="514" 
d="M17 0l133 393q12 34 33 52.5t72 18.5q46 0 68 -17t35 -54l136 -393h-83l-43 127h-250l-41 -127h-60zM131 162h223l-66 201q-5 15 -13 26.5t-32 11.5q-27 0 -35.5 -12t-12.5 -26zM211 520l-100 88l43 25l90 -113h-33zM299 520l-84 102l42 24l72 -126h-30z" />
    <glyph glyph-name="uni0201" unicode="&#x201;" horiz-adv-x="483" 
d="M230 -7q-59 0 -96 6t-56.5 20.5t-27 38.5t-7.5 59q0 51 12 78t42 37t80 10q25 0 54.5 -1.5t57 -3t48 -3.5t27.5 -5q0 46 -8 73t-24.5 40t-41 17t-56.5 4q-33 0 -66.5 -2.5t-61.5 -8t-43 -14.5v15q0 21 12.5 29.5t28.5 11.5q19 5 55.5 8t76.5 2q51 0 87.5 -5t60.5 -21.5
t36 -49.5t12 -90v-206q-6 -20 -53 -29.5t-149 -9.5zM230 27q46 0 73.5 3t42 8t18.5 13v149q-9 3 -33.5 6t-51.5 5.5t-46 2.5q-43 0 -69.5 -5t-38 -25t-11.5 -62q0 -33 8 -54t32.5 -31t75.5 -10zM192 459l-100 88l43 25l90 -113h-33zM280 459l-84 102l42 24l72 -126h-30z" />
    <glyph glyph-name="uni0202" unicode="&#x202;" horiz-adv-x="514" 
d="M17 0l133 393q12 34 33 52.5t72 18.5q46 0 68 -17t35 -54l136 -393h-83l-43 127h-250l-41 -127h-60zM131 162h223l-66 201q-5 15 -13 26.5t-32 11.5q-27 0 -35.5 -12t-12.5 -26zM153 520v7q1 39 14.5 57.5t36.5 25t52 5.5q29 0 51.5 -6t35.5 -25t13 -58v-6h-32v5
q0 15 -5 28.5t-19.5 22t-45.5 8.5q-29 0 -43.5 -8.5t-19 -22t-4.5 -27.5v-6h-34z" />
    <glyph glyph-name="uni0203" unicode="&#x203;" horiz-adv-x="483" 
d="M237 565q39 0 60.5 -11.5t30.5 -35t9 -61.5h-30q0 38 -14.5 56.5t-55.5 18.5q-36 0 -53.5 -18.5t-17.5 -56.5h-30q0 37 9.5 61t32 35.5t59.5 11.5zM230 -7q-59 0 -96 6t-56.5 20.5t-27 38.5t-7.5 59q0 51 12 78t42 37t80 10q25 0 54.5 -1.5t57 -3t48 -3.5t27.5 -5
q0 46 -8 73t-24.5 40t-41 17t-56.5 4q-33 0 -66.5 -2.5t-61.5 -8t-43 -14.5v15q0 21 12.5 29.5t28.5 11.5q19 5 55.5 8t76.5 2q51 0 87.5 -5t60.5 -21.5t36 -49.5t12 -90v-206q-6 -20 -53 -29.5t-149 -9.5zM230 27q46 0 73.5 3t42 8t18.5 13v149q-9 3 -33.5 6t-51.5 5.5
t-46 2.5q-43 0 -69.5 -5t-38 -25t-11.5 -62q0 -33 8 -54t32.5 -31t75.5 -10z" />
    <glyph glyph-name="uni0204" unicode="&#x204;" horiz-adv-x="545" 
d="M83 0v428q0 18 5 25t22 7h397v-44h-347v-153h318v-44h-318v-175h347v-44h-424zM246 520l-100 88l43 25l90 -113h-33zM334 520l-84 102l42 24l72 -126h-30z" />
    <glyph glyph-name="uni0205" unicode="&#x205;" horiz-adv-x="465" 
d="M249 -6q-58 0 -97.5 8t-63 30t-34 61.5t-10.5 102.5q0 72 18 118t64 68t129 22q64 0 102.5 -17t56 -52t17.5 -91v-57h-282q0 12 6 20.5t22 8.5h191l-1 29q-1 62 -26.5 90t-88.5 28q-53 0 -83 -16t-42 -52t-12 -98q0 -66 13.5 -100.5t45.5 -47t87 -12.5q19 0 43.5 1.5
t49.5 3.5t44.5 5.5t27.5 7.5v-12q0 -10 -5.5 -19t-22.5 -15q-22 -9 -59.5 -12t-89.5 -3zM196 459l-100 88l43 25l90 -113h-33zM284 459l-84 102l42 24l72 -126h-30z" />
    <glyph glyph-name="uni0206" unicode="&#x206;" horiz-adv-x="545" 
d="M83 0v428q0 18 5 25t22 7h397v-44h-347v-153h318v-44h-318v-175h347v-44h-424zM188 520v7q1 39 14.5 57.5t36.5 25t52 5.5q29 0 51.5 -6t35.5 -25t13 -58v-6h-32v5q0 15 -5 28.5t-19.5 22t-45.5 8.5q-29 0 -43.5 -8.5t-19 -22t-4.5 -27.5v-6h-34z" />
    <glyph glyph-name="uni0207" unicode="&#x207;" horiz-adv-x="465" 
d="M241 565q39 0 60.5 -11.5t30.5 -35t9 -61.5h-30q0 38 -14.5 56.5t-55.5 18.5q-37 0 -54 -18.5t-17 -56.5h-30q0 37 9.5 61t32 35.5t59.5 11.5zM249 -6q-58 0 -97.5 8t-63 30t-34 61.5t-10.5 102.5q0 72 18 118t64 68t129 22q64 0 102.5 -17t56 -52t17.5 -91v-57h-282
q0 12 6 20.5t22 8.5h191l-1 29q-1 62 -26.5 90t-88.5 28q-53 0 -83 -16t-42 -52t-12 -98q0 -66 13.5 -100.5t45.5 -47t87 -12.5q19 0 43.5 1.5t49.5 3.5t44.5 5.5t27.5 7.5v-12q0 -10 -5.5 -19t-22.5 -15q-22 -9 -59.5 -12t-89.5 -3z" />
    <glyph glyph-name="uni0208" unicode="&#x208;" horiz-adv-x="243" 
d="M83 0v214v214q0 11 1.5 17.5t7 10.5t18.5 4h50v-460h-77zM77 520l-100 88l43 25l90 -113h-33zM165 520l-84 102l42 24l72 -126h-30z" />
    <glyph glyph-name="uni0209" unicode="&#x209;" horiz-adv-x="208" 
d="M133 -4q-47 0 -63 25t-16 73v305h70v-301q0 -41 9 -55t32 -14q9 0 20.5 2t14.5 3v-31q-3 -1 -11.5 -2.5t-22 -3t-33.5 -1.5zM35 459l-100 88l43 25l90 -113h-33zM123 459l-84 102l42 24l72 -126h-30z" />
    <glyph glyph-name="uni020A" unicode="&#x20a;" horiz-adv-x="243" 
d="M83 0v214v214q0 11 1.5 17.5t7 10.5t18.5 4h50v-460h-77zM19 520v7q1 39 14.5 57.5t36.5 25t52 5.5q29 0 51.5 -6t35.5 -25t13 -58v-6h-32v5q0 15 -5 28.5t-19.5 22t-45.5 8.5q-29 0 -43.5 -8.5t-19 -22t-4.5 -27.5v-6h-34z" />
    <glyph glyph-name="uni020B" unicode="&#x20b;" horiz-adv-x="208" 
d="M79 565q39 0 61 -11.5t31 -35t9 -61.5h-31q0 38 -14 56.5t-56 18.5q-36 0 -53 -18.5t-17 -56.5h-30q0 37 9.5 61t31.5 35.5t59 11.5zM133 -4q-47 0 -63 25t-16 73v305h70v-301q0 -41 9 -55t32 -14q9 0 20.5 2t14.5 3v-31q-3 -1 -11.5 -2.5t-22 -3t-33.5 -1.5z" />
    <glyph glyph-name="uni020C" unicode="&#x20c;" horiz-adv-x="599" 
d="M296 -7q-60 0 -106 9t-78.5 33.5t-49.5 71.5t-17 124q0 78 18.5 125.5t52.5 71.5t81.5 32t106.5 8t105 -8.5t78.5 -33t49.5 -71.5t17 -124q0 -79 -18.5 -126t-52 -71.5t-81 -32.5t-106.5 -8zM299 36q42 0 75 7.5t55.5 27.5t34 58.5t11.5 101.5q0 62 -11.5 100.5t-34 59
t-55.5 27.5t-75 7q-43 0 -75.5 -7t-54.5 -27.5t-33.5 -59t-11.5 -100.5q0 -63 11.5 -101.5t33.5 -58.5t54.5 -27.5t75.5 -7.5zM255 520l-100 88l43 25l90 -113h-33zM343 520l-84 102l42 24l72 -126h-30z" />
    <glyph glyph-name="uni020D" unicode="&#x20d;" horiz-adv-x="486" 
d="M244 -6q-46 0 -82.5 7t-63 28t-40.5 62t-14 108t14 108t40.5 62t63 28t82.5 7q45 0 81.5 -7t62.5 -28t40 -62t14 -108q0 -68 -14 -109t-40 -61.5t-62.5 -27.5t-81.5 -7zM244 33q40 0 68.5 12t43.5 47t15 107t-15 107t-43.5 47t-68.5 12t-68.5 -12t-44 -47t-15.5 -107
t15.5 -107t44 -47t68.5 -12zM198 459l-100 88l43 25l90 -113h-33zM286 459l-84 102l42 24l72 -126h-30z" />
    <glyph glyph-name="uni020E" unicode="&#x20e;" horiz-adv-x="599" 
d="M296 -7q-60 0 -106 9t-78.5 33.5t-49.5 71.5t-17 124q0 78 18.5 125.5t52.5 71.5t81.5 32t106.5 8t105 -8.5t78.5 -33t49.5 -71.5t17 -124q0 -79 -18.5 -126t-52 -71.5t-81 -32.5t-106.5 -8zM299 36q42 0 75 7.5t55.5 27.5t34 58.5t11.5 101.5q0 62 -11.5 100.5t-34 59
t-55.5 27.5t-75 7q-43 0 -75.5 -7t-54.5 -27.5t-33.5 -59t-11.5 -100.5q0 -63 11.5 -101.5t33.5 -58.5t54.5 -27.5t75.5 -7.5zM197 520v7q1 39 14.5 57.5t36.5 25t52 5.5q29 0 51.5 -6t35.5 -25t13 -58v-6h-32v5q0 15 -5 28.5t-19.5 22t-45.5 8.5q-29 0 -43.5 -8.5t-19 -22
t-4.5 -27.5v-6h-34z" />
    <glyph glyph-name="uni020F" unicode="&#x20f;" horiz-adv-x="486" 
d="M243 565q39 0 60.5 -11.5t30.5 -35t9 -61.5h-30q0 38 -14.5 56.5t-55.5 18.5q-37 0 -54 -18.5t-17 -56.5h-30q0 37 9.5 61t32 35.5t59.5 11.5zM244 -6q-46 0 -82.5 7t-63 28t-40.5 62t-14 108t14 108t40.5 62t63 28t82.5 7q45 0 81.5 -7t62.5 -28t40 -62t14 -108
q0 -68 -14 -109t-40 -61.5t-62.5 -27.5t-81.5 -7zM244 33q40 0 68.5 12t43.5 47t15 107t-15 107t-43.5 47t-68.5 12t-68.5 -12t-44 -47t-15.5 -107t15.5 -107t44 -47t68.5 -12z" />
    <glyph glyph-name="uni0210" unicode="&#x210;" horiz-adv-x="597" 
d="M362 189h-28h-75t-104 -1v-188h-77v408q0 29 12.5 40t41.5 12q15 1 39.5 1t54.5 0.5t61.5 0.5h61t52.5 -1t36 -2q52 -5 76 -34.5t24 -87.5q0 -46 -12.5 -73t-37.5 -40q-3 -3 -9.5 -4.5t-13.5 -1.5v-2h9h8q38 -7 46 -30.5t8 -47.5v-114q0 -10 2 -16.5t3 -7.5h-54
q-14 0 -22 5t-8 24v106q0 31 -13.5 42.5t-47.5 11.5h-33zM155 231q14 0 44 -0.5t65.5 -0.5h65.5h44q33 0 58.5 20.5t25.5 76.5q0 38 -14.5 60.5t-46.5 26.5q-21 3 -52 3.5t-64 0t-61 -1t-42 -0.5q-3 0 -13 -3.5t-10 -20.5v-161zM263 520l-100 88l43 25l90 -113h-33zM351 520
l-84 102l42 24l72 -126h-30z" />
    <glyph glyph-name="uni0211" unicode="&#x211;" horiz-adv-x="391" 
d="M130 0h-44q-13 0 -19.5 6.5t-6.5 24.5v348q22 7 60.5 15t95.5 8q54 0 85.5 -7.5t46 -20.5t19 -31.5t4.5 -41.5h-67l-1 14q-1 23 -15 33.5t-33 13t-38 2.5q-29 0 -51.5 -5t-35.5 -13v-346zM167 459l-100 88l43 25l90 -113h-33zM255 459l-84 102l42 24l72 -126h-30z" />
    <glyph glyph-name="uni0212" unicode="&#x212;" horiz-adv-x="597" 
d="M362 189h-28h-75t-104 -1v-188h-77v408q0 29 12.5 40t41.5 12q15 1 39.5 1t54.5 0.5t61.5 0.5h61t52.5 -1t36 -2q52 -5 76 -34.5t24 -87.5q0 -46 -12.5 -73t-37.5 -40q-3 -3 -9.5 -4.5t-13.5 -1.5v-2h9h8q38 -7 46 -30.5t8 -47.5v-114q0 -10 2 -16.5t3 -7.5h-54
q-14 0 -22 5t-8 24v106q0 31 -13.5 42.5t-47.5 11.5h-33zM155 231q14 0 44 -0.5t65.5 -0.5h65.5h44q33 0 58.5 20.5t25.5 76.5q0 38 -14.5 60.5t-46.5 26.5q-21 3 -52 3.5t-64 0t-61 -1t-42 -0.5q-3 0 -13 -3.5t-10 -20.5v-161zM205 520v7q1 39 14.5 57.5t36.5 25t52 5.5
q29 0 51.5 -6t35.5 -25t13 -58v-6h-32v5q0 15 -5 28.5t-19.5 22t-45.5 8.5q-29 0 -43.5 -8.5t-19 -22t-4.5 -27.5v-6h-34z" />
    <glyph glyph-name="uni0213" unicode="&#x213;" horiz-adv-x="391" 
d="M211 565q39 0 61 -11.5t30.5 -35t8.5 -61.5h-30q0 38 -14 56.5t-56 18.5q-36 0 -53 -18.5t-17 -56.5h-31q0 37 9.5 61t32 35.5t59.5 11.5zM130 0h-44q-13 0 -19.5 6.5t-6.5 24.5v348q22 7 60.5 15t95.5 8q54 0 85.5 -7.5t46 -20.5t19 -31.5t4.5 -41.5h-67l-1 14
q-1 23 -15 33.5t-33 13t-38 2.5q-29 0 -51.5 -5t-35.5 -13v-346z" />
    <glyph glyph-name="uni0214" unicode="&#x214;" horiz-adv-x="588" 
d="M515 197q0 -43 -4 -79.5t-24.5 -63.5t-66 -42t-128.5 -15q-66 0 -107.5 9.5t-64 27.5t-32.5 42t-12.5 53.5t-2.5 61.5v229q0 16 1 25t8 12t21 3h47v-303q0 -45 14.5 -69.5t46 -34.5t81.5 -10q78 0 112.5 26.5t34.5 87.5v303h45q15 0 22 -3t8 -12t1 -25v-223zM249 520
l-100 88l43 25l90 -113h-33zM337 520l-84 102l42 24l72 -126h-30z" />
    <glyph glyph-name="uni0215" unicode="&#x215;" horiz-adv-x="476" 
d="M121 399v-271q0 -50 28.5 -70.5t87.5 -20.5q63 0 90.5 21.5t27.5 69.5v271h6.5h12h12.5h8q12 0 19 -1.5t9.5 -7.5t2.5 -20v-229q0 -50 -15 -82.5t-56 -48t-118 -15.5q-70 0 -110.5 13t-57.5 44t-17 84v234q0 17 5.5 23t21.5 6h21.5h21.5zM195 459l-100 88l43 25l90 -113
h-33zM283 459l-84 102l42 24l72 -126h-30z" />
    <glyph glyph-name="uni0216" unicode="&#x216;" horiz-adv-x="588" 
d="M515 197q0 -43 -4 -79.5t-24.5 -63.5t-66 -42t-128.5 -15q-66 0 -107.5 9.5t-64 27.5t-32.5 42t-12.5 53.5t-2.5 61.5v229q0 16 1 25t8 12t21 3h47v-303q0 -45 14.5 -69.5t46 -34.5t81.5 -10q78 0 112.5 26.5t34.5 87.5v303h45q15 0 22 -3t8 -12t1 -25v-223zM192 520v7
q1 39 14.5 57.5t36.5 25t52 5.5q29 0 51.5 -6t35.5 -25t13 -58v-6h-32v5q0 15 -5 28.5t-19.5 22t-45.5 8.5q-29 0 -43.5 -8.5t-19 -22t-4.5 -27.5v-6h-34z" />
    <glyph glyph-name="uni0217" unicode="&#x217;" horiz-adv-x="476" 
d="M239 565q39 0 61 -11.5t30.5 -35t8.5 -61.5h-30q0 38 -14.5 56.5t-55.5 18.5q-36 0 -53 -18.5t-17 -56.5h-31q0 37 9.5 61t32 35.5t59.5 11.5zM121 399v-271q0 -50 28.5 -70.5t87.5 -20.5q63 0 90.5 21.5t27.5 69.5v271h6.5h12h12.5h8q12 0 19 -1.5t9.5 -7.5t2.5 -20
v-229q0 -50 -15 -82.5t-56 -48t-118 -15.5q-70 0 -110.5 13t-57.5 44t-17 84v234q0 17 5.5 23t21.5 6h21.5h21.5z" />
    <glyph glyph-name="uni0218" unicode="&#x218;" horiz-adv-x="548" 
d="M52 70q21 -14 54.5 -20.5t70 -8t63.5 -1.5h23t23 1q40 1 70 9.5t47 29t17 58.5q0 46 -24 60t-70 14h-32h-36h-44q-28 0 -57 2.5t-53 13t-38 33t-14 64.5q0 49 17.5 77t49.5 41t73.5 17t88.5 4q28 0 63.5 -1t67 -5t49.5 -14q16 -2 24.5 -10t8.5 -20v-9.5v-10.5v-7
q-9 10 -30 16t-47.5 9.5t-51.5 5t-41 1.5h-59q-36 0 -67 -6t-49.5 -24.5t-18.5 -58.5q0 -31 12.5 -46t35.5 -19.5t55 -4.5h69h49q44 0 78 -7.5t53 -33t19 -79.5q0 -53 -23.5 -84t-64 -44t-92.5 -16q-25 -1 -48 -1.5t-48 0.5q-23 0 -53 2t-57.5 6.5t-45 14t-17.5 25.5v27z
M243 -201q7 16 12 30.5t9.5 27t7.5 22.5h-4h-4q-8 1 -16 6t-8 21q0 19 11 24t30 5q10 0 17 -2.5t11 -9t4 -19.5q0 -16 -7 -37t-16 -39.5t-16 -28.5h-31z" />
    <glyph glyph-name="uni0219" unicode="&#x219;" horiz-adv-x="450" 
d="M200 -4q-17 0 -42.5 1t-52 4.5t-47.5 10.5q-10 4 -16 8t-8.5 14t-2.5 30q22 -11 52 -17.5t60 -8.5t50 -2q30 0 58.5 2.5t51.5 11t36.5 25.5t13.5 45q0 41 -21 52.5t-57 11.5h-101q-37 0 -69.5 4.5t-53 25t-20.5 69.5q0 53 26 79t73.5 34t110.5 8q23 0 55 -1t61 -6
q20 -3 33.5 -7.5t20 -12.5t6.5 -23v-20q-9 10 -30 16t-48.5 9t-56.5 3.5t-54 0.5q-32 0 -62 -4t-48.5 -19.5t-18.5 -52.5q0 -28 12 -41t32.5 -16.5t46.5 -3.5h103q38 0 67.5 -6.5t46 -29t16.5 -70.5q0 -53 -29 -80t-79.5 -35.5t-114.5 -8.5zM191 -201q7 16 12 30.5t9.5 27
t7.5 22.5h-4h-4q-8 1 -16 6t-8 21q0 19 11 24t30 5q10 0 17 -2.5t11 -9t4 -19.5q0 -16 -7 -37t-16 -39.5t-16 -28.5h-31z" />
    <glyph glyph-name="uni021A" unicode="&#x21a;" horiz-adv-x="499" 
d="M22 460h455v-45h-189v-382q0 -19 -4.5 -26t-22.5 -7h-49v415h-190v45zM214 -201q7 16 12 30.5t9.5 27t7.5 22.5h-4h-4q-8 1 -16 6t-8 21q0 19 11 24t30 5q10 0 17 -2.5t11 -9t4 -19.5q0 -16 -7 -37t-16 -39.5t-16 -28.5h-31z" />
    <glyph glyph-name="uni021B" unicode="&#x21b;" horiz-adv-x="254" 
d="M160 -3q-34 0 -53 8.5t-28 29.5t-9 57v268h-38v39h38v72q0 15 2.5 22.5t8.5 9.5t17 2h43q0 -2 -0.5 -8.5t-0.5 -18.5v-79h93v-39h-93v-260q0 -39 8 -55t36 -16q11 0 23 2t17 4v-31q-6 -1 -23 -4t-41 -3zM112 -201q7 16 12 30.5t9.5 27t7.5 22.5h-4h-4q-8 1 -16 6t-8 21
q0 19 11 24t30 5q10 0 17 -2.5t11 -9t4 -19.5q0 -16 -7 -37t-16 -39.5t-16 -28.5h-31z" />
    <glyph glyph-name="uni022A" unicode="&#x22a;" horiz-adv-x="599" 
d="M296 -7q-60 0 -106 9t-78.5 33.5t-49.5 71.5t-17 124q0 78 18.5 125.5t52.5 71.5t81.5 32t106.5 8t105 -8.5t78.5 -33t49.5 -71.5t17 -124q0 -79 -18.5 -126t-52 -71.5t-81 -32.5t-106.5 -8zM299 36q42 0 75 7.5t55.5 27.5t34 58.5t11.5 101.5q0 62 -11.5 100.5t-34 59
t-55.5 27.5t-75 7q-43 0 -75.5 -7t-54.5 -27.5t-33.5 -59t-11.5 -100.5q0 -63 11.5 -101.5t33.5 -58.5t54.5 -27.5t75.5 -7.5zM369 520q-13 0 -23.5 4.5t-10.5 23.5q0 18 11 21.5t23 3.5q13 0 23.5 -4t10.5 -21q0 -19 -9.5 -23.5t-24.5 -4.5zM229 520q-14 0 -24 4.5
t-10 23.5q0 18 10.5 21.5t23.5 3.5t23.5 -4t10.5 -21q0 -18 -10 -23t-24 -5zM186 629v30h228v-30h-228z" />
    <glyph glyph-name="uni022B" unicode="&#x22b;" horiz-adv-x="486" 
d="M244 -6q-46 0 -82.5 7t-63 28t-40.5 62t-14 108t14 108t40.5 62t63 28t82.5 7q45 0 81.5 -7t62.5 -28t40 -62t14 -108q0 -68 -14 -109t-40 -61.5t-62.5 -27.5t-81.5 -7zM244 33q40 0 68.5 12t43.5 47t15 107t-15 107t-43.5 47t-68.5 12t-68.5 -12t-44 -47t-15.5 -107
t15.5 -107t44 -47t68.5 -12zM312 459q-13 0 -23.5 4.5t-10.5 23.5q0 18 11 21.5t23 3.5q13 0 23.5 -4t10.5 -21q0 -19 -9.5 -23.5t-24.5 -4.5zM172 459q-14 0 -24 4.5t-10 23.5q0 18 10.5 21.5t23.5 3.5t23.5 -4t10.5 -21q0 -18 -10 -23t-24 -5zM132 568v33h222v-33h-222z
" />
    <glyph glyph-name="uni022C" unicode="&#x22c;" horiz-adv-x="599" 
d="M296 -7q-60 0 -106 9t-78.5 33.5t-49.5 71.5t-17 124q0 78 18.5 125.5t52.5 71.5t81.5 32t106.5 8t105 -8.5t78.5 -33t49.5 -71.5t17 -124q0 -79 -18.5 -126t-52 -71.5t-81 -32.5t-106.5 -8zM299 36q42 0 75 7.5t55.5 27.5t34 58.5t11.5 101.5q0 62 -11.5 100.5t-34 59
t-55.5 27.5t-75 7q-43 0 -75.5 -7t-54.5 -27.5t-33.5 -59t-11.5 -100.5q0 -63 11.5 -101.5t33.5 -58.5t54.5 -27.5t75.5 -7.5zM349 520q-17 0 -33.5 9l-33 18t-32.5 9q-18 0 -28 -10.5t-14 -17.5l-17 14l5 10t11.5 17t18 16.5t25.5 7.5q18 1 34 -9t31.5 -19t31.5 -9
q21 0 31.5 12t14.5 20l17 -14q-1 -3 -5 -11t-11.5 -18t-19 -17.5t-26.5 -7.5zM186 627v30h228v-30h-228z" />
    <glyph glyph-name="uni022D" unicode="&#x22d;" horiz-adv-x="486" 
d="M244 -6q-46 0 -82.5 7t-63 28t-40.5 62t-14 108t14 108t40.5 62t63 28t82.5 7q45 0 81.5 -7t62.5 -28t40 -62t14 -108q0 -68 -14 -109t-40 -61.5t-62.5 -27.5t-81.5 -7zM244 33q40 0 68.5 12t43.5 47t15 107t-15 107t-43.5 47t-68.5 12t-68.5 -12t-44 -47t-15.5 -107
t15.5 -107t44 -47t68.5 -12zM293 458q-18 0 -34 9.5t-32.5 18.5t-33.5 9t-26 -11.5t-13 -18.5l-18 13q1 3 5 11t11 18t17.5 17t25.5 7q17 0 33 -9.5l32 -19t32 -9.5q20 0 30.5 12.5t14.5 20.5l19 -13q-2 -3 -6 -11.5t-12 -18.5t-19 -17.5t-26 -7.5zM132 567v33h222v-33h-222
z" />
    <glyph glyph-name="uni0230" unicode="&#x230;" horiz-adv-x="599" 
d="M296 -7q-60 0 -106 9t-78.5 33.5t-49.5 71.5t-17 124q0 78 18.5 125.5t52.5 71.5t81.5 32t106.5 8t105 -8.5t78.5 -33t49.5 -71.5t17 -124q0 -79 -18.5 -126t-52 -71.5t-81 -32.5t-106.5 -8zM299 36q42 0 75 7.5t55.5 27.5t34 58.5t11.5 101.5q0 62 -11.5 100.5t-34 59
t-55.5 27.5t-75 7q-43 0 -75.5 -7t-54.5 -27.5t-33.5 -59t-11.5 -100.5q0 -63 11.5 -101.5t33.5 -58.5t54.5 -27.5t75.5 -7.5zM300 520q-16 0 -26 4.5t-10 22.5q0 20 10.5 24.5t26.5 4.5t24.5 -5t8.5 -24q0 -18 -9 -22.5t-25 -4.5zM186 638v30h228v-30h-228z" />
    <glyph glyph-name="uni0231" unicode="&#x231;" horiz-adv-x="486" 
d="M244 -6q-46 0 -82.5 7t-63 28t-40.5 62t-14 108t14 108t40.5 62t63 28t82.5 7q45 0 81.5 -7t62.5 -28t40 -62t14 -108q0 -68 -14 -109t-40 -61.5t-62.5 -27.5t-81.5 -7zM244 33q40 0 68.5 12t43.5 47t15 107t-15 107t-43.5 47t-68.5 12t-68.5 -12t-44 -47t-15.5 -107
t15.5 -107t44 -47t68.5 -12zM243 459q-16 0 -26 4.5t-10 22.5q0 20 10.5 24.5t26.5 4.5t24.5 -5t8.5 -24q0 -18 -9 -22.5t-25 -4.5zM132 554v33h222v-33h-222z" />
    <glyph glyph-name="uni0232" unicode="&#x232;" horiz-adv-x="476" 
d="M199 0v187l-169 248l-18 25h102l140 -219l142 219h70l-22 -28l-169 -245v-152q1 -13 -2 -20.5t-10 -11t-22 -3.5h-42zM147 522v30h228v-30h-228z" />
    <glyph glyph-name="uni0233" unicode="&#x233;" horiz-adv-x="471" 
d="M230 -111q-45 0 -85 4.5t-65 13.5t-25 20v25q16 -9 42.5 -15t56.5 -9.5t58 -3.5q48 0 78.5 13t46 42t15.5 73v54q-9 -20 -29 -34t-49.5 -20t-68.5 -6q-71 0 -104.5 20t-43 57t-9.5 86v151q0 15 1.5 23.5t7 12t18.5 3.5h44v-49.5v-46v-45.5v-49q0 -57 15.5 -84t42 -34
t58.5 -7t58 8.5t42 33.5t16 75v198h43q15 0 21.5 -4.5t6.5 -25.5v-309q0 -89 -46.5 -130t-145.5 -41zM125 461v33h222v-33h-222z" />
    <glyph glyph-name="uni0237" unicode="&#x237;" horiz-adv-x="234" 
d="M15 -55q5 -2 20 -3t25 -1q32 0 38 18.5t6 58.5v176v176q0 11 2 17.5t8 9t18 2.5h21h21v-66v-73v-77v-76v-71v-41.5t-3 -35t-12 -26.5t-26.5 -17t-48.5 -6q-23 0 -43 2t-26 3v15v15z" />
    <glyph glyph-name="uni02B9" unicode="&#x2b9;" horiz-adv-x="89" 
d="M43 547h46l-54 -147h-35z" />
    <glyph glyph-name="uni02BA" unicode="&#x2ba;" horiz-adv-x="518" 
d="M41 538h46l-54 -139h-35zM185 538h46l-54 -139h-35z" />
    <glyph glyph-name="uni02BC" unicode="&#x2bc;" horiz-adv-x="89" 
d="M43 538h46l-54 -139h-35z" />
    <glyph glyph-name="circumflex" unicode="&#x2c6;" horiz-adv-x="275" 
d="M1 460l88 114h26l89 -114h-35l-67 78l-68 -78h-33z" />
    <glyph glyph-name="caron" unicode="&#x2c7;" horiz-adv-x="274" 
d="M1 574h33l68 -78l67 78h35l-89 -114h-26z" />
    <glyph glyph-name="breve" unicode="&#x2d8;" horiz-adv-x="250" 
d="M102 458q-37 0 -59.5 11.5t-32 36t-9.5 60.5h31q0 -38 17 -56.5t53 -18.5q42 0 56 19t14 56h30q0 -37 -8.5 -61t-30.5 -35.5t-61 -11.5z" />
    <glyph glyph-name="dotaccent" unicode="&#x2d9;" horiz-adv-x="154" 
d="M36 459q-16 0 -26 4.5t-10 22.5q0 20 10.5 24.5t26.5 4.5t24.5 -5t8.5 -24q0 -18 -9 -22.5t-25 -4.5z" />
    <glyph glyph-name="ring" unicode="&#x2da;" horiz-adv-x="270" 
d="M77 458q-40 0 -57 13.5t-17 46.5q0 32 17 45t57 13q42 0 58.5 -13t16.5 -45q0 -33 -16.5 -46.5t-58.5 -13.5zM77 481q20 0 31 6.5t11 30.5q0 22 -11 28.5t-31 6.5q-19 0 -30.5 -6.5t-11.5 -28.5q0 -24 11 -30.5t31 -6.5z" />
    <glyph glyph-name="ogonek" unicode="&#x2db;" horiz-adv-x="217" 
d="M99 -183q-33 0 -54 6.5t-30.5 22t-9.5 41.5q0 21 11.5 39.5t27 33.5t32 26t26.5 16h39q-8 -3 -23.5 -13.5t-32.5 -25.5t-29 -32.5t-12 -32.5q0 -32 17.5 -41.5t45.5 -9.5q13 0 21.5 0.5t13.5 1t7 0.5q0 -11 -3 -18.5t-13.5 -10.5t-33.5 -3z" />
    <glyph glyph-name="tilde" unicode="&#x2dc;" horiz-adv-x="304" 
d="M157 458q-18 0 -34 9.5t-32.5 18.5t-33.5 9t-26 -11.5t-13 -18.5l-18 13q1 3 5 11t11 18t17.5 17t25.5 7q17 0 33 -9.5l32 -19t32 -9.5q20 0 30.5 12.5t14.5 20.5l19 -13q-2 -3 -6 -11.5t-12 -18.5t-19 -17.5t-26 -7.5z" />
    <glyph glyph-name="hungarumlaut" unicode="&#x2dd;" horiz-adv-x="269" 
d="M110 460l34 112l48 -1l-49 -111h-33zM0 460l33 112l49 -1l-49 -111h-33z" />
    <glyph glyph-name="gravecomb" unicode="&#x300;" 
d="M117 460l-115 86l36 27l113 -113h-34z" />
    <glyph glyph-name="acutecomb" unicode="&#x301;" 
d="M2 460l112 113l37 -27l-116 -86h-33z" />
    <glyph glyph-name="uni0302" unicode="&#x302;" 
d="M1 460l88 114h26l89 -114h-35l-67 78l-68 -78h-33z" />
    <glyph glyph-name="tildecomb" unicode="&#x303;" 
d="M157 458q-18 0 -34 9.5t-32.5 18.5t-33.5 9t-26 -11.5t-13 -18.5l-18 13q1 3 5 11t11 18t17.5 17t25.5 7q17 0 33 -9.5l32 -19t32 -9.5q20 0 30.5 12.5t14.5 20.5l19 -13q-2 -3 -6 -11.5t-12 -18.5t-19 -17.5t-26 -7.5z" />
    <glyph glyph-name="uni0304" unicode="&#x304;" 
d="M3 461v33h222v-33h-222z" />
    <glyph glyph-name="uni0306" unicode="&#x306;" 
d="M102 458q-37 0 -59.5 11.5t-32 36t-9.5 60.5h31q0 -38 17 -56.5t53 -18.5q42 0 56 19t14 56h30q0 -37 -8.5 -61t-30.5 -35.5t-61 -11.5z" />
    <glyph glyph-name="uni0307" unicode="&#x307;" 
d="M36 459q-16 0 -26 4.5t-10 22.5q0 20 10.5 24.5t26.5 4.5t24.5 -5t8.5 -24q0 -18 -9 -22.5t-25 -4.5z" />
    <glyph glyph-name="uni0308" unicode="&#x308;" 
d="M174 459q-13 0 -23.5 4.5t-10.5 23.5q0 18 11 21.5t23 3.5q13 0 23.5 -4t10.5 -21q0 -19 -9.5 -23.5t-24.5 -4.5zM34 459q-14 0 -24 4.5t-10 23.5q0 18 10.5 21.5t23.5 3.5t23.5 -4t10.5 -21q0 -18 -10 -23t-24 -5z" />
    <glyph glyph-name="hookabovecomb" unicode="&#x309;" 
d="M44 456v11q0 11 10.5 17t20.5 14t10 22v5q0 18 -5.5 24.5t-24.5 6.5q-17 0 -22.5 -7.5t-7.5 -17.5l-27 6q6 45 60 45q33 0 49 -11t16 -44v-3q0 -20 -12 -30t-23.5 -16t-11.5 -17v-5h-32z" />
    <glyph glyph-name="uni030A" unicode="&#x30a;" 
d="M77 458q-40 0 -57 13.5t-17 46.5q0 32 17 45t57 13q42 0 58.5 -13t16.5 -45q0 -33 -16.5 -46.5t-58.5 -13.5zM77 481q20 0 31 6.5t11 30.5q0 22 -11 28.5t-31 6.5q-19 0 -30.5 -6.5t-11.5 -28.5q0 -24 11 -30.5t31 -6.5z" />
    <glyph glyph-name="uni030B" unicode="&#x30b;" 
d="M110 460l34 112l48 -1l-49 -111h-33zM0 460l33 112l49 -1l-49 -111h-33z" />
    <glyph glyph-name="uni030C" unicode="&#x30c;" 
d="M1 574h33l68 -78l67 78h35l-89 -114h-26z" />
    <glyph glyph-name="uni030F" unicode="&#x30f;" 
d="M100 460l-100 88l43 25l90 -113h-33zM188 460l-84 102l42 24l72 -126h-30z" />
    <glyph glyph-name="uni0311" unicode="&#x311;" 
d="M102 566q39 0 61 -11.5t30.5 -35t8.5 -61.5h-30q0 38 -14 56.5t-56 18.5q-36 0 -53 -18.5t-17 -56.5h-31q0 37 9.5 61t32 35.5t59.5 11.5z" />
    <glyph glyph-name="uni0312" unicode="&#x312;" 
d="M32 461q-9 0 -16.5 2t-11.5 9t-4 19q0 17 7 38t16 39.5t15 27.5h32q-7 -15 -12.5 -29.5t-9.5 -27t-7 -22.5q2 0 4 -0.5t4 -0.5q8 -1 16 -5.5t8 -21.5q0 -18 -11 -23t-30 -5z" />
    <glyph glyph-name="uni031B" unicode="&#x31b;" 
d="M4 370l-4 29h21q16 0 24.5 8t12 19t3.5 19v22h41v-20q0 -39 -25.5 -58.5t-72.5 -18.5z" />
    <glyph glyph-name="dotbelowcomb" unicode="&#x323;" 
d="M40 -128q-10 0 -19 1.5t-15 7.5t-6 19q0 19 12 24t28 5q17 0 28 -4.5t11 -24.5q0 -13 -5.5 -19t-14 -7.5t-19.5 -1.5z" />
    <glyph glyph-name="uni0324" unicode="&#x324;" 
d="M174 -102q-13 0 -23.5 4.5t-10.5 23.5q0 18 11 21.5t23 3.5q13 0 23.5 -4t10.5 -21q0 -19 -9.5 -23.5t-24.5 -4.5zM34 -102q-14 0 -24 4.5t-10 23.5q0 18 10.5 21.5t23.5 3.5t23.5 -4t10.5 -21q0 -18 -10 -23t-24 -5z" />
    <glyph glyph-name="uni0326" unicode="&#x326;" 
d="M4 -201q7 16 12 30.5t9.5 27t7.5 22.5h-4h-4q-8 1 -16 6t-8 21q0 19 11 24t30 5q10 0 17 -2.5t11 -9t4 -19.5q0 -16 -7 -37t-16 -39.5t-16 -28.5h-31z" />
    <glyph glyph-name="uni0327" unicode="&#x327;" 
d="M58 -183q-28 0 -38 4.5t-10 18.5h20.5h41.5q29 0 39 7.5t10 24.5q0 23 -9 29.5t-43 6.5h-34q-5 0 -10.5 2t-8.5 5t-2 8q3 4 12 15t20.5 23.5t22 24t15.5 16.5h24l-54 -75q45 3 68.5 0t31.5 -15.5t8 -40.5q0 -27 -12 -38.5t-35.5 -13.5t-56.5 -2z" />
    <glyph glyph-name="uni0328" unicode="&#x328;" 
d="M99 -183q-33 0 -54 6.5t-30.5 22t-9.5 41.5q0 21 11.5 39.5t27 33.5t32 26t26.5 16h39q-8 -3 -23.5 -13.5t-32.5 -25.5t-29 -32.5t-12 -32.5q0 -32 17.5 -41.5t45.5 -9.5q13 0 21.5 0.5t13.5 1t7 0.5q0 -11 -3 -18.5t-13.5 -10.5t-33.5 -3z" />
    <glyph glyph-name="uni032E" unicode="&#x32e;" 
d="M102 -140q-37 0 -59.5 11.5t-32 36t-9.5 60.5h31q0 -38 17 -56.5t53 -18.5q42 0 56 19t14 56h30q0 -37 -8.5 -61t-30.5 -35.5t-61 -11.5z" />
    <glyph glyph-name="uni0331" unicode="&#x331;" 
d="M0 -99v33h222v-33h-222z" />
    <glyph glyph-name="uni0335" unicode="&#x335;" 
d="M0 471h227v-24h-227v24z" />
    <glyph glyph-name="pi" unicode="&#x3c0;" horiz-adv-x="459" 
d="M40 341h379v-19h-37q-14 0 -23 -8t-9 -26v-258q0 -12 -4.5 -19t-13 -10.5t-19.5 -5t-24 -1.5v328h-117v-292q0 -12 -5 -19t-14 -10.5t-20 -5t-23 -1.5v76.5v70.5v70.5v76.5q0 18 -10 26t-23 8h-37v19z" />
    <glyph glyph-name="tsaa" unicode="&#x13a0;" horiz-adv-x="466" 
d="M423 225q0 -88 -13.5 -135t-39.5 -66.5t-63.5 -23t-84.5 -3.5q-28 0 -69.5 1.5t-85.5 1.5v403q0 28 4 40.5t24 14.5q21 2 56 3t70.5 1.5t57.5 -1.5q31 -2 57.5 -8t46 -27.5t30 -69t10.5 -131.5zM272 423q-17 2 -42 2t-49.5 -1t-38.5 -4q-12 -1 -17.5 -6t-5.5 -19v-356
q29 -2 57.5 -3t51.5 -2q50 -2 82 10.5t47.5 53.5t15.5 126q0 65 -5 103.5t-17 58.5t-31 27.5t-48 9.5z" />
    <glyph glyph-name="tsae" unicode="&#x13a1;" horiz-adv-x="547" 
d="M328 185q-16 2 -44.5 3t-60 1t-59.5 -0.5t-45 -1.5v-187h-52v402q0 29 12.5 41.5t43.5 13.5q34 2 57 3t41.5 1t39 -1t50.5 -3q42 -3 64 -15.5t30.5 -41t8.5 -78.5q2 -87 -55 -103q31 -7 41 -27.5t10 -44.5v-86q0 -22 6.5 -25.5t15.5 -3.5q14 0 21.5 12.5t7.5 58.5h36v-45
q0 -46 -16.5 -55.5t-48.5 -9.5t-48 6t-21 24t-6 55v69q0 15 -7 25.5t-22 12.5zM119 234q36 -1 59.5 -1.5t47 -0.5t60.5 1q34 1 55.5 18t21.5 69q0 53 -14.5 72.5t-52.5 23.5q-26 2 -71.5 2t-105.5 -6v-178z" />
    <glyph glyph-name="tsai" unicode="&#x13a2;" horiz-adv-x="453" 
d="M32 460h391v-42q-1 1 -22.5 1.5t-51.5 0.5h-56.5h-38.5v-362q0 -27 -7 -42.5t-31 -15.5h-14v420l-170 -2v42z" />
    <glyph glyph-name="tsao" unicode="&#x13a3;" horiz-adv-x="572" 
d="M294 460h172v-39h-61v-70q40 -1 71.5 -13t50.5 -46.5t19 -106.5q0 -61 -7.5 -97t-23 -55t-38.5 -28q-18 -7 -40.5 -8t-37.5 0q-12 1 -27 5t-26 16.5t-11 35.5v26h28q-2 -18 8 -33.5t47 -15.5q23 0 39 12t25 44.5t9 94.5q0 49 -6.5 75.5t-21 37t-39.5 12.5t-61 2
q-49 0 -71 -11t-26 -49q17 -15 26 -42t9 -72q0 -64 -18.5 -93.5t-49.5 -37.5t-69 -8t-68.5 8t-48 37.5t-17.5 93.5t19 93.5t51 37.5t69 8q20 0 37 -2t32 -7v23q0 25 18.5 38.5t46.5 19.5t55 6v69h-64v39zM250 135q0 47 -11 69.5t-29.5 29.5t-43.5 7t-44.5 -6.5t-30.5 -29
t-11 -70.5t11 -70.5t30.5 -29.5t44.5 -7t43.5 7t29.5 30t11 70z" />
    <glyph glyph-name="tsau" unicode="&#x13a4;" horiz-adv-x="601" 
d="M211 -5q-67 0 -108 19t-59 70.5t-18 148.5q0 88 18 138t59 71t108 21q55 0 91.5 -12t58 -42.5t29.5 -87.5q11 -7 31.5 -18.5t43 -20t41.5 -8.5t28 16q15 26 3.5 42t-28.5 23l13 24l23 -11q41 -22 41 -55.5t-32 -68.5q-22 -24 -59.5 -17.5t-99.5 35.5q0 -9 0.5 -18
t0.5 -19q0 -88 -18 -138t-58.5 -71t-108.5 -21zM210 32q58 0 87 20.5t39 63.5t10 108q0 70 -10 114.5t-38.5 66t-85.5 21.5q-58 0 -87 -20.5t-39 -63t-10 -108.5q0 -70 10 -114.5t39 -65.5t86 -21z" />
    <glyph glyph-name="tsav" unicode="&#x13a5;" horiz-adv-x="183" 
d="M118 399v-399q-26 0 -37 5t-13 15t-2 26v353h52zM124 474q0 -19 -9 -22.5t-24 -3.5q-14 0 -23.5 3.5t-9.5 22.5q0 17 9 21.5t23 4.5t24 -4t10 -22z" />
    <glyph glyph-name="tsaga" unicode="&#x13a6;" horiz-adv-x="480" 
d="M26 258h85q-27 15 -41 37t-14 56q0 41 17 63.5t45.5 32.5t63 12.5t69.5 2.5q23 0 49.5 -2t51 -6.5t40 -12t15.5 -17.5v-33q-9 6 -35.5 14t-60 13.5t-64.5 5.5q-36 0 -68.5 -4t-52.5 -19t-20 -49q0 -32 28.5 -50.5t62.5 -29.5l43 -14h212v-39h-100q27 -12 45.5 -34
t18.5 -72q0 -48 -23.5 -72.5t-66 -33.5t-99.5 -11q-40 -1 -81 3.5t-60 9.5q-16 5 -24.5 17.5t-8.5 40.5q33 -15 79.5 -23.5t93.5 -8.5q18 0 41.5 2.5t46 10t37.5 23.5t15 44q0 24 -20.5 44.5t-47.5 29.5l-87 30h-185v39z" />
    <glyph glyph-name="tsaka" unicode="&#x13a7;" horiz-adv-x="607" 
d="M356 39q23 3 42.5 17t31.5 55.5t12 124.5q0 77 -12.5 117t-35.5 55t-53.5 16.5t-66.5 1.5q-50 0 -81.5 -11.5t-46 -27.5t-14.5 -30h-35v20q0 34 25.5 53t66 27t85.5 8q49 0 90 -4.5t71.5 -25t47 -66t16.5 -127.5q0 -79 -10 -126t-30 -72t-50 -37q-13 -5 -47 -7.5t-74 -3
t-72 0.5q-39 2 -69.5 13.5t-47.5 43t-17 92.5q0 62 18 95t52 45.5t80 12.5q77 0 102 -28.5t25 -81.5q0 -39 -19.5 -69.5t-52 -51t-71.5 -30.5h9q26 -1 62.5 -2t68.5 3zM134 149q0 -36 7 -57.5t20 -33.5q29 6 64 22t60 43.5t25 64.5q0 73 -78 73q-23 0 -45.5 -8t-37.5 -31.5
t-15 -72.5z" />
    <glyph glyph-name="tsage" unicode="&#x13a8;" horiz-adv-x="353" 
d="M105 460v-171l89 62q3 -13 14.5 -26t36.5 -13t45 19.5t32 39.5q11 -5 15 -16t-13 -34q-40 -52 -79 -52q-14 0 -34.5 7t-33.5 18l-72 -50v-186q0 -27 -7 -42.5t-31 -15.5h-14v460h52z" />
    <glyph glyph-name="tsagi" unicode="&#x13a9;" horiz-adv-x="411" 
d="M352 460h49l-94 -251q-30 -82 -51.5 -130.5t-41.5 -68.5t-45 -18q-47 4 -70.5 28t-8.5 68l9 23l26 -8q-7 -16 -4.5 -36t31.5 -28q16 -5 28.5 7t22.5 31t18 36l7.5 17.5t17 40t15.5 38.5l-24 -10q-16 -7 -30 8t-25 44l-81 209h56l79 -209q4 -11 15.5 -14.5t18.5 -3.5z" />
    <glyph glyph-name="tsago" unicode="&#x13aa;" horiz-adv-x="406" 
d="M103 118l-34 -118h-46l119 396q13 44 32.5 54t41.5 10h37l138 -460h-50l-35 118h-203zM115 159h178l-78 259q-25 -7 -33 -34z" />
    <glyph glyph-name="tsagu" unicode="&#x13ab;" horiz-adv-x="296" 
d="M97 105q0 -32 11.5 -49t39.5 -17q35 0 47.5 20t12.5 55v346h25q22 0 25 -9t3 -40v-280q0 -55 -9 -84t-34 -39t-73 -10q-37 0 -55 11.5t-23.5 35t-5.5 60.5h36z" />
    <glyph glyph-name="tsagv" unicode="&#x13ac;" horiz-adv-x="385" 
d="M341 460v-40h-221v-160h142v-39h-142v-182h221v-39h-273v415q0 19 8.5 32t30.5 13h234z" />
    <glyph glyph-name="tsaha" unicode="&#x13ad;" horiz-adv-x="557" 
d="M187 460h172v-39h-61v-121h239v-52l-200 -202l-24.5 -24.5t-25 -15.5t-40.5 -4q1 2 1.5 13t0.5 19v225h-66q-5 -48 -28 -60t-59 -12q-26 0 -46 6t-31 27t-11 65q0 41 12 60.5t33.5 25.5t47.5 6q35 0 57 -13.5t25 -63.5h66v121h-62v39zM479 259h-180v-186zM48 286
q0 -41 13 -52.5t34 -11.5q22 0 35 11.5t13 52.5q0 38 -12 49.5t-34 11.5q-20 0 -34.5 -11t-14.5 -50z" />
    <glyph glyph-name="tsahe" unicode="&#x13ae;" horiz-adv-x="353" 
d="M113 304v-67h48q59 0 87 19t28 80q0 51 -22.5 68t-78.5 17h-59q-5 0 -20 -0.5t-32.5 -1t-31 -1.5t-16.5 -1v10q0 23 24.5 28t89.5 5h65q46 0 76 -9t45.5 -36.5t15.5 -82.5q0 -63 -28.5 -91.5t-78 -35.5t-112.5 -7v-198q-26 0 -37 5t-13 15t-2 26v258h52z" />
    <glyph glyph-name="tsahi" unicode="&#x13af;" horiz-adv-x="477" 
d="M278 105q0 -32 11.5 -49t39.5 -17q34 0 47 22.5t14 74.5v83h-171v-43q0 -61 -6 -97t-19.5 -53.5t-34 -22.5t-50.5 -5q-40 0 -59.5 11.5t-25 35t-5.5 60.5h36q0 -32 11.5 -49t39.5 -17q35 0 47.5 21.5t12.5 77.5v103q0 83 7.5 132t37 70t94.5 21q50 0 78 -11.5t40.5 -36
t15 -63.5t2.5 -94v-89q0 -60 -6.5 -95t-19.5 -51.5t-33.5 -21t-49.5 -4.5q-40 0 -59.5 11.5t-25 35t-5.5 60.5h36zM219 258h171v24q0 62 -8.5 93t-27.5 41t-49 10q-47 0 -66.5 -28t-19.5 -101v-39z" />
    <glyph glyph-name="tsaho" unicode="&#x13b0;" horiz-adv-x="228" 
d="M91 460v-202h122v-39h-122v-219q-26 0 -37 5t-13 15t-2 26v414h52z" />
    <glyph glyph-name="tsahu" unicode="&#x13b1;" horiz-adv-x="322" 
d="M313 460v-40h-221v-420h-52v415q0 19 8.5 32t30.5 13h234z" />
    <glyph glyph-name="tsahv" unicode="&#x13b2;" horiz-adv-x="540" 
d="M372 208h153v-39h-49q4 -28 3.5 -57.5t-10 -55.5t-31 -42t-59.5 -16q-42 0 -74.5 20t-64.5 70q-31 -49 -63.5 -69.5t-73.5 -20.5q-35 0 -63 19.5t-28 60.5q0 26 11 53.5t27 49.5l35 -18q-10 -17 -20 -39t-10 -42q0 -19 15 -31t36 -12q45 0 106 99q-10 20 -21 43t-22 49
q-16 37 -27.5 77t-11.5 80q0 30 13 45.5t35 21.5q29 8 66.5 7t65.5 -9q42 -12 42 -65q0 -40 -11 -80t-28 -77q-12 -26 -22.5 -48.5t-20.5 -42.5q59 -100 106 -100q34 0 48 21.5t16 52t0 56.5h-68v39zM202 279q10 -25 19.5 -46.5t19.5 -41.5q10 20 19.5 42t19.5 46
q13 32 18 55t5 39q0 24 -13.5 38t-46.5 14q-64 0 -64 -52q0 -16 5 -39t18 -55z" />
    <glyph glyph-name="tsala" unicode="&#x13b3;" horiz-adv-x="510" 
d="M396 92l55 368h42l-65 -426q-4 -25 -14.5 -29.5t-26.5 -4.5h-17l-110 395l-99 -395h-12q-25 0 -41.5 3.5t-20.5 30.5l-65 426h47l62 -407l103 407h61z" />
    <glyph glyph-name="tsale" unicode="&#x13b4;" horiz-adv-x="500" 
d="M341 171q0 -59 -12 -94.5t-34 -53t-51 -23t-63 -5.5q-44 0 -77 13t-51 51.5t-18 114.5q0 59 12.5 94.5t34.5 53t51 23t62 5.5q23 0 43.5 -3t36.5 -11q-7 71 12 100.5t75 29.5q42 0 63.5 -11.5t31 -35t14.5 -60.5h-42q-5 32 -18.5 49t-42.5 17q-28 0 -39.5 -17
t-10.5 -44.5t7 -58.5q7 -31 11.5 -68.5t4.5 -65.5zM296 172q0 63 -13.5 94t-38 41t-56.5 10q-31 1 -55.5 -9t-38 -40.5t-13.5 -93.5q0 -62 13.5 -93t38 -41t56.5 -11q32 0 56 9.5t37.5 40.5t13.5 93z" />
    <glyph glyph-name="tsali" unicode="&#x13b5;" horiz-adv-x="363" 
d="M40 0v317q0 61 17 93t51 44t85 12q71 0 106.5 -24t35.5 -94q0 -29 -12 -49t-28.5 -32t-30.5 -17l-12 29l8.5 7.5t17 21.5t8.5 34q0 41 -18.5 62t-73.5 21q-45 0 -67 -13.5t-28.5 -39t-6.5 -60.5v-312h-52z" />
    <glyph glyph-name="tsalo" unicode="&#x13b6;" horiz-adv-x="461" 
d="M239 135v131h39v-44h33q62 0 88 -19t26 -72q0 -82 -46.5 -110.5t-139.5 -28.5q-73 0 -120.5 17t-70 67t-22.5 147q0 88 20.5 140.5t68.5 76.5t130 24q59 0 98 -11.5t58 -47t19 -108.5h-45q0 33 -6.5 63.5t-29.5 44.5q-20 13 -47.5 17t-58.5 4q-63 0 -97 -19.5t-47 -63.5
t-13 -118q0 -67 11.5 -106t33.5 -57.5t52 -23.5t66 -5t69 6.5t54 24.5t21 53q0 31 -11.5 50t-60.5 19h-33v-51h-39z" />
    <glyph glyph-name="tsalu" unicode="&#x13b7;" horiz-adv-x="528" 
d="M404 460h36q17 0 24 -7.5t7 -29.5v-382q0 -28 -8.5 -34.5t-27.5 -6.5h-15v407l-151 -407h-25l-159 408v-408h-39q2 2 2 8.5v13.5v401q0 22 7 29.5t23 7.5h37l8.5 -22t22.5 -58t31 -79.5t33 -86.5t29.5 -78.5t20.5 -55.5z" />
    <glyph glyph-name="tsalv" unicode="&#x13b8;" horiz-adv-x="385" 
d="M39 275h122l53 -78h68v115q0 35 -6.5 60.5t-28 39t-67.5 13.5q-55 0 -73.5 -21t-18.5 -62h-49q0 70 36 97t106 27q51 0 85 -12t51.5 -44t16.5 -93v-317h-52v158h-93l-51 78h-99v39z" />
    <glyph glyph-name="tsama" unicode="&#x13b9;" horiz-adv-x="577" 
d="M229 460h153v-39h-57v-46q12 -31 34.5 -38.5t51.5 3.5q41 16 66.5 18.5t41.5 -16.5q30 -33 27 -68t-44 -57l-23 -11l-13 24q17 7 28.5 23t-3.5 42q-8 15 -26.5 16t-39.5 -7q-28 -10 -53.5 -13.5t-41.5 9.5q-7 6 -14.5 14.5t-13.5 15.5q-14 -16 -25.5 -27t-21.5 -22
q35 -36 48 -84.5t13 -95.5q0 -42 -19.5 -67t-47.5 -33.5t-56.5 -0.5t-48 33t-19.5 67q0 35 19.5 81.5t52.5 90.5q-24 18 -51 18q-33 0 -48.5 -12.5t-20.5 -32t-5 -41.5h-45q0 15 1 33.5t9 34.5q14 28 43.5 41t61.5 14q46 2 83 -21q9 9 19 18.5t20 18.5q6 5 15 18.5t9 23.5
v36h-59v39zM267 101q0 43 -8 75.5t-34 66.5q-22 -31 -36 -66.5t-14 -75.5q0 -33 14 -49t32 -16t32 16.5t14 48.5z" />
    <glyph glyph-name="tsame" unicode="&#x13ba;" horiz-adv-x="540" 
d="M457 0v202h-62q-2 -79 -21 -124t-58.5 -64t-104.5 -19q-67 0 -108 19t-59 70.5t-18 148.5q0 88 18 138t59 71t108 21q66 0 106 -18t59 -66t20 -138h61v219h24q19 0 22 -8t3 -23v-429h-49zM210 32q58 0 87 20.5t39 63.5t10 108q0 70 -10 114.5t-38.5 66t-85.5 21.5
q-58 0 -87 -20.5t-39 -63t-10 -108.5q0 -70 10 -114.5t39 -65.5t86 -21z" />
    <glyph glyph-name="tsami" unicode="&#x13bb;" horiz-adv-x="445" 
d="M360 0v221h-275v-43.5t0.5 -67t0.5 -67v-43.5h-53v409q0 20 6.5 35.5t25.5 15.5h21v-40.5t-0.5 -59.5t-0.5 -59.5v-40.5h275v200h52v-410q0 -20 -6 -35t-25 -15h-21z" />
    <glyph glyph-name="tsamo" unicode="&#x13bc;" horiz-adv-x="353" 
d="M106 460h153v-39h-57v-67q57 -4 85 -24.5t37 -59t9 -99.5t-10.5 -97t-31 -53t-52 -22t-73.5 -5q-47 0 -80 4.5t-50 25.5t-17 69q0 44 17 63.5t78 19.5v-34q-32 0 -42 -12t-10 -36q0 -33 12.5 -46t35.5 -15.5t56 -2.5q35 0 61 8t40.5 38t14.5 97q0 65 -9.5 95.5t-36 39.5
t-77.5 9q-22 0 -47.5 -5.5t-34.5 -10.5l-8 38q7 5 35 11t57 6h4v65h-59v39z" />
    <glyph glyph-name="tsamu" unicode="&#x13bd;" horiz-adv-x="452" 
d="M21 178h143v-39h-55v-65q0 -23 9 -29.5t34 -6.5q12 0 23.5 9t20.5 31l54 131l-24 -10q-16 -7 -29.5 8t-26.5 44l-88 209h56l86 -209q5 -11 16.5 -14.5t18.5 -3.5l67 188h-45v39h153v-39h-59l-79 -212q-27 -74 -46.5 -120.5t-38.5 -69.5q-12 -16 -31.5 -19.5t-34.5 -3.5
q-39 0 -54 9t-17 29.5t-2 53.5v51h-51v39z" />
    <glyph glyph-name="tsana" unicode="&#x13be;" horiz-adv-x="420" 
d="M211 -5q-67 0 -108 19t-59 70.5t-18 148.5q0 88 18 138t59 71t108 21q68 0 108.5 -19t58.5 -70.5t18 -148.5q0 -88 -18 -138t-58.5 -71t-108.5 -21zM210 32q58 0 87 20.5t39 62.5t10 106h-270q1 -65 11.5 -107t39.5 -61.5t84 -19.5zM212 426q-54 0 -83 -18t-40 -54.5
t-13 -93.5h269q-3 86 -29.5 125.5t-103.5 40.5z" />
    <glyph glyph-name="tsahna" unicode="&#x13bf;" horiz-adv-x="394" 
d="M238 178h143v-39h-43v-121q0 -49 -18 -79.5t-66 -30.5q-14 0 -36.5 1.5t-28.5 2.5v38q5 -2 17.5 -3t18.5 -1q60 0 60 59v15q-2 -13 -25.5 -18t-53 -5h-52.5q-34 0 -48.5 20t-17.5 51.5t-3 66.5v227h-45v38h45q0 1 0.5 16.5t0.5 31v16.5q0 20 7.5 30.5t26.5 10.5h20
q-1 -2 -1.5 -11t-0.5 -17v-9v-68h103v-38h-103v-255q0 -40 10.5 -56.5t44.5 -16.5q17 0 38.5 2.5t37.5 9.5t16 19v74h-47v39z" />
    <glyph glyph-name="tsanah" unicode="&#x13c0;" horiz-adv-x="455" 
d="M239 -8q-73 0 -120.5 17t-70 67t-22.5 147q0 88 20.5 140.5t68.5 76.5t130 24q41 0 80 -8t65.5 -33.5t27.5 -76.5h-47q-3 19 -10.5 34.5t-21.5 24.5q-20 13 -47.5 17t-58.5 4q-63 0 -97 -19.5t-47 -63.5t-13 -118q0 -67 12.5 -107t35 -60t53 -26t66.5 -6q24 0 54 4
t54.5 13.5t31.5 23.5v119h-110v36h152v-158q0 -28 -28 -43.5t-71 -22t-87 -6.5z" />
    <glyph glyph-name="tsane" unicode="&#x13c1;" horiz-adv-x="512" 
d="M447 0l-131 374q-9 25 -18.5 38.5t-33.5 13.5q-29 0 -37 -27.5t-8 -98.5v-145q0 -71 -11 -104.5t-35 -43t-64 -9.5t-59.5 11.5t-25 35t-5.5 60.5h36q0 -32 11.5 -49t39.5 -17q35 0 47.5 21.5t12.5 77.5v162q0 54 3.5 90.5t23.5 55t70 18.5q35 0 54 -6t31.5 -25.5
t25.5 -58.5l130 -374h-57z" />
    <glyph glyph-name="tsani" unicode="&#x13c2;" horiz-adv-x="385" 
d="M99 0q-22 0 -37 4.5t-15 31.5v423h53v-195l33 7.5t76 7.5q51 0 79.5 -8.5t41.5 -27.5t16.5 -50.5t3.5 -78.5v-62q0 -28 -7.5 -40.5t-31.5 -12.5h-14v139q0 49 -13 70t-35 26t-50 5q-22 0 -45.5 -3.5t-39 -7.5l-15.5 -4v-224z" />
    <glyph glyph-name="tsano" unicode="&#x13c3;" horiz-adv-x="389" 
d="M83 37h26t68 0.5t92 0.5h98v-4q0 -11 -3.5 -22.5t-18.5 -11.5h-323v37l19 26t49 67t64 88.5t66 91.5t54.5 75.5t28.5 39.5h-258v7q0 9 3 18t20 9h298q-1 -23 -17 -50t-42 -62z" />
    <glyph glyph-name="tsanu" unicode="&#x13c4;" horiz-adv-x="439" 
d="M195 303h-143v39h43v22q0 41 21 67t66 29q14 1 38 1.5t47 0.5t32 -2q47 -7 62.5 -33.5t15.5 -82.5v-314q0 -17 -8 -23.5t-27 -6.5h-20q1 3 1.5 11.5t0.5 17v8.5v89q-12 0 -33 -0.5t-43.5 -0.5h-40.5t-25 1q-45 4 -66 29.5t-21 66.5v6h-43v39h143v-39h-47v-4q0 -27 14 -44
t58 -17h104v187q0 40 -16 56.5t-63 16.5q-42 0 -63 -7.5t-27.5 -21.5t-6.5 -32v-20h47v-39z" />
    <glyph glyph-name="tsanv" unicode="&#x13c5;" horiz-adv-x="708" 
d="M468 283q0 17 -7 19t-14.5 -1.5t-9.5 -4.5l-42 -27q0 -10 0.5 -21.5t0.5 -22.5q0 -88 -18 -138t-58.5 -71t-108.5 -21q-67 0 -108 19t-59 70.5t-18 148.5q0 88 18 138t59 71t108 21q58 0 95.5 -13.5t58.5 -48t27 -99.5l53 42q27 22 44 13.5t17 -25.5v-32q0 -28 8 -43.5
t43 -15.5q27 0 36.5 16t9.5 43v68h15q14 0 17 -10t3 -53q0 -51 -15 -72.5t-66 -21.5q-52 0 -70.5 13.5t-18.5 58.5zM210 32q58 0 87 20.5t39 63.5t10 108q0 70 -10 114.5t-38.5 66t-85.5 21.5q-58 0 -87 -20.5t-39 -63t-10 -108.5q0 -70 10 -114.5t39 -65.5t86 -21z" />
    <glyph glyph-name="tsaqua" unicode="&#x13c6;" horiz-adv-x="496" 
d="M254 33h38.5h56.5t51.5 0.5t22.5 1.5v-35h-391v35l170 -2v394l-170 -2v35h391v-35q-1 1 -22.5 1.5t-51.5 0.5h-56.5h-38.5v-394z" />
    <glyph glyph-name="tsaque" unicode="&#x13c7;" horiz-adv-x="578" 
d="M97 215l-3 -28t-3 -60q0 -47 21.5 -70.5t77.5 -23.5q33 0 47.5 13t17.5 39.5t3 67.5h44q0 -41 3.5 -67.5t17.5 -39.5t47 -13q23 0 44 5t37.5 23.5t26 59t9.5 112.5t-13.5 111t-36 55.5t-50.5 20t-58 3.5q-61 0 -94.5 -32t-38.5 -112h-41v21q0 76 48 119.5t127 43.5
q36 0 72.5 -4t66.5 -24t48 -66.5t18 -131.5q0 -60 -6.5 -106t-25.5 -77.5t-57 -47t-101 -12.5q-18 1 -41 7.5t-36 28.5q-15 -16 -38.5 -26t-54.5 -10q-61 0 -97 31t-36 98q-1 35 2 63.5l3 28.5h50z" />
    <glyph glyph-name="tsaqui" unicode="&#x13c8;" horiz-adv-x="518" 
d="M103 464q42 0 74.5 -20.5t64.5 -71.5q35 51 71 71.5t75 20.5q50 0 77 -23t27 -78q0 -66 -33 -88t-104 -22v34q38 0 64 15.5t26 57.5q2 28 -11 47.5t-45 19.5q-39 0 -68.5 -32.5t-51.5 -70.5q11 -19 21.5 -42.5t22.5 -49.5q17 -37 28 -77t11 -80q0 -27 -11 -46t-31 -25
q-28 -8 -65.5 -8.5t-66.5 6.5q-22 6 -35 24.5t-13 48.5q0 40 11.5 80t27.5 77q11 26 22 48.5t21 41.5q-61 101 -106 101q-21 0 -33.5 -11.5t-12.5 -31.5q0 -7 0.5 -19.5t0.5 -22.5h-45v57q0 44 26 56.5t61 12.5zM280 183q-10 24 -20 46t-20 41q-9 -19 -18.5 -41t-19.5 -46
q-13 -31 -18 -54.5t-5 -39.5q0 -52 64 -52q33 0 46.5 14t13.5 38q0 16 -5 39.5t-18 54.5z" />
    <glyph glyph-name="tsaquo" unicode="&#x13c9;" horiz-adv-x="642" 
d="M54 417v-31q0 -26 30 -26q21 0 30.5 14.5t14.5 37.5t10 48h44l48 -159l67 -224l76 259h-2q-35 0 -45 14t-10 49t10 48t44 13h86l-27 -90h14q14 0 22.5 4t8.5 12q0 20 11 31t57 12q47 1 63 -13.5t16 -60.5q0 -32 -10 -54.5t-53 -22.5v34q9 0 12.5 8.5t4 19t0.5 15.5
q0 25 -8 32t-25 7t-23.5 -5.5t-6.5 -22.5q0 -14 -12 -22t-46 -8h-35l-101 -336h-48l-119 399q-8 -39 -20.5 -57t-47.5 -18q-40 0 -53 13.5t-13 38.5v41h36zM356 399q0 -11 2 -20t14 -9h12l17 56h-30q-6 0 -10.5 -4t-4.5 -23z" />
    <glyph glyph-name="tsaquu" unicode="&#x13ca;" horiz-adv-x="649" 
d="M323 124q2 -47 19 -69t60 -22q23 0 44 5t37.5 23.5t26 59t9.5 112.5t-12.5 111.5t-33.5 56.5t-48 20.5t-57 3.5q-67 0 -101 -33t-39 -113h-41v21q0 76 48 119.5t127 43.5q36 0 72.5 -4t66.5 -24t48 -66.5t18 -131.5q0 -60 -6.5 -106t-25.5 -77.5t-57 -47t-101 -12.5
q-19 1 -44.5 9.5t-36.5 36.5q-15 -22 -40 -34t-60 -12q-75 0 -104 31t-29 98q-1 35 3.5 68.5t8.5 43.5h49q-4 -13 -8 -44.5t-4 -63.5q0 -47 16.5 -71.5t72.5 -24.5q50 0 64 30.5t14 91.5v6q0 44 23.5 64t63.5 20q79 0 79 -67v-23h-37q0 31 -6.5 44.5t-35.5 13.5
q-28 0 -35.5 -13.5t-7.5 -44.5v-29z" />
    <glyph glyph-name="tsaquv" unicode="&#x13cb;" horiz-adv-x="407" 
d="M194 33q53 0 79.5 5.5t36 18t9.5 33.5v52h42v-55q0 -38 -19.5 -58t-54 -27.5t-78.5 -7.5q-60 0 -96.5 10.5t-53 39.5t-16.5 86q0 44 21 72.5t48 30.5q-34 2 -47 32t-13 74q0 48 13 75t46 38t92 11q34 0 62 -3t59 -9q14 -3 16 -11t2 -22v-8q-25 9 -64.5 13t-77.5 4
q-30 0 -53 -6.5t-35.5 -26t-12.5 -58.5q0 -46 17 -64t66 -18h40v-40h-39q-34 0 -53.5 -5.5t-28 -24t-8.5 -57.5q0 -55 27 -73.5t74 -20.5z" />
    <glyph glyph-name="tsasa" unicode="&#x13cc;" horiz-adv-x="413" 
d="M364 464v-259q0 -55 -3.5 -94t-18 -63.5t-46 -36t-88.5 -11.5t-89 11.5t-47 37.5t-19 69t-4 105v241h53v-218h211v218h51zM208 38q43 0 65.5 10t31 41t8.5 93v24h-211v-39q0 -49 9 -77t32 -40t65 -12z" />
    <glyph glyph-name="tsas" unicode="&#x13cd;" horiz-adv-x="690" 
d="M30 135q0 64 19 93.5t51 37.5t69 8q35 0 62.5 -7t45.5 -30t22 -70h75v68h-49v39h142v-39h-46v-92q0 -49 12.5 -75.5t63.5 -26.5q31 0 51 15t30.5 56t10.5 119q0 62 -9.5 97.5t-31 52t-57 21t-88.5 4.5q-52 0 -80.5 -6.5t-40.5 -26t-14 -59.5q-6 0 -18 1t-17 1v48
q0 32 26 49.5t64.5 24.5t74.5 7q50 0 93.5 -4t76.5 -22.5t52 -61.5t19 -122q0 -40 -4 -81.5t-17.5 -77t-43 -57t-80.5 -21.5q-25 0 -53 7.5t-47.5 29.5t-19.5 64v26h-73q-1 -60 -20 -87t-49.5 -34.5t-67.5 -7.5q-38 0 -68.5 8t-48 37.5t-17.5 93.5zM250 135q0 47 -11 69.5
t-29.5 29.5t-43.5 7t-44.5 -6.5t-30.5 -29t-11 -70.5t11 -70.5t30.5 -29.5t44.5 -7t43.5 7t29.5 30t11 70z" />
    <glyph glyph-name="tsase" unicode="&#x13ce;" horiz-adv-x="371" 
d="M45 185l159 232q20 21 37 33.5t51 10.5q-1 -2 -1.5 -13t-0.5 -19v-226h48v-34h-48v-169h-51v169h-194v16zM113 203h125v187z" />
    <glyph glyph-name="tsasi" unicode="&#x13cf;" horiz-adv-x="370" 
d="M99 460v-193h95q47 0 78.5 -8t47.5 -39t16 -102q0 -59 -18 -83.5t-54.5 -29.5t-90.5 -5h-126v460h52zM162 36q47 0 72.5 4t36 21.5t10.5 56.5q0 55 -9 78t-28.5 27.5t-51.5 4.5h-93v-192h63z" />
    <glyph glyph-name="tsaso" unicode="&#x13d0;" horiz-adv-x="439" 
d="M254 291q16 0 33 7q41 16 66.5 18.5t41.5 -16.5q30 -33 27 -68t-44 -57l-23 -11l-13 24q17 7 28.5 23t-3.5 42q-8 15 -26.5 16t-39.5 -7q-13 -4 -24.5 -7.5t-22.5 -5.5v-249h-52v224q-4 -1 -7.5 -1.5t-6.5 -2.5q-40 -16 -65.5 -18.5t-42.5 16.5q-30 33 -27 68t44 57
l23 11l13 -24q-17 -7 -28.5 -23t3.5 -42q8 -15 26.5 -15.5t39.5 6.5q8 2 15 5t13 4v194h52v-168z" />
    <glyph glyph-name="tsasu" unicode="&#x13d1;" horiz-adv-x="477" 
d="M47 115q0 44 19 96.5t42 98.5q-68 19 -68 87q0 33 14 46t35.5 15t41.5 2q49 0 63 -16t7 -41t-21 -52l-4 -8q20 3 32.5 14t22.5 25.5t20 25.5q19 22 42.5 40t60.5 18q24 0 46 -4.5t36 -20t14 -48.5q0 -25 0.5 -37l0.5 -12l-40 -2l-0.5 13t-0.5 38q0 22 -18 27.5t-38 5.5
q-25 0 -41.5 -13.5t-31.5 -30.5q-14 -15 -27.5 -33.5t-33 -32t-52.5 -13.5h-14q-21 -41 -38 -88t-17 -97q0 -46 24.5 -64t64.5 -18q28 0 49 4t32.5 21.5t11.5 56.5q0 55 -9 78t-28.5 27.5t-51.5 4.5l2 39q47 0 78.5 -8t47.5 -39t16 -102q0 -59 -17.5 -83.5t-50.5 -29.5
t-80 -5q-46 0 -77.5 9t-47.5 33.5t-16 72.5zM80 397q0 -40 47 -50q22 42 23 59t-8.5 20t-21.5 3q-6 0 -15.5 -1t-17 -7.5t-7.5 -23.5z" />
    <glyph glyph-name="tsasv" unicode="&#x13d2;" horiz-adv-x="433" 
d="M216 277h53l17 -34q17 3 36 22t19 55q0 53 -19.5 72t-69.5 24q-9 1 -33.5 1.5t-52 -0.5t-47.5 -3v-414h-52v402q0 29 12.5 41.5t43.5 13.5q33 2 54 2.5t38.5 0t40.5 -1.5q58 -2 87 -15t39 -42t10 -79q0 -55 -27.5 -80t-65.5 -30l100 -212h-54z" />
    <glyph glyph-name="tsada" unicode="&#x13d3;" horiz-adv-x="294" 
d="M262 105q0 -37 -5.5 -60.5t-23 -35t-55.5 -11.5q-48 0 -73 10t-34 39t-9 84v280q0 31 3 40t25 9h25v-346q0 -35 13 -55t47 -20q29 0 40 17t11 49h36z" />
    <glyph glyph-name="tsata" unicode="&#x13d4;" horiz-adv-x="570" 
d="M282 324l44 136h51l-70 -212l57 -171l123 383h51l-151 -460h-53l-53 167l-55 -167h-53l-147 460h51l126 -383l53 166l-69 217h51z" />
    <glyph glyph-name="tsade" unicode="&#x13d5;" horiz-adv-x="529" 
d="M339 354q0 43 -22.5 56.5t-69.5 13.5q-36 0 -68.5 -4t-52.5 -19t-20 -49q0 -32 28.5 -50.5t62.5 -29.5l43 -14h230v-39h-118q27 -12 45.5 -34t18.5 -72q0 -48 -23.5 -72.5t-66 -33.5t-99.5 -11q-40 -1 -81 3.5t-60 9.5q-16 5 -24.5 17.5t-8.5 40.5q33 -15 79.5 -23.5
t93.5 -8.5q18 0 41.5 2.5t46 10t37.5 23.5t15 44q0 24 -20.5 44.5t-47.5 29.5l-144 50q-47 17 -72.5 42t-25.5 70q0 41 17 63.5t45.5 32.5t63 12.5t69.5 2.5q30 0 61 -5t52 -21.5t21 -50.5q0 -16 -3 -24h88v-39h-131v32z" />
    <glyph glyph-name="tsate" unicode="&#x13d6;" horiz-adv-x="414" 
d="M18 460h139v-310q0 -51 6 -75t19.5 -31.5t37.5 -7.5q47 0 72.5 4t36 21.5t10.5 56.5q0 55 -9 78t-28.5 27.5t-51.5 4.5h-62l-2 39h66q47 0 78.5 -8t47.5 -39t16 -102q0 -59 -18 -83.5t-54.5 -29.5t-90.5 -5q-47 0 -73 5.5t-37.5 22.5t-13.5 51.5t-2 93.5v248h-87v39z" />
    <glyph glyph-name="tsa_di" unicode="&#x13d7;" horiz-adv-x="501" 
d="M100 105v-19q0 -15 4 -32t29 -17h34q34 0 53.5 27.5t31.5 55.5l60 158v182h13q22 0 30.5 -9t8.5 -28v-423h-52v169q-9 -22 -16.5 -40t-11.5 -26q-12 -25 -26 -49.5t-35 -40.5t-55 -16h-35q-37 0 -52 15t-18 35.5t-3 38.5v19h40z" />
    <glyph glyph-name="tsati" unicode="&#x13d8;" horiz-adv-x="364" 
d="M70 105v-19q0 -15 4 -32t29 -17h34q34 0 53.5 27.5t31.5 55.5l60 158v142h-221v40h234q22 0 30.5 -13t8.5 -32v-415h-52v169q-9 -22 -16.5 -40t-11.5 -26q-12 -25 -26 -49.5t-35 -40.5t-55 -16h-35q-37 0 -52 15t-18 35.5t-3 38.5v19h40z" />
    <glyph glyph-name="tsado" unicode="&#x13d9;" horiz-adv-x="407" 
d="M222 77l138 383h49l-169 -460h-45l-164 460h50z" />
    <glyph glyph-name="tsadu" unicode="&#x13da;" horiz-adv-x="455" 
d="M226 35q18 0 41.5 2.5t46 10t37.5 23.5t15 44q0 24 -20.5 44.5t-47.5 29.5l-144 50q-47 17 -72.5 42t-25.5 70q0 41 17 63.5t45.5 32.5t63 12.5t69.5 2.5q23 0 49.5 -2t51 -6.5t40 -12t15.5 -17.5v-33q-9 6 -35.5 14t-60 13.5t-64.5 5.5q-36 0 -68.5 -4t-52.5 -19
t-20 -49q0 -32 28.5 -50.5t62.5 -29.5l115 -37q27 -11 51 -21.5t38.5 -32.5t14.5 -68q0 -48 -23.5 -72.5t-66 -33.5t-99.5 -11q-40 -1 -81 3.5t-60 9.5q-16 5 -24.5 17.5t-8.5 40.5q33 -15 79.5 -23.5t93.5 -8.5z" />
    <glyph glyph-name="tsadv" unicode="&#x13db;" horiz-adv-x="593" 
d="M314 316v36q-1 28 -14 46.5t-42 18.5q-25 0 -38 -3.5t-21 -13t-18 -28.5q11 -24 21.5 -50.5t22.5 -57.5q17 -43 28 -96t11 -93q0 -27 -11 -46t-31 -25q-28 -8 -65.5 -8.5t-66.5 6.5q-22 6 -35 24.5t-13 48.5q0 40 11.5 93t27.5 96q15 39 29.5 70t27.5 57q16 32 32.5 46.5
t37 18.5t49.5 4q67 0 92 -51q11 21 34 34t68 13q50 0 74 -16t33 -49q5 -18 6 -39.5t1 -35.5q-1 -11 -4.5 -25.5t-12 -25t-25.5 -10.5h-30v26q11 -1 20 9t9 44q0 32 -16 57t-57 25t-64.5 -22t-23.5 -78h-47zM192 207q-19 57 -39 102q-19 -45 -39 -102q-13 -37 -18 -69.5
t-5 -48.5q0 -52 64 -52q33 0 46.5 14t13.5 38q0 16 -5 48.5t-18 69.5z" />
    <glyph glyph-name="tsadla" unicode="&#x13dc;" horiz-adv-x="519" 
d="M310 283q10 -10 25.5 -23t32.5 -27q13 -12 32.5 -27t39.5 -32.5t33.5 -36.5t13.5 -39q0 -16 -1 -33t-9.5 -31t-28.5 -23t-59 -9t-59 9t-28.5 23t-9.5 31t-1 33q0 29 16.5 58t31.5 49q-21 18 -37 32.5t-27 25.5q-12 -12 -27.5 -25.5t-32.5 -27.5l-11 -9q14 -20 29.5 -47.5
t15.5 -55.5q0 -16 -1 -33t-9.5 -31t-28.5 -23t-59 -9t-59 9t-28.5 23t-9.5 31t-1 33q0 21 14.5 40t36.5 37t45 34t40 31q17 14 30.5 25t21.5 18q-2 2 -5 4.5t-5 5.5q-15 16 -33.5 41t-18.5 50q0 18 3 36t23.5 30t71.5 12q52 0 72 -12t23 -30t3 -36q0 -25 -19 -50t-33 -41z
M442 93q0 16 -13 31.5t-30 29t-30 24.5q-12 -16 -25 -38.5t-13 -41.5q0 -12 3 -26.5t16.5 -24.5t43.5 -10q24 0 34 9t12 22t2 25zM209 98q0 18 -12.5 40t-24.5 38q-25 -20 -49.5 -43t-24.5 -40q0 -12 2 -25t12 -22t34 -9q31 0 44 10t16 24.5t3 26.5zM276 297l9.5 9.5
l5.5 5.5q12 14 28 35t16 37q0 10 -2 20.5t-13.5 17.5t-42.5 7q-30 0 -42 -7t-14 -17.5t-2 -20.5q0 -17 15.5 -37.5t28.5 -34.5z" />
    <glyph glyph-name="tsatla" unicode="&#x13dd;" horiz-adv-x="335" 
d="M225 355q0 41 -17.5 54t-50.5 12t-49.5 -17.5t-16.5 -57.5v-306h213v-40h-238q-22 0 -25 9t-3 40v280q0 76 29.5 104.5t87.5 28.5q65 0 92.5 -25.5t27.5 -81.5h-50z" />
    <glyph glyph-name="tsatle" unicode="&#x13de;" horiz-adv-x="327" 
d="M96 459v-419h213v-40h-238q-22 0 -25 9t-3 40v410h53z" />
    <glyph glyph-name="tsatli" unicode="&#x13df;" horiz-adv-x="492" 
d="M442 460v-158h-42v30q0 20 -6 39.5t-29 33.5q-20 13 -47.5 17t-58.5 4q-63 0 -97 -19.5t-47 -63.5t-13 -118q0 -66 11 -110t45.5 -66t104.5 -22q27 0 64.5 6t70.5 20t48 38v-42q-20 -27 -71 -42t-110 -15q-73 0 -120.5 17t-70 67t-22.5 147q0 88 20.5 140.5t68.5 76.5
t130 24q94 0 129 -35v31h42z" />
    <glyph glyph-name="tsatlo" unicode="&#x13e0;" horiz-adv-x="497" 
d="M112 159q-29 0 -51 5.5t-34 24t-12 57.5q0 37 13.5 54t36.5 22.5t52 5.5q28 0 50 -5.5t35 -23t13 -53.5v-47h137v261h51v-259v-2h73v-40h-73q0 -57 -8 -93t-32.5 -53t-77.5 -17q-45 0 -69 11t-34 32.5t-11.5 51.5t-1.5 68h-57zM285 34q33 0 47 9t17 36t3 80h-137
q0 -47 3.5 -74.5t18 -39t48.5 -11.5zM58 251q0 -35 15 -43t40 -8q15 0 31 -0.5t25 -0.5v52q0 32 -14 40t-39 8q-24 0 -41 -8t-17 -40z" />
    <glyph glyph-name="tsatlu" unicode="&#x13e1;" horiz-adv-x="577" 
d="M14 344h62v51q0 44 26 56.5t61 12.5q42 0 74.5 -20.5t64.5 -71.5q35 51 71 71.5t75 20.5q50 0 77 -23t27 -78q0 -66 -33 -88t-104 -22v34q38 0 64 15.5t26 57.5q2 28 -11 47.5t-45 19.5q-39 0 -68.5 -32.5t-51.5 -70.5q11 -19 21.5 -42.5t22.5 -49.5q17 -37 28 -77
t11 -80q0 -27 -11 -46t-31 -25q-28 -8 -65.5 -8.5t-66.5 6.5q-22 6 -35 24.5t-13 48.5q0 40 11.5 80t27.5 77q11 26 22 48.5t21 41.5q-61 101 -106 101q-21 0 -33.5 -11.5t-12.5 -31.5q0 -7 0.5 -17t0.5 -19h64v-40h-171v40zM340 183q-10 24 -20 46t-20 41q-9 -19 -18.5 -41
t-19.5 -46q-13 -31 -18 -54.5t-5 -39.5q0 -52 64 -52q33 0 46.5 14t13.5 38q0 16 -5 39.5t-18 54.5z" />
    <glyph glyph-name="tsatlv" unicode="&#x13e2;" horiz-adv-x="423" 
d="M289 190q-23 -2 -54 -2.5t-62 0t-54 1.5v-189h-52v402q0 33 11.5 43t36.5 12q12 1 36.5 2t53 1t55 -0.5t43.5 -1.5q39 -2 57.5 -17.5t24.5 -44.5t6 -73q0 -64 -20.5 -95.5t-81.5 -37.5zM119 232h136q45 0 64.5 18.5t19.5 71.5t-10 72t-37 22q-24 2 -54 2t-57 -0.5
t-44.5 -1l-17.5 -0.5v-184z" />
    <glyph glyph-name="tsatsa" unicode="&#x13e3;" horiz-adv-x="477" 
d="M473 315h-139v35h58q-1 13 -6.5 29t-20.5 26q-20 13 -47.5 17t-58.5 4q-63 0 -97 -19.5t-47 -63.5t-13 -118q0 -66 11 -110t45.5 -66t104.5 -22q27 0 64.5 6t70.5 20t48 38v-42q-20 -27 -71 -42t-110 -15q-73 0 -120.5 17t-70 67t-22.5 147q0 88 20.5 140.5t68.5 76.5
t130 24q85 0 123 -26.5t41 -87.5h38v-35z" />
    <glyph glyph-name="tsatse" unicode="&#x13e4;" horiz-adv-x="420" 
d="M159 86l195 374h49l-244 -460h-53v425h-86v35h139v-374z" />
    <glyph glyph-name="tsatsi" unicode="&#x13e5;" horiz-adv-x="447" 
d="M354 320q-25 0 -51 -21q-7 -5 -15 -11.5t-23 -19.5q38 -10 56 -33t23.5 -62.5t5.5 -101.5v-21q0 -25 -3 -35.5t-11.5 -12.5t-26.5 -2h-12v115q0 51 -16.5 79.5t-56.5 38.5l-124 -105v-128h-53v462q0 43 34 43h21q-1 -3 -1.5 -17t-0.5 -27v-13v-268l181 155q20 16 38.5 24
t40.5 8q35 0 52.5 -15.5t17.5 -59.5v-43h-45v28q0 20 -6 31.5t-25 11.5z" />
    <glyph glyph-name="tsatso" unicode="&#x13e6;" horiz-adv-x="378" 
d="M111 247q11 7 26 24l142 168q20 23 39.5 24.5t36.5 -3.5l-194 -223l200 -237q-7 -4 -19 -4q-24 0 -38.5 6t-26.5 20t-31 36l-96 119q-10 11 -19 20t-20 9v-206h-52v409q0 20 5.5 35.5t28.5 15.5h18v-213z" />
    <glyph glyph-name="tsatsu" unicode="&#x13e7;" horiz-adv-x="358" 
d="M29 118q0 71 16 102t48 39t78 8h95v193h52v-287q0 -59 -2 -93.5t-13.5 -51.5t-37.5 -22.5t-73 -5.5q-54 0 -90 5t-54.5 29.5t-18.5 83.5zM203 36q24 0 38 7.5t19.5 31.5t5.5 75v78h-93q-31 0 -51 -4.5t-29 -27.5t-9 -78q0 -39 10.5 -56.5t36.5 -21.5t72 -4z" />
    <glyph glyph-name="tsatsv" unicode="&#x13e8;" horiz-adv-x="617" 
d="M381 332q0 20 -6 39.5t-29 33.5q-20 13 -47.5 17t-58.5 4q-63 0 -97 -19.5t-47 -63.5t-13 -118t13 -117t47 -61t97 -18q31 0 58.5 4t47.5 17q23 14 29 33.5t6 39.5v38l81 -45l59 48l76 -57l-26 -30l-9 7t-21 17t-22 18l-59 -48l-42 28q-6 -61 -45.5 -84.5t-120.5 -23.5
q-82 0 -130 21.5t-68.5 72.5t-20.5 138q0 88 20.5 140.5t68.5 76.5t130 24q81 0 120.5 -23.5t45.5 -84.5l42 28l59 -48q10 8 22 18t21 17l9 7l26 -30l-76 -57l-59 48l-81 -45v38z" />
    <glyph glyph-name="tsawa" unicode="&#x13e9;" horiz-adv-x="603" 
d="M309 198h171v-40h-55v-43q0 -41 14.5 -60t55.5 -19t51.5 13t10.5 32h30v-12q0 -39 -16.5 -52t-33.5 -15q-10 -1 -27.5 -1.5t-34.5 1t-28 4.5q-24 7 -36 25q-23 -22 -72 -30.5t-100 -8.5q-73 0 -120.5 17t-70 67t-22.5 147q0 88 20.5 140.5t68.5 76.5t130 24q41 0 80 -8
t65.5 -33.5t27.5 -76.5h-47q-3 19 -10.5 34.5t-21.5 24.5q-20 13 -47.5 17t-58.5 4q-63 0 -97 -19.5t-47 -63.5t-13 -118q0 -67 12.5 -107t35 -60t53 -26t66.5 -6q24 0 54 4t54.5 13.5t31.5 23.5v91h-74v40z" />
    <glyph glyph-name="tsawe" unicode="&#x13ea;" horiz-adv-x="682" 
d="M635 381q0 -31 -11 -74.5t-30 -92.5t-44.5 -95.5t-55.5 -82.5q-20 -25 -39 -31t-59 -5q-26 1 -43 1.5t-29.5 5.5t-27.5 20q-10 10 -20.5 22t-19.5 26q-31 -37 -65.5 -60t-72.5 -23q-49 0 -76.5 23t-27.5 78q0 66 33 88t104 22v-34q-37 0 -63.5 -15.5t-26.5 -57.5
q-1 -28 11.5 -47.5t44.5 -19.5q30 0 60 23t56 59q-24 43 -41.5 91.5t-27.5 95.5t-10 83q0 27 11 46t31 25q28 8 66 9t66 -7q22 -6 35 -24.5t13 -48.5q0 -36 -11 -81.5t-31 -92.5t-47 -89q16 -27 32 -46q17 -19 33.5 -24.5t43.5 -6.5t39.5 4t25.5 21q22 28 43.5 68.5
t38.5 83.5q-52 19 -80 47.5t-39 59.5t-11 56q0 27 11 46t31 25q28 8 66 9t66 -7q22 -6 35 -24.5t13 -48.5zM203 367q0 -37 17 -95t44 -112q28 51 45 107.5t18 99.5q0 52 -64 52q-33 0 -46.5 -14t-13.5 -38zM462 367q0 -10 9.5 -30t31.5 -40.5t58 -32.5q11 32 18 59.5t7 43.5
q0 52 -64 52q-33 0 -46.5 -14t-13.5 -38z" />
    <glyph glyph-name="tsawi" unicode="&#x13eb;" horiz-adv-x="425" 
d="M211 -5q-67 0 -108 19t-59 70.5t-18 148.5q0 88 18 138t59 71t108 21q68 0 108.5 -19t58.5 -70.5t18 -148.5q0 -88 -18 -138t-58.5 -71t-108.5 -21zM210 32q73 0 101 33t33 101h-35q-48 0 -78 18.5t-42 38.5q-8 15 -29.5 28.5t-43.5 13.5h-40v-31q0 -70 10 -114.5
t39 -65.5t86 -21zM212 426q-70 0 -98 -29.5t-35 -91.5h35q48 0 73.5 -15.5t38.5 -35.5q11 -18 30.5 -33t46.5 -15h43v18q0 70 -10 114.5t-38.5 66t-85.5 21.5z" />
    <glyph glyph-name="tsawo" unicode="&#x13ec;" horiz-adv-x="539" 
d="M252 255q0 -24 -20 -44.5t-49 -36.5t-58 -26.5t-48 -14.5q5 -33 19 -54.5t45.5 -31.5t85.5 -10h108q32 0 61.5 17.5t48.5 57t19 105.5v52q0 82 -17 119.5t-61 37.5q-26 0 -47.5 -8.5t-35.5 -17.5t-16 -13v40q4 8 12.5 17t28.5 15.5t58 6.5q57 0 83.5 -17t34 -59.5
t7.5 -120.5v-52q0 -89 -22.5 -136t-62 -64t-91.5 -17h-108q-79 0 -123 14.5t-61 53.5t-17 112v107q0 50 19 74.5t46 32.5t50 8q24 0 50 -5t43.5 -22t17.5 -53v-67zM74 174q16 4 37.5 12.5t42.5 21t35 28.5t14 34v52q0 26 -19.5 33t-42.5 7q-16 0 -31 -5t-25.5 -21t-10.5 -49
v-88v-25z" />
    <glyph glyph-name="tsawu" unicode="&#x13ed;" horiz-adv-x="407" 
d="M117 29q30 0 60 23t56 59q-24 43 -41.5 91.5t-27.5 95.5t-10 83q0 27 11 46t31 25q28 8 66 9t66 -7q22 -6 35 -24.5t13 -48.5q0 -40 -13.5 -91t-38 -103.5t-57 -96.5t-70.5 -71t-79 -27q-49 0 -76.5 19.5t-27.5 64.5q0 55 33 73t104 18v-28q-37 0 -63.5 -12.5
t-26.5 -47.5q-1 -23 11.5 -36.5t44.5 -13.5zM203 367q0 -37 17 -94.5t44 -112.5q28 51 45 107.5t18 99.5q0 52 -64 52q-33 0 -46.5 -14t-13.5 -38z" />
    <glyph glyph-name="tsawv" unicode="&#x13ee;" horiz-adv-x="380" 
d="M317 454q16 -4 20.5 -15t1.5 -30q-22 5 -65.5 9.5t-94.5 3.5q-37 -1 -56 -17t-25 -60q-1 -19 -2.5 -44.5t-1.5 -37.5q21 6 58 11t74 3q23 0 45 -3t40.5 -15t29.5 -37.5t11 -71.5q0 -63 -14 -96.5t-48.5 -46t-95.5 -12.5q-53 0 -83.5 8t-45 31.5t-18.5 68.5t-4 118
q0 87 6 136t23 71t49 28q27 6 64.5 6.5t73.5 -1.5t58 -7zM94 228v-57t1 -47q3 -40 14 -60t32 -26.5t53 -6.5q31 0 55 7t38.5 30t14.5 70q0 55 -14.5 75t-43.5 24q-36 5 -79.5 0t-70.5 -9z" />
    <glyph glyph-name="tsaya" unicode="&#x13ef;" horiz-adv-x="575" 
d="M148 177l67 52l49 -48l54 48l49 -48q13 12 28.5 27l15.5 15l22 -30l-64 -57l-50 47l-24 -21v-29q1 -51 12 -75.5t56 -24.5q23 0 44 5t37.5 23.5t26 59t9.5 112.5t-13.5 111t-36 55.5t-50.5 20t-58 3.5q-61 0 -94.5 -32t-38.5 -112h-41v21q0 76 48 119.5t127 43.5
q36 0 72.5 -4t66.5 -24t48 -66.5t18 -131.5q0 -60 -6.5 -106t-25.5 -77.5t-57 -47t-101 -12.5q-18 1 -41 7.5t-36 28.5q-15 -16 -38.5 -26t-54.5 -10q-61 0 -97 31t-36 98q-1 35 2 63.5l3 28.5h50l-3 -28t-3 -60q0 -47 21.5 -70.5t77.5 -23.5q43 0 55 22.5t13 68.5v26
l-35 34l-68 -45v38z" />
    <glyph glyph-name="tsaye" unicode="&#x13f0;" horiz-adv-x="452" 
d="M25 50l49 -6l43 358q4 29 12 40t28 14q16 2 37.5 4t61.5 2q60 0 93 -8t46.5 -34t13.5 -80q0 -19 -5.5 -40.5t-16 -37t-25.5 -18.5q24 -3 36.5 -20.5t17 -42.5t4.5 -52q0 -60 -18.5 -89t-59 -38t-106.5 -9q-29 0 -61.5 1.5t-61.5 2.5l-4 -52h-47l6 55q-16 2 -31 3.5
t-25 3.5zM293 221q-16 2 -41 3.5t-49.5 3t-41 2.5l-16.5 1l-26 -191q8 -3 44 -4.5t73 -1.5q24 0 47.5 1t42.5 8.5t30.5 27.5t11.5 58t-10 57t-27 26t-38 9zM151 274l144 -12q27 0 45 13t18 62q0 42 -9 59t-33.5 20.5t-72.5 3.5q-38 0 -55.5 -3t-20.5 -26z" />
    <glyph glyph-name="tsayi" unicode="&#x13f1;" horiz-adv-x="581" 
d="M294 460h172v-39h-61v-71q31 0 56.5 -5t44.5 -21.5t29.5 -49.5t10.5 -89q0 -61 -7.5 -97t-23 -55t-38.5 -28q-18 -7 -42 -8t-39 0q-23 2 -42.5 7.5t-31 22t-11.5 51.5q0 36 15.5 56.5t55.5 20.5q64 0 64 -43v-11h-30q0 10 -5.5 17.5t-28.5 7.5q-19 0 -27 -11t-8 -37
q0 -47 71 -47q23 0 39 12t25 44.5t9 94.5q0 49 -6.5 75.5t-20 37t-35 12.5t-52.5 2q-40 0 -64 -10.5t-43 -49.5l-120 -249l-80 124h-50v40h78l46 -71l92 192q20 41 46.5 52.5t75.5 12.5v71h-64v39z" />
    <glyph glyph-name="tsayo" unicode="&#x13f2;" horiz-adv-x="359" 
d="M92 271q13 5 35 7.5t46 2.5q59 0 92.5 -13t47 -43.5t13.5 -83.5v-89q0 -28 -12 -40.5t-30 -12.5h-10v126q0 49 -12 74t-35 34t-56 9q-10 0 -27 -1.5t-31.5 -3.5t-20.5 -6q0 -67 -0.5 -118.5t-0.5 -112.5q-16 0 -33.5 4.5t-17.5 31.5v300q0 57 15.5 84.5t45 36t70.5 8.5
q63 0 91 -15.5t35 -42.5t7 -61h-45q0 23 -5 41.5t-21.5 29t-53.5 10.5q-51 0 -69 -23.5t-18 -70.5v-62z" />
    <glyph glyph-name="tsayu" unicode="&#x13f3;" horiz-adv-x="624" 
d="M309 198h171v-40h-55v-94q0 -28 -28 -43.5t-71 -22t-87 -6.5q-73 0 -120.5 17t-70 67t-22.5 147q0 88 20.5 140.5t68.5 76.5t130 24q34 0 67 -5.5t59 -21t38 -47.5l70 46l59 -48q10 8 22 18t21 17l9 7l26 -30l-76 -57l-59 48l-63 -45h-47q-3 19 -10.5 34.5t-21.5 24.5
q-20 13 -47.5 17t-58.5 4q-63 0 -97 -19.5t-47 -63.5t-13 -118q0 -67 12.5 -107t35 -60t53 -26t66.5 -6q24 0 54 4t54.5 13.5t31.5 23.5v91h-74v40z" />
    <glyph glyph-name="tsayv" unicode="&#x13f4;" horiz-adv-x="428" 
d="M37 402q0 29 11.5 41.5t31.5 13.5q28 2 59.5 3.5t59.5 1.5q73 0 112 -8t53.5 -34t14.5 -80q0 -19 -5.5 -40.5t-16 -37t-25.5 -18.5q24 -3 36.5 -20.5t17 -42.5t4.5 -52q0 -60 -18.5 -89t-59 -38t-106.5 -9q-43 0 -90.5 2t-78.5 5v402zM274 217q-22 0 -56 0.5t-69 0.5h-60
v-178q8 -3 44 -4.5t73 -1.5q24 0 47.5 1t42.5 8.5t30.5 27.5t11.5 58q0 56 -16 72t-48 16zM89 262h176q27 0 45 13t18 62q0 42 -10 59t-40.5 20.5t-93.5 3.5q-22 0 -42.5 -1t-36.5 -3q-7 -1 -11.5 -5t-4.5 -20v-129z" />
    <glyph glyph-name="Wgrave" unicode="&#x1e80;" horiz-adv-x="708" 
d="M189 0q-28 0 -47 5.5t-29 23t-16 52.5l-55 379h72l49 -352q5 -27 13 -36t30 -9h29l86 397h75l91 -397h31q17 0 26 7t12 24l45 366h57l-52 -383q-4 -35 -16 -51.5t-33 -21t-54 -4.5h-64l-76 338l-8 36l-7 -37l-72 -337h-87zM370 521l-104 68l36 27l102 -95h-34z" />
    <glyph glyph-name="wgrave" unicode="&#x1e81;" horiz-adv-x="675" 
d="M202 -3q-52 0 -85.5 8.5t-49.5 36t-16 83.5v237q0 22 5 29.5t23 7.5h42v-277q0 -51 21.5 -67t68.5 -16q49 0 70.5 17t21.5 51l-1 292h71v-293q0 -33 21.5 -50t70.5 -17q47 0 68.5 16t21.5 67v277h40q20 0 24.5 -7t4.5 -30v-237q0 -55 -16 -82.5t-49.5 -36.5t-87.5 -9
q-56 0 -93.5 17.5t-45.5 64.5h12q-6 -31 -23.5 -49.5t-47 -25.5t-71.5 -7zM337 460l-115 86l36 27l113 -113h-34z" />
    <glyph glyph-name="Wacute" unicode="&#x1e82;" horiz-adv-x="708" 
d="M189 0q-28 0 -47 5.5t-29 23t-16 52.5l-55 379h72l49 -352q5 -27 13 -36t30 -9h29l86 397h75l91 -397h31q17 0 26 7t12 24l45 366h57l-52 -383q-4 -35 -16 -51.5t-33 -21t-54 -4.5h-64l-76 338l-8 36l-7 -37l-72 -337h-87zM328 521l102 95l36 -27l-105 -68h-33z" />
    <glyph glyph-name="wacute" unicode="&#x1e83;" horiz-adv-x="675" 
d="M202 -3q-52 0 -85.5 8.5t-49.5 36t-16 83.5v237q0 22 5 29.5t23 7.5h42v-277q0 -51 21.5 -67t68.5 -16q49 0 70.5 17t21.5 51l-1 292h71v-293q0 -33 21.5 -50t70.5 -17q47 0 68.5 16t21.5 67v277h40q20 0 24.5 -7t4.5 -30v-237q0 -55 -16 -82.5t-49.5 -36.5t-87.5 -9
q-56 0 -93.5 17.5t-45.5 64.5h12q-6 -31 -23.5 -49.5t-47 -25.5t-71.5 -7zM312 460l112 113l37 -27l-116 -86h-33z" />
    <glyph glyph-name="Wdieresis" unicode="&#x1e84;" horiz-adv-x="708" 
d="M189 0q-28 0 -47 5.5t-29 23t-16 52.5l-55 379h72l49 -352q5 -27 13 -36t30 -9h29l86 397h75l91 -397h31q17 0 26 7t12 24l45 366h57l-52 -383q-4 -35 -16 -51.5t-33 -21t-54 -4.5h-64l-76 338l-8 36l-7 -37l-72 -337h-87zM430 520q-13 0 -23.5 4.5t-10.5 23.5
q0 18 11 21.5t23 3.5q13 0 23.5 -4t10.5 -21q0 -19 -9.5 -23.5t-24.5 -4.5zM290 520q-14 0 -24 4.5t-10 23.5q0 18 10.5 21.5t23.5 3.5t23.5 -4t10.5 -21q0 -18 -10 -23t-24 -5z" />
    <glyph glyph-name="wdieresis" unicode="&#x1e85;" horiz-adv-x="675" 
d="M202 -3q-52 0 -85.5 8.5t-49.5 36t-16 83.5v237q0 22 5 29.5t23 7.5h42v-277q0 -51 21.5 -67t68.5 -16q49 0 70.5 17t21.5 51l-1 292h71v-293q0 -33 21.5 -50t70.5 -17q47 0 68.5 16t21.5 67v277h40q20 0 24.5 -7t4.5 -30v-237q0 -55 -16 -82.5t-49.5 -36.5t-87.5 -9
q-56 0 -93.5 17.5t-45.5 64.5h12q-6 -31 -23.5 -49.5t-47 -25.5t-71.5 -7zM408 459q-13 0 -23.5 4.5t-10.5 23.5q0 18 11 21.5t23 3.5q13 0 23.5 -4t10.5 -21q0 -19 -9.5 -23.5t-24.5 -4.5zM268 459q-14 0 -24 4.5t-10 23.5q0 18 10.5 21.5t23.5 3.5t23.5 -4t10.5 -21
q0 -18 -10 -23t-24 -5z" />
    <glyph glyph-name="uni1E9E" unicode="&#x1e9e;" horiz-adv-x="662" 
d="M120 -28v78v68.5v73v90.5v122q0 30 17.5 50t46.5 31.5t65.5 16.5t74.5 5q41 0 80 -4t70 -14.5t47.5 -31t13.5 -52.5q0 -10 -7 -17.5t-16 -12t-17.5 -6.5t-11.5 -2q-27 -7 -57.5 -15t-58 -19t-45 -25.5t-17.5 -34.5q0 -32 26 -39.5t67 -7.5h33h24q37 0 63 -8.5t40.5 -31.5
t14.5 -66q0 -52 -24.5 -79t-61.5 -36.5t-76 -9.5q-19 0 -46 0.5t-54.5 4t-48 10.5t-26.5 20l-3 27q16 -11 44 -17t57.5 -7.5t51.5 -1.5q33 0 61 6t44.5 24.5t16.5 55.5q0 42 -21 54t-62 12h-22h-38q-34 0 -63.5 5t-48 22t-18.5 52q0 29 21 50t54.5 37t72.5 28t75 21
q3 25 -10.5 41t-35.5 24t-45.5 10.5t-41.5 2.5q-19 0 -43 -4t-45 -13.5t-34.5 -27.5t-13.5 -47v-412h-69z" />
    <glyph glyph-name="uni1EA0" unicode="&#x1ea0;" horiz-adv-x="514" 
d="M17 0l133 393q12 34 33 52.5t72 18.5q46 0 68 -17t35 -54l136 -393h-83l-43 127h-250l-41 -127h-60zM131 162h223l-66 201q-5 15 -13 26.5t-32 11.5q-27 0 -35.5 -12t-12.5 -26zM256 -128q-10 0 -19 1.5t-15 7.5t-6 19q0 19 12 24t28 5q17 0 28 -4.5t11 -24.5
q0 -13 -5.5 -19t-14 -7.5t-19.5 -1.5z" />
    <glyph glyph-name="uni1EA1" unicode="&#x1ea1;" horiz-adv-x="483" 
d="M230 -7q-59 0 -96 6t-56.5 20.5t-27 38.5t-7.5 59q0 51 12 78t42 37t80 10q25 0 54.5 -1.5t57 -3t48 -3.5t27.5 -5q0 46 -8 73t-24.5 40t-41 17t-56.5 4q-33 0 -66.5 -2.5t-61.5 -8t-43 -14.5v15q0 21 12.5 29.5t28.5 11.5q19 5 55.5 8t76.5 2q51 0 87.5 -5t60.5 -21.5
t36 -49.5t12 -90v-206q-6 -20 -53 -29.5t-149 -9.5zM230 27q46 0 73.5 3t42 8t18.5 13v149q-9 3 -33.5 6t-51.5 5.5t-46 2.5q-43 0 -69.5 -5t-38 -25t-11.5 -62q0 -33 8 -54t32.5 -31t75.5 -10zM237 -128q-10 0 -19 1.5t-15 7.5t-6 19q0 19 12 24t28 5q17 0 28 -4.5
t11 -24.5q0 -13 -5.5 -19t-14 -7.5t-19.5 -1.5z" />
    <glyph glyph-name="uni1EA2" unicode="&#x1ea2;" horiz-adv-x="514" 
d="M17 0l133 393q12 34 33 52.5t72 18.5q46 0 68 -17t35 -54l136 -393h-83l-43 127h-250l-41 -127h-60zM131 162h223l-66 201q-5 15 -13 26.5t-32 11.5q-27 0 -35.5 -12t-12.5 -26zM240 521v10q0 11 7 15.5t16 7.5t15.5 7.5t6.5 15.5v4q0 17 -7 24t-22 7q-22 0 -27 -24
l-29 5q3 21 17.5 32.5t41.5 11.5q31 0 46.5 -11.5t15.5 -42.5v-3q0 -17 -7 -24.5t-16.5 -10.5t-16.5 -7t-7 -13v-4h-34z" />
    <glyph glyph-name="uni1EA3" unicode="&#x1ea3;" horiz-adv-x="483" 
d="M230 -7q-59 0 -96 6t-56.5 20.5t-27 38.5t-7.5 59q0 51 12 78t42 37t80 10q25 0 54.5 -1.5t57 -3t48 -3.5t27.5 -5q0 46 -8 73t-24.5 40t-41 17t-56.5 4q-33 0 -66.5 -2.5t-61.5 -8t-43 -14.5v15q0 21 12.5 29.5t28.5 11.5q19 5 55.5 8t76.5 2q51 0 87.5 -5t60.5 -21.5
t36 -49.5t12 -90v-206q-6 -20 -53 -29.5t-149 -9.5zM230 27q46 0 73.5 3t42 8t18.5 13v149q-9 3 -33.5 6t-51.5 5.5t-46 2.5q-43 0 -69.5 -5t-38 -25t-11.5 -62q0 -33 8 -54t32.5 -31t75.5 -10zM225 456v11q0 11 10.5 17t20.5 14t10 22v5q0 18 -5.5 24.5t-24.5 6.5
q-17 0 -22.5 -7.5t-7.5 -17.5l-27 6q6 45 60 45q33 0 49 -11t16 -44v-3q0 -20 -12 -30t-23.5 -16t-11.5 -17v-5h-32z" />
    </font>
</defs>
</svg>
