<?xml version="1.0" standalone="no"?>
<!DOCTYPE svg PUBLIC "-//W3C//DTD SVG 1.1//EN" "http://www.w3.org/Graphics/SVG/1.1/DTD/svg11.dtd" >
<svg xmlns="http://www.w3.org/2000/svg" xmlns:xlink="http://www.w3.org/1999/xlink" version="1.1">
<metadata>
Created by FontForge 20170731 at Fri Oct  8 07:58:22 2021
 By Aleksey,,,
Copyright 2011 The Genos Project Authors (https://github.com/googlefonts/genos)
</metadata>
<defs>
<font id="Genos-ThinItalic" horiz-adv-x="0" >
  <font-face 
    font-family="Genos Thin"
    font-weight="250"
    font-style="italic"
    font-stretch="normal"
    units-per-em="1000"
    panose-1="0 0 0 0 0 0 0 0 0 0"
    ascent="800"
    descent="-200"
    x-height="399"
    cap-height="460"
    bbox="-114 -186 1059.05 729"
    underline-thickness="50"
    underline-position="-175"
    slope="-8"
    unicode-range="U+0020-FB06"
  />
<missing-glyph horiz-adv-x="244" 
 />
    <glyph glyph-name="fi" unicode="fi" horiz-adv-x="448" 
d="M56 352h31l10 71q5 33 19 57.5t54 24.5q23 0 39.5 -1.5t26 -3.5l9.5 -2l-2 -16l-4.5 1t-12 2.5t-17 2.5t-20.5 1q-40 0 -53.5 -17t-18.5 -55l-9 -65h216l-2 -16h-216l-47 -336h-9q-7 0 -9 3t-1 13l45 320h-32zM345 352q-7 -52 -12.5 -91.5t-11 -79.5t-13.5 -92
q-5 -40 0 -58.5t31 -18.5q5 0 19 1.5t18 3.5l-2 -15q-5 -1 -23.5 -3t-25.5 -2q-16 0 -25 5t-13 14.5t-4.5 22.5t1 28t3.5 32q8 50 13 88.5t10.5 77l12.5 87.5h11h11zM333 479q2 11 7.5 13.5t12.5 2.5q8 0 14 -2.5t4 -13.5t-8.5 -13.5t-12.5 -2.5t-12 2.5t-5 13.5z" />
    <glyph glyph-name="fl" unicode="fl" horiz-adv-x="422" 
d="M56 352h31l10 71q5 33 19 57.5t54 24.5q12 0 28.5 -0.5t35.5 -1.5t37 -2.5t33.5 -2.5t25 -1.5l9.5 -0.5l-7 -16q-1 0 -10 0.5t-23 1.5t-30 2.5t-31.5 2.5t-28.5 1.5t-20 0.5q-40 0 -53.5 -17t-18.5 -55l-9 -65h116l-2 -16h-116l-47 -336h-9q-7 0 -9 3t-1 13l45 320h-32z
M314 475q1 6 2 11t4 7.5t9 2.5h10l-0.5 -2t-1 -6t-1.5 -9.5t-2 -12.5l-52 -377q-5 -40 0 -58.5t31 -18.5q5 0 19 1.5t18 3.5l-2 -15q-5 -1 -23.5 -3t-25.5 -2q-19 0 -28.5 8t-12.5 22t-1.5 32.5t4.5 39.5z" />
    <glyph glyph-name="f_f" unicode="ff" horiz-adv-x="498" 
d="M56 352h31l10 71q5 33 18.5 57.5t53.5 24.5q23 0 40 -1.5t26.5 -3.5l9.5 -2l-2 -16l-4.5 1t-12 2.5t-17 2.5t-20.5 1q-40 0 -53.5 -17t-18.5 -55l-9 -65h231l-2 -16h-231l-47 -336h-9q-7 0 -9 3t-1 13l45 320h-32zM305 351l31 1l10 71q5 33 18.5 57.5t53.5 24.5
q23 0 40 -1.5t26.5 -3.5l9.5 -2l-2 -16l-4.5 1t-12 2.5t-17 2.5t-20.5 1q-40 0 -53.5 -17t-18.5 -55l-9 -65h116l-2 -16h-116l-47 -336h-9q-7 0 -9 3t-1 13l45 320l-31 1z" />
    <glyph glyph-name="f_f_i" unicode="ffi" horiz-adv-x="697" 
d="M50 0q-7 0 -9 3t-1 13l45 320h-32l3 16h31l10 71q5 33 18.5 57.5t53.5 24.5q23 0 40 -1.5t26.5 -3.5l9.5 -2l-2 -16l-4.5 1t-12 2.5t-17 2.5t-20.5 1q-40 0 -53.5 -17t-18.5 -55l-9 -65h231l-2 -16h-231l-47 -336h-9zM299 0q-7 0 -9 3t-1 13l45 320h-31l2 16h31l10 71
q5 33 19 57.5t54 24.5q23 0 39.5 -1.5t26 -3.5l9.5 -2l-2 -16l-4.5 1t-12 2.5t-17 2.5t-20.5 1q-40 0 -53.5 -17t-18.5 -55l-9 -65h216l-2 -16h-216l-47 -336h-9zM574 -3q-16 0 -25 5t-13 14.5t-4.5 22.5t1 28t3.5 32q8 50 13 88.5t10.5 77l12.5 87.5h11h11
q-7 -51 -12.5 -91l-11 -80t-13.5 -92q-5 -40 0 -58.5t31 -18.5q6 0 19.5 1.5t17.5 3.5l-2 -15q-5 -1 -23.5 -3t-25.5 -2zM599 463q-6 0 -12 2.5t-5 13.5q2 11 7.5 13.5t12.5 2.5q8 0 14 -2.5t4 -13.5t-8.5 -13.5t-12.5 -2.5z" />
    <glyph glyph-name="f_f_l" unicode="ffl" horiz-adv-x="672" 
d="M56 352h31l10 71q5 33 19 57.5t54 24.5q23 0 39.5 -1.5t26 -3.5l9.5 -2l-2 -16l-4.5 1t-12 2.5t-17 2.5t-20.5 1q-40 0 -53.5 -17t-18.5 -55l-9 -65h197l-2 -16h-197l-47 -336h-9q-7 0 -9 3t-1 13l45 320h-32zM305 352h31l10 71q5 33 19 57.5t54 24.5q12 0 29 -0.5
t37 -1.5t40 -2.5t36 -2.5t26.5 -1.5l10.5 -0.5l-7 -16q-1 0 -11 0.5t-25 1.5t-32 2.5t-34 2.5t-30.5 1.5t-20.5 0.5q-40 0 -53.5 -17t-18.5 -55l-9 -65h116l-2 -16h-116l-47 -336h-9q-7 0 -9 3t-1 13l45 320h-31zM573 475q1 6 2 11t4 7.5t9 2.5h10l-0.5 -2t-1 -6t-1.5 -9.5
t-2 -12.5l-52 -377q-5 -40 0 -58.5t31 -18.5q5 0 19 1.5t18 3.5l-2 -15q-5 -1 -23.5 -3t-25.5 -2q-19 0 -28.5 8t-12 22t-1 32.5t4.5 39.5z" />
    <glyph glyph-name=".notdef" horiz-adv-x="244" 
 />
    <glyph glyph-name=".null" horiz-adv-x="587" 
 />
    <glyph glyph-name="nonmarkingreturn" horiz-adv-x="333" 
 />
    <glyph glyph-name="space" unicode=" " horiz-adv-x="242" 
 />
    <glyph glyph-name="exclam" unicode="!" horiz-adv-x="153" 
d="M66 149l41 325q2 17 6 24.5t20 7.5h6l-14 -99l-46 -258h-13zM36 16q2 11 7.5 14t12.5 3q8 0 14 -2.5t4 -14.5q-1 -7 -4.5 -10.5t-8.5 -4.5t-9 -1t-8.5 1t-6.5 4.5t-1 10.5z" />
    <glyph glyph-name="quotedbl" unicode="&#x22;" horiz-adv-x="275" 
d="M42 343l49 142h16l-44 -142h-21zM136 343l43 142h22l-49 -142h-16z" />
    <glyph glyph-name="numbersign" unicode="#" horiz-adv-x="462" 
d="M283 120h-107l-13 -136h-21l12 136h-101v21h102l16 168h-95v22h96l11 128h21l-11 -129h109l11 130h22l-12 -130h111v-21h-113l-15 -168h104v-21h-106l-12 -135h-20zM176 141h109l16 168h-109z" />
    <glyph glyph-name="dollar" unicode="$" horiz-adv-x="425" 
d="M9 -83q11 18 28.5 46l35 56t28.5 45q-27 8 -42.5 21.5t-20 36t-0.5 55.5h10h10q-6 -44 6.5 -66.5t43.5 -30t80 -7.5q40 0 77 5t63.5 26.5t33.5 73.5q8 49 -11.5 64.5t-69.5 15.5h-61.5h-61.5q-15 0 -33.5 1.5t-34 10t-23.5 27.5t-3 53q8 54 35 78t67.5 30.5t87.5 6.5
q17 0 33 -1t30 -3q17 28 36.5 57t36.5 57h19q-18 -28 -37 -57.5t-37 -58.5q29 -4 44.5 -18.5t20 -38t-0.5 -57.5h-10h-10q5 40 -4.5 62t-38.5 31.5t-84 9.5q-44 0 -79.5 -6t-58 -26.5t-28.5 -64.5q-7 -44 14 -58.5t61 -14.5h61h61q29 0 54.5 -4t39.5 -25t7 -72
q-8 -58 -36 -83t-69.5 -31.5t-90.5 -6.5q-22 0 -40 1.5t-29 2.5l-91 -143h-19z" />
    <glyph glyph-name="percent" unicode="%" horiz-adv-x="539" 
d="M384 460l-236 -460h-18l236 460h18zM457 105q-6 -47 -20 -69.5t-34 -29t-44 -6.5q-23 0 -39.5 7.5t-22.5 30t0 67.5q7 47 21 69t34 29t43 7q24 0 40 -7.5t22.5 -30t-0.5 -67.5zM439 105q6 42 1 62t-17.5 26.5t-31.5 6.5q-18 0 -32.5 -6.5t-25.5 -26.5t-17 -62
q-5 -42 -0.5 -62t17.5 -26t31 -6q19 0 33.5 6t25.5 26t16 62zM242 355q-7 -47 -21 -69.5t-33.5 -29t-43.5 -6.5q-23 0 -39.5 7.5t-22.5 30t0 67.5q7 47 21 69t34 29t43 7q24 0 40 -7.5t22.5 -30t-0.5 -67.5zM225 355q5 42 0 62t-18 26.5t-32 6.5q-17 0 -32 -6.5t-25.5 -26.5
t-16.5 -62q-6 -41 -1 -61.5t18 -26.5t31 -6t33 6t26 26.5t17 61.5z" />
    <glyph glyph-name="ampersand" unicode="&#x26;" horiz-adv-x="502" 
d="M445 0q-9 5 -27 19.5t-42 34.5q-12 -22 -31 -34t-42 -18q-28 -7 -66 -9t-76 0t-66 7q-27 5 -44.5 18.5t-23 44t2.5 85.5q4 28 15 55.5t28 47t38 23.5q-15 14 -23 32t-4 52q6 38 24.5 59.5t45.5 31.5t57 12.5t58 2.5q17 0 34 -0.5t34 -1.5t31 -3t27.5 -5t22 -10.5
t6.5 -22.5q-11 10 -39 15t-59 7.5t-53 2.5q-23 0 -50 -2t-51.5 -10.5t-41.5 -26.5t-22 -50q-4 -28 7 -48t31 -39l219 -179l24 170q11 0 15.5 -2.5t5.5 -6.5t0 -11q-4 -27 -8.5 -58.5t-9 -60t-8.5 -46.5l64 -52zM123 259q-21 -4 -35 -24t-22 -44.5t-11 -40.5q-10 -71 4.5 -98
t48.5 -35q24 -5 57.5 -7t68 0t60.5 8q15 4 27.5 9.5t22.5 14.5t15 23q-59 49 -118 97.5t-118 96.5z" />
    <glyph glyph-name="quotesingle" unicode="'" horiz-adv-x="202" 
d="M77 364q9 19 17 40t10 29h-1.5h-2.5q-5 0 -11 2.5t-5 13.5q1 8 4 11.5t8.5 4.5t12.5 1q11 0 15 -4t2 -15q-1 -13 -9 -31t-16.5 -33t-10.5 -19h-13z" />
    <glyph glyph-name="parenleft" unicode="(" horiz-adv-x="232" 
d="M229 508q-31 0 -58.5 -10.5t-51.5 -39t-42 -81t-30 -136.5q-12 -83 -8.5 -135.5t19 -81.5t40 -40t55.5 -11l-1 -12q-37 0 -66.5 11t-48 40.5t-23 84.5t7.5 144t32.5 144.5t47.5 85t59.5 40.5t68.5 11z" />
    <glyph glyph-name="parenright" unicode=")" horiz-adv-x="232" 
d="M61 522q36 0 65.5 -11t48 -40.5t23.5 -85t-7 -144.5t-32.5 -144t-47 -84.5t-59 -40.5t-69.5 -11l1 12q31 0 59 11t51.5 40t42 81.5t30.5 135.5q12 84 8 136.5t-19.5 81t-40 39t-55.5 10.5z" />
    <glyph glyph-name="asterisk" unicode="*" horiz-adv-x="514" 
d="M380 73l-108 168l-107 -168l-31 22l127 155l-194 50l12 36l186 -72l-12 199h39l-12 -199l187 73l11 -36l-192 -51l126 -154z" />
    <glyph glyph-name="plus" unicode="+" horiz-adv-x="403" 
d="M165 -1l25 176h-139l3 19h139l23 161h21l-23 -161h140l-3 -19h-140l-25 -176h-21z" />
    <glyph glyph-name="comma" unicode="," horiz-adv-x="163" 
d="M58 -69q9 19 17 40t10 29h-1.5h-2.5q-5 0 -11 2.5t-5 13.5q1 8 4 11.5t8.5 4.5t12.5 1q11 0 15 -4t2 -15q-1 -13 -9 -31t-16 -33t-11 -19h-13z" />
    <glyph glyph-name="hyphen" unicode="-" horiz-adv-x="302" 
d="M53 210h198l-2 -16h-198z" />
    <glyph glyph-name="period" unicode="." horiz-adv-x="204" 
d="M104 16q2 11 7.5 14t12.5 3q8 0 14 -2.5t4 -14.5q-1 -7 -4.5 -10.5t-8 -4.5t-8.5 -1t-8.5 1t-7 4.5t-1.5 10.5z" />
    <glyph glyph-name="slash" unicode="/" horiz-adv-x="348" 
d="M4 -38l317 619h23l-318 -619h-22z" />
    <glyph glyph-name="zero" unicode="0" horiz-adv-x="460" 
d="M195 -7q-37 0 -68 7.5t-52 30.5t-28 71t4 129q12 83 33.5 131t51.5 71t64.5 29.5t71.5 6.5t68.5 -7.5t52.5 -30.5t28 -71t-4 -129q-12 -83 -34 -131t-51.5 -71t-64 -29.5t-72.5 -6.5zM202 11q38 0 68 7.5t54 29.5t41 66t27 116q10 73 5 117t-22.5 66.5t-45.5 30t-66 7.5
q-37 0 -67 -7.5t-53 -30t-39.5 -66.5t-26.5 -117q-10 -72 -6 -116t21 -66t45 -29.5t65 -7.5z" />
    <glyph glyph-name="one" unicode="1" horiz-adv-x="239" 
d="M106 0q9 66 18 131.5t18.5 130.5t18.5 129q5 35 -3.5 44t-27.5 9q-15 0 -33.5 -5.5t-24.5 -8.5l2 18q6 2 19.5 5t29 6t24.5 3q26 0 34.5 -11.5t8 -27t-2.5 -28.5q-4 -32 -10.5 -76t-13.5 -92.5t-13.5 -93.5t-11.5 -80.5t-7 -52.5h-25z" />
    <glyph glyph-name="two" unicode="2" horiz-adv-x="441" 
d="M24 0q4 24 7 47.5t7 47.5q6 45 20.5 71.5t35.5 39.5t48 17t58 4h37.5h37.5q43 0 73.5 23.5t38.5 83.5q8 51 -8 74.5t-51 30.5q-15 4 -33 5t-38 1q-25 0 -57 -3t-60 -11q-13 -3 -23.5 -7t-18 -9t-11.5 -11q0 1 0.5 5t1 8.5l0.5 4.5q2 11 19 18.5t42 12.5t51 7.5t46 2.5
q38 0 71 -3.5t56.5 -15.5t34 -38.5t4.5 -71.5q-7 -52 -29 -79.5t-51.5 -37.5t-57.5 -10h-41h-41q-37 0 -64 -8t-43.5 -31t-23.5 -68l-10 -80h317l-3 -20h-342z" />
    <glyph glyph-name="three" unicode="3" horiz-adv-x="432" 
d="M164 -7q-25 0 -55.5 1.5t-56.5 5.5t-41 10q-7 2 -9.5 6.5t-0.5 11.5l2 8q21 -11 61 -18.5t101 -7.5q51 0 89.5 9t62 34t30.5 73q6 43 -2.5 63.5t-26 27t-39.5 6.5h-190l3 20h190q31 0 53 21.5t29 71.5q8 59 -17 84.5t-97 25.5h-27q-30 0 -61.5 -4t-56 -9.5t-33.5 -10.5
l2 9q1 8 5 11t17 7q15 5 55.5 9.5t89.5 4.5q70 0 103.5 -13.5t42 -41.5t2.5 -73q-6 -44 -25 -69.5t-45 -29.5v-1q29 -3 44.5 -25.5t6.5 -84.5q-7 -52 -30.5 -80.5t-66 -40t-109.5 -11.5z" />
    <glyph glyph-name="four" unicode="4" horiz-adv-x="429" 
d="M279 0l16 114h-297l2 17l317 308q9 9 17 13.5t16 6t18 1.5q0 -1 -1 -7l-2 -12t-2 -10l-42 -300h59l-3 -17h-58l-16 -114h-24zM31 131h266l43 305l-4 -4l-300 -296z" />
    <glyph glyph-name="five" unicode="5" horiz-adv-x="447" 
d="M392 141q-6 -45 -21 -73.5t-40 -45t-61 -23t-86 -6.5q-52 0 -94.5 5t-58.5 12q-6 3 -8.5 6t-2 8t2.5 12q21 -11 61 -18.5t101 -7.5q51 0 89.5 10t63 38.5t31.5 82.5q7 49 -1.5 74.5t-40.5 35t-95 9.5q-24 0 -49 -1t-48 -3t-40.5 -4.5t-27.5 -4.5l31 213h331l-2 -17h-308
l-25 -173q12 2 29 3t36.5 2t41 1.5t43.5 0.5q70 0 104.5 -11t43 -40.5t0.5 -84.5z" />
    <glyph glyph-name="six" unicode="6" horiz-adv-x="441" 
d="M189 -4q-57 0 -89.5 8t-46 31t-12.5 68t11 118q11 79 26 127t39.5 72.5t63.5 33t98 8.5q35 0 70 -2.5t49 -7.5q16 -4 17 -12t0 -16q-1 1 -4 2.5t-7.5 3t-10.5 2.5q-14 4 -33.5 6.5t-43 3.5t-51.5 1q-54 0 -87 -10t-51.5 -33t-30.5 -64q-2 -10 -5.5 -26.5t-6 -30.5
t-3.5 -19q29 6 67.5 9.5t78 5.5t71.5 1q25 -1 44 -7t32 -19.5t17 -38t-1 -63.5q-6 -45 -19.5 -75t-37 -46.5t-59 -23.5t-85.5 -7zM191 14q52 0 88 9t58 38t30 89q5 37 -0.5 59.5t-23.5 34t-51 14.5q-22 2 -54 1t-65.5 -3.5t-59.5 -5.5t-35 -5q-1 -7 -4 -30t-6 -49t-4 -43
q-3 -47 10 -70.5t42 -31t75 -7.5z" />
    <glyph glyph-name="seven" unicode="7" horiz-adv-x="384" 
d="M82 0l276 443h-304l3 17h312q13 0 15 -7t-6 -18q-26 -43 -53.5 -86.5l-55 -87t-55 -87.5t-54.5 -87.5t-54 -86.5h-24z" />
    <glyph glyph-name="eight" unicode="8" horiz-adv-x="438" 
d="M190 -4q-58 0 -92.5 6.5t-50 22t-17.5 41t3 64.5q6 44 29.5 76.5t55.5 35.5q-25 2 -37.5 30.5t-5.5 74.5q6 44 24.5 69t56 35.5t100.5 10.5q64 0 98 -10.5t45 -35.5t5 -69q-7 -46 -27 -74.5t-46 -30.5q35 -3 47.5 -35.5t6.5 -76.5q-5 -38 -15 -64t-30 -41.5t-56 -22
t-94 -6.5zM169 15h48q46 0 75 8t45 29.5t22 63.5q7 50 0.5 74.5t-33 32.5t-79.5 8h-48q-52 0 -81 -8t-43 -32.5t-21 -74.5q-9 -63 18.5 -82t96.5 -19zM226 250q55 0 87 6t48 27t22 64q4 35 -5 56t-38.5 30.5t-86.5 9.5t-89 -9.5t-46.5 -30.5t-19.5 -56q-6 -43 3.5 -64
t40 -27t84.5 -6z" />
    <glyph glyph-name="nine" unicode="9" horiz-adv-x="441" 
d="M31 28q12 -5 51 -9.5t94 -4.5q58 0 92 9t53.5 33t31.5 70q3 11 6.5 27t6.5 30t3 18q-16 -2 -37.5 -5t-44.5 -5q-26 -3 -52.5 -4.5t-51.5 -1.5q-76 0 -104.5 26t-18.5 101q7 48 21.5 78t38.5 46t59 22t81 6q62 0 95 -10t45 -35t9.5 -68.5t-11.5 -109.5q-9 -65 -20 -108.5
t-25 -69.5t-33 -39.5t-45 -19.5q-21 -5 -51 -7t-62 -2q-37 0 -68.5 2t-45.5 5q-10 2 -14 6.5t-3 13.5v6zM372 218q5 35 9.5 65t5.5 55q2 45 -11 68.5t-43 32t-80 8.5q-47 0 -82.5 -10t-57.5 -36.5t-29 -78.5q-7 -49 1.5 -74.5t37 -35t79.5 -9.5q33 0 68.5 2.5t64 6.5t37.5 6
z" />
    <glyph glyph-name="colon" unicode=":" horiz-adv-x="171" 
d="M44 16q2 11 8 14t13 3q8 0 14 -2.5t4 -14.5q-1 -7 -4.5 -10.5t-8 -4.5t-8.5 -1t-8.5 1t-7.5 4.5t-2 10.5zM85 314q2 11 8 14t13 3q8 0 14 -2.5t4 -14.5q-1 -11 -8 -13.5t-13 -2.5q-4 0 -8.5 1t-7.5 4.5t-2 10.5z" />
    <glyph glyph-name="semicolon" unicode=";" horiz-adv-x="182" 
d="M104 313q2 11 8 14t13 3q8 0 14 -2.5t4 -14.5q-1 -11 -8 -13.5t-13 -2.5q-4 0 -8.5 1t-7.5 4.5t-2 10.5zM50 -69q12 19 23 40t14 29h-1.5h-2.5q-5 0 -11 2.5t-3 13.5q2 8 5.5 11.5t9 4.5t13.5 1q10 0 13.5 -4t0.5 -15q-3 -13 -13.5 -31t-21 -33t-13.5 -19h-13z" />
    <glyph glyph-name="less" unicode="&#x3c;" horiz-adv-x="365" 
d="M303 65l-4 -27l-229 167l3 20l276 173l-4 -30l-249 -153z" />
    <glyph glyph-name="equal" unicode="=" horiz-adv-x="401" 
d="M61 269h298l-2 -16h-297zM44 148h297l-1 -16h-298z" />
    <glyph glyph-name="greater" unicode="&#x3e;" horiz-adv-x="365" 
d="M300 215l-207 153l4 30l228 -173l-3 -20l-275 -167l3 27z" />
    <glyph glyph-name="question" unicode="?" horiz-adv-x="368" 
d="M85 108h-12q2 14 3.5 28.5t3 29.5t3.5 29.5t3 28.5q6 0 19.5 -0.5t28 0t22.5 0.5q77 2 115.5 25t47.5 90q8 58 -15.5 81.5t-98.5 23.5h-75q-13 0 -24 -1t-18.5 -2t-11.5 -2t-5 -1v3t0.5 2t0.5 2q2 9 15.5 11t29.5 3q11 1 31.5 1h42.5t35 -1q40 -1 68.5 -9.5t41.5 -33.5
t5 -78q-7 -48 -28 -74.5t-53.5 -38t-72.5 -14t-84 -2.5zM49 16q2 11 8 14t13 3q8 0 13.5 -2.5t3.5 -14.5q-1 -7 -4.5 -10.5t-7.5 -4.5t-9 -1q-4 0 -8.5 1t-7 4.5t-1.5 10.5z" />
    <glyph glyph-name="at" unicode="@" horiz-adv-x="757" 
d="M402 452q-76 0 -129 -10t-87.5 -36t-54.5 -72.5t-30 -120.5q-11 -77 -0.5 -122.5t41.5 -68.5t82.5 -30t121.5 -7q44 0 89 4t86 11.5t75 17t57 20.5q-1 -7 -1.5 -12.5t-2.5 -12.5q-30 -10 -78 -21t-105 -18.5t-116 -7.5q-27 0 -52.5 0.5t-48 2.5t-42.5 6t-37 9.5t-31 13.5
t-25 19q-28 27 -37 74t2 122q12 83 37 134t64.5 77.5t95.5 35.5t129 9q71 0 123 -6t85 -25.5t45.5 -60t3.5 -109.5q-4 -24 -10 -53.5t-18.5 -56.5t-35.5 -44t-60 -17q-25 0 -39 7t-18.5 17.5t-4.5 20.5q-10 -14 -27 -24t-38 -17q-19 -5 -41 -7.5t-45 -2.5q-47 0 -76 10
t-39.5 37.5t-3.5 80.5q9 60 31.5 87t61 33.5t94.5 4.5q20 -1 40.5 -2t40 -2t34 -2t20.5 -2q-1 -2 -3.5 -15t-5.5 -30q-4 -35 -9 -70l-10 -70q-4 -25 10 -31t32 -6q31 0 50.5 20t31.5 55.5t18 81.5q9 65 -5 101.5t-46.5 53.5t-80.5 21.5t-108 4.5zM501 322q-6 1 -27 2
t-47 2.5t-49 1.5q-52 0 -82 -9t-44.5 -31.5t-20.5 -64.5q-6 -46 0.5 -70.5t32 -34t76.5 -9.5q18 0 40.5 2.5t44.5 12.5t38.5 31.5t22.5 58.5z" />
    <glyph glyph-name="A" unicode="A" horiz-adv-x="445" 
d="M-10 0l175 399q14 32 32.5 48.5t60.5 16.5q41 0 54.5 -15t18.5 -50l65 -399h-24l-24 141h-275l-62 -141h-21zM81 159h265l-39 238q-3 19 -12.5 33.5t-41.5 14.5q-37 0 -49.5 -15t-20.5 -33z" />
    <glyph glyph-name="B" unicode="B" horiz-adv-x="564" 
d="M125 414q4 29 17.5 37t35.5 9q24 1 55 1.5t63 0.5t61.5 -0.5t50.5 -2.5q57 -5 77.5 -33.5t13.5 -77.5q-5 -39 -21 -62.5t-35.5 -34t-36.5 -13.5q13 0 29 -3t29.5 -13.5t20.5 -34t1 -64.5q-6 -47 -29 -73t-55.5 -37t-68 -13.5t-66.5 -2.5h-60.5t-49.5 0.5t-39 0.5
t-29.5 0.5t-21.5 1.5zM349 245q28 0 54.5 8t45.5 31t25 66q5 39 -11 62.5t-57 27.5q-35 4 -79 4t-84 -0.5t-63 -1.5q-4 0 -16 -4.5t-15 -23.5l-56 -396q4 0 16 -0.5t33 -1t52.5 -0.5h74.5q32 0 63.5 2t58.5 11.5t45.5 32t24.5 62.5q8 59 -15.5 80.5t-97.5 21.5h-171
q-4 0 -6.5 2t-3 5t0 6t0.5 6h181z" />
    <glyph glyph-name="C" unicode="C" horiz-adv-x="480" 
d="M53 230q10 72 30.5 118.5t52 72t76 35.5t103.5 10q35 0 68 -2.5t66 -9.5q22 -4 28 -9t5 -13l-1 -10q-13 8 -43.5 14t-65 9t-62.5 3q-76 0 -123 -20.5t-72 -68t-37 -129.5q-11 -83 -1 -131t51 -68.5t121 -20.5q28 0 63 3t66.5 9t47.5 13l-2 -9q-1 -7 -8.5 -12.5
t-30.5 -9.5q-34 -7 -68 -9.5t-69 -2.5q-61 0 -103.5 10t-66 35.5t-29.5 72t4 120.5z" />
    <glyph glyph-name="D" unicode="D" horiz-adv-x="570" 
d="M244 -3q-18 0 -44 0.5t-52.5 1t-47 1t-28.5 0.5l56 398q5 30 12 44.5t41 17.5q11 1 34.5 1.5t52 1t54.5 0.5t41 -1q56 -3 92 -12.5t55 -33t22.5 -69.5t-7.5 -122q-11 -80 -32 -126.5t-54.5 -68t-81.5 -27.5t-113 -6zM259 16q60 0 101.5 7.5t69.5 29t45 63t26 108.5
q10 72 6.5 115.5t-23.5 66.5t-59 30.5t-99 7.5h-31.5t-43.5 -0.5t-43 -1.5t-30 -3t-16.5 -8t-9.5 -29l-54 -383q6 0 27 -0.5t47.5 -1t50.5 -1t36 -0.5z" />
    <glyph glyph-name="E" unicode="E" horiz-adv-x="511" 
d="M72 0l62 440q1 7 1.5 11t3.5 6.5t8 2.5h357l-2 -19h-344l-27 -187h318l-2 -19h-318l-31 -216h345l-3 -19h-368z" />
    <glyph glyph-name="F" unicode="F" horiz-adv-x="504" 
d="M72 0l62 440q1 7 1.5 11t3.5 6.5t8 2.5h357l-2 -19h-344l-27 -187h318l-2 -19h-318l-33 -235h-24z" />
    <glyph glyph-name="G" unicode="G" horiz-adv-x="511" 
d="M230 -9q-55 0 -93.5 11t-60 37.5t-27.5 73t4 117.5q10 72 30.5 118t52 72t76.5 36t103 10q23 0 45.5 -1t45 -3.5t44.5 -7.5q15 -2 22 -5.5t9.5 -7.5t1.5 -9l-1 -9q-8 5 -22.5 8.5t-33.5 6.5t-39.5 5.5t-40 3.5t-35.5 1q-77 0 -124 -20.5t-72 -68t-37 -129.5
q-11 -81 -1.5 -129t48 -69.5t113.5 -21.5q64 0 105 13.5t64.5 51.5t36.5 109q3 16 4 27.5t2 16.5h-201q1 8 3 12t6 5.5t12 1.5h206l-8 -61q-8 -58 -26.5 -96t-47 -59.5t-68 -30.5t-90.5 -9h-2.5h-3.5z" />
    <glyph glyph-name="H" unicode="H" horiz-adv-x="598" 
d="M72 0l62 441q1 8 2.5 12t4.5 5.5t8 1.5h11l-30 -213h350l30 213h25l-62 -441q-1 -7 -2.5 -11.5t-4.5 -6t-9 -1.5h-11l32 228h-350l-32 -228h-24z" />
    <glyph glyph-name="I" unicode="I" horiz-adv-x="224" 
d="M72 0q15 110 30.5 220t31.5 220q1 7 1.5 11t3.5 6.5t8 2.5h13l-64 -460h-24z" />
    <glyph glyph-name="J" unicode="J" horiz-adv-x="260" 
d="M158 150q-3 -21 -7 -51.5t-9 -48.5q-4 -12 -13 -24.5t-23.5 -20.5t-37.5 -8h-15.5t-20 1.5t-20.5 3.5l3 19q5 -2 18.5 -4t20.5 -2q32 0 48.5 12t20.5 44l55 389h13q5 0 7 -2t2 -5.5t-1 -8.5z" />
    <glyph glyph-name="K" unicode="K" horiz-adv-x="470" 
d="M401 -1q-6 0 -11 3t-12 10q-4 6 -18 25.5t-32 45.5t-37 52.5t-33.5 46.5t-19.5 27q-8 11 -15 15t-27 5h-67l-32 -229h-24l62 446q1 5 2 8t3.5 4.5t5.5 1.5h8h7q-2 -14 -6 -43t-8.5 -62.5t-9 -62.5t-6.5 -43h67q17 0 25 5t18 15q31 30 63 60t64 61l64 62q5 5 10 7t9 2
q5 0 8.5 -1.5t4.5 -3.5q-2 -1 -16.5 -15t-33 -32t-33.5 -32q-25 -23 -50 -47t-48.5 -46.5t-44.5 -41.5l3 -2q6 -4 24 -28.5t43 -60.5t53 -75.5t54 -74.5q-1 0 -3.5 -0.5l-5 -1t-5.5 -0.5z" />
    <glyph glyph-name="L" unicode="L" horiz-adv-x="450" 
d="M160 460l-62 -441h314l-2 -19h-338l62 440q1 7 2 11t3.5 6.5t7.5 2.5h13z" />
    <glyph glyph-name="M" unicode="M" horiz-adv-x="657" 
d="M72 0l60 428q2 15 3.5 22t4.5 8.5t11 1.5h13l135 -430l1 -5l2 3l3 5l255 427h14q11 0 15 -1.5t2 -15.5l-60 -424q-1 -7 -2.5 -11t-4 -6t-7.5 -2h-13l61 431l-5 -6l-253 -425h-24l-131 416l-2 5l-58 -421h-20z" />
    <glyph glyph-name="N" unicode="N" horiz-adv-x="598" 
d="M72 0l60 428q2 15 3.5 22t4.5 8.5t11 1.5h14l287 -434l1 11l60 423h22q-1 -1 -2 -5t-2 -8.5t-2 -9.5l-56 -405q-3 -22 -5.5 -27t-14.5 -5h-15l-286 434l-1 -8l-59 -426h-20z" />
    <glyph glyph-name="O" unicode="O" horiz-adv-x="555" 
d="M243 -7q-47 0 -86.5 7.5t-67 31t-37.5 71t1 128.5q12 83 37.5 131t61.5 71t79 29.5t89 6.5q47 0 86.5 -7.5t67 -31t37.5 -71t-1 -128.5q-12 -83 -37.5 -131t-61.5 -71t-78.5 -29.5t-89.5 -6.5zM250 11q48 0 87 7.5t68 29.5t49 66t30 116q10 73 2.5 117t-31 66.5t-60 30
t-84.5 7.5t-86 -7.5t-67.5 -30t-49 -66.5t-29.5 -117q-10 -72 -3 -116t30 -66t59.5 -29.5t84.5 -7.5z" />
    <glyph glyph-name="P" unicode="P" horiz-adv-x="542" 
d="M67 0q14 104 28.5 207t29.5 206q4 30 17.5 38t35.5 9q31 1 74.5 1.5t85.5 0t69 -2.5q39 -3 60.5 -18t28.5 -41.5t2 -63.5q-10 -68 -50 -102t-102 -34h-91.5h-92.5q1 5 2 9t4 7t10 3h42h64.5h60.5q29 0 55.5 10t46 36t25.5 74q7 44 -8.5 70t-57.5 30q-35 4 -79 4.5
t-84 -0.5t-63 -2q-4 0 -16 -4t-15 -23q-15 -103 -29.5 -206.5t-28.5 -207.5h-24z" />
    <glyph glyph-name="Q" unicode="Q" horiz-adv-x="555" 
d="M243 -7q-47 0 -86.5 7.5t-67 31t-37.5 71t1 128.5q12 83 37.5 131t61.5 71t79 29.5t89 6.5q47 0 86.5 -7.5t67 -31t37.5 -71t-1 -128.5q-12 -83 -37.5 -131t-61.5 -71t-78.5 -29.5t-89.5 -6.5zM250 11q48 0 87 7.5t68 29.5t49 66t30 116q10 73 2.5 117t-31 66.5t-60 30
t-84.5 7.5t-86 -7.5t-67.5 -30t-49 -66.5t-29.5 -117q-10 -72 -3 -116t30 -66t59.5 -29.5t84.5 -7.5zM414 -75q-7 0 -13 4.5t-13 12.5q-5 8 -19.5 28.5t-33.5 46.5t-37.5 52t-32 45.5t-17.5 25.5q4 4 7.5 5t6.5 1q6 0 10.5 -4.5t8.5 -12.5q4 -4 17 -22.5t31 -44.5t37 -53
t35.5 -48.5t26.5 -30.5q-3 -2 -6 -3.5t-8 -1.5z" />
    <glyph glyph-name="R" unicode="R" horiz-adv-x="575" 
d="M379 210h-33.5h-91t-129.5 -1l-29 -209h-24l58 414q4 29 17.5 37t35.5 9q15 1 36.5 1t46 0.5t50 0.5h49.5t44 -1t32 -2q51 -5 69 -36t10 -86q-7 -40 -25.5 -67.5t-47.5 -41.5q-2 -1 -5.5 -1.5t-5.5 -0.5v-1h4.5h4.5q25 -5 34.5 -17.5t10.5 -29t-1 -32.5l-18 -130
q-1 -4 -1 -9.5t1 -6.5h-12q-7 0 -11 3t-2 19l19 129q5 31 -7 45t-46 14h-33zM128 230q17 0 51.5 -0.5t75 -1t75 -0.5h50.5q39 0 72 23.5t42 87.5q7 44 -6.5 70t-50.5 30q-24 3 -59.5 4t-73.5 0.5t-70 -1t-49 -1.5q-4 0 -16 -4t-15 -23z" />
    <glyph glyph-name="S" unicode="S" horiz-adv-x="531" 
d="M45 46q17 -15 47 -22t62.5 -9t55.5 -2h18.5t19.5 1q48 2 86 12t63 35.5t32 73.5q6 40 -5 59.5t-35.5 26t-61.5 6.5h-34.5h-35.5h-36q-26 0 -53 2.5t-48 12t-32 31t-5 60.5q6 46 27.5 72.5t54 39t71.5 16t81 3.5q25 0 57.5 -1.5t62 -6.5t44.5 -17q5 -3 6.5 -6t1.5 -8
q0 -3 -0.5 -6l-1 -6t-1.5 -6q-8 12 -27.5 19.5t-44 11.5t-47 5.5t-36.5 1.5h-40q-43 0 -82.5 -6.5t-67 -30t-34.5 -74.5q-6 -40 8 -58.5t42.5 -23.5t66.5 -5h51.5h50.5q41 0 72.5 -7t47 -31t7.5 -76q-7 -52 -35.5 -81.5t-72 -41.5t-96.5 -15q-11 -1 -21.5 -1h-21.5
q-14 0 -41 1.5t-55.5 5.5t-47.5 12t-18 22z" />
    <glyph glyph-name="T" unicode="T" horiz-adv-x="447" 
d="M62 460h397l-3 -19h-186l-59 -421q-1 -6 -2.5 -10.5t-3.5 -7t-8 -2.5h-13l62 441h-187z" />
    <glyph glyph-name="U" unicode="U" horiz-adv-x="560" 
d="M467 178q-4 -27 -9 -53t-17 -49t-35 -41t-61 -28t-96 -10q-56 0 -90 10t-51.5 28t-22.5 40.5t-3.5 48.5t5.5 52l38 264q1 8 2.5 12.5t4.5 6t8 1.5h12l-46 -320q-6 -46 6.5 -73t47 -39t93.5 -12q89 0 132 29.5t53 95.5l45 319h11q6 0 8.5 -1.5t2.5 -6t-1 -12.5z" />
    <glyph glyph-name="V" unicode="V" horiz-adv-x="418" 
d="M187 0q-34 0 -49.5 19.5t-20.5 55.5l-58 385h23l59 -389q5 -30 19.5 -40.5t32.5 -10.5h20l198 440h21l-207 -460h-38z" />
    <glyph glyph-name="W" unicode="W" horiz-adv-x="633" 
d="M137 0q-22 0 -35 6t-18 21t-5 43l2 390h18l-2 -385q0 -36 9.5 -46t40.5 -9h40l153 440h23l33 -440h42q25 0 38 9t19 34l106 397h20l-104 -385q-13 -46 -30 -60.5t-57 -14.5h-52l-29 393l-2 34l-13 -35l-135 -392h-62z" />
    <glyph glyph-name="X" unicode="X" horiz-adv-x="434" 
d="M356 0q-6 0 -11 3.5t-8 7.5l-135 211l-146 239h31l132 -218l133 -207q8 -14 13 -21.5t10 -14.5h-19zM2 0h-14q6 7 12 13.5t12 13.5l194 210l205 224h27l-219 -238l-195 -212q-4 -4 -10 -7.5t-12 -3.5z" />
    <glyph glyph-name="Y" unicode="Y" horiz-adv-x="406" 
d="M161 0l26 190l-117 245l-14 25h27l120 -250l198 250h23l-22 -27l-191 -243l-24 -170q0 -6 -1 -10.5t-4 -7t-9 -2.5h-12z" />
    <glyph glyph-name="Z" unicode="Z" horiz-adv-x="426" 
d="M26 19h350q-1 -6 -2 -10t-4 -6t-8 -2.5t-14 -0.5h-352l3 23l19.5 20t52 53.5t72.5 74.5t81.5 83.5t78 80.5t62.5 65q16 15 26 26t14 15h-329q1 6 2.5 10t5 6.5t11.5 2.5h339q0 -1 -1 -5.5t-3.5 -11t-7 -14t-11.5 -14.5l-377 -388z" />
    <glyph glyph-name="bracketleft" unicode="[" horiz-adv-x="239" 
d="M30 -37q-4 -25 3.5 -35t34.5 -10h38l-2 -15h-17h-18t-18.5 -0.5t-18.5 -0.5h-18h-17l88 632h107l-2 -15h-38q-27 0 -37.5 -11t-13.5 -36z" />
    <glyph glyph-name="backslash" unicode="\" horiz-adv-x="348" 
d="M112 568l138 -593h-15l-138 593h15z" />
    <glyph glyph-name="bracketright" unicode="]" horiz-adv-x="239" 
d="M159 472q3 25 -4 36t-34 11h-38l2 15h107l-88 -632l-107 1l2 15h38q27 0 37 10t13 35z" />
    <glyph glyph-name="asciicircum" unicode="^" horiz-adv-x="315" 
d="M42 229h-16l137 231h19l75 -231h-20l-66 212z" />
    <glyph glyph-name="underscore" unicode="_" horiz-adv-x="735" 
d="M42 -166l2 17h651l-2 -17h-651z" />
    <glyph glyph-name="grave" unicode="`" horiz-adv-x="118" 
d="M135 460l-87 84l20 19l83 -103h-16z" />
    <glyph glyph-name="a" unicode="a" horiz-adv-x="453" 
d="M187 -8q-52 0 -84 7t-48 22t-19.5 39t1.5 58q7 51 24 78t51 37t90 10q25 0 52.5 -1.5t52.5 -3.5t42.5 -4.5t23.5 -4.5q9 55 3.5 87t-22.5 47t-43.5 19.5t-59.5 4.5t-66.5 -3t-59.5 -10t-37 -19l2 7q2 17 16.5 23t26.5 9q18 5 50 8t63 3q41 0 72.5 -4.5t51.5 -20t28 -47
t0 -86.5l-29 -211q-3 -23 -42 -33.5t-140 -10.5zM189 9q86 0 121 7.5t38 23.5l22 170q-7 4 -33 7.5t-57.5 6.5t-55.5 3q-54 0 -88 -5.5t-51.5 -28.5t-24.5 -74q-5 -37 1 -61.5t35 -36.5t93 -12z" />
    <glyph glyph-name="b" unicode="b" horiz-adv-x="461" 
d="M196 -2q-50 0 -80.5 6t-44 25.5t-14 58.5t8.5 105l43 312h22l-16 -111q3 0 21 1t42.5 2t48 2t35.5 1q67 0 102 -19t45 -62.5t1 -115.5q-11 -77 -31 -119t-47.5 -60.5t-62 -22t-73.5 -3.5zM200 16q61 0 98 13t57.5 53.5t32.5 120.5q9 65 -1 104t-40 57t-80 18
q-16 0 -40.5 -0.5t-49.5 -1.5t-42.5 -2t-20.5 -1l-26 -185q-8 -57 -9 -92t9.5 -53t37.5 -24.5t74 -6.5z" />
    <glyph glyph-name="c" unicode="c" horiz-adv-x="412" 
d="M220 -5q-71 0 -112.5 17t-54.5 61.5t-2 126.5q9 63 25.5 103t43 62t65.5 31t93 9q26 0 47 -2t46 -7q14 -2 21.5 -6t10 -9.5t0.5 -15.5q-11 6 -34 11t-48.5 7.5t-46.5 2.5q-65 0 -105.5 -17.5t-62 -58t-31.5 -110.5q-9 -70 0.5 -111t44.5 -58t102 -17q31 0 56.5 3t45.5 8
t33 11l-2 -11q-1 -8 -18 -15t-46.5 -11t-70.5 -4z" />
    <glyph glyph-name="d" unicode="d" horiz-adv-x="459" 
d="M199 -2q-66 0 -102.5 15t-47 58.5t1.5 131.5q12 81 38 123.5t67.5 58t98.5 15.5q15 0 39.5 -1t49.5 -2.5t44 -3t24 -2.5l-12 -7l17 121h21l-44 -304q-10 -69 -22 -109.5t-32 -61t-54 -26.5t-87 -6zM195 16q51 0 82.5 6t49.5 24.5t28 54t18 95.5l26 179q-14 1 -40.5 2.5
t-54.5 3t-50 1.5q-54 0 -91 -15t-58.5 -54.5t-31.5 -113.5q-10 -76 -3 -115t37.5 -53.5t87.5 -14.5z" />
    <glyph glyph-name="e" unicode="e" horiz-adv-x="436" 
d="M210 -7q-51 0 -85.5 9t-53.5 32t-24 63.5t4 102.5q11 75 33.5 120t65.5 65t117 20q83 0 115 -40.5t21 -123.5l-6 -45h-285q1 7 5.5 12t14.5 5h246l4 33q8 71 -19 105.5t-98 34.5q-60 0 -98.5 -16.5t-60 -56.5t-32.5 -113q-10 -76 0.5 -116.5t44 -56t93.5 -15.5
q20 0 42.5 1.5t44.5 4.5t39.5 7t27.5 9l-1 -8q-1 -7 -7.5 -12t-26.5 -10q-26 -5 -57.5 -8t-63.5 -3z" />
    <glyph glyph-name="f" unicode="f" horiz-adv-x="222" 
d="M65 352h31l10 71q6 41 22.5 61.5t59.5 20.5q18 0 30.5 -1.5t21 -3t14.5 -2.5l-3 -18q-6 2 -13 4t-17 3t-24 1q-37 0 -51.5 -15t-19.5 -56l-9 -65h96l-2 -16h-97l-46 -336h-9q-7 0 -9 3t-1 13l44 320h-31z" />
    <glyph glyph-name="g" unicode="g" horiz-adv-x="461" 
d="M180 -111q-10 0 -33.5 1.5t-49.5 5t-44 10t-17 16.5q1 2 1.5 5.5t0.5 5.5q14 -9 40 -15t54 -9t48 -3q59 0 95 18t55.5 60.5t26.5 113.5l14 1q-15 -36 -45 -54.5t-66 -25.5t-68 -7q-55 0 -90.5 14t-48.5 55.5t-2 121.5q9 66 26 105.5t42.5 60t62 27t85.5 6.5
q21 0 45.5 -1.5t47.5 -3t40 -3.5t24 -4q-2 -4 -4.5 -19t-5.5 -34t-5 -35l-34 -236q-9 -63 -31.5 -102t-62 -57t-101.5 -18zM189 30q45 0 81.5 9.5t60.5 30t30 53.5l35 249q-10 3 -46.5 7.5t-87.5 4.5q-60 0 -97.5 -14.5t-58 -52.5t-30.5 -108q-9 -70 -1.5 -109t35.5 -54.5
t79 -15.5z" />
    <glyph glyph-name="h" unicode="h" horiz-adv-x="451" 
d="M57 0q-10 0 -11.5 3.5t0.5 18.5l67 483h22l-17 -122q13 5 37 8.5t51 5.5t49 2q56 0 86.5 -12t42.5 -34t12.5 -51.5t-4.5 -65.5l-30 -211q-1 -11 -3 -16.5t-5 -7t-10 -1.5h-7l35 250q8 55 -5 83t-42.5 38t-72.5 10q-18 0 -44.5 -1.5t-51.5 -5t-40 -9.5l-51 -365h-8z" />
    <glyph glyph-name="i" unicode="i" horiz-adv-x="181" 
d="M99 -3q-34 0 -41 24t-2 65l45 313h22l-44 -310q-7 -46 0 -60.5t31 -14.5q5 0 19 1.5t18 3.5l-2 -17q-4 -1 -11 -2t-16 -2t-19 -1zM121 463q-6 0 -12 3t-5 13q2 11 7.5 14t12.5 3q8 0 14 -2.5t4 -14.5q-2 -10 -8.5 -13t-12.5 -3z" />
    <glyph glyph-name="j" unicode="j" horiz-adv-x="168" 
d="M-2 -85q-15 0 -27.5 1t-18.5 2l2 17q5 -1 19 -2t24 -1q27 0 36.5 13t15.5 53l54 386q1 5 2 8.5t4 5t9 1.5h9l-56 -398q-4 -32 -11.5 -51t-21.5 -27t-40 -8zM126 463q-6 0 -11.5 3t-4.5 13q1 11 7 14t13 3q8 0 14 -2.5t4 -14.5q-2 -10 -9 -13t-13 -3z" />
    <glyph glyph-name="k" unicode="k" horiz-adv-x="372" 
d="M42 0l69 491q1 8 4 11t9 3h11l-50 -353l248 235q4 4 8 6.5t8.5 4.5t8.5 2h9.5t8.5 -1q-3 -2 -9 -7t-13 -11t-13 -12l-155 -145l140 -196q5 -8 10.5 -14.5t10.5 -13.5q-4 -1 -8.5 -1h-9.5q-7 0 -11.5 3t-9.5 11l-140 194l-87 -81l-17 -126h-22z" />
    <glyph glyph-name="l" unicode="l" horiz-adv-x="178" 
d="M95 -3q-31 0 -42 18.5t-4 66.5l57 402q1 6 2.5 11t5 7.5t9.5 2.5h9l-1.5 -7.5t-3.5 -22.5l-55 -386q-5 -39 1 -57t31 -18q6 0 19 1.5t17 3.5l-2 -17q-5 -1 -15.5 -3t-27.5 -2z" />
    <glyph glyph-name="m" unicode="m" horiz-adv-x="647" 
d="M56 0q-8 0 -10.5 3t-1.5 11l49 353q7 5 18 10.5t28 11.5t42 9.5t61 3.5q30 0 52 -5.5t37 -17t22 -28.5h-9q9 12 24.5 22t34.5 16.5t40.5 10t42.5 3.5q48 0 74 -11t34 -34t3 -59l-40 -285q0 -5 -2 -8t-5 -4.5t-8 -1.5h-9q11 75 21.5 149.5t20.5 149.5q7 47 -16 66.5
t-75 19.5q-23 0 -52 -6t-51 -17.5t-24 -27.5l-47 -334h-22l47 334q2 18 -26.5 34t-70.5 16q-28 0 -55 -4t-46.5 -11.5t-23.5 -19.5l-49 -349h-8z" />
    <glyph glyph-name="n" unicode="n" horiz-adv-x="454" 
d="M56 0q-15 0 -12 14l49 353q15 8 34 16t52.5 13.5t89.5 5.5q45 0 73.5 -6.5t43 -20t18 -34t-0.5 -47.5l-39 -280q-1 -4 -3 -7.5t-5.5 -5t-8.5 -1.5h-7l41 295q7 45 -19 67t-98 22q-55 0 -93.5 -7.5t-56.5 -23.5l-50 -353h-8z" />
    <glyph glyph-name="o" unicode="o" horiz-adv-x="460" 
d="M201 -5q-38 0 -69.5 6.5t-53 26.5t-29.5 61t2 110t29.5 110t46.5 61.5t60.5 26.5t71.5 6t70 -6.5t53 -26.5t29 -61t-2 -110q-10 -70 -29 -111t-46.5 -61t-61 -26t-71.5 -6zM204 13q48 0 84.5 12.5t61 52t35.5 121.5q12 82 -1.5 121.5t-46.5 52t-81 12.5t-84.5 -12.5
t-60.5 -52t-36 -121.5q-11 -82 2.5 -121.5t46.5 -52t80 -12.5z" />
    <glyph glyph-name="p" unicode="p" horiz-adv-x="466" 
d="M28 -107l60 418q4 29 6.5 51t2.5 28q8 2 25.5 4t41 3.5t48 3t45.5 1.5q72 0 110.5 -22.5t49 -69t-3.5 -118.5q-13 -70 -36 -113.5t-62 -63t-101 -19.5q-39 0 -72 7t-52 28.5t-17 64.5l8 12l-31 -215h-22zM219 14q70 0 114.5 40t58.5 142q17 104 -14.5 146t-126.5 42
q-17 0 -44.5 -1.5t-52.5 -3.5t-35 -4l-33 -234q-7 -51 7 -78.5t46.5 -38t79.5 -10.5z" />
    <glyph glyph-name="q" unicode="q" horiz-adv-x="459" 
d="M329 -107l16 111q-6 0 -24 -1t-41 -2t-45 -2t-34 -1q-69 0 -105.5 19t-46 63.5t1.5 120.5q9 64 24.5 103t39.5 60t59 28.5t83 7.5h54t53.5 -0.5t42 0t19.5 1.5q-2 -3 -4.5 -13.5t-4.5 -31.5l-66 -463h-22zM194 16q15 0 39.5 1t49.5 2.5t43 3t21 1.5l51 356q-11 0 -41 1
t-96 1q-64 0 -101.5 -14t-57 -55.5t-31.5 -122.5q-9 -67 1 -105t40.5 -53.5t81.5 -15.5z" />
    <glyph glyph-name="r" unicode="r" horiz-adv-x="347" 
d="M64 0h-6q-7 0 -11 3.5t-3 12.5l51 363q19 6 49.5 14.5t81.5 8.5q44 0 69 -7t35.5 -18.5t12 -25.5t-0.5 -29h-22l1 14q2 23 -13.5 33t-38.5 12.5t-46 2.5q-34 0 -62 -6t-46 -14z" />
    <glyph glyph-name="s" unicode="s" horiz-adv-x="410" 
d="M153 -5q-13 0 -37.5 1t-50.5 5t-44 13q-6 3 -8 5.5t-2 7.5t1 13q15 -12 43 -18t56.5 -7.5t44.5 -1.5q38 0 70 3.5t57.5 14t41.5 31.5t21 55q8 52 -16.5 66t-71.5 14h-93q-31 0 -61 4.5t-47.5 24t-11.5 64.5q7 50 34.5 74.5t71 32t98.5 7.5q20 0 48.5 -1.5t56.5 -7.5
q14 -2 24 -5.5t15.5 -8t3.5 -11.5l-2 -16q-9 11 -27 17t-40.5 9.5t-46.5 4.5t-45 1q-39 0 -75.5 -5t-62 -24.5t-32.5 -65.5q-5 -35 7 -51t37 -20.5t58 -4.5h88q36 0 63.5 -6t41 -27t6.5 -67q-7 -50 -37 -76t-76 -35t-101 -9z" />
    <glyph glyph-name="t" unicode="t" horiz-adv-x="209" 
d="M105 -3q-21 0 -33 7t-16 24.5t0 47.5l43 307h-35l2 16h36l12 85q1 9 3 13.5t5.5 6t7.5 1.5h10l-1.5 -7t-3.5 -22l-11 -77h91l-2 -16h-92l-42 -301q-5 -39 2 -53.5t31 -14.5q12 0 22 2t14 3l-2 -17q-5 -1 -16 -3t-25 -2z" />
    <glyph glyph-name="u" unicode="u" horiz-adv-x="449" 
d="M109 399l-39 -278q-7 -59 24.5 -83t101.5 -24q77 0 114.5 25.5t45.5 82.5l39 277h2.5h2.5h2.5h2.5q6 0 8 -1.5t2.5 -5t-0.5 -10.5l-35 -250q-5 -33 -16 -58.5t-31.5 -42.5t-54 -26t-84.5 -9q-60 0 -94 13.5t-45.5 43t-4.5 78.5l35 251q2 10 4.5 13.5t9.5 3.5h5h5z" />
    <glyph glyph-name="v" unicode="v" horiz-adv-x="354" 
d="M156 0q-25 0 -37.5 11.5t-17.5 36.5l-59 351h23l51 -323q5 -25 10.5 -37t18 -15.5t36.5 -4.5q41 93 82 185.5t81 183.5q1 5 4.5 8t8.5 3h10l-176 -399h-35z" />
    <glyph glyph-name="w" unicode="w" horiz-adv-x="632" 
d="M164 -2q-44 0 -72.5 7.5t-40 32.5t-4.5 78l37 257q2 16 5 21t13 5h7l-40 -288q-8 -58 15.5 -76.5t81.5 -18.5q61 0 90 19.5t34 54.5l42 309h23l-43 -309q-5 -35 18.5 -54.5t83.5 -19.5q58 0 87.5 18.5t37.5 76.5l39 288h7q11 0 12.5 -5t-0.5 -21l-37 -257
q-7 -52 -25.5 -77.5t-48.5 -33t-74 -7.5q-32 0 -59 6t-43 22.5t-17 46.5l10 1q-8 -29 -27.5 -46t-48 -23.5t-63.5 -6.5z" />
    <glyph glyph-name="x" unicode="x" horiz-adv-x="359" 
d="M-14 0l182 201l-105 173q-6 11 -9.5 16.5t-7.5 9.5h25l113 -185l167 184h22q-4 -5 -9 -10.5t-10 -10.5l-161 -177l122 -201h-12q-6 0 -11 2.5t-8 8.5l-108 174l-166 -185h-24z" />
    <glyph glyph-name="y" unicode="y" horiz-adv-x="450" 
d="M172 -111q-37 0 -71 4.5t-55 11.5t-20 15l2 13q15 -9 38.5 -15t51 -9.5t55.5 -3.5q48 0 83 15t57.5 47t29.5 81l8 63q-10 -20 -33 -35t-54 -22.5t-68 -7.5q-74 0 -105.5 20t-36 57t2.5 86l23 159q2 15 3.5 21.5t4 8t8.5 1.5h10q-4 -26 -7.5 -52l-7 -52l-7 -52t-7.5 -52
q-8 -57 8.5 -84t48.5 -34.5t68 -7.5q37 0 71 9t58 34t30 73l31 218h7q10 0 12 -2.5t0 -19.5l-46 -322q-12 -88 -60 -127t-133 -39z" />
    <glyph glyph-name="z" unicode="z" horiz-adv-x="357" 
d="M13 18h299l4 -5q4 -5 -1.5 -9t-14.5 -4h-313l3 20l348 361h-281v3q1 8 4.5 11.5t12.5 3.5h293q-1 -7 -4 -13t-9 -13t-17 -19z" />
    <glyph glyph-name="braceleft" unicode="{" horiz-adv-x="270" 
d="M89 52q-6 -44 7 -59.5t45 -15.5h24h26q0 -2 -0.5 -4.5l-1 -5t-0.5 -5.5q-50 0 -77 2.5t-37.5 15t-9 42t8.5 82.5q8 60 6 87t-12 34t-27 7q0 2 0.5 4.5t0.5 5v4.5q17 0 29.5 8.5t22.5 37.5t18 88q8 53 15 82.5t21 42t42 15t77 2.5q0 -2 -0.5 -4.5t-0.5 -5t-1 -5.5h-48
q-31 0 -49 -13.5t-25 -61.5l-10 -71q-7 -49 -19 -74.5t-24 -35t-21 -11.5q9 -2 18.5 -10.5t14.5 -30.5t-1 -66z" />
    <glyph glyph-name="bar" unicode="|" horiz-adv-x="105" 
d="M107 460l-86 -619h-23l86 619h23z" />
    <glyph glyph-name="braceright" unicode="}" horiz-adv-x="270" 
d="M127 52l12 81q6 44 17 66t23.5 30.5t21.5 10.5q-8 2 -18 11.5t-14.5 35t2.5 74.5l10 71q7 48 -7.5 61.5t-46.5 13.5h-48q1 3 1 5.5t0.5 5t0.5 4.5q49 0 76 -2.5t37.5 -15t9.5 -42t-9 -82.5q-8 -59 -6 -88t12 -37.5t27 -8.5v-4.5t-0.5 -5t-0.5 -4.5q-17 0 -30 -7
t-22.5 -34t-17.5 -87q-7 -53 -14 -82.5t-20.5 -42t-41.5 -15t-78 -2.5q0 3 0.5 5.5l1 5t0.5 4.5h26h24q32 0 49 15.5t23 59.5z" />
    <glyph glyph-name="asciitilde" unicode="~" horiz-adv-x="352" 
d="M45 492l6 8.5t16 19.5t24 19.5t30 8.5q15 0 29 -5t27.5 -12t27 -12t27.5 -5q21 0 33.5 9t19.5 19.5t10 15.5l10 -7l-5.5 -8.5t-15.5 -19.5t-23.5 -19.5t-30.5 -8.5q-15 0 -29.5 5t-28.5 12t-28 12.5t-29 5.5q-19 0 -31 -9t-18.5 -19.5t-10.5 -15.5z" />
    <glyph glyph-name="uni00A0" unicode="&#xa0;" horiz-adv-x="242" 
 />
    <glyph glyph-name="exclamdown" unicode="&#xa1;" horiz-adv-x="157" 
d="M115 234l-87 -325q-4 -17 -9 -24.5t-21 -7.5h-6l28 99l82 258h13zM164 367q-3 -11 -9 -14t-14 -3q-7 0 -12.5 2.5t-2.5 14.5q2 8 6 11t9 4t9 1t8 -1t6 -4t0 -11z" />
    <glyph glyph-name="cent" unicode="&#xa2;" horiz-adv-x="435" 
d="M203 52q-44 0 -77.5 10t-54 32.5t-28 62t1.5 97.5q9 61 30 108.5t65.5 75t120.5 27.5q47 0 78.5 -8t49 -25t23 -44t0.5 -65h-21q11 72 -21.5 98.5t-111.5 26.5q-64 0 -103 -23.5t-59.5 -67t-29.5 -102.5q-10 -76 5 -116t49.5 -54.5t83.5 -14.5q48 0 83 8.5t56.5 35
t28.5 78.5h22q-6 -45 -22.5 -72.5t-41.5 -42.5t-57 -20t-70 -5zM66 0l296 523h17l-295 -523h-18z" />
    <glyph glyph-name="sterling" unicode="&#xa3;" horiz-adv-x="458" 
d="M45 202h51l23 161q9 61 33 93t63 44t93 12q81 0 113.5 -32.5t24.5 -90.5l-4 -29h-23l5 36q5 38 -11 60t-45 32t-62 10q-34 0 -68.5 -8.5t-60 -36t-33.5 -86.5l-24 -165h107l-2 -15h-107l-6 -47q-6 -40 -16 -67t-19.5 -41t-14.5 -16h330l-2 -16h-373l2 12q16 0 29.5 16.5
t24.5 50.5t18 88l3 20h-51z" />
    <glyph glyph-name="currency" unicode="&#xa4;" horiz-adv-x="473" 
d="M363 469q22 -23 29 -61.5t1 -77.5t-24 -65l65 -78h-19l-80 52q-23 -9 -56.5 -12t-67 0.5t-59.5 12.5l-82 -53h-18l66 81q-16 25 -21.5 61.5t1.5 73.5t26 62l-72 90h18l92 -64q36 13 78 12.5t85 -10.5l90 62h19zM117 364q0 -54 16.5 -80t46 -34t67.5 -8q37 0 64.5 8
t43.5 34.5t16 79.5q0 54 -16 80t-43.5 34t-64.5 8q-38 0 -67.5 -8t-46 -34t-16.5 -80z" />
    <glyph glyph-name="yen" unicode="&#xa5;" horiz-adv-x="406" 
d="M161 0l26 190l-117 245l-14 25h27l120 -250l198 250h23l-22 -27l-191 -243l-24 -170q0 -6 -1 -10.5t-4 -7t-9 -2.5h-12zM78 161h242l-2 -15h-242zM63 104h242l-2 -15h-242z" />
    <glyph glyph-name="brokenbar" unicode="&#xa6;" horiz-adv-x="150" 
d="M71 88v-247h-23v247h23zM71 460v-252h-23v252h23z" />
    <glyph glyph-name="section" unicode="&#xa7;" horiz-adv-x="489" 
d="M41 -99q11 -10 28.5 -15.5t38 -8t40.5 -3.5t35 -1q36 0 68.5 3.5t58.5 14t43 32t22 56.5q8 52 -16.5 66t-72.5 14q-23 0 -46.5 -0.5t-46.5 0.5q-23 0 -46 2t-41.5 11t-27.5 28t-4 53q8 53 39 78t74 34q-23 8 -36.5 27.5t-7.5 59.5q6 39 25 62t47.5 34t62.5 14t70 3
q9 0 33.5 -1t52 -4.5t46.5 -10.5t17 -19q-1 -4 -1 -7.5t-1 -7.5q-7 11 -24.5 17.5t-39.5 10t-44 4.5t-39 1q-34 0 -65 -2.5t-56 -11.5t-41 -28.5t-21 -54.5t7.5 -51t37.5 -20.5t59 -4.5h43.5h43.5q36 0 63 -6t40.5 -27t6.5 -66q-4 -34 -21.5 -58t-41.5 -36.5t-50 -12.5
q26 -2 39 -25.5t7 -66.5q-7 -51 -35 -77t-74.5 -35t-107.5 -9q-9 0 -26.5 0.5t-38 2.5t-38.5 6t-29 10.5t-10 16.5q1 2 1 4.5v4.5zM329 77q47 0 78.5 30t36.5 70q5 30 -7 54t-52 25l-94 1h-24h-26.5t-9.5 0q-68 -4 -98 -32t-36 -60q-10 -49 9.5 -68.5t67.5 -19.5h155z" />
    <glyph glyph-name="dieresis" unicode="&#xa8;" horiz-adv-x="157" 
d="M172 460q-7 0 -13.5 3t-5.5 16q2 13 10 15.5t14 2.5q7 0 14 -2.5t5 -15.5q-1 -13 -8 -16t-16 -3zM58 460q-9 0 -14.5 3t-4.5 17q2 12 10 14.5t14 2.5q7 0 14 -2.5t5 -14.5q-1 -13 -8.5 -16.5t-15.5 -3.5z" />
    <glyph glyph-name="copyright" unicode="&#xa9;" horiz-adv-x="575" 
d="M28 243q10 72 52.5 125.5t105 83t134.5 29.5t126.5 -29.5t82 -83t17.5 -125.5q-10 -71 -53 -127.5t-106 -89t-135 -32.5q-71 0 -125.5 32.5t-81.5 89t-17 127.5zM44 243q-10 -68 15 -121.5t76 -84t118 -30.5t126.5 30.5t99.5 84t50 121.5q10 69 -16 119t-77 77.5
t-118 27.5t-126 -27.5t-98.5 -77.5t-49.5 -119zM302 380q32 0 57.5 -5t39 -22.5t7.5 -55.5q0 -2 -0.5 -4.5t-0.5 -5.5h-14q5 29 0 46t-19 26q-11 8 -29.5 10.5t-41.5 2.5q-31 0 -54 -9t-38 -26q-15 -16 -23.5 -40.5t-13.5 -54.5q-4 -31 -0.5 -56t17.5 -42q11 -13 29.5 -20
t46.5 -7q24 0 44 3t35 13q12 8 21 21t12 35q1 3 1 6t1 5h13v-4t-1 -4q-5 -36 -23 -54t-45 -24t-59 -6q-46 0 -71.5 14.5t-33.5 44t-2 74.5q6 41 20 72t44 49t81 18z" />
    <glyph glyph-name="ordfeminine" unicode="&#xaa;" horiz-adv-x="329" 
d="M41 244h238v-9h-238v9zM141 306q-36 0 -58.5 5t-34 16t-13.5 27.5t1 40.5q5 35 17 54t35.5 26.5t63.5 7.5q18 0 37 -1t36.5 -2.5t30 -3.5t16.5 -3q6 39 2.5 61t-15.5 33t-30.5 14t-42.5 3q-23 0 -46.5 -2.5t-41.5 -7t-26 -13.5l1 5q2 12 12 16.5t18 6.5q13 3 35.5 5.5
t44.5 2.5q28 0 50.5 -3.5t36.5 -14t19.5 -33t0.5 -60.5l-21 -149q-2 -16 -29.5 -23.5t-98.5 -7.5zM143 318q60 0 84.5 5.5t27.5 16.5l15 120q-5 2 -23.5 5t-40.5 5t-39 2q-38 0 -61.5 -4.5t-36 -20.5t-17.5 -51q-4 -26 0.5 -43.5t25 -26t65.5 -8.5z" />
    <glyph glyph-name="guillemotleft" unicode="&#xab;" horiz-adv-x="342" 
d="M64 264l65 -186h-18l-69 186l121 187h17zM198 264l65 -186h-18l-69 186l121 187h17z" />
    <glyph glyph-name="logicalnot" unicode="&#xac;" horiz-adv-x="502" 
d="M446 289h-394l3 23h411l-27 -180h-16z" />
    <glyph glyph-name="uni00AD" unicode="&#xad;" horiz-adv-x="302" 
d="M53 210h198l-2 -16h-198z" />
    <glyph glyph-name="registered" unicode="&#xae;" horiz-adv-x="409" 
d="M68 435q0 -38 18.5 -70t50 -51t69.5 -19q39 0 70.5 19t49.5 51t18 70q0 39 -18 70.5t-49.5 50t-70.5 18.5q-38 0 -69.5 -18.5t-50 -50t-18.5 -70.5zM50 435q0 43 21 78.5t56.5 56.5t78.5 21q44 0 79 -21t56 -56.5t21 -78.5t-21 -78.5t-56 -56.5t-79 -21q-43 0 -78.5 21
t-56.5 56.5t-21 78.5zM257 430l-12 0.5t-33 0t-47 -0.5l-22 -80h-9l44 159q3 11 8 14t13 3q6 0 13.5 0.5t16.5 0.5h18.5h18t16 -0.5t11.5 -0.5q18 -2 23 -14t-1 -33q-4 -15 -12.5 -25.5t-19.5 -16.5h-2h-2v-1h1h2q9 -2 11.5 -6.5t2 -11t-1.5 -12.5l-14 -50q0 -1 -0.5 -3.5
l-0.5 -2.5h-4q-3 0 -4 1t0 7l14 50q4 12 0 17t-16 5h-12zM167 438h18.5h27t27.5 -0.5t18 -0.5q15 0 28 9t20 34q5 17 1.5 27t-16.5 11q-9 1 -22 1.5t-26.5 0.5t-25.5 -0.5t-18 -0.5q-1 0 -6 -1.5t-7 -8.5z" />
    <glyph glyph-name="macron" unicode="&#xaf;" horiz-adv-x="197" 
d="M37 461l2 18h189l-2 -18h-189z" />
    <glyph glyph-name="degree" unicode="&#xb0;" horiz-adv-x="284" 
d="M45 502q5 35 22 60.5t41.5 39.5t51.5 14t47.5 -14t30.5 -39.5t5 -60.5q-5 -34 -22 -61t-41.5 -42.5t-51.5 -15.5t-47.5 15.5t-30 42.5t-5.5 61zM81 502q-4 -35 11 -56.5t41 -21.5t47.5 21.5t25.5 56.5q5 33 -10 53t-41 20t-47.5 -19.5t-26.5 -53.5z" />
    <glyph glyph-name="plusminus" unicode="&#xb1;" horiz-adv-x="453" 
d="M47 16h298l-2 -16h-298zM85 295h139l23 159h19l-23 -159h140l-3 -20h-140l-24 -174h-19l25 174h-139z" />
    <glyph glyph-name="uni00B2" unicode="&#xb2;" horiz-adv-x="244" 
d="M32 260q2 14 4.5 28.5t3.5 28.5q4 27 12 43.5t20 24.5t27 10.5t34 2.5h21.5h20.5q23 0 40 14t22 48q3 27 -3.5 40t-27.5 18q-10 2 -19.5 3t-23.5 1q-15 0 -31.5 -2t-30.5 -6q-7 -2 -13.5 -4.5t-11 -5t-7.5 -6.5l2 14q2 9 17.5 15t36.5 8.5t37 2.5q40 0 62 -7t29.5 -24
t3.5 -47q-4 -33 -17 -50t-30 -23t-34 -6h-21.5h-23.5q-30 0 -48.5 -11.5t-23.5 -48.5l-6 -46h178l-3 -15h-196z" />
    <glyph glyph-name="uni00B3" unicode="&#xb3;" horiz-adv-x="241" 
d="M118 256q-22 0 -48 2.5t-37 7.5q-4 2 -6 4.5t-1 9.5l1 5q13 -5 35 -9t56 -4q41 0 67 12.5t31 51.5q5 37 -6.5 46.5t-28.5 9.5h-106l2 15h106q17 0 28.5 12.5t15.5 41.5q5 38 -10.5 49.5t-49.5 11.5h-7.5h-7.5q-17 0 -35 -2t-31.5 -5t-18.5 -5l1 7q1 5 3.5 7.5t9.5 4.5
q11 4 33 6.5t50 2.5q40 0 59 -8t24 -25t1 -44q-4 -25 -14.5 -41.5t-24.5 -18.5v-1q17 -1 24.5 -15t2.5 -49q-4 -31 -17.5 -48.5t-38 -24.5t-62.5 -7z" />
    <glyph glyph-name="acute" unicode="&#xb4;" horiz-adv-x="118" 
d="M37 460l111 103l16 -19l-112 -84h-15z" />
    <glyph glyph-name="uni03BC" unicode="&#xb5;" horiz-adv-x="429" 
d="M195 -3q-54 0 -90.5 16.5t-44.5 45.5q-5 -34 -7.5 -53.5t-5.5 -39.5t-8 -53q-1 -9 -2 -17.5t-2.5 -16t-2.5 -14.5l-2 -14h-5.5h-5.5q-8 0 -8.5 5t0.5 15q13 92 24.5 172.5l23 161t24.5 172.5q2 11 3.5 15.5t5 5.5t10.5 1h1h2h2h1q-1 -3 -1.5 -6t-0.5 -6
q-10 -67 -19 -132.5t-19 -132.5q-4 -44 13.5 -67.5t48.5 -32t66 -8.5q37 0 70.5 8t58 34.5t31.5 83.5q8 61 17 120.5t17 120.5q1 5 1.5 9.5t1.5 8.5h1h1.5h1.5h1q9 0 12.5 -1.5t3 -7.5t-3.5 -22l-28 -209q-6 -37 -15 -67t-28 -51t-53.5 -32.5t-90.5 -11.5z" />
    <glyph glyph-name="paragraph" unicode="&#xb6;" horiz-adv-x="342" 
d="M289 528l-92 -650h-24l55 386q-65 0 -98.5 14t-43 44.5t-2.5 78.5q7 47 25.5 75t55.5 40t99 12h25z" />
    <glyph glyph-name="periodcentered" unicode="&#xb7;" horiz-adv-x="167" 
d="M65 217q2 11 8 14t13 3q8 0 14 -3t4 -14q-1 -7 -4.5 -10.5t-8 -4.5t-8.5 -1t-8.5 1t-7.5 4.5t-2 10.5z" />
    <glyph glyph-name="cedilla" unicode="&#xb8;" horiz-adv-x="144" 
d="M-6 -185q-23 0 -33 3t-9 12h24.5h45.5q29 0 40.5 9.5t13.5 28.5q4 27 -3.5 35t-43.5 8h-31h-13t-13.5 -0.5t-11.5 -0.5q2 3 13 15t26 27.5t28 29.5t18 20h12l-66 -79q47 3 71 0.5t30.5 -15t2.5 -40.5t-19 -39t-36.5 -12.5t-45.5 -1.5z" />
    <glyph glyph-name="uni00B9" unicode="&#xb9;" horiz-adv-x="126" 
d="M71 260l32 232q3 19 -1.5 24.5t-16.5 5.5q-9 0 -19.5 -2.5t-15.5 -4.5l2 14q7 2 19 5t26 3q17 0 22 -10t2 -31l-31 -236h-19z" />
    <glyph glyph-name="ordmasculine" unicode="&#xba;" horiz-adv-x="327" 
d="M39 463q0 66 18 96.5t47 38.5t63 8t61.5 -9t43.5 -39.5t16 -94.5q0 -66 -18 -96t-47 -38t-63 -8t-61.5 8.5t-43.5 39t-16 94.5zM272 462q0 59 -12.5 87t-37 36.5t-59.5 8.5q-34 0 -58 -8.5t-36.5 -36.5t-12.5 -87q0 -58 12.5 -86t36.5 -36.5t58 -8.5q35 0 59.5 8.5
t37 36.5t12.5 86zM41 244h238v-9h-238v9z" />
    <glyph glyph-name="guillemotright" unicode="&#xbb;" horiz-adv-x="342" 
d="M69 451h17l69 -187l-121 -186h-18l117 186zM202 451h17l69 -187l-121 -186h-18l117 186z" />
    <glyph glyph-name="onequarter" unicode="&#xbc;" horiz-adv-x="479" 
d="M71 260l32 232q3 19 -1.5 24.5t-16.5 5.5q-9 0 -19.5 -2.5t-15.5 -4.5l2 14q7 2 19 5t26 3q17 0 22 -10t2 -31l-31 -236h-19zM397 528l-366 -600h-19l365 600h20zM368 -70l9 67h-165l2 13l178 183q8 8 16.5 10.5t17.5 2.5q0 -1 -0.5 -8t-1.5 -10l-25 -175h33l-2 -16h-33
l-9 -67h-20zM241 13h138l25 169z" />
    <glyph glyph-name="onehalf" unicode="&#xbd;" horiz-adv-x="520" 
d="M71 260l32 232q3 19 -1.5 24.5t-16.5 5.5q-9 0 -19.5 -2.5t-15.5 -4.5l2 14q7 2 19 5t26 3q17 0 22 -10t2 -31l-31 -236h-19zM397 528l-366 -600h-19l365 600h20zM262 -70q2 14 4.5 28.5t3.5 28.5q4 27 12 43.5t20 24.5t27 10.5t34 2.5h21.5h20.5q23 0 40 14t22 48
q3 27 -3.5 40t-27.5 18q-10 2 -19.5 3t-23.5 1q-15 0 -31.5 -2t-30.5 -6q-7 -2 -13.5 -4.5t-11 -5t-7.5 -6.5l2 14q2 9 17.5 15t36.5 8.5t37 2.5q40 0 62 -7t29.5 -24t3.5 -47q-4 -33 -17 -50t-30 -23t-34 -6h-21.5h-23.5q-30 0 -48.5 -11.5t-23.5 -48.5l-6 -46h178l-3 -15
h-196z" />
    <glyph glyph-name="threequarters" unicode="&#xbe;" horiz-adv-x="594" 
d="M118 256q-22 0 -48 2.5t-37 7.5q-4 2 -6 4.5t-1 9.5l1 5q13 -5 35 -9t56 -4q41 0 67 12.5t31 51.5q5 37 -6.5 46.5t-28.5 9.5h-106l2 15h106q17 0 28.5 12.5t15.5 41.5q5 38 -10.5 49.5t-49.5 11.5h-7.5h-7.5q-17 0 -35 -2t-31.5 -5t-18.5 -5l1 7q1 5 3.5 7.5t9.5 4.5
q11 4 33 6.5t50 2.5q40 0 59 -8t24 -25t1 -44q-4 -25 -14.5 -41.5t-24.5 -18.5v-1q17 -1 24.5 -15t2.5 -49q-4 -31 -17.5 -48.5t-38 -24.5t-62.5 -7zM512 528l-366 -600h-19l365 600h20zM483 -70l9 67h-165l2 13l178 183q8 8 16.5 10.5t17.5 2.5q0 -1 -0.5 -8t-1.5 -10
l-25 -175h33l-2 -16h-33l-9 -67h-20zM356 13h138l25 169z" />
    <glyph glyph-name="questiondown" unicode="&#xbf;" horiz-adv-x="345" 
d="M287 263h12q-3 -14 -7 -28.5t-7.5 -29.5t-7 -29.5t-7.5 -28.5q-6 1 -19.5 1h-28t-22.5 -1q-77 -1 -118.5 -24t-60.5 -91q-15 -58 5 -81.5t95 -23.5h75q13 0 24 1t18.5 2t12 2t5.5 1q0 -1 -0.5 -2.5t-1 -2.5t-0.5 -2q-3 -9 -17 -11t-30 -3q-11 0 -32 -0.5t-42.5 0
t-34.5 0.5q-39 2 -66.5 10t-37 33.5t4.5 77.5q14 48 39 74.5t58.5 38t74 14t84.5 2.5zM336 355q-3 -11 -9.5 -14t-14.5 -3q-7 0 -12 2.5t-2 14.5q2 8 5.5 11t8.5 4t9 1t8 -1t6.5 -4t0.5 -11z" />
    <glyph glyph-name="Agrave" unicode="&#xc0;" horiz-adv-x="445" 
d="M-10 0l175 399q14 32 32.5 48.5t60.5 16.5q41 0 54.5 -15t18.5 -50l65 -399h-24l-24 141h-275l-62 -141h-21zM81 159h265l-39 238q-3 19 -12.5 33.5t-41.5 14.5q-37 0 -49.5 -15t-20.5 -33zM281 520l-87 65l21 20l81 -85h-15z" />
    <glyph glyph-name="Aacute" unicode="&#xc1;" horiz-adv-x="445" 
d="M-10 0l175 399q14 32 32.5 48.5t60.5 16.5q41 0 54.5 -15t18.5 -50l65 -399h-24l-24 141h-275l-62 -141h-21zM81 159h265l-39 238q-3 19 -12.5 33.5t-41.5 14.5q-37 0 -49.5 -15t-20.5 -33zM245 521l106 84l14 -19l-105 -65h-15z" />
    <glyph glyph-name="Acircumflex" unicode="&#xc2;" horiz-adv-x="445" 
d="M-10 0l175 399q14 32 32.5 48.5t60.5 16.5q41 0 54.5 -15t18.5 -50l65 -399h-24l-24 141h-275l-62 -141h-21zM81 159h265l-39 238q-3 19 -12.5 33.5t-41.5 14.5q-37 0 -49.5 -15t-20.5 -33zM181 521l88 84h18l65 -84h-18l-59 66l-77 -66h-17z" />
    <glyph glyph-name="Atilde" unicode="&#xc3;" horiz-adv-x="445" 
d="M-10 0l175 399q14 32 32.5 48.5t60.5 16.5q41 0 54.5 -15t18.5 -50l65 -399h-24l-24 141h-275l-62 -141h-21zM81 159h265l-39 238q-3 19 -12.5 33.5t-41.5 14.5q-37 0 -49.5 -15t-20.5 -33zM311 519q-15 0 -29.5 8.5t-28.5 16.5t-29 8q-16 0 -27 -9.5t-16 -17.5l-10 8
q2 3 6 9.5t11.5 13.5t17.5 12.5t23 5.5q16 0 29.5 -9t27.5 -17.5t28 -8.5q20 0 30.5 11.5t14.5 19.5l10 -10q-1 -3 -5.5 -9.5t-12 -13.5t-17.5 -12.5t-23 -5.5z" />
    <glyph glyph-name="Adieresis" unicode="&#xc4;" horiz-adv-x="445" 
d="M323 521q-8 0 -14 3t-3 16q4 13 12.5 15.5t14.5 2.5q7 0 13.5 -2.5t2.5 -15.5q-3 -13 -10 -16t-16 -3zM209 521q-9 0 -14.5 3t-2.5 17q4 12 12.5 14.5t14.5 2.5q7 0 13.5 -2.5t2.5 -14.5q-3 -13 -10.5 -16.5t-15.5 -3.5zM-10 0l175 399q14 32 32.5 48.5t60.5 16.5
q41 0 54.5 -15t18.5 -50l65 -399h-24l-24 141h-275l-62 -141h-21zM81 159h265l-39 238q-3 19 -12.5 33.5t-41.5 14.5q-37 0 -49.5 -15t-20.5 -33z" />
    <glyph glyph-name="Aring" unicode="&#xc5;" horiz-adv-x="445" 
d="M-10 0l175 399q14 32 32.5 48.5t60.5 16.5q41 0 54.5 -15t18.5 -50l65 -399h-24l-24 141h-275l-62 -141h-21zM81 159h265l-39 238q-3 19 -12.5 33.5t-41.5 14.5q-37 0 -49.5 -15t-20.5 -33zM266 522q-24 0 -36.5 5t-16 14t-1.5 22t8 22t20 13.5t38 4.5q25 0 37.5 -4.5
t16 -13.5t1.5 -22q-4 -19 -16.5 -30t-50.5 -11zM268 535q20 0 32 5.5t14 22.5t-8 22.5t-30 5.5q-19 0 -31.5 -5.5t-14.5 -22.5t8 -22.5t30 -5.5z" />
    <glyph glyph-name="AE" unicode="&#xc6;" horiz-adv-x="710" 
d="M-32 0q29 40 58.5 79.5l59 79t58.5 79t58.5 79t59.5 79.5q21 29 39 42.5t34.5 17.5t30.5 4h355q-1 -5 -1.5 -9.5t-1.5 -9.5h-343l-27 -187h318l-3 -19h-158h-159l-31 -216h344l-2 -19h-184h-184l20 141h-214q-27 -35 -53 -70.5t-52 -70.5h-22zM108 159h102h101
q10 71 20 140.5t19 139.5h-2.5h-3.5q-17 0 -32 -12.5t-28 -30.5q-43 -59 -87.5 -118.5t-88.5 -118.5z" />
    <glyph glyph-name="Ccedilla" unicode="&#xc7;" horiz-adv-x="480" 
d="M53 230q10 72 30.5 118.5t52 72t76 35.5t103.5 10q35 0 68 -2.5t66 -9.5q22 -4 28 -9t5 -13l-1 -10q-13 8 -43.5 14t-65 9t-62.5 3q-76 0 -123 -20.5t-72 -68t-37 -129.5q-11 -83 -1 -131t51 -68.5t121 -20.5q28 0 63 3t66.5 9t47.5 13l-2 -9q-1 -7 -8.5 -12.5
t-30.5 -9.5q-34 -7 -68 -9.5t-69 -2.5q-61 0 -103.5 10t-66 35.5t-29.5 72t4 120.5zM191 -185q-23 0 -33 3t-9 12h24.5h45.5q29 0 40.5 9.5t13.5 28.5q4 27 -3.5 35t-43.5 8h-31h-13t-13.5 -0.5t-11.5 -0.5q2 3 13 15t26 27.5t28 29.5t18 20h12l-66 -79q47 3 71 0.5
t30.5 -15t2.5 -40.5t-19 -39t-36.5 -12.5t-45.5 -1.5z" />
    <glyph glyph-name="Egrave" unicode="&#xc8;" horiz-adv-x="511" 
d="M72 0l62 440q1 7 1.5 11t3.5 6.5t8 2.5h357l-2 -19h-344l-27 -187h318l-2 -19h-318l-31 -216h345l-3 -19h-368zM342 520l-87 65l21 20l81 -85h-15z" />
    <glyph glyph-name="Eacute" unicode="&#xc9;" horiz-adv-x="511" 
d="M72 0l62 440q1 7 1.5 11t3.5 6.5t8 2.5h357l-2 -19h-344l-27 -187h318l-2 -19h-318l-31 -216h345l-3 -19h-368zM306 521l106 84l14 -19l-105 -65h-15z" />
    <glyph glyph-name="Ecircumflex" unicode="&#xca;" horiz-adv-x="511" 
d="M72 0l62 440q1 7 1.5 11t3.5 6.5t8 2.5h357l-2 -19h-344l-27 -187h318l-2 -19h-318l-31 -216h345l-3 -19h-368zM242 521l88 84h18l65 -84h-18l-59 66l-77 -66h-17z" />
    <glyph glyph-name="Edieresis" unicode="&#xcb;" horiz-adv-x="511" 
d="M384 521q-8 0 -14 3t-3 16q4 13 12.5 15.5t14.5 2.5q7 0 13.5 -2.5t2.5 -15.5q-3 -13 -10 -16t-16 -3zM270 521q-9 0 -14.5 3t-2.5 17q4 12 12.5 14.5t14.5 2.5q7 0 13.5 -2.5t2.5 -14.5q-3 -13 -10.5 -16.5t-15.5 -3.5zM72 0l62 440q1 7 1.5 11t3.5 6.5t8 2.5h357
l-2 -19h-344l-27 -187h318l-2 -19h-318l-31 -216h345l-3 -19h-368z" />
    <glyph glyph-name="Igrave" unicode="&#xcc;" horiz-adv-x="224" 
d="M72 0q15 110 30.5 220t31.5 220q1 7 1.5 11t3.5 6.5t8 2.5h13l-64 -460h-24zM174 520l-87 65l21 20l81 -85h-15z" />
    <glyph glyph-name="Iacute" unicode="&#xcd;" horiz-adv-x="224" 
d="M72 0q15 110 30.5 220t31.5 220q1 7 1.5 11t3.5 6.5t8 2.5h13l-64 -460h-24zM138 521l106 84l14 -19l-105 -65h-15z" />
    <glyph glyph-name="Icircumflex" unicode="&#xce;" horiz-adv-x="224" 
d="M72 0q15 110 30.5 220t31.5 220q1 7 1.5 11t3.5 6.5t8 2.5h13l-64 -460h-24zM74 521l88 84h18l65 -84h-18l-59 66l-77 -66h-17z" />
    <glyph glyph-name="Idieresis" unicode="&#xcf;" horiz-adv-x="224" 
d="M216 521q-8 0 -14 3t-3 16q4 13 12.5 15.5t14.5 2.5q7 0 13.5 -2.5t2.5 -15.5q-3 -13 -10 -16t-16 -3zM102 521q-9 0 -14.5 3t-2.5 17q4 12 12.5 14.5t14.5 2.5q7 0 13.5 -2.5t2.5 -14.5q-3 -13 -10.5 -16.5t-15.5 -3.5zM72 0q15 110 30.5 220t31.5 220q1 7 1.5 11
t3.5 6.5t8 2.5h13l-64 -460h-24z" />
    <glyph glyph-name="Eth" unicode="&#xd0;" horiz-adv-x="573" 
d="M247 -3q-18 0 -44 0.5t-52.5 1t-47 1t-28.5 0.5l56 398q5 30 12 44.5t41 17.5q11 1 34.5 1.5t52 1t54.5 0.5t41 -1q56 -3 92 -12.5t55 -33t22.5 -69.5t-7.5 -122q-11 -80 -32 -126.5t-54.5 -68t-81.5 -27.5t-113 -6zM262 16q60 0 101.5 7.5t69.5 29t45 63t26 108.5
q10 72 6.5 115.5t-23.5 66.5t-59 30.5t-99 7.5h-31.5t-43.5 -0.5t-43 -1.5t-30 -3t-16.5 -8t-9.5 -29l-54 -383q6 0 27 -0.5t47.5 -1t50.5 -1t36 -0.5zM66 239h219l-2 -17h-219z" />
    <glyph glyph-name="Ntilde" unicode="&#xd1;" horiz-adv-x="598" 
d="M72 0l60 428q2 15 3.5 22t4.5 8.5t11 1.5h14l287 -434l1 11l60 423h22q-1 -1 -2 -5t-2 -8.5t-2 -9.5l-56 -405q-3 -22 -5.5 -27t-14.5 -5h-15l-286 434l-1 -8l-59 -426h-20zM393 519q-15 0 -29.5 8.5t-28.5 16.5t-29 8q-16 0 -27 -9.5t-16 -17.5l-10 8q2 3 6 9.5
t11.5 13.5t17.5 12.5t23 5.5q16 0 29.5 -9t27.5 -17.5t28 -8.5q20 0 30.5 11.5t14.5 19.5l10 -10q-1 -3 -5.5 -9.5t-12 -13.5t-17.5 -12.5t-23 -5.5z" />
    <glyph glyph-name="Ograve" unicode="&#xd2;" horiz-adv-x="555" 
d="M243 -7q-47 0 -86.5 7.5t-67 31t-37.5 71t1 128.5q12 83 37.5 131t61.5 71t79 29.5t89 6.5q47 0 86.5 -7.5t67 -31t37.5 -71t-1 -128.5q-12 -83 -37.5 -131t-61.5 -71t-78.5 -29.5t-89.5 -6.5zM250 11q48 0 87 7.5t68 29.5t49 66t30 116q10 73 2.5 117t-31 66.5t-60 30
t-84.5 7.5t-86 -7.5t-67.5 -30t-49 -66.5t-29.5 -117q-10 -72 -3 -116t30 -66t59.5 -29.5t84.5 -7.5zM342 520l-87 65l21 20l81 -85h-15z" />
    <glyph glyph-name="Oacute" unicode="&#xd3;" horiz-adv-x="555" 
d="M243 -7q-47 0 -86.5 7.5t-67 31t-37.5 71t1 128.5q12 83 37.5 131t61.5 71t79 29.5t89 6.5q47 0 86.5 -7.5t67 -31t37.5 -71t-1 -128.5q-12 -83 -37.5 -131t-61.5 -71t-78.5 -29.5t-89.5 -6.5zM250 11q48 0 87 7.5t68 29.5t49 66t30 116q10 73 2.5 117t-31 66.5t-60 30
t-84.5 7.5t-86 -7.5t-67.5 -30t-49 -66.5t-29.5 -117q-10 -72 -3 -116t30 -66t59.5 -29.5t84.5 -7.5zM306 521l106 84l14 -19l-105 -65h-15z" />
    <glyph glyph-name="Ocircumflex" unicode="&#xd4;" horiz-adv-x="555" 
d="M243 -7q-47 0 -86.5 7.5t-67 31t-37.5 71t1 128.5q12 83 37.5 131t61.5 71t79 29.5t89 6.5q47 0 86.5 -7.5t67 -31t37.5 -71t-1 -128.5q-12 -83 -37.5 -131t-61.5 -71t-78.5 -29.5t-89.5 -6.5zM250 11q48 0 87 7.5t68 29.5t49 66t30 116q10 73 2.5 117t-31 66.5t-60 30
t-84.5 7.5t-86 -7.5t-67.5 -30t-49 -66.5t-29.5 -117q-10 -72 -3 -116t30 -66t59.5 -29.5t84.5 -7.5zM242 521l88 84h18l65 -84h-18l-59 66l-77 -66h-17z" />
    <glyph glyph-name="Otilde" unicode="&#xd5;" horiz-adv-x="555" 
d="M243 -7q-47 0 -86.5 7.5t-67 31t-37.5 71t1 128.5q12 83 37.5 131t61.5 71t79 29.5t89 6.5q47 0 86.5 -7.5t67 -31t37.5 -71t-1 -128.5q-12 -83 -37.5 -131t-61.5 -71t-78.5 -29.5t-89.5 -6.5zM250 11q48 0 87 7.5t68 29.5t49 66t30 116q10 73 2.5 117t-31 66.5t-60 30
t-84.5 7.5t-86 -7.5t-67.5 -30t-49 -66.5t-29.5 -117q-10 -72 -3 -116t30 -66t59.5 -29.5t84.5 -7.5zM372 519q-15 0 -29.5 8.5t-28.5 16.5t-29 8q-16 0 -27 -9.5t-16 -17.5l-10 8q2 3 6 9.5t11.5 13.5t17.5 12.5t23 5.5q16 0 29.5 -9t27.5 -17.5t28 -8.5q20 0 30.5 11.5
t14.5 19.5l10 -10q-1 -3 -5.5 -9.5t-12 -13.5t-17.5 -12.5t-23 -5.5z" />
    <glyph glyph-name="Odieresis" unicode="&#xd6;" horiz-adv-x="555" 
d="M384 521q-8 0 -14 3t-3 16q4 13 12.5 15.5t14.5 2.5q7 0 13.5 -2.5t2.5 -15.5q-3 -13 -10 -16t-16 -3zM270 521q-9 0 -14.5 3t-2.5 17q4 12 12.5 14.5t14.5 2.5q7 0 13.5 -2.5t2.5 -14.5q-3 -13 -10.5 -16.5t-15.5 -3.5zM243 -7q-47 0 -86.5 7.5t-67 31t-37.5 71t1 128.5
q12 83 37.5 131t61.5 71t79 29.5t89 6.5q47 0 86.5 -7.5t67 -31t37.5 -71t-1 -128.5q-12 -83 -37.5 -131t-61.5 -71t-78.5 -29.5t-89.5 -6.5zM250 11q48 0 87 7.5t68 29.5t49 66t30 116q10 73 2.5 117t-31 66.5t-60 30t-84.5 7.5t-86 -7.5t-67.5 -30t-49 -66.5t-29.5 -117
q-10 -72 -3 -116t30 -66t59.5 -29.5t84.5 -7.5z" />
    <glyph glyph-name="multiply" unicode="&#xd7;" horiz-adv-x="373" 
d="M172 198l-134 151l15 13l133 -149l137 148l15 -14l-139 -149l124 -136l-17 -16l-121 137l-127 -139l-14 14z" />
    <glyph glyph-name="Oslash" unicode="&#xd8;" horiz-adv-x="537" 
d="M42 231q12 83 38 131t62 71t79 29.5t89 6.5q47 0 86 -7.5t66 -30.5t37.5 -71t-1.5 -129q-12 -83 -37.5 -131t-61.5 -71t-79 -29.5t-89 -6.5q-47 0 -86.5 7.5t-66.5 30.5t-37 71t1 129zM473 230q10 73 2.5 117t-31 66.5t-60 30t-84.5 7.5q-47 0 -85.5 -7.5t-68 -30
t-49 -66.5t-30.5 -117q-10 -72 -2.5 -116t30.5 -66t59 -29.5t84 -7.5t87 7.5t68.5 29.5t49.5 66t30 116zM78 -82l319 607h19l-321 -607h-17z" />
    <glyph glyph-name="Ugrave" unicode="&#xd9;" horiz-adv-x="560" 
d="M467 178q-4 -27 -9 -53t-17 -49t-35 -41t-61 -28t-96 -10q-56 0 -90 10t-51.5 28t-22.5 40.5t-3.5 48.5t5.5 52l38 264q1 8 2.5 12.5t4.5 6t8 1.5h12l-46 -320q-6 -46 6.5 -73t47 -39t93.5 -12q89 0 132 29.5t53 95.5l45 319h11q6 0 8.5 -1.5t2.5 -6t-1 -12.5zM344 520
l-87 65l21 20l81 -85h-15z" />
    <glyph glyph-name="Uacute" unicode="&#xda;" horiz-adv-x="560" 
d="M467 178q-4 -27 -9 -53t-17 -49t-35 -41t-61 -28t-96 -10q-56 0 -90 10t-51.5 28t-22.5 40.5t-3.5 48.5t5.5 52l38 264q1 8 2.5 12.5t4.5 6t8 1.5h12l-46 -320q-6 -46 6.5 -73t47 -39t93.5 -12q89 0 132 29.5t53 95.5l45 319h11q6 0 8.5 -1.5t2.5 -6t-1 -12.5zM308 521
l106 84l14 -19l-105 -65h-15z" />
    <glyph glyph-name="Ucircumflex" unicode="&#xdb;" horiz-adv-x="560" 
d="M467 178q-4 -27 -9 -53t-17 -49t-35 -41t-61 -28t-96 -10q-56 0 -90 10t-51.5 28t-22.5 40.5t-3.5 48.5t5.5 52l38 264q1 8 2.5 12.5t4.5 6t8 1.5h12l-46 -320q-6 -46 6.5 -73t47 -39t93.5 -12q89 0 132 29.5t53 95.5l45 319h11q6 0 8.5 -1.5t2.5 -6t-1 -12.5zM244 521
l88 84h18l65 -84h-18l-59 66l-77 -66h-17z" />
    <glyph glyph-name="Udieresis" unicode="&#xdc;" horiz-adv-x="560" 
d="M386 521q-8 0 -14 3t-3 16q4 13 12.5 15.5t14.5 2.5q7 0 13.5 -2.5t2.5 -15.5q-3 -13 -10 -16t-16 -3zM272 521q-9 0 -14.5 3t-2.5 17q4 12 12.5 14.5t14.5 2.5q7 0 13.5 -2.5t2.5 -14.5q-3 -13 -10.5 -16.5t-15.5 -3.5zM467 178q-4 -27 -9 -53t-17 -49t-35 -41t-61 -28
t-96 -10q-56 0 -90 10t-51.5 28t-22.5 40.5t-3.5 48.5t5.5 52l38 264q1 8 2.5 12.5t4.5 6t8 1.5h12l-46 -320q-6 -46 6.5 -73t47 -39t93.5 -12q89 0 132 29.5t53 95.5l45 319h11q6 0 8.5 -1.5t2.5 -6t-1 -12.5z" />
    <glyph glyph-name="Yacute" unicode="&#xdd;" horiz-adv-x="406" 
d="M161 0l26 190l-117 245l-14 25h27l120 -250l198 250h23l-22 -27l-191 -243l-24 -170q0 -6 -1 -10.5t-4 -7t-9 -2.5h-12zM255 521l106 84l14 -19l-105 -65h-15z" />
    <glyph glyph-name="Thorn" unicode="&#xde;" horiz-adv-x="457" 
d="M70 459q3 16 4.5 25t4.5 13.5t10 4.5h10l-13 -92h218q44 0 67.5 -15t30 -45.5t-0.5 -78.5q-6 -46 -23.5 -78t-47.5 -48.5t-75 -16.5h-208l-18 -128h-23zM85 395l-36 -252h220q24 0 46.5 10t40 38t24.5 81q8 52 -2.5 78.5t-31.5 35.5t-45 9h-216z" />
    <glyph glyph-name="germandbls" unicode="&#xdf;" horiz-adv-x="589" 
d="M-25 -146q3 -1 7 -3t11.5 -3t17.5 -1q22 0 39 11.5t22 49.5l12 86t12 85.5l12 85t12.5 85.5t12.5 86h-17h-24h-17q0 3 0.5 5t1 5t0.5 6h17h24h17l8 59q6 37 31 57.5t58 29t63 8.5q37 0 69 -6.5t47 -28t2 -66.5q-3 -10 -8.5 -14t-11.5 -4h-13q-34 0 -70.5 -5t-63.5 -25
t-33 -66q-5 -35 7 -51t37.5 -20.5t58.5 -4.5h43.5h43.5q36 0 63 -6t40 -27.5t6 -66.5q-7 -50 -37 -76t-75.5 -35t-99.5 -9q-12 0 -35.5 1t-48.5 4.5t-42 10.5t-16 19l1 9q14 -12 40 -18t54.5 -7.5t48.5 -1.5q51 0 91.5 7t66.5 29.5t32 68.5q7 52 -17 66t-71 14h-31.5h-30.5
h-31q-31 0 -61 4.5t-47 24t-11 64.5q8 53 37.5 76.5t73 30t91.5 6.5q14 38 0 57t-41.5 25t-57.5 6q-27 0 -55.5 -7t-50 -27t-27.5 -58l-69 -491q-2 -15 -6.5 -27t-10.5 -21t-14.5 -14.5t-19 -8.5t-22.5 -3q-6 0 -17 0.5t-20 5t-8 14.5z" />
    <glyph glyph-name="agrave" unicode="&#xe0;" horiz-adv-x="453" 
d="M187 -8q-52 0 -84 7t-48 22t-19.5 39t1.5 58q7 51 24 78t51 37t90 10q25 0 52.5 -1.5t52.5 -3.5t42.5 -4.5t23.5 -4.5q9 55 3.5 87t-22.5 47t-43.5 19.5t-59.5 4.5t-66.5 -3t-59.5 -10t-37 -19l2 7q2 17 16.5 23t26.5 9q18 5 50 8t63 3q41 0 72.5 -4.5t51.5 -20t28 -47
t0 -86.5l-29 -211q-3 -23 -42 -33.5t-140 -10.5zM189 9q86 0 121 7.5t38 23.5l22 170q-7 4 -33 7.5t-57.5 6.5t-55.5 3q-54 0 -88 -5.5t-51.5 -28.5t-24.5 -74q-5 -37 1 -61.5t35 -36.5t93 -12zM256 460l-87 84l20 19l83 -103h-16z" />
    <glyph glyph-name="aacute" unicode="&#xe1;" horiz-adv-x="453" 
d="M187 -8q-52 0 -84 7t-48 22t-19.5 39t1.5 58q7 51 24 78t51 37t90 10q25 0 52.5 -1.5t52.5 -3.5t42.5 -4.5t23.5 -4.5q9 55 3.5 87t-22.5 47t-43.5 19.5t-59.5 4.5t-66.5 -3t-59.5 -10t-37 -19l2 7q2 17 16.5 23t26.5 9q18 5 50 8t63 3q41 0 72.5 -4.5t51.5 -20t28 -47
t0 -86.5l-29 -211q-3 -23 -42 -33.5t-140 -10.5zM189 9q86 0 121 7.5t38 23.5l22 170q-7 4 -33 7.5t-57.5 6.5t-55.5 3q-54 0 -88 -5.5t-51.5 -28.5t-24.5 -74q-5 -37 1 -61.5t35 -36.5t93 -12zM239 460l111 103l16 -19l-112 -84h-15z" />
    <glyph glyph-name="acircumflex" unicode="&#xe2;" horiz-adv-x="453" 
d="M187 -8q-52 0 -84 7t-48 22t-19.5 39t1.5 58q7 51 24 78t51 37t90 10q25 0 52.5 -1.5t52.5 -3.5t42.5 -4.5t23.5 -4.5q9 55 3.5 87t-22.5 47t-43.5 19.5t-59.5 4.5t-66.5 -3t-59.5 -10t-37 -19l2 7q2 17 16.5 23t26.5 9q18 5 50 8t63 3q41 0 72.5 -4.5t51.5 -20t28 -47
t0 -86.5l-29 -211q-3 -23 -42 -33.5t-140 -10.5zM189 9q86 0 121 7.5t38 23.5l22 170q-7 4 -33 7.5t-57.5 6.5t-55.5 3q-54 0 -88 -5.5t-51.5 -28.5t-24.5 -74q-5 -37 1 -61.5t35 -36.5t93 -12zM169 460l92 103h17l65 -103h-18l-58 84l-81 -84h-17z" />
    <glyph glyph-name="atilde" unicode="&#xe3;" horiz-adv-x="453" 
d="M187 -8q-52 0 -84 7t-48 22t-19.5 39t1.5 58q7 51 24 78t51 37t90 10q25 0 52.5 -1.5t52.5 -3.5t42.5 -4.5t23.5 -4.5q9 55 3.5 87t-22.5 47t-43.5 19.5t-59.5 4.5t-66.5 -3t-59.5 -10t-37 -19l2 7q2 17 16.5 23t26.5 9q18 5 50 8t63 3q41 0 72.5 -4.5t51.5 -20t28 -47
t0 -86.5l-29 -211q-3 -23 -42 -33.5t-140 -10.5zM189 9q86 0 121 7.5t38 23.5l22 170q-7 4 -33 7.5t-57.5 6.5t-55.5 3q-54 0 -88 -5.5t-51.5 -28.5t-24.5 -74q-5 -37 1 -61.5t35 -36.5t93 -12zM300 457q-15 0 -29.5 8.5t-28.5 17t-29 8.5q-16 0 -25 -11t-14 -19l-12 7
q2 4 6.5 11t11.5 14.5t16.5 12.5t21.5 5q16 0 29.5 -9t27.5 -17.5t28 -8.5q20 0 30.5 12t14.5 19l12 -7q-2 -4 -7 -11t-12.5 -14.5t-17.5 -12.5t-23 -5z" />
    <glyph glyph-name="adieresis" unicode="&#xe4;" horiz-adv-x="453" 
d="M187 -8q-52 0 -84 7t-48 22t-19.5 39t1.5 58q7 51 24 78t51 37t90 10q25 0 52.5 -1.5t52.5 -3.5t42.5 -4.5t23.5 -4.5q9 55 3.5 87t-22.5 47t-43.5 19.5t-59.5 4.5t-66.5 -3t-59.5 -10t-37 -19l2 7q2 17 16.5 23t26.5 9q18 5 50 8t63 3q41 0 72.5 -4.5t51.5 -20t28 -47
t0 -86.5l-29 -211q-3 -23 -42 -33.5t-140 -10.5zM189 9q86 0 121 7.5t38 23.5l22 170q-7 4 -33 7.5t-57.5 6.5t-55.5 3q-54 0 -88 -5.5t-51.5 -28.5t-24.5 -74q-5 -37 1 -61.5t35 -36.5t93 -12zM312 460q-7 0 -13.5 3t-5.5 16q2 13 10 15.5t14 2.5q7 0 14 -2.5t5 -15.5
q-1 -13 -8 -16t-16 -3zM198 460q-9 0 -14.5 3t-4.5 17q2 12 10 14.5t14 2.5q7 0 14 -2.5t5 -14.5q-1 -13 -8.5 -16.5t-15.5 -3.5z" />
    <glyph glyph-name="aring" unicode="&#xe5;" horiz-adv-x="453" 
d="M187 -8q-52 0 -84 7t-48 22t-19.5 39t1.5 58q7 51 24 78t51 37t90 10q25 0 52.5 -1.5t52.5 -3.5t42.5 -4.5t23.5 -4.5q9 55 3.5 87t-22.5 47t-43.5 19.5t-59.5 4.5t-66.5 -3t-59.5 -10t-37 -19l2 7q2 17 16.5 23t26.5 9q18 5 50 8t63 3q41 0 72.5 -4.5t51.5 -20t28 -47
t0 -86.5l-29 -211q-3 -23 -42 -33.5t-140 -10.5zM189 9q86 0 121 7.5t38 23.5l22 170q-7 4 -33 7.5t-57.5 6.5t-55.5 3q-54 0 -88 -5.5t-51.5 -28.5t-24.5 -74q-5 -37 1 -61.5t35 -36.5t93 -12zM247 461q-37 0 -47 12t-6 39q4 26 17 38t50 12q38 0 48 -12t6 -38
q-4 -27 -17 -39t-51 -12zM249 474q20 0 31.5 6.5t15.5 31.5q4 24 -6.5 30.5t-30.5 6.5q-19 0 -31 -6.5t-16 -30.5q-4 -25 6.5 -31.5t30.5 -6.5z" />
    <glyph glyph-name="ae" unicode="&#xe6;" horiz-adv-x="784" 
d="M187 -8q-52 0 -84 7t-48 22t-19.5 39t1.5 58q7 51 24 78t51 37t90 10q25 0 52.5 -1.5t52.5 -3.5t42.5 -4.5t23.5 -4.5q9 55 3.5 87t-22.5 47t-43.5 19.5t-59.5 4.5t-66.5 -3t-59.5 -10t-37 -19l2 7q2 17 16.5 23t26.5 9q18 5 50 8t63 3q41 0 72.5 -4.5t51.5 -20t28 -47
t0 -86.5l-29 -211q-3 -23 -42 -33.5t-140 -10.5zM189 9q86 0 121 7.5t38 23.5l22 170q-7 4 -33 7.5t-57.5 6.5t-55.5 3q-54 0 -88 -5.5t-51.5 -28.5t-24.5 -74q-5 -37 1 -61.5t35 -36.5t93 -12zM537 -7q-51 0 -85.5 9t-53.5 32t-24 63.5t4 102.5q11 75 33.5 120t65.5 65
t117 20q83 0 115 -40.5t21 -123.5l-6 -45h-285q1 7 5.5 12t14.5 5h246l4 33q8 71 -19 105.5t-98 34.5q-60 0 -98.5 -16.5t-60 -56.5t-32.5 -113q-10 -76 0.5 -116.5t44 -56t93.5 -15.5q20 0 42.5 1.5t44.5 4.5t39.5 7t27.5 9l-1 -8q-1 -7 -7.5 -12t-26.5 -10
q-26 -5 -57.5 -8t-63.5 -3z" />
    <glyph glyph-name="ccedilla" unicode="&#xe7;" horiz-adv-x="412" 
d="M220 -5q-71 0 -112.5 17t-54.5 61.5t-2 126.5q9 63 25.5 103t43 62t65.5 31t93 9q26 0 47 -2t46 -7q14 -2 21.5 -6t10 -9.5t0.5 -15.5q-11 6 -34 11t-48.5 7.5t-46.5 2.5q-65 0 -105.5 -17.5t-62 -58t-31.5 -110.5q-9 -70 0.5 -111t44.5 -58t102 -17q31 0 56.5 3t45.5 8
t33 11l-2 -11q-1 -8 -18 -15t-46.5 -11t-70.5 -4zM165 -185q-23 0 -33 3t-9 12h24.5h45.5q29 0 40.5 9.5t13.5 28.5q4 27 -3.5 35t-43.5 8h-31h-13t-13.5 -0.5t-11.5 -0.5q2 3 13 15t26 27.5t28 29.5t18 20h12l-66 -79q47 3 71 0.5t30.5 -15t2.5 -40.5t-19 -39t-36.5 -12.5
t-45.5 -1.5z" />
    <glyph glyph-name="egrave" unicode="&#xe8;" horiz-adv-x="436" 
d="M210 -7q-51 0 -85.5 9t-53.5 32t-24 63.5t4 102.5q11 75 33.5 120t65.5 65t117 20q83 0 115 -40.5t21 -123.5l-6 -45h-285q1 7 5.5 12t14.5 5h246l4 33q8 71 -19 105.5t-98 34.5q-60 0 -98.5 -16.5t-60 -56.5t-32.5 -113q-10 -76 0.5 -116.5t44 -56t93.5 -15.5
q20 0 42.5 1.5t44.5 4.5t39.5 7t27.5 9l-1 -8q-1 -7 -7.5 -12t-26.5 -10q-26 -5 -57.5 -8t-63.5 -3zM274 460l-87 84l20 19l83 -103h-16z" />
    <glyph glyph-name="eacute" unicode="&#xe9;" horiz-adv-x="436" 
d="M210 -7q-51 0 -85.5 9t-53.5 32t-24 63.5t4 102.5q11 75 33.5 120t65.5 65t117 20q83 0 115 -40.5t21 -123.5l-6 -45h-285q1 7 5.5 12t14.5 5h246l4 33q8 71 -19 105.5t-98 34.5q-60 0 -98.5 -16.5t-60 -56.5t-32.5 -113q-10 -76 0.5 -116.5t44 -56t93.5 -15.5
q20 0 42.5 1.5t44.5 4.5t39.5 7t27.5 9l-1 -8q-1 -7 -7.5 -12t-26.5 -10q-26 -5 -57.5 -8t-63.5 -3zM257 460l111 103l16 -19l-112 -84h-15z" />
    <glyph glyph-name="ecircumflex" unicode="&#xea;" horiz-adv-x="436" 
d="M210 -7q-51 0 -85.5 9t-53.5 32t-24 63.5t4 102.5q11 75 33.5 120t65.5 65t117 20q83 0 115 -40.5t21 -123.5l-6 -45h-285q1 7 5.5 12t14.5 5h246l4 33q8 71 -19 105.5t-98 34.5q-60 0 -98.5 -16.5t-60 -56.5t-32.5 -113q-10 -76 0.5 -116.5t44 -56t93.5 -15.5
q20 0 42.5 1.5t44.5 4.5t39.5 7t27.5 9l-1 -8q-1 -7 -7.5 -12t-26.5 -10q-26 -5 -57.5 -8t-63.5 -3zM187 460l92 103h17l65 -103h-18l-58 84l-81 -84h-17z" />
    <glyph glyph-name="edieresis" unicode="&#xeb;" horiz-adv-x="436" 
d="M210 -7q-51 0 -85.5 9t-53.5 32t-24 63.5t4 102.5q11 75 33.5 120t65.5 65t117 20q83 0 115 -40.5t21 -123.5l-6 -45h-285q1 7 5.5 12t14.5 5h246l4 33q8 71 -19 105.5t-98 34.5q-60 0 -98.5 -16.5t-60 -56.5t-32.5 -113q-10 -76 0.5 -116.5t44 -56t93.5 -15.5
q20 0 42.5 1.5t44.5 4.5t39.5 7t27.5 9l-1 -8q-1 -7 -7.5 -12t-26.5 -10q-26 -5 -57.5 -8t-63.5 -3zM330 460q-7 0 -13.5 3t-5.5 16q2 13 10 15.5t14 2.5q7 0 14 -2.5t5 -15.5q-1 -13 -8 -16t-16 -3zM216 460q-9 0 -14.5 3t-4.5 17q2 12 10 14.5t14 2.5q7 0 14 -2.5t5 -14.5
q-1 -13 -8.5 -16.5t-15.5 -3.5z" />
    <glyph glyph-name="igrave" unicode="&#xec;" horiz-adv-x="199" 
d="M110 399q-10 -78 -21 -155t-22 -155q-6 -40 -0.5 -58.5t31.5 -18.5q5 0 18.5 1.5t17.5 3.5l-2 -15q-5 -1 -23 -3t-25 -2q-16 0 -25 5t-13 14.5t-5 22.5t1 28t4 32q5 37 10.5 74.5t10.5 75.5t10.5 75.5t10.5 74.5h11h11zM108 460l-87 84l20 19l83 -103h-16z" />
    <glyph glyph-name="iacute" unicode="&#xed;" horiz-adv-x="199" 
d="M110 399q-10 -78 -21 -155t-22 -155q-6 -40 -0.5 -58.5t31.5 -18.5q5 0 18.5 1.5t17.5 3.5l-2 -15q-5 -1 -23 -3t-25 -2q-16 0 -25 5t-13 14.5t-5 22.5t1 28t4 32q5 37 10.5 74.5t10.5 75.5t10.5 75.5t10.5 74.5h11h11zM91 460l111 103l16 -19l-112 -84h-15z" />
    <glyph glyph-name="icircumflex" unicode="&#xee;" horiz-adv-x="199" 
d="M110 399q-10 -78 -21 -155t-22 -155q-6 -40 -0.5 -58.5t31.5 -18.5q5 0 18.5 1.5t17.5 3.5l-2 -15q-5 -1 -23 -3t-25 -2q-16 0 -25 5t-13 14.5t-5 22.5t1 28t4 32q5 37 10.5 74.5t10.5 75.5t10.5 75.5t10.5 74.5h11h11zM21 460l92 103h17l65 -103h-18l-58 84l-81 -84h-17
z" />
    <glyph glyph-name="idieresis" unicode="&#xef;" horiz-adv-x="199" 
d="M110 399q-10 -78 -21 -155t-22 -155q-6 -40 -0.5 -58.5t31.5 -18.5q5 0 18.5 1.5t17.5 3.5l-2 -15q-5 -1 -23 -3t-25 -2q-16 0 -25 5t-13 14.5t-5 22.5t1 28t4 32q5 37 10.5 74.5t10.5 75.5t10.5 75.5t10.5 74.5h11h11zM164 460q-7 0 -13.5 3t-5.5 16q2 13 10 15.5
t14 2.5q7 0 14 -2.5t5 -15.5q-1 -13 -8 -16t-16 -3zM50 460q-9 0 -14.5 3t-4.5 17q2 12 10 14.5t14 2.5q7 0 14 -2.5t5 -14.5q-1 -13 -8.5 -16.5t-15.5 -3.5z" />
    <glyph glyph-name="eth" unicode="&#xf0;" horiz-adv-x="428" 
d="M93 486l163 114l10 -16l-162 -113zM19 199q10 71 30.5 112t49 60.5t62 25t69.5 5.5h22t21 -2q-18 32 -36.5 65t-35.5 63t-30 53.5t-20 36.5q3 2 5.5 4t5 3.5t5 3.5t4.5 3l54 -96t53.5 -95t53 -94.5t52.5 -94.5q-1 -8 -2.5 -17.5t-3 -18t-2.5 -17.5q-10 -71 -30.5 -112.5
t-49 -61t-62 -25t-70.5 -5.5t-67.5 6t-51.5 26.5t-28.5 61.5t2.5 110zM359 241q-7 16 -15.5 31t-17.5 31q-11 20 -22.5 40.5t-22.5 39.5q-12 2 -26.5 3t-31.5 1q-49 0 -85.5 -12.5t-60 -53t-34.5 -123.5q-12 -82 0 -122t45 -52.5t82 -12.5q50 0 86.5 12.5t61 52.5t35.5 122
q1 7 2 14.5t2 14.5z" />
    <glyph glyph-name="ntilde" unicode="&#xf1;" horiz-adv-x="454" 
d="M56 0q-15 0 -12 14l49 353q15 8 34 16t52.5 13.5t89.5 5.5q45 0 73.5 -6.5t43 -20t18 -34t-0.5 -47.5l-39 -280q-1 -4 -3 -7.5t-5.5 -5t-8.5 -1.5h-7l41 295q7 45 -19 67t-98 22q-55 0 -93.5 -7.5t-56.5 -23.5l-50 -353h-8zM313 457q-15 0 -29.5 8.5t-28.5 17t-29 8.5
q-16 0 -25 -11t-14 -19l-12 7q2 4 6.5 11t11.5 14.5t16.5 12.5t21.5 5q16 0 29.5 -9t27.5 -17.5t28 -8.5q20 0 30.5 12t14.5 19l12 -7q-2 -4 -7 -11t-12.5 -14.5t-17.5 -12.5t-23 -5z" />
    <glyph glyph-name="ograve" unicode="&#xf2;" horiz-adv-x="460" 
d="M201 -5q-38 0 -69.5 6.5t-53 26.5t-29.5 61t2 110t29.5 110t46.5 61.5t60.5 26.5t71.5 6t70 -6.5t53 -26.5t29 -61t-2 -110q-10 -70 -29 -111t-46.5 -61t-61 -26t-71.5 -6zM204 13q48 0 84.5 12.5t61 52t35.5 121.5q12 82 -1.5 121.5t-46.5 52t-81 12.5t-84.5 -12.5
t-60.5 -52t-36 -121.5q-11 -82 2.5 -121.5t46.5 -52t80 -12.5zM267 460l-87 84l20 19l83 -103h-16z" />
    <glyph glyph-name="oacute" unicode="&#xf3;" horiz-adv-x="460" 
d="M201 -5q-38 0 -69.5 6.5t-53 26.5t-29.5 61t2 110t29.5 110t46.5 61.5t60.5 26.5t71.5 6t70 -6.5t53 -26.5t29 -61t-2 -110q-10 -70 -29 -111t-46.5 -61t-61 -26t-71.5 -6zM204 13q48 0 84.5 12.5t61 52t35.5 121.5q12 82 -1.5 121.5t-46.5 52t-81 12.5t-84.5 -12.5
t-60.5 -52t-36 -121.5q-11 -82 2.5 -121.5t46.5 -52t80 -12.5zM250 460l111 103l16 -19l-112 -84h-15z" />
    <glyph glyph-name="ocircumflex" unicode="&#xf4;" horiz-adv-x="460" 
d="M201 -5q-38 0 -69.5 6.5t-53 26.5t-29.5 61t2 110t29.5 110t46.5 61.5t60.5 26.5t71.5 6t70 -6.5t53 -26.5t29 -61t-2 -110q-10 -70 -29 -111t-46.5 -61t-61 -26t-71.5 -6zM204 13q48 0 84.5 12.5t61 52t35.5 121.5q12 82 -1.5 121.5t-46.5 52t-81 12.5t-84.5 -12.5
t-60.5 -52t-36 -121.5q-11 -82 2.5 -121.5t46.5 -52t80 -12.5zM180 460l92 103h17l65 -103h-18l-58 84l-81 -84h-17z" />
    <glyph glyph-name="otilde" unicode="&#xf5;" horiz-adv-x="460" 
d="M201 -5q-38 0 -69.5 6.5t-53 26.5t-29.5 61t2 110t29.5 110t46.5 61.5t60.5 26.5t71.5 6t70 -6.5t53 -26.5t29 -61t-2 -110q-10 -70 -29 -111t-46.5 -61t-61 -26t-71.5 -6zM204 13q48 0 84.5 12.5t61 52t35.5 121.5q12 82 -1.5 121.5t-46.5 52t-81 12.5t-84.5 -12.5
t-60.5 -52t-36 -121.5q-11 -82 2.5 -121.5t46.5 -52t80 -12.5zM311 457q-15 0 -29.5 8.5t-28.5 17t-29 8.5q-16 0 -25 -11t-14 -19l-12 7q2 4 6.5 11t11.5 14.5t16.5 12.5t21.5 5q16 0 29.5 -9t27.5 -17.5t28 -8.5q20 0 30.5 12t14.5 19l12 -7q-2 -4 -7 -11t-12.5 -14.5
t-17.5 -12.5t-23 -5z" />
    <glyph glyph-name="odieresis" unicode="&#xf6;" horiz-adv-x="460" 
d="M201 -5q-38 0 -69.5 6.5t-53 26.5t-29.5 61t2 110t29.5 110t46.5 61.5t60.5 26.5t71.5 6t70 -6.5t53 -26.5t29 -61t-2 -110q-10 -70 -29 -111t-46.5 -61t-61 -26t-71.5 -6zM204 13q48 0 84.5 12.5t61 52t35.5 121.5q12 82 -1.5 121.5t-46.5 52t-81 12.5t-84.5 -12.5
t-60.5 -52t-36 -121.5q-11 -82 2.5 -121.5t46.5 -52t80 -12.5zM323 460q-7 0 -13.5 3t-5.5 16q2 13 10 15.5t14 2.5q7 0 14 -2.5t5 -15.5q-1 -13 -8 -16t-16 -3zM209 460q-9 0 -14.5 3t-4.5 17q2 12 10 14.5t14 2.5q7 0 14 -2.5t5 -14.5q-1 -13 -8.5 -16.5t-15.5 -3.5z" />
    <glyph glyph-name="divide" unicode="&#xf7;" horiz-adv-x="408" 
d="M55 201h297l-3 -21h-297zM162 33q2 11 8 14t13 3q8 0 13.5 -3t3.5 -14q-1 -7 -4.5 -10.5t-7.5 -4.5t-8 -1t-8.5 1t-7.5 4.5t-2 10.5zM203 331q2 11 8 14t13 3q8 0 13.5 -2.5t3.5 -14.5q-1 -11 -8 -13.5t-13 -2.5q-3 0 -7.5 1t-7.5 4.5t-2 10.5z" />
    <glyph glyph-name="oslash" unicode="&#xf8;" horiz-adv-x="427" 
d="M37 199q10 71 31 112.5t49.5 61t62.5 25t70 5.5t66.5 -6t51.5 -26.5t28.5 -61.5t-2.5 -110q-10 -71 -30.5 -112.5t-48.5 -61t-62 -25t-70 -5.5t-67 6t-52 26.5t-29 61.5t2 110zM372 198q12 83 -1 123.5t-46.5 53t-83.5 12.5q-49 0 -85 -12.5t-59.5 -53t-35.5 -123.5
q-11 -82 1 -122t45 -52.5t82 -12.5q50 0 87 12.5t61 52.5t35 122zM58 -85l282 535h19l-282 -535h-19z" />
    <glyph glyph-name="ugrave" unicode="&#xf9;" horiz-adv-x="449" 
d="M109 399l-39 -278q-7 -59 24.5 -83t101.5 -24q77 0 114.5 25.5t45.5 82.5l39 277h2.5h2.5h2.5h2.5q6 0 8 -1.5t2.5 -5t-0.5 -10.5l-35 -250q-5 -33 -16 -58.5t-31.5 -42.5t-54 -26t-84.5 -9q-60 0 -94 13.5t-45.5 43t-4.5 78.5l35 251q2 10 4.5 13.5t9.5 3.5h5h5z
M262 460l-87 84l20 19l83 -103h-16z" />
    <glyph glyph-name="uacute" unicode="&#xfa;" horiz-adv-x="449" 
d="M109 399l-39 -278q-7 -59 24.5 -83t101.5 -24q77 0 114.5 25.5t45.5 82.5l39 277h2.5h2.5h2.5h2.5q6 0 8 -1.5t2.5 -5t-0.5 -10.5l-35 -250q-5 -33 -16 -58.5t-31.5 -42.5t-54 -26t-84.5 -9q-60 0 -94 13.5t-45.5 43t-4.5 78.5l35 251q2 10 4.5 13.5t9.5 3.5h5h5z
M245 460l111 103l16 -19l-112 -84h-15z" />
    <glyph glyph-name="ucircumflex" unicode="&#xfb;" horiz-adv-x="449" 
d="M109 399l-39 -278q-7 -59 24.5 -83t101.5 -24q77 0 114.5 25.5t45.5 82.5l39 277h2.5h2.5h2.5h2.5q6 0 8 -1.5t2.5 -5t-0.5 -10.5l-35 -250q-5 -33 -16 -58.5t-31.5 -42.5t-54 -26t-84.5 -9q-60 0 -94 13.5t-45.5 43t-4.5 78.5l35 251q2 10 4.5 13.5t9.5 3.5h5h5z
M175 460l92 103h17l65 -103h-18l-58 84l-81 -84h-17z" />
    <glyph glyph-name="udieresis" unicode="&#xfc;" horiz-adv-x="449" 
d="M109 399l-39 -278q-7 -59 24.5 -83t101.5 -24q77 0 114.5 25.5t45.5 82.5l39 277h2.5h2.5h2.5h2.5q6 0 8 -1.5t2.5 -5t-0.5 -10.5l-35 -250q-5 -33 -16 -58.5t-31.5 -42.5t-54 -26t-84.5 -9q-60 0 -94 13.5t-45.5 43t-4.5 78.5l35 251q2 10 4.5 13.5t9.5 3.5h5h5z
M318 460q-7 0 -13.5 3t-5.5 16q2 13 10 15.5t14 2.5q7 0 14 -2.5t5 -15.5q-1 -13 -8 -16t-16 -3zM204 460q-9 0 -14.5 3t-4.5 17q2 12 10 14.5t14 2.5q7 0 14 -2.5t5 -14.5q-1 -13 -8.5 -16.5t-15.5 -3.5z" />
    <glyph glyph-name="yacute" unicode="&#xfd;" horiz-adv-x="450" 
d="M172 -111q-37 0 -71 4.5t-55 11.5t-20 15l2 13q15 -9 38.5 -15t51 -9.5t55.5 -3.5q48 0 83 15t57.5 47t29.5 81l8 63q-10 -20 -33 -35t-54 -22.5t-68 -7.5q-74 0 -105.5 20t-36 57t2.5 86l23 159q2 15 3.5 21.5t4 8t8.5 1.5h10q-4 -26 -7.5 -52l-7 -52l-7 -52t-7.5 -52
q-8 -57 8.5 -84t48.5 -34.5t68 -7.5q37 0 71 9t58 34t30 73l31 218h7q10 0 12 -2.5t0 -19.5l-46 -322q-12 -88 -60 -127t-133 -39zM234 460l111 103l16 -19l-112 -84h-15z" />
    <glyph glyph-name="thorn" unicode="&#xfe;" horiz-adv-x="419" 
d="M-2 -108l83 586q2 16 5 20t10 4h12l-19 -136q17 4 38 6.5t39.5 3.5t25.5 1q50 0 87 -5.5t60 -23.5t31.5 -54t-0.5 -96q-8 -60 -26 -95t-46.5 -52t-67.5 -22.5t-90 -5.5q-12 0 -43 1.5t-55 7.5l-20 -140h-24zM347 198q10 71 -4 106t-53 47t-105 12q-27 0 -56 -3t-42 -8
l-43 -303q19 -4 44 -7t52 -3q67 0 109 10t65 44t33 105z" />
    <glyph glyph-name="ydieresis" unicode="&#xff;" horiz-adv-x="450" 
d="M172 -111q-37 0 -71 4.5t-55 11.5t-20 15l2 13q15 -9 38.5 -15t51 -9.5t55.5 -3.5q48 0 83 15t57.5 47t29.5 81l8 63q-10 -20 -33 -35t-54 -22.5t-68 -7.5q-74 0 -105.5 20t-36 57t2.5 86l23 159q2 15 3.5 21.5t4 8t8.5 1.5h10q-4 -26 -7.5 -52l-7 -52l-7 -52t-7.5 -52
q-8 -57 8.5 -84t48.5 -34.5t68 -7.5q37 0 71 9t58 34t30 73l31 218h7q10 0 12 -2.5t0 -19.5l-46 -322q-12 -88 -60 -127t-133 -39zM307 460q-7 0 -13.5 3t-5.5 16q2 13 10 15.5t14 2.5q7 0 14 -2.5t5 -15.5q-1 -13 -8 -16t-16 -3zM193 460q-9 0 -14.5 3t-4.5 17
q2 12 10 14.5t14 2.5q7 0 14 -2.5t5 -14.5q-1 -13 -8.5 -16.5t-15.5 -3.5z" />
    <glyph glyph-name="Amacron" unicode="&#x100;" horiz-adv-x="445" 
d="M-10 0l175 399q14 32 32.5 48.5t60.5 16.5q41 0 54.5 -15t18.5 -50l65 -399h-24l-24 141h-275l-62 -141h-21zM81 159h265l-39 238q-3 19 -12.5 33.5t-41.5 14.5q-37 0 -49.5 -15t-20.5 -33zM169 522l2 14h197l-2 -14h-197z" />
    <glyph glyph-name="amacron" unicode="&#x101;" horiz-adv-x="453" 
d="M187 -8q-52 0 -84 7t-48 22t-19.5 39t1.5 58q7 51 24 78t51 37t90 10q25 0 52.5 -1.5t52.5 -3.5t42.5 -4.5t23.5 -4.5q9 55 3.5 87t-22.5 47t-43.5 19.5t-59.5 4.5t-66.5 -3t-59.5 -10t-37 -19l2 7q2 17 16.5 23t26.5 9q18 5 50 8t63 3q41 0 72.5 -4.5t51.5 -20t28 -47
t0 -86.5l-29 -211q-3 -23 -42 -33.5t-140 -10.5zM189 9q86 0 121 7.5t38 23.5l22 170q-7 4 -33 7.5t-57.5 6.5t-55.5 3q-54 0 -88 -5.5t-51.5 -28.5t-24.5 -74q-5 -37 1 -61.5t35 -36.5t93 -12zM162 461l2 18h189l-2 -18h-189z" />
    <glyph glyph-name="Abreve" unicode="&#x102;" horiz-adv-x="445" 
d="M-10 0l175 399q14 32 32.5 48.5t60.5 16.5q41 0 54.5 -15t18.5 -50l65 -399h-24l-24 141h-275l-62 -141h-21zM81 159h265l-39 238q-3 19 -12.5 33.5t-41.5 14.5q-37 0 -49.5 -15t-20.5 -33zM263 519q-44 0 -62.5 22t-12.5 64h15q-6 -37 10.5 -52t52.5 -15q42 0 59 15
t22 52h16q-7 -44 -27.5 -65t-72.5 -21z" />
    <glyph glyph-name="abreve" unicode="&#x103;" horiz-adv-x="453" 
d="M187 -8q-52 0 -84 7t-48 22t-19.5 39t1.5 58q7 51 24 78t51 37t90 10q25 0 52.5 -1.5t52.5 -3.5t42.5 -4.5t23.5 -4.5q9 55 3.5 87t-22.5 47t-43.5 19.5t-59.5 4.5t-66.5 -3t-59.5 -10t-37 -19l2 7q2 17 16.5 23t26.5 9q18 5 50 8t63 3q41 0 72.5 -4.5t51.5 -20t28 -47
t0 -86.5l-29 -211q-3 -23 -42 -33.5t-140 -10.5zM189 9q86 0 121 7.5t38 23.5l22 170q-7 4 -33 7.5t-57.5 6.5t-55.5 3q-54 0 -88 -5.5t-51.5 -28.5t-24.5 -74q-5 -37 1 -61.5t35 -36.5t93 -12zM255 458q-29 0 -47 12t-25 33.5t-3 49.5h15q-4 -43 11.5 -59.5t51.5 -16.5
q42 0 60.5 19.5t23.5 56.5h16q-4 -29 -15 -50.5t-32 -33t-56 -11.5z" />
    <glyph glyph-name="Aogonek" unicode="&#x104;" horiz-adv-x="445" 
d="M-10 0l175 399q14 32 32.5 48.5t60.5 16.5q41 0 54.5 -15t18.5 -50l65 -399h-24l-24 141h-275l-62 -141h-21zM81 159h265l-39 238q-3 19 -12.5 33.5t-41.5 14.5q-37 0 -49.5 -15t-20.5 -33zM340 -169q-29 0 -48.5 5t-28 19t-5.5 40q4 26 25.5 50t46 41.5t37.5 24.5h27
q-8 -3 -25.5 -14.5t-37 -27.5t-34.5 -34t-17 -34q-4 -34 12 -44.5t47 -10.5q9 0 17.5 0.5t15 1t8.5 0.5q-1 -6 -4 -10t-11 -5.5t-25 -1.5z" />
    <glyph glyph-name="aogonek" unicode="&#x105;" horiz-adv-x="453" 
d="M187 -8q-52 0 -84 7t-48 22t-19.5 39t1.5 58q7 51 24 78t51 37t90 10q25 0 52.5 -1.5t52.5 -3.5t42.5 -4.5t23.5 -4.5q9 55 3.5 87t-22.5 47t-43.5 19.5t-59.5 4.5t-66.5 -3t-59.5 -10t-37 -19l2 7q2 17 16.5 23t26.5 9q18 5 50 8t63 3q41 0 72.5 -4.5t51.5 -20t28 -47
t0 -86.5l-29 -211q-3 -23 -42 -33.5t-140 -10.5zM189 9q86 0 121 7.5t38 23.5l22 170q-7 4 -33 7.5t-57.5 6.5t-55.5 3q-54 0 -88 -5.5t-51.5 -28.5t-24.5 -74q-5 -37 1 -61.5t35 -36.5t93 -12zM294 -169q-29 0 -48.5 5t-28 19t-5.5 40q4 26 25.5 50t46 41.5t37.5 24.5h27
q-8 -3 -25.5 -14.5t-37 -27.5t-34.5 -34t-17 -34q-4 -34 12 -44.5t47 -10.5q9 0 17.5 0.5t15 1t8.5 0.5q-1 -6 -4 -10t-11 -5.5t-25 -1.5z" />
    <glyph glyph-name="Cacute" unicode="&#x106;" horiz-adv-x="480" 
d="M53 230q10 72 30.5 118.5t52 72t76 35.5t103.5 10q35 0 68 -2.5t66 -9.5q22 -4 28 -9t5 -13l-1 -10q-13 8 -43.5 14t-65 9t-62.5 3q-76 0 -123 -20.5t-72 -68t-37 -129.5q-11 -83 -1 -131t51 -68.5t121 -20.5q28 0 63 3t66.5 9t47.5 13l-2 -9q-1 -7 -8.5 -12.5
t-30.5 -9.5q-34 -7 -68 -9.5t-69 -2.5q-61 0 -103.5 10t-66 35.5t-29.5 72t4 120.5zM296 521l106 84l14 -19l-105 -65h-15z" />
    <glyph glyph-name="cacute" unicode="&#x107;" horiz-adv-x="412" 
d="M220 -5q-71 0 -112.5 17t-54.5 61.5t-2 126.5q9 63 25.5 103t43 62t65.5 31t93 9q26 0 47 -2t46 -7q14 -2 21.5 -6t10 -9.5t0.5 -15.5q-11 6 -34 11t-48.5 7.5t-46.5 2.5q-65 0 -105.5 -17.5t-62 -58t-31.5 -110.5q-9 -70 0.5 -111t44.5 -58t102 -17q31 0 56.5 3t45.5 8
t33 11l-2 -11q-1 -8 -18 -15t-46.5 -11t-70.5 -4zM262 460l111 103l16 -19l-112 -84h-15z" />
    <glyph glyph-name="Ccircumflex" unicode="&#x108;" horiz-adv-x="480" 
d="M53 230q10 72 30.5 118.5t52 72t76 35.5t103.5 10q35 0 68 -2.5t66 -9.5q22 -4 28 -9t5 -13l-1 -10q-13 8 -43.5 14t-65 9t-62.5 3q-76 0 -123 -20.5t-72 -68t-37 -129.5q-11 -83 -1 -131t51 -68.5t121 -20.5q28 0 63 3t66.5 9t47.5 13l-2 -9q-1 -7 -8.5 -12.5
t-30.5 -9.5q-34 -7 -68 -9.5t-69 -2.5q-61 0 -103.5 10t-66 35.5t-29.5 72t4 120.5zM232 521l88 84h18l65 -84h-18l-59 66l-77 -66h-17z" />
    <glyph glyph-name="ccircumflex" unicode="&#x109;" horiz-adv-x="412" 
d="M220 -5q-71 0 -112.5 17t-54.5 61.5t-2 126.5q9 63 25.5 103t43 62t65.5 31t93 9q26 0 47 -2t46 -7q14 -2 21.5 -6t10 -9.5t0.5 -15.5q-11 6 -34 11t-48.5 7.5t-46.5 2.5q-65 0 -105.5 -17.5t-62 -58t-31.5 -110.5q-9 -70 0.5 -111t44.5 -58t102 -17q31 0 56.5 3t45.5 8
t33 11l-2 -11q-1 -8 -18 -15t-46.5 -11t-70.5 -4zM192 460l92 103h17l65 -103h-18l-58 84l-81 -84h-17z" />
    <glyph glyph-name="Cdotaccent" unicode="&#x10a;" horiz-adv-x="480" 
d="M53 230q10 72 30.5 118.5t52 72t76 35.5t103.5 10q35 0 68 -2.5t66 -9.5q22 -4 28 -9t5 -13l-1 -10q-13 8 -43.5 14t-65 9t-62.5 3q-76 0 -123 -20.5t-72 -68t-37 -129.5q-11 -83 -1 -131t51 -68.5t121 -20.5q28 0 63 3t66.5 9t47.5 13l-2 -9q-1 -7 -8.5 -12.5
t-30.5 -9.5q-34 -7 -68 -9.5t-69 -2.5q-61 0 -103.5 10t-66 35.5t-29.5 72t4 120.5zM319 521q-11 0 -17.5 3.5t-4.5 17.5q2 16 10 19.5t18 3.5q11 0 16.5 -4t3.5 -19q-2 -14 -9 -17.5t-17 -3.5z" />
    <glyph glyph-name="cdotaccent" unicode="&#x10b;" horiz-adv-x="412" 
d="M220 -5q-71 0 -112.5 17t-54.5 61.5t-2 126.5q9 63 25.5 103t43 62t65.5 31t93 9q26 0 47 -2t46 -7q14 -2 21.5 -6t10 -9.5t0.5 -15.5q-11 6 -34 11t-48.5 7.5t-46.5 2.5q-65 0 -105.5 -17.5t-62 -58t-31.5 -110.5q-9 -70 0.5 -111t44.5 -58t102 -17q31 0 56.5 3t45.5 8
t33 11l-2 -11q-1 -8 -18 -15t-46.5 -11t-70.5 -4zM280 460q-11 0 -17.5 3.5t-4.5 17.5q2 16 10 19.5t18 3.5q11 0 16.5 -4t3.5 -19q-2 -14 -9 -17.5t-17 -3.5z" />
    <glyph glyph-name="Ccaron" unicode="&#x10c;" horiz-adv-x="480" 
d="M241 605h17l58 -66l78 66h18l-89 -84h-18zM53 230q10 72 30.5 118.5t52 72t76 35.5t103.5 10q35 0 68 -2.5t66 -9.5q22 -4 28 -9t5 -13l-1 -10q-13 8 -43.5 14t-65 9t-62.5 3q-76 0 -123 -20.5t-72 -68t-37 -129.5q-11 -83 -1 -131t51 -68.5t121 -20.5q28 0 63 3t66.5 9
t47.5 13l-2 -9q-1 -7 -8.5 -12.5t-30.5 -9.5q-34 -7 -68 -9.5t-69 -2.5q-61 0 -103.5 10t-66 35.5t-29.5 72t4 120.5z" />
    <glyph glyph-name="ccaron" unicode="&#x10d;" horiz-adv-x="412" 
d="M202 563h17l57 -84l82 84h18l-94 -103h-17zM220 -5q-71 0 -112.5 17t-54.5 61.5t-2 126.5q9 63 25.5 103t43 62t65.5 31t93 9q26 0 47 -2t46 -7q14 -2 21.5 -6t10 -9.5t0.5 -15.5q-11 6 -34 11t-48.5 7.5t-46.5 2.5q-65 0 -105.5 -17.5t-62 -58t-31.5 -110.5
q-9 -70 0.5 -111t44.5 -58t102 -17q31 0 56.5 3t45.5 8t33 11l-2 -11q-1 -8 -18 -15t-46.5 -11t-70.5 -4z" />
    <glyph glyph-name="Dcaron" unicode="&#x10e;" horiz-adv-x="570" 
d="M252 605h17l58 -66l78 66h18l-89 -84h-18zM244 -3q-18 0 -44 0.5t-52.5 1t-47 1t-28.5 0.5l56 398q5 30 12 44.5t41 17.5q11 1 34.5 1.5t52 1t54.5 0.5t41 -1q56 -3 92 -12.5t55 -33t22.5 -69.5t-7.5 -122q-11 -80 -32 -126.5t-54.5 -68t-81.5 -27.5t-113 -6zM259 16
q60 0 101.5 7.5t69.5 29t45 63t26 108.5q10 72 6.5 115.5t-23.5 66.5t-59 30.5t-99 7.5h-31.5t-43.5 -0.5t-43 -1.5t-30 -3t-16.5 -8t-9.5 -29l-54 -383q6 0 27 -0.5t47.5 -1t50.5 -1t36 -0.5z" />
    <glyph glyph-name="dcaron" unicode="&#x10f;" horiz-adv-x="459" 
d="M199 -2q-66 0 -102.5 15t-47 58.5t1.5 131.5q12 81 38 123.5t67.5 58t98.5 15.5q15 0 39.5 -1t49.5 -2.5t44 -3t24 -2.5l-12 -7l17 121h21l-44 -304q-10 -69 -22 -109.5t-32 -61t-54 -26.5t-87 -6zM195 16q51 0 82.5 6t49.5 24.5t28 54t18 95.5l26 179q-14 1 -40.5 2.5
t-54.5 3t-50 1.5q-54 0 -91 -15t-58.5 -54.5t-31.5 -113.5q-10 -76 -3 -115t37.5 -53.5t87.5 -14.5zM485 377l24 128h20l-30 -128h-14z" />
    <glyph glyph-name="Dcroat" unicode="&#x110;" horiz-adv-x="573" 
d="M247 -3q-18 0 -44 0.5t-52.5 1t-47 1t-28.5 0.5l56 398q5 30 12 44.5t41 17.5q11 1 34.5 1.5t52 1t54.5 0.5t41 -1q56 -3 92 -12.5t55 -33t22.5 -69.5t-7.5 -122q-11 -80 -32 -126.5t-54.5 -68t-81.5 -27.5t-113 -6zM262 16q60 0 101.5 7.5t69.5 29t45 63t26 108.5
q10 72 6.5 115.5t-23.5 66.5t-59 30.5t-99 7.5h-31.5t-43.5 -0.5t-43 -1.5t-30 -3t-16.5 -8t-9.5 -29l-54 -383q6 0 27 -0.5t47.5 -1t50.5 -1t36 -0.5zM66 239h219l-2 -17h-219z" />
    <glyph glyph-name="dcroat" unicode="&#x111;" horiz-adv-x="477" 
d="M330 519h89l10 72h21l-10 -72h89l-2 -15h-89l-44 -303q-10 -69 -22 -109.5t-31.5 -61t-52 -26.5t-82.5 -6q-44 0 -77.5 3t-54.5 20.5t-27.5 60t4.5 121.5q12 81 37.5 123.5t67 58t99.5 15.5q13 0 36 -1t47.5 -2t42 -2t20.5 -1l16 110h-89zM184 14q52 0 84.5 4t52 21
t31.5 54t21 103l25 180q-3 0 -19.5 1.5t-39.5 2.5l-46 2t-39 1q-64 0 -100.5 -19.5t-54 -60.5t-26.5 -104q-12 -80 -5.5 -119.5t35 -52.5t81.5 -13z" />
    <glyph glyph-name="Emacron" unicode="&#x112;" horiz-adv-x="511" 
d="M72 0l62 440q1 7 1.5 11t3.5 6.5t8 2.5h357l-2 -19h-344l-27 -187h318l-2 -19h-318l-31 -216h345l-3 -19h-368zM230 522l2 14h197l-2 -14h-197z" />
    <glyph glyph-name="emacron" unicode="&#x113;" horiz-adv-x="436" 
d="M210 -7q-51 0 -85.5 9t-53.5 32t-24 63.5t4 102.5q11 75 33.5 120t65.5 65t117 20q83 0 115 -40.5t21 -123.5l-6 -45h-285q1 7 5.5 12t14.5 5h246l4 33q8 71 -19 105.5t-98 34.5q-60 0 -98.5 -16.5t-60 -56.5t-32.5 -113q-10 -76 0.5 -116.5t44 -56t93.5 -15.5
q20 0 42.5 1.5t44.5 4.5t39.5 7t27.5 9l-1 -8q-1 -7 -7.5 -12t-26.5 -10q-26 -5 -57.5 -8t-63.5 -3zM180 461l2 18h189l-2 -18h-189z" />
    <glyph glyph-name="Ebreve" unicode="&#x114;" horiz-adv-x="511" 
d="M72 0l62 440q1 7 1.5 11t3.5 6.5t8 2.5h357l-2 -19h-344l-27 -187h318l-2 -19h-318l-31 -216h345l-3 -19h-368zM324 519q-44 0 -62.5 22t-12.5 64h15q-6 -37 10.5 -52t52.5 -15q42 0 59 15t22 52h16q-7 -44 -27.5 -65t-72.5 -21z" />
    <glyph glyph-name="ebreve" unicode="&#x115;" horiz-adv-x="436" 
d="M210 -7q-51 0 -85.5 9t-53.5 32t-24 63.5t4 102.5q11 75 33.5 120t65.5 65t117 20q83 0 115 -40.5t21 -123.5l-6 -45h-285q1 7 5.5 12t14.5 5h246l4 33q8 71 -19 105.5t-98 34.5q-60 0 -98.5 -16.5t-60 -56.5t-32.5 -113q-10 -76 0.5 -116.5t44 -56t93.5 -15.5
q20 0 42.5 1.5t44.5 4.5t39.5 7t27.5 9l-1 -8q-1 -7 -7.5 -12t-26.5 -10q-26 -5 -57.5 -8t-63.5 -3zM273 458q-29 0 -47 12t-25 33.5t-3 49.5h15q-4 -43 11.5 -59.5t51.5 -16.5q42 0 60.5 19.5t23.5 56.5h16q-4 -29 -15 -50.5t-32 -33t-56 -11.5z" />
    <glyph glyph-name="Edotaccent" unicode="&#x116;" horiz-adv-x="511" 
d="M72 0l62 440q1 7 1.5 11t3.5 6.5t8 2.5h357l-2 -19h-344l-27 -187h318l-2 -19h-318l-31 -216h345l-3 -19h-368zM329 521q-11 0 -17.5 3.5t-4.5 17.5q2 16 10 19.5t18 3.5q11 0 16.5 -4t3.5 -19q-2 -14 -9 -17.5t-17 -3.5z" />
    <glyph glyph-name="edotaccent" unicode="&#x117;" horiz-adv-x="436" 
d="M210 -7q-51 0 -85.5 9t-53.5 32t-24 63.5t4 102.5q11 75 33.5 120t65.5 65t117 20q83 0 115 -40.5t21 -123.5l-6 -45h-285q1 7 5.5 12t14.5 5h246l4 33q8 71 -19 105.5t-98 34.5q-60 0 -98.5 -16.5t-60 -56.5t-32.5 -113q-10 -76 0.5 -116.5t44 -56t93.5 -15.5
q20 0 42.5 1.5t44.5 4.5t39.5 7t27.5 9l-1 -8q-1 -7 -7.5 -12t-26.5 -10q-26 -5 -57.5 -8t-63.5 -3zM275 460q-11 0 -17.5 3.5t-4.5 17.5q2 16 10 19.5t18 3.5q11 0 16.5 -4t3.5 -19q-2 -14 -9 -17.5t-17 -3.5z" />
    <glyph glyph-name="Eogonek" unicode="&#x118;" horiz-adv-x="511" 
d="M72 0l62 440q1 7 1.5 11t3.5 6.5t8 2.5h357l-2 -19h-344l-27 -187h318l-2 -19h-318l-31 -216h345l-3 -19h-368zM385 -169q-29 0 -48.5 5t-28 19t-5.5 40q4 26 25.5 50t46 41.5t37.5 24.5h27q-8 -3 -25.5 -14.5t-37 -27.5t-34.5 -34t-17 -34q-4 -34 12 -44.5t47 -10.5
q9 0 17.5 0.5t15 1t8.5 0.5q-1 -6 -4 -10t-11 -5.5t-25 -1.5z" />
    <glyph glyph-name="eogonek" unicode="&#x119;" horiz-adv-x="436" 
d="M210 -7q-51 0 -85.5 9t-53.5 32t-24 63.5t4 102.5q11 75 33.5 120t65.5 65t117 20q83 0 115 -40.5t21 -123.5l-6 -45h-285q1 7 5.5 12t14.5 5h246l4 33q8 71 -19 105.5t-98 34.5q-60 0 -98.5 -16.5t-60 -56.5t-32.5 -113q-10 -76 0.5 -116.5t44 -56t93.5 -15.5
q20 0 42.5 1.5t44.5 4.5t39.5 7t27.5 9l-1 -8q-1 -7 -7.5 -12t-26.5 -10q-26 -5 -57.5 -8t-63.5 -3zM273 -176q-29 0 -48.5 5t-28 19t-5.5 40q4 26 25.5 50t46 41.5t37.5 24.5h27q-8 -3 -25.5 -14.5t-37 -27.5t-34.5 -34t-17 -34q-4 -34 12 -44.5t47 -10.5q9 0 17.5 0.5
t15 1t8.5 0.5q-1 -6 -4 -10t-11 -5.5t-25 -1.5z" />
    <glyph glyph-name="Ecaron" unicode="&#x11a;" horiz-adv-x="511" 
d="M251 605h17l58 -66l78 66h18l-89 -84h-18zM72 0l62 440q1 7 1.5 11t3.5 6.5t8 2.5h357l-2 -19h-344l-27 -187h318l-2 -19h-318l-31 -216h345l-3 -19h-368z" />
    <glyph glyph-name="ecaron" unicode="&#x11b;" horiz-adv-x="436" 
d="M197 563h17l57 -84l82 84h18l-94 -103h-17zM210 -7q-51 0 -85.5 9t-53.5 32t-24 63.5t4 102.5q11 75 33.5 120t65.5 65t117 20q83 0 115 -40.5t21 -123.5l-6 -45h-285q1 7 5.5 12t14.5 5h246l4 33q8 71 -19 105.5t-98 34.5q-60 0 -98.5 -16.5t-60 -56.5t-32.5 -113
q-10 -76 0.5 -116.5t44 -56t93.5 -15.5q20 0 42.5 1.5t44.5 4.5t39.5 7t27.5 9l-1 -8q-1 -7 -7.5 -12t-26.5 -10q-26 -5 -57.5 -8t-63.5 -3z" />
    <glyph glyph-name="Gcircumflex" unicode="&#x11c;" horiz-adv-x="511" 
d="M230 -9q-55 0 -93.5 11t-60 37.5t-27.5 73t4 117.5q10 72 30.5 118t52 72t76.5 36t103 10q23 0 45.5 -1t45 -3.5t44.5 -7.5q15 -2 22 -5.5t9.5 -7.5t1.5 -9l-1 -9q-8 5 -22.5 8.5t-33.5 6.5t-39.5 5.5t-40 3.5t-35.5 1q-77 0 -124 -20.5t-72 -68t-37 -129.5
q-11 -81 -1.5 -129t48 -69.5t113.5 -21.5q64 0 105 13.5t64.5 51.5t36.5 109q3 16 4 27.5t2 16.5h-201q1 8 3 12t6 5.5t12 1.5h206l-8 -61q-8 -58 -26.5 -96t-47 -59.5t-68 -30.5t-90.5 -9h-2.5h-3.5zM222 521l88 84h18l65 -84h-18l-59 66l-77 -66h-17z" />
    <glyph glyph-name="gcircumflex" unicode="&#x11d;" horiz-adv-x="461" 
d="M180 -111q-10 0 -33.5 1.5t-49.5 5t-44 10t-17 16.5q1 2 1.5 5.5t0.5 5.5q14 -9 40 -15t54 -9t48 -3q59 0 95 18t55.5 60.5t26.5 113.5l14 1q-15 -36 -45 -54.5t-66 -25.5t-68 -7q-55 0 -90.5 14t-48.5 55.5t-2 121.5q9 66 26 105.5t42.5 60t62 27t85.5 6.5
q21 0 45.5 -1.5t47.5 -3t40 -3.5t24 -4q-2 -4 -4.5 -19t-5.5 -34t-5 -35l-34 -236q-9 -63 -31.5 -102t-62 -57t-101.5 -18zM189 30q45 0 81.5 9.5t60.5 30t30 53.5l35 249q-10 3 -46.5 7.5t-87.5 4.5q-60 0 -97.5 -14.5t-58 -52.5t-30.5 -108q-9 -70 -1.5 -109t35.5 -54.5
t79 -15.5zM191 463l92 103h17l65 -103h-18l-58 84l-81 -84h-17z" />
    <glyph glyph-name="Gbreve" unicode="&#x11e;" horiz-adv-x="511" 
d="M230 -9q-55 0 -93.5 11t-60 37.5t-27.5 73t4 117.5q10 72 30.5 118t52 72t76.5 36t103 10q23 0 45.5 -1t45 -3.5t44.5 -7.5q15 -2 22 -5.5t9.5 -7.5t1.5 -9l-1 -9q-8 5 -22.5 8.5t-33.5 6.5t-39.5 5.5t-40 3.5t-35.5 1q-77 0 -124 -20.5t-72 -68t-37 -129.5
q-11 -81 -1.5 -129t48 -69.5t113.5 -21.5q64 0 105 13.5t64.5 51.5t36.5 109q3 16 4 27.5t2 16.5h-201q1 8 3 12t6 5.5t12 1.5h206l-8 -61q-8 -58 -26.5 -96t-47 -59.5t-68 -30.5t-90.5 -9h-2.5h-3.5zM304 519q-44 0 -62.5 22t-12.5 64h15q-6 -37 10.5 -52t52.5 -15
q42 0 59 15t22 52h16q-7 -44 -27.5 -65t-72.5 -21z" />
    <glyph glyph-name="gbreve" unicode="&#x11f;" horiz-adv-x="461" 
d="M180 -111q-10 0 -33.5 1.5t-49.5 5t-44 10t-17 16.5q1 2 1.5 5.5t0.5 5.5q14 -9 40 -15t54 -9t48 -3q59 0 95 18t55.5 60.5t26.5 113.5l14 1q-15 -36 -45 -54.5t-66 -25.5t-68 -7q-55 0 -90.5 14t-48.5 55.5t-2 121.5q9 66 26 105.5t42.5 60t62 27t85.5 6.5
q21 0 45.5 -1.5t47.5 -3t40 -3.5t24 -4q-2 -4 -4.5 -19t-5.5 -34t-5 -35l-34 -236q-9 -63 -31.5 -102t-62 -57t-101.5 -18zM189 30q45 0 81.5 9.5t60.5 30t30 53.5l35 249q-10 3 -46.5 7.5t-87.5 4.5q-60 0 -97.5 -14.5t-58 -52.5t-30.5 -108q-9 -70 -1.5 -109t35.5 -54.5
t79 -15.5zM277 461q-29 0 -47 12t-25 33.5t-3 49.5h15q-4 -43 11.5 -59.5t51.5 -16.5q42 0 60.5 19.5t23.5 56.5h16q-4 -29 -15 -50.5t-32 -33t-56 -11.5z" />
    <glyph glyph-name="Gdotaccent" unicode="&#x120;" horiz-adv-x="511" 
d="M230 -9q-55 0 -93.5 11t-60 37.5t-27.5 73t4 117.5q10 72 30.5 118t52 72t76.5 36t103 10q23 0 45.5 -1t45 -3.5t44.5 -7.5q15 -2 22 -5.5t9.5 -7.5t1.5 -9l-1 -9q-8 5 -22.5 8.5t-33.5 6.5t-39.5 5.5t-40 3.5t-35.5 1q-77 0 -124 -20.5t-72 -68t-37 -129.5
q-11 -81 -1.5 -129t48 -69.5t113.5 -21.5q64 0 105 13.5t64.5 51.5t36.5 109q3 16 4 27.5t2 16.5h-201q1 8 3 12t6 5.5t12 1.5h206l-8 -61q-8 -58 -26.5 -96t-47 -59.5t-68 -30.5t-90.5 -9h-2.5h-3.5zM309 521q-11 0 -17.5 3.5t-4.5 17.5q2 16 10 19.5t18 3.5q11 0 16.5 -4
t3.5 -19q-2 -14 -9 -17.5t-17 -3.5z" />
    <glyph glyph-name="gdotaccent" unicode="&#x121;" horiz-adv-x="461" 
d="M180 -111q-10 0 -33.5 1.5t-49.5 5t-44 10t-17 16.5q1 2 1.5 5.5t0.5 5.5q14 -9 40 -15t54 -9t48 -3q59 0 95 18t55.5 60.5t26.5 113.5l14 1q-15 -36 -45 -54.5t-66 -25.5t-68 -7q-55 0 -90.5 14t-48.5 55.5t-2 121.5q9 66 26 105.5t42.5 60t62 27t85.5 6.5
q21 0 45.5 -1.5t47.5 -3t40 -3.5t24 -4q-2 -4 -4.5 -19t-5.5 -34t-5 -35l-34 -236q-9 -63 -31.5 -102t-62 -57t-101.5 -18zM189 30q45 0 81.5 9.5t60.5 30t30 53.5l35 249q-10 3 -46.5 7.5t-87.5 4.5q-60 0 -97.5 -14.5t-58 -52.5t-30.5 -108q-9 -70 -1.5 -109t35.5 -54.5
t79 -15.5zM279 463q-11 0 -17.5 3.5t-4.5 17.5q2 16 10 19.5t18 3.5q11 0 16.5 -4t3.5 -19q-2 -14 -9 -17.5t-17 -3.5z" />
    <glyph glyph-name="uni0122" unicode="&#x122;" horiz-adv-x="511" 
d="M230 -9q-55 0 -93.5 11t-60 37.5t-27.5 73t4 117.5q10 72 30.5 118t52 72t76.5 36t103 10q23 0 45.5 -1t45 -3.5t44.5 -7.5q15 -2 22 -5.5t9.5 -7.5t1.5 -9l-1 -9q-8 5 -22.5 8.5t-33.5 6.5t-39.5 5.5t-40 3.5t-35.5 1q-77 0 -124 -20.5t-72 -68t-37 -129.5
q-11 -81 -1.5 -129t48 -69.5t113.5 -21.5q64 0 105 13.5t64.5 51.5t36.5 109q3 16 4 27.5t2 16.5h-201q1 8 3 12t6 5.5t12 1.5h206l-8 -61q-8 -58 -26.5 -96t-47 -59.5t-68 -30.5t-90.5 -9h-2.5h-3.5zM193 -168q6 13 11.5 26.5t10 25t5.5 16.5h-2h-2q-5 0 -11 3t-5 13
q2 11 8.5 14t17.5 3q7 0 10.5 -1.5t5 -5.5t0.5 -12q-2 -12 -10 -30t-16 -33t-11 -19h-12z" />
    <glyph glyph-name="uni0123" unicode="&#x123;" horiz-adv-x="461" 
d="M180 -111q-10 0 -33.5 1.5t-49.5 5t-44 10t-17 16.5q1 2 1.5 5.5t0.5 5.5q14 -9 40 -15t54 -9t48 -3q59 0 95 18t55.5 60.5t26.5 113.5l14 1q-15 -36 -45 -54.5t-66 -25.5t-68 -7q-55 0 -90.5 14t-48.5 55.5t-2 121.5q9 66 26 105.5t42.5 60t62 27t85.5 6.5
q21 0 45.5 -1.5t47.5 -3t40 -3.5t24 -4q-2 -4 -4.5 -19t-5.5 -34t-5 -35l-34 -236q-9 -63 -31.5 -102t-62 -57t-101.5 -18zM189 30q45 0 81.5 9.5t60.5 30t30 53.5l35 249q-10 3 -46.5 7.5t-87.5 4.5q-60 0 -97.5 -14.5t-58 -52.5t-30.5 -108q-9 -70 -1.5 -109t35.5 -54.5
t79 -15.5zM275 463q-6 0 -10 1.5t-5.5 6t-0.5 11.5q2 13 10 31t16 33t10 18h13q-6 -12 -11.5 -26t-9.5 -25t-6 -17h1.5h1.5q6 0 12.5 -2.5t4.5 -13.5q-1 -11 -8 -14t-18 -3z" />
    <glyph glyph-name="Hcircumflex" unicode="&#x124;" horiz-adv-x="598" 
d="M72 0l62 441q1 8 2.5 12t4.5 5.5t8 1.5h11l-30 -213h350l30 213h25l-62 -441q-1 -7 -2.5 -11.5t-4.5 -6t-9 -1.5h-11l32 228h-350l-32 -228h-24zM259 521l88 84h18l65 -84h-18l-59 66l-77 -66h-17z" />
    <glyph glyph-name="hcircumflex" unicode="&#x125;" horiz-adv-x="451" 
d="M57 0q-10 0 -11.5 3.5t0.5 18.5l67 483h22l-17 -122q13 5 37 8.5t51 5.5t49 2q56 0 86.5 -12t42.5 -34t12.5 -51.5t-4.5 -65.5l-30 -211q-1 -11 -3 -16.5t-5 -7t-10 -1.5h-7l35 250q8 55 -5 83t-42.5 38t-72.5 10q-18 0 -44.5 -1.5t-51.5 -5t-40 -9.5l-51 -365h-8z
M43 529l88 84h18l65 -84h-18l-59 66l-77 -66h-17z" />
    <glyph glyph-name="Hbar" unicode="&#x126;" horiz-adv-x="598" 
d="M72 0l62 441q1 8 2.5 12t4.5 5.5t8 1.5h11l-30 -213h350l30 213h25l-62 -441q-1 -7 -2.5 -11.5t-4.5 -6t-9 -1.5h-11l32 228h-350l-32 -228h-24zM76 358h485l-3 -15h-485z" />
    <glyph glyph-name="hbar" unicode="&#x127;" horiz-adv-x="451" 
d="M57 0q-10 0 -11.5 3.5t0.5 18.5l67 483h22l-17 -122q13 5 37 8.5t51 5.5t49 2q56 0 86.5 -12t42.5 -34t12.5 -51.5t-4.5 -65.5l-30 -211q-1 -11 -3 -16.5t-5 -7t-10 -1.5h-7l35 250q8 55 -5 83t-42.5 38t-72.5 10q-18 0 -44.5 -1.5t-51.5 -5t-40 -9.5l-51 -365h-8z
M51 470h198l-2 -15h-198z" />
    <glyph glyph-name="Itilde" unicode="&#x128;" horiz-adv-x="224" 
d="M72 0q15 110 30.5 220t31.5 220q1 7 1.5 11t3.5 6.5t8 2.5h13l-64 -460h-24zM204 519q-15 0 -29.5 8.5t-28.5 16.5t-29 8q-16 0 -27 -9.5t-16 -17.5l-10 8q2 3 6 9.5t11.5 13.5t17.5 12.5t23 5.5q16 0 29.5 -9t27.5 -17.5t28 -8.5q20 0 30.5 11.5t14.5 19.5l10 -10
q-1 -3 -5.5 -9.5t-12 -13.5t-17.5 -12.5t-23 -5.5z" />
    <glyph glyph-name="itilde" unicode="&#x129;" horiz-adv-x="199" 
d="M110 399q-10 -78 -21 -155t-22 -155q-6 -40 -0.5 -58.5t31.5 -18.5q5 0 18.5 1.5t17.5 3.5l-2 -15q-5 -1 -23 -3t-25 -2q-16 0 -25 5t-13 14.5t-5 22.5t1 28t4 32q5 37 10.5 74.5t10.5 75.5t10.5 75.5t10.5 74.5h11h11zM152 457q-15 0 -29.5 8.5t-28.5 17t-29 8.5
q-16 0 -25 -11t-14 -19l-12 7q2 4 6.5 11t11.5 14.5t16.5 12.5t21.5 5q16 0 29.5 -9t27.5 -17.5t28 -8.5q20 0 30.5 12t14.5 19l12 -7q-2 -4 -7 -11t-12.5 -14.5t-17.5 -12.5t-23 -5z" />
    <glyph glyph-name="Imacron" unicode="&#x12a;" horiz-adv-x="224" 
d="M72 0q15 110 30.5 220t31.5 220q1 7 1.5 11t3.5 6.5t8 2.5h13l-64 -460h-24zM62 522l2 14h197l-2 -14h-197z" />
    <glyph glyph-name="imacron" unicode="&#x12b;" horiz-adv-x="199" 
d="M110 399q-10 -78 -21 -155t-22 -155q-6 -40 -0.5 -58.5t31.5 -18.5q5 0 18.5 1.5t17.5 3.5l-2 -15q-5 -1 -23 -3t-25 -2q-16 0 -25 5t-13 14.5t-5 22.5t1 28t4 32q5 37 10.5 74.5t10.5 75.5t10.5 75.5t10.5 74.5h11h11zM14 461l2 18h189l-2 -18h-189z" />
    <glyph glyph-name="Ibreve" unicode="&#x12c;" horiz-adv-x="224" 
d="M72 0q15 110 30.5 220t31.5 220q1 7 1.5 11t3.5 6.5t8 2.5h13l-64 -460h-24zM156 519q-44 0 -62.5 22t-12.5 64h15q-6 -37 10.5 -52t52.5 -15q42 0 59 15t22 52h16q-7 -44 -27.5 -65t-72.5 -21z" />
    <glyph glyph-name="ibreve" unicode="&#x12d;" horiz-adv-x="199" 
d="M110 399q-10 -78 -21 -155t-22 -155q-6 -40 -0.5 -58.5t31.5 -18.5q5 0 18.5 1.5t17.5 3.5l-2 -15q-5 -1 -23 -3t-25 -2q-16 0 -25 5t-13 14.5t-5 22.5t1 28t4 32q5 37 10.5 74.5t10.5 75.5t10.5 75.5t10.5 74.5h11h11zM107 458q-29 0 -47 12t-25 33.5t-3 49.5h15
q-4 -43 11.5 -59.5t51.5 -16.5q42 0 60.5 19.5t23.5 56.5h16q-4 -29 -15 -50.5t-32 -33t-56 -11.5z" />
    <glyph glyph-name="Iogonek" unicode="&#x12e;" horiz-adv-x="224" 
d="M72 0q15 110 30.5 220t31.5 220q1 7 1.5 11t3.5 6.5t8 2.5h13l-64 -460h-24zM41 -172q-29 0 -48.5 5t-28 19t-5.5 40q4 26 25.5 50t46 41.5t37.5 24.5h27q-8 -3 -25.5 -14.5t-37 -27.5t-34.5 -34t-17 -34q-4 -34 12 -44.5t47 -10.5q9 0 17.5 0.5t15 1t8.5 0.5
q-1 -6 -4 -10t-11 -5.5t-25 -1.5z" />
    <glyph glyph-name="iogonek" unicode="&#x12f;" horiz-adv-x="199" 
d="M110 399q-10 -78 -21 -155t-22 -155q-6 -40 -0.5 -58.5t31.5 -18.5q5 0 18.5 1.5t17.5 3.5l-2 -15q-5 -1 -23 -3t-25 -2q-16 0 -25 5t-13 14.5t-5 22.5t1 28t4 32q5 37 10.5 74.5t10.5 75.5t10.5 75.5t10.5 74.5h11h11zM109 460q-11 0 -17.5 3.5t-4.5 17.5q2 16 10 19.5
t18 3.5q11 0 16.5 -4t3.5 -19q-2 -14 -9 -17.5t-17 -3.5zM55 -173q-29 0 -48.5 5t-28 19t-5.5 40q4 26 25.5 50t46 41.5t37.5 24.5h27q-8 -3 -25.5 -14.5t-37 -27.5t-34.5 -34t-17 -34q-4 -34 12 -44.5t47 -10.5q9 0 17.5 0.5t15 1t8.5 0.5q-1 -6 -4 -10t-11 -5.5t-25 -1.5z
" />
    <glyph glyph-name="Idotaccent" unicode="&#x130;" horiz-adv-x="224" 
d="M72 0q15 110 30.5 220t31.5 220q1 7 1.5 11t3.5 6.5t8 2.5h13l-64 -460h-24zM161 521q-11 0 -17.5 3.5t-4.5 17.5q2 16 10 19.5t18 3.5q11 0 16.5 -4t3.5 -19q-2 -14 -9 -17.5t-17 -3.5z" />
    <glyph glyph-name="dotlessi" unicode="&#x131;" horiz-adv-x="199" 
d="M110 399q-10 -78 -21 -155t-22 -155q-6 -40 -0.5 -58.5t31.5 -18.5q5 0 18.5 1.5t17.5 3.5l-2 -15q-5 -1 -23 -3t-25 -2q-16 0 -25 5t-13 14.5t-5 22.5t1 28t4 32q5 37 10.5 74.5t10.5 75.5t10.5 75.5t10.5 74.5h11h11z" />
    <glyph glyph-name="IJ" unicode="&#x132;" horiz-adv-x="484" 
d="M72 0q15 110 30.5 220t31.5 220q1 7 1.5 11t3.5 6.5t8 2.5h13l-64 -460h-24zM382 150q-3 -21 -7 -51.5t-9 -48.5q-4 -12 -13 -24.5t-23.5 -20.5t-37.5 -8h-15.5t-20 1.5t-20.5 3.5l3 19q5 -2 18.5 -4t20.5 -2q32 0 48.5 12t20.5 44l55 389h13q5 0 7 -2t2 -5.5t-1 -8.5z
" />
    <glyph glyph-name="ij" unicode="&#x133;" horiz-adv-x="349" 
d="M99 -3q-34 0 -41 24t-2 65l45 313h22l-44 -310q-7 -46 0 -60.5t31 -14.5q5 0 19 1.5t18 3.5l-2 -17q-4 -1 -11 -2t-16 -2t-19 -1zM121 463q-6 0 -12 3t-5 13q2 11 7.5 14t12.5 3q8 0 14 -2.5t4 -14.5q-2 -10 -8.5 -13t-12.5 -3zM179 -85q-15 0 -27.5 1t-18.5 2l2 17
q5 -1 19 -2t24 -1q27 0 36.5 13t15.5 53l54 386q1 5 2 8.5t4 5t9 1.5h9l-56 -398q-4 -32 -11.5 -51t-21.5 -27t-40 -8zM307 463q-6 0 -11.5 3t-4.5 13q1 11 7 14t13 3q8 0 14 -2.5t4 -14.5q-2 -10 -9 -13t-13 -3z" />
    <glyph glyph-name="Jcircumflex" unicode="&#x134;" horiz-adv-x="260" 
d="M158 150q-3 -21 -7 -51.5t-9 -48.5q-4 -12 -13 -24.5t-23.5 -20.5t-37.5 -8h-15.5t-20 1.5t-20.5 3.5l3 19q5 -2 18.5 -4t20.5 -2q32 0 48.5 12t20.5 44l55 389h13q5 0 7 -2t2 -5.5t-1 -8.5zM111 521l88 84h18l65 -84h-18l-59 66l-77 -66h-17z" />
    <glyph glyph-name="jcircumflex" unicode="&#x135;" horiz-adv-x="196" 
d="M-18 -67q5 -1 19 -2t24 -1q30 0 39 18.5t14 58.5q14 94 27 188.5t26 188.5q1 5 2 8.5t4 5t9 1.5h4.5h4.5q-5 -37 -10.5 -74t-10.5 -74t-10 -74.5t-10.5 -74.5t-10.5 -74q-3 -23 -6.5 -41.5t-8 -32t-11.5 -22t-19 -13t-29 -4.5q-15 0 -29 1t-21 2q1 4 1.5 7.5t1.5 7.5z
M68 460l92 103h17l65 -103h-18l-58 84l-81 -84h-17z" />
    <glyph glyph-name="uni0136" unicode="&#x136;" horiz-adv-x="470" 
d="M401 -1q-6 0 -11 3t-12 10q-4 6 -18 25.5t-32 45.5t-37 52.5t-33.5 46.5t-19.5 27q-8 11 -15 15t-27 5h-67l-32 -229h-24l62 446q1 5 2 8t3.5 4.5t5.5 1.5h8h7q-2 -14 -6 -43t-8.5 -62.5t-9 -62.5t-6.5 -43h67q17 0 25 5t18 15q31 30 63 60t64 61l64 62q5 5 10 7t9 2
q5 0 8.5 -1.5t4.5 -3.5q-2 -1 -16.5 -15t-33 -32t-33.5 -32q-25 -23 -50 -47t-48.5 -46.5t-44.5 -41.5l3 -2q6 -4 24 -28.5t43 -60.5t53 -75.5t54 -74.5q-1 0 -3.5 -0.5l-5 -1t-5.5 -0.5zM191 -168q6 13 11.5 26.5t10 25t5.5 16.5h-2h-2q-5 0 -11 3t-5 13q2 11 8.5 14
t17.5 3q7 0 10.5 -1.5t5 -5.5t0.5 -12q-2 -12 -10 -30t-16 -33t-11 -19h-12z" />
    <glyph glyph-name="uni0137" unicode="&#x137;" horiz-adv-x="372" 
d="M42 0l69 491q1 8 4 11t9 3h11l-50 -353l248 235q4 4 8 6.5t8.5 4.5t8.5 2h9.5t8.5 -1q-3 -2 -9 -7t-13 -11t-13 -12l-155 -145l140 -196q5 -8 10.5 -14.5t10.5 -13.5q-4 -1 -8.5 -1h-9.5q-7 0 -11.5 3t-9.5 11l-140 194l-87 -81l-17 -126h-22zM117 -168q6 13 11.5 26.5
t10 25t5.5 16.5h-2h-2q-5 0 -11 3t-5 13q2 11 8.5 14t17.5 3q7 0 10.5 -1.5t5 -5.5t0.5 -12q-2 -12 -10 -30t-16 -33t-11 -19h-12z" />
    <glyph glyph-name="kgreenlandic" unicode="&#x138;" horiz-adv-x="408" 
d="M59 0q4 27 9 66.5t11 83.5t12 85t10 72t6 43q3 18 -4.5 26t-19 9t-23.5 -0.5t-19 -3.5v2.5t0.5 5l1 5t0.5 3.5q2 0 12 2t24 2.5t27 -2.5t21 -12.5t5 -28.5q-6 -42 -9 -64t-4.5 -35t-3.5 -24.5t-4.5 -30.5t-7.5 -55q8 8 25.5 24t42 39t55 52.5t66 63.5t74.5 71h5h6h5.5
h5.5h5q-4 -3 -14.5 -12t-18.5 -17q-40 -37 -79 -73.5t-77 -72.5q13 -18 35 -49t46.5 -65t45 -62.5t29.5 -40.5q2 -3 3.5 -5l1.5 -2h-2t-4.5 -0.5t-5.5 -0.5h-5q-7 0 -11.5 3t-9.5 11q-24 33 -47.5 65t-47 64.5t-47.5 64.5l-85 -81q-4 -31 -8.5 -62.5t-9.5 -63.5h-4h-4.5
h-5.5h-5h-4z" />
    <glyph glyph-name="Lacute" unicode="&#x139;" horiz-adv-x="450" 
d="M160 460l-62 -441h314l-2 -19h-338l62 440q1 7 2 11t3.5 6.5t7.5 2.5h13zM137 521l106 84l14 -19l-105 -65h-15z" />
    <glyph glyph-name="lacute" unicode="&#x13a;" horiz-adv-x="178" 
d="M95 -3q-31 0 -42 18.5t-4 66.5l57 402q1 6 2.5 11t5 7.5t9.5 2.5h9l-1.5 -7.5t-3.5 -22.5l-55 -386q-5 -39 1 -57t31 -18q6 0 19 1.5t17 3.5l-2 -17q-5 -1 -15.5 -3t-27.5 -2zM111 566l106 84l14 -19l-105 -65h-15z" />
    <glyph glyph-name="uni013B" unicode="&#x13b;" horiz-adv-x="450" 
d="M160 460l-62 -441h314l-2 -19h-338l62 440q1 7 2 11t3.5 6.5t7.5 2.5h13zM198 -168q6 13 11.5 26.5t10 25t5.5 16.5h-2h-2q-5 0 -11 3t-5 13q2 11 8.5 14t17.5 3q7 0 10.5 -1.5t5 -5.5t0.5 -12q-2 -12 -10 -30t-16 -33t-11 -19h-12z" />
    <glyph glyph-name="uni013C" unicode="&#x13c;" horiz-adv-x="178" 
d="M95 -3q-31 0 -42 18.5t-4 66.5l57 402q1 6 2.5 11t5 7.5t9.5 2.5h9l-1.5 -7.5t-3.5 -22.5l-55 -386q-5 -39 1 -57t31 -18q6 0 19 1.5t17 3.5l-2 -17q-5 -1 -15.5 -3t-27.5 -2zM44 -168q6 13 11.5 26.5t10 25t5.5 16.5h-2h-2q-5 0 -11 3t-5 13q2 11 8.5 14t17.5 3
q7 0 10.5 -1.5t5 -5.5t0.5 -12q-2 -12 -10 -30t-16 -33t-11 -19h-12z" />
    <glyph glyph-name="Lcaron" unicode="&#x13d;" horiz-adv-x="450" 
d="M160 460l-62 -441h314l-2 -19h-338l62 440q1 7 2 11t3.5 6.5t7.5 2.5h13zM297 332l12 128h20l-18 -128h-14z" />
    <glyph glyph-name="lcaron" unicode="&#x13e;" horiz-adv-x="178" 
d="M95 -3q-31 0 -42 18.5t-4 66.5l57 402q1 6 2.5 11t5 7.5t9.5 2.5h9l-1.5 -7.5t-3.5 -22.5l-55 -386q-5 -39 1 -57t31 -18q6 0 19 1.5t17 3.5l-2 -17q-5 -1 -15.5 -3t-27.5 -2zM182 377l24 128h20l-30 -128h-14z" />
    <glyph glyph-name="Ldot" unicode="&#x13f;" horiz-adv-x="405" 
d="M160 460l-62 -441h314l-2 -19h-338l62 440q1 7 2 11t3.5 6.5t7.5 2.5h13zM231 223q2 11 8 14t13 3q8 0 14 -3t4 -14q-1 -7 -4.5 -10.5t-8 -4.5t-8.5 -1t-8.5 1t-7.5 4.5t-2 10.5z" />
    <glyph glyph-name="ldot" unicode="&#x140;" horiz-adv-x="199" 
d="M95 -3q-31 0 -42 18.5t-4 66.5l57 402q1 6 2.5 11t5 7.5t9.5 2.5h9l-1.5 -7.5t-3.5 -22.5l-55 -386q-5 -39 1 -57t31 -18q6 0 19 1.5t17 3.5l-2 -17q-5 -1 -15.5 -3t-27.5 -2zM144 213q2 11 8 14t13 3q8 0 14 -3t4 -14q-1 -7 -4.5 -10.5t-8 -4.5t-8.5 -1t-8.5 1t-7.5 4.5
t-2 10.5z" />
    <glyph glyph-name="Lslash" unicode="&#x141;" horiz-adv-x="412" 
d="M184 203l4 -14l-183 -67l-5 15zM189 460l-62 -441h314l-2 -19h-338l62 440q1 7 2 11t3.5 6.5t7.5 2.5h13z" />
    <glyph glyph-name="lslash" unicode="&#x142;" horiz-adv-x="199" 
d="M183 204l5 -14l-183 -66l-5 15zM96 -3q-31 0 -42 18.5t-4 66.5l57 402q1 6 2.5 11t5 7.5t9.5 2.5h9l-1.5 -7.5t-3.5 -22.5l-55 -386q-5 -39 1 -57t31 -18q6 0 19 1.5t17 3.5l-2 -17q-5 -1 -15.5 -3t-27.5 -2z" />
    <glyph glyph-name="Nacute" unicode="&#x143;" horiz-adv-x="598" 
d="M72 0l60 428q2 15 3.5 22t4.5 8.5t11 1.5h14l287 -434l1 11l60 423h22q-1 -1 -2 -5t-2 -8.5t-2 -9.5l-56 -405q-3 -22 -5.5 -27t-14.5 -5h-15l-286 434l-1 -8l-59 -426h-20zM327 521l106 84l14 -19l-105 -65h-15z" />
    <glyph glyph-name="nacute" unicode="&#x144;" horiz-adv-x="454" 
d="M56 0q-15 0 -12 14l49 353q15 8 34 16t52.5 13.5t89.5 5.5q45 0 73.5 -6.5t43 -20t18 -34t-0.5 -47.5l-39 -280q-1 -4 -3 -7.5t-5.5 -5t-8.5 -1.5h-7l41 295q7 45 -19 67t-98 22q-55 0 -93.5 -7.5t-56.5 -23.5l-50 -353h-8zM252 460l111 103l16 -19l-112 -84h-15z" />
    <glyph glyph-name="uni0145" unicode="&#x145;" horiz-adv-x="598" 
d="M72 0l60 428q2 15 3.5 22t4.5 8.5t11 1.5h14l287 -434l1 11l60 423h22q-1 -1 -2 -5t-2 -8.5t-2 -9.5l-56 -405q-3 -22 -5.5 -27t-14.5 -5h-15l-286 434l-1 -8l-59 -426h-20zM234 -168q6 13 11.5 26.5t10 25t5.5 16.5h-2h-2q-5 0 -11 3t-5 13q2 11 8.5 14t17.5 3
q7 0 10.5 -1.5t5 -5.5t0.5 -12q-2 -12 -10 -30t-16 -33t-11 -19h-12z" />
    <glyph glyph-name="uni0146" unicode="&#x146;" horiz-adv-x="454" 
d="M56 0q-15 0 -12 14l49 353q15 8 34 16t52.5 13.5t89.5 5.5q45 0 73.5 -6.5t43 -20t18 -34t-0.5 -47.5l-39 -280q-1 -4 -3 -7.5t-5.5 -5t-8.5 -1.5h-7l41 295q7 45 -19 67t-98 22q-55 0 -93.5 -7.5t-56.5 -23.5l-50 -353h-8zM163 -168q6 13 11.5 26.5t10 25t5.5 16.5h-2
h-2q-5 0 -11 3t-5 13q2 11 8.5 14t17.5 3q7 0 10.5 -1.5t5 -5.5t0.5 -12q-2 -12 -10 -30t-16 -33t-11 -19h-12z" />
    <glyph glyph-name="Ncaron" unicode="&#x147;" horiz-adv-x="598" 
d="M272 605h17l58 -66l78 66h18l-89 -84h-18zM72 0l60 428q2 15 3.5 22t4.5 8.5t11 1.5h14l287 -434l1 11l60 423h22q-1 -1 -2 -5t-2 -8.5t-2 -9.5l-56 -405q-3 -22 -5.5 -27t-14.5 -5h-15l-286 434l-1 -8l-59 -426h-20z" />
    <glyph glyph-name="ncaron" unicode="&#x148;" horiz-adv-x="454" 
d="M192 563h17l57 -84l82 84h18l-94 -103h-17zM56 0q-15 0 -12 14l49 353q15 8 34 16t52.5 13.5t89.5 5.5q45 0 73.5 -6.5t43 -20t18 -34t-0.5 -47.5l-39 -280q-1 -4 -3 -7.5t-5.5 -5t-8.5 -1.5h-7l41 295q7 45 -19 67t-98 22q-55 0 -93.5 -7.5t-56.5 -23.5l-50 -353h-8z
" />
    <glyph glyph-name="napostrophe" unicode="&#x149;" horiz-adv-x="440" 
d="M3 378q9 18 17 39t10 29h-1h-3q-5 0 -11 2.5t-4 13.5q1 8 4 11.5t8 4.5t12 1q11 0 15 -4t2 -15q-1 -13 -9 -31t-16 -33t-11 -18h-13zM57 0q-15 0 -12 14l49 353q15 8 34 16t52.5 13.5t89.5 5.5q45 0 73.5 -6.5t43 -20t18 -34t-0.5 -47.5l-39 -280q-1 -4 -3 -7.5t-5.5 -5
t-8.5 -1.5h-7l41 295q7 45 -19 67t-98 22q-55 0 -93.5 -7.5t-56.5 -23.5l-50 -353h-8z" />
    <glyph glyph-name="Eng" unicode="&#x14a;" horiz-adv-x="504" 
d="M33 0q2 2 3 9l2 14q14 101 28.5 202.5t28.5 202.5q3 23 5 27.5t14 4.5h7.5h7.5q71 -109 142.5 -217t143.5 -217q15 109 30.5 217t30.5 217h11h11q-1 -1 -2 -5t-1.5 -8.5t-1.5 -9.5q-16 -118 -32.5 -235.5t-33.5 -234.5q-3 -21 -7 -52t-9 -49q-4 -12 -13 -24t-23.5 -20
t-37.5 -8h-15t-21 1.5t-21 3.5q1 5 1.5 9.5t1.5 9.5q5 -2 18.5 -4t20.5 -2q33 0 49 12t20 43q4 27 7.5 54t7.5 53h-1h-1l-289 440q-15 -109 -30 -217t-30 -217h-11h-11z" />
    <glyph glyph-name="eng" unicode="&#x14b;" horiz-adv-x="423" 
d="M72 367q6 3 22.5 11.5t52.5 16t100 7.5q46 0 74 -6.5t42.5 -20t18 -34t-0.5 -47.5l-29 -209q-4 -34 -6.5 -55t-3.5 -24q-3 -21 -6 -38t-8 -29.5t-12.5 -21t-18.5 -12.5t-28 -4q-15 0 -29.5 1.5t-21.5 2.5q1 3 1.5 5.5l1 5t0.5 4.5q39 -5 58 0t27 23t12 50q11 76 21.5 151
t20.5 151q6 47 -23.5 69t-94.5 22q-36 0 -69 -4.5t-55 -12.5t-26 -21l-49 -348h-2h-2h-2h-2q-7 0 -10.5 2.5t-2.5 11.5z" />
    <glyph glyph-name="Omacron" unicode="&#x14c;" horiz-adv-x="555" 
d="M243 -7q-47 0 -86.5 7.5t-67 31t-37.5 71t1 128.5q12 83 37.5 131t61.5 71t79 29.5t89 6.5q47 0 86.5 -7.5t67 -31t37.5 -71t-1 -128.5q-12 -83 -37.5 -131t-61.5 -71t-78.5 -29.5t-89.5 -6.5zM250 11q48 0 87 7.5t68 29.5t49 66t30 116q10 73 2.5 117t-31 66.5t-60 30
t-84.5 7.5t-86 -7.5t-67.5 -30t-49 -66.5t-29.5 -117q-10 -72 -3 -116t30 -66t59.5 -29.5t84.5 -7.5zM230 522l2 14h197l-2 -14h-197z" />
    <glyph glyph-name="omacron" unicode="&#x14d;" horiz-adv-x="460" 
d="M201 -5q-38 0 -69.5 6.5t-53 26.5t-29.5 61t2 110t29.5 110t46.5 61.5t60.5 26.5t71.5 6t70 -6.5t53 -26.5t29 -61t-2 -110q-10 -70 -29 -111t-46.5 -61t-61 -26t-71.5 -6zM204 13q48 0 84.5 12.5t61 52t35.5 121.5q12 82 -1.5 121.5t-46.5 52t-81 12.5t-84.5 -12.5
t-60.5 -52t-36 -121.5q-11 -82 2.5 -121.5t46.5 -52t80 -12.5zM173 461l2 18h189l-2 -18h-189z" />
    <glyph glyph-name="Obreve" unicode="&#x14e;" horiz-adv-x="555" 
d="M243 -7q-47 0 -86.5 7.5t-67 31t-37.5 71t1 128.5q12 83 37.5 131t61.5 71t79 29.5t89 6.5q47 0 86.5 -7.5t67 -31t37.5 -71t-1 -128.5q-12 -83 -37.5 -131t-61.5 -71t-78.5 -29.5t-89.5 -6.5zM250 11q48 0 87 7.5t68 29.5t49 66t30 116q10 73 2.5 117t-31 66.5t-60 30
t-84.5 7.5t-86 -7.5t-67.5 -30t-49 -66.5t-29.5 -117q-10 -72 -3 -116t30 -66t59.5 -29.5t84.5 -7.5zM324 519q-44 0 -62.5 22t-12.5 64h15q-6 -37 10.5 -52t52.5 -15q42 0 59 15t22 52h16q-7 -44 -27.5 -65t-72.5 -21z" />
    <glyph glyph-name="obreve" unicode="&#x14f;" horiz-adv-x="460" 
d="M201 -5q-38 0 -69.5 6.5t-53 26.5t-29.5 61t2 110t29.5 110t46.5 61.5t60.5 26.5t71.5 6t70 -6.5t53 -26.5t29 -61t-2 -110q-10 -70 -29 -111t-46.5 -61t-61 -26t-71.5 -6zM204 13q48 0 84.5 12.5t61 52t35.5 121.5q12 82 -1.5 121.5t-46.5 52t-81 12.5t-84.5 -12.5
t-60.5 -52t-36 -121.5q-11 -82 2.5 -121.5t46.5 -52t80 -12.5zM266 458q-29 0 -47 12t-25 33.5t-3 49.5h15q-4 -43 11.5 -59.5t51.5 -16.5q42 0 60.5 19.5t23.5 56.5h16q-4 -29 -15 -50.5t-32 -33t-56 -11.5z" />
    <glyph glyph-name="Ohungarumlaut" unicode="&#x150;" horiz-adv-x="555" 
d="M243 -7q-47 0 -86.5 7.5t-67 31t-37.5 71t1 128.5q12 83 37.5 131t61.5 71t79 29.5t89 6.5q47 0 86.5 -7.5t67 -31t37.5 -71t-1 -128.5q-12 -83 -37.5 -131t-61.5 -71t-78.5 -29.5t-89.5 -6.5zM250 11q48 0 87 7.5t68 29.5t49 66t30 116q10 73 2.5 117t-31 66.5t-60 30
t-84.5 7.5t-86 -7.5t-67.5 -30t-49 -66.5t-29.5 -117q-10 -72 -3 -116t30 -66t59.5 -29.5t84.5 -7.5zM371 521l30 84h28l-44 -84h-14zM275 521l31 84h27l-43 -84h-15z" />
    <glyph glyph-name="ohungarumlaut" unicode="&#x151;" horiz-adv-x="460" 
d="M201 -5q-38 0 -69.5 6.5t-53 26.5t-29.5 61t2 110t29.5 110t46.5 61.5t60.5 26.5t71.5 6t70 -6.5t53 -26.5t29 -61t-2 -110q-10 -70 -29 -111t-46.5 -61t-61 -26t-71.5 -6zM204 13q48 0 84.5 12.5t61 52t35.5 121.5q12 82 -1.5 121.5t-46.5 52t-81 12.5t-84.5 -12.5
t-60.5 -52t-36 -121.5q-11 -82 2.5 -121.5t46.5 -52t80 -12.5zM310 460l42 103h28l-56 -103h-14zM214 460l43 103h26l-54 -103h-15z" />
    <glyph glyph-name="OE" unicode="&#x152;" horiz-adv-x="870" 
d="M243 -7q-47 0 -86.5 7.5t-67 31t-37.5 71t1 128.5q12 83 37.5 131t61.5 71t79 29.5t89 6.5q47 0 86.5 -7.5t67 -31t37.5 -71t-1 -128.5q-12 -83 -37.5 -131t-61.5 -71t-78.5 -29.5t-89.5 -6.5zM250 11q48 0 87 7.5t68 29.5t49 66t30 116q10 73 2.5 117t-31 66.5t-60 30
t-84.5 7.5t-86 -7.5t-67.5 -30t-49 -66.5t-29.5 -117q-10 -72 -3 -116t30 -66t59.5 -29.5t84.5 -7.5zM492 0l62 440q1 7 1.5 11t3.5 6.5t8 2.5h357l-2 -19h-344l-27 -187h318l-2 -19h-318l-31 -216h345l-3 -19h-368z" />
    <glyph glyph-name="oe" unicode="&#x153;" horiz-adv-x="770" 
d="M201 -5q-38 0 -69.5 6.5t-53 26.5t-29.5 61t2 110t29.5 110t46.5 61.5t60.5 26.5t71.5 6t70 -6.5t53 -26.5t29 -61t-2 -110q-10 -70 -29 -111t-46.5 -61t-61 -26t-71.5 -6zM204 13q48 0 84.5 12.5t61 52t35.5 121.5q12 82 -1.5 121.5t-46.5 52t-81 12.5t-84.5 -12.5
t-60.5 -52t-36 -121.5q-11 -82 2.5 -121.5t46.5 -52t80 -12.5zM546 -7q-51 0 -85.5 9t-53.5 32t-24 63.5t4 102.5q11 75 33.5 120t65.5 65t117 20q83 0 115 -40.5t21 -123.5l-6 -45h-285q1 7 5.5 12t14.5 5h246l4 33q8 71 -19 105.5t-98 34.5q-60 0 -98.5 -16.5t-60 -56.5
t-32.5 -113q-10 -76 0.5 -116.5t44 -56t93.5 -15.5q20 0 42.5 1.5t44.5 4.5t39.5 7t27.5 9l-1 -8q-1 -7 -7.5 -12t-26.5 -10q-26 -5 -57.5 -8t-63.5 -3z" />
    <glyph glyph-name="Racute" unicode="&#x154;" horiz-adv-x="575" 
d="M379 210h-33.5h-91t-129.5 -1l-29 -209h-24l58 414q4 29 17.5 37t35.5 9q15 1 36.5 1t46 0.5t50 0.5h49.5t44 -1t32 -2q51 -5 69 -36t10 -86q-7 -40 -25.5 -67.5t-47.5 -41.5q-2 -1 -5.5 -1.5t-5.5 -0.5v-1h4.5h4.5q25 -5 34.5 -17.5t10.5 -29t-1 -32.5l-18 -130
q-1 -4 -1 -9.5t1 -6.5h-12q-7 0 -11 3t-2 19l19 129q5 31 -7 45t-46 14h-33zM128 230q17 0 51.5 -0.5t75 -1t75 -0.5h50.5q39 0 72 23.5t42 87.5q7 44 -6.5 70t-50.5 30q-24 3 -59.5 4t-73.5 0.5t-70 -1t-49 -1.5q-4 0 -16 -4t-15 -23zM297 521l106 84l14 -19l-105 -65h-15z
" />
    <glyph glyph-name="racute" unicode="&#x155;" horiz-adv-x="347" 
d="M64 0h-6q-7 0 -11 3.5t-3 12.5l51 363q19 6 49.5 14.5t81.5 8.5q44 0 69 -7t35.5 -18.5t12 -25.5t-0.5 -29h-22l1 14q2 23 -13.5 33t-38.5 12.5t-46 2.5q-34 0 -62 -6t-46 -14zM213 460l111 103l16 -19l-112 -84h-15z" />
    <glyph glyph-name="uni0156" unicode="&#x156;" horiz-adv-x="575" 
d="M379 210h-33.5h-91t-129.5 -1l-29 -209h-24l58 414q4 29 17.5 37t35.5 9q15 1 36.5 1t46 0.5t50 0.5h49.5t44 -1t32 -2q51 -5 69 -36t10 -86q-7 -40 -25.5 -67.5t-47.5 -41.5q-2 -1 -5.5 -1.5t-5.5 -0.5v-1h4.5h4.5q25 -5 34.5 -17.5t10.5 -29t-1 -32.5l-18 -130
q-1 -4 -1 -9.5t1 -6.5h-12q-7 0 -11 3t-2 19l19 129q5 31 -7 45t-46 14h-33zM128 230q17 0 51.5 -0.5t75 -1t75 -0.5h50.5q39 0 72 23.5t42 87.5q7 44 -6.5 70t-50.5 30q-24 3 -59.5 4t-73.5 0.5t-70 -1t-49 -1.5q-4 0 -16 -4t-15 -23zM232 -168q6 13 11.5 26.5t10 25
t5.5 16.5h-2h-2q-5 0 -11 3t-5 13q2 11 8.5 14t17.5 3q7 0 10.5 -1.5t5 -5.5t0.5 -12q-2 -12 -10 -30t-16 -33t-11 -19h-12z" />
    <glyph glyph-name="uni0157" unicode="&#x157;" horiz-adv-x="347" 
d="M64 0h-6q-7 0 -11 3.5t-3 12.5l51 363q19 6 49.5 14.5t81.5 8.5q44 0 69 -7t35.5 -18.5t12 -25.5t-0.5 -29h-22l1 14q2 23 -13.5 33t-38.5 12.5t-46 2.5q-34 0 -62 -6t-46 -14zM13 -168q6 13 11.5 26.5t10 25t5.5 16.5h-2h-2q-5 0 -11 3t-5 13q2 11 8.5 14t17.5 3
q7 0 10.5 -1.5t5 -5.5t0.5 -12q-2 -12 -10 -30t-16 -33t-11 -19h-12z" />
    <glyph glyph-name="Rcaron" unicode="&#x158;" horiz-adv-x="575" 
d="M242 605h17l58 -66l78 66h18l-89 -84h-18zM379 210h-33.5h-91t-129.5 -1l-29 -209h-24l58 414q4 29 17.5 37t35.5 9q15 1 36.5 1t46 0.5t50 0.5h49.5t44 -1t32 -2q51 -5 69 -36t10 -86q-7 -40 -25.5 -67.5t-47.5 -41.5q-2 -1 -5.5 -1.5t-5.5 -0.5v-1h4.5h4.5
q25 -5 34.5 -17.5t10.5 -29t-1 -32.5l-18 -130q-1 -4 -1 -9.5t1 -6.5h-12q-7 0 -11 3t-2 19l19 129q5 31 -7 45t-46 14h-33zM128 230q17 0 51.5 -0.5t75 -1t75 -0.5h50.5q39 0 72 23.5t42 87.5q7 44 -6.5 70t-50.5 30q-24 3 -59.5 4t-73.5 0.5t-70 -1t-49 -1.5q-4 0 -16 -4
t-15 -23z" />
    <glyph glyph-name="rcaron" unicode="&#x159;" horiz-adv-x="347" 
d="M153 563h17l57 -84l82 84h18l-94 -103h-17zM64 0h-6q-7 0 -11 3.5t-3 12.5l51 363q19 6 49.5 14.5t81.5 8.5q44 0 69 -7t35.5 -18.5t12 -25.5t-0.5 -29h-22l1 14q2 23 -13.5 33t-38.5 12.5t-46 2.5q-34 0 -62 -6t-46 -14z" />
    <glyph glyph-name="Sacute" unicode="&#x15a;" horiz-adv-x="531" 
d="M45 46q17 -15 47 -22t62.5 -9t55.5 -2h18.5t19.5 1q48 2 86 12t63 35.5t32 73.5q6 40 -5 59.5t-35.5 26t-61.5 6.5h-34.5h-35.5h-36q-26 0 -53 2.5t-48 12t-32 31t-5 60.5q6 46 27.5 72.5t54 39t71.5 16t81 3.5q25 0 57.5 -1.5t62 -6.5t44.5 -17q5 -3 6.5 -6t1.5 -8
q0 -3 -0.5 -6l-1 -6t-1.5 -6q-8 12 -27.5 19.5t-44 11.5t-47 5.5t-36.5 1.5h-40q-43 0 -82.5 -6.5t-67 -30t-34.5 -74.5q-6 -40 8 -58.5t42.5 -23.5t66.5 -5h51.5h50.5q41 0 72.5 -7t47 -31t7.5 -76q-7 -52 -35.5 -81.5t-72 -41.5t-96.5 -15q-11 -1 -21.5 -1h-21.5
q-14 0 -41 1.5t-55.5 5.5t-47.5 12t-18 22zM290 521l106 84l14 -19l-105 -65h-15z" />
    <glyph glyph-name="sacute" unicode="&#x15b;" horiz-adv-x="410" 
d="M153 -5q-13 0 -37.5 1t-50.5 5t-44 13q-6 3 -8 5.5t-2 7.5t1 13q15 -12 43 -18t56.5 -7.5t44.5 -1.5q38 0 70 3.5t57.5 14t41.5 31.5t21 55q8 52 -16.5 66t-71.5 14h-93q-31 0 -61 4.5t-47.5 24t-11.5 64.5q7 50 34.5 74.5t71 32t98.5 7.5q20 0 48.5 -1.5t56.5 -7.5
q14 -2 24 -5.5t15.5 -8t3.5 -11.5l-2 -16q-9 11 -27 17t-40.5 9.5t-46.5 4.5t-45 1q-39 0 -75.5 -5t-62 -24.5t-32.5 -65.5q-5 -35 7 -51t37 -20.5t58 -4.5h88q36 0 63.5 -6t41 -27t6.5 -67q-7 -50 -37 -76t-76 -35t-101 -9zM233 460l111 103l16 -19l-112 -84h-15z" />
    <glyph glyph-name="Scircumflex" unicode="&#x15c;" horiz-adv-x="531" 
d="M45 46q17 -15 47 -22t62.5 -9t55.5 -2h18.5t19.5 1q48 2 86 12t63 35.5t32 73.5q6 40 -5 59.5t-35.5 26t-61.5 6.5h-34.5h-35.5h-36q-26 0 -53 2.5t-48 12t-32 31t-5 60.5q6 46 27.5 72.5t54 39t71.5 16t81 3.5q25 0 57.5 -1.5t62 -6.5t44.5 -17q5 -3 6.5 -6t1.5 -8
q0 -3 -0.5 -6l-1 -6t-1.5 -6q-8 12 -27.5 19.5t-44 11.5t-47 5.5t-36.5 1.5h-40q-43 0 -82.5 -6.5t-67 -30t-34.5 -74.5q-6 -40 8 -58.5t42.5 -23.5t66.5 -5h51.5h50.5q41 0 72.5 -7t47 -31t7.5 -76q-7 -52 -35.5 -81.5t-72 -41.5t-96.5 -15q-11 -1 -21.5 -1h-21.5
q-14 0 -41 1.5t-55.5 5.5t-47.5 12t-18 22zM226 521l88 84h18l65 -84h-18l-59 66l-77 -66h-17z" />
    <glyph glyph-name="scircumflex" unicode="&#x15d;" horiz-adv-x="410" 
d="M153 -5q-13 0 -37.5 1t-50.5 5t-44 13q-6 3 -8 5.5t-2 7.5t1 13q15 -12 43 -18t56.5 -7.5t44.5 -1.5q38 0 70 3.5t57.5 14t41.5 31.5t21 55q8 52 -16.5 66t-71.5 14h-93q-31 0 -61 4.5t-47.5 24t-11.5 64.5q7 50 34.5 74.5t71 32t98.5 7.5q20 0 48.5 -1.5t56.5 -7.5
q14 -2 24 -5.5t15.5 -8t3.5 -11.5l-2 -16q-9 11 -27 17t-40.5 9.5t-46.5 4.5t-45 1q-39 0 -75.5 -5t-62 -24.5t-32.5 -65.5q-5 -35 7 -51t37 -20.5t58 -4.5h88q36 0 63.5 -6t41 -27t6.5 -67q-7 -50 -37 -76t-76 -35t-101 -9zM163 460l92 103h17l65 -103h-18l-58 84l-81 -84
h-17z" />
    <glyph glyph-name="Scedilla" unicode="&#x15e;" horiz-adv-x="531" 
d="M45 46q17 -15 47 -22t62.5 -9t55.5 -2h18.5t19.5 1q48 2 86 12t63 35.5t32 73.5q6 40 -5 59.5t-35.5 26t-61.5 6.5h-34.5h-35.5h-36q-26 0 -53 2.5t-48 12t-32 31t-5 60.5q6 46 27.5 72.5t54 39t71.5 16t81 3.5q25 0 57.5 -1.5t62 -6.5t44.5 -17q5 -3 6.5 -6t1.5 -8
q0 -3 -0.5 -6l-1 -6t-1.5 -6q-8 12 -27.5 19.5t-44 11.5t-47 5.5t-36.5 1.5h-40q-43 0 -82.5 -6.5t-67 -30t-34.5 -74.5q-6 -40 8 -58.5t42.5 -23.5t66.5 -5h51.5h50.5q41 0 72.5 -7t47 -31t7.5 -76q-7 -52 -35.5 -81.5t-72 -41.5t-96.5 -15q-11 -1 -21.5 -1h-21.5
q-14 0 -41 1.5t-55.5 5.5t-47.5 12t-18 22zM165 -185q-23 0 -33 3t-9 12h24.5h45.5q29 0 40.5 9.5t13.5 28.5q4 27 -3.5 35t-43.5 8h-31h-13t-13.5 -0.5t-11.5 -0.5q2 3 13 15t26 27.5t28 29.5t18 20h12l-66 -79q47 3 71 0.5t30.5 -15t2.5 -40.5t-19 -39t-36.5 -12.5
t-45.5 -1.5z" />
    <glyph glyph-name="scedilla" unicode="&#x15f;" horiz-adv-x="410" 
d="M153 -5q-13 0 -37.5 1t-50.5 5t-44 13q-6 3 -8 5.5t-2 7.5t1 13q15 -12 43 -18t56.5 -7.5t44.5 -1.5q38 0 70 3.5t57.5 14t41.5 31.5t21 55q8 52 -16.5 66t-71.5 14h-93q-31 0 -61 4.5t-47.5 24t-11.5 64.5q7 50 34.5 74.5t71 32t98.5 7.5q20 0 48.5 -1.5t56.5 -7.5
q14 -2 24 -5.5t15.5 -8t3.5 -11.5l-2 -16q-9 11 -27 17t-40.5 9.5t-46.5 4.5t-45 1q-39 0 -75.5 -5t-62 -24.5t-32.5 -65.5q-5 -35 7 -51t37 -20.5t58 -4.5h88q36 0 63.5 -6t41 -27t6.5 -67q-7 -50 -37 -76t-76 -35t-101 -9zM131 -185q-23 0 -33 3t-9 12h24.5h45.5
q29 0 40.5 9.5t13.5 28.5q4 27 -3.5 35t-43.5 8h-31h-13t-13.5 -0.5t-11.5 -0.5q2 3 13 15t26 27.5t28 29.5t18 20h12l-66 -79q47 3 71 0.5t30.5 -15t2.5 -40.5t-19 -39t-36.5 -12.5t-45.5 -1.5z" />
    <glyph glyph-name="Scaron" unicode="&#x160;" horiz-adv-x="531" 
d="M235 605h17l58 -66l78 66h18l-89 -84h-18zM45 46q17 -15 47 -22t62.5 -9t55.5 -2h18.5t19.5 1q48 2 86 12t63 35.5t32 73.5q6 40 -5 59.5t-35.5 26t-61.5 6.5h-34.5h-35.5h-36q-26 0 -53 2.5t-48 12t-32 31t-5 60.5q6 46 27.5 72.5t54 39t71.5 16t81 3.5q25 0 57.5 -1.5
t62 -6.5t44.5 -17q5 -3 6.5 -6t1.5 -8q0 -3 -0.5 -6l-1 -6t-1.5 -6q-8 12 -27.5 19.5t-44 11.5t-47 5.5t-36.5 1.5h-40q-43 0 -82.5 -6.5t-67 -30t-34.5 -74.5q-6 -40 8 -58.5t42.5 -23.5t66.5 -5h51.5h50.5q41 0 72.5 -7t47 -31t7.5 -76q-7 -52 -35.5 -81.5t-72 -41.5
t-96.5 -15q-11 -1 -21.5 -1h-21.5q-14 0 -41 1.5t-55.5 5.5t-47.5 12t-18 22z" />
    <glyph glyph-name="scaron" unicode="&#x161;" horiz-adv-x="410" 
d="M173 563h17l57 -84l82 84h18l-94 -103h-17zM153 -5q-13 0 -37.5 1t-50.5 5t-44 13q-6 3 -8 5.5t-2 7.5t1 13q15 -12 43 -18t56.5 -7.5t44.5 -1.5q38 0 70 3.5t57.5 14t41.5 31.5t21 55q8 52 -16.5 66t-71.5 14h-93q-31 0 -61 4.5t-47.5 24t-11.5 64.5q7 50 34.5 74.5
t71 32t98.5 7.5q20 0 48.5 -1.5t56.5 -7.5q14 -2 24 -5.5t15.5 -8t3.5 -11.5l-2 -16q-9 11 -27 17t-40.5 9.5t-46.5 4.5t-45 1q-39 0 -75.5 -5t-62 -24.5t-32.5 -65.5q-5 -35 7 -51t37 -20.5t58 -4.5h88q36 0 63.5 -6t41 -27t6.5 -67q-7 -50 -37 -76t-76 -35t-101 -9z" />
    <glyph glyph-name="uni0162" unicode="&#x162;" horiz-adv-x="447" 
d="M62 460h397l-3 -19h-186l-59 -421q-1 -6 -2.5 -10.5t-3.5 -7t-8 -2.5h-13l62 441h-187zM159 -161q6 13 11.5 26.5t10 25t5.5 16.5h-2h-2q-5 0 -11 3t-5 13q2 11 8.5 14t17.5 3q7 0 10.5 -1.5t5 -5.5t0.5 -12q-2 -12 -10 -30t-16 -33t-11 -19h-12z" />
    <glyph glyph-name="uni0163" unicode="&#x163;" horiz-adv-x="209" 
d="M54 -149q6 11 11 23t8.5 22t4.5 15h-1.5h-1.5q-5 0 -10.5 2.5t-3.5 11.5q1 10 7 13t16 3q5 0 8.5 -1.5t5 -5.5t0.5 -10q-2 -11 -9 -27t-14.5 -29.5t-9.5 -16.5h-11zM105 -3q-21 0 -33 7t-16 24.5t0 47.5l43 307h-35l2 16h36l12 85q1 9 3 13.5t5.5 6t7.5 1.5h10l-1.5 -7
t-3.5 -22l-11 -77h91l-2 -16h-92l-42 -301q-5 -39 2 -53.5t31 -14.5q12 0 22 2t14 3l-2 -17q-5 -1 -16 -3t-25 -2z" />
    <glyph glyph-name="Tcaron" unicode="&#x164;" horiz-adv-x="447" 
d="M192 605h17l58 -66l78 66h18l-89 -84h-18zM62 460h397l-3 -19h-186l-59 -421q-1 -6 -2.5 -10.5t-3.5 -7t-8 -2.5h-13l62 441h-187z" />
    <glyph glyph-name="tcaron" unicode="&#x165;" horiz-adv-x="209" 
d="M105 -3q-21 0 -33 7t-16 24.5t0 47.5l43 307h-35l2 16h36l12 85q1 9 3 13.5t5.5 6t7.5 1.5h10l-1.5 -7t-3.5 -22l-11 -77h91l-2 -16h-92l-42 -301q-5 -39 2 -53.5t31 -14.5q12 0 22 2t14 3l-2 -17q-5 -1 -16 -3t-25 -2zM212 448l24 128h20l-30 -128h-14z" />
    <glyph glyph-name="Tbar" unicode="&#x166;" horiz-adv-x="437" 
d="M85 307h132l19 134h-186l2 19h397l-3 -19h-186l-19 -134h134l-1 -9h-134l-39 -278q0 -6 -1.5 -10.5t-4 -7t-8.5 -2.5h-13l42 298h-132z" />
    <glyph glyph-name="tbar" unicode="&#x167;" horiz-adv-x="223" 
d="M39 323h145l-1 -12h-145zM61 399h35l12 85q1 6 2 11t4.5 7.5t9.5 2.5h10l-1.5 -7t-3.5 -22l-11 -77h91l-2 -16h-91l-42 -294q-5 -40 0 -58.5t31 -18.5q5 0 19.5 1.5t18.5 3.5l-3 -15q-5 -1 -23.5 -3t-25.5 -2q-16 0 -25 5t-13 14.5t-4.5 22.5t1 28t3.5 32l41 284h-35
q1 5 1 8.5t1 7.5z" />
    <glyph glyph-name="Utilde" unicode="&#x168;" horiz-adv-x="560" 
d="M467 178q-4 -27 -9 -53t-17 -49t-35 -41t-61 -28t-96 -10q-56 0 -90 10t-51.5 28t-22.5 40.5t-3.5 48.5t5.5 52l38 264q1 8 2.5 12.5t4.5 6t8 1.5h12l-46 -320q-6 -46 6.5 -73t47 -39t93.5 -12q89 0 132 29.5t53 95.5l45 319h11q6 0 8.5 -1.5t2.5 -6t-1 -12.5zM374 519
q-15 0 -29.5 8.5t-28.5 16.5t-29 8q-16 0 -27 -9.5t-16 -17.5l-10 8q2 3 6 9.5t11.5 13.5t17.5 12.5t23 5.5q16 0 29.5 -9t27.5 -17.5t28 -8.5q20 0 30.5 11.5t14.5 19.5l10 -10q-1 -3 -5.5 -9.5t-12 -13.5t-17.5 -12.5t-23 -5.5z" />
    <glyph glyph-name="utilde" unicode="&#x169;" horiz-adv-x="449" 
d="M109 399l-39 -278q-7 -59 24.5 -83t101.5 -24q77 0 114.5 25.5t45.5 82.5l39 277h2.5h2.5h2.5h2.5q6 0 8 -1.5t2.5 -5t-0.5 -10.5l-35 -250q-5 -33 -16 -58.5t-31.5 -42.5t-54 -26t-84.5 -9q-60 0 -94 13.5t-45.5 43t-4.5 78.5l35 251q2 10 4.5 13.5t9.5 3.5h5h5z
M306 457q-15 0 -29.5 8.5t-28.5 17t-29 8.5q-16 0 -25 -11t-14 -19l-12 7q2 4 6.5 11t11.5 14.5t16.5 12.5t21.5 5q16 0 29.5 -9t27.5 -17.5t28 -8.5q20 0 30.5 12t14.5 19l12 -7q-2 -4 -7 -11t-12.5 -14.5t-17.5 -12.5t-23 -5z" />
    <glyph glyph-name="Umacron" unicode="&#x16a;" horiz-adv-x="560" 
d="M467 178q-4 -27 -9 -53t-17 -49t-35 -41t-61 -28t-96 -10q-56 0 -90 10t-51.5 28t-22.5 40.5t-3.5 48.5t5.5 52l38 264q1 8 2.5 12.5t4.5 6t8 1.5h12l-46 -320q-6 -46 6.5 -73t47 -39t93.5 -12q89 0 132 29.5t53 95.5l45 319h11q6 0 8.5 -1.5t2.5 -6t-1 -12.5zM232 522
l2 14h197l-2 -14h-197z" />
    <glyph glyph-name="umacron" unicode="&#x16b;" horiz-adv-x="449" 
d="M109 399l-39 -278q-7 -59 24.5 -83t101.5 -24q77 0 114.5 25.5t45.5 82.5l39 277h2.5h2.5h2.5h2.5q6 0 8 -1.5t2.5 -5t-0.5 -10.5l-35 -250q-5 -33 -16 -58.5t-31.5 -42.5t-54 -26t-84.5 -9q-60 0 -94 13.5t-45.5 43t-4.5 78.5l35 251q2 10 4.5 13.5t9.5 3.5h5h5z
M168 461l2 18h189l-2 -18h-189z" />
    <glyph glyph-name="Ubreve" unicode="&#x16c;" horiz-adv-x="560" 
d="M467 178q-4 -27 -9 -53t-17 -49t-35 -41t-61 -28t-96 -10q-56 0 -90 10t-51.5 28t-22.5 40.5t-3.5 48.5t5.5 52l38 264q1 8 2.5 12.5t4.5 6t8 1.5h12l-46 -320q-6 -46 6.5 -73t47 -39t93.5 -12q89 0 132 29.5t53 95.5l45 319h11q6 0 8.5 -1.5t2.5 -6t-1 -12.5zM326 519
q-44 0 -62.5 22t-12.5 64h15q-6 -37 10.5 -52t52.5 -15q42 0 59 15t22 52h16q-7 -44 -27.5 -65t-72.5 -21z" />
    <glyph glyph-name="ubreve" unicode="&#x16d;" horiz-adv-x="449" 
d="M109 399l-39 -278q-7 -59 24.5 -83t101.5 -24q77 0 114.5 25.5t45.5 82.5l39 277h2.5h2.5h2.5h2.5q6 0 8 -1.5t2.5 -5t-0.5 -10.5l-35 -250q-5 -33 -16 -58.5t-31.5 -42.5t-54 -26t-84.5 -9q-60 0 -94 13.5t-45.5 43t-4.5 78.5l35 251q2 10 4.5 13.5t9.5 3.5h5h5z
M261 458q-29 0 -47 12t-25 33.5t-3 49.5h15q-4 -43 11.5 -59.5t51.5 -16.5q42 0 60.5 19.5t23.5 56.5h16q-4 -29 -15 -50.5t-32 -33t-56 -11.5z" />
    <glyph glyph-name="Uring" unicode="&#x16e;" horiz-adv-x="560" 
d="M467 178q-4 -27 -9 -53t-17 -49t-35 -41t-61 -28t-96 -10q-56 0 -90 10t-51.5 28t-22.5 40.5t-3.5 48.5t5.5 52l38 264q1 8 2.5 12.5t4.5 6t8 1.5h12l-46 -320q-6 -46 6.5 -73t47 -39t93.5 -12q89 0 132 29.5t53 95.5l45 319h11q6 0 8.5 -1.5t2.5 -6t-1 -12.5zM329 522
q-24 0 -36.5 5t-16 14t-1.5 22t8 22t20 13.5t38 4.5q25 0 37.5 -4.5t16 -13.5t1.5 -22q-4 -19 -16.5 -30t-50.5 -11zM331 535q20 0 32 5.5t14 22.5t-8 22.5t-30 5.5q-19 0 -31.5 -5.5t-14.5 -22.5t8 -22.5t30 -5.5z" />
    <glyph glyph-name="uring" unicode="&#x16f;" horiz-adv-x="449" 
d="M109 399l-39 -278q-7 -59 24.5 -83t101.5 -24q77 0 114.5 25.5t45.5 82.5l39 277h2.5h2.5h2.5h2.5q6 0 8 -1.5t2.5 -5t-0.5 -10.5l-35 -250q-5 -33 -16 -58.5t-31.5 -42.5t-54 -26t-84.5 -9q-60 0 -94 13.5t-45.5 43t-4.5 78.5l35 251q2 10 4.5 13.5t9.5 3.5h5h5z
M253 461q-37 0 -47 12t-6 39q4 26 17 38t50 12q38 0 48 -12t6 -38q-4 -27 -17 -39t-51 -12zM255 474q20 0 31.5 6.5t15.5 31.5q4 24 -6.5 30.5t-30.5 6.5q-19 0 -31 -6.5t-16 -30.5q-4 -25 6.5 -31.5t30.5 -6.5z" />
    <glyph glyph-name="Uhungarumlaut" unicode="&#x170;" horiz-adv-x="560" 
d="M467 178q-4 -27 -9 -53t-17 -49t-35 -41t-61 -28t-96 -10q-56 0 -90 10t-51.5 28t-22.5 40.5t-3.5 48.5t5.5 52l38 264q1 8 2.5 12.5t4.5 6t8 1.5h12l-46 -320q-6 -46 6.5 -73t47 -39t93.5 -12q89 0 132 29.5t53 95.5l45 319h11q6 0 8.5 -1.5t2.5 -6t-1 -12.5zM373 521
l30 84h28l-44 -84h-14zM277 521l31 84h27l-43 -84h-15z" />
    <glyph glyph-name="uhungarumlaut" unicode="&#x171;" horiz-adv-x="449" 
d="M109 399l-39 -278q-7 -59 24.5 -83t101.5 -24q77 0 114.5 25.5t45.5 82.5l39 277h2.5h2.5h2.5h2.5q6 0 8 -1.5t2.5 -5t-0.5 -10.5l-35 -250q-5 -33 -16 -58.5t-31.5 -42.5t-54 -26t-84.5 -9q-60 0 -94 13.5t-45.5 43t-4.5 78.5l35 251q2 10 4.5 13.5t9.5 3.5h5h5z
M305 460l42 103h28l-56 -103h-14zM209 460l43 103h26l-54 -103h-15z" />
    <glyph glyph-name="Uogonek" unicode="&#x172;" horiz-adv-x="560" 
d="M467 178q-4 -27 -9 -53t-17 -49t-35 -41t-61 -28t-96 -10q-56 0 -90 10t-51.5 28t-22.5 40.5t-3.5 48.5t5.5 52l38 264q1 8 2.5 12.5t4.5 6t8 1.5h12l-46 -320q-6 -46 6.5 -73t47 -39t93.5 -12q89 0 132 29.5t53 95.5l45 319h11q6 0 8.5 -1.5t2.5 -6t-1 -12.5zM213 -169
q-29 0 -48.5 5t-28 19t-5.5 40q4 26 25.5 50t46 41.5t37.5 24.5h27q-8 -3 -25.5 -14.5t-37 -27.5t-34.5 -34t-17 -34q-4 -34 12 -44.5t47 -10.5q9 0 17.5 0.5t15 1t8.5 0.5q-1 -6 -4 -10t-11 -5.5t-25 -1.5z" />
    <glyph glyph-name="uogonek" unicode="&#x173;" horiz-adv-x="449" 
d="M109 399l-39 -278q-7 -59 24.5 -83t101.5 -24q77 0 114.5 25.5t45.5 82.5l39 277h2.5h2.5h2.5h2.5q6 0 8 -1.5t2.5 -5t-0.5 -10.5l-35 -250q-5 -33 -16 -58.5t-31.5 -42.5t-54 -26t-84.5 -9q-60 0 -94 13.5t-45.5 43t-4.5 78.5l35 251q2 10 4.5 13.5t9.5 3.5h5h5z
M187 -174q-29 0 -48.5 5t-28 19t-5.5 40q4 26 25.5 50t46 41.5t37.5 24.5h27q-8 -3 -25.5 -14.5t-37 -27.5t-34.5 -34t-17 -34q-4 -34 12 -44.5t47 -10.5q9 0 17.5 0.5t15 1t8.5 0.5q-1 -6 -4 -10t-11 -5.5t-25 -1.5z" />
    <glyph glyph-name="Wcircumflex" unicode="&#x174;" horiz-adv-x="633" 
d="M137 0q-22 0 -35 6t-18 21t-5 43l2 390h18l-2 -385q0 -36 9.5 -46t40.5 -9h40l153 440h23l33 -440h42q25 0 38 9t19 34l106 397h20l-104 -385q-13 -46 -30 -60.5t-57 -14.5h-52l-29 393l-2 34l-13 -35l-135 -392h-62zM282 521l88 84h18l65 -84h-18l-59 66l-77 -66h-17z
" />
    <glyph glyph-name="wcircumflex" unicode="&#x175;" horiz-adv-x="632" 
d="M164 -2q-44 0 -72.5 7.5t-40 32.5t-4.5 78l37 257q2 16 5 21t13 5h7l-40 -288q-8 -58 15.5 -76.5t81.5 -18.5q61 0 90 19.5t34 54.5l42 309h23l-43 -309q-5 -35 18.5 -54.5t83.5 -19.5q58 0 87.5 18.5t37.5 76.5l39 288h7q11 0 12.5 -5t-0.5 -21l-37 -257
q-7 -52 -25.5 -77.5t-48.5 -33t-74 -7.5q-32 0 -59 6t-43 22.5t-17 46.5l10 1q-8 -29 -27.5 -46t-48 -23.5t-63.5 -6.5zM266 460l92 103h17l65 -103h-18l-58 84l-81 -84h-17z" />
    <glyph glyph-name="Ycircumflex" unicode="&#x176;" horiz-adv-x="406" 
d="M161 0l26 190l-117 245l-14 25h27l120 -250l198 250h23l-22 -27l-191 -243l-24 -170q0 -6 -1 -10.5t-4 -7t-9 -2.5h-12zM191 521l88 84h18l65 -84h-18l-59 66l-77 -66h-17z" />
    <glyph glyph-name="ycircumflex" unicode="&#x177;" horiz-adv-x="450" 
d="M172 -111q-37 0 -71 4.5t-55 11.5t-20 15l2 13q15 -9 38.5 -15t51 -9.5t55.5 -3.5q48 0 83 15t57.5 47t29.5 81l8 63q-10 -20 -33 -35t-54 -22.5t-68 -7.5q-74 0 -105.5 20t-36 57t2.5 86l23 159q2 15 3.5 21.5t4 8t8.5 1.5h10q-4 -26 -7.5 -52l-7 -52l-7 -52t-7.5 -52
q-8 -57 8.5 -84t48.5 -34.5t68 -7.5q37 0 71 9t58 34t30 73l31 218h7q10 0 12 -2.5t0 -19.5l-46 -322q-12 -88 -60 -127t-133 -39zM164 460l92 103h17l65 -103h-18l-58 84l-81 -84h-17z" />
    <glyph glyph-name="Ydieresis" unicode="&#x178;" horiz-adv-x="406" 
d="M333 521q-8 0 -14 3t-3 16q4 13 12.5 15.5t14.5 2.5q7 0 13.5 -2.5t2.5 -15.5q-3 -13 -10 -16t-16 -3zM219 521q-9 0 -14.5 3t-2.5 17q4 12 12.5 14.5t14.5 2.5q7 0 13.5 -2.5t2.5 -14.5q-3 -13 -10.5 -16.5t-15.5 -3.5zM161 0l26 190l-117 245l-14 25h27l120 -250
l198 250h23l-22 -27l-191 -243l-24 -170q0 -6 -1 -10.5t-4 -7t-9 -2.5h-12z" />
    <glyph glyph-name="Zacute" unicode="&#x179;" horiz-adv-x="426" 
d="M26 19h350q-1 -6 -2 -10t-4 -6t-8 -2.5t-14 -0.5h-352l3 23l19.5 20t52 53.5t72.5 74.5t81.5 83.5t78 80.5t62.5 65q16 15 26 26t14 15h-329q1 6 2.5 10t5 6.5t11.5 2.5h339q0 -1 -1 -5.5t-3.5 -11t-7 -14t-11.5 -14.5l-377 -388zM240 521l106 84l14 -19l-105 -65h-15z
" />
    <glyph glyph-name="zacute" unicode="&#x17a;" horiz-adv-x="357" 
d="M13 18h299l4 -5q4 -5 -1.5 -9t-14.5 -4h-313l3 20l348 361h-281v3q1 8 4.5 11.5t12.5 3.5h293q-1 -7 -4 -13t-9 -13t-17 -19zM225 460l111 103l16 -19l-112 -84h-15z" />
    <glyph glyph-name="Zdotaccent" unicode="&#x17b;" horiz-adv-x="426" 
d="M26 19h350q-1 -6 -2 -10t-4 -6t-8 -2.5t-14 -0.5h-352l3 23l19.5 20t52 53.5t72.5 74.5t81.5 83.5t78 80.5t62.5 65q16 15 26 26t14 15h-329q1 6 2.5 10t5 6.5t11.5 2.5h339q0 -1 -1 -5.5t-3.5 -11t-7 -14t-11.5 -14.5l-377 -388zM263 521q-11 0 -17.5 3.5t-4.5 17.5
q2 16 10 19.5t18 3.5q11 0 16.5 -4t3.5 -19q-2 -14 -9 -17.5t-17 -3.5z" />
    <glyph glyph-name="zdotaccent" unicode="&#x17c;" horiz-adv-x="357" 
d="M13 18h299l4 -5q4 -5 -1.5 -9t-14.5 -4h-313l3 20l348 361h-281v3q1 8 4.5 11.5t12.5 3.5h293q-1 -7 -4 -13t-9 -13t-17 -19zM243 460q-11 0 -17.5 3.5t-4.5 17.5q2 16 10 19.5t18 3.5q11 0 16.5 -4t3.5 -19q-2 -14 -9 -17.5t-17 -3.5z" />
    <glyph glyph-name="Zcaron" unicode="&#x17d;" horiz-adv-x="426" 
d="M185 605h17l58 -66l78 66h18l-89 -84h-18zM26 19h350q-1 -6 -2 -10t-4 -6t-8 -2.5t-14 -0.5h-352l3 23l19.5 20t52 53.5t72.5 74.5t81.5 83.5t78 80.5t62.5 65q16 15 26 26t14 15h-329q1 6 2.5 10t5 6.5t11.5 2.5h339q0 -1 -1 -5.5t-3.5 -11t-7 -14t-11.5 -14.5
l-377 -388z" />
    <glyph glyph-name="zcaron" unicode="&#x17e;" horiz-adv-x="357" 
d="M165 563h17l57 -84l82 84h18l-94 -103h-17zM13 18h299l4 -5q4 -5 -1.5 -9t-14.5 -4h-313l3 20l348 361h-281v3q1 8 4.5 11.5t12.5 3.5h293q-1 -7 -4 -13t-9 -13t-17 -19z" />
    <glyph glyph-name="longs" unicode="&#x17f;" horiz-adv-x="249" 
d="M111 336h-31l2 16h31l8 59q9 54 23.5 74t57.5 20q24 0 42.5 -1.5t29.5 -3.5l11 -2l-2 -15l-11 2t-27 3.5t-31 1.5q-26 0 -40 -7t-21 -26.5t-13 -57.5l-68 -491q-2 -15 -6 -27t-10 -21t-14.5 -14.5t-19 -8.5t-23.5 -3q-5 0 -16.5 1t-20 5t-7.5 14q4 -2 12 -4.5t24 -2.5
q23 0 39.5 11.5t20.5 50.5z" />
    <glyph glyph-name="uni018F" unicode="&#x18f;" horiz-adv-x="475" 
d="M244 469q59 0 98 -10t60 -35.5t25.5 -72.5t-5.5 -121q-9 -60 -24 -104t-42 -73.5t-70 -44t-108 -14.5t-102.5 20t-50.5 62t-4 107q3 17 11.5 28.5t23 17.5t34.5 6h326q-1 -8 -3 -12.5t-14 -4.5h-310q-13 0 -29 -10.5t-19 -30.5q-12 -85 21 -125t117 -40q73 0 117.5 22.5
t69 71t35.5 124.5q13 91 1.5 138t-50.5 64.5t-111 17.5q-18 0 -38.5 -1.5t-41 -4t-39 -5.5t-34 -6.5t-24.5 -7.5l1 8q1 6 9 12t31 10q30 7 66 10.5t73 3.5z" />
    <glyph glyph-name="florin" unicode="&#x192;" horiz-adv-x="261" 
d="M-44 -162q1 2 1 4t0.5 4t0.5 4q4 -2 14.5 -2.5t15.5 -0.5q13 0 24.5 2.5t20 8.5t14.5 18.5t9 31.5q6 43 12 85.5t12 85.5t12 85.5t12 85.5l12 86h-15h-16v4t0.5 4l1 4t0.5 4h16h15l4 30l4 30q5 27 10.5 44.5t14 28.5t23.5 15.5t37 4.5q17 0 31.5 -1t25.5 -2.5t17 -2.5
l6 -1q0 -3 -0.5 -5.5l-1 -5t-1.5 -4.5l-6.5 1t-17 2.5t-22 2.5t-22.5 1q-27 0 -41 -7t-21 -26.5t-13 -56.5q-1 -12 -2.5 -24t-3.5 -24h58.5h57.5q0 -2 -0.5 -4l-1 -4l-1 -4t-0.5 -4h-57h-58q-10 -72 -20.5 -143.5t-20 -142.5t-19.5 -142q-3 -19 -9 -33t-15 -23t-20.5 -13.5
t-25.5 -4.5q-7 0 -14.5 0.5l-15 1t-13 1t-8.5 1.5z" />
    <glyph glyph-name="Ohorn" unicode="&#x1a0;" horiz-adv-x="555" 
d="M243 -7q-47 0 -86.5 7.5t-67 31t-37.5 71t1 128.5q12 83 37.5 131t61.5 71t79 29.5t89 6.5q47 0 86.5 -7.5t67 -31t37.5 -71t-1 -128.5q-12 -83 -37.5 -131t-61.5 -71t-78.5 -29.5t-89.5 -6.5zM250 11q48 0 87 7.5t68 29.5t49 66t30 116q10 73 2.5 117t-31 66.5t-60 30
t-84.5 7.5t-86 -7.5t-67.5 -30t-49 -66.5t-29.5 -117q-10 -72 -3 -116t30 -66t59.5 -29.5t84.5 -7.5zM415 444l-3 16h21q24 0 34.5 18t11.5 28l3 23h21l-3 -20q-4 -31 -27 -49t-58 -16z" />
    <glyph glyph-name="ohorn" unicode="&#x1a1;" horiz-adv-x="460" 
d="M201 -5q-38 0 -69.5 6.5t-53 26.5t-29.5 61t2 110t29.5 110t46.5 61.5t60.5 26.5t71.5 6t70 -6.5t53 -26.5t29 -61t-2 -110q-10 -70 -29 -111t-46.5 -61t-61 -26t-71.5 -6zM204 13q48 0 84.5 12.5t61 52t35.5 121.5q12 82 -1.5 121.5t-46.5 52t-81 12.5t-84.5 -12.5
t-60.5 -52t-36 -121.5q-11 -82 2.5 -121.5t46.5 -52t80 -12.5zM323 383l-3 16h21q24 0 34.5 18t11.5 28l3 23h21l-3 -20q-4 -31 -27 -49t-58 -16z" />
    <glyph glyph-name="Uhorn" unicode="&#x1af;" horiz-adv-x="560" 
d="M467 178q-4 -27 -9 -53t-17 -49t-35 -41t-61 -28t-96 -10q-56 0 -90 10t-51.5 28t-22.5 40.5t-3.5 48.5t5.5 52l38 264q1 8 2.5 12.5t4.5 6t8 1.5h12l-46 -320q-6 -46 6.5 -73t47 -39t93.5 -12q89 0 132 29.5t53 95.5l45 319h11q6 0 8.5 -1.5t2.5 -6t-1 -12.5zM490 444
l-3 16h21q24 0 34.5 18t11.5 28l3 23h21l-3 -20q-4 -31 -27 -49t-58 -16z" />
    <glyph glyph-name="uhorn" unicode="&#x1b0;" horiz-adv-x="449" 
d="M109 399l-39 -278q-7 -59 24.5 -83t101.5 -24q77 0 114.5 25.5t45.5 82.5l39 277h2.5h2.5h2.5h2.5q6 0 8 -1.5t2.5 -5t-0.5 -10.5l-35 -250q-5 -33 -16 -58.5t-31.5 -42.5t-54 -26t-84.5 -9q-60 0 -94 13.5t-45.5 43t-4.5 78.5l35 251q2 10 4.5 13.5t9.5 3.5h5h5z
M400 383l-3 16h21q24 0 34.5 18t11.5 28l3 23h21l-3 -20q-4 -31 -27 -49t-58 -16z" />
    <glyph glyph-name="uni01C5" unicode="&#x1c5;" horiz-adv-x="927" 
d="M735 563h17l57 -84l82 84h18l-94 -103h-17zM244 -3q-18 0 -44 0.5t-52.5 1t-47 1t-28.5 0.5l56 398q5 30 12 44.5t41 17.5q11 1 34.5 1.5t52 1t54.5 0.5t41 -1q56 -3 92 -12.5t55 -33t22.5 -69.5t-7.5 -122q-11 -80 -32 -126.5t-54.5 -68t-81.5 -27.5t-113 -6zM259 16
q60 0 101.5 7.5t69.5 29t45 63t26 108.5q10 72 6.5 115.5t-23.5 66.5t-59 30.5t-99 7.5h-31.5t-43.5 -0.5t-43 -1.5t-30 -3t-16.5 -8t-9.5 -29l-54 -383q6 0 27 -0.5t47.5 -1t50.5 -1t36 -0.5zM583 18h299l4 -5q4 -5 -1.5 -9t-14.5 -4h-313l3 20l348 361h-281v3
q1 8 4.5 11.5t12.5 3.5h293q-1 -7 -4 -13t-9 -13t-17 -19z" />
    <glyph glyph-name="uni01C6" unicode="&#x1c6;" horiz-adv-x="816" 
d="M624 563h17l57 -84l82 84h18l-94 -103h-17zM199 -2q-66 0 -102.5 15t-47 58.5t1.5 131.5q12 81 38 123.5t67.5 58t98.5 15.5q15 0 39.5 -1t49.5 -2.5t44 -3t24 -2.5l-12 -7l17 121h21l-44 -304q-10 -69 -22 -109.5t-32 -61t-54 -26.5t-87 -6zM195 16q51 0 82.5 6
t49.5 24.5t28 54t18 95.5l26 179q-14 1 -40.5 2.5t-54.5 3t-50 1.5q-54 0 -91 -15t-58.5 -54.5t-31.5 -113.5q-10 -76 -3 -115t37.5 -53.5t87.5 -14.5zM472 18h299l4 -5q4 -5 -1.5 -9t-14.5 -4h-313l3 20l348 361h-281v3q1 8 4.5 11.5t12.5 3.5h293q-1 -7 -4 -13t-9 -13
t-17 -19z" />
    <glyph glyph-name="uni01C7" unicode="&#x1c7;" horiz-adv-x="710" 
d="M160 460l-62 -441h314l-2 -19h-338l62 440q1 7 2 11t3.5 6.5t7.5 2.5h13zM608 150q-3 -21 -7 -51.5t-9 -48.5q-4 -12 -13 -24.5t-23.5 -20.5t-37.5 -8h-15.5t-20 1.5t-20.5 3.5l3 19q5 -2 18.5 -4t20.5 -2q32 0 48.5 12t20.5 44l55 389h13q5 0 7 -2t2 -5.5t-1 -8.5z" />
    <glyph glyph-name="uni01C9" unicode="&#x1c9;" horiz-adv-x="346" 
d="M95 -3q-31 0 -42 18.5t-4 66.5l57 402q1 6 2.5 11t5 7.5t9.5 2.5h9l-1.5 -7.5t-3.5 -22.5l-55 -386q-5 -39 1 -57t31 -18q6 0 19 1.5t17 3.5l-2 -17q-5 -1 -15.5 -3t-27.5 -2zM176 -85q-15 0 -27.5 1t-18.5 2l2 17q5 -1 19 -2t24 -1q27 0 36.5 13t15.5 53l54 386
q1 5 2 8.5t4 5t9 1.5h9l-56 -398q-4 -32 -11.5 -51t-21.5 -27t-40 -8zM304 463q-6 0 -11.5 3t-4.5 13q1 11 7 14t13 3q8 0 14 -2.5t4 -14.5q-2 -10 -9 -13t-13 -3z" />
    <glyph glyph-name="uni01CA" unicode="&#x1ca;" horiz-adv-x="858" 
d="M72 0l60 428q2 15 3.5 22t4.5 8.5t11 1.5h14l287 -434l1 11l60 423h22q-1 -1 -2 -5t-2 -8.5t-2 -9.5l-56 -405q-3 -22 -5.5 -27t-14.5 -5h-15l-286 434l-1 -8l-59 -426h-20zM756 150q-3 -21 -7 -51.5t-9 -48.5q-4 -12 -13 -24.5t-23.5 -20.5t-37.5 -8h-15.5t-20 1.5
t-20.5 3.5l3 19q5 -2 18.5 -4t20.5 -2q32 0 48.5 12t20.5 44l55 389h13q5 0 7 -2t2 -5.5t-1 -8.5z" />
    <glyph glyph-name="uni01CC" unicode="&#x1cc;" horiz-adv-x="622" 
d="M56 0q-15 0 -12 14l49 353q15 8 34 16t52.5 13.5t89.5 5.5q45 0 73.5 -6.5t43 -20t18 -34t-0.5 -47.5l-39 -280q-1 -4 -3 -7.5t-5.5 -5t-8.5 -1.5h-7l41 295q7 45 -19 67t-98 22q-55 0 -93.5 -7.5t-56.5 -23.5l-50 -353h-8zM452 -85q-15 0 -27.5 1t-18.5 2l2 17
q5 -1 19 -2t24 -1q27 0 36.5 13t15.5 53l54 386q1 5 2 8.5t4 5t9 1.5h9l-56 -398q-4 -32 -11.5 -51t-21.5 -27t-40 -8zM580 463q-6 0 -11.5 3t-4.5 13q1 11 7 14t13 3q8 0 14 -2.5t4 -14.5q-2 -10 -9 -13t-13 -3z" />
    <glyph glyph-name="Gcaron" unicode="&#x1e6;" horiz-adv-x="511" 
d="M231 605h17l58 -66l78 66h18l-89 -84h-18zM230 -9q-55 0 -93.5 11t-60 37.5t-27.5 73t4 117.5q10 72 30.5 118t52 72t76.5 36t103 10q23 0 45.5 -1t45 -3.5t44.5 -7.5q15 -2 22 -5.5t9.5 -7.5t1.5 -9l-1 -9q-8 5 -22.5 8.5t-33.5 6.5t-39.5 5.5t-40 3.5t-35.5 1
q-77 0 -124 -20.5t-72 -68t-37 -129.5q-11 -81 -1.5 -129t48 -69.5t113.5 -21.5q64 0 105 13.5t64.5 51.5t36.5 109q3 16 4 27.5t2 16.5h-201q1 8 3 12t6 5.5t12 1.5h206l-8 -61q-8 -58 -26.5 -96t-47 -59.5t-68 -30.5t-90.5 -9h-2.5h-3.5z" />
    <glyph glyph-name="gcaron" unicode="&#x1e7;" horiz-adv-x="461" 
d="M201 566h17l57 -84l82 84h18l-94 -103h-17zM180 -111q-10 0 -33.5 1.5t-49.5 5t-44 10t-17 16.5q1 2 1.5 5.5t0.5 5.5q14 -9 40 -15t54 -9t48 -3q59 0 95 18t55.5 60.5t26.5 113.5l14 1q-15 -36 -45 -54.5t-66 -25.5t-68 -7q-55 0 -90.5 14t-48.5 55.5t-2 121.5
q9 66 26 105.5t42.5 60t62 27t85.5 6.5q21 0 45.5 -1.5t47.5 -3t40 -3.5t24 -4q-2 -4 -4.5 -19t-5.5 -34t-5 -35l-34 -236q-9 -63 -31.5 -102t-62 -57t-101.5 -18zM189 30q45 0 81.5 9.5t60.5 30t30 53.5l35 249q-10 3 -46.5 7.5t-87.5 4.5q-60 0 -97.5 -14.5t-58 -52.5
t-30.5 -108q-9 -70 -1.5 -109t35.5 -54.5t79 -15.5z" />
    <glyph glyph-name="uni01EA" unicode="&#x1ea;" horiz-adv-x="555" 
d="M243 -7q-47 0 -86.5 7.5t-67 31t-37.5 71t1 128.5q12 83 37.5 131t61.5 71t79 29.5t89 6.5q47 0 86.5 -7.5t67 -31t37.5 -71t-1 -128.5q-12 -83 -37.5 -131t-61.5 -71t-78.5 -29.5t-89.5 -6.5zM250 11q48 0 87 7.5t68 29.5t49 66t30 116q10 73 2.5 117t-31 66.5t-60 30
t-84.5 7.5t-86 -7.5t-67.5 -30t-49 -66.5t-29.5 -117q-10 -72 -3 -116t30 -66t59.5 -29.5t84.5 -7.5zM242 -182q-29 0 -48.5 5t-28 19t-5.5 40q4 26 25.5 50t46 41.5t37.5 24.5h27q-8 -3 -25.5 -14.5t-37 -27.5t-34.5 -34t-17 -34q-4 -34 12 -44.5t47 -10.5q9 0 17.5 0.5
t15 1t8.5 0.5q-1 -6 -4 -10t-11 -5.5t-25 -1.5z" />
    <glyph glyph-name="uni01EB" unicode="&#x1eb;" horiz-adv-x="460" 
d="M201 -5q-38 0 -69.5 6.5t-53 26.5t-29.5 61t2 110t29.5 110t46.5 61.5t60.5 26.5t71.5 6t70 -6.5t53 -26.5t29 -61t-2 -110q-10 -70 -29 -111t-46.5 -61t-61 -26t-71.5 -6zM204 13q48 0 84.5 12.5t61 52t35.5 121.5q12 82 -1.5 121.5t-46.5 52t-81 12.5t-84.5 -12.5
t-60.5 -52t-36 -121.5q-11 -82 2.5 -121.5t46.5 -52t80 -12.5zM201 -172q-29 0 -48.5 5t-28 19t-5.5 40q4 26 25.5 50t46 41.5t37.5 24.5h27q-8 -3 -25.5 -14.5t-37 -27.5t-34.5 -34t-17 -34q-4 -34 12 -44.5t47 -10.5q9 0 17.5 0.5t15 1t8.5 0.5q-1 -6 -4 -10t-11 -5.5
t-25 -1.5z" />
    <glyph glyph-name="Aringacute" unicode="&#x1fa;" horiz-adv-x="445" 
d="M-10 0l175 399q14 32 32.5 48.5t60.5 16.5q41 0 54.5 -15t18.5 -50l65 -399h-24l-24 141h-275l-62 -141h-21zM81 159h265l-39 238q-3 19 -12.5 33.5t-41.5 14.5q-37 0 -49.5 -15t-20.5 -33zM266 522q-24 0 -36.5 5t-16 14t-1.5 22t8 22t20 13.5t38 4.5q25 0 37.5 -4.5
t16 -13.5t1.5 -22q-4 -19 -16.5 -30t-50.5 -11zM268 535q20 0 32 5.5t14 22.5t-8 22.5t-30 5.5q-19 0 -31.5 -5.5t-14.5 -22.5t8 -22.5t30 -5.5zM267 635l106 84l14 -19l-105 -65h-15z" />
    <glyph glyph-name="aringacute" unicode="&#x1fb;" horiz-adv-x="453" 
d="M187 -8q-52 0 -84 7t-48 22t-19.5 39t1.5 58q7 51 24 78t51 37t90 10q25 0 52.5 -1.5t52.5 -3.5t42.5 -4.5t23.5 -4.5q9 55 3.5 87t-22.5 47t-43.5 19.5t-59.5 4.5t-66.5 -3t-59.5 -10t-37 -19l2 7q2 17 16.5 23t26.5 9q18 5 50 8t63 3q41 0 72.5 -4.5t51.5 -20t28 -47
t0 -86.5l-29 -211q-3 -23 -42 -33.5t-140 -10.5zM189 9q86 0 121 7.5t38 23.5l22 170q-7 4 -33 7.5t-57.5 6.5t-55.5 3q-54 0 -88 -5.5t-51.5 -28.5t-24.5 -74q-5 -37 1 -61.5t35 -36.5t93 -12zM247 461q-37 0 -47 12t-6 39q4 26 17 38t50 12q38 0 48 -12t6 -38
q-4 -27 -17 -39t-51 -12zM249 474q20 0 31.5 6.5t15.5 31.5q4 24 -6.5 30.5t-30.5 6.5q-19 0 -31 -6.5t-16 -30.5q-4 -25 6.5 -31.5t30.5 -6.5zM257 589l111 103l16 -19l-112 -84h-15z" />
    <glyph glyph-name="AEacute" unicode="&#x1fc;" horiz-adv-x="710" 
d="M-32 0q29 40 58.5 79.5l59 79t58.5 79t58.5 79t59.5 79.5q21 29 39 42.5t34.5 17.5t30.5 4h355q-1 -5 -1.5 -9.5t-1.5 -9.5h-343l-27 -187h318l-3 -19h-158h-159l-31 -216h344l-2 -19h-184h-184l20 141h-214q-27 -35 -53 -70.5t-52 -70.5h-22zM108 159h102h101
q10 71 20 140.5t19 139.5h-2.5h-3.5q-17 0 -32 -12.5t-28 -30.5q-43 -59 -87.5 -118.5t-88.5 -118.5zM427 521l106 84l14 -19l-105 -65h-15z" />
    <glyph glyph-name="aeacute" unicode="&#x1fd;" horiz-adv-x="784" 
d="M187 -8q-52 0 -84 7t-48 22t-19.5 39t1.5 58q7 51 24 78t51 37t90 10q25 0 52.5 -1.5t52.5 -3.5t42.5 -4.5t23.5 -4.5q9 55 3.5 87t-22.5 47t-43.5 19.5t-59.5 4.5t-66.5 -3t-59.5 -10t-37 -19l2 7q2 17 16.5 23t26.5 9q18 5 50 8t63 3q41 0 72.5 -4.5t51.5 -20t28 -47
t0 -86.5l-29 -211q-3 -23 -42 -33.5t-140 -10.5zM189 9q86 0 121 7.5t38 23.5l22 170q-7 4 -33 7.5t-57.5 6.5t-55.5 3q-54 0 -88 -5.5t-51.5 -28.5t-24.5 -74q-5 -37 1 -61.5t35 -36.5t93 -12zM537 -7q-51 0 -85.5 9t-53.5 32t-24 63.5t4 102.5q11 75 33.5 120t65.5 65
t117 20q83 0 115 -40.5t21 -123.5l-6 -45h-285q1 7 5.5 12t14.5 5h246l4 33q8 71 -19 105.5t-98 34.5q-60 0 -98.5 -16.5t-60 -56.5t-32.5 -113q-10 -76 0.5 -116.5t44 -56t93.5 -15.5q20 0 42.5 1.5t44.5 4.5t39.5 7t27.5 9l-1 -8q-1 -7 -7.5 -12t-26.5 -10
q-26 -5 -57.5 -8t-63.5 -3zM412 460l111 103l16 -19l-112 -84h-15z" />
    <glyph glyph-name="Oslashacute" unicode="&#x1fe;" horiz-adv-x="537" 
d="M42 231q12 83 38 131t62 71t79 29.5t89 6.5q47 0 86 -7.5t66 -30.5t37.5 -71t-1.5 -129q-12 -83 -37.5 -131t-61.5 -71t-79 -29.5t-89 -6.5q-47 0 -86.5 7.5t-66.5 30.5t-37 71t1 129zM473 230q10 73 2.5 117t-31 66.5t-60 30t-84.5 7.5q-47 0 -85.5 -7.5t-68 -30
t-49 -66.5t-30.5 -117q-10 -72 -2.5 -116t30.5 -66t59 -29.5t84 -7.5t87 7.5t68.5 29.5t49.5 66t30 116zM78 -82l319 607h19l-321 -607h-17zM293 521l106 84l14 -19l-105 -65h-15z" />
    <glyph glyph-name="oslashacute" unicode="&#x1ff;" horiz-adv-x="427" 
d="M37 199q10 71 31 112.5t49.5 61t62.5 25t70 5.5t66.5 -6t51.5 -26.5t28.5 -61.5t-2.5 -110q-10 -71 -30.5 -112.5t-48.5 -61t-62 -25t-70 -5.5t-67 6t-52 26.5t-29 61.5t2 110zM372 198q12 83 -1 123.5t-46.5 53t-83.5 12.5q-49 0 -85 -12.5t-59.5 -53t-35.5 -123.5
q-11 -82 1 -122t45 -52.5t82 -12.5q50 0 87 12.5t61 52.5t35 122zM58 -85l282 535h19l-282 -535h-19zM234 460l111 103l16 -19l-112 -84h-15z" />
    <glyph glyph-name="uni0200" unicode="&#x200;" horiz-adv-x="445" 
d="M-10 0l175 399q14 32 32.5 48.5t60.5 16.5q41 0 54.5 -15t18.5 -50l65 -399h-24l-24 141h-275l-62 -141h-21zM81 159h265l-39 238q-3 19 -12.5 33.5t-41.5 14.5q-37 0 -49.5 -15t-20.5 -33zM233 521l-82 65l18 20l81 -85h-17zM293 521l-66 76l17 19l67 -95h-18z" />
    <glyph glyph-name="uni0201" unicode="&#x201;" horiz-adv-x="453" 
d="M187 -8q-52 0 -84 7t-48 22t-19.5 39t1.5 58q7 51 24 78t51 37t90 10q25 0 52.5 -1.5t52.5 -3.5t42.5 -4.5t23.5 -4.5q9 55 3.5 87t-22.5 47t-43.5 19.5t-59.5 4.5t-66.5 -3t-59.5 -10t-37 -19l2 7q2 17 16.5 23t26.5 9q18 5 50 8t63 3q41 0 72.5 -4.5t51.5 -20t28 -47
t0 -86.5l-29 -211q-3 -23 -42 -33.5t-140 -10.5zM189 9q86 0 121 7.5t38 23.5l22 170q-7 4 -33 7.5t-57.5 6.5t-55.5 3q-54 0 -88 -5.5t-51.5 -28.5t-24.5 -74q-5 -37 1 -61.5t35 -36.5t93 -12zM232 460l-100 86l19 17l96 -103h-15zM306 460l-91 95l20 15l86 -110h-15z" />
    <glyph glyph-name="uni0202" unicode="&#x202;" horiz-adv-x="445" 
d="M-10 0l175 399q14 32 32.5 48.5t60.5 16.5q41 0 54.5 -15t18.5 -50l65 -399h-24l-24 141h-275l-62 -141h-21zM81 159h265l-39 238q-3 19 -12.5 33.5t-41.5 14.5q-37 0 -49.5 -15t-20.5 -33zM282 613q30 0 47.5 -12t24.5 -33t3 -50h-15q5 44 -11 60t-52 16
q-42 0 -60.5 -19.5t-23.5 -56.5h-16q5 30 16 51t32 32.5t55 11.5z" />
    <glyph glyph-name="uni0203" unicode="&#x203;" horiz-adv-x="453" 
d="M187 -8q-52 0 -84 7t-48 22t-19.5 39t1.5 58q7 51 24 78t51 37t90 10q25 0 52.5 -1.5t52.5 -3.5t42.5 -4.5t23.5 -4.5q9 55 3.5 87t-22.5 47t-43.5 19.5t-59.5 4.5t-66.5 -3t-59.5 -10t-37 -19l2 7q2 17 16.5 23t26.5 9q18 5 50 8t63 3q41 0 72.5 -4.5t51.5 -20t28 -47
t0 -86.5l-29 -211q-3 -23 -42 -33.5t-140 -10.5zM189 9q86 0 121 7.5t38 23.5l22 170q-7 4 -33 7.5t-57.5 6.5t-55.5 3q-54 0 -88 -5.5t-51.5 -28.5t-24.5 -74q-5 -37 1 -61.5t35 -36.5t93 -12zM271 552q30 0 47.5 -12t24.5 -33t3 -50h-15q5 44 -11 60t-52 16
q-42 0 -60.5 -19.5t-23.5 -56.5h-16q5 30 16 51t32 32.5t55 11.5z" />
    <glyph glyph-name="uni0204" unicode="&#x204;" horiz-adv-x="511" 
d="M72 0l62 440q1 7 1.5 11t3.5 6.5t8 2.5h357l-2 -19h-344l-27 -187h318l-2 -19h-318l-31 -216h345l-3 -19h-368zM294 521l-82 65l18 20l81 -85h-17zM354 521l-66 76l17 19l67 -95h-18z" />
    <glyph glyph-name="uni0205" unicode="&#x205;" horiz-adv-x="436" 
d="M210 -7q-51 0 -85.5 9t-53.5 32t-24 63.5t4 102.5q11 75 33.5 120t65.5 65t117 20q83 0 115 -40.5t21 -123.5l-6 -45h-285q1 7 5.5 12t14.5 5h246l4 33q8 71 -19 105.5t-98 34.5q-60 0 -98.5 -16.5t-60 -56.5t-32.5 -113q-10 -76 0.5 -116.5t44 -56t93.5 -15.5
q20 0 42.5 1.5t44.5 4.5t39.5 7t27.5 9l-1 -8q-1 -7 -7.5 -12t-26.5 -10q-26 -5 -57.5 -8t-63.5 -3zM250 460l-100 86l19 17l96 -103h-15zM324 460l-91 95l20 15l86 -110h-15z" />
    <glyph glyph-name="uni0206" unicode="&#x206;" horiz-adv-x="511" 
d="M72 0l62 440q1 7 1.5 11t3.5 6.5t8 2.5h357l-2 -19h-344l-27 -187h318l-2 -19h-318l-31 -216h345l-3 -19h-368zM343 613q30 0 47.5 -12t24.5 -33t3 -50h-15q5 44 -11 60t-52 16q-42 0 -60.5 -19.5t-23.5 -56.5h-16q5 30 16 51t32 32.5t55 11.5z" />
    <glyph glyph-name="uni0207" unicode="&#x207;" horiz-adv-x="436" 
d="M210 -7q-51 0 -85.5 9t-53.5 32t-24 63.5t4 102.5q11 75 33.5 120t65.5 65t117 20q83 0 115 -40.5t21 -123.5l-6 -45h-285q1 7 5.5 12t14.5 5h246l4 33q8 71 -19 105.5t-98 34.5q-60 0 -98.5 -16.5t-60 -56.5t-32.5 -113q-10 -76 0.5 -116.5t44 -56t93.5 -15.5
q20 0 42.5 1.5t44.5 4.5t39.5 7t27.5 9l-1 -8q-1 -7 -7.5 -12t-26.5 -10q-26 -5 -57.5 -8t-63.5 -3zM289 552q30 0 47.5 -12t24.5 -33t3 -50h-15q5 44 -11 60t-52 16q-42 0 -60.5 -19.5t-23.5 -56.5h-16q5 30 16 51t32 32.5t55 11.5z" />
    <glyph glyph-name="uni0208" unicode="&#x208;" horiz-adv-x="224" 
d="M72 0q15 110 30.5 220t31.5 220q1 7 1.5 11t3.5 6.5t8 2.5h13l-64 -460h-24zM126 521l-82 65l18 20l81 -85h-17zM186 521l-66 76l17 19l67 -95h-18z" />
    <glyph glyph-name="uni0209" unicode="&#x209;" horiz-adv-x="199" 
d="M110 399q-10 -78 -21 -155t-22 -155q-6 -40 -0.5 -58.5t31.5 -18.5q5 0 18.5 1.5t17.5 3.5l-2 -15q-5 -1 -23 -3t-25 -2q-16 0 -25 5t-13 14.5t-5 22.5t1 28t4 32q5 37 10.5 74.5t10.5 75.5t10.5 75.5t10.5 74.5h11h11zM84 460l-100 86l19 17l96 -103h-15zM158 460
l-91 95l20 15l86 -110h-15z" />
    <glyph glyph-name="uni020A" unicode="&#x20a;" horiz-adv-x="224" 
d="M72 0q15 110 30.5 220t31.5 220q1 7 1.5 11t3.5 6.5t8 2.5h13l-64 -460h-24zM175 613q30 0 47.5 -12t24.5 -33t3 -50h-15q5 44 -11 60t-52 16q-42 0 -60.5 -19.5t-23.5 -56.5h-16q5 30 16 51t32 32.5t55 11.5z" />
    <glyph glyph-name="uni020B" unicode="&#x20b;" horiz-adv-x="199" 
d="M110 399q-10 -78 -21 -155t-22 -155q-6 -40 -0.5 -58.5t31.5 -18.5q5 0 18.5 1.5t17.5 3.5l-2 -15q-5 -1 -23 -3t-25 -2q-16 0 -25 5t-13 14.5t-5 22.5t1 28t4 32q5 37 10.5 74.5t10.5 75.5t10.5 75.5t10.5 74.5h11h11zM123 552q30 0 47.5 -12t24.5 -33t3 -50h-15
q5 44 -11 60t-52 16q-42 0 -60.5 -19.5t-23.5 -56.5h-16q5 30 16 51t32 32.5t55 11.5z" />
    <glyph glyph-name="uni020C" unicode="&#x20c;" horiz-adv-x="555" 
d="M243 -7q-47 0 -86.5 7.5t-67 31t-37.5 71t1 128.5q12 83 37.5 131t61.5 71t79 29.5t89 6.5q47 0 86.5 -7.5t67 -31t37.5 -71t-1 -128.5q-12 -83 -37.5 -131t-61.5 -71t-78.5 -29.5t-89.5 -6.5zM250 11q48 0 87 7.5t68 29.5t49 66t30 116q10 73 2.5 117t-31 66.5t-60 30
t-84.5 7.5t-86 -7.5t-67.5 -30t-49 -66.5t-29.5 -117q-10 -72 -3 -116t30 -66t59.5 -29.5t84.5 -7.5zM294 521l-82 65l18 20l81 -85h-17zM354 521l-66 76l17 19l67 -95h-18z" />
    <glyph glyph-name="uni020D" unicode="&#x20d;" horiz-adv-x="460" 
d="M201 -5q-38 0 -69.5 6.5t-53 26.5t-29.5 61t2 110t29.5 110t46.5 61.5t60.5 26.5t71.5 6t70 -6.5t53 -26.5t29 -61t-2 -110q-10 -70 -29 -111t-46.5 -61t-61 -26t-71.5 -6zM204 13q48 0 84.5 12.5t61 52t35.5 121.5q12 82 -1.5 121.5t-46.5 52t-81 12.5t-84.5 -12.5
t-60.5 -52t-36 -121.5q-11 -82 2.5 -121.5t46.5 -52t80 -12.5zM243 460l-100 86l19 17l96 -103h-15zM317 460l-91 95l20 15l86 -110h-15z" />
    <glyph glyph-name="uni020E" unicode="&#x20e;" horiz-adv-x="555" 
d="M243 -7q-47 0 -86.5 7.5t-67 31t-37.5 71t1 128.5q12 83 37.5 131t61.5 71t79 29.5t89 6.5q47 0 86.5 -7.5t67 -31t37.5 -71t-1 -128.5q-12 -83 -37.5 -131t-61.5 -71t-78.5 -29.5t-89.5 -6.5zM250 11q48 0 87 7.5t68 29.5t49 66t30 116q10 73 2.5 117t-31 66.5t-60 30
t-84.5 7.5t-86 -7.5t-67.5 -30t-49 -66.5t-29.5 -117q-10 -72 -3 -116t30 -66t59.5 -29.5t84.5 -7.5zM343 613q30 0 47.5 -12t24.5 -33t3 -50h-15q5 44 -11 60t-52 16q-42 0 -60.5 -19.5t-23.5 -56.5h-16q5 30 16 51t32 32.5t55 11.5z" />
    <glyph glyph-name="uni020F" unicode="&#x20f;" horiz-adv-x="460" 
d="M201 -5q-38 0 -69.5 6.5t-53 26.5t-29.5 61t2 110t29.5 110t46.5 61.5t60.5 26.5t71.5 6t70 -6.5t53 -26.5t29 -61t-2 -110q-10 -70 -29 -111t-46.5 -61t-61 -26t-71.5 -6zM204 13q48 0 84.5 12.5t61 52t35.5 121.5q12 82 -1.5 121.5t-46.5 52t-81 12.5t-84.5 -12.5
t-60.5 -52t-36 -121.5q-11 -82 2.5 -121.5t46.5 -52t80 -12.5zM282 552q30 0 47.5 -12t24.5 -33t3 -50h-15q5 44 -11 60t-52 16q-42 0 -60.5 -19.5t-23.5 -56.5h-16q5 30 16 51t32 32.5t55 11.5z" />
    <glyph glyph-name="uni0210" unicode="&#x210;" horiz-adv-x="575" 
d="M379 210h-33.5h-91t-129.5 -1l-29 -209h-24l58 414q4 29 17.5 37t35.5 9q15 1 36.5 1t46 0.5t50 0.5h49.5t44 -1t32 -2q51 -5 69 -36t10 -86q-7 -40 -25.5 -67.5t-47.5 -41.5q-2 -1 -5.5 -1.5t-5.5 -0.5v-1h4.5h4.5q25 -5 34.5 -17.5t10.5 -29t-1 -32.5l-18 -130
q-1 -4 -1 -9.5t1 -6.5h-12q-7 0 -11 3t-2 19l19 129q5 31 -7 45t-46 14h-33zM128 230q17 0 51.5 -0.5t75 -1t75 -0.5h50.5q39 0 72 23.5t42 87.5q7 44 -6.5 70t-50.5 30q-24 3 -59.5 4t-73.5 0.5t-70 -1t-49 -1.5q-4 0 -16 -4t-15 -23zM285 521l-82 65l18 20l81 -85h-17z
M345 521l-66 76l17 19l67 -95h-18z" />
    <glyph glyph-name="uni0211" unicode="&#x211;" horiz-adv-x="347" 
d="M64 0h-6q-7 0 -11 3.5t-3 12.5l51 363q19 6 49.5 14.5t81.5 8.5q44 0 69 -7t35.5 -18.5t12 -25.5t-0.5 -29h-22l1 14q2 23 -13.5 33t-38.5 12.5t-46 2.5q-34 0 -62 -6t-46 -14zM206 460l-100 86l19 17l96 -103h-15zM280 460l-91 95l20 15l86 -110h-15z" />
    <glyph glyph-name="uni0212" unicode="&#x212;" horiz-adv-x="575" 
d="M379 210h-33.5h-91t-129.5 -1l-29 -209h-24l58 414q4 29 17.5 37t35.5 9q15 1 36.5 1t46 0.5t50 0.5h49.5t44 -1t32 -2q51 -5 69 -36t10 -86q-7 -40 -25.5 -67.5t-47.5 -41.5q-2 -1 -5.5 -1.5t-5.5 -0.5v-1h4.5h4.5q25 -5 34.5 -17.5t10.5 -29t-1 -32.5l-18 -130
q-1 -4 -1 -9.5t1 -6.5h-12q-7 0 -11 3t-2 19l19 129q5 31 -7 45t-46 14h-33zM128 230q17 0 51.5 -0.5t75 -1t75 -0.5h50.5q39 0 72 23.5t42 87.5q7 44 -6.5 70t-50.5 30q-24 3 -59.5 4t-73.5 0.5t-70 -1t-49 -1.5q-4 0 -16 -4t-15 -23zM334 613q30 0 47.5 -12t24.5 -33
t3 -50h-15q5 44 -11 60t-52 16q-42 0 -60.5 -19.5t-23.5 -56.5h-16q5 30 16 51t32 32.5t55 11.5z" />
    <glyph glyph-name="uni0213" unicode="&#x213;" horiz-adv-x="347" 
d="M64 0h-6q-7 0 -11 3.5t-3 12.5l51 363q19 6 49.5 14.5t81.5 8.5q44 0 69 -7t35.5 -18.5t12 -25.5t-0.5 -29h-22l1 14q2 23 -13.5 33t-38.5 12.5t-46 2.5q-34 0 -62 -6t-46 -14zM245 552q30 0 47.5 -12t24.5 -33t3 -50h-15q5 44 -11 60t-52 16q-42 0 -60.5 -19.5
t-23.5 -56.5h-16q5 30 16 51t32 32.5t55 11.5z" />
    <glyph glyph-name="uni0214" unicode="&#x214;" horiz-adv-x="560" 
d="M467 178q-4 -27 -9 -53t-17 -49t-35 -41t-61 -28t-96 -10q-56 0 -90 10t-51.5 28t-22.5 40.5t-3.5 48.5t5.5 52l38 264q1 8 2.5 12.5t4.5 6t8 1.5h12l-46 -320q-6 -46 6.5 -73t47 -39t93.5 -12q89 0 132 29.5t53 95.5l45 319h11q6 0 8.5 -1.5t2.5 -6t-1 -12.5zM296 521
l-82 65l18 20l81 -85h-17zM356 521l-66 76l17 19l67 -95h-18z" />
    <glyph glyph-name="uni0215" unicode="&#x215;" horiz-adv-x="449" 
d="M109 399l-39 -278q-7 -59 24.5 -83t101.5 -24q77 0 114.5 25.5t45.5 82.5l39 277h2.5h2.5h2.5h2.5q6 0 8 -1.5t2.5 -5t-0.5 -10.5l-35 -250q-5 -33 -16 -58.5t-31.5 -42.5t-54 -26t-84.5 -9q-60 0 -94 13.5t-45.5 43t-4.5 78.5l35 251q2 10 4.5 13.5t9.5 3.5h5h5z
M238 460l-100 86l19 17l96 -103h-15zM312 460l-91 95l20 15l86 -110h-15z" />
    <glyph glyph-name="uni0216" unicode="&#x216;" horiz-adv-x="560" 
d="M467 178q-4 -27 -9 -53t-17 -49t-35 -41t-61 -28t-96 -10q-56 0 -90 10t-51.5 28t-22.5 40.5t-3.5 48.5t5.5 52l38 264q1 8 2.5 12.5t4.5 6t8 1.5h12l-46 -320q-6 -46 6.5 -73t47 -39t93.5 -12q89 0 132 29.5t53 95.5l45 319h11q6 0 8.5 -1.5t2.5 -6t-1 -12.5zM345 613
q30 0 47.5 -12t24.5 -33t3 -50h-15q5 44 -11 60t-52 16q-42 0 -60.5 -19.5t-23.5 -56.5h-16q5 30 16 51t32 32.5t55 11.5z" />
    <glyph glyph-name="uni0217" unicode="&#x217;" horiz-adv-x="449" 
d="M109 399l-39 -278q-7 -59 24.5 -83t101.5 -24q77 0 114.5 25.5t45.5 82.5l39 277h2.5h2.5h2.5h2.5q6 0 8 -1.5t2.5 -5t-0.5 -10.5l-35 -250q-5 -33 -16 -58.5t-31.5 -42.5t-54 -26t-84.5 -9q-60 0 -94 13.5t-45.5 43t-4.5 78.5l35 251q2 10 4.5 13.5t9.5 3.5h5h5z
M277 552q30 0 47.5 -12t24.5 -33t3 -50h-15q5 44 -11 60t-52 16q-42 0 -60.5 -19.5t-23.5 -56.5h-16q5 30 16 51t32 32.5t55 11.5z" />
    <glyph glyph-name="uni0218" unicode="&#x218;" horiz-adv-x="531" 
d="M45 46q17 -15 47 -22t62.5 -9t55.5 -2h18.5t19.5 1q48 2 86 12t63 35.5t32 73.5q6 40 -5 59.5t-35.5 26t-61.5 6.5h-34.5h-35.5h-36q-26 0 -53 2.5t-48 12t-32 31t-5 60.5q6 46 27.5 72.5t54 39t71.5 16t81 3.5q25 0 57.5 -1.5t62 -6.5t44.5 -17q5 -3 6.5 -6t1.5 -8
q0 -3 -0.5 -6l-1 -6t-1.5 -6q-8 12 -27.5 19.5t-44 11.5t-47 5.5t-36.5 1.5h-40q-43 0 -82.5 -6.5t-67 -30t-34.5 -74.5q-6 -40 8 -58.5t42.5 -23.5t66.5 -5h51.5h50.5q41 0 72.5 -7t47 -31t7.5 -76q-7 -52 -35.5 -81.5t-72 -41.5t-96.5 -15q-11 -1 -21.5 -1h-21.5
q-14 0 -41 1.5t-55.5 5.5t-47.5 12t-18 22zM178 -168q6 13 11.5 26.5t10 25t5.5 16.5h-2h-2q-5 0 -11 3t-5 13q2 11 8.5 14t17.5 3q7 0 10.5 -1.5t5 -5.5t0.5 -12q-2 -12 -10 -30t-16 -33t-11 -19h-12z" />
    <glyph glyph-name="uni0219" unicode="&#x219;" horiz-adv-x="410" 
d="M153 -5q-13 0 -37.5 1t-50.5 5t-44 13q-6 3 -8 5.5t-2 7.5t1 13q15 -12 43 -18t56.5 -7.5t44.5 -1.5q38 0 70 3.5t57.5 14t41.5 31.5t21 55q8 52 -16.5 66t-71.5 14h-93q-31 0 -61 4.5t-47.5 24t-11.5 64.5q7 50 34.5 74.5t71 32t98.5 7.5q20 0 48.5 -1.5t56.5 -7.5
q14 -2 24 -5.5t15.5 -8t3.5 -11.5l-2 -16q-9 11 -27 17t-40.5 9.5t-46.5 4.5t-45 1q-39 0 -75.5 -5t-62 -24.5t-32.5 -65.5q-5 -35 7 -51t37 -20.5t58 -4.5h88q36 0 63.5 -6t41 -27t6.5 -67q-7 -50 -37 -76t-76 -35t-101 -9zM144 -168q6 13 11.5 26.5t10 25t5.5 16.5h-2h-2
q-5 0 -11 3t-5 13q2 11 8.5 14t17.5 3q7 0 10.5 -1.5t5 -5.5t0.5 -12q-2 -12 -10 -30t-16 -33t-11 -19h-12z" />
    <glyph glyph-name="uni021A" unicode="&#x21a;" horiz-adv-x="447" 
d="M62 460h397l-3 -19h-186l-59 -421q-1 -6 -2.5 -10.5t-3.5 -7t-8 -2.5h-13l62 441h-187zM159 -161q6 13 11.5 26.5t10 25t5.5 16.5h-2h-2q-5 0 -11 3t-5 13q2 11 8.5 14t17.5 3q7 0 10.5 -1.5t5 -5.5t0.5 -12q-2 -12 -10 -30t-16 -33t-11 -19h-12z" />
    <glyph glyph-name="uni021B" unicode="&#x21b;" horiz-adv-x="209" 
d="M54 -149q6 11 11 23t8.5 22t4.5 15h-1.5h-1.5q-5 0 -10.5 2.5t-3.5 11.5q1 10 7 13t16 3q5 0 8.5 -1.5t5 -5.5t0.5 -10q-2 -11 -9 -27t-14.5 -29.5t-9.5 -16.5h-11zM105 -3q-21 0 -33 7t-16 24.5t0 47.5l43 307h-35l2 16h36l12 85q1 9 3 13.5t5.5 6t7.5 1.5h10l-1.5 -7
t-3.5 -22l-11 -77h91l-2 -16h-92l-42 -301q-5 -39 2 -53.5t31 -14.5q12 0 22 2t14 3l-2 -17q-5 -1 -16 -3t-25 -2z" />
    <glyph glyph-name="uni022A" unicode="&#x22a;" horiz-adv-x="555" 
d="M384 521q-8 0 -14 3t-3 16q4 13 12.5 15.5t14.5 2.5q7 0 13.5 -2.5t2.5 -15.5q-3 -13 -10 -16t-16 -3zM270 521q-9 0 -14.5 3t-2.5 17q4 12 12.5 14.5t14.5 2.5q7 0 13.5 -2.5t2.5 -14.5q-3 -13 -10.5 -16.5t-15.5 -3.5zM243 -7q-47 0 -86.5 7.5t-67 31t-37.5 71t1 128.5
q12 83 37.5 131t61.5 71t79 29.5t89 6.5q47 0 86.5 -7.5t67 -31t37.5 -71t-1 -128.5q-12 -83 -37.5 -131t-61.5 -71t-78.5 -29.5t-89.5 -6.5zM250 11q48 0 87 7.5t68 29.5t49 66t30 116q10 73 2.5 117t-31 66.5t-60 30t-84.5 7.5t-86 -7.5t-67.5 -30t-49 -66.5t-29.5 -117
q-10 -72 -3 -116t30 -66t59.5 -29.5t84.5 -7.5zM243 613l2 14h197l-2 -14h-197z" />
    <glyph glyph-name="uni022B" unicode="&#x22b;" horiz-adv-x="460" 
d="M201 -5q-38 0 -69.5 6.5t-53 26.5t-29.5 61t2 110t29.5 110t46.5 61.5t60.5 26.5t71.5 6t70 -6.5t53 -26.5t29 -61t-2 -110q-10 -70 -29 -111t-46.5 -61t-61 -26t-71.5 -6zM204 13q48 0 84.5 12.5t61 52t35.5 121.5q12 82 -1.5 121.5t-46.5 52t-81 12.5t-84.5 -12.5
t-60.5 -52t-36 -121.5q-11 -82 2.5 -121.5t46.5 -52t80 -12.5zM323 460q-7 0 -13.5 3t-5.5 16q2 13 10 15.5t14 2.5q7 0 14 -2.5t5 -15.5q-1 -13 -8 -16t-16 -3zM209 460q-9 0 -14.5 3t-4.5 17q2 12 10 14.5t14 2.5q7 0 14 -2.5t5 -14.5q-1 -13 -8.5 -16.5t-15.5 -3.5z
M186 552l2 18h189l-2 -18h-189z" />
    <glyph glyph-name="uni022C" unicode="&#x22c;" horiz-adv-x="555" 
d="M243 -7q-47 0 -86.5 7.5t-67 31t-37.5 71t1 128.5q12 83 37.5 131t61.5 71t79 29.5t89 6.5q47 0 86.5 -7.5t67 -31t37.5 -71t-1 -128.5q-12 -83 -37.5 -131t-61.5 -71t-78.5 -29.5t-89.5 -6.5zM250 11q48 0 87 7.5t68 29.5t49 66t30 116q10 73 2.5 117t-31 66.5t-60 30
t-84.5 7.5t-86 -7.5t-67.5 -30t-49 -66.5t-29.5 -117q-10 -72 -3 -116t30 -66t59.5 -29.5t84.5 -7.5zM372 519q-15 0 -29.5 8.5t-28.5 16.5t-29 8q-16 0 -27 -9.5t-16 -17.5l-10 8q2 3 6 9.5t11.5 13.5t17.5 12.5t23 5.5q16 0 29.5 -9t27.5 -17.5t28 -8.5q20 0 30.5 11.5
t14.5 19.5l10 -10q-1 -3 -5.5 -9.5t-12 -13.5t-17.5 -12.5t-23 -5.5zM241 606l2 14h197l-2 -14h-197z" />
    <glyph glyph-name="uni022D" unicode="&#x22d;" horiz-adv-x="460" 
d="M201 -5q-38 0 -69.5 6.5t-53 26.5t-29.5 61t2 110t29.5 110t46.5 61.5t60.5 26.5t71.5 6t70 -6.5t53 -26.5t29 -61t-2 -110q-10 -70 -29 -111t-46.5 -61t-61 -26t-71.5 -6zM204 13q48 0 84.5 12.5t61 52t35.5 121.5q12 82 -1.5 121.5t-46.5 52t-81 12.5t-84.5 -12.5
t-60.5 -52t-36 -121.5q-11 -82 2.5 -121.5t46.5 -52t80 -12.5zM311 457q-15 0 -29.5 8.5t-28.5 17t-29 8.5q-16 0 -25 -11t-14 -19l-12 7q2 4 6.5 11t11.5 14.5t16.5 12.5t21.5 5q16 0 29.5 -9t27.5 -17.5t28 -8.5q20 0 30.5 12t14.5 19l12 -7q-2 -4 -7 -11t-12.5 -14.5
t-17.5 -12.5t-23 -5zM185 545l2 18h189l-2 -18h-189z" />
    <glyph glyph-name="uni0230" unicode="&#x230;" horiz-adv-x="555" 
d="M243 -7q-47 0 -86.5 7.5t-67 31t-37.5 71t1 128.5q12 83 37.5 131t61.5 71t79 29.5t89 6.5q47 0 86.5 -7.5t67 -31t37.5 -71t-1 -128.5q-12 -83 -37.5 -131t-61.5 -71t-78.5 -29.5t-89.5 -6.5zM250 11q48 0 87 7.5t68 29.5t49 66t30 116q10 73 2.5 117t-31 66.5t-60 30
t-84.5 7.5t-86 -7.5t-67.5 -30t-49 -66.5t-29.5 -117q-10 -72 -3 -116t30 -66t59.5 -29.5t84.5 -7.5zM329 521q-11 0 -17.5 3.5t-4.5 17.5q2 16 10 19.5t18 3.5q11 0 16.5 -4t3.5 -19q-2 -14 -9 -17.5t-17 -3.5zM245 627l2 14h197l-2 -14h-197z" />
    <glyph glyph-name="uni0231" unicode="&#x231;" horiz-adv-x="460" 
d="M201 -5q-38 0 -69.5 6.5t-53 26.5t-29.5 61t2 110t29.5 110t46.5 61.5t60.5 26.5t71.5 6t70 -6.5t53 -26.5t29 -61t-2 -110q-10 -70 -29 -111t-46.5 -61t-61 -26t-71.5 -6zM204 13q48 0 84.5 12.5t61 52t35.5 121.5q12 82 -1.5 121.5t-46.5 52t-81 12.5t-84.5 -12.5
t-60.5 -52t-36 -121.5q-11 -82 2.5 -121.5t46.5 -52t80 -12.5zM268 460q-11 0 -17.5 3.5t-4.5 17.5q2 16 10 19.5t18 3.5q11 0 16.5 -4t3.5 -19q-2 -14 -9 -17.5t-17 -3.5zM188 566l2 18h189l-2 -18h-189z" />
    <glyph glyph-name="uni0232" unicode="&#x232;" horiz-adv-x="406" 
d="M161 0l26 190l-117 245l-14 25h27l120 -250l198 250h23l-22 -27l-191 -243l-24 -170q0 -6 -1 -10.5t-4 -7t-9 -2.5h-12zM179 522l2 14h197l-2 -14h-197z" />
    <glyph glyph-name="uni0233" unicode="&#x233;" horiz-adv-x="450" 
d="M172 -111q-37 0 -71 4.5t-55 11.5t-20 15l2 13q15 -9 38.5 -15t51 -9.5t55.5 -3.5q48 0 83 15t57.5 47t29.5 81l8 63q-10 -20 -33 -35t-54 -22.5t-68 -7.5q-74 0 -105.5 20t-36 57t2.5 86l23 159q2 15 3.5 21.5t4 8t8.5 1.5h10q-4 -26 -7.5 -52l-7 -52l-7 -52t-7.5 -52
q-8 -57 8.5 -84t48.5 -34.5t68 -7.5q37 0 71 9t58 34t30 73l31 218h7q10 0 12 -2.5t0 -19.5l-46 -322q-12 -88 -60 -127t-133 -39zM157 461l2 18h189l-2 -18h-189z" />
    <glyph glyph-name="uni0237" unicode="&#x237;" horiz-adv-x="196" 
d="M-18 -67q5 -1 19 -2t24 -1q30 0 39 18.5t14 58.5q14 94 27 188.5t26 188.5q1 5 2 8.5t4 5t9 1.5h4.5h4.5q-5 -37 -10.5 -74t-10.5 -74t-10 -74.5t-10.5 -74.5t-10.5 -74q-3 -23 -6.5 -41.5t-8 -32t-11.5 -22t-19 -13t-29 -4.5q-15 0 -29 1t-21 2q1 4 1.5 7.5t1.5 7.5z
" />
    <glyph glyph-name="uni02B9" unicode="&#x2b9;" horiz-adv-x="65" 
d="M90 542h22l-69 -142h-16z" />
    <glyph glyph-name="uni02BA" unicode="&#x2ba;" horiz-adv-x="210" 
d="M90 533h22l-69 -134h-16zM234 533h22l-69 -134h-16z" />
    <glyph glyph-name="uni02BC" unicode="&#x2bc;" horiz-adv-x="66" 
d="M90 533h22l-69 -134h-16z" />
    <glyph glyph-name="circumflex" unicode="&#x2c6;" horiz-adv-x="174" 
d="M37 460l92 103h17l65 -103h-18l-58 84l-81 -84h-17z" />
    <glyph glyph-name="caron" unicode="&#x2c7;" horiz-adv-x="173" 
d="M59 563h17l57 -84l82 84h18l-94 -103h-17z" />
    <glyph glyph-name="breve" unicode="&#x2d8;" horiz-adv-x="181" 
d="M125 458q-29 0 -47 12t-25 33.5t-3 49.5h15q-4 -43 11.5 -59.5t51.5 -16.5q42 0 60.5 19.5t23.5 56.5h16q-4 -29 -15 -50.5t-32 -33t-56 -11.5z" />
    <glyph glyph-name="dotaccent" unicode="&#x2d9;" horiz-adv-x="48" 
d="M62 460q-11 0 -17.5 3.5t-4.5 17.5q2 16 10 19.5t18 3.5q11 0 16.5 -4t3.5 -19q-2 -14 -9 -17.5t-17 -3.5z" />
    <glyph glyph-name="ring" unicode="&#x2da;" horiz-adv-x="128" 
d="M97 461q-37 0 -47 12t-6 39q4 26 17 38t50 12q38 0 48 -12t6 -38q-4 -27 -17 -39t-51 -12zM99 474q20 0 31.5 6.5t15.5 31.5q4 24 -6.5 30.5t-30.5 6.5q-19 0 -31 -6.5t-16 -30.5q-4 -25 6.5 -31.5t30.5 -6.5z" />
    <glyph glyph-name="ogonek" unicode="&#x2db;" horiz-adv-x="129" 
d="M38 -179q-29 0 -48.5 5t-28 19t-5.5 40q4 26 25.5 50t46 41.5t37.5 24.5h27q-8 -3 -25.5 -14.5t-37 -27.5t-34.5 -34t-17 -34q-4 -34 12 -44.5t47 -10.5q9 0 17.5 0.5t15 1t8.5 0.5q-1 -6 -4 -10t-11 -5.5t-25 -1.5z" />
    <glyph glyph-name="tilde" unicode="&#x2dc;" horiz-adv-x="190" 
d="M176 457q-15 0 -29.5 8.5t-28.5 17t-29 8.5q-16 0 -25 -11t-14 -19l-12 7q2 4 6.5 11t11.5 14.5t16.5 12.5t21.5 5q16 0 29.5 -9t27.5 -17.5t28 -8.5q20 0 30.5 12t14.5 19l12 -7q-2 -4 -7 -11t-12.5 -14.5t-17.5 -12.5t-23 -5z" />
    <glyph glyph-name="hungarumlaut" unicode="&#x2dd;" horiz-adv-x="151" 
d="M133 460l42 103h28l-56 -103h-14zM37 460l43 103h26l-54 -103h-15z" />
    <glyph glyph-name="gravecomb" unicode="&#x300;" 
d="M135 460l-87 84l20 19l83 -103h-16z" />
    <glyph glyph-name="acutecomb" unicode="&#x301;" 
d="M37 460l111 103l16 -19l-112 -84h-15z" />
    <glyph glyph-name="uni0302" unicode="&#x302;" 
d="M37 460l92 103h17l65 -103h-18l-58 84l-81 -84h-17z" />
    <glyph glyph-name="tildecomb" unicode="&#x303;" 
d="M176 457q-15 0 -29.5 8.5t-28.5 17t-29 8.5q-16 0 -25 -11t-14 -19l-12 7q2 4 6.5 11t11.5 14.5t16.5 12.5t21.5 5q16 0 29.5 -9t27.5 -17.5t28 -8.5q20 0 30.5 12t14.5 19l12 -7q-2 -4 -7 -11t-12.5 -14.5t-17.5 -12.5t-23 -5z" />
    <glyph glyph-name="uni0304" unicode="&#x304;" 
d="M37 461l2 18h189l-2 -18h-189z" />
    <glyph glyph-name="uni0306" unicode="&#x306;" 
d="M125 458q-29 0 -47 12t-25 33.5t-3 49.5h15q-4 -43 11.5 -59.5t51.5 -16.5q42 0 60.5 19.5t23.5 56.5h16q-4 -29 -15 -50.5t-32 -33t-56 -11.5z" />
    <glyph glyph-name="uni0307" unicode="&#x307;" 
d="M62 460q-11 0 -17.5 3.5t-4.5 17.5q2 16 10 19.5t18 3.5q11 0 16.5 -4t3.5 -19q-2 -14 -9 -17.5t-17 -3.5z" />
    <glyph glyph-name="uni0308" unicode="&#x308;" 
d="M172 460q-7 0 -13.5 3t-5.5 16q2 13 10 15.5t14 2.5q7 0 14 -2.5t5 -15.5q-1 -13 -8 -16t-16 -3zM58 460q-9 0 -14.5 3t-4.5 17q2 12 10 14.5t14 2.5q7 0 14 -2.5t5 -14.5q-1 -13 -8.5 -16.5t-15.5 -3.5z" />
    <glyph glyph-name="hookabovecomb" unicode="&#x309;" 
d="M79 455l1 9q2 10 14 16.5t24 15.5t14 24v2q3 22 -3 29t-29 7q-21 0 -28.5 -8.5t-12.5 -18.5l-12 4q13 38 56 38q29 0 41 -9.5t7 -40.5v-2q-2 -19 -16.5 -29t-28 -16.5t-15.5 -17.5v-3h-12z" />
    <glyph glyph-name="uni030A" unicode="&#x30a;" 
d="M97 461q-37 0 -47 12t-6 39q4 26 17 38t50 12q38 0 48 -12t6 -38q-4 -27 -17 -39t-51 -12zM99 474q20 0 31.5 6.5t15.5 31.5q4 24 -6.5 30.5t-30.5 6.5q-19 0 -31 -6.5t-16 -30.5q-4 -25 6.5 -31.5t30.5 -6.5z" />
    <glyph glyph-name="uni030B" unicode="&#x30b;" 
d="M133 460l42 103h28l-56 -103h-14zM37 460l43 103h26l-54 -103h-15z" />
    <glyph glyph-name="uni030C" unicode="&#x30c;" 
d="M59 563h17l57 -84l82 84h18l-94 -103h-17z" />
    <glyph glyph-name="uni030F" unicode="&#x30f;" 
d="M149 460l-100 86l19 17l96 -103h-15zM223 460l-91 95l20 15l86 -110h-15z" />
    <glyph glyph-name="uni0311" unicode="&#x311;" 
d="M139 553q30 0 47.5 -12t24.5 -33t3 -50h-15q5 44 -11 60t-52 16q-42 0 -60.5 -19.5t-23.5 -56.5h-16q5 30 16 51t32 32.5t55 11.5z" />
    <glyph glyph-name="uni0312" unicode="&#x312;" 
d="M55 461q-6 0 -10 1.5t-5.5 6t-0.5 11.5q2 13 10 31t16 33t10 18h13q-6 -12 -11.5 -26t-9.5 -25t-6 -17h1.5h1.5q6 0 12.5 -2.5t4.5 -13.5q-1 -11 -8 -14t-18 -3z" />
    <glyph glyph-name="uni031B" unicode="&#x31b;" 
d="M31 383l-3 16h21q24 0 34.5 18t11.5 28l3 23h21l-3 -20q-4 -31 -27 -49t-58 -16z" />
    <glyph glyph-name="dotbelowcomb" unicode="&#x323;" 
d="M-24 -109q-4 0 -8.5 1t-7 4.5t-1.5 10.5q2 11 8 14t13 3q8 0 13.5 -2.5t3.5 -14.5q-1 -7 -4.5 -10.5t-7.5 -4.5t-9 -1z" />
    <glyph glyph-name="uni0324" unicode="&#x324;" 
d="M172 -101q-7 0 -13.5 3t-5.5 16q2 13 10 15.5t14 2.5q7 0 14 -2.5t5 -15.5q-1 -13 -8 -16t-16 -3zM58 -101q-9 0 -14.5 3t-4.5 17q2 12 10 14.5t14 2.5q7 0 14 -2.5t5 -14.5q-1 -13 -8.5 -16.5t-15.5 -3.5z" />
    <glyph glyph-name="uni0326.1" unicode="&#x326;" 
d="M-47 -168q6 13 11.5 26.5t10 25t5.5 16.5h-2h-2q-5 0 -11 3t-5 13q2 11 8.5 14t17.5 3q7 0 10.5 -1.5t5 -5.5t0.5 -12q-2 -12 -10 -30t-16 -33t-11 -19h-12z" />
    <glyph glyph-name="uni0327" unicode="&#x327;" 
d="M-6 -185q-23 0 -33 3t-9 12h24.5h45.5q29 0 40.5 9.5t13.5 28.5q4 27 -3.5 35t-43.5 8h-31h-13t-13.5 -0.5t-11.5 -0.5q2 3 13 15t26 27.5t28 29.5t18 20h12l-66 -79q47 3 71 0.5t30.5 -15t2.5 -40.5t-19 -39t-36.5 -12.5t-45.5 -1.5z" />
    <glyph glyph-name="uni0328" unicode="&#x328;" 
d="M38 -179q-29 0 -48.5 5t-28 19t-5.5 40q4 26 25.5 50t46 41.5t37.5 24.5h27q-8 -3 -25.5 -14.5t-37 -27.5t-34.5 -34t-17 -34q-4 -34 12 -44.5t47 -10.5q9 0 17.5 0.5t15 1t8.5 0.5q-1 -6 -4 -10t-11 -5.5t-25 -1.5z" />
    <glyph glyph-name="uni032E" unicode="&#x32e;" 
d="M45 -120q-29 0 -47 12t-25 33.5t-3 49.5h15q-4 -43 11.5 -59.5t51.5 -16.5q42 0 60.5 19.5t23.5 56.5h16q-4 -29 -15 -50.5t-32 -33t-56 -11.5z" />
    <glyph glyph-name="uni0331" unicode="&#x331;" 
d="M33 -99l2 18h189l-2 -18h-189z" />
    <glyph glyph-name="uni0335" unicode="&#x335;" 
d="M38 470h198l-2 -15h-198z" />
    <glyph glyph-name="pi" unicode="&#x3c0;" horiz-adv-x="392" 
d="M66 341h308l-2 -14h-33q-13 0 -22 -8t-11 -26l-38 -267q-1 -12 -3 -18.5t-4.5 -9.5t-7 -3.5t-12.5 -0.5l46 333h-136l-42 -301q-1 -12 -3 -18.5t-4.5 -9.5t-7.5 -3.5t-13 -0.5q6 38 11 75t10.5 74.5t10.5 74.5t10 75q2 18 -6 26t-20 8h-33z" />
    <glyph glyph-name="tsaa" unicode="&#x13a0;" horiz-adv-x="466" 
d="M422 225q-12 -88 -32.5 -135t-49 -66.5t-66.5 -23t-85 -3.5q-28 0 -69 1.5t-85 1.5l56 403q5 28 10.5 40.5t25.5 14.5q21 2 56.5 3t71 1.5t57.5 -1.5q31 -2 56 -8t41.5 -27.5t20.5 -69t-8 -131.5zM299 423q-16 2 -41.5 2t-50 -1t-38.5 -4q-13 -1 -19 -6t-8 -19l-50 -356
q29 -2 57.5 -3t50.5 -2q50 -2 84 10.5t55 53.5t33 126q9 65 9 103.5t-8.5 58.5t-27 27.5t-46.5 9.5z" />
    <glyph glyph-name="tsae" unicode="&#x13a1;" horiz-adv-x="547" 
d="M322 185q-16 2 -44 3t-59.5 1t-60 -0.5t-45.5 -1.5l-26 -187h-52l57 402q4 29 18 41.5t45 13.5q35 2 58 3t41.5 1t39 -1t49.5 -3q42 -3 62 -15.5t24.5 -41t-2.5 -78.5q-11 -87 -69 -103q30 -7 37 -27.5t4 -44.5l-12 -86q-3 -22 3 -25.5t15 -3.5q14 0 23 12.5t16 58.5h36
l-7 -45q-6 -46 -24 -55.5t-50 -9.5t-47 6t-17.5 24t1.5 55l10 69q2 15 -3.5 25.5t-20.5 12.5zM120 234q36 -1 59.5 -1.5t47 -0.5t60.5 1q34 1 58 18t31 69q8 53 -4 72.5t-49 23.5q-26 2 -71.5 2t-106.5 -6z" />
    <glyph glyph-name="tsai" unicode="&#x13a2;" horiz-adv-x="453" 
d="M64 460h391l-6 -42q-1 1 -22 1.5t-51 0.5h-56.5h-38.5l-51 -362q-4 -27 -13 -42.5t-33 -15.5h-14l59 420l-171 -2z" />
    <glyph glyph-name="tsao" unicode="&#x13a3;" horiz-adv-x="572" 
d="M327 460h172l-6 -39h-61l-10 -70q40 -1 70 -13t44 -46.5t4 -106.5q-8 -61 -21 -97t-31 -55t-42 -28q-19 -7 -42 -8t-37 0q-12 1 -26.5 5t-23.5 16.5t-6 35.5l3 26h28q-4 -18 3.5 -33.5t44.5 -15.5q23 0 41 12t31.5 44.5t22.5 94.5q7 49 4 75.5t-16.5 37t-38 12.5t-60.5 2
q-49 0 -72.5 -11t-32.5 -49q14 -15 19.5 -42t-0.5 -72q-9 -64 -31.5 -93.5t-55 -37.5t-70.5 -8t-67 8t-42.5 37.5t-4.5 93.5t32 93.5t56 37.5t70 8q20 0 37 -2t31 -7l3 23q4 25 24.5 38.5t49 19.5t55.5 6l10 69h-64zM237 135q7 47 -1 69.5t-25.5 29.5t-42.5 7t-45.5 -6.5
t-34.5 -29t-21 -70.5t0.5 -70.5t26.5 -29.5t44 -7t45 7t34 30t20 70z" />
    <glyph glyph-name="tsau" unicode="&#x13a4;" horiz-adv-x="601" 
d="M178 -5q-67 0 -105 19t-49 70.5t3 148.5q12 88 37 138t69 71t111 21q55 0 90 -12t52 -42.5t17 -87.5q10 -7 28.5 -18.5t40 -20t41 -8.5t30.5 16q18 26 9 42t-25 23l16 24l22 -11q38 -22 33 -55.5t-42 -68.5q-25 -24 -62 -17.5t-94 35.5l-2 -18t-3 -19q-12 -88 -37 -138
t-68.5 -71t-111.5 -21zM182 32q58 0 90 20.5t48 63.5t25 108q10 70 6.5 114.5t-29 66t-82.5 21.5q-58 0 -90 -20.5t-48 -63t-25 -108.5q-10 -70 -6.5 -114.5t29.5 -65.5t83 -21z" />
    <glyph glyph-name="tsav" unicode="&#x13a5;" horiz-adv-x="183" 
d="M139 399l-56 -399q-27 0 -37 5t-10.5 15t1.5 26l50 353h52zM155 474q-2 -19 -11.5 -22.5t-24.5 -3.5q-14 0 -23 3.5t-7 22.5q3 17 12.5 21.5t23.5 4.5t23.5 -4t6.5 -22z" />
    <glyph glyph-name="tsaga" unicode="&#x13a6;" horiz-adv-x="480" 
d="M30 258h85q-25 15 -35.5 37t-6.5 56q6 41 26 63.5t50 32.5t65 12.5t70 2.5q23 0 49 -2t50 -6.5t38.5 -12t12.5 -17.5l-4 -33q-8 6 -33.5 14t-58.5 13.5t-64 5.5q-36 0 -68.5 -4t-55 -19t-27.5 -49q-4 -32 21.5 -50.5t58.5 -29.5l41 -14h212l-5 -39h-100q25 -12 40.5 -34
t8.5 -72q-7 -48 -34 -72.5t-71 -33.5t-101 -11q-40 -1 -80.5 3.5t-58.5 9.5q-16 5 -22.5 17.5t-2.5 40.5q31 -15 76.5 -23.5t92.5 -8.5q18 0 42 2.5t47.5 10t40.5 23.5t21 44q3 24 -14.5 44.5t-43.5 29.5l-82 30h-185z" />
    <glyph glyph-name="tsaka" unicode="&#x13a7;" horiz-adv-x="607" 
d="M329 39q24 3 45.5 17t39 55.5t29.5 124.5q11 77 4 117t-28 55t-51.5 16.5t-66.5 1.5q-51 0 -83.5 -11.5t-49 -27.5t-18.5 -30h-35l3 20q5 34 33 53t69.5 27t86.5 8q49 0 89.5 -4.5t67.5 -25t37.5 -66t-0.5 -127.5q-11 -79 -28 -126t-40 -72t-55 -37q-14 -5 -48.5 -7.5
t-74.5 -3t-72 0.5q-39 2 -67.5 13.5t-41.5 43t-4 92.5q9 62 32 95t58.5 45.5t81.5 12.5q51 0 76.5 -12.5t32.5 -37t2 -60.5q-5 -39 -29 -69.5t-59.5 -51t-75.5 -30.5h9q26 -1 62 -2t69 3zM123 149q-5 -36 -1 -57.5t15 -33.5q30 6 67 22t66 43.5t34 64.5q10 73 -68 73
q-23 0 -46.5 -8t-41.5 -31.5t-25 -72.5z" />
    <glyph glyph-name="tsage" unicode="&#x13a8;" horiz-adv-x="353" 
d="M137 460l-24 -171l98 62q1 -13 11 -26t35 -13t47.5 19.5t37.5 39.5q11 -5 13 -16t-18 -34q-48 -52 -87 -52q-14 0 -33.5 7t-30.5 18l-79 -50l-26 -186q-4 -27 -13 -42.5t-33 -15.5h-14l64 460h52z" />
    <glyph glyph-name="tsagi" unicode="&#x13a9;" horiz-adv-x="411" 
d="M385 460h49l-129 -251q-42 -82 -70.5 -130.5t-51 -68.5t-47.5 -18q-46 4 -66.5 28t1.5 68l12 23l25 -8q-10 -16 -10 -36t28 -28q15 -5 29 7t27 31t23 36l10 17.5t22.5 40t21.5 38.5l-26 -10q-17 -7 -28.5 8t-18.5 44l-52 209h56l50 -209q2 -11 13 -14.5t18 -3.5z" />
    <glyph glyph-name="tsago" unicode="&#x13aa;" horiz-adv-x="406" 
d="M87 118l-50 -118h-46l174 396q19 44 40 54t43 10h37l74 -460h-50l-19 118h-203zM105 159h178l-42 259q-11 -3 -21.5 -11.5t-15.5 -22.5z" />
    <glyph glyph-name="tsagu" unicode="&#x13ab;" horiz-adv-x="296" 
d="M80 105q-4 -32 4.5 -49t36.5 -17q35 0 50.5 20t20.5 55l48 346h25q22 0 24 -9t-2 -40l-40 -280q-7 -55 -20 -84t-39.5 -39t-74.5 -10q-37 0 -53.5 11.5t-18.5 35t3 60.5h36z" />
    <glyph glyph-name="tsagv" unicode="&#x13ac;" horiz-adv-x="385" 
d="M373 460l-5 -40h-221l-23 -160h142l-5 -39h-142l-26 -182h221l-5 -39h-273l58 415q3 19 13 32t32 13h234z" />
    <glyph glyph-name="tsaha" unicode="&#x13ad;" horiz-adv-x="557" 
d="M219 460h172l-5 -39h-61l-17 -121h239l-8 -52l-228 -202l-28 -24.5t-27 -15.5t-41 -4q1 2 3 13t3 19l32 225h-66q-12 -48 -36.5 -60t-60.5 -12q-26 0 -45 6t-27 27t-2 65q6 41 21 60.5t37 25.5t48 6q35 0 55 -13.5t16 -63.5h66l17 121h-62zM483 259h-180l-26 -186z
M56 286q-6 -41 5.5 -52.5t32.5 -11.5q22 0 36.5 11.5t20.5 52.5q5 38 -5.5 49.5t-32.5 11.5q-20 0 -36 -11t-21 -50z" />
    <glyph glyph-name="tsahe" unicode="&#x13ae;" horiz-adv-x="353" 
d="M123 304l-9 -67h48q59 0 90 19t39 80q7 51 -13 68t-76 17h-59q-5 0 -20 -0.5t-33 -1t-31.5 -1.5t-16.5 -1l2 10q3 23 28 28t90 5h65q46 0 75 -9t40.5 -36.5t3.5 -82.5q-9 -63 -41 -91.5t-82.5 -35.5t-113.5 -7l-28 -198q-26 0 -36.5 5t-11 15t1.5 26l36 258h52z" />
    <glyph glyph-name="tsahi" unicode="&#x13af;" horiz-adv-x="477" 
d="M260 105q-4 -32 5 -49t37 -17q34 0 50.5 22.5t24.5 74.5l11 83h-171l-6 -43q-9 -61 -20 -97t-26.5 -53.5t-37 -22.5t-51.5 -5q-40 0 -57.5 11.5t-20 35t2.5 60.5h36q-4 -32 5 -49t37 -17q35 0 50.5 21.5t23.5 77.5l14 103q9 62 19 105t27 69t46.5 37.5t78.5 11.5
q50 0 76.5 -11.5t35 -36t6 -63.5t-10.5 -94l-13 -89q-8 -60 -19.5 -95t-27 -51.5t-36.5 -21t-50 -4.5q-40 0 -57.5 11.5t-20 35t2.5 60.5h36zM223 258h171l3 24q9 62 4.5 93t-22 41t-47.5 10q-47 0 -70 -28t-34 -101z" />
    <glyph glyph-name="tsaho" unicode="&#x13b0;" horiz-adv-x="228" 
d="M123 460l-28 -202h122l-6 -39h-122l-30 -219q-26 0 -36.5 5t-11 15t1.5 26l58 414h52z" />
    <glyph glyph-name="tsahu" unicode="&#x13b1;" horiz-adv-x="322" 
d="M345 460l-5 -40h-221l-59 -420h-52l58 415q3 19 13 32t32 13h234z" />
    <glyph glyph-name="tsahv" unicode="&#x13b2;" horiz-adv-x="540" 
d="M369 208h153l-5 -39h-49q0 -28 -5 -57.5t-18 -55.5t-37 -42t-62 -16q-42 0 -71 20t-55 70q-38 -49 -73.5 -69.5t-76.5 -20.5q-35 0 -60 19.5t-19 60.5q4 26 18.5 53.5t33.5 49.5l33 -18q-13 -17 -26 -39t-16 -42q-2 -19 11 -31t34 -12q45 0 120 99q-14 38 -30 92
q-11 37 -16.5 77t-0.5 80q5 30 20 45.5t38 21.5q29 8 67 7t64 -9q40 -12 33 -65q-5 -40 -22 -80t-39 -77q-16 -26 -29.5 -48.5t-26.5 -42.5q45 -100 92 -100q34 0 51 21.5t23.5 52t8.5 56.5h-68zM209 279q12 -48 27 -88q12 20 25 42t26 46q17 32 25.5 55t10.5 39q4 24 -8 38
t-45 14q-64 0 -71 -52q-2 -16 0 -39t10 -55z" />
    <glyph glyph-name="tsala" unicode="&#x13b3;" horiz-adv-x="510" 
d="M377 92l106 368h42l-125 -426q-7 -25 -18 -29.5t-27 -4.5h-17l-55 395l-154 -395h-12q-25 0 -41.5 3.5t-16.5 30.5l-5 426h47l5 -407l160 407h61z" />
    <glyph glyph-name="tsale" unicode="&#x13b4;" horiz-adv-x="500" 
d="M333 171q-11 -79 -38 -116.5t-64.5 -48.5t-82.5 -11q-44 0 -75 13t-43.5 51.5t-2.5 114.5q11 79 38 116.5t65 49t82 10.5q23 0 42.5 -3t35.5 -11q2 71 25.5 100.5t79.5 29.5q42 0 62 -11.5t26 -35t6 -60.5h-42q-1 32 -12 49t-40 17q-28 0 -41.5 -17t-17 -44.5t-1.5 -58.5
q3 -31 2.5 -68.5t-4.5 -65.5zM288 172q9 63 -0.5 94t-32.5 41t-55 10q-31 1 -56.5 -9t-43.5 -40.5t-27 -93.5q-9 -62 0 -93t32.5 -41t55.5 -11q32 0 57 9.5t43 40.5t27 93z" />
    <glyph glyph-name="tsali" unicode="&#x13b5;" horiz-adv-x="363" 
d="M7 0l45 317q8 61 29.5 93t57.5 44t87 12q71 0 103 -24t22 -94q-4 -29 -19 -49t-33 -32t-33 -17l-8 29l9.5 7.5t20.5 21.5t13 34q6 41 -9.5 62t-70.5 21q-45 0 -69 -13.5t-34 -39t-15 -60.5l-44 -312h-52z" />
    <glyph glyph-name="tsalo" unicode="&#x13b6;" horiz-adv-x="461" 
d="M226 135l18 131h39l-6 -44h33q62 0 85.5 -19t15.5 -72q-11 -82 -61.5 -110.5t-143.5 -28.5q-73 0 -118 17t-60.5 67t-2.5 147q13 88 41 140.5t79 76.5t133 24q59 0 96.5 -11.5t51.5 -47t4 -108.5h-45q5 33 2 63.5t-23 44.5q-19 13 -45.5 17t-57.5 4q-63 0 -100 -19.5
t-56 -63.5t-29 -118q-10 -67 -3.5 -106t25.5 -57.5t48.5 -23.5t65.5 -5t70 6.5t57.5 24.5t27.5 53q3 21 1 36.5t-16 24t-47 8.5h-33l-7 -51h-39z" />
    <glyph glyph-name="tsalu" unicode="&#x13b7;" horiz-adv-x="528" 
d="M436 460h36q17 0 23 -7.5t3 -29.5l-54 -382q-4 -28 -13 -34.5t-28 -6.5h-15l57 407l-208 -407h-25l-102 408l-57 -408h-39q2 2 3 8.5t2 13.5l56 401q3 22 11 29.5t24 7.5h37l5.5 -22l14.5 -58t19.5 -79.5t21 -86.5t19 -78.5t12.5 -55.5z" />
    <glyph glyph-name="tsalv" unicode="&#x13b8;" horiz-adv-x="385" 
d="M45 275h122l42 -78h68l16 115q5 35 2 60.5t-22.5 39t-65.5 13.5q-55 0 -76.5 -21t-27.5 -62h-49q10 70 50 97t110 27q51 0 83.5 -12t45 -44t3.5 -93l-45 -317h-52l22 158h-93l-40 78h-99z" />
    <glyph glyph-name="tsama" unicode="&#x13b9;" horiz-adv-x="577" 
d="M262 460h153l-6 -39h-57l-6 -46q8 -31 29 -38.5t52 3.5q43 16 69 18.5t39 -16.5q26 -33 18 -68t-53 -57l-24 -11l-10 24q19 7 32.5 23t1.5 42q-6 15 -24 16t-40 -7q-30 -10 -56 -13.5t-40 9.5q-7 6 -13 14.5t-11 15.5q-16 -16 -29.5 -27t-24.5 -22q30 -36 36.5 -84.5
t-0.5 -95.5q-6 -42 -29 -67t-52.5 -33.5t-57 -0.5t-43 33t-9.5 67q5 35 31 81.5t65 90.5q-21 18 -48 18q-33 0 -50.5 -12.5t-25 -32t-10.5 -41.5h-45q2 15 5.5 33.5t13.5 34.5q18 28 49.5 41t63.5 14q46 2 80 -21q11 9 21.5 18.5t22.5 18.5q7 5 18 18.5t12 23.5l5 36h-59z
M249 101q6 43 3 75.5t-25 66.5q-26 -31 -45 -66.5t-25 -75.5q-4 -33 7.5 -49t29.5 -16t34.5 16.5t20.5 48.5z" />
    <glyph glyph-name="tsame" unicode="&#x13ba;" horiz-adv-x="540" 
d="M425 0l28 202h-62q-13 -79 -38.5 -124t-67.5 -64t-107 -19q-67 0 -105 19t-49 70.5t3 148.5q12 88 37 138t69 71t111 21q66 0 103.5 -18t49.5 -66t1 -138h61l30 219h24q19 0 21 -8t0 -23l-60 -429h-49zM182 32q58 0 90 20.5t48 63.5t25 108q10 70 6.5 114.5t-29 66
t-82.5 21.5q-58 0 -90 -20.5t-48 -63t-25 -108.5q-10 -70 -6.5 -114.5t29.5 -65.5t83 -21z" />
    <glyph glyph-name="tsami" unicode="&#x13bb;" horiz-adv-x="445" 
d="M328 0l31 221h-275q-2 -13 -6 -43.5t-9 -67t-9 -67t-6 -43.5h-53l57 409q3 20 11.5 35.5t27.5 15.5h21q-1 -13 -5 -40.5t-9 -59.5t-9 -59.5t-6 -40.5h275l28 200h52l-57 -410q-3 -20 -11 -35t-27 -15h-21z" />
    <glyph glyph-name="tsamo" unicode="&#x13bc;" horiz-adv-x="353" 
d="M139 460h153l-6 -39h-57l-9 -67q57 -4 82 -24.5t28.5 -59t-5.5 -99.5t-24 -97t-38.5 -53t-55.5 -22t-74 -5q-47 0 -79 4.5t-46 25.5t-8 69q6 44 26 63.5t81 19.5l-5 -34q-32 0 -43.5 -12t-15.5 -36q-4 -33 6 -46t33 -15.5t56 -2.5q35 0 62 8t46 38t28 97q10 65 4.5 95.5
t-30.5 39.5t-76 9q-22 0 -48.5 -5.5t-36.5 -10.5l-2 38q8 5 36.5 11t57.5 6h4l9 65h-59z" />
    <glyph glyph-name="tsamu" unicode="&#x13bd;" horiz-adv-x="452" 
d="M14 178h143l-6 -39h-55l-9 -65q-3 -23 5 -29.5t33 -6.5q12 0 25 9t25 31l72 131l-25 -10q-17 -7 -28.5 8t-20.5 44l-58 209h56l56 -209q3 -11 14.5 -14.5t18.5 -3.5l93 188h-45l6 39h153l-6 -39h-59l-109 -212q-37 -74 -63 -120.5t-48 -69.5q-14 -16 -34.5 -19.5
t-35.5 -3.5q-39 0 -52.5 9t-12.5 29.5t5 53.5l7 51h-51z" />
    <glyph glyph-name="tsana" unicode="&#x13be;" horiz-adv-x="420" 
d="M178 -5q-67 0 -105 19t-49 70.5t3 148.5q12 88 37 138t69 71t111 21q68 0 105.5 -19t48.5 -70.5t-3 -148.5q-12 -88 -37 -138t-68.5 -71t-111.5 -21zM182 32q58 0 90 20.5t48 62.5t25 106h-270q-9 -65 -4.5 -107t31 -61.5t81.5 -19.5zM240 426q-54 0 -85.5 -18t-48 -54.5
t-26.5 -93.5h269q9 86 -11.5 125.5t-97.5 40.5z" />
    <glyph glyph-name="tsahna" unicode="&#x13bf;" horiz-adv-x="394" 
d="M234 178h143l-5 -39h-43l-17 -121q-7 -49 -29.5 -79.5t-70.5 -30.5q-14 0 -36.5 1.5t-27.5 2.5l5 38q5 -2 17 -3t18 -1q60 0 69 59l2 15q-4 -13 -28 -18t-53.5 -5h-52.5q-34 0 -46 20t-10.5 51.5t6.5 66.5l32 227h-45l5 38h45q0 1 2.5 16.5l5 31t2.5 16.5q3 20 12 30.5
t28 10.5h20q-1 -2 -3 -11t-3 -17t-1 -9l-10 -68h103l-5 -38h-103l-36 -255q-5 -40 3 -56.5t42 -16.5q17 0 39 2.5t39 9.5t18 19l11 74h-47z" />
    <glyph glyph-name="tsanah" unicode="&#x13c0;" horiz-adv-x="455" 
d="M206 -8q-73 0 -118 17t-60.5 67t-2.5 147q13 88 41 140.5t79 76.5t133 24q41 0 79 -8t61 -33.5t17 -76.5h-47q-1 19 -6 34.5t-18 24.5q-19 13 -45.5 17t-57.5 4q-63 0 -100 -19.5t-56 -63.5t-29 -118q-10 -67 -3 -107t26.5 -60t49.5 -26t66 -6q24 0 54.5 4t56 13.5
t34.5 23.5l17 119h-110l5 36h152l-22 -158q-4 -28 -34.5 -43.5t-74 -22t-87.5 -6.5z" />
    <glyph glyph-name="tsane" unicode="&#x13c1;" horiz-adv-x="512" 
d="M415 0l-79 374q-5 25 -13 38.5t-32 13.5q-29 0 -40.5 -27.5t-21.5 -98.5l-21 -145q-10 -71 -25.5 -104.5t-41 -43t-65.5 -9.5t-57.5 11.5t-20 35t2.5 60.5h36q-4 -32 5 -49t37 -17q35 0 50.5 21.5t23.5 77.5l23 162q8 54 16.5 90.5t31 55t72.5 18.5q35 0 53 -6
t27.5 -25.5t17.5 -58.5l78 -374h-57z" />
    <glyph glyph-name="tsani" unicode="&#x13c2;" horiz-adv-x="385" 
d="M67 0q-22 0 -36.5 4.5t-10.5 31.5l59 423h53l-27 -195l15.5 3.5t41 7.5t54.5 4q68 0 95 -15.5t29.5 -51.5t-6.5 -98l-9 -62q-4 -28 -13 -40.5t-33 -12.5h-14l19 139q7 49 -3 70t-31.5 26t-49.5 5q-22 0 -46 -3.5t-40 -7.5l-16 -4z" />
    <glyph glyph-name="tsano" unicode="&#x13c3;" horiz-adv-x="389" 
d="M56 37h26t68 0.5t92 0.5h98v-4q-2 -11 -7 -22.5t-20 -11.5h-323l5 37l17 19.5t44.5 51.5t61.5 71t69 79.5t65 75.5l51 59.5l27 31.5h-258l1 7q2 9 6 18t21 9h298q-4 -23 -24 -50t-50 -62z" />
    <glyph glyph-name="tsanu" unicode="&#x13c4;" horiz-adv-x="439" 
d="M205 303h-143l6 39h43l3 22q5 41 30 67t70 29q14 1 38 1.5t47 0.5t32 -2q46 -7 58 -33.5t4 -82.5l-44 -314q-2 -17 -11 -23.5t-28 -6.5h-20q1 3 2.5 11.5l3 17l1.5 8.5l12 89q-12 0 -33 -0.5t-43.5 -0.5h-40.5t-25 1q-44 4 -61.5 29.5t-11.5 66.5l1 6h-43l5 39h143
l-5 -39h-47l-1 -4q-4 -27 7.5 -44t55.5 -17h104l27 187q5 40 -8.5 56.5t-60.5 16.5q-42 0 -64 -7.5t-30.5 -21.5t-11.5 -32l-2 -20h47z" />
    <glyph glyph-name="tsanv" unicode="&#x13c5;" horiz-adv-x="708" 
d="M476 283q2 17 -5 19t-15 -1.5t-10 -4.5l-45 -27q-1 -10 -2.5 -21.5t-3.5 -22.5q-12 -88 -37 -138t-68.5 -71t-111.5 -21q-67 0 -105 19t-49 70.5t3 148.5q12 88 37 138t69 71t111 21q58 0 93.5 -13.5t51.5 -48t13 -99.5l59 42q30 22 46 13.5t13 -25.5l-4 -32
q-4 -28 2 -43.5t41 -15.5q27 0 38.5 16t15.5 43l10 68h15q14 0 15.5 -10t-4.5 -53q-7 -51 -25.5 -72.5t-69.5 -21.5q-52 0 -68.5 13.5t-9.5 58.5zM182 32q58 0 90 20.5t48 63.5t25 108q10 70 6.5 114.5t-29 66t-82.5 21.5q-58 0 -90 -20.5t-48 -63t-25 -108.5
q-10 -70 -6.5 -114.5t29.5 -65.5t83 -21z" />
    <glyph glyph-name="tsaqua" unicode="&#x13c6;" horiz-adv-x="496" 
d="M226 33h38.5h56.5t52 0.5t23 1.5l-5 -35h-391l5 35l169 -2l56 394l-171 -2l5 35h391l-5 -35q-1 1 -22 1.5t-51 0.5h-56.5h-38.5z" />
    <glyph glyph-name="tsaque" unicode="&#x13c7;" horiz-adv-x="578" 
d="M95 215l-6.5 -28t-11.5 -60q-7 -47 11.5 -70.5t74.5 -23.5q33 0 49 13t23 39.5t12 67.5h44q-5 -41 -5.5 -67.5t12 -39.5t45.5 -13q23 0 44.5 5t40.5 23.5t34.5 59t25.5 112.5t2 111t-28.5 55.5t-48 20t-57.5 3.5q-61 0 -99 -32t-54 -112h-41l3 21q11 76 65 119.5
t133 43.5q36 0 72 -4t63 -24t38.5 -66.5t-0.5 -131.5q-11 -79 -31 -135t-64.5 -83.5t-128.5 -24.5q-18 1 -40 7.5t-32 28.5q-17 -16 -42 -26t-56 -10q-61 0 -92.5 31t-22.5 98q5 35 11.5 63.5l6.5 28.5h50z" />
    <glyph glyph-name="tsaqui" unicode="&#x13c8;" horiz-adv-x="518" 
d="M136 464q42 0 71.5 -20.5t54.5 -71.5q42 51 81 71.5t78 20.5q50 0 74 -23t16 -78q-10 -66 -46 -88t-107 -22l5 34q38 0 66 15.5t34 57.5q6 28 -4 47.5t-42 19.5q-39 0 -73.5 -32.5t-61.5 -70.5q8 -19 15.5 -42.5t15.5 -49.5q11 -37 17 -77t0 -80q-4 -27 -17.5 -46
t-34.5 -25q-28 -8 -66 -8.5t-66 6.5q-21 6 -31.5 24.5t-6.5 48.5q6 40 22.5 80t38.5 77q15 26 29 48.5t27 41.5q-47 101 -92 101q-21 0 -35 -11.5t-17 -31.5q-1 -7 -2 -19.5t-3 -22.5h-45l8 57q6 44 34 56.5t63 12.5zM273 183q-6 24 -13 46t-14 41q-24 -39 -51 -87
q-16 -31 -25 -54.5t-11 -39.5q-7 -52 57 -52q33 0 48.5 14t18.5 38q2 16 0.5 39.5t-10.5 54.5z" />
    <glyph glyph-name="tsaquo" unicode="&#x13c9;" horiz-adv-x="642" 
d="M80 417l-4 -31q-4 -26 26 -26q21 0 33 14.5t20 37.5t16 48h44l26 -159l35 -224l113 259h-2q-35 0 -43 14t-3 49t16.5 48t45.5 13h86l-39 -90h14q30 0 33 16q3 20 15.5 31t58.5 12q47 1 61 -13.5t8 -60.5q-4 -32 -17.5 -54.5t-56.5 -22.5l5 34q9 0 13.5 8.5t6.5 19t3 15.5
q3 25 -4 32t-24 7t-24.5 -5.5t-9.5 -22.5q-2 -14 -15 -22t-47 -8h-35l-148 -336h-48l-63 399q-14 -39 -29 -57t-50 -18q-40 0 -51 13.5t-7 38.5l5 41h36zM380 399q-1 -11 -0.5 -20t12.5 -9h12l25 56h-30q-6 0 -11.5 -4t-7.5 -23z" />
    <glyph glyph-name="tsaquu" unicode="&#x13ca;" horiz-adv-x="649" 
d="M308 124q-4 -47 10 -69t57 -22q23 0 44.5 5t40.5 23.5t34.5 59t25.5 112.5t3.5 111.5t-25.5 56.5t-45.5 20.5t-56.5 3.5q-67 0 -106 -33t-55 -113h-41l3 21q11 76 65 119.5t133 43.5q36 0 72 -4t63 -24t38.5 -66.5t-0.5 -131.5q-11 -79 -31 -135t-64.5 -83.5
t-128.5 -24.5q-19 1 -43 9.5t-31 36.5q-19 -22 -45.5 -34t-61.5 -12q-75 0 -99.5 31t-15.5 98q5 35 14 68.5t14 43.5h49q-5 -13 -13.5 -44.5t-13.5 -63.5q-7 -47 6 -71.5t69 -24.5q50 0 68.5 30.5t26.5 91.5l1 6q6 44 32.5 64t66.5 20q79 0 70 -67l-4 -23h-37q5 31 0.5 44.5
t-33.5 13.5q-28 0 -37.5 -13.5t-14.5 -44.5z" />
    <glyph glyph-name="tsaquv" unicode="&#x13cb;" horiz-adv-x="407" 
d="M167 33q53 0 80.5 5.5t38.5 18t14 33.5l7 52h42l-8 -55q-8 -57 -53.5 -75t-111.5 -18q-60 0 -95 10.5t-47.5 39.5t-4.5 86q6 44 31 72.5t53 30.5q-34 2 -43 32t-2 74q7 48 23.5 75t51 38t93.5 11q34 0 61.5 -3t57.5 -9q14 -3 15 -11t-1 -22l-1 -8q-25 9 -63.5 13t-76.5 4
q-46 0 -76 -16t-38 -75q-7 -46 8 -64t64 -18h40l-6 -40h-39q-34 0 -54.5 -5.5t-31 -24t-16.5 -57.5q-8 -55 16.5 -73.5t71.5 -20.5z" />
    <glyph glyph-name="tsasa" unicode="&#x13cc;" horiz-adv-x="413" 
d="M397 464l-37 -259q-7 -55 -16 -94t-27 -63.5t-51.5 -36t-90.5 -11.5t-87.5 11.5t-41.5 37.5t-9 69t11 105l34 241h53l-31 -218h211l31 218h51zM181 38q43 0 67 10t37 41t21 93l3 24h-211l-5 -39q-10 -73 7 -101t81 -28z" />
    <glyph glyph-name="tsas" unicode="&#x13cd;" horiz-adv-x="690" 
d="M18 135q9 64 32.5 93.5t56.5 37.5t70 8q35 0 61.5 -7t41 -30t11.5 -70h75l10 68h-49l6 39h142l-6 -39h-46l-13 -92q-7 -49 2 -75.5t60 -26.5q31 0 53.5 15t38.5 56t26 119q9 62 4.5 97.5t-23.5 52t-54 21t-88 4.5q-52 0 -81.5 -6.5t-44 -26t-22.5 -59.5q-6 0 -18 1t-17 1
l7 48q5 32 33.5 49.5t68 24.5t75.5 7q50 0 93 -4t73.5 -22.5t43 -61.5t1.5 -122q-6 -40 -15.5 -81.5t-28 -77t-51 -57t-83.5 -21.5q-25 0 -52 7.5t-43.5 29.5t-10.5 64l4 26h-73q-10 -60 -32.5 -87t-54.5 -34.5t-69 -7.5q-38 0 -67 8t-42.5 37.5t-4.5 93.5zM238 135
q7 47 -1 69.5t-25.5 29.5t-42.5 7t-45.5 -6.5t-34.5 -29t-21 -70.5t0.5 -70.5t26.5 -29.5t44 -7t45 7t34 30t20 70z" />
    <glyph glyph-name="tsase" unicode="&#x13ce;" horiz-adv-x="371" 
d="M39 185l191 232q23 21 41.5 33.5t52.5 10.5q-1 -2 -3 -13t-3 -19l-32 -226h48l-5 -34h-48l-23 -169h-51l23 169h-194zM109 203h125l26 187z" />
    <glyph glyph-name="tsasi" unicode="&#x13cf;" horiz-adv-x="370" 
d="M131 460l-27 -193h95q47 0 77.5 -8t42 -39t1.5 -102q-8 -59 -29.5 -83.5t-58.5 -29.5t-91 -5h-126l64 460h52zM135 36q47 0 73 4t39 21.5t18 56.5q8 55 2 78t-24.5 27.5t-50.5 4.5h-93l-27 -192h63z" />
    <glyph glyph-name="tsaso" unicode="&#x13d0;" horiz-adv-x="439" 
d="M263 291q16 0 34 7q43 16 68.5 18.5t39.5 -16.5q26 -33 17.5 -68t-52.5 -57l-24 -11l-10 24q18 7 31.5 23t2.5 42q-6 15 -24 16t-40 -7q-13 -4 -25.5 -7.5t-23.5 -5.5l-35 -249h-52l31 224q-4 -1 -7.5 -1.5t-6.5 -2.5q-43 -16 -69 -18.5t-40 16.5q-25 33 -17 68t52 57
l24 11l10 -24q-18 -7 -31.5 -23t-2.5 -42q6 -15 24.5 -15.5t40.5 6.5q8 2 15.5 5t13.5 4l27 194h52z" />
    <glyph glyph-name="tsasu" unicode="&#x13d1;" horiz-adv-x="477" 
d="M30 115q7 44 33 96.5t56 98.5q-31 9 -46 30.5t-10 56.5q5 33 21 46t37.5 15t41.5 2q37 0 52 -9.5t15 -25t-10 -35t-23 -39.5l-6 -8q31 4 48.5 26t36.5 39q22 22 48 40t63 18q24 0 45 -4.5t33 -20t7 -48.5q-3 -25 -4 -37l-1 -12l-41 -2l1.5 13t4.5 38q4 22 -13.5 27.5
t-37.5 5.5q-25 0 -43.5 -13.5t-35.5 -30.5q-16 -15 -32 -33.5t-37.5 -32t-54.5 -13.5h-14q-27 -41 -50.5 -88t-30.5 -97q-7 -46 15 -64t62 -18q28 0 49.5 4t36 21.5t19.5 56.5q8 55 1.5 78t-25 27.5t-50.5 4.5l8 39q47 0 77.5 -8t42 -39t1.5 -102q-8 -59 -29.5 -83.5
t-55 -29.5t-80.5 -5q-46 0 -76.5 9t-42.5 33.5t-6 72.5zM103 397q-5 -40 40 -50q28 42 31.5 59t-5.5 20t-21 3q-9 0 -25 -3.5t-20 -28.5z" />
    <glyph glyph-name="tsasv" unicode="&#x13d2;" horiz-adv-x="433" 
d="M223 277h53l12 -34q17 3 39 22t27 55q8 53 -9.5 72t-66.5 24q-9 1 -33.5 1.5t-52 -0.5t-47.5 -3l-58 -414h-52l56 402q5 29 19 41.5t45 13.5q33 2 54 2.5t38.5 0t40.5 -1.5q58 -2 85 -15t33 -42t-1 -79q-7 -55 -38.5 -80t-69.5 -30l70 -212h-54z" />
    <glyph glyph-name="tsada" unicode="&#x13d3;" horiz-adv-x="294" 
d="M245 105q-5 -37 -14 -60.5t-28 -35t-57 -11.5q-48 0 -71.5 10t-28.5 39t2 84l40 280q4 31 8 40t26 9h25l-48 -346q-5 -35 5 -55t44 -20q29 0 43 17t18 49h36z" />
    <glyph glyph-name="tsata" unicode="&#x13d4;" horiz-adv-x="570" 
d="M295 324l63 136h51l-99 -212l32 -171l177 383h51l-215 -460h-53l-30 167l-78 -167h-53l-83 460h51l72 -383l77 166l-39 217h51z" />
    <glyph glyph-name="tsade" unicode="&#x13d5;" horiz-adv-x="529" 
d="M357 354q6 43 -15 56.5t-68 13.5q-36 0 -68.5 -4t-55 -19t-27.5 -49q-4 -32 21.5 -50.5t58.5 -29.5l41 -14h230l-5 -39h-118q25 -12 40.5 -34t8.5 -72q-7 -48 -34 -72.5t-71 -33.5t-101 -11q-40 -1 -80.5 3.5t-58.5 9.5q-16 5 -22.5 17.5t-2.5 40.5q31 -15 76.5 -23.5
t92.5 -8.5q18 0 42 2.5t47.5 10t40.5 23.5t21 44q3 24 -14.5 44.5t-43.5 29.5l-137 50q-44 17 -66 42t-16 70q6 41 26 63.5t50 32.5t65 12.5t70 2.5q30 0 60 -5t49 -21.5t14 -50.5q-3 -16 -6 -24h88l-6 -39h-131z" />
    <glyph glyph-name="tsate" unicode="&#x13d6;" horiz-adv-x="414" 
d="M50 460h139l-43 -310q-7 -51 -5 -75t15 -31.5t37 -7.5q47 0 73 4t39 21.5t18 56.5q8 55 2 78t-24.5 27.5t-50.5 4.5h-62l3 39h66q47 0 77.5 -8t42 -39t1.5 -102q-8 -59 -29.5 -83.5t-58.5 -29.5t-91 -5q-47 0 -72.5 5.5t-34.5 22.5t-6.5 51.5t11.5 93.5l35 248h-87z" />
    <glyph glyph-name="tsa_di" unicode="&#x13d7;" horiz-adv-x="501" 
d="M83 105l-3 -19q-1 -10 -1.5 -21.5t5 -19.5t22.5 -8h34q34 0 57.5 27.5t39.5 55.5l82 158l26 182h13q22 0 29 -9t4 -28l-59 -423h-52l24 169q-13 -22 -23 -40t-15 -26q-15 -25 -32.5 -49.5t-41 -40.5t-57.5 -16h-35q-37 0 -50 15t-12.5 35.5t2.5 38.5l3 19h40z" />
    <glyph glyph-name="tsati" unicode="&#x13d8;" horiz-adv-x="364" 
d="M53 105l-3 -19q-1 -10 -1.5 -21.5t5 -19.5t22.5 -8h34q34 0 57.5 27.5t39.5 55.5l82 158l20 142h-221l6 40h234q22 0 28.5 -13t3.5 -32l-58 -415h-52l24 169q-13 -22 -23 -40t-15 -26q-15 -25 -32.5 -49.5t-41 -40.5t-57.5 -16h-35q-37 0 -50 15t-12.5 35.5t2.5 38.5
l3 19h40z" />
    <glyph glyph-name="tsado" unicode="&#x13d9;" horiz-adv-x="407" 
d="M200 77l192 383h49l-233 -460h-45l-100 460h50z" />
    <glyph glyph-name="tsadu" unicode="&#x13da;" horiz-adv-x="455" 
d="M199 35q18 0 42 2.5t47.5 10t40.5 23.5t21 44q3 24 -14.5 44.5t-43.5 29.5l-137 50q-44 17 -66 42t-16 70q6 41 26 63.5t50 32.5t65 12.5t70 2.5q23 0 49 -2t50 -6.5t38.5 -12t12.5 -17.5l-4 -33q-8 6 -33.5 14t-58.5 13.5t-64 5.5q-36 0 -68.5 -4t-55 -19t-27.5 -49
q-4 -32 21.5 -50.5t58.5 -29.5l110 -37q26 -11 48 -21.5t33.5 -32.5t5.5 -68q-7 -48 -34 -72.5t-71 -33.5t-101 -11q-40 -1 -80.5 3.5t-58.5 9.5q-16 5 -22.5 17.5t-2.5 40.5q31 -15 76.5 -23.5t92.5 -8.5z" />
    <glyph glyph-name="tsadv" unicode="&#x13db;" horiz-adv-x="593" 
d="M326 316l5 36q3 28 -7 46.5t-39 18.5q-25 0 -38.5 -3.5t-23 -13t-22.5 -28.5q8 -24 15 -50.5t14 -57.5q11 -43 14.5 -96t-1.5 -93q-4 -27 -17.5 -46t-34.5 -25q-29 -8 -67 -8.5t-66 6.5q-21 6 -31 24.5t-6 48.5q5 40 24 93t41 96q20 39 39 70t36 57q21 32 39 46.5
t39.5 18.5t50.5 4q66 0 85 -51q13 21 38 34t70 13q50 0 72 -16t26 -49q3 -18 0.5 -39.5t-4.5 -35.5q-2 -11 -7.5 -25.5t-15.5 -25t-27 -10.5h-30l4 26q10 -1 20.5 9t15.5 44q5 32 -8 57t-54 25t-67.5 -22t-34.5 -78h-47zM189 207q-6 29 -12 54.5t-13 47.5q-13 -22 -26 -47.5
t-27 -54.5q-18 -37 -27.5 -69.5t-11.5 -48.5q-7 -52 56 -52q33 0 48.5 14t19.5 38q2 16 1.5 48.5t-8.5 69.5z" />
    <glyph glyph-name="tsadla" unicode="&#x13dc;" horiz-adv-x="519" 
d="M317 283q8 -10 22 -23t29 -27q11 -12 29 -27t35.5 -32.5t28 -36.5t7.5 -39q-3 -21 -9 -43.5t-28 -37.5t-74 -15q-39 0 -58 9t-25.5 23t-5 31t3.5 33q5 29 25 58t38 49l-32.5 32.5t-23.5 25.5q-13 -12 -31 -25.5t-36 -27.5l-12 -9q11 -20 22.5 -47.5t7.5 -55.5
q-3 -21 -9 -43.5t-28 -37.5t-74 -15q-39 0 -58 9t-25.5 23t-5 31t3.5 33q3 21 20 40t41.5 37t50 34t44.5 31q19 14 34 25t24 18q-1 2 -3.5 4.5t-4.5 5.5q-13 16 -28 41t-12 50q3 18 8.5 36t27.5 30t73 12q39 0 58.5 -7t26 -18.5t5.5 -25.5t-3 -27q-3 -25 -25 -50t-39 -41z
M422 93q3 16 -8 31.5t-26.5 29t-26.5 24.5q-14 -16 -30 -38.5t-19 -41.5q-1 -12 0 -26.5t13 -24.5t42 -10q24 0 35 9t15 22t5 25zM190 98q3 18 -6.5 40t-19.5 38q-28 -20 -55.5 -43t-30.5 -40q-1 -12 -1 -25t9 -22t33 -9q31 0 45.5 10t19.5 24.5t6 26.5zM285 297q6 5 11 9.5
t6 5.5q14 14 33 35t21 37q2 10 1.5 20.5t-11 17.5t-41.5 7q-30 0 -43.5 -7t-16.5 -17.5t-5 -20.5q-2 -17 11 -37.5t23 -34.5z" />
    <glyph glyph-name="tsatla" unicode="&#x13dd;" horiz-adv-x="335" 
d="M242 355q6 41 -9.5 54t-48.5 12t-52 -17.5t-25 -57.5l-43 -306h213l-5 -40h-238q-22 0 -24 9t2 40l40 280q11 76 44 104.5t91 28.5q65 0 89 -25.5t16 -81.5h-50z" />
    <glyph glyph-name="tsatle" unicode="&#x13de;" horiz-adv-x="327" 
d="M128 459l-59 -419h213l-5 -40h-238q-22 0 -23.5 9t2.5 40l57 410h53z" />
    <glyph glyph-name="tsatli" unicode="&#x13df;" horiz-adv-x="492" 
d="M475 460l-23 -158h-42l5 30q2 20 -1.5 39.5t-23.5 33.5q-19 13 -45.5 17t-57.5 4q-63 0 -100 -19.5t-56 -63.5t-29 -118q-9 -66 -4.5 -110t36 -66t101.5 -22q27 0 65 6t73.5 20t53.5 38l-6 -42q-24 -27 -77 -42t-112 -15q-73 0 -118 17t-60.5 67t-2.5 147q13 88 41 140.5
t79 76.5t133 24q95 0 124 -35l5 31h42z" />
    <glyph glyph-name="tsatlo" unicode="&#x13e0;" horiz-adv-x="497" 
d="M102 159q-29 0 -50 5.5t-30 24t-4 57.5q5 37 20.5 54t39.5 22.5t53 5.5q28 0 49.5 -5.5t32 -23t5.5 -53.5l-7 -47h137l37 261h51l-37 -259v-2h73l-6 -40h-73q-8 -57 -21 -93t-40 -53t-80 -17q-45 0 -67.5 11t-29.5 32.5t-4 51.5t8 68h-57zM258 34q33 0 48 9t22 36t14 80
h-137q-6 -47 -6.5 -74.5t12.5 -39t47 -11.5zM61 251q-4 -35 9.5 -43t38.5 -8q15 0 31 -0.5t25 -0.5l7 52q5 32 -8 40t-38 8q-24 0 -42 -8t-23 -40z" />
    <glyph glyph-name="tsatlu" unicode="&#x13e1;" horiz-adv-x="577" 
d="M30 344h62l7 51q6 44 34 56.5t63 12.5q42 0 71.5 -20.5t54.5 -71.5q42 51 81 71.5t78 20.5q50 0 74 -23t16 -78q-10 -66 -46 -88t-107 -22l5 34q38 0 66 15.5t34 57.5q6 28 -4 47.5t-42 19.5q-39 0 -73.5 -32.5t-61.5 -70.5q8 -19 15.5 -42.5t15.5 -49.5q11 -37 17 -77
t0 -80q-4 -27 -17.5 -46t-34.5 -25q-28 -8 -66 -8.5t-66 6.5q-21 6 -31.5 24.5t-6.5 48.5q6 40 22.5 80t38.5 77q15 26 29 48.5t27 41.5q-47 101 -92 101q-21 0 -35 -11.5t-17 -31.5q-1 -7 -1.5 -17t-2.5 -19h64l-6 -40h-171zM333 183q-6 24 -13 46t-14 41q-24 -39 -51 -87
q-16 -31 -25 -54.5t-11 -39.5q-7 -52 57 -52q33 0 48.5 14t18.5 38q2 16 0.5 39.5t-10.5 54.5z" />
    <glyph glyph-name="tsatlv" unicode="&#x13e2;" horiz-adv-x="423" 
d="M283 190q-23 -2 -54 -2.5t-62 0t-54 1.5l-26 -189h-52l56 402q5 33 18 43t38 12q12 1 36.5 2t53 1t55 -0.5t43.5 -1.5q38 -2 54.5 -17.5t18.5 -44.5t-4 -73q-9 -64 -34 -95.5t-87 -37.5zM119 232h136q45 0 67.5 18.5t29.5 71.5q8 53 0.5 72t-34.5 22q-24 2 -53.5 2
t-57 -0.5t-45 -1l-17.5 -0.5z" />
    <glyph glyph-name="tsatsa" unicode="&#x13e3;" horiz-adv-x="477" 
d="M485 315h-139l5 35h58q2 13 -1.5 29t-17.5 26q-19 13 -45.5 17t-57.5 4q-63 0 -100 -19.5t-56 -63.5t-29 -118q-9 -66 -4.5 -110t36 -66t101.5 -22q27 0 65 6t73.5 20t53.5 38l-6 -42q-24 -27 -77 -42t-112 -15q-73 0 -118 17t-60.5 67t-2.5 147q13 88 41 140.5t79 76.5
t133 24q85 0 119.5 -26.5t28.5 -87.5h38z" />
    <glyph glyph-name="tsatse" unicode="&#x13e4;" horiz-adv-x="420" 
d="M139 86l247 374h49l-308 -460h-53l59 425h-86l5 35h139z" />
    <glyph glyph-name="tsatsi" unicode="&#x13e5;" horiz-adv-x="447" 
d="M363 320q-24 0 -53 -21q-7 -5 -16.5 -11.5t-26.5 -19.5q37 -10 51.5 -33t14.5 -62.5t-9 -101.5l-2 -21q-3 -25 -7.5 -35.5t-13.5 -12.5t-27 -2h-12l16 115q7 51 -6 79.5t-51 38.5l-138 -105l-18 -128h-53l64 462q7 43 40 43h21q-1 -3 -3.5 -17t-4.5 -27l-2 -13l-37 -268
l203 155q23 16 42 24t41 8q35 0 50.5 -15.5t9.5 -59.5l-6 -43h-45l3 28q3 20 -1.5 31.5t-23.5 11.5z" />
    <glyph glyph-name="tsatso" unicode="&#x13e6;" horiz-adv-x="378" 
d="M113 247q12 6 30 24l165 168q23 23 43 24.5t36 -3.5l-225 -223l167 -237q-8 -4 -20 -4q-24 0 -37.5 6t-24 20t-25.5 36l-79 119q-8 11 -16 20t-19 9l-29 -206h-52l57 409q3 20 10.5 35.5t30.5 15.5h18z" />
    <glyph glyph-name="tsatsu" unicode="&#x13e7;" horiz-adv-x="358" 
d="M13 118q10 71 30.5 102t53.5 39t79 8h95l27 193h52l-40 -287q-8 -59 -15 -93.5t-20.5 -51.5t-40.5 -22.5t-74 -5.5q-54 0 -89.5 5t-50.5 29.5t-7 83.5zM176 36q24 0 38.5 7.5t24 31.5t16.5 75l11 78h-93q-31 0 -51.5 -4.5t-33 -27.5t-20.5 -78q-6 -39 2.5 -56.5t34 -21.5
t71.5 -4z" />
    <glyph glyph-name="tsatsv" unicode="&#x13e8;" horiz-adv-x="617" 
d="M396 332q2 20 -1.5 39.5t-23.5 33.5q-19 13 -45.5 17t-57.5 4q-63 0 -100 -19.5t-56 -63.5t-29 -118t-3.5 -117t38 -61t94.5 -18q31 0 59 4t50 17q25 14 34 33.5t11 39.5l6 38l74 -45l66 48l68 -57l-30 -30l-8 7t-18.5 17t-19.5 18l-66 -48l-38 28q-15 -61 -57.5 -84.5
t-123.5 -23.5q-82 0 -127 21.5t-58.5 72.5t-1.5 138q13 88 41 140.5t79 76.5t133 24q81 0 117 -23.5t34 -84.5l46 28l52 -48q11 8 24.5 18t23.5 17l10 7l22 -30l-84 -57l-52 48l-88 -45z" />
    <glyph glyph-name="tsawa" unicode="&#x13e9;" horiz-adv-x="603" 
d="M305 198h171l-6 -40h-55l-6 -43q-6 -41 6 -60t53 -19t53.5 13t14.5 32h30l-1 -12q-6 -39 -24.5 -52t-35.5 -15q-10 -1 -27.5 -1.5t-34.5 1t-27 4.5q-23 7 -33 25q-26 -22 -76 -30.5t-101 -8.5q-73 0 -118 17t-60.5 67t-2.5 147q13 88 41 140.5t79 76.5t133 24q41 0 79 -8
t61 -33.5t17 -76.5h-47q-1 19 -6 34.5t-18 24.5q-19 13 -45.5 17t-57.5 4q-63 0 -100 -19.5t-56 -63.5t-29 -118q-10 -67 -3 -107t26.5 -60t49.5 -26t66 -6q24 0 54.5 4t56 13.5t34.5 23.5l13 91h-74z" />
    <glyph glyph-name="tsawe" unicode="&#x13ea;" horiz-adv-x="682" 
d="M657 381q-4 -31 -21.5 -74.5t-43.5 -92.5t-58 -95.5t-67 -82.5q-23 -25 -43 -31t-60 -5q-26 1 -42.5 1.5t-28.5 5.5t-25 20q-9 10 -17.5 22t-15.5 26q-36 -37 -74 -60t-76 -23q-49 0 -73 23t-17 78q10 66 46 88t107 22l-5 -34q-37 0 -65.5 -15.5t-34.5 -57.5
q-6 -28 4 -47.5t42 -19.5q30 0 63.5 23t64.5 59q-18 43 -29 91.5t-14 95.5t2 83q4 27 17.5 46t34.5 25q29 8 66.5 9t65.5 -7q21 -6 31.5 -24.5t6.5 -48.5q-5 -36 -22.5 -81.5t-44 -92.5t-59.5 -89q10 -24 25 -46q14 -19 30 -24.5t43 -6.5t40 4t28 21q26 28 53.5 68.5
t50.5 83.5q-49 19 -73.5 47.5t-30.5 59.5t-3 56q4 27 17.5 46t34.5 25q29 8 66.5 9t65.5 -7q21 -6 31.5 -24.5t6.5 -48.5zM223 367q-5 -37 4 -95t28 -112q35 51 60 107.5t32 99.5q7 52 -57 52q-33 0 -48.5 -14t-18.5 -38zM482 367q-1 -10 5.5 -30t25.5 -40.5t53 -32.5
q16 32 27 59.5t13 43.5q7 52 -57 52q-33 0 -48.5 -14t-18.5 -38z" />
    <glyph glyph-name="tsawi" unicode="&#x13eb;" horiz-adv-x="425" 
d="M178 -5q-67 0 -105 19t-49 70.5t3 148.5q12 88 37 138t69 71t111 21q68 0 105.5 -19t48.5 -70.5t-3 -148.5q-12 -88 -37 -138t-68.5 -71t-111.5 -21zM182 32q73 0 105.5 33t47.5 101h-35q-48 0 -75.5 18.5t-36.5 38.5q-6 15 -25.5 28.5t-41.5 13.5h-40l-4 -31
q-10 -70 -6.5 -114.5t29.5 -65.5t83 -21zM240 426q-70 0 -102.5 -29.5t-47.5 -91.5h35q48 0 71.5 -15.5t33.5 -35.5q8 -18 25.5 -33t44.5 -15h43l2 18q10 70 6.5 114.5t-29 66t-82.5 21.5z" />
    <glyph glyph-name="tsawo" unicode="&#x13ec;" horiz-adv-x="539" 
d="M255 255q-3 -24 -26 -44.5t-54.5 -36.5t-62 -26.5t-49.5 -14.5q0 -33 11.5 -54.5t41 -31.5t83.5 -10h108q32 0 64 17.5t57 57t34 105.5l7 52q11 82 -0.5 119.5t-55.5 37.5q-26 0 -49 -8.5t-37.5 -17.5t-17.5 -13l5 40q5 8 15 17t31 15.5t59 6.5q57 0 81 -17t25.5 -59.5
t-9.5 -120.5l-7 -52q-12 -89 -41.5 -136t-71.5 -64t-94 -17h-108q-79 0 -120.5 14.5t-53 53.5t-1.5 112l15 107q7 50 29.5 74.5t50.5 32.5t51 8q24 0 49 -5t40.5 -22t10.5 -53zM66 174q16 4 39 12.5t45.5 21t38.5 28.5t19 34l8 52q3 26 -15.5 33t-41.5 7q-15 0 -31.5 -5
t-28.5 -21t-17 -49l-13 -88z" />
    <glyph glyph-name="tsawu" unicode="&#x13ed;" horiz-adv-x="407" 
d="M89 29q30 0 63.5 23t64.5 59q-18 43 -29 91.5t-14 95.5t2 83q4 27 17.5 46t34.5 25q29 8 66.5 9t65.5 -7q21 -6 31.5 -24.5t6.5 -48.5q-6 -40 -26.5 -91t-52 -103.5t-70.5 -96.5t-81 -71t-83 -27q-49 0 -74 19.5t-18 64.5q8 55 43.5 73t106.5 18l-4 -28
q-37 0 -65.5 -12.5t-33.5 -47.5q-4 -23 6.5 -36.5t42.5 -13.5zM223 367q-5 -37 4 -94.5t28 -112.5q35 51 60 107.5t32 99.5q7 52 -57 52q-33 0 -48.5 -14t-18.5 -38z" />
    <glyph glyph-name="tsawv" unicode="&#x13ee;" horiz-adv-x="380" 
d="M349 454q27 -8 15 -45q-21 5 -64 9.5t-94 3.5q-37 -1 -58 -17t-34 -60q-4 -19 -8.5 -44.5t-6.5 -37.5q22 6 59.5 11t74.5 3q23 0 44.5 -3t38.5 -15t24 -37.5t1 -71.5q-9 -63 -28 -96.5t-55 -46t-97 -12.5q-53 0 -82.5 8t-40.5 31.5t-8.5 68.5t12.5 118q12 87 25 136
t33 71t53 28q28 6 65.5 6.5t73.5 -1.5t57 -7zM94 228q-4 -31 -8 -57t-6 -47q-2 -40 6 -60t28 -26.5t52 -6.5q31 0 56 7t43 30t24 70q8 55 -3.5 75t-40.5 24q-23 3 -51.5 1.5t-54.5 -4.5t-45 -6z" />
    <glyph glyph-name="tsaya" unicode="&#x13ef;" horiz-adv-x="575" 
d="M141 177l74 52l42 -48l61 48l42 -48q15 12 32.5 27l17.5 15l18 -30l-72 -57l-43 47l-27 -21l-4 -29q-7 -51 1 -75.5t53 -24.5q23 0 44.5 5t40.5 23.5t34.5 59t25.5 112.5t2 111t-28.5 55.5t-48 20t-57.5 3.5q-61 0 -99 -32t-54 -112h-41l3 21q11 76 65 119.5t133 43.5
q36 0 72 -4t63 -24t38.5 -66.5t-0.5 -131.5q-11 -79 -31 -135t-64.5 -83.5t-128.5 -24.5q-18 1 -40 7.5t-32 28.5q-17 -16 -42 -26t-56 -10q-61 0 -92.5 31t-22.5 98q5 35 11.5 63.5l6.5 28.5h50l-6.5 -28t-11.5 -60q-7 -47 11.5 -70.5t74.5 -23.5q43 0 58 22.5t22 68.5
l4 26l-30 34l-75 -45z" />
    <glyph glyph-name="tsaye" unicode="&#x13f0;" horiz-adv-x="452" 
d="M3 50l49 -6l93 358q8 29 17.5 40t29.5 14q17 2 38.5 4t61.5 2q60 0 92 -8t42 -34t2 -80q-2 -19 -11 -40.5t-21.5 -37t-27.5 -18.5q24 -3 34 -20.5t11 -42.5t-3 -52q-8 -60 -31 -89t-65 -38t-108 -9q-29 0 -61 1.5t-61 2.5l-11 -52h-47l13 55q-15 2 -30 3.5t-25 3.5z
M295 221q-16 2 -40 3.5t-48.5 3t-41 2.5l-16.5 1l-53 -191q5 -2 23.5 -3.5t43.5 -2t49 -0.5q33 0 63.5 2.5t53 22.5t29.5 70q5 38 -2.5 57t-23.5 26t-37 9zM161 274l142 -12q27 0 47 13t27 62q6 42 -0.5 59t-31 20.5t-72.5 3.5q-38 0 -55.5 -3t-24.5 -26z" />
    <glyph glyph-name="tsayi" unicode="&#x13f1;" horiz-adv-x="581" 
d="M327 460h172l-6 -39h-61l-10 -71q31 0 56 -5t41.5 -21.5t22.5 -49.5t-2 -89q-8 -61 -21 -97t-31 -55t-42 -28q-19 -7 -43.5 -8t-38.5 0q-23 2 -41.5 7.5t-28 22t-4.5 51.5q5 36 23.5 56.5t58.5 20.5q64 0 58 -43l-2 -11h-30q2 10 -2.5 17.5t-27.5 7.5q-19 0 -28.5 -11
t-13.5 -37q-7 -47 64 -47q23 0 41 12t31.5 44.5t22.5 94.5q7 49 4 75.5t-15 37t-33.5 12.5t-52.5 2q-40 0 -65.5 -10.5t-49.5 -49.5l-155 -249l-63 124h-50l6 40h78l36 -71l119 192q26 41 54 52.5t77 12.5l10 71h-64z" />
    <glyph glyph-name="tsayo" unicode="&#x13f2;" horiz-adv-x="359" 
d="M97 271q14 5 36.5 7.5t46.5 2.5q59 0 90.5 -13t41 -43.5t1.5 -83.5l-12 -89q-4 -28 -18 -40.5t-32 -12.5h-10l18 126q7 49 -1.5 74t-30.5 34t-55 9q-10 0 -27 -1.5t-32 -3.5t-21 -6q-10 -67 -17.5 -118.5t-16.5 -112.5q-11 0 -22.5 1.5t-18.5 9t-5 25.5l43 300
q8 57 27.5 84.5t50 36t71.5 8.5q63 0 88.5 -15.5t29 -42.5t-1.5 -61h-45q3 23 0.5 41.5t-17.5 29t-52 10.5q-51 0 -72 -23.5t-28 -70.5z" />
    <glyph glyph-name="tsayu" unicode="&#x13f3;" horiz-adv-x="624" 
d="M305 198h171l-6 -40h-55l-13 -94q-4 -28 -34.5 -43.5t-74 -22t-87.5 -6.5q-73 0 -118 17t-60.5 67t-2.5 147q13 88 41 140.5t79 76.5t133 24q34 0 66.5 -5.5t56.5 -21t31 -47.5l76 46l52 -48q11 8 24.5 18t23.5 17l10 7l22 -30l-84 -57l-52 48l-69 -45h-47q-1 19 -6 34.5
t-18 24.5q-19 13 -45.5 17t-57.5 4q-63 0 -100 -19.5t-56 -63.5t-29 -118q-10 -67 -3 -107t26.5 -60t49.5 -26t66 -6q24 0 54.5 4t56 13.5t34.5 23.5l13 91h-74z" />
    <glyph glyph-name="tsayv" unicode="&#x13f4;" horiz-adv-x="428" 
d="M62 402q4 29 17 41.5t33 13.5q29 2 60.5 3.5t59.5 1.5q73 0 111 -8t49 -34t3 -80q-3 -19 -11.5 -40.5t-21 -37t-28.5 -18.5q24 -3 34 -20.5t11 -42.5t-3 -52q-8 -60 -31 -89t-64.5 -38t-107.5 -9q-43 0 -90.5 2t-77.5 5zM273 217q-22 0 -56 0.5t-69 0.5h-60l-25 -178
q5 -2 23.5 -3.5t43.5 -2t49 -0.5q33 0 63.5 2.5t52.5 22.5t29 70q8 56 -5.5 72t-45.5 16zM94 262h176q27 0 46.5 13t26.5 62q6 42 -1.5 59t-37.5 20.5t-93 3.5q-22 0 -42.5 -1t-37.5 -3q-7 -1 -12 -5t-7 -20z" />
    <glyph glyph-name="Wgrave" unicode="&#x1e80;" horiz-adv-x="633" 
d="M137 0q-22 0 -35 6t-18 21t-5 43l2 390h18l-2 -385q0 -36 9.5 -46t40.5 -9h40l153 440h23l33 -440h42q25 0 38 9t19 34l106 397h20l-104 -385q-13 -46 -30 -60.5t-57 -14.5h-52l-29 393l-2 34l-13 -35l-135 -392h-62zM382 520l-87 65l21 20l81 -85h-15z" />
    <glyph glyph-name="wgrave" unicode="&#x1e81;" horiz-adv-x="632" 
d="M164 -2q-44 0 -72.5 7.5t-40 32.5t-4.5 78l37 257q2 16 5 21t13 5h7l-40 -288q-8 -58 15.5 -76.5t81.5 -18.5q61 0 90 19.5t34 54.5l42 309h23l-43 -309q-5 -35 18.5 -54.5t83.5 -19.5q58 0 87.5 18.5t37.5 76.5l39 288h7q11 0 12.5 -5t-0.5 -21l-37 -257
q-7 -52 -25.5 -77.5t-48.5 -33t-74 -7.5q-32 0 -59 6t-43 22.5t-17 46.5l10 1q-8 -29 -27.5 -46t-48 -23.5t-63.5 -6.5zM353 460l-87 84l20 19l83 -103h-16z" />
    <glyph glyph-name="Wacute" unicode="&#x1e82;" horiz-adv-x="633" 
d="M137 0q-22 0 -35 6t-18 21t-5 43l2 390h18l-2 -385q0 -36 9.5 -46t40.5 -9h40l153 440h23l33 -440h42q25 0 38 9t19 34l106 397h20l-104 -385q-13 -46 -30 -60.5t-57 -14.5h-52l-29 393l-2 34l-13 -35l-135 -392h-62zM346 521l106 84l14 -19l-105 -65h-15z" />
    </font>
</defs>
</svg>
