<?xml version="1.0" standalone="no"?>
<!DOCTYPE svg PUBLIC "-//W3C//DTD SVG 1.1//EN" "http://www.w3.org/Graphics/SVG/1.1/DTD/svg11.dtd" >
<svg xmlns="http://www.w3.org/2000/svg" xmlns:xlink="http://www.w3.org/1999/xlink" version="1.1">
<metadata>
Created by FontForge 20170731 at Fri Oct  8 07:58:22 2021
 By Aleksey,,,
Copyright 2011 The Genos Project Authors (https://github.com/googlefonts/genos)
</metadata>
<defs>
<font id="Genos-BoldItalic" horiz-adv-x="0" >
  <font-face 
    font-family="Genos"
    font-weight="700"
    font-style="italic"
    font-stretch="normal"
    units-per-em="1000"
    panose-1="0 0 0 0 0 0 0 0 0 0"
    ascent="800"
    descent="-200"
    x-height="399"
    cap-height="460"
    bbox="-179 -255 1198.66 811"
    underline-thickness="50"
    underline-position="-175"
    slope="-8"
    unicode-range="U+0020-FB06"
  />
<missing-glyph horiz-adv-x="326" 
 />
    <glyph glyph-name="fi" unicode="fi" horiz-adv-x="721" 
d="M48 352h36l5 39q7 46 30.5 78.5t80.5 35.5q37 2 79 1t79.5 -4t59.5 -5l-11 -78q-6 2 -21.5 3.5t-35.5 2.5t-37 1.5t-26 0.5q-28 0 -37.5 -12t-12.5 -34l-4 -29h253l-11 -78h-253l-38 -274h-103q-29 0 -36.5 10.5t-4.5 35.5l33 228h-37zM635 352q-7 -44 -11.5 -77
t-9 -65.5t-11.5 -77.5q-5 -40 -0.5 -59t37.5 -19q7 0 15.5 2t11.5 4l-7 -55q-7 -1 -28.5 -5t-56.5 -4q-49 0 -77 7t-40 19.5t-13.5 28.5t1.5 34t6 37q6 41 12 83l11.5 80.5l9.5 66.5h75h75zM515 467q4 29 25 36t48 6q28 0 44.5 -7t12.5 -35q-4 -30 -23.5 -36t-47.5 -6t-45 6
t-14 36z" />
    <glyph glyph-name="fl" unicode="fl" horiz-adv-x="694" 
d="M48 352h36l5 39q8 46 31.5 78.5t80.5 35.5q18 1 53 0.5t78.5 -2t89.5 -3.5t87.5 -4t72 -3.5t41.5 -2.5l-39 -75q-5 1 -26.5 2t-53 2.5t-66.5 3t-67 2.5t-54.5 1.5t-29.5 0.5q-27 0 -37 -12t-13 -34l-4 -29h165l-11 -78h-165l-38 -274h-102q-29 0 -36.5 10.5t-4.5 35.5
l32 228h-37zM471 436q4 23 9 34.5t17 15.5t36 4h97q-1 -2 -2.5 -11t-3.5 -20.5t-3.5 -21t-2.5 -11.5l-41 -294q-5 -40 -1.5 -59t35.5 -19q7 0 17 2t13 4l-7 -55q-7 -1 -28.5 -5t-56.5 -4q-56 0 -84 11t-37 29t-7 40.5t5 45.5z" />
    <glyph glyph-name="f_f" unicode="ff" horiz-adv-x="820" 
d="M48 352h36l5 39q6 46 30 78.5t81 35.5q37 2 79 1t79.5 -4t59.5 -5l-11 -78q-6 2 -21.5 3.5t-35.5 2.5t-37 1.5t-26 0.5q-28 0 -37.5 -12t-12.5 -34l-4 -29h267l-11 -78h-267l-38 -274h-103q-29 0 -36 10.5t-4 35.5l32 228h-37zM458 350l36 2l5 39q6 46 30 78.5t81 35.5
q37 2 79 1t79.5 -4t59.5 -5l-10 -78q-7 2 -22.5 3.5t-35 2.5t-37 1.5t-26.5 0.5q-28 0 -37.5 -12t-12.5 -34l-4 -29h165l-11 -78h-165l-38 -274h-103q-29 0 -36 10.5t-4 35.5l32 228l-36 2z" />
    <glyph glyph-name="f_f_i" unicode="ffi" horiz-adv-x="1131" 
d="M81 0q-29 0 -36 10.5t-4 35.5l32 228h-37l12 78h36l5 39q6 46 30 78.5t81 35.5q37 2 79 1t79.5 -4t59.5 -5l-11 -78q-6 2 -21.5 3.5t-35.5 2.5t-37 1.5t-26 0.5q-28 0 -37.5 -12t-12.5 -34l-4 -29h267l-11 -78h-267l-38 -274h-103zM491 0q-29 0 -36.5 10.5t-4.5 35.5
l33 228h-36l11 78h36l5 39q7 46 30.5 78.5t80.5 35.5q37 2 79 1t79.5 -4t59.5 -5l-10 -78q-7 2 -22.5 3.5t-35 2.5t-37 1.5t-26.5 0.5q-28 0 -37.5 -12t-12.5 -34l-4 -29h253l-11 -78h-253l-38 -274h-103zM985 -4q-49 0 -77 7t-40 19.5t-13.5 28.5t2 34t5.5 37q6 41 12 83
l11.5 80.5l9.5 66.5h75h75q-7 -43 -11 -76t-9 -66t-12 -78q-5 -40 -0.5 -59t37.5 -19q8 0 16.5 2t10.5 4l-7 -55q-7 -1 -28.5 -5t-56.5 -4zM984 425q-28 0 -45 6t-14 36q4 29 25 36t48 6q28 0 44.5 -7t12.5 -35q-4 -30 -23.5 -36t-47.5 -6z" />
    <glyph glyph-name="f_f_l" unicode="ffl" horiz-adv-x="1104" 
d="M48 352h36l5 39q8 46 31.5 78.5t80.5 35.5q37 2 78.5 1t79 -4t60.5 -5l-11 -78q-6 2 -22 3.5t-35.5 2.5t-37 1.5t-26.5 0.5q-27 0 -37 -12t-13 -34l-4 -29h225l-11 -78h-225l-38 -274h-102q-29 0 -36.5 10.5t-4.5 35.5l32 228h-37zM458 352h36l5 39q8 46 31.5 78.5
t80.5 35.5q18 1 53 0.5t79 -2t90.5 -3.5t88.5 -4t72.5 -3.5t41.5 -2.5l-39 -75q-4 1 -26.5 2t-54 2.5t-67 3t-68 2.5t-55 1.5t-29.5 0.5q-27 0 -37 -12t-13 -34l-4 -29h165l-11 -78h-165l-38 -274h-102q-29 0 -36.5 10.5t-4.5 35.5l32 228h-36zM883 436q4 23 9.5 34.5
t18 15.5t35.5 4h97q0 -2 -2 -11t-4 -20.5t-3.5 -21t-2.5 -11.5l-41 -294q-5 -40 -1.5 -59t35.5 -19q7 0 17.5 2t12.5 4l-7 -55q-8 -1 -29 -5t-56 -4q-56 0 -84 11t-36.5 29t-6.5 40.5t5 45.5z" />
    <glyph glyph-name=".notdef" horiz-adv-x="326" 
 />
    <glyph glyph-name=".null" horiz-adv-x="183" 
 />
    <glyph glyph-name="nonmarkingreturn" horiz-adv-x="333" 
 />
    <glyph glyph-name="space" unicode=" " horiz-adv-x="282" 
 />
    <glyph glyph-name="exclam" unicode="!" horiz-adv-x="242" 
d="M72 161l3 287q4 27 20 42t39 15h104l-15 -84l-74 -260h-77zM20 46q5 32 28 40t55 8t50 -8t13 -40q-3 -23 -13.5 -33t-27.5 -13t-39 -3q-21 0 -37 3t-24 13t-5 33z" />
    <glyph glyph-name="quotedbl" unicode="&#x22;" horiz-adv-x="348" 
d="M37 343l42 142h82l-56 -142h-68zM176 343l40 142h85l-59 -142h-66z" />
    <glyph glyph-name="numbersign" unicode="#" horiz-adv-x="540" 
d="M312 97h-98l-11 -112h-67l10 112l-105 1l6 66h107l11 117h-103l6 67h105l11 112h67l-11 -113h98l11 113h67l-12 -113l104 -1l-7 -67h-103l-12 -115l100 -1l-6 -66h-101l-11 -111h-67zM221 164h98l12 115l-98 1z" />
    <glyph glyph-name="dollar" unicode="$" horiz-adv-x="544" 
d="M25 -83q14 22 31 47.5l34 51t32 47.5q-40 6 -62.5 18t-29 38t-0.5 70h63h62q-5 -22 5.5 -34t32.5 -17t52 -6q26 0 49 3.5t39.5 15t19.5 35.5q4 22 -5.5 29.5t-30.5 7.5h-64h-63q-33 0 -61 2t-47.5 11.5t-28 32t-2.5 62.5q9 61 43.5 89.5t91.5 36.5t133 8q15 0 29 -0.5
t27 -1.5q20 29 38 57l36 56h52q-19 -30 -38 -58.5t-39 -57.5q47 -4 70 -17.5t29 -39t-1 -68.5h-60.5h-60.5q2 20 -8.5 32t-31 17.5t-50.5 5.5q-26 0 -49.5 -4t-38.5 -14.5t-17 -30.5q-4 -22 7 -28.5t33 -6.5h63.5h64.5q41 0 75 -6.5t52.5 -31t10.5 -78.5q-7 -50 -33.5 -77
t-64 -37.5t-79.5 -13.5q-32 -3 -69 -3.5t-95 0.5l-96 -142h-50z" />
    <glyph glyph-name="percent" unicode="%" horiz-adv-x="679" 
d="M531 460l-268 -474h-104l268 474h104zM618 102q-7 -49 -24.5 -70t-44 -26t-60.5 -5q-33 0 -58 5.5t-36 26.5t-4 69q7 47 25.5 68.5t46.5 28t61 6.5t56.5 -7t34 -29t3.5 -67zM539 102q4 31 3 45.5t-7.5 19t-20.5 4.5q-13 0 -21 -4.5t-13 -19t-10 -45.5q-3 -30 -2.5 -45
t7.5 -19.5t20 -4.5t21 4.5t13.5 19.5t9.5 45zM290 356q-7 -48 -24.5 -69.5t-43.5 -26t-61 -4.5q-33 0 -58 5t-36 26.5t-4 68.5t25.5 69t46.5 28.5t61 6.5t57 -7.5t34 -29.5t3 -67zM211 357q5 30 3.5 44.5t-8 19t-20.5 4.5q-13 0 -21 -4.5t-13 -19t-10 -44.5q-4 -30 -3 -45
t8 -19.5t20 -4.5t21 4.5t13.5 19.5t9.5 45z" />
    <glyph glyph-name="ampersand" unicode="&#x26;" horiz-adv-x="660" 
d="M595 -14q-20 11 -43 24.5t-49 29.5q-14 -18 -40 -26.5t-61 -12.5q-49 -4 -101.5 -5.5t-100 0t-84.5 5.5t-59.5 17t-30 41t-1.5 78q5 31 16.5 59t30.5 47.5t47 23.5q-23 8 -31 29.5t-3 62.5q4 29 15.5 47.5t28.5 29t38.5 15.5t45.5 7q37 5 80.5 5.5t85 -0.5t73.5 -3
q35 -2 59 -8.5t35 -25t5 -57.5q-18 9 -47 13t-58.5 5t-48.5 1q-18 0 -44 -1t-52.5 -6.5t-45 -17.5t-22.5 -34q-2 -22 10 -39.5t47 -37.5l92 -67l13 86q39 0 71 -2.5t52 -14.5t23 -38q0 -14 -2 -33l-4 -38t-5 -36l76 -44zM228 212q-7 -7 -12 -18t-8 -23t-5 -22
q-5 -37 3 -53.5t33 -22.5q10 -1 22 -2t25 -0.5t23 2.5q10 1 22.5 4t23.5 11t16 25q-36 25 -71.5 50t-71.5 49z" />
    <glyph glyph-name="quotesingle" unicode="'" horiz-adv-x="250" 
d="M32 314q20 30 41 61t38 58q-3 0 -6.5 0.5t-7.5 0.5q-17 2 -28 11t-8 34q3 22 15 32t30.5 13t41.5 3q33 0 51 -8.5t13 -39.5q-3 -24 -19.5 -55.5t-38 -61.5t-38.5 -48h-84z" />
    <glyph glyph-name="parenleft" unicode="(" horiz-adv-x="352" 
d="M350 468q-30 0 -54 -8.5t-43.5 -34t-34 -74t-26.5 -128.5q-11 -79 -10 -128t13 -75t33.5 -35t51.5 -9l-8 -56q-70 0 -122 9t-83.5 38.5t-41 90t4.5 163.5q14 100 40.5 161.5t67 93.5t95.5 43.5t125 11.5z" />
    <glyph glyph-name="parenright" unicode=")" horiz-adv-x="352" 
d="M73 531q71 0 123 -11.5t83 -43.5t40.5 -93.5t-4.5 -161.5q-14 -103 -41 -163.5t-66 -90t-93.5 -38.5t-125.5 -9l7 56q30 0 54 9t43.5 35t34.5 75t27 128q11 80 9.5 128.5t-14 74t-34 34t-50.5 8.5z" />
    <glyph glyph-name="asterisk" unicode="*" horiz-adv-x="512" 
d="M330 96l-76 149l-103 -149l-64 51l126 131l-167 39l37 84l154 -70v175h88l-31 -174l167 69l16 -84l-172 -39l103 -130z" />
    <glyph glyph-name="plus" unicode="+" horiz-adv-x="570" 
d="M181 -29l24 174h-171l12 84h171l24 169h142l-24 -169h177l-12 -84h-177l-24 -174h-142z" />
    <glyph glyph-name="comma" unicode="," horiz-adv-x="245" 
d="M42 -119q17 30 34.5 61t31.5 58q-3 0 -6.5 0.5t-7.5 0.5q-18 2 -30 11t-11 34q0 22 10.5 32t29 13t40.5 3q33 0 52 -8.5t18 -39.5q0 -24 -13 -55.5t-31 -61.5t-32 -48h-85z" />
    <glyph glyph-name="hyphen" unicode="-" horiz-adv-x="360" 
d="M45 222h280l-10 -78h-280z" />
    <glyph glyph-name="period" unicode="." horiz-adv-x="246" 
d="M57 46q4 32 27 40t55 8t50 -8t14 -40q-4 -23 -14.5 -33t-27 -13t-38.5 -3q-21 0 -37.5 3t-24.5 13t-4 33z" />
    <glyph glyph-name="slash" unicode="/" horiz-adv-x="439" 
d="M-4 -38l341 604h105l-341 -604h-105z" />
    <glyph glyph-name="zero" unicode="0" horiz-adv-x="561" 
d="M242 -8q-55 0 -98.5 8.5t-72 33t-39.5 72t0 125.5q12 80 39 128t66 72t87.5 31.5t101.5 7.5q55 0 98.5 -8.5t72.5 -33t40 -72t0 -125.5q-12 -80 -39 -128t-66 -72t-87.5 -31.5t-102.5 -7.5zM262 65q21 0 39 5.5t32.5 23t25.5 50.5t19 87q7 55 5.5 88t-11 50t-26 23
t-38.5 6q-21 0 -39 -6t-32 -23t-25 -50t-19 -88q-7 -54 -5.5 -87t11 -50.5t25.5 -23t38 -5.5z" />
    <glyph glyph-name="one" unicode="1" horiz-adv-x="358" 
d="M115 0q9 66 17.5 126t15.5 108t11 76q6 44 1.5 57t-16.5 16q-10 5 -38.5 1.5t-62.5 -10.5l10 73q30 4 59 6.5t55.5 4.5t47.5 2q52 0 78.5 -10t35 -28t5.5 -43q-3 -27 -9 -68t-13 -87.5t-13.5 -91.5t-11.5 -80t-7 -52h-165z" />
    <glyph glyph-name="two" unicode="2" horiz-adv-x="557" 
d="M5 0q3 24 6 47.5t7 47.5q7 53 19 87t33.5 52.5t59.5 26t97 7.5h44.5h44.5q30 0 53.5 9.5t27.5 42.5q4 29 -11 39t-41 12q-21 1 -39.5 1.5t-47.5 0.5q-38 0 -66.5 -2t-45.5 -5q-9 -1 -27.5 -4t-36.5 -6.5t-26 -9.5q1 9 3 22t3.5 24l1.5 11q3 17 20 28t47 18t72.5 10
t97.5 3q58 0 104 -4.5t78.5 -18t46.5 -42.5t7 -78q-9 -64 -36.5 -94.5t-68.5 -40t-92 -9.5h-34.5h-49.5q-29 0 -46 -6t-25.5 -18t-11.5 -33l-4 -31h342l-11 -87h-495z" />
    <glyph glyph-name="three" unicode="3" horiz-adv-x="543" 
d="M231 -5q-38 0 -74 1t-67.5 5t-57.5 12q-22 7 -27.5 21.5t-3.5 27.5l7 49q47 -14 104.5 -20.5t109.5 -6.5q36 0 63 4.5t42.5 17.5t19.5 37q3 22 -3 32t-16.5 13t-21.5 3h-217l12 86h220q13 0 27 9t17 34q4 30 -16 41t-67 11h-36q-26 0 -62 -3t-71 -9t-58 -14l7 49
q1 14 11.5 30.5t43.5 23.5q19 4 70.5 8.5t115.5 4.5q91 0 140.5 -10t66.5 -39.5t9 -86.5q-5 -34 -22 -57.5t-49 -26.5v-1q40 -1 52.5 -26t5.5 -76q-8 -60 -38 -91t-87.5 -42t-149.5 -11z" />
    <glyph glyph-name="four" unicode="4" horiz-adv-x="587" 
d="M308 0l12 88h-322l12 81l335 251q20 14 50.5 22.5t64 13t62.5 4.5q-1 -2 -3 -13.5l-4 -23t-2 -15.5l-33 -235h80l-12 -85h-80l-12 -88h-148zM175 173h156l21 149l-3 -4l-167 -141z" />
    <glyph glyph-name="five" unicode="5" horiz-adv-x="556" 
d="M519 149q-7 -53 -26 -83.5t-51.5 -45.5t-82 -20t-117.5 -5q-67 0 -120.5 4.5t-75.5 11.5q-23 7 -30.5 15.5t-5 28t7.5 57.5q54 -13 115.5 -20.5t118.5 -7.5q38 0 66.5 5.5t45.5 21t21 42.5q3 23 -1 35t-17.5 17.5t-38.5 6.5q-33 3 -73.5 3t-80 -1.5t-73 -4t-53.5 -5.5
l36 256h470l-13 -84h-339l-12 -79h59.5h67t61.5 -1t43 -3q48 -6 71 -23.5t28.5 -47.5t-1.5 -73z" />
    <glyph glyph-name="six" unicode="6" horiz-adv-x="544" 
d="M241 -4q-81 0 -128 6.5t-68 29t-22.5 68t9.5 122.5q10 71 23 115.5t34.5 69.5t56 36t87.5 14q29 2 64 2.5t64 -1.5q35 -1 63.5 -5t51.5 -9q22 -1 34 -8.5t12 -24.5t-15 -48q-31 4 -70 6.5t-80.5 4t-80.5 1.5q-25 0 -45 -5t-34 -17t-21 -34q-1 -5 -3.5 -15t-4.5 -19.5
t-3 -12.5q19 6 51.5 10.5t70.5 7.5t75 3q36 -1 66 -5t51.5 -17t30 -40t2.5 -74q-7 -48 -23 -79.5t-46 -49t-79.5 -25t-122.5 -7.5zM254 78q34 0 61.5 4t45 20t21.5 49q4 28 -5 40.5t-28 16.5t-45 5q-17 1 -37 0.5t-40.5 -1t-39 -1.5t-31.5 -2q-1 -7 -2.5 -20.5l-3 -27
t-1.5 -22.5q0 -27 12 -40t35 -17t58 -4z" />
    <glyph glyph-name="seven" unicode="7" horiz-adv-x="493" 
d="M48 0l298 374h-308l12 85h397q47 0 61 -25t-19 -67q-15 -22 -43 -56.5t-62.5 -76t-69.5 -85t-66.5 -82t-54.5 -67.5h-145z" />
    <glyph glyph-name="eight" unicode="8" horiz-adv-x="563" 
d="M251 -4q-83 0 -132.5 7t-72.5 22.5t-27.5 42t0.5 65.5q6 44 31.5 74.5t66.5 35.5q-32 4 -45.5 31.5t-8.5 66.5q7 47 31.5 73t77 37.5t144.5 11.5q98 1 148 -10.5t66 -38t9 -73.5q-5 -39 -26 -66.5t-55 -30.5q41 -6 57 -36.5t10 -74.5q-5 -38 -17.5 -64t-40.5 -42.5
t-80 -23.5t-136 -7zM241 77h40q37 0 59 5t33 18.5t14 37.5q4 26 -1.5 40t-26 18.5t-60.5 4.5h-40q-40 0 -61.5 -4.5t-30.5 -18.5t-13 -40q-5 -36 13.5 -48.5t73.5 -12.5zM291 287q39 0 62 3.5t34 15.5t15 35q2 20 -5 31.5t-29 16t-62 4.5t-63.5 -4.5t-33.5 -16t-13 -31.5
q-4 -23 3.5 -35t29 -15.5t62.5 -3.5z" />
    <glyph glyph-name="nine" unicode="9" horiz-adv-x="544" 
d="M33 91q33 -4 85 -7.5t110 -3.5q61 0 91 5.5t42.5 19.5t16.5 37q2 7 3.5 15t3 15.5t1.5 11.5q-9 -1 -20.5 -3t-26.5 -4q-29 -6 -63.5 -10.5t-84.5 -4.5q-84 0 -122.5 30.5t-27.5 109.5q7 50 23.5 81.5t47 49t79.5 24.5t121 7q82 0 129 -7.5t67.5 -30t21.5 -68t-10 -119.5
q-9 -67 -21 -111t-30.5 -69t-46 -37.5t-69.5 -17.5q-38 -4 -75 -5.5t-71 -1.5q-35 0 -67 1.5t-60 2.5q-32 4 -46 17.5t-8 42.5zM393 253q3 19 6 36.5t4 32.5q2 24 -7 37t-32.5 18t-66.5 5q-44 0 -71 -6.5t-40 -21t-17 -42.5q-3 -25 2.5 -39.5t23.5 -20t51 -5.5t64 1
t53.5 2.5t29.5 2.5z" />
    <glyph glyph-name="colon" unicode=":" horiz-adv-x="236" 
d="M25 46q5 32 28.5 40t54.5 8q32 0 50.5 -8t13.5 -40q-3 -23 -14 -33t-27.5 -13t-38.5 -3q-21 0 -37 3t-24.5 13t-5.5 33zM63 315q5 32 28 40t55 8t50 -8.5t13 -39.5q-4 -35 -25.5 -42t-53.5 -7q-21 0 -37.5 2.5t-24.5 13t-5 33.5z" />
    <glyph glyph-name="semicolon" unicode=";" horiz-adv-x="251" 
d="M84 283q4 33 27.5 40.5t55.5 7.5q31 0 49 -8t14 -40q-5 -34 -25.5 -41.5t-52.5 -7.5q-22 0 -38.5 3t-24.5 13.5t-5 32.5zM17 -119q22 30 43.5 61t38.5 58q-3 0 -6 0.5t-7 0.5q-18 2 -28.5 11t-7.5 34q4 22 16 32t30.5 13t41.5 3q33 0 50.5 -8.5t12.5 -39.5
q-4 -24 -21 -55.5t-39 -61.5t-39 -48h-85z" />
    <glyph glyph-name="less" unicode="&#x3c;" horiz-adv-x="404" 
d="M353 121l-11 -83l-300 153l8 51l342 156l-13 -88l-213 -93z" />
    <glyph glyph-name="equal" unicode="=" horiz-adv-x="498" 
d="M56 316h418l-11 -81h-417zM35 168h417l-10 -81h-418z" />
    <glyph glyph-name="greater" unicode="&#x3e;" horiz-adv-x="404" 
d="M248 217l-188 97l12 84l298 -154l-7 -52l-341 -154l11 88z" />
    <glyph glyph-name="question" unicode="?" horiz-adv-x="486" 
d="M152 135h-64q1 4 0 20.5t-2 37t-1.5 37t0.5 23.5q13 0 28 -1t30.5 -1h31.5q65 0 94 13.5t35 58.5q6 39 -17 53t-88 14h-46q-8 0 -22.5 -1t-30 -1.5t-27 -1t-13.5 -0.5q1 6 3 21t9.5 29t20.5 17q12 4 36 5l48 2h41h44.5h41.5q67 -1 104 -13t50 -41t5 -82q-7 -48 -30 -75.5
t-61.5 -39t-90 -14t-114.5 -2.5zM46 46q5 32 28 40t55 8t50 -8t13 -40q-3 -23 -13.5 -33t-27.5 -13t-38 -3t-37.5 3t-24.5 13t-5 33z" />
    <glyph glyph-name="at" unicode="@" horiz-adv-x="801" 
d="M425 424q-79 0 -132.5 -8t-88 -31.5t-54 -68.5t-30.5 -119q-9 -65 -1 -103.5t33 -58.5t67.5 -26.5t101.5 -6.5q54 0 114.5 3.5t118.5 11t104.5 18.5t72.5 25q-2 -17 -4 -32.5t-5 -32.5q-33 -11 -78.5 -21t-97 -16t-105.5 -8q-28 -1 -65 -2.5t-78 -1t-81 5t-73.5 14.5
t-57.5 28t-32 46q-12 26 -13.5 63.5t5.5 87.5q14 96 40 153t70 85t110 36.5t160 8.5q80 0 142.5 -4.5t105 -23t60.5 -60.5t10 -117q-5 -42 -15 -76.5t-28 -60t-46.5 -40t-70.5 -16.5q-22 0 -41.5 3.5t-32.5 16.5t-19 38q-4 -15 -17.5 -27t-30.5 -17q-22 -6 -51.5 -8.5
t-58.5 -2.5q-53 0 -85 9.5t-43.5 38.5t-4.5 87q9 59 36 87t76 36.5t120 7.5q17 0 41 -1.5t49.5 -2.5t45 -3t25.5 -3q-1 -3 -3.5 -16.5t-5.5 -30.5q-4 -33 -9 -66l-10 -66q-2 -18 8 -25t23 -6q24 1 38 19t22.5 49t13.5 68q8 58 -7 91t-48.5 48t-82 19.5t-107.5 4.5zM468 279
q-5 0 -16 1t-24.5 2t-26.5 1q-23 0 -40 -5.5t-27 -19t-14 -38.5q-5 -35 -1 -51.5t18.5 -21t40.5 -4.5q10 0 22 1.5t24.5 8t21.5 20t12 35.5z" />
    <glyph glyph-name="A" unicode="A" horiz-adv-x="605" 
d="M-27 0l213 382q22 39 55 60.5t98 21.5q52 0 82 -20t41 -62l106 -382h-177l-29 103h-208l-56 -103h-125zM188 166h152l-34 140q-1 8 -4.5 14.5t-13.5 6.5q-11 0 -16 -6.5t-9 -14.5z" />
    <glyph glyph-name="B" unicode="B" horiz-adv-x="647" 
d="M84 414q4 29 17.5 37.5t35.5 8.5q82 1 143.5 1.5t107.5 0.5t78 -0.5t53 -2.5q57 -5 77.5 -33.5t13.5 -77.5q-6 -44 -25.5 -66.5t-41 -30t-36.5 -8.5q26 0 45 -5t30.5 -16.5t15 -33.5t-0.5 -55q-6 -45 -21.5 -71.5t-41.5 -40t-64.5 -18.5t-91.5 -5h-77t-87.5 0.5t-84 0.5
t-67 0.5t-36.5 0.5zM376 273q17 0 31 4t23.5 17.5t13.5 41.5q3 27 -5 41.5t-34 15.5q-19 1 -43 1h-48h-42q-4 0 -16 -4.5t-15 -23.5l-41 -290h12h19h38h68q20 0 36 1t28.5 6.5t20.5 19t11 37.5q5 34 -7 47.5t-55 13.5h-158q-4 0 -5 9.5t0.5 23.5t3 25t1.5 14h163z" />
    <glyph glyph-name="C" unicode="C" horiz-adv-x="606" 
d="M33 227q11 81 42.5 128.5t79.5 70.5t109.5 30t131.5 7q42 0 79.5 -2.5t75.5 -7.5q40 -6 51.5 -20.5t7.5 -41.5l-7 -50q-28 11 -66 18t-77 10.5t-70 3.5q-60 0 -98.5 -10t-60 -41t-30.5 -94q-8 -60 4.5 -91.5t51 -42t104.5 -10.5q30 0 63 3t70 9.5t77 14.5l-7 -46
q-3 -25 -19.5 -40.5t-59.5 -20.5q-38 -6 -79 -8.5t-82 -2.5q-83 0 -142.5 9t-96 33.5t-50 71t-2.5 120.5z" />
    <glyph glyph-name="D" unicode="D" horiz-adv-x="652" 
d="M297 -1h-73t-70 0.5t-65.5 0.5h-57.5l54 386q5 39 19.5 56t56.5 18q26 0 56.5 0.5t63.5 0.5h66.5h65.5q69 -1 115 -12t71 -36.5t31.5 -71t-3.5 -115.5q-10 -74 -32.5 -119t-60 -68.5t-95.5 -31.5t-142 -8zM315 82q37 0 63 8t43.5 25t27.5 44.5t16 66.5q7 52 4.5 83
t-15.5 46t-38 19.5t-63 4.5h-23t-27 -0.5t-26.5 -0.5t-22.5 -1q-3 -5 -6 -12.5t-5 -20.5l-37 -261h23t29.5 -0.5t30.5 -0.5h26z" />
    <glyph glyph-name="E" unicode="E" horiz-adv-x="606" 
d="M31 0l56 399q3 23 6.5 36t16 19t39.5 6h462l-11 -86h-352l-14 -96h320l-12 -85h-319l-16 -107h352l-12 -86h-516z" />
    <glyph glyph-name="F" unicode="F" horiz-adv-x="600" 
d="M31 0l56 399q3 23 6.5 36t16 19t39.5 6h462l-11 -86h-352l-14 -96h320l-12 -85h-319l-27 -193h-165z" />
    <glyph glyph-name="G" unicode="G" horiz-adv-x="653" 
d="M263 -5q-65 2 -113 11.5t-77.5 34t-39.5 70t0 116.5q11 78 40 125.5t75 72t108.5 32.5t140.5 8q38 0 74.5 -1t65.5 -3.5t47 -6.5q27 -5 37.5 -15.5t12 -23.5t-0.5 -26l-6 -40q-5 8 -26 13.5t-50.5 8.5t-59.5 5t-54.5 2.5t-34.5 0.5q-72 0 -113.5 -11.5t-62.5 -44
t-30 -95.5q-8 -58 2 -89.5t40 -43t81 -11.5q57 0 89 7t47.5 25t20.5 49q1 9 2 15.5t2 10.5h-194q5 33 11.5 51.5t23.5 26.5t52 8h262l-16 -110q-8 -60 -34 -94.5t-67.5 -51t-97 -21.5t-124.5 -5h-16.5h-16.5z" />
    <glyph glyph-name="H" unicode="H" horiz-adv-x="670" 
d="M31 0l57 409q2 17 6 28t16.5 17t39.5 6h109l-25 -179h225l25 179h165l-57 -401q-2 -16 -5 -30t-14.5 -21.5t-37.5 -7.5h-115l27 196h-225l-27 -196h-164z" />
    <glyph glyph-name="I" unicode="I" horiz-adv-x="282" 
d="M31 0q14 102 28.5 204.5t28.5 203.5q2 17 6 28.5t16.5 17.5t38.5 6h110l-64 -460h-164z" />
    <glyph glyph-name="J" unicode="J" horiz-adv-x="354" 
d="M293 149q-2 -18 -5 -38t-8 -33q-9 -30 -30 -47t-47.5 -24t-54.5 -9q-30 -1 -52.5 -0.5t-45 2.5t-51.5 5l13 95q11 -4 32.5 -9t34.5 -5q23 0 33.5 12t13.5 32l46 330h111q28 0 38 -7t10 -20.5t-3 -33.5z" />
    <glyph glyph-name="K" unicode="K" horiz-adv-x="629" 
d="M479 -13q-28 0 -52.5 6t-42.5 21l-16 16t-21.5 22.5t-22.5 25.5t-22 25t-19 21q-10 13 -17.5 20t-20.5 15l-27 7l-23 -166h-164l58 410q2 16 6 27t16 17t38 6h55h55q-2 -15 -5 -36.5t-6 -45t-6.5 -45t-5.5 -35.5l29 6q10 3 17.5 8.5t17.5 14.5q15 14 39 33.5t49.5 40
t43.5 34.5q25 18 53 24t66 6q29 0 47.5 -2.5t40.5 -6.5q-2 -1 -14.5 -11t-26 -21.5t-22.5 -18.5q-40 -27 -84 -57t-85.5 -60t-76.5 -58l8 46q23 -21 52.5 -49t62.5 -60.5t69 -66.5t72 -65q-6 -7 -22 -18t-39.5 -20.5t-53.5 -9.5z" />
    <glyph glyph-name="L" unicode="L" horiz-adv-x="537" 
d="M260 460l-52 -374h302l-11 -86h-468l57 406q3 18 6.5 30t16 18t39.5 6h110z" />
    <glyph glyph-name="M" unicode="M" horiz-adv-x="733" 
d="M31 0l57 409q3 23 9.5 34t20 14t39.5 3h125l80 -261l1 -10l2 1l3 10l150 260h135q37 0 46 -10t5 -41l-51 -358q-3 -25 -10 -35.5t-20 -13t-37 -2.5h-107l40 284l-11 -28l-147 -256h-99l-74 253l-3 28l-39 -281h-115z" />
    <glyph glyph-name="N" unicode="N" horiz-adv-x="672" 
d="M31 0l56 404q4 23 9 35t17.5 16.5t38.5 4.5h155l177 -294l2 -23l44 317h121q-2 -2 -4.5 -12.5t-4 -23t-3.5 -22.5l-49 -353q-5 -33 -20 -41t-52 -8h-141l-182 300l-1 25l-46 -325h-117z" />
    <glyph glyph-name="O" unicode="O" horiz-adv-x="653" 
d="M296 -7q-79 0 -134 11t-87 37.5t-42 72.5t0 116q10 72 34 117.5t63.5 72t97.5 37.5t137 11q80 0 134.5 -11t86 -37.5t41.5 -72.5t1 -117q-10 -71 -34 -117t-63.5 -72.5t-97.5 -37t-137 -10.5zM309 78q34 0 59 6.5t42.5 23t29.5 46.5t19 76q6 47 2.5 76.5t-16.5 46
t-36.5 23t-56.5 6.5q-34 0 -59 -6.5t-43 -23t-29.5 -46t-18.5 -76.5q-6 -46 -3 -76t16.5 -46.5t37 -23t56.5 -6.5z" />
    <glyph glyph-name="P" unicode="P" horiz-adv-x="636" 
d="M26 0q14 97 27.5 194t26.5 194q5 38 20 55t56 17q52 0 107.5 0.5t110.5 0t105 -0.5q46 -1 80 -14.5t50 -45.5t9 -87q-13 -90 -60.5 -127.5t-117.5 -36.5q-59 1 -123 1h-123q5 37 7.5 54.5t7.5 23t19 5.5h46.5h54.5h53q17 0 31.5 7.5t24.5 24.5t13 44q5 32 -4 47.5
t-35 17.5q-27 1 -52.5 1h-50.5t-47 -1q-6 0 -13.5 -5t-8.5 -13q-13 -89 -25.5 -177.5t-24.5 -178.5h-164z" />
    <glyph glyph-name="Q" unicode="Q" horiz-adv-x="655" 
d="M296 -7q-79 0 -134 11t-87 37.5t-42 72.5t0 116q10 72 34 117.5t63.5 72t97.5 37.5t137 11q80 0 134.5 -11t86 -37.5t41.5 -72.5t1 -117q-10 -71 -34 -117t-63.5 -72.5t-97.5 -37t-137 -10.5zM309 78q34 0 59 6.5t42.5 23t29.5 46.5t19 76q6 47 2.5 76.5t-16.5 46
t-36.5 23t-56.5 6.5q-34 0 -59 -6.5t-43 -23t-29.5 -46t-18.5 -76.5q-6 -46 -3 -76t16.5 -46.5t37 -23t56.5 -6.5zM508 -88q-19 0 -38.5 9.5t-38.5 31.5q-9 11 -22.5 29.5t-29 40.5t-32 44.5t-32.5 41.5t-31 32q7 15 20 21.5t25 6.5q17 0 29.5 -5.5t29.5 -22.5
q19 -17 37 -37t35.5 -41t36.5 -40.5t39 -37t44 -30.5q-14 -23 -32 -33t-40 -10z" />
    <glyph glyph-name="R" unicode="R" horiz-adv-x="672" 
d="M347 155h-19.5t-49.5 -0.5t-61 -0.5l-22 -154h-164l56 399q4 29 18.5 45t54.5 16q15 0 45.5 0.5t69 0.5t80.5 0.5t80 0t67 -1t41 -1.5q53 -5 76 -32.5t15 -89.5q-9 -56 -21 -81.5t-32 -39.5q-8 -5 -21 -8t-27 -3l-1 -4h15.5t14.5 -1q25 -5 34.5 -16.5t10.5 -27t-2 -31.5
l-12 -88q-3 -19 0 -27.5t4 -9.5h-123q-25 0 -38.5 8t-10.5 34l10 66q5 31 -8 39t-47 8h-33zM228 233q10 0 32.5 -0.5t49 -0.5h49.5h33q24 0 44.5 15.5t25.5 58.5q5 30 -3 47t-31 19q-14 3 -37.5 3h-49t-46.5 -0.5t-31 -0.5q-2 0 -9.5 -3t-9.5 -15z" />
    <glyph glyph-name="S" unicode="S" horiz-adv-x="621" 
d="M28 109q24 -11 62.5 -16.5t80 -6.5t73.5 -1h30.5t30.5 1q27 0 46.5 5.5t31 17.5t14.5 34q3 17 -2.5 26.5t-18.5 13t-34 3.5h-25.5h-36.5h-56q-33 0 -65 3t-56.5 14.5t-36.5 37t-5 70.5q7 54 29.5 84.5t58.5 45.5t83 19t104 4q34 0 73 -1t73.5 -3t52.5 -7q34 -2 49.5 -18
t12.5 -40q0 -4 -1.5 -13.5t-2.5 -18.5t-2 -10q-6 7 -26.5 11.5t-49 6.5t-56 3t-47.5 1h-91q-28 0 -46.5 -4.5t-29 -15.5t-13.5 -31q-2 -16 2 -25.5t17 -13.5t34 -4h97.5h47.5q48 0 83 -8t51.5 -36t7.5 -86q-8 -55 -34.5 -87.5t-66.5 -47.5t-92 -18q-49 -3 -91.5 -3h-91.5
q-39 1 -72 3.5t-57 9t-36 18t-10 30.5z" />
    <glyph glyph-name="T" unicode="T" horiz-adv-x="589" 
d="M55 460h552l-12 -87h-193l-44 -319q-3 -21 -9 -33t-18 -16.5t-36 -4.5h-110l53 373h-195z" />
    <glyph glyph-name="U" unicode="U" horiz-adv-x="645" 
d="M601 228q-7 -47 -16 -84t-27 -64.5t-50 -45.5t-84 -27t-132 -9t-130.5 9t-77 27t-35 44t-6.5 61t8 78l24 169q5 31 9 47t17.5 21.5t44.5 5.5h104l-39 -275q-5 -42 2.5 -63t31 -27.5t61.5 -6.5q61 0 88.5 21t35.5 75l39 276h101q33 0 45 -5.5t12 -21.5t-4 -47z" />
    <glyph glyph-name="V" unicode="V" horiz-adv-x="576" 
d="M251 0q-46 0 -67 16.5t-33 57.5l-106 386h180l68 -293q3 -15 9.5 -21t13.5 -6h8l168 320h122l-258 -460h-105z" />
    <glyph glyph-name="W" unicode="W" horiz-adv-x="780" 
d="M153 0q-28 0 -45.5 11t-26 29t-9.5 38l-12 382l143 -1l15 -298q1 -17 4.5 -23t16.5 -6h15l120 328h154l40 -328h18q10 0 14.5 5.5t7.5 16.5l78 306h112l-107 -380q-12 -40 -40 -60t-83 -20h-118l-25 246l-4 52l-16 -52l-87 -246h-165z" />
    <glyph glyph-name="X" unicode="X" horiz-adv-x="616" 
d="M434 0q-33 0 -55.5 7.5t-43.5 37.5l-95 143l-189 272h216l102 -164l173 -241q14 -20 25 -33.5t22 -21.5h-155zM70 0l-95 1q18 12 38.5 30.5t36.5 32.5l212 205l208 191h149l-281 -256l-166 -168q-20 -18 -42 -27.5t-60 -8.5z" />
    <glyph glyph-name="Y" unicode="Y" horiz-adv-x="593" 
d="M190 0l25 183l-160 252l-18 25h228l90 -167l131 167h148l-30 -28l-225 -249l-17 -123q-2 -25 -10 -38t-24.5 -17.5t-45.5 -4.5h-92z" />
    <glyph glyph-name="Z" unicode="Z" horiz-adv-x="566" 
d="M225 87h311q-4 -31 -8 -48.5t-11.5 -26t-22 -10.5t-41.5 -2h-466l12 88q1 2 18.5 17t46 39.5t62.5 54t69 59.5t66 56t52 43q7 6 15 10l12 6h-286q5 33 9.5 52t16.5 27t39 8h461q0 -1 -3 -15.5t-11 -36t-24 -45.5t-43 -45l-258 -226z" />
    <glyph glyph-name="bracketleft" unicode="[" horiz-adv-x="357" 
d="M177 0q-3 -22 9.5 -31.5t43.5 -9.5h38l-8 -56q-2 0 -22 -0.5t-49.5 -0.5h-62.5h-62h-49h-22l88 632h267l-7 -56h-38q-31 0 -46.5 -10t-18.5 -32z" />
    <glyph glyph-name="backslash" unicode="\" horiz-adv-x="470" 
d="M215 151l-84 226h94l83 -226h-93z" />
    <glyph glyph-name="bracketright" unicode="]" horiz-adv-x="357" 
d="M164 436q3 22 -9.5 32t-43.5 10h-38l8 56h267l-88 -632h-267l7 57h38q32 0 47 9.5t18 31.5z" />
    <glyph glyph-name="asciicircum" unicode="^" horiz-adv-x="398" 
d="M84 229h-63l158 231h71l95 -231h-67l-73 156z" />
    <glyph glyph-name="underscore" unicode="_" horiz-adv-x="835" 
d="M33 -189l9 61h760l-9 -61h-760z" />
    <glyph glyph-name="grave" unicode="`" horiz-adv-x="205" 
d="M179 460l-130 90l73 39l118 -129h-61z" />
    <glyph glyph-name="a" unicode="a" horiz-adv-x="534" 
d="M224 -5q-70 0 -112.5 4.5t-63.5 17.5t-26 37t0 62q7 51 21 77.5t40.5 36.5t67.5 10q26 0 58 -0.5t63.5 -1.5t54.5 -3.5t32 -4.5q4 31 1.5 49t-13.5 27.5t-30.5 12.5t-48.5 3q-34 0 -69.5 -1t-68 -4t-60.5 -7l5 28q4 27 17.5 40t34.5 17q23 5 69.5 7t99.5 2q67 0 111.5 -7
t68 -25t29.5 -53.5t-2 -94.5l-29 -199q-18 -15 -82.5 -22.5t-167.5 -7.5zM232 57q40 0 66.5 3t38.5 10l15 112q-10 3 -29.5 5t-39 3t-31.5 1q-24 0 -39.5 -4t-23.5 -18t-13 -43q-3 -25 -0.5 -40.5t16 -22t40.5 -6.5z" />
    <glyph glyph-name="b" unicode="b" horiz-adv-x="535" 
d="M237 -4q-68 0 -110.5 7t-63.5 27t-24.5 59t5.5 104l43 312h148l-15 -108q5 0 17.5 0.5t29 1t35 1t34.5 0.5q77 0 116 -19t49.5 -63.5t0.5 -121.5q-10 -69 -30 -109t-51.5 -59.5t-77 -25.5t-106.5 -6zM250 75q36 0 55 8.5t29 35.5t18 84q6 46 1.5 71t-21 35t-48.5 10h-20
t-22 -0.5t-20 -0.5h-13l-21 -145q-4 -32 -4 -51.5t6.5 -29.5t21 -13.5t38.5 -3.5z" />
    <glyph glyph-name="c" unicode="c" horiz-adv-x="473" 
d="M251 -6q-88 0 -140.5 17.5t-71 60.5t-8.5 119q10 67 28 109t49.5 65t80.5 31.5t120 8.5q26 0 50 -2.5t59 -7.5q19 -2 30.5 -9t15.5 -23t0 -48q-11 4 -33.5 7.5t-47.5 5.5t-46 2q-50 0 -81.5 -12t-47.5 -40t-24 -77q-6 -48 2 -76t36 -40t79 -12q24 0 49.5 2t47.5 5.5
t34 7.5l-6 -40q-3 -25 -27.5 -36.5t-63 -14.5t-84.5 -3z" />
    <glyph glyph-name="d" unicode="d" horiz-adv-x="529" 
d="M223 -2q-81 0 -126.5 18t-60 62t-4.5 122q12 80 40.5 124t75 61.5t110.5 17.5q20 0 42.5 -2t43.5 -5.5t37 -9t23 -12.5l-38 -14l21 145h147l-43 -304q-10 -69 -27.5 -109.5t-48 -60.5t-77.5 -26.5t-115 -6.5zM243 75q26 0 43 5t27.5 17t17 33t10.5 54l17 133
q-5 0 -15.5 0.5t-22 1t-22.5 0.5q-38 0 -61 -9.5t-35 -35t-20 -76.5q-6 -51 -2 -77t20 -36t43 -10z" />
    <glyph glyph-name="e" unicode="e" horiz-adv-x="514" 
d="M238 -6q-70 0 -114 8.5t-67.5 30t-28.5 59.5t3 98q12 79 40 125.5t85 66.5t154 20q114 0 155 -37t30 -116l-11 -77h-278q3 21 14.5 35.5t37.5 14.5h100l3 21q4 40 -9 61t-58 21q-37 0 -58.5 -11t-33.5 -39t-20 -83q-7 -47 -0.5 -71.5t30 -33t70.5 -8.5q17 0 46 1t60 2.5
t54 3t29 3.5l-2 -18q-2 -14 -9 -29.5t-21 -25.5q-20 -14 -68.5 -18t-132.5 -4z" />
    <glyph glyph-name="f" unicode="f" horiz-adv-x="394" 
d="M50 352h36l5 39q8 56 37 85.5t95 29.5q35 0 71 -1.5t69 -3t58 -4.5l-12 -78q-10 3 -31.5 4.5t-45.5 2.5t-43 1q-27 0 -37 -11.5t-12 -34.5l-5 -29h145l-11 -78h-145l-38 -274h-103q-29 0 -36 10.5t-4 35.5l31 228h-35z" />
    <glyph glyph-name="g" unicode="g" horiz-adv-x="532" 
d="M196 -120q-43 0 -75.5 2t-55 8.5t-33.5 18t-8 30.5q1 6 2 16t2 14q10 -5 35.5 -10.5t57 -9t56.5 -3.5q57 0 88.5 15.5t45.5 50t16 88.5l17 -2q-15 -30 -35.5 -47t-51 -24.5t-76.5 -7.5q-62 0 -98 15.5t-48 55t-3 110.5q9 62 27 101.5t49.5 61.5t81.5 30t123 8
q22 0 53.5 -1.5t64 -4t57 -4.5t32.5 -3q-1 -3 -3 -14t-4.5 -25.5t-4.5 -29.5l-33 -239q-11 -81 -43.5 -124t-90 -59.5t-145.5 -16.5zM243 102q23 0 43 6.5t35 24.5t20 51l19 134q-7 1 -30 2.5t-49 1.5q-31 0 -50 -8.5t-29.5 -32.5t-17.5 -70q-6 -44 -1.5 -68t19.5 -32.5
t41 -8.5z" />
    <glyph glyph-name="h" unicode="h" horiz-adv-x="540" 
d="M71 0q-34 0 -42 9.5t-4 36.5l63 459h150l-16 -116q12 3 29 5t36 3t35 1q69 0 108.5 -10t57.5 -31t20.5 -55t-4.5 -83l-22 -156q-3 -27 -10.5 -40.5t-21.5 -18t-41 -4.5h-81l33 239q5 38 -1 57.5t-24 26t-50 6.5q-11 0 -25.5 -1t-27.5 -3.5t-21 -5.5l-44 -319h-97z" />
    <glyph glyph-name="i" unicode="i" horiz-adv-x="275" 
d="M132 -4q-67 0 -89 26t-14 85l42 292h150l-41 -286q-5 -31 3 -44.5t30 -13.5q13 0 22 2t12 3l-8 -55q-4 -1 -15.5 -3t-33 -4t-58.5 -2zM154 447q-36 0 -49.5 9t-10.5 33q4 24 20.5 33.5t52.5 9.5q35 -1 48 -10t9 -33q-3 -24 -18.5 -33t-51.5 -9z" />
    <glyph glyph-name="j" unicode="j" horiz-adv-x="239" 
d="M12 -99q-37 0 -64.5 4t-34.5 5l7 55q6 -2 21.5 -3.5t24.5 -1.5q35 0 44.5 17t14.5 57l44 312q3 22 8 33t17 15.5t35 4.5h96l-52 -379q-6 -42 -21 -68.5t-47.5 -38.5t-92.5 -12zM160 447q-36 0 -49.5 9t-10.5 33q4 24 20.5 33.5t52.5 9.5q35 -1 48 -10t9 -33
q-3 -24 -18.5 -33t-51.5 -9z" />
    <glyph glyph-name="k" unicode="k" horiz-adv-x="547" 
d="M18 0l63 453q3 30 14.5 41t44.5 11h99l-38 -268l155 133q14 12 27 18.5t30.5 10t43.5 3.5q30 0 54.5 -1t45.5 -2q-6 -3 -20 -12.5t-29.5 -20t-28.5 -18.5l-140 -107l152 -190q13 -14 26 -27.5t25 -23.5q-43 -1 -84.5 -1h-74.5q-36 0 -51.5 8t-30.5 25l-80 101l-37 -14
l-16 -119h-150z" />
    <glyph glyph-name="l" unicode="l" horiz-adv-x="272" 
d="M147 -4q-70 0 -98 23.5t-19 83.5l49 348q3 22 9 34t18.5 16t35.5 4h98q-1 -3 -5 -22t-8 -42l-45 -321q-5 -36 1.5 -50.5t31.5 -14.5q9 0 19.5 2t12.5 3l-7 -55q-7 -1 -27 -5t-66 -4z" />
    <glyph glyph-name="m" unicode="m" horiz-adv-x="759" 
d="M72 0q-34 0 -43 10t-4 45l45 319q16 6 41 10.5t54.5 8t60 6t57.5 2.5q39 0 67.5 -6t47 -23t27.5 -51l-22 1q12 26 32 42t43.5 23.5t46.5 10.5t40 3q69 0 108 -11.5t52 -42t5 -85.5l-30 -212q-3 -22 -9.5 -33t-18 -14t-33.5 -3h-95q10 67 19.5 133.5t17.5 133.5
q6 39 -7 51t-43 12q-13 0 -26 -4t-22 -11t-10 -17l-43 -298h-150l39 278q4 27 -10 38.5t-42 11.5q-16 0 -28 -2.5t-20 -7t-10 -13.5l-42 -305h-95z" />
    <glyph glyph-name="n" unicode="n" horiz-adv-x="528" 
d="M55 0q-38 0 -32 39l47 336q19 7 51.5 13t77 10t98.5 4q76 0 119.5 -8.5t62 -29t20.5 -54.5t-6 -85l-24 -169q-3 -22 -8 -34.5t-18 -17.5t-39 -5l-91 1l36 260q5 33 -12.5 47t-50.5 14q-24 0 -45.5 -5t-32.5 -13l-42 -303h-111z" />
    <glyph glyph-name="o" unicode="o" horiz-adv-x="530" 
d="M241 -6q-57 0 -100 9t-70 31.5t-37 63t-2 101.5q10 66 30.5 106.5t53 62t76.5 29t100 7.5q57 0 99.5 -9t69 -31.5t36 -62.5t1.5 -102q-10 -66 -30 -106.5t-52 -62t-75.5 -29t-99.5 -7.5zM248 67q27 0 46.5 10.5t32.5 39t20 82.5q8 54 3 82.5t-21.5 39t-43.5 10.5
t-47 -10.5t-33.5 -39t-21.5 -82.5t-2 -82.5t23 -39t44 -10.5z" />
    <glyph glyph-name="p" unicode="p" horiz-adv-x="543" 
d="M5 -107l60 430q4 24 6 43t1 23q10 2 35.5 4.5t60 4.5t69.5 3.5t62 1.5q91 0 141 -21.5t66 -68t3 -125.5q-12 -70 -35 -112t-65.5 -60.5t-112.5 -18.5q-40 0 -69 8.5t-45.5 26t-21.5 42.5l22 9l-27 -190h-150zM263 77q43 0 64.5 28t32.5 102q10 70 -6 93t-61 23
q-12 0 -26 -0.5t-28 -1.5t-24 -2l-20 -143q-5 -40 1 -61.5t23.5 -29.5t43.5 -8z" />
    <glyph glyph-name="q" unicode="q" horiz-adv-x="532" 
d="M299 -107l16 108q-14 -1 -27.5 -1.5t-28 -1t-30 -1t-32.5 -0.5q-72 0 -112 19t-51.5 65.5t0.5 129.5q8 59 24.5 96t45.5 57.5t76.5 28.5t115.5 8h64t72 -0.5t61.5 -0.5t31.5 1q-5 -13 -7.5 -29t-5.5 -38l-63 -441h-150zM259 78q7 0 17 0.5t20.5 0.5t18.5 0.5t11 0.5
l34 242h-29.5h-47.5q-32 0 -52 -9t-31.5 -36t-18.5 -81q-6 -50 -1.5 -76t23.5 -34t56 -8z" />
    <glyph glyph-name="r" unicode="r" horiz-adv-x="463" 
d="M167 0h-108q-22 0 -30.5 11t-3.5 44l45 324q29 7 84 15t121 8q70 0 109.5 -8t56 -24.5t18.5 -42t-3 -61.5h-143l2 14q3 24 -4 35t-18.5 14t-24.5 3q-19 0 -34.5 -4t-22.5 -12z" />
    <glyph glyph-name="s" unicode="s" horiz-adv-x="517" 
d="M202 -4q-24 0 -51.5 1t-53 4t-46.5 9q-17 4 -28 10.5t-14 25t2 58.5q30 -11 62.5 -17.5t63.5 -9t58 -2.5q19 0 41.5 0.5t44.5 5t37 15t18 29.5q4 23 -7.5 30t-31.5 7h-114q-46 0 -81 5t-52 27.5t-9 76.5q8 59 41.5 87.5t89.5 37.5t133 9q29 0 66.5 -1t63.5 -5
q31 -3 47.5 -9.5t22.5 -20t2 -41.5l-4 -28q-5 10 -28.5 15.5t-57.5 7.5t-71 2h-69q-23 0 -42 -2.5t-31 -12t-16 -30.5q-2 -16 4 -23.5t18 -9.5t27 -2h127q42 0 72.5 -7.5t45 -32t6.5 -76.5q-8 -60 -46 -88t-99.5 -36.5t-140.5 -8.5z" />
    <glyph glyph-name="t" unicode="t" horiz-adv-x="330" 
d="M174 -4q-54 0 -82.5 11.5t-37 38t-2.5 73.5l28 202h-42l11 78h43l7 51q4 25 9 37t16.5 15t35.5 3h96q0 -4 -1 -10t-2 -15l-12 -81h97l-11 -78h-97l-26 -190q-5 -40 -0.5 -58t37.5 -18q10 0 24.5 2t20.5 4l-7 -55q-7 -1 -35.5 -5.5t-69.5 -4.5z" />
    <glyph glyph-name="u" unicode="u" horiz-adv-x="524" 
d="M215 399l-36 -259q-5 -36 10.5 -50.5t54.5 -14.5q41 0 60 15.5t24 48.5l36 260h13t28 0.5t29 0.5h16q24 0 37.5 -2.5t18 -12.5t1.5 -35l-27 -194q-7 -45 -21 -76t-41.5 -50t-73 -27.5t-114.5 -8.5q-87 0 -133 12.5t-60.5 45.5t-5.5 93l28 205q4 29 15.5 39.5t45.5 10.5
q24 0 47.5 -0.5t47.5 -0.5z" />
    <glyph glyph-name="v" unicode="v" horiz-adv-x="428" 
d="M171 0q-26 0 -39 9t-22 45l-84 346h155l38 -190q4 -12 7 -21.5t8.5 -16t13.5 -12.5q22 51 44.5 101t44.5 100q8 18 20 28t34 10h60l-206 -399h-74z" />
    <glyph glyph-name="w" unicode="w" horiz-adv-x="750" 
d="M189 -5q-65 0 -103 10.5t-51.5 41.5t-5.5 92l30 204q4 34 15.5 45t41.5 11h100l-37 -259q-5 -39 6.5 -50t38.5 -11q32 0 47.5 11.5t19.5 43.5l38 265h150l-38 -266q-4 -31 8 -42.5t39 -11.5q31 0 46.5 11t21.5 51l36 258h96q33 0 41 -10.5t4 -45.5l-30 -204
q-8 -58 -29.5 -89t-64.5 -43t-114 -12q-45 0 -76.5 10t-48 30.5t-18.5 52.5h16q-12 -35 -34 -55.5t-57 -29t-88 -8.5z" />
    <glyph glyph-name="x" unicode="x" horiz-adv-x="470" 
d="M-34 0l180 199l-95 159q-6 11 -12.5 23t-15.5 19h190l59 -100l91 100h110q-1 -3 -7 -7.5t-14 -14.5l-130 -161l129 -217h-126q-31 0 -51.5 11t-35.5 34l-49 80l-112 -125h-111z" />
    <glyph glyph-name="y" unicode="y" horiz-adv-x="519" 
d="M208 -111q-57 0 -105 5t-76 16.5t-26 29.5l6 43q15 -9 43 -15t61 -9.5t61 -3.5q48 0 76.5 10.5t43 33.5t19.5 59l6 39q-14 -20 -34 -31.5t-49.5 -16t-72.5 -4.5q-65 0 -94 20.5t-33.5 57.5t2.5 86l19 138q2 15 6.5 27t16.5 18.5t36 6.5h101q-4 -26 -6.5 -45t-4.5 -35.5
t-4.5 -35.5t-6.5 -45q-8 -57 -4.5 -83t18.5 -33t39 -7q25 0 41.5 8t27.5 33t18 77l23 166h104q24 0 35.5 -7.5t7.5 -35.5l-41 -289q-13 -90 -72 -134t-182 -44z" />
    <glyph glyph-name="z" unicode="z" horiz-adv-x="464" 
d="M191 79h240l-3 -32q-2 -27 -15.5 -37t-42.5 -10h-380l11 73l253 247h-209l4 37q3 20 15.5 31t28.5 11h375q2 -17 -9.5 -38.5t-28.5 -42.5t-34 -37z" />
    <glyph glyph-name="braceleft" unicode="{" horiz-adv-x="417" 
d="M249 88q-6 -44 12 -59.5t50 -15.5h17.5h19.5q0 -2 -2 -14t-3.5 -23t-1.5 -14q-83 0 -137 2.5t-83 15t-37 42t-1 82.5q7 52 6 75.5t-14 29.5t-42 6q1 2 2.5 12.5t3 21.5t1.5 13q31 0 46 8t21.5 33.5t13.5 76.5q8 53 28.5 82.5t57 42t89 15t123.5 2.5q0 -2 -1.5 -13.5
l-3 -23t-2.5 -14.5h-45q-31 0 -49.5 -13.5t-25.5 -61.5l-4 -35q-6 -41 -21.5 -67.5t-35 -39.5t-37.5 -14q18 -1 34 -13t24.5 -35t3.5 -59z" />
    <glyph glyph-name="bar" unicode="|" horiz-adv-x="289" 
d="M257 460l-86 -619h-139l86 619h139z" />
    <glyph glyph-name="braceright" unicode="}" horiz-adv-x="417" 
d="M125 88l6 45q6 36 21.5 59t36 35t38.5 13q-18 1 -35 14t-25.5 39.5t-3.5 67.5l5 35q7 48 -7 61.5t-46 13.5h-46q1 3 2.5 14.5l3 23t1.5 13.5q71 0 123 -2.5t84.5 -15t45.5 -42t5 -82.5q-7 -51 -7 -76.5t12 -33.5t44 -8q0 -2 -1.5 -13t-3 -21.5t-2.5 -12.5q-28 0 -43 -6
t-22.5 -29.5t-14.5 -75.5q-7 -53 -24 -82.5t-49.5 -42t-87 -15t-137.5 -2.5q0 3 1.5 14t3.5 23t2 14h19.5h17.5q32 0 54 15.5t29 59.5z" />
    <glyph glyph-name="asciitilde" unicode="~" horiz-adv-x="419" 
d="M37 486l8.5 10.5t23 24t32 24.5t36.5 12t38 -5.5t38 -15.5t38 -16t37 -5q14 1 29 9.5t27 19t16 15.5l21 -40l-8 -9.5t-22 -23t-32 -24.5t-37 -13q-20 -2 -38.5 4.5t-38 15.5t-38.5 16t-38 6q-12 -1 -27 -10t-27 -19t-17 -15z" />
    <glyph glyph-name="uni00A0" unicode="&#xa0;" horiz-adv-x="282" 
 />
    <glyph glyph-name="exclamdown" unicode="&#xa1;" horiz-adv-x="236" 
d="M184 222l-45 -287q-7 -27 -25.5 -42t-41.5 -15h-103l26 84l111 260h78zM251 337q-9 -32 -33 -40t-56 -8t-49 8.5t-8 39.5q6 24 18 34t29.5 12.5t39.5 2.5q21 0 37 -2.5t22.5 -12.5t-0.5 -34z" />
    <glyph glyph-name="cent" unicode="&#xa2;" horiz-adv-x="541" 
d="M259 53q-75 0 -122.5 11.5t-72 36t-31 64t1.5 95.5q11 70 39.5 115t85.5 67t151 22q75 0 120 -9.5t65.5 -28.5t25 -47.5t-1.5 -66.5h-119q7 49 -15.5 70t-72.5 21q-38 0 -66 -14t-45 -45.5t-24 -82.5q-7 -57 1.5 -88t33 -43t64.5 -12q32 0 54.5 9t36.5 29.5t18 54.5h124
q-6 -45 -21 -75t-42.5 -48.5t-73.5 -26.5t-114 -8zM115 0l294 523h47l-294 -523h-47z" />
    <glyph glyph-name="sterling" unicode="&#xa3;" horiz-adv-x="545" 
d="M39 246h65l17 125q9 61 38 93t79 44t120 12q105 0 148 -32.5t35 -90.5l-7 -52h-130l7 51q4 31 -3 46.5t-21 20.5t-31 5q-18 0 -35 -5t-30 -26t-20 -70l-17 -121h93l-7 -51h-93l-4 -28q-1 -13 -6.5 -32t-13 -35t-17.5 -21h289l-11 -79h-480l8 55q20 0 35.5 10t27.5 35.5
t18 74.5l3 20h-65z" />
    <glyph glyph-name="currency" unicode="&#xa4;" horiz-adv-x="452" 
d="M356 469q22 -23 29 -61.5t1 -77.5t-24 -65l65 -78h-39l-60 52q-23 -9 -56.5 -12t-67 0.5t-59.5 12.5l-61 -53h-39l66 81q-16 25 -21.5 61.5t1.5 73.5t26 62l-72 90h39l71 -64q36 13 78 12.5t85 -10.5l70 62h39zM145 364q0 -42 12 -62t33.5 -26t49.5 -6q27 0 47 6
t31.5 26.5t11.5 61.5q0 42 -11.5 62t-31.5 26t-47 6q-28 0 -49.5 -6t-33.5 -26t-12 -62z" />
    <glyph glyph-name="yen" unicode="&#xa5;" horiz-adv-x="593" 
d="M190 0l25 183l-160 252l-18 25h228l90 -167l131 167h148l-30 -28l-225 -249l-17 -123q-2 -25 -10 -38t-24.5 -17.5t-45.5 -4.5h-92zM133 174h324l-4 -32h-325zM122 99h324l-4 -32h-325z" />
    <glyph glyph-name="brokenbar" unicode="&#xa6;" horiz-adv-x="227" 
d="M178 102v-261h-139v261h139zM178 460v-252h-139v252h139z" />
    <glyph glyph-name="section" unicode="&#xa7;" horiz-adv-x="605" 
d="M11 -102q10 -6 29.5 -9t43 -5.5t45.5 -3.5t35 -1q52 0 84.5 2t50.5 7.5t26.5 17t10.5 30.5q4 28 -15 35.5t-72 7.5q-21 0 -50 -0.5t-50 0.5q-22 1 -44 5t-39.5 16.5t-25.5 38.5t-2 69q10 65 43.5 94.5t92.5 39.5q-14 8 -18.5 32.5t1.5 67.5t32 67.5t65 36.5t86.5 15.5
t96.5 3.5q54 0 92.5 -1.5t63 -9t35 -25t5.5 -49.5q-1 -13 -2 -18.5t-2 -9.5q-10 11 -30.5 17.5t-43.5 9t-42 3t-27 0.5q-54 0 -87 -1t-51.5 -5.5t-25.5 -14.5t-10 -28q-3 -20 4 -29.5t31 -11.5t72 -2h43h43q40 0 67.5 -9t39.5 -34t5 -74q-8 -57 -31 -87t-55.5 -40.5
t-68.5 -10.5q36 -2 55 -28t13 -73q-8 -55 -48.5 -83t-106 -37.5t-150.5 -9.5q-13 0 -38.5 0.5t-56 3t-58.5 7t-46 12.5t-18 19q-1 16 1 33t2 19zM389 78q26 0 42.5 19t18.5 42q3 21 -4.5 37t-30.5 16l-116 1h-15.5h-15.5h-11q-29 -4 -43 -21.5t-17 -36.5q-4 -27 6 -42
t35 -15h151z" />
    <glyph glyph-name="dieresis" unicode="&#xa8;" horiz-adv-x="292" 
d="M274 459q-24 0 -38 6.5t-11 34.5q4 26 21.5 32t40.5 6t37 -7t10 -31q-3 -28 -19 -34.5t-41 -6.5zM91 459q-24 0 -38 6.5t-11 34.5q4 26 21.5 32t40.5 6t36.5 -7t9.5 -31q-3 -27 -19 -34t-40 -7z" />
    <glyph glyph-name="copyright" unicode="&#xa9;" horiz-adv-x="583" 
d="M35 245q10 71 52 125t104.5 84t134.5 30t126 -30t81 -84t17 -125q-10 -70 -52.5 -126.5t-105 -89t-134.5 -32.5q-71 0 -125.5 32.5t-81 89t-16.5 126.5zM84 245q-8 -58 13.5 -103t65.5 -71t101 -26t107.5 26t85 71t42.5 103q9 59 -13.5 101.5t-66.5 65.5t-100 23
q-58 0 -108.5 -23t-84 -65.5t-42.5 -101.5zM314 362q36 0 62.5 -4.5t39.5 -18.5t9 -45q-1 -3 -1.5 -7.5t-0.5 -8.5h-62q2 13 0.5 21.5t-6.5 14.5q-4 10 -16.5 13.5t-31.5 3.5q-18 0 -34 -5.5t-24 -20.5q-8 -10 -12 -24.5t-7 -30.5q-2 -16 -1 -29t5 -23q5 -15 16.5 -23
t33.5 -8q16 0 30.5 4t23.5 15q5 5 8.5 11.5t5.5 16.5v4t1 3h63q-1 -5 -1.5 -11t-2.5 -11q-3 -29 -23 -42.5t-49.5 -17t-61.5 -3.5q-50 0 -79 8.5t-39 32.5t-4 70q6 43 24.5 68.5t51.5 36t82 10.5z" />
    <glyph glyph-name="ordfeminine" unicode="&#xaa;" horiz-adv-x="413" 
d="M43 247h314v-46h-314v46zM167 309q-49 0 -78.5 3t-44.5 12t-18.5 25.5t0.5 44.5q4 35 14.5 54t28.5 25.5t47 6.5h40.5t44.5 -1t38.5 -2.5t22.5 -2.5q4 21 2 34t-10 19.5t-21.5 9t-34.5 2.5q-24 0 -48.5 -1.5t-47.5 -3t-42 -5.5l3 20q2 19 11.5 28t24.5 13q17 3 49 4.5
t69 1.5q48 0 79.5 -4.5t47.5 -17.5t20.5 -38t-1.5 -67l-20 -140q-13 -10 -58 -15t-118 -5zM173 352q28 0 46.5 2.5t27.5 6.5l11 79q-7 2 -21 3.5t-28 2.5t-22 1q-17 0 -27.5 -3.5t-16.5 -13t-9 -29.5q-3 -19 -1 -29.5t11.5 -15t28.5 -4.5z" />
    <glyph glyph-name="guillemotleft" unicode="&#xab;" horiz-adv-x="460" 
d="M139 264l68 -186h-83l-87 186l139 187h82zM326 264l68 -186h-83l-87 186l139 187h82z" />
    <glyph glyph-name="logicalnot" unicode="&#xac;" horiz-adv-x="637" 
d="M533 238h-494l15 108h561l-35 -243h-65z" />
    <glyph glyph-name="uni00AD" unicode="&#xad;" horiz-adv-x="360" 
d="M45 222h280l-10 -78h-280z" />
    <glyph glyph-name="registered" unicode="&#xae;" horiz-adv-x="386" 
d="M88 435q0 -32 16 -59.5t43 -44t60 -16.5t60 16.5t42.5 44t15.5 59.5q0 33 -15.5 60t-42.5 43t-60 16t-60 -16t-43 -43t-16 -60zM50 435q0 43 21 78.5t56.5 56.5t78.5 21q44 0 79 -21t56 -56.5t21 -78.5t-21 -78.5t-56 -56.5t-79 -21q-43 0 -78.5 21t-56.5 56.5t-21 78.5z
M216 419h-6h-15.5h-20.5l-13 -49h-44l34 122q2 9 7 14t16 5h13.5h19h22h22.5h19h11q16 -2 21 -10.5t0 -27.5q-4 -17 -9 -24.5t-12 -12.5q-2 -1 -5.5 -1.5t-7.5 -0.5v-1h3.5t4.5 -1q7 -1 9 -4.5t1.5 -8.5t-1.5 -10l-8 -29q-1 -4 -1 -7t1 -3h-32q-7 0 -10.5 2.5t-1.5 9.5l7 23
q2 9 -1 11.5t-13 2.5h-10zM180 441h10h15h15.5h9.5q9 0 15.5 5t10.5 19q3 9 1.5 14.5t-9.5 6.5q-4 1 -11 1.5t-14.5 0t-14.5 -0.5h-10q-1 0 -3.5 -1t-3.5 -5z" />
    <glyph glyph-name="macron" unicode="&#xaf;" horiz-adv-x="280" 
d="M38 460l7 60h277l-7 -60h-277z" />
    <glyph glyph-name="degree" unicode="&#xb0;" horiz-adv-x="328" 
d="M39 513q7 49 28 74.5t52.5 35.5t67.5 10t62 -10.5t37.5 -36.5t5.5 -73q-7 -51 -27 -78.5t-50 -38t-68 -10.5q-36 0 -63 10.5t-39.5 38t-5.5 78.5zM104 514q-6 -38 9 -51.5t42 -13.5t46.5 13.5t24.5 51.5q5 36 -9.5 49t-40.5 13t-46.5 -12.5t-25.5 -49.5z" />
    <glyph glyph-name="plusminus" unicode="&#xb1;" horiz-adv-x="505" 
d="M27 83h409l-12 -83h-409zM63 343h168l17 125h67l-18 -125h175l-12 -85h-175l-15 -112h-67l16 112h-168z" />
    <glyph glyph-name="uni00B2" unicode="&#xb2;" horiz-adv-x="322" 
d="M21 246q2 15 4 29.5t4 29.5q5 32 11 52.5t18.5 32.5t34.5 16.5t59 4.5h25.5h25.5q15 0 27 5t14 23q2 16 -5.5 20.5t-20.5 6.5q-13 0 -23 0.5t-29 0.5q-21 0 -36.5 -1.5t-23.5 -2.5q-4 -1 -15.5 -2t-22.5 -3.5t-16 -6.5l5 41q3 15 19 23t47 11.5t75 3.5q50 0 83 -6t48 -25
t9 -58q-5 -39 -21 -57.5t-41 -24.5t-56 -6h-18.5h-28.5q-22 0 -29.5 -7t-10.5 -24l-2 -15h192l-8 -61h-294z" />
    <glyph glyph-name="uni00B3" unicode="&#xb3;" horiz-adv-x="314" 
d="M160 244q-30 0 -61.5 1.5t-54.5 8.5q-12 4 -17 12t-4 21l5 34q31 -8 64 -11.5t61 -3.5q35 0 48.5 7.5t15.5 24.5q3 15 -4 20t-16 5h-123l6 53h124q10 0 16.5 6t8.5 18q2 17 -10 22t-33 5h-11h-11q-13 0 -33.5 -2t-41 -5.5t-35.5 -7.5l5 34q2 16 11 24t23 11
q14 4 43.5 6.5t65.5 2.5q53 0 82.5 -6.5t40 -24t5.5 -53.5q-3 -20 -12.5 -34.5t-27.5 -16.5v-1q23 -1 29.5 -16t1.5 -45q-4 -37 -22 -56t-51.5 -26t-87.5 -7z" />
    <glyph glyph-name="acute" unicode="&#xb4;" horiz-adv-x="205" 
d="M37 460l154 129l62 -39l-155 -90h-61z" />
    <glyph glyph-name="uni03BC" unicode="&#xb5;" horiz-adv-x="541" 
d="M244 -2q-25 0 -43 5.5t-27 14.5q-3 -24 -5 -35t-3.5 -23t-5.5 -36q0 -3 -1 -13t-2.5 -22.5t-2.5 -23t-2 -14.5h-52h-53q-20 0 -31.5 14.5t-7.5 39.5q11 79 20.5 146l19 134t20.5 146q5 36 17.5 50.5t29.5 16.5t36 1h13t27 -0.5t27 -0.5h12q0 -1 -0.5 -4.5l-1.5 -10.5
q-8 -55 -15.5 -109.5t-15.5 -110.5q-6 -42 -1 -63t19.5 -27.5t38.5 -6.5t40 6.5t27 28t17 66.5q7 53 14.5 105.5t14.5 105.5q2 9 2 14t1 6h12t27 0.5t27 0.5h14q22 1 38.5 -1t23.5 -16.5t1 -53.5l-17 -127q-9 -54 -20 -92.5t-35.5 -63t-71 -36t-125.5 -11.5z" />
    <glyph glyph-name="paragraph" unicode="&#xb6;" horiz-adv-x="447" 
d="M428 528l-92 -650h-171l49 344q-65 0 -100 16.5t-45 51.5t-2 91q7 55 28.5 87t60.5 46t100 14h172z" />
    <glyph glyph-name="periodcentered" unicode="&#xb7;" horiz-adv-x="234" 
d="M44 234q5 32 28.5 40t54.5 8q32 0 50 -8.5t14 -39.5q-3 -23 -14 -33t-27.5 -13t-38.5 -3q-21 0 -37 3t-24.5 13t-5.5 33z" />
    <glyph glyph-name="cedilla" unicode="&#xb8;" horiz-adv-x="179" 
d="M6 -179q-34 0 -43 7t-6 29h15h36q26 0 36.5 4.5t12.5 16.5q2 16 -6.5 20t-37.5 4h-43q-1 0 -2.5 5t2 14.5t16.5 22.5q8 7 17 15.5t19.5 17t21 15t18.5 9.5h45l-64 -66q44 1 65 -2.5t26.5 -16t1.5 -39.5t-15.5 -39t-38 -14.5t-76.5 -2.5z" />
    <glyph glyph-name="uni00B9" unicode="&#xb9;" horiz-adv-x="205" 
d="M78 246l28 202q2 16 -2.5 23.5t-17.5 7.5q-11 0 -21.5 -1.5t-28.5 -5.5l6 48q31 4 55 6t47 2q48 0 64 -13.5t11 -47.5l-31 -221h-110z" />
    <glyph glyph-name="ordmasculine" unicode="&#xba;" horiz-adv-x="401" 
d="M38 450q0 65 22.5 95.5t61 39t84.5 8.5q47 0 82.5 -9.5t55.5 -40t20 -93.5q0 -65 -21 -95t-58 -38t-85 -8q-46 0 -83 8t-58 38t-21 95zM255 450q0 46 -6 66t-18.5 25t-29.5 5t-29 -5t-18.5 -25t-6.5 -66t6.5 -66t18.5 -25t29 -5t29.5 5t18.5 25t6 66zM43 247h312v-46
h-312v46z" />
    <glyph glyph-name="guillemotright" unicode="&#xbb;" horiz-adv-x="460" 
d="M64 451h82l87 -187l-139 -186h-83l120 186zM251 451h82l86 -187l-138 -186h-83l120 186z" />
    <glyph glyph-name="onequarter" unicode="&#xbc;" horiz-adv-x="643" 
d="M78 246l28 202q2 16 -2.5 23.5t-17.5 7.5q-11 0 -21.5 -1.5t-28.5 -5.5l6 48q31 4 55 6t47 2q48 0 64 -13.5t11 -47.5l-31 -221h-110zM541 519l-427 -600h-88l426 600h89zM449 -78l7 52h-181l9 54l183 146q23 17 58 23.5t64 6.5q0 -1 -2 -12.5t-4 -20.5l-19 -140h46
l-8 -57h-47l-7 -52h-99zM384 31h80l11 80z" />
    <glyph glyph-name="onehalf" unicode="&#xbd;" horiz-adv-x="679" 
d="M78 246l28 202q2 16 -2.5 23.5t-17.5 7.5q-11 0 -21.5 -1.5t-28.5 -5.5l6 48q31 4 55 6t47 2q48 0 64 -13.5t11 -47.5l-31 -221h-110zM541 519l-427 -600h-88l426 600h89zM333 -78q2 15 4 29.5t4 29.5q5 32 11 52.5t18.5 32.5t34.5 16.5t59 4.5h25.5h25.5q15 0 27 5
t14 23q2 16 -5.5 20.5t-20.5 6.5q-13 0 -23 0.5t-29 0.5q-21 0 -36.5 -1.5t-23.5 -2.5q-4 -1 -15.5 -2t-22.5 -3.5t-16 -6.5l5 41q3 15 19 23t47 11.5t75 3.5q50 0 83 -6t48 -25t9 -58q-5 -39 -21 -57.5t-41 -24.5t-56 -6h-18.5h-28.5q-22 0 -29.5 -7t-10.5 -24l-2 -15h192
l-8 -61h-294z" />
    <glyph glyph-name="threequarters" unicode="&#xbe;" horiz-adv-x="752" 
d="M160 244q-30 0 -61.5 1.5t-54.5 8.5q-12 4 -17 12t-4 21l5 34q31 -8 64 -11.5t61 -3.5q35 0 48.5 7.5t15.5 24.5q3 15 -4 20t-16 5h-123l6 53h124q10 0 16.5 6t8.5 18q2 17 -10 22t-33 5h-11h-11q-13 0 -33.5 -2t-41 -5.5t-35.5 -7.5l5 34q2 16 11 24t23 11
q14 4 43.5 6.5t65.5 2.5q53 0 82.5 -6.5t40 -24t5.5 -53.5q-3 -20 -12.5 -34.5t-27.5 -16.5v-1q23 -1 29.5 -16t1.5 -45q-4 -37 -22 -56t-51.5 -26t-87.5 -7zM650 519l-427 -600h-88l426 600h89zM558 -78l7 52h-181l9 54l183 146q23 17 58 23.5t64 6.5q0 -1 -2 -12.5
t-4 -20.5l-19 -140h46l-8 -57h-47l-7 -52h-99zM493 31h80l11 80z" />
    <glyph glyph-name="questiondown" unicode="&#xbf;" horiz-adv-x="485" 
d="M339 236h64q-1 -4 -1 -20.5t0.5 -37t0.5 -37t-2 -23.5q-13 1 -28 1.5t-30.5 0.5h-31.5q-65 0 -94.5 -13.5t-39.5 -58.5q-7 -39 14.5 -53t85.5 -14h47q8 0 22.5 1t30 1.5t27 1t13.5 0.5l-3.5 -21t-9 -29t-21.5 -17q-12 -3 -35.5 -4.5t-48.5 -2.5h-40h-44.5h-42.5
q-67 1 -103.5 13t-48 41t-2.5 82q9 49 33.5 76t63 38.5t90 14t115.5 2.5zM449 325q-5 -32 -28 -40t-56 -8q-32 0 -49.5 8.5t-12.5 39.5q3 24 14 34t28 12.5t38 2.5t37 -2.5t24 -12.5t5 -34z" />
    <glyph glyph-name="Agrave" unicode="&#xc0;" horiz-adv-x="605" 
d="M-27 0l213 382q22 39 55 60.5t98 21.5q52 0 82 -20t41 -62l106 -382h-177l-29 103h-208l-56 -103h-125zM188 166h152l-34 140q-1 8 -4.5 14.5t-13.5 6.5q-11 0 -16 -6.5t-9 -14.5zM330 521l-110 73l73 68l98 -141h-61z" />
    <glyph glyph-name="Aacute" unicode="&#xc1;" horiz-adv-x="605" 
d="M-27 0l213 382q22 39 55 60.5t98 21.5q52 0 82 -20t41 -62l106 -382h-177l-29 103h-208l-56 -103h-125zM188 166h152l-34 140q-1 8 -4.5 14.5t-13.5 6.5q-11 0 -16 -6.5t-9 -14.5zM290 521l131 113l61 -40l-131 -73h-61z" />
    <glyph glyph-name="Acircumflex" unicode="&#xc2;" horiz-adv-x="605" 
d="M-27 0l213 382q22 39 55 60.5t98 21.5q52 0 82 -20t41 -62l106 -382h-177l-29 103h-208l-56 -103h-125zM188 166h152l-34 140q-1 8 -4.5 14.5t-13.5 6.5q-11 0 -16 -6.5t-9 -14.5zM217 521l121 113h41l91 -113h-65l-55 53l-73 -53h-60z" />
    <glyph glyph-name="Atilde" unicode="&#xc3;" horiz-adv-x="605" 
d="M-27 0l213 382q22 39 55 60.5t98 21.5q52 0 82 -20t41 -62l106 -382h-177l-29 103h-208l-56 -103h-125zM188 166h152l-34 140q-1 8 -4.5 14.5t-13.5 6.5q-11 0 -16 -6.5t-9 -14.5zM402 522q-20 -1 -37 9.5t-33 21.5t-37 9q-19 0 -32 -11.5t-18 -17.5l-24 23q1 1 7 11.5
t17.5 23.5t26.5 23.5t33 10.5q20 1 36.5 -9.5l33 -21t35.5 -10.5q22 0 36 12.5t20 21.5l24 -22q-1 0 -7.5 -11.5t-18.5 -26t-27.5 -25.5t-34.5 -11z" />
    <glyph glyph-name="Adieresis" unicode="&#xc4;" horiz-adv-x="605" 
d="M436 520q-24 0 -37.5 6.5t-5.5 34.5q6 26 25 32t42 6t36 -7t6 -31q-8 -28 -24.5 -34.5t-41.5 -6.5zM253 520q-24 0 -37.5 6.5t-5.5 34.5q7 26 25.5 32t41.5 6t35.5 -7t5.5 -31q-8 -27 -24.5 -34t-40.5 -7zM-27 0l213 382q22 39 55 60.5t98 21.5q52 0 82 -20t41 -62
l106 -382h-177l-29 103h-208l-56 -103h-125zM188 166h152l-34 140q-1 8 -4.5 14.5t-13.5 6.5q-11 0 -16 -6.5t-9 -14.5z" />
    <glyph glyph-name="Aring" unicode="&#xc5;" horiz-adv-x="605" 
d="M-27 0l213 382q22 39 55 60.5t98 21.5q52 0 82 -20t41 -62l106 -382h-177l-29 103h-208l-56 -103h-125zM188 166h152l-34 140q-1 8 -4.5 14.5t-13.5 6.5q-11 0 -16 -6.5t-9 -14.5zM345 522q-31 0 -52 4.5t-30.5 18.5t-6.5 41q5 26 18 39t36 17t54 4q32 0 53.5 -4
t31.5 -17t6 -39q-6 -40 -34 -52t-76 -12zM352 562q21 0 32.5 4.5t12.5 17.5q2 14 -7.5 18.5t-31.5 4.5q-21 0 -32 -4.5t-13 -18.5q-1 -13 8 -17.5t31 -4.5z" />
    <glyph glyph-name="AE" unicode="&#xc6;" horiz-adv-x="888" 
d="M-8 0q44 49 79 88t65.5 73t61.5 69.5t68 76.5t85 93q26 29 51.5 41.5t50.5 15.5t49 3h399q-3 -23 -6 -45.5t-7 -45.5h-329l-13 -90h298l-12 -91h-149.5h-149.5l-14 -97h330l-12 -91h-244.5h-243.5l13 95h-175q-21 -24 -41.5 -47.5t-40.5 -47.5h-113zM250 161h60.5h60.5
q6 41 11.5 81t11.5 81q-3 -3 -6 -5.5t-5 -5.5q-7 0 -13 -5.5t-11 -12.5q-27 -33 -54.5 -66t-54.5 -67z" />
    <glyph glyph-name="Ccedilla" unicode="&#xc7;" horiz-adv-x="606" 
d="M33 227q11 81 42.5 128.5t79.5 70.5t109.5 30t131.5 7q42 0 79.5 -2.5t75.5 -7.5q40 -6 51.5 -20.5t7.5 -41.5l-7 -50q-28 11 -66 18t-77 10.5t-70 3.5q-60 0 -98.5 -10t-60 -41t-30.5 -94q-8 -60 4.5 -91.5t51 -42t104.5 -10.5q30 0 63 3t70 9.5t77 14.5l-7 -46
q-3 -25 -19.5 -40.5t-59.5 -20.5q-38 -6 -79 -8.5t-82 -2.5q-83 0 -142.5 9t-96 33.5t-50 71t-2.5 120.5zM233 -179q-34 0 -43 7t-6 29h15h36q26 0 36.5 4.5t12.5 16.5q2 16 -6.5 20t-37.5 4h-43q-1 0 -2.5 5t2 14.5t16.5 22.5q8 7 17 15.5t19.5 17t21 15t18.5 9.5h45
l-64 -66q44 1 65 -2.5t26.5 -16t1.5 -39.5t-15.5 -39t-38 -14.5t-76.5 -2.5z" />
    <glyph glyph-name="Egrave" unicode="&#xc8;" horiz-adv-x="606" 
d="M31 0l56 399q3 23 6.5 36t16 19t39.5 6h462l-11 -86h-352l-14 -96h320l-12 -85h-319l-16 -107h352l-12 -86h-516zM350 521l-110 73l73 68l98 -141h-61z" />
    <glyph glyph-name="Eacute" unicode="&#xc9;" horiz-adv-x="606" 
d="M31 0l56 399q3 23 6.5 36t16 19t39.5 6h462l-11 -86h-352l-14 -96h320l-12 -85h-319l-16 -107h352l-12 -86h-516zM310 521l131 113l61 -40l-131 -73h-61z" />
    <glyph glyph-name="Ecircumflex" unicode="&#xca;" horiz-adv-x="606" 
d="M31 0l56 399q3 23 6.5 36t16 19t39.5 6h462l-11 -86h-352l-14 -96h320l-12 -85h-319l-16 -107h352l-12 -86h-516zM238 521l121 113h41l91 -113h-65l-55 53l-73 -53h-60z" />
    <glyph glyph-name="Edieresis" unicode="&#xcb;" horiz-adv-x="606" 
d="M456 520q-24 0 -37.5 6.5t-5.5 34.5q7 26 26 32t42 6t35.5 -7t5.5 -31q-8 -28 -24.5 -34.5t-41.5 -6.5zM273 520q-24 0 -37.5 6.5t-5.5 34.5q7 26 26 32t42 6t35 -7t6 -31q-8 -27 -25 -34t-41 -7zM31 0l56 399q3 23 6.5 36t16 19t39.5 6h462l-11 -86h-352l-14 -96h320
l-12 -85h-319l-16 -107h352l-12 -86h-516z" />
    <glyph glyph-name="Igrave" unicode="&#xcc;" horiz-adv-x="282" 
d="M31 0q14 102 28.5 204.5t28.5 203.5q2 17 6 28.5t16.5 17.5t38.5 6h110l-64 -460h-164zM177 521l-110 73l73 68l98 -141h-61z" />
    <glyph glyph-name="Iacute" unicode="&#xcd;" horiz-adv-x="282" 
d="M31 0q14 102 28.5 204.5t28.5 203.5q2 17 6 28.5t16.5 17.5t38.5 6h110l-64 -460h-164zM137 521l131 113l61 -40l-131 -73h-61z" />
    <glyph glyph-name="Icircumflex" unicode="&#xce;" horiz-adv-x="282" 
d="M31 0q14 102 28.5 204.5t28.5 203.5q2 17 6 28.5t16.5 17.5t38.5 6h110l-64 -460h-164zM65 521l121 113h41l91 -113h-65l-55 53l-73 -53h-60z" />
    <glyph glyph-name="Idieresis" unicode="&#xcf;" horiz-adv-x="282" 
d="M283 520q-23 0 -37 6.5t-6 34.5q7 26 26 32t42 6t35.5 -7t5.5 -31q-7 -28 -24 -34.5t-42 -6.5zM101 520q-25 0 -38 6.5t-6 34.5q7 26 26 32t42 6t35.5 -7t5.5 -31q-8 -27 -25 -34t-40 -7zM31 0q14 102 28.5 204.5t28.5 203.5q2 17 6 28.5t16.5 17.5t38.5 6h110l-64 -460
h-164z" />
    <glyph glyph-name="Eth" unicode="&#xd0;" horiz-adv-x="669" 
d="M314 -1h-73t-70 0.5t-65.5 0.5h-57.5l54 386q5 39 19.5 56t56.5 18q26 0 56.5 0.5t63.5 0.5h66.5h65.5q69 -1 115 -12t71 -36.5t31.5 -71t-3.5 -115.5q-10 -74 -32.5 -119t-60 -68.5t-95.5 -31.5t-142 -8zM332 82q37 0 63 8t43.5 25t27.5 44.5t16 66.5q7 52 4.5 83
t-15.5 46t-38 19.5t-63 4.5h-23t-27 -0.5t-26.5 -0.5t-22.5 -1q-3 -5 -6 -12.5t-5 -20.5l-37 -261h23t29.5 -0.5t30.5 -0.5h26zM33 254h326l-6 -48h-327z" />
    <glyph glyph-name="Ntilde" unicode="&#xd1;" horiz-adv-x="672" 
d="M31 0l56 404q4 23 9 35t17.5 16.5t38.5 4.5h155l177 -294l2 -23l44 317h121q-2 -2 -4.5 -12.5t-4 -23t-3.5 -22.5l-49 -353q-5 -33 -20 -41t-52 -8h-141l-182 300l-1 25l-46 -325h-117zM444 522q-20 -1 -37 9.5t-33 21.5t-37 9q-19 0 -32 -11.5t-18 -17.5l-24 23
q1 1 7 11.5t17.5 23.5t26.5 23.5t33 10.5q20 1 36.5 -9.5l33 -21t35.5 -10.5q22 0 36 12.5t20 21.5l24 -22q-1 0 -7.5 -11.5t-18.5 -26t-27.5 -25.5t-34.5 -11z" />
    <glyph glyph-name="Ograve" unicode="&#xd2;" horiz-adv-x="653" 
d="M296 -7q-79 0 -134 11t-87 37.5t-42 72.5t0 116q10 72 34 117.5t63.5 72t97.5 37.5t137 11q80 0 134.5 -11t86 -37.5t41.5 -72.5t1 -117q-10 -71 -34 -117t-63.5 -72.5t-97.5 -37t-137 -10.5zM309 78q34 0 59 6.5t42.5 23t29.5 46.5t19 76q6 47 2.5 76.5t-16.5 46
t-36.5 23t-56.5 6.5q-34 0 -59 -6.5t-43 -23t-29.5 -46t-18.5 -76.5q-6 -46 -3 -76t16.5 -46.5t37 -23t56.5 -6.5zM365 521l-110 73l73 68l98 -141h-61z" />
    <glyph glyph-name="Oacute" unicode="&#xd3;" horiz-adv-x="653" 
d="M296 -7q-79 0 -134 11t-87 37.5t-42 72.5t0 116q10 72 34 117.5t63.5 72t97.5 37.5t137 11q80 0 134.5 -11t86 -37.5t41.5 -72.5t1 -117q-10 -71 -34 -117t-63.5 -72.5t-97.5 -37t-137 -10.5zM309 78q34 0 59 6.5t42.5 23t29.5 46.5t19 76q6 47 2.5 76.5t-16.5 46
t-36.5 23t-56.5 6.5q-34 0 -59 -6.5t-43 -23t-29.5 -46t-18.5 -76.5q-6 -46 -3 -76t16.5 -46.5t37 -23t56.5 -6.5zM325 521l131 113l61 -40l-131 -73h-61z" />
    <glyph glyph-name="Ocircumflex" unicode="&#xd4;" horiz-adv-x="653" 
d="M296 -7q-79 0 -134 11t-87 37.5t-42 72.5t0 116q10 72 34 117.5t63.5 72t97.5 37.5t137 11q80 0 134.5 -11t86 -37.5t41.5 -72.5t1 -117q-10 -71 -34 -117t-63.5 -72.5t-97.5 -37t-137 -10.5zM309 78q34 0 59 6.5t42.5 23t29.5 46.5t19 76q6 47 2.5 76.5t-16.5 46
t-36.5 23t-56.5 6.5q-34 0 -59 -6.5t-43 -23t-29.5 -46t-18.5 -76.5q-6 -46 -3 -76t16.5 -46.5t37 -23t56.5 -6.5zM252 521l121 113h41l91 -113h-65l-55 53l-73 -53h-60z" />
    <glyph glyph-name="Otilde" unicode="&#xd5;" horiz-adv-x="653" 
d="M296 -7q-79 0 -134 11t-87 37.5t-42 72.5t0 116q10 72 34 117.5t63.5 72t97.5 37.5t137 11q80 0 134.5 -11t86 -37.5t41.5 -72.5t1 -117q-10 -71 -34 -117t-63.5 -72.5t-97.5 -37t-137 -10.5zM309 78q34 0 59 6.5t42.5 23t29.5 46.5t19 76q6 47 2.5 76.5t-16.5 46
t-36.5 23t-56.5 6.5q-34 0 -59 -6.5t-43 -23t-29.5 -46t-18.5 -76.5q-6 -46 -3 -76t16.5 -46.5t37 -23t56.5 -6.5zM437 522q-20 -1 -37 9.5t-33 21.5t-37 9q-19 0 -32 -11.5t-18 -17.5l-24 23q1 1 7 11.5t17.5 23.5t26.5 23.5t33 10.5q20 1 36.5 -9.5l33 -21t35.5 -10.5
q22 0 36 12.5t20 21.5l24 -22q-1 0 -7.5 -11.5t-18.5 -26t-27.5 -25.5t-34.5 -11z" />
    <glyph glyph-name="Odieresis" unicode="&#xd6;" horiz-adv-x="653" 
d="M471 520q-24 0 -37.5 6.5t-5.5 34.5q6 26 25 32t42 6t35.5 -7t6.5 -31q-8 -28 -24.5 -34.5t-41.5 -6.5zM288 520q-24 0 -37.5 6.5t-5.5 34.5q6 26 25 32t42 6t35.5 -7t5.5 -31q-8 -27 -24.5 -34t-40.5 -7zM296 -7q-79 0 -134 11t-87 37.5t-42 72.5t0 116q10 72 34 117.5
t63.5 72t97.5 37.5t137 11q80 0 134.5 -11t86 -37.5t41.5 -72.5t1 -117q-10 -71 -34 -117t-63.5 -72.5t-97.5 -37t-137 -10.5zM309 78q34 0 59 6.5t42.5 23t29.5 46.5t19 76q6 47 2.5 76.5t-16.5 46t-36.5 23t-56.5 6.5q-34 0 -59 -6.5t-43 -23t-29.5 -46t-18.5 -76.5
q-6 -46 -3 -76t16.5 -46.5t37 -23t56.5 -6.5z" />
    <glyph glyph-name="multiply" unicode="&#xd7;" horiz-adv-x="412" 
d="M148 195l-114 128l66 51l106 -120l107 119l67 -51l-108 -123l107 -114l-70 -56l-100 113l-104 -114l-67 49z" />
    <glyph glyph-name="Oslash" unicode="&#xd8;" horiz-adv-x="647" 
d="M28 230q12 83 43.5 131t77.5 71t101.5 29.5t115.5 6.5q61 0 112 -7.5t88 -30.5t52.5 -71t3.5 -129q-12 -83 -43 -131t-77 -70.5t-101.5 -29t-115.5 -6.5q-62 0 -114 7t-88 30.5t-51 71t-4 128.5zM459 229q7 51 2 81t-20.5 46t-39 21t-55.5 5t-57.5 -5t-45 -21t-33 -46
t-21.5 -81q-7 -50 -2 -81t20.5 -46.5t39.5 -20.5t56 -5t57.5 5t45 20.5t33 46.5t20.5 81zM130 -85l320 610h46l-322 -610h-44z" />
    <glyph glyph-name="Ugrave" unicode="&#xd9;" horiz-adv-x="645" 
d="M601 228q-7 -47 -16 -84t-27 -64.5t-50 -45.5t-84 -27t-132 -9t-130.5 9t-77 27t-35 44t-6.5 61t8 78l24 169q5 31 9 47t17.5 21.5t44.5 5.5h104l-39 -275q-5 -42 2.5 -63t31 -27.5t61.5 -6.5q61 0 88.5 21t35.5 75l39 276h101q33 0 45 -5.5t12 -21.5t-4 -47zM352 521
l-110 73l73 68l98 -141h-61z" />
    <glyph glyph-name="Uacute" unicode="&#xda;" horiz-adv-x="645" 
d="M601 228q-7 -47 -16 -84t-27 -64.5t-50 -45.5t-84 -27t-132 -9t-130.5 9t-77 27t-35 44t-6.5 61t8 78l24 169q5 31 9 47t17.5 21.5t44.5 5.5h104l-39 -275q-5 -42 2.5 -63t31 -27.5t61.5 -6.5q61 0 88.5 21t35.5 75l39 276h101q33 0 45 -5.5t12 -21.5t-4 -47zM312 521
l131 113l61 -40l-131 -73h-61z" />
    <glyph glyph-name="Ucircumflex" unicode="&#xdb;" horiz-adv-x="645" 
d="M601 228q-7 -47 -16 -84t-27 -64.5t-50 -45.5t-84 -27t-132 -9t-130.5 9t-77 27t-35 44t-6.5 61t8 78l24 169q5 31 9 47t17.5 21.5t44.5 5.5h104l-39 -275q-5 -42 2.5 -63t31 -27.5t61.5 -6.5q61 0 88.5 21t35.5 75l39 276h101q33 0 45 -5.5t12 -21.5t-4 -47zM240 521
l121 113h41l91 -113h-65l-55 53l-73 -53h-60z" />
    <glyph glyph-name="Udieresis" unicode="&#xdc;" horiz-adv-x="645" 
d="M458 520q-24 0 -37.5 6.5t-5.5 34.5q7 26 26 32t42 6t35.5 -7t5.5 -31q-8 -28 -24.5 -34.5t-41.5 -6.5zM275 520q-24 0 -37.5 6.5t-5.5 34.5q7 26 26 32t42 6t35 -7t6 -31q-8 -27 -25 -34t-41 -7zM601 228q-7 -47 -16 -84t-27 -64.5t-50 -45.5t-84 -27t-132 -9t-130.5 9
t-77 27t-35 44t-6.5 61t8 78l24 169q5 31 9 47t17.5 21.5t44.5 5.5h104l-39 -275q-5 -42 2.5 -63t31 -27.5t61.5 -6.5q61 0 88.5 21t35.5 75l39 276h101q33 0 45 -5.5t12 -21.5t-4 -47z" />
    <glyph glyph-name="Yacute" unicode="&#xdd;" horiz-adv-x="593" 
d="M190 0l25 183l-160 252l-18 25h228l90 -167l131 167h148l-30 -28l-225 -249l-17 -123q-2 -25 -10 -38t-24.5 -17.5t-45.5 -4.5h-92zM339 521l131 113l61 -40l-131 -73h-61z" />
    <glyph glyph-name="Thorn" unicode="&#xde;" horiz-adv-x="613" 
d="M58 443q4 24 10 35.5t18 15t34 3.5h79l-11 -82h228q68 0 100 -16t38.5 -48.5t-1.5 -84.5q-7 -48 -26.5 -82t-59 -52t-106.5 -18h-215l-16 -114h-134zM177 334l-19 -138h210q13 0 23.5 5.5t18 21t11.5 43.5q4 30 0 44t-13.5 19t-23.5 5h-207z" />
    <glyph glyph-name="germandbls" unicode="&#xdf;" horiz-adv-x="784" 
d="M-29 -106q2 -1 12.5 -2.5t24 -1.5h23.5q29 0 51 21.5t27 59.5q6 43 10.5 73.5t8 54.5t6.5 48t7.5 54.5t10.5 73.5h-20.5h-31.5h-21q1 3 1.5 7.5t2.5 20t7 49.5h21h31.5h20.5l5 41q7 46 41 70.5t95 33.5t148 9q84 0 130.5 -7.5t62.5 -29t8 -64.5q-4 -31 -18 -47t-28 -21.5
t-23 -5.5q-26 0 -47 -3.5t-34 -13.5t-16 -31q-2 -16 7.5 -25t26.5 -11.5t35 -2.5h52h42q38 0 60 -13t30 -38.5t3 -63.5q-8 -57 -36.5 -86t-73.5 -38.5t-102 -9.5q-32 0 -64.5 0.5t-62 3t-54 10t-38.5 21.5v56q17 -9 45.5 -14.5t60.5 -7.5t57 -2q47 0 73.5 5t38.5 17t14 33
q4 25 -7.5 33.5t-40.5 8.5q-19 0 -33 0.5t-27.5 1t-32.5 0.5q-38 0 -65.5 7.5t-40 31t-6.5 68.5q7 49 31 74t65.5 33.5t98.5 8.5q7 31 -1.5 45t-32.5 17.5t-63 3.5q-27 0 -55.5 -7t-50 -27t-27.5 -58l-54 -387q-6 -39 -21.5 -64.5t-36 -40t-44 -21.5t-44.5 -9t-36 -2
q-42 0 -67 3.5t-34 16.5t-5 40z" />
    <glyph glyph-name="agrave" unicode="&#xe0;" horiz-adv-x="534" 
d="M224 -5q-70 0 -112.5 4.5t-63.5 17.5t-26 37t0 62q7 51 21 77.5t40.5 36.5t67.5 10q26 0 58 -0.5t63.5 -1.5t54.5 -3.5t32 -4.5q4 31 1.5 49t-13.5 27.5t-30.5 12.5t-48.5 3q-34 0 -69.5 -1t-68 -4t-60.5 -7l5 28q4 27 17.5 40t34.5 17q23 5 69.5 7t99.5 2q67 0 111.5 -7
t68 -25t29.5 -53.5t-2 -94.5l-29 -199q-18 -15 -82.5 -22.5t-167.5 -7.5zM232 57q40 0 66.5 3t38.5 10l15 112q-10 3 -29.5 5t-39 3t-31.5 1q-24 0 -39.5 -4t-23.5 -18t-13 -43q-3 -25 -0.5 -40.5t16 -22t40.5 -6.5zM301 460l-130 90l73 39l118 -129h-61z" />
    <glyph glyph-name="aacute" unicode="&#xe1;" horiz-adv-x="534" 
d="M224 -5q-70 0 -112.5 4.5t-63.5 17.5t-26 37t0 62q7 51 21 77.5t40.5 36.5t67.5 10q26 0 58 -0.5t63.5 -1.5t54.5 -3.5t32 -4.5q4 31 1.5 49t-13.5 27.5t-30.5 12.5t-48.5 3q-34 0 -69.5 -1t-68 -4t-60.5 -7l5 28q4 27 17.5 40t34.5 17q23 5 69.5 7t99.5 2q67 0 111.5 -7
t68 -25t29.5 -53.5t-2 -94.5l-29 -199q-18 -15 -82.5 -22.5t-167.5 -7.5zM232 57q40 0 66.5 3t38.5 10l15 112q-10 3 -29.5 5t-39 3t-31.5 1q-24 0 -39.5 -4t-23.5 -18t-13 -43q-3 -25 -0.5 -40.5t16 -22t40.5 -6.5zM240 460l154 129l62 -39l-155 -90h-61z" />
    <glyph glyph-name="acircumflex" unicode="&#xe2;" horiz-adv-x="534" 
d="M224 -5q-70 0 -112.5 4.5t-63.5 17.5t-26 37t0 62q7 51 21 77.5t40.5 36.5t67.5 10q26 0 58 -0.5t63.5 -1.5t54.5 -3.5t32 -4.5q4 31 1.5 49t-13.5 27.5t-30.5 12.5t-48.5 3q-34 0 -69.5 -1t-68 -4t-60.5 -7l5 28q4 27 17.5 40t34.5 17q23 5 69.5 7t99.5 2q67 0 111.5 -7
t68 -25t29.5 -53.5t-2 -94.5l-29 -199q-18 -15 -82.5 -22.5t-167.5 -7.5zM232 57q40 0 66.5 3t38.5 10l15 112q-10 3 -29.5 5t-39 3t-31.5 1q-24 0 -39.5 -4t-23.5 -18t-13 -43q-3 -25 -0.5 -40.5t16 -22t40.5 -6.5zM177 460l124 133h41l89 -133h-65l-54 69l-75 -69h-60z
" />
    <glyph glyph-name="atilde" unicode="&#xe3;" horiz-adv-x="534" 
d="M224 -5q-70 0 -112.5 4.5t-63.5 17.5t-26 37t0 62q7 51 21 77.5t40.5 36.5t67.5 10q26 0 58 -0.5t63.5 -1.5t54.5 -3.5t32 -4.5q4 31 1.5 49t-13.5 27.5t-30.5 12.5t-48.5 3q-34 0 -69.5 -1t-68 -4t-60.5 -7l5 28q4 27 17.5 40t34.5 17q23 5 69.5 7t99.5 2q67 0 111.5 -7
t68 -25t29.5 -53.5t-2 -94.5l-29 -199q-18 -15 -82.5 -22.5t-167.5 -7.5zM232 57q40 0 66.5 3t38.5 10l15 112q-10 3 -29.5 5t-39 3t-31.5 1q-24 0 -39.5 -4t-23.5 -18t-13 -43q-3 -25 -0.5 -40.5t16 -22t40.5 -6.5zM360 460q-19 0 -36 10.5t-33.5 21.5t-37.5 9
q-18 0 -30.5 -12t-17.5 -18l-25 23q1 1 7.5 11.5t17.5 24t26 23.5t32 10q20 2 37 -9t33 -21.5t35 -10.5q22 0 36 13t20 22l25 -21q-1 -1 -8 -12.5t-18.5 -26t-27.5 -26t-35 -11.5z" />
    <glyph glyph-name="adieresis" unicode="&#xe4;" horiz-adv-x="534" 
d="M224 -5q-70 0 -112.5 4.5t-63.5 17.5t-26 37t0 62q7 51 21 77.5t40.5 36.5t67.5 10q26 0 58 -0.5t63.5 -1.5t54.5 -3.5t32 -4.5q4 31 1.5 49t-13.5 27.5t-30.5 12.5t-48.5 3q-34 0 -69.5 -1t-68 -4t-60.5 -7l5 28q4 27 17.5 40t34.5 17q23 5 69.5 7t99.5 2q67 0 111.5 -7
t68 -25t29.5 -53.5t-2 -94.5l-29 -199q-18 -15 -82.5 -22.5t-167.5 -7.5zM232 57q40 0 66.5 3t38.5 10l15 112q-10 3 -29.5 5t-39 3t-31.5 1q-24 0 -39.5 -4t-23.5 -18t-13 -43q-3 -25 -0.5 -40.5t16 -22t40.5 -6.5zM394 459q-24 0 -38 6.5t-11 34.5q4 26 21.5 32t40.5 6
t37 -7t10 -31q-3 -28 -19 -34.5t-41 -6.5zM211 459q-24 0 -38 6.5t-11 34.5q4 26 21.5 32t40.5 6t36.5 -7t9.5 -31q-3 -27 -19 -34t-40 -7z" />
    <glyph glyph-name="aring" unicode="&#xe5;" horiz-adv-x="534" 
d="M224 -5q-70 0 -112.5 4.5t-63.5 17.5t-26 37t0 62q7 51 21 77.5t40.5 36.5t67.5 10q26 0 58 -0.5t63.5 -1.5t54.5 -3.5t32 -4.5q4 31 1.5 49t-13.5 27.5t-30.5 12.5t-48.5 3q-34 0 -69.5 -1t-68 -4t-60.5 -7l5 28q4 27 17.5 40t34.5 17q23 5 69.5 7t99.5 2q67 0 111.5 -7
t68 -25t29.5 -53.5t-2 -94.5l-29 -199q-18 -15 -82.5 -22.5t-167.5 -7.5zM232 57q40 0 66.5 3t38.5 10l15 112q-10 3 -29.5 5t-39 3t-31.5 1q-24 0 -39.5 -4t-23.5 -18t-13 -43q-3 -25 -0.5 -40.5t16 -22t40.5 -6.5zM300 454q-46 0 -69.5 16t-17.5 58t34 56t75 14
q48 0 72 -14t18 -56t-35 -58t-77 -16zM307 494q20 0 31.5 6t15.5 28q3 19 -7.5 25t-30.5 6q-19 0 -31 -6t-15 -25q-4 -22 6.5 -28t30.5 -6z" />
    <glyph glyph-name="ae" unicode="&#xe6;" horiz-adv-x="865" 
d="M224 -5q-70 0 -112.5 4.5t-63.5 17.5t-26 37t0 62q7 51 21 77.5t40.5 36.5t67.5 10q26 0 58 -0.5t63.5 -1.5t54.5 -3.5t32 -4.5q4 31 1.5 49t-13.5 27.5t-30.5 12.5t-48.5 3q-34 0 -69.5 -1t-68 -4t-60.5 -7l5 28q4 27 17.5 40t34.5 17q23 5 69.5 7t99.5 2q67 0 111.5 -7
t68 -25t29.5 -53.5t-2 -94.5l-29 -199q-18 -15 -82.5 -22.5t-167.5 -7.5zM232 57q40 0 66.5 3t38.5 10l15 112q-10 3 -29.5 5t-39 3t-31.5 1q-24 0 -39.5 -4t-23.5 -18t-13 -43q-3 -25 -0.5 -40.5t16 -22t40.5 -6.5zM562 -6q-70 0 -114 8.5t-67.5 30t-28.5 59.5t3 98
q12 79 40 125.5t85 66.5t154 20q114 0 155 -37t30 -116l-11 -77h-278q3 21 14.5 35.5t37.5 14.5h100l3 21q4 40 -9 61t-58 21q-37 0 -58.5 -11t-33.5 -39t-20 -83q-7 -47 -0.5 -71.5t30 -33t70.5 -8.5q17 0 46 1t60 2.5t54 3t29 3.5l-2 -18q-2 -14 -9 -29.5t-21 -25.5
q-20 -14 -68.5 -18t-132.5 -4z" />
    <glyph glyph-name="ccedilla" unicode="&#xe7;" horiz-adv-x="473" 
d="M251 -6q-88 0 -140.5 17.5t-71 60.5t-8.5 119q10 67 28 109t49.5 65t80.5 31.5t120 8.5q26 0 50 -2.5t59 -7.5q19 -2 30.5 -9t15.5 -23t0 -48q-11 4 -33.5 7.5t-47.5 5.5t-46 2q-50 0 -81.5 -12t-47.5 -40t-24 -77q-6 -48 2 -76t36 -40t79 -12q24 0 49.5 2t47.5 5.5
t34 7.5l-6 -40q-3 -25 -27.5 -36.5t-63 -14.5t-84.5 -3zM176 -179q-34 0 -43 7t-6 29h15h36q26 0 36.5 4.5t12.5 16.5q2 16 -6.5 20t-37.5 4h-43q-1 0 -2.5 5t2 14.5t16.5 22.5q8 7 17 15.5t19.5 17t21 15t18.5 9.5h45l-64 -66q44 1 65 -2.5t26.5 -16t1.5 -39.5t-15.5 -39
t-38 -14.5t-76.5 -2.5z" />
    <glyph glyph-name="egrave" unicode="&#xe8;" horiz-adv-x="514" 
d="M238 -6q-70 0 -114 8.5t-67.5 30t-28.5 59.5t3 98q12 79 40 125.5t85 66.5t154 20q114 0 155 -37t30 -116l-11 -77h-278q3 21 14.5 35.5t37.5 14.5h100l3 21q4 40 -9 61t-58 21q-37 0 -58.5 -11t-33.5 -39t-20 -83q-7 -47 -0.5 -71.5t30 -33t70.5 -8.5q17 0 46 1t60 2.5
t54 3t29 3.5l-2 -18q-2 -14 -9 -29.5t-21 -25.5q-20 -14 -68.5 -18t-132.5 -4zM313 460l-130 90l73 39l118 -129h-61z" />
    <glyph glyph-name="eacute" unicode="&#xe9;" horiz-adv-x="514" 
d="M238 -6q-70 0 -114 8.5t-67.5 30t-28.5 59.5t3 98q12 79 40 125.5t85 66.5t154 20q114 0 155 -37t30 -116l-11 -77h-278q3 21 14.5 35.5t37.5 14.5h100l3 21q4 40 -9 61t-58 21q-37 0 -58.5 -11t-33.5 -39t-20 -83q-7 -47 -0.5 -71.5t30 -33t70.5 -8.5q17 0 46 1t60 2.5
t54 3t29 3.5l-2 -18q-2 -14 -9 -29.5t-21 -25.5q-20 -14 -68.5 -18t-132.5 -4zM253 460l154 129l62 -39l-155 -90h-61z" />
    <glyph glyph-name="ecircumflex" unicode="&#xea;" horiz-adv-x="514" 
d="M238 -6q-70 0 -114 8.5t-67.5 30t-28.5 59.5t3 98q12 79 40 125.5t85 66.5t154 20q114 0 155 -37t30 -116l-11 -77h-278q3 21 14.5 35.5t37.5 14.5h100l3 21q4 40 -9 61t-58 21q-37 0 -58.5 -11t-33.5 -39t-20 -83q-7 -47 -0.5 -71.5t30 -33t70.5 -8.5q17 0 46 1t60 2.5
t54 3t29 3.5l-2 -18q-2 -14 -9 -29.5t-21 -25.5q-20 -14 -68.5 -18t-132.5 -4zM189 460l124 133h41l89 -133h-65l-54 69l-75 -69h-60z" />
    <glyph glyph-name="edieresis" unicode="&#xeb;" horiz-adv-x="514" 
d="M238 -6q-70 0 -114 8.5t-67.5 30t-28.5 59.5t3 98q12 79 40 125.5t85 66.5t154 20q114 0 155 -37t30 -116l-11 -77h-278q3 21 14.5 35.5t37.5 14.5h100l3 21q4 40 -9 61t-58 21q-37 0 -58.5 -11t-33.5 -39t-20 -83q-7 -47 -0.5 -71.5t30 -33t70.5 -8.5q17 0 46 1t60 2.5
t54 3t29 3.5l-2 -18q-2 -14 -9 -29.5t-21 -25.5q-20 -14 -68.5 -18t-132.5 -4zM407 459q-24 0 -38 6.5t-11 34.5q4 26 21.5 32t40.5 6t37 -7t10 -31q-3 -28 -19 -34.5t-41 -6.5zM224 459q-24 0 -38 6.5t-11 34.5q4 26 21.5 32t40.5 6t36.5 -7t9.5 -31q-3 -27 -19 -34t-40 -7
z" />
    <glyph glyph-name="igrave" unicode="&#xec;" horiz-adv-x="311" 
d="M239 399q-9 -66 -18.5 -133t-18.5 -134q-6 -40 -1 -59t38 -19q7 0 15 2t11 4l-8 -55q-7 -1 -27.5 -5t-56.5 -4q-49 0 -76.5 7t-39.5 19.5t-14 28.5t1 34t6 37q4 31 9.5 69.5t11.5 78t10.5 73.5t7.5 56h75h75zM170 460l-130 90l73 39l118 -129h-61z" />
    <glyph glyph-name="iacute" unicode="&#xed;" horiz-adv-x="311" 
d="M239 399q-9 -66 -18.5 -133t-18.5 -134q-6 -40 -1 -59t38 -19q7 0 15 2t11 4l-8 -55q-7 -1 -27.5 -5t-56.5 -4q-49 0 -76.5 7t-39.5 19.5t-14 28.5t1 34t6 37q4 31 9.5 69.5t11.5 78t10.5 73.5t7.5 56h75h75zM110 460l154 129l62 -39l-155 -90h-61z" />
    <glyph glyph-name="icircumflex" unicode="&#xee;" horiz-adv-x="311" 
d="M239 399q-9 -66 -18.5 -133t-18.5 -134q-6 -40 -1 -59t38 -19q7 0 15 2t11 4l-8 -55q-7 -1 -27.5 -5t-56.5 -4q-49 0 -76.5 7t-39.5 19.5t-14 28.5t1 34t6 37q4 31 9.5 69.5t11.5 78t10.5 73.5t7.5 56h75h75zM46 460l124 133h41l89 -133h-65l-54 69l-75 -69h-60z" />
    <glyph glyph-name="idieresis" unicode="&#xef;" horiz-adv-x="311" 
d="M239 399q-9 -66 -18.5 -133t-18.5 -134q-6 -40 -1 -59t38 -19q7 0 15 2t11 4l-8 -55q-7 -1 -27.5 -5t-56.5 -4q-49 0 -76.5 7t-39.5 19.5t-14 28.5t1 34t6 37q4 31 9.5 69.5t11.5 78t10.5 73.5t7.5 56h75h75zM263 459q-24 0 -38 6.5t-11 34.5q4 26 21.5 32t40.5 6t37 -7
t10 -31q-3 -28 -19 -34.5t-41 -6.5zM80 459q-24 0 -38 6.5t-11 34.5q4 26 21.5 32t40.5 6t36.5 -7t9.5 -31q-3 -27 -19 -34t-40 -7z" />
    <glyph glyph-name="eth" unicode="&#xf0;" horiz-adv-x="542" 
d="M113 457l198 200l33 -32l-200 -199zM15 191q8 62 29 100t50.5 58.5t64 28t70.5 8.5h24.5h25.5q-11 15 -29 38t-39.5 48t-40 47.5t-29.5 35.5q12 13 30 29.5t36.5 33.5t33.5 31t20 19q59 -68 101.5 -118t70.5 -89t43.5 -74.5t20.5 -74.5q-1 -9 -4.5 -31t-7 -46t-6.5 -42
q-10 -66 -26.5 -106t-44 -59t-70.5 -25t-107 -6q-60 0 -104.5 4.5t-73 22.5t-38.5 58t0 109zM338 250q0 17 -4.5 28t-15.5 16q-5 6 -10.5 12.5t-12.5 12.5q-7 1 -15 1h-17q-26 0 -46.5 -8t-33.5 -33.5t-21 -79.5q-7 -51 -1 -76.5t24 -33.5t44 -8q27 0 47 8t34 33.5t21 76.5
q1 5 2.5 15.5l3 21t1.5 14.5z" />
    <glyph glyph-name="ntilde" unicode="&#xf1;" horiz-adv-x="528" 
d="M55 0q-38 0 -32 39l47 336q19 7 51.5 13t77 10t98.5 4q76 0 119.5 -8.5t62 -29t20.5 -54.5t-6 -85l-24 -169q-3 -22 -8 -34.5t-18 -17.5t-39 -5l-91 1l36 260q5 33 -12.5 47t-50.5 14q-24 0 -45.5 -5t-32.5 -13l-42 -303h-111zM362 460q-19 0 -36 10.5t-33.5 21.5
t-37.5 9q-18 0 -30.5 -12t-17.5 -18l-25 23q1 1 7.5 11.5t17.5 24t26 23.5t32 10q20 2 37 -9t33 -21.5t35 -10.5q22 0 36 13t20 22l25 -21q-1 -1 -8 -12.5t-18.5 -26t-27.5 -26t-35 -11.5z" />
    <glyph glyph-name="ograve" unicode="&#xf2;" horiz-adv-x="530" 
d="M241 -6q-57 0 -100 9t-70 31.5t-37 63t-2 101.5q10 66 30.5 106.5t53 62t76.5 29t100 7.5q57 0 99.5 -9t69 -31.5t36 -62.5t1.5 -102q-10 -66 -30 -106.5t-52 -62t-75.5 -29t-99.5 -7.5zM248 67q27 0 46.5 10.5t32.5 39t20 82.5q8 54 3 82.5t-21.5 39t-43.5 10.5
t-47 -10.5t-33.5 -39t-21.5 -82.5t-2 -82.5t23 -39t44 -10.5zM303 460l-130 90l73 39l118 -129h-61z" />
    <glyph glyph-name="oacute" unicode="&#xf3;" horiz-adv-x="530" 
d="M241 -6q-57 0 -100 9t-70 31.5t-37 63t-2 101.5q10 66 30.5 106.5t53 62t76.5 29t100 7.5q57 0 99.5 -9t69 -31.5t36 -62.5t1.5 -102q-10 -66 -30 -106.5t-52 -62t-75.5 -29t-99.5 -7.5zM248 67q27 0 46.5 10.5t32.5 39t20 82.5q8 54 3 82.5t-21.5 39t-43.5 10.5
t-47 -10.5t-33.5 -39t-21.5 -82.5t-2 -82.5t23 -39t44 -10.5zM243 460l154 129l62 -39l-155 -90h-61z" />
    <glyph glyph-name="ocircumflex" unicode="&#xf4;" horiz-adv-x="530" 
d="M241 -6q-57 0 -100 9t-70 31.5t-37 63t-2 101.5q10 66 30.5 106.5t53 62t76.5 29t100 7.5q57 0 99.5 -9t69 -31.5t36 -62.5t1.5 -102q-10 -66 -30 -106.5t-52 -62t-75.5 -29t-99.5 -7.5zM248 67q27 0 46.5 10.5t32.5 39t20 82.5q8 54 3 82.5t-21.5 39t-43.5 10.5
t-47 -10.5t-33.5 -39t-21.5 -82.5t-2 -82.5t23 -39t44 -10.5zM179 460l124 133h41l89 -133h-65l-54 69l-75 -69h-60z" />
    <glyph glyph-name="otilde" unicode="&#xf5;" horiz-adv-x="530" 
d="M241 -6q-57 0 -100 9t-70 31.5t-37 63t-2 101.5q10 66 30.5 106.5t53 62t76.5 29t100 7.5q57 0 99.5 -9t69 -31.5t36 -62.5t1.5 -102q-10 -66 -30 -106.5t-52 -62t-75.5 -29t-99.5 -7.5zM248 67q27 0 46.5 10.5t32.5 39t20 82.5q8 54 3 82.5t-21.5 39t-43.5 10.5
t-47 -10.5t-33.5 -39t-21.5 -82.5t-2 -82.5t23 -39t44 -10.5zM363 460q-19 0 -36 10.5t-33.5 21.5t-37.5 9q-18 0 -30.5 -12t-17.5 -18l-25 23q1 1 7.5 11.5t17.5 24t26 23.5t32 10q20 2 37 -9t33 -21.5t35 -10.5q22 0 36 13t20 22l25 -21q-1 -1 -8 -12.5t-18.5 -26
t-27.5 -26t-35 -11.5z" />
    <glyph glyph-name="odieresis" unicode="&#xf6;" horiz-adv-x="530" 
d="M241 -6q-57 0 -100 9t-70 31.5t-37 63t-2 101.5q10 66 30.5 106.5t53 62t76.5 29t100 7.5q57 0 99.5 -9t69 -31.5t36 -62.5t1.5 -102q-10 -66 -30 -106.5t-52 -62t-75.5 -29t-99.5 -7.5zM248 67q27 0 46.5 10.5t32.5 39t20 82.5q8 54 3 82.5t-21.5 39t-43.5 10.5
t-47 -10.5t-33.5 -39t-21.5 -82.5t-2 -82.5t23 -39t44 -10.5zM397 459q-24 0 -38 6.5t-11 34.5q4 26 21.5 32t40.5 6t37 -7t10 -31q-3 -28 -19 -34.5t-41 -6.5zM214 459q-24 0 -38 6.5t-11 34.5q4 26 21.5 32t40.5 6t36.5 -7t9.5 -31q-3 -27 -19 -34t-40 -7z" />
    <glyph glyph-name="divide" unicode="&#xf7;" horiz-adv-x="542" 
d="M53 217h406l-8 -53h-406zM176 52q5 33 24 41t44 8t39 -9t10 -40q-3 -24 -12 -34t-22 -12.5t-31 -2.5q-16 0 -29 2.5t-19.5 12.5t-3.5 34zM213 324q5 33 24 41t44 8q26 0 40 -8.5t9 -40.5q-4 -35 -21.5 -42.5t-43.5 -7.5q-16 0 -29 3t-19.5 13.5t-3.5 33.5z" />
    <glyph glyph-name="oslash" unicode="&#xf8;" horiz-adv-x="531" 
d="M32 199q10 72 35.5 113.5t62.5 61t81 25t92 5.5t89 -6t70 -26.5t41 -61.5t2 -111q-10 -72 -35.5 -113.5t-62 -61t-81 -25t-92.5 -5.5t-89 6t-70 26.5t-41 61.5t-2 111zM360 197q8 59 1 87t-26.5 37t-48.5 9q-28 0 -50 -9t-37 -37t-23 -87q-8 -58 -1 -86t26.5 -37t48.5 -9
q28 0 50 9t37 37t23 86zM78 -85l302 522h51l-302 -522h-51z" />
    <glyph glyph-name="ugrave" unicode="&#xf9;" horiz-adv-x="524" 
d="M215 399l-36 -259q-5 -36 10.5 -50.5t54.5 -14.5q41 0 60 15.5t24 48.5l36 260h13t28 0.5t29 0.5h16q24 0 37.5 -2.5t18 -12.5t1.5 -35l-27 -194q-7 -45 -21 -76t-41.5 -50t-73 -27.5t-114.5 -8.5q-87 0 -133 12.5t-60.5 45.5t-5.5 93l28 205q4 29 15.5 39.5t45.5 10.5
q24 0 47.5 -0.5t47.5 -0.5zM298 460l-130 90l73 39l118 -129h-61z" />
    <glyph glyph-name="uacute" unicode="&#xfa;" horiz-adv-x="524" 
d="M215 399l-36 -259q-5 -36 10.5 -50.5t54.5 -14.5q41 0 60 15.5t24 48.5l36 260h13t28 0.5t29 0.5h16q24 0 37.5 -2.5t18 -12.5t1.5 -35l-27 -194q-7 -45 -21 -76t-41.5 -50t-73 -27.5t-114.5 -8.5q-87 0 -133 12.5t-60.5 45.5t-5.5 93l28 205q4 29 15.5 39.5t45.5 10.5
q24 0 47.5 -0.5t47.5 -0.5zM237 460l154 129l62 -39l-155 -90h-61z" />
    <glyph glyph-name="ucircumflex" unicode="&#xfb;" horiz-adv-x="524" 
d="M215 399l-36 -259q-5 -36 10.5 -50.5t54.5 -14.5q41 0 60 15.5t24 48.5l36 260h13t28 0.5t29 0.5h16q24 0 37.5 -2.5t18 -12.5t1.5 -35l-27 -194q-7 -45 -21 -76t-41.5 -50t-73 -27.5t-114.5 -8.5q-87 0 -133 12.5t-60.5 45.5t-5.5 93l28 205q4 29 15.5 39.5t45.5 10.5
q24 0 47.5 -0.5t47.5 -0.5zM174 460l124 133h41l89 -133h-65l-54 69l-75 -69h-60z" />
    <glyph glyph-name="udieresis" unicode="&#xfc;" horiz-adv-x="524" 
d="M215 399l-36 -259q-5 -36 10.5 -50.5t54.5 -14.5q41 0 60 15.5t24 48.5l36 260h13t28 0.5t29 0.5h16q24 0 37.5 -2.5t18 -12.5t1.5 -35l-27 -194q-7 -45 -21 -76t-41.5 -50t-73 -27.5t-114.5 -8.5q-87 0 -133 12.5t-60.5 45.5t-5.5 93l28 205q4 29 15.5 39.5t45.5 10.5
q24 0 47.5 -0.5t47.5 -0.5zM391 459q-24 0 -38 6.5t-11 34.5q4 26 21.5 32t40.5 6t37 -7t10 -31q-3 -28 -19 -34.5t-41 -6.5zM208 459q-24 0 -38 6.5t-11 34.5q4 26 21.5 32t40.5 6t36.5 -7t9.5 -31q-3 -27 -19 -34t-40 -7z" />
    <glyph glyph-name="yacute" unicode="&#xfd;" horiz-adv-x="519" 
d="M208 -111q-57 0 -105 5t-76 16.5t-26 29.5l6 43q15 -9 43 -15t61 -9.5t61 -3.5q48 0 76.5 10.5t43 33.5t19.5 59l6 39q-14 -20 -34 -31.5t-49.5 -16t-72.5 -4.5q-65 0 -94 20.5t-33.5 57.5t2.5 86l19 138q2 15 6.5 27t16.5 18.5t36 6.5h101q-4 -26 -6.5 -45t-4.5 -35.5
t-4.5 -35.5t-6.5 -45q-8 -57 -4.5 -83t18.5 -33t39 -7q25 0 41.5 8t27.5 33t18 77l23 166h104q24 0 35.5 -7.5t7.5 -35.5l-41 -289q-13 -90 -72 -134t-182 -44zM231 460l154 129l62 -39l-155 -90h-61z" />
    <glyph glyph-name="thorn" unicode="&#xfe;" horiz-adv-x="524" 
d="M1 -107l79 560q4 32 16 42t41 10h91l-19 -137q8 1 17.5 2t18.5 1h14q57 0 104 -4t80.5 -21t48.5 -53t6 -98q-9 -63 -32 -98t-60 -50t-87 -18.5t-112 -3.5q-7 0 -21 0.5t-25 2.5l-19 -135h-141zM353 198q7 46 -3 69.5t-36 32t-69 9.5q-11 0 -24 -1t-21 -2l-30 -213
q11 -1 23 -1.5t25 -0.5q43 2 70.5 10t43 31t21.5 66z" />
    <glyph glyph-name="ydieresis" unicode="&#xff;" horiz-adv-x="519" 
d="M208 -111q-57 0 -105 5t-76 16.5t-26 29.5l6 43q15 -9 43 -15t61 -9.5t61 -3.5q48 0 76.5 10.5t43 33.5t19.5 59l6 39q-14 -20 -34 -31.5t-49.5 -16t-72.5 -4.5q-65 0 -94 20.5t-33.5 57.5t2.5 86l19 138q2 15 6.5 27t16.5 18.5t36 6.5h101q-4 -26 -6.5 -45t-4.5 -35.5
t-4.5 -35.5t-6.5 -45q-8 -57 -4.5 -83t18.5 -33t39 -7q25 0 41.5 8t27.5 33t18 77l23 166h104q24 0 35.5 -7.5t7.5 -35.5l-41 -289q-13 -90 -72 -134t-182 -44zM384 459q-24 0 -38 6.5t-11 34.5q4 26 21.5 32t40.5 6t37 -7t10 -31q-3 -28 -19 -34.5t-41 -6.5zM201 459
q-24 0 -38 6.5t-11 34.5q4 26 21.5 32t40.5 6t36.5 -7t9.5 -31q-3 -27 -19 -34t-40 -7z" />
    <glyph glyph-name="Amacron" unicode="&#x100;" horiz-adv-x="605" 
d="M-27 0l213 382q22 39 55 60.5t98 21.5q52 0 82 -20t41 -62l106 -382h-177l-29 103h-208l-56 -103h-125zM188 166h152l-34 140q-1 8 -4.5 14.5t-13.5 6.5q-11 0 -16 -6.5t-9 -14.5zM205 521l7 58h280l-8 -58h-279z" />
    <glyph glyph-name="amacron" unicode="&#x101;" horiz-adv-x="534" 
d="M224 -5q-70 0 -112.5 4.5t-63.5 17.5t-26 37t0 62q7 51 21 77.5t40.5 36.5t67.5 10q26 0 58 -0.5t63.5 -1.5t54.5 -3.5t32 -4.5q4 31 1.5 49t-13.5 27.5t-30.5 12.5t-48.5 3q-34 0 -69.5 -1t-68 -4t-60.5 -7l5 28q4 27 17.5 40t34.5 17q23 5 69.5 7t99.5 2q67 0 111.5 -7
t68 -25t29.5 -53.5t-2 -94.5l-29 -199q-18 -15 -82.5 -22.5t-167.5 -7.5zM232 57q40 0 66.5 3t38.5 10l15 112q-10 3 -29.5 5t-39 3t-31.5 1q-24 0 -39.5 -4t-23.5 -18t-13 -43q-3 -25 -0.5 -40.5t16 -22t40.5 -6.5zM165 460l7 60h277l-7 -60h-277z" />
    <glyph glyph-name="Abreve" unicode="&#x102;" horiz-adv-x="605" 
d="M-27 0l213 382q22 39 55 60.5t98 21.5q52 0 82 -20t41 -62l106 -382h-177l-29 103h-208l-56 -103h-125zM188 166h152l-34 140q-1 8 -4.5 14.5t-13.5 6.5q-11 0 -16 -6.5t-9 -14.5zM343 519q-64 0 -86.5 31.5t-16.5 83.5h57q-4 -34 8.5 -46.5t45.5 -12.5q34 0 49.5 12
t18.5 47h59q-5 -66 -37 -90.5t-98 -24.5z" />
    <glyph glyph-name="abreve" unicode="&#x103;" horiz-adv-x="534" 
d="M224 -5q-70 0 -112.5 4.5t-63.5 17.5t-26 37t0 62q7 51 21 77.5t40.5 36.5t67.5 10q26 0 58 -0.5t63.5 -1.5t54.5 -3.5t32 -4.5q4 31 1.5 49t-13.5 27.5t-30.5 12.5t-48.5 3q-34 0 -69.5 -1t-68 -4t-60.5 -7l5 28q4 27 17.5 40t34.5 17q23 5 69.5 7t99.5 2q67 0 111.5 -7
t68 -25t29.5 -53.5t-2 -94.5l-29 -199q-18 -15 -82.5 -22.5t-167.5 -7.5zM232 57q40 0 66.5 3t38.5 10l15 112q-10 3 -29.5 5t-39 3t-31.5 1q-24 0 -39.5 -4t-23.5 -18t-13 -43q-3 -25 -0.5 -40.5t16 -22t40.5 -6.5zM304 458q-49 0 -73.5 12t-30 40.5t1.5 78.5h55
q-5 -43 6.5 -59t47.5 -16q41 0 55 18t19 57h57q-6 -51 -20 -79.5t-41.5 -40t-76.5 -11.5z" />
    <glyph glyph-name="Aogonek" unicode="&#x104;" horiz-adv-x="605" 
d="M-27 0l213 382q22 39 55 60.5t98 21.5q52 0 82 -20t41 -62l106 -382h-177l-29 103h-208l-56 -103h-125zM188 166h152l-34 140q-1 8 -4.5 14.5t-13.5 6.5q-11 0 -16 -6.5t-9 -14.5zM432 -184q-39 0 -59 9t-25 27t-2 43q4 30 23.5 53.5t43 39t40.5 22.5h70
q-9 -3 -25.5 -12.5t-35 -23t-32 -29t-15.5 -30.5q-4 -29 11 -36t40 -7q20 0 29 0.5t12 1t5 0.5q-3 -20 -9.5 -33t-22.5 -19t-48 -6z" />
    <glyph glyph-name="aogonek" unicode="&#x105;" horiz-adv-x="534" 
d="M224 -5q-70 0 -112.5 4.5t-63.5 17.5t-26 37t0 62q7 51 21 77.5t40.5 36.5t67.5 10q26 0 58 -0.5t63.5 -1.5t54.5 -3.5t32 -4.5q4 31 1.5 49t-13.5 27.5t-30.5 12.5t-48.5 3q-34 0 -69.5 -1t-68 -4t-60.5 -7l5 28q4 27 17.5 40t34.5 17q23 5 69.5 7t99.5 2q67 0 111.5 -7
t68 -25t29.5 -53.5t-2 -94.5l-29 -199q-18 -15 -82.5 -22.5t-167.5 -7.5zM232 57q40 0 66.5 3t38.5 10l15 112q-10 3 -29.5 5t-39 3t-31.5 1q-24 0 -39.5 -4t-23.5 -18t-13 -43q-3 -25 -0.5 -40.5t16 -22t40.5 -6.5zM353 -184q-39 0 -59 9t-25 27t-2 43q4 30 23.5 53.5
t43 39t40.5 22.5h70q-9 -3 -25.5 -12.5t-35 -23t-32 -29t-15.5 -30.5q-4 -29 11 -36t40 -7q20 0 29 0.5t12 1t5 0.5q-3 -20 -9.5 -33t-22.5 -19t-48 -6z" />
    <glyph glyph-name="Cacute" unicode="&#x106;" horiz-adv-x="606" 
d="M33 227q11 81 42.5 128.5t79.5 70.5t109.5 30t131.5 7q42 0 79.5 -2.5t75.5 -7.5q40 -6 51.5 -20.5t7.5 -41.5l-7 -50q-28 11 -66 18t-77 10.5t-70 3.5q-60 0 -98.5 -10t-60 -41t-30.5 -94q-8 -60 4.5 -91.5t51 -42t104.5 -10.5q30 0 63 3t70 9.5t77 14.5l-7 -46
q-3 -25 -19.5 -40.5t-59.5 -20.5q-38 -6 -79 -8.5t-82 -2.5q-83 0 -142.5 9t-96 33.5t-50 71t-2.5 120.5zM310 521l131 113l61 -40l-131 -73h-61z" />
    <glyph glyph-name="cacute" unicode="&#x107;" horiz-adv-x="473" 
d="M251 -6q-88 0 -140.5 17.5t-71 60.5t-8.5 119q10 67 28 109t49.5 65t80.5 31.5t120 8.5q26 0 50 -2.5t59 -7.5q19 -2 30.5 -9t15.5 -23t0 -48q-11 4 -33.5 7.5t-47.5 5.5t-46 2q-50 0 -81.5 -12t-47.5 -40t-24 -77q-6 -48 2 -76t36 -40t79 -12q24 0 49.5 2t47.5 5.5
t34 7.5l-6 -40q-3 -25 -27.5 -36.5t-63 -14.5t-84.5 -3zM236 460l154 129l62 -39l-155 -90h-61z" />
    <glyph glyph-name="Ccircumflex" unicode="&#x108;" horiz-adv-x="606" 
d="M33 227q11 81 42.5 128.5t79.5 70.5t109.5 30t131.5 7q42 0 79.5 -2.5t75.5 -7.5q40 -6 51.5 -20.5t7.5 -41.5l-7 -50q-28 11 -66 18t-77 10.5t-70 3.5q-60 0 -98.5 -10t-60 -41t-30.5 -94q-8 -60 4.5 -91.5t51 -42t104.5 -10.5q30 0 63 3t70 9.5t77 14.5l-7 -46
q-3 -25 -19.5 -40.5t-59.5 -20.5q-38 -6 -79 -8.5t-82 -2.5q-83 0 -142.5 9t-96 33.5t-50 71t-2.5 120.5zM238 521l121 113h41l91 -113h-65l-55 53l-73 -53h-60z" />
    <glyph glyph-name="ccircumflex" unicode="&#x109;" horiz-adv-x="473" 
d="M251 -6q-88 0 -140.5 17.5t-71 60.5t-8.5 119q10 67 28 109t49.5 65t80.5 31.5t120 8.5q26 0 50 -2.5t59 -7.5q19 -2 30.5 -9t15.5 -23t0 -48q-11 4 -33.5 7.5t-47.5 5.5t-46 2q-50 0 -81.5 -12t-47.5 -40t-24 -77q-6 -48 2 -76t36 -40t79 -12q24 0 49.5 2t47.5 5.5
t34 7.5l-6 -40q-3 -25 -27.5 -36.5t-63 -14.5t-84.5 -3zM172 460l124 133h41l89 -133h-65l-54 69l-75 -69h-60z" />
    <glyph glyph-name="Cdotaccent" unicode="&#x10a;" horiz-adv-x="606" 
d="M33 227q11 81 42.5 128.5t79.5 70.5t109.5 30t131.5 7q42 0 79.5 -2.5t75.5 -7.5q40 -6 51.5 -20.5t7.5 -41.5l-7 -50q-28 11 -66 18t-77 10.5t-70 3.5q-60 0 -98.5 -10t-60 -41t-30.5 -94q-8 -60 4.5 -91.5t51 -42t104.5 -10.5q30 0 63 3t70 9.5t77 14.5l-7 -46
q-3 -25 -19.5 -40.5t-59.5 -20.5q-38 -6 -79 -8.5t-82 -2.5q-83 0 -142.5 9t-96 33.5t-50 71t-2.5 120.5zM365 519q-24 0 -38.5 5.5t-11.5 31.5q4 25 21 31t41 6q23 0 36.5 -6.5t9.5 -30.5q-3 -26 -18.5 -31.5t-39.5 -5.5z" />
    <glyph glyph-name="cdotaccent" unicode="&#x10b;" horiz-adv-x="473" 
d="M251 -6q-88 0 -140.5 17.5t-71 60.5t-8.5 119q10 67 28 109t49.5 65t80.5 31.5t120 8.5q26 0 50 -2.5t59 -7.5q19 -2 30.5 -9t15.5 -23t0 -48q-11 4 -33.5 7.5t-47.5 5.5t-46 2q-50 0 -81.5 -12t-47.5 -40t-24 -77q-6 -48 2 -76t36 -40t79 -12q24 0 49.5 2t47.5 5.5
t34 7.5l-6 -40q-3 -25 -27.5 -36.5t-63 -14.5t-84.5 -3zM299 458q-24 0 -38.5 5.5t-11.5 31.5q4 25 21 31t41 6q23 0 36.5 -6.5t9.5 -30.5q-3 -26 -18.5 -31.5t-39.5 -5.5z" />
    <glyph glyph-name="Ccaron" unicode="&#x10c;" horiz-adv-x="606" 
d="M251 634h60l57 -53l71 53h65l-123 -113h-42zM33 227q11 81 42.5 128.5t79.5 70.5t109.5 30t131.5 7q42 0 79.5 -2.5t75.5 -7.5q40 -6 51.5 -20.5t7.5 -41.5l-7 -50q-28 11 -66 18t-77 10.5t-70 3.5q-60 0 -98.5 -10t-60 -41t-30.5 -94q-8 -60 4.5 -91.5t51 -42
t104.5 -10.5q30 0 63 3t70 9.5t77 14.5l-7 -46q-3 -25 -19.5 -40.5t-59.5 -20.5q-38 -6 -79 -8.5t-82 -2.5q-83 0 -142.5 9t-96 33.5t-50 71t-2.5 120.5z" />
    <glyph glyph-name="ccaron" unicode="&#x10d;" horiz-adv-x="473" 
d="M187 593h60l55 -69l74 69h65l-127 -133h-41zM251 -6q-88 0 -140.5 17.5t-71 60.5t-8.5 119q10 67 28 109t49.5 65t80.5 31.5t120 8.5q26 0 50 -2.5t59 -7.5q19 -2 30.5 -9t15.5 -23t0 -48q-11 4 -33.5 7.5t-47.5 5.5t-46 2q-50 0 -81.5 -12t-47.5 -40t-24 -77
q-6 -48 2 -76t36 -40t79 -12q24 0 49.5 2t47.5 5.5t34 7.5l-6 -40q-3 -25 -27.5 -36.5t-63 -14.5t-84.5 -3z" />
    <glyph glyph-name="Dcaron" unicode="&#x10e;" horiz-adv-x="652" 
d="M245 634h60l58 -53l70 53h65l-123 -113h-41zM297 -1h-73t-70 0.5t-65.5 0.5h-57.5l54 386q5 39 19.5 56t56.5 18q26 0 56.5 0.5t63.5 0.5h66.5h65.5q69 -1 115 -12t71 -36.5t31.5 -71t-3.5 -115.5q-10 -74 -32.5 -119t-60 -68.5t-95.5 -31.5t-142 -8zM315 82q37 0 63 8
t43.5 25t27.5 44.5t16 66.5q7 52 4.5 83t-15.5 46t-38 19.5t-63 4.5h-23t-27 -0.5t-26.5 -0.5t-22.5 -1q-3 -5 -6 -12.5t-5 -20.5l-37 -261h23t29.5 -0.5t30.5 -0.5h26z" />
    <glyph glyph-name="dcaron" unicode="&#x10f;" horiz-adv-x="529" 
d="M223 -2q-81 0 -126.5 18t-60 62t-4.5 122q12 80 40.5 124t75 61.5t110.5 17.5q20 0 42.5 -2t43.5 -5.5t37 -9t23 -12.5l-38 -14l21 145h147l-43 -304q-10 -69 -27.5 -109.5t-48 -60.5t-77.5 -26.5t-115 -6.5zM243 75q26 0 43 5t27.5 17t17 33t10.5 54l17 133
q-5 0 -15.5 0.5t-22 1t-22.5 0.5q-38 0 -61 -9.5t-35 -35t-20 -76.5q-6 -51 -2 -77t20 -36t43 -10zM574 356l24 149h67l-39 -149h-52z" />
    <glyph glyph-name="Dcroat" unicode="&#x110;" horiz-adv-x="669" 
d="M314 -1h-73t-70 0.5t-65.5 0.5h-57.5l54 386q5 39 19.5 56t56.5 18q26 0 56.5 0.5t63.5 0.5h66.5h65.5q69 -1 115 -12t71 -36.5t31.5 -71t-3.5 -115.5q-10 -74 -32.5 -119t-60 -68.5t-95.5 -31.5t-142 -8zM332 82q37 0 63 8t43.5 25t27.5 44.5t16 66.5q7 52 4.5 83
t-15.5 46t-38 19.5t-63 4.5h-23t-27 -0.5t-26.5 -0.5t-22.5 -1q-3 -5 -6 -12.5t-5 -20.5l-37 -261h23t29.5 -0.5t30.5 -0.5h26zM33 254h326l-6 -48h-327z" />
    <glyph glyph-name="dcroat" unicode="&#x111;" horiz-adv-x="554" 
d="M327 535h67l12 80h149l-11 -80h66l-7 -55h-67l-39 -279q-9 -61 -25 -100.5t-44.5 -62t-75 -31.5t-116.5 -9q-68 0 -111.5 6.5t-67 26.5t-29 60.5t3.5 108.5q12 83 42 126t78 58.5t114 15.5q17 0 35 -1t33.5 -2.5t26.5 -2t14 -0.5l12 86h-68zM243 75q21 0 36.5 2t28.5 12
t22 32.5t15 62.5l19 133q-2 0 -8 0.5t-13.5 0.5t-15 0.5t-13.5 0.5q-44 0 -70.5 -9t-40.5 -32.5t-20 -67.5q-7 -52 -5.5 -82t16.5 -41.5t49 -11.5z" />
    <glyph glyph-name="Emacron" unicode="&#x112;" horiz-adv-x="606" 
d="M31 0l56 399q3 23 6.5 36t16 19t39.5 6h462l-11 -86h-352l-14 -96h320l-12 -85h-319l-16 -107h352l-12 -86h-516zM225 521l7 58h280l-8 -58h-279z" />
    <glyph glyph-name="emacron" unicode="&#x113;" horiz-adv-x="514" 
d="M238 -6q-70 0 -114 8.5t-67.5 30t-28.5 59.5t3 98q12 79 40 125.5t85 66.5t154 20q114 0 155 -37t30 -116l-11 -77h-278q3 21 14.5 35.5t37.5 14.5h100l3 21q4 40 -9 61t-58 21q-37 0 -58.5 -11t-33.5 -39t-20 -83q-7 -47 -0.5 -71.5t30 -33t70.5 -8.5q17 0 46 1t60 2.5
t54 3t29 3.5l-2 -18q-2 -14 -9 -29.5t-21 -25.5q-20 -14 -68.5 -18t-132.5 -4zM178 460l7 60h277l-7 -60h-277z" />
    <glyph glyph-name="Ebreve" unicode="&#x114;" horiz-adv-x="606" 
d="M31 0l56 399q3 23 6.5 36t16 19t39.5 6h462l-11 -86h-352l-14 -96h320l-12 -85h-319l-16 -107h352l-12 -86h-516zM363 519q-64 0 -86.5 31.5t-16.5 83.5h57q-4 -34 8.5 -46.5t45.5 -12.5q34 0 49.5 12t18.5 47h59q-5 -66 -37 -90.5t-98 -24.5z" />
    <glyph glyph-name="ebreve" unicode="&#x115;" horiz-adv-x="514" 
d="M238 -6q-70 0 -114 8.5t-67.5 30t-28.5 59.5t3 98q12 79 40 125.5t85 66.5t154 20q114 0 155 -37t30 -116l-11 -77h-278q3 21 14.5 35.5t37.5 14.5h100l3 21q4 40 -9 61t-58 21q-37 0 -58.5 -11t-33.5 -39t-20 -83q-7 -47 -0.5 -71.5t30 -33t70.5 -8.5q17 0 46 1t60 2.5
t54 3t29 3.5l-2 -18q-2 -14 -9 -29.5t-21 -25.5q-20 -14 -68.5 -18t-132.5 -4zM316 458q-49 0 -73.5 12t-30 40.5t1.5 78.5h55q-5 -43 6.5 -59t47.5 -16q41 0 55 18t19 57h57q-6 -51 -20 -79.5t-41.5 -40t-76.5 -11.5z" />
    <glyph glyph-name="Edotaccent" unicode="&#x116;" horiz-adv-x="606" 
d="M31 0l56 399q3 23 6.5 36t16 19t39.5 6h462l-11 -86h-352l-14 -96h320l-12 -85h-319l-16 -107h352l-12 -86h-516zM365 519q-24 0 -38.5 5.5t-11.5 31.5q4 25 21 31t41 6q23 0 36.5 -6.5t9.5 -30.5q-3 -26 -18.5 -31.5t-39.5 -5.5z" />
    <glyph glyph-name="edotaccent" unicode="&#x117;" horiz-adv-x="514" 
d="M238 -6q-70 0 -114 8.5t-67.5 30t-28.5 59.5t3 98q12 79 40 125.5t85 66.5t154 20q114 0 155 -37t30 -116l-11 -77h-278q3 21 14.5 35.5t37.5 14.5h100l3 21q4 40 -9 61t-58 21q-37 0 -58.5 -11t-33.5 -39t-20 -83q-7 -47 -0.5 -71.5t30 -33t70.5 -8.5q17 0 46 1t60 2.5
t54 3t29 3.5l-2 -18q-2 -14 -9 -29.5t-21 -25.5q-20 -14 -68.5 -18t-132.5 -4zM316 458q-24 0 -38.5 5.5t-11.5 31.5q4 25 21 31t41 6q23 0 36.5 -6.5t9.5 -30.5q-3 -26 -18.5 -31.5t-39.5 -5.5z" />
    <glyph glyph-name="Eogonek" unicode="&#x118;" horiz-adv-x="606" 
d="M31 0l56 399q3 23 6.5 36t16 19t39.5 6h462l-11 -86h-352l-14 -96h320l-12 -85h-319l-16 -107h352l-12 -86h-516zM437 -184q-39 0 -59 9t-25 27t-2 43q4 30 23.5 53.5t43 39t40.5 22.5h70q-9 -3 -25.5 -12.5t-35 -23t-32 -29t-15.5 -30.5q-4 -29 11 -36t40 -7
q20 0 29 0.5t12 1t5 0.5q-3 -20 -9.5 -33t-22.5 -19t-48 -6z" />
    <glyph glyph-name="eogonek" unicode="&#x119;" horiz-adv-x="514" 
d="M238 -6q-70 0 -114 8.5t-67.5 30t-28.5 59.5t3 98q12 79 40 125.5t85 66.5t154 20q114 0 155 -37t30 -116l-11 -77h-278q3 21 14.5 35.5t37.5 14.5h100l3 21q4 40 -9 61t-58 21q-37 0 -58.5 -11t-33.5 -39t-20 -83q-7 -47 -0.5 -71.5t30 -33t70.5 -8.5q17 0 46 1t60 2.5
t54 3t29 3.5l-2 -18q-2 -14 -9 -29.5t-21 -25.5q-20 -14 -68.5 -18t-132.5 -4zM325 -186q-39 0 -59 9t-25 27t-2 43q4 30 23.5 53.5t43 39t40.5 22.5h70q-9 -3 -25.5 -12.5t-35 -23t-32 -29t-15.5 -30.5q-4 -29 11 -36t40 -7q20 0 29 0.5t12 1t5 0.5q-3 -20 -9.5 -33
t-22.5 -19t-48 -6z" />
    <glyph glyph-name="Ecaron" unicode="&#x11a;" horiz-adv-x="606" 
d="M250 634h61l57 -53l70 53h65l-123 -113h-41zM31 0l56 399q3 23 6.5 36t16 19t39.5 6h462l-11 -86h-352l-14 -96h320l-12 -85h-319l-16 -107h352l-12 -86h-516z" />
    <glyph glyph-name="ecaron" unicode="&#x11b;" horiz-adv-x="514" 
d="M204 593h60l55 -69l74 69h65l-127 -133h-41zM238 -6q-70 0 -114 8.5t-67.5 30t-28.5 59.5t3 98q12 79 40 125.5t85 66.5t154 20q114 0 155 -37t30 -116l-11 -77h-278q3 21 14.5 35.5t37.5 14.5h100l3 21q4 40 -9 61t-58 21q-37 0 -58.5 -11t-33.5 -39t-20 -83
q-7 -47 -0.5 -71.5t30 -33t70.5 -8.5q17 0 46 1t60 2.5t54 3t29 3.5l-2 -18q-2 -14 -9 -29.5t-21 -25.5q-20 -14 -68.5 -18t-132.5 -4z" />
    <glyph glyph-name="Gcircumflex" unicode="&#x11c;" horiz-adv-x="653" 
d="M263 -5q-65 2 -113 11.5t-77.5 34t-39.5 70t0 116.5q11 78 40 125.5t75 72t108.5 32.5t140.5 8q38 0 74.5 -1t65.5 -3.5t47 -6.5q27 -5 37.5 -15.5t12 -23.5t-0.5 -26l-6 -40q-5 8 -26 13.5t-50.5 8.5t-59.5 5t-54.5 2.5t-34.5 0.5q-72 0 -113.5 -11.5t-62.5 -44
t-30 -95.5q-8 -58 2 -89.5t40 -43t81 -11.5q57 0 89 7t47.5 25t20.5 49q1 9 2 15.5t2 10.5h-194q5 33 11.5 51.5t23.5 26.5t52 8h262l-16 -110q-8 -60 -34 -94.5t-67.5 -51t-97 -21.5t-124.5 -5h-16.5h-16.5zM250 521l121 113h41l91 -113h-65l-55 53l-73 -53h-60z" />
    <glyph glyph-name="gcircumflex" unicode="&#x11d;" horiz-adv-x="532" 
d="M196 -120q-43 0 -75.5 2t-55 8.5t-33.5 18t-8 30.5q1 6 2 16t2 14q10 -5 35.5 -10.5t57 -9t56.5 -3.5q57 0 88.5 15.5t45.5 50t16 88.5l17 -2q-15 -30 -35.5 -47t-51 -24.5t-76.5 -7.5q-62 0 -98 15.5t-48 55t-3 110.5q9 62 27 101.5t49.5 61.5t81.5 30t123 8
q22 0 53.5 -1.5t64 -4t57 -4.5t32.5 -3q-1 -3 -3 -14t-4.5 -25.5t-4.5 -29.5l-33 -239q-11 -81 -43.5 -124t-90 -59.5t-145.5 -16.5zM243 102q23 0 43 6.5t35 24.5t20 51l19 134q-7 1 -30 2.5t-49 1.5q-31 0 -50 -8.5t-29.5 -32.5t-17.5 -70q-6 -44 -1.5 -68t19.5 -32.5
t41 -8.5zM185 461l124 133h41l89 -133h-65l-54 69l-75 -69h-60z" />
    <glyph glyph-name="Gbreve" unicode="&#x11e;" horiz-adv-x="653" 
d="M263 -5q-65 2 -113 11.5t-77.5 34t-39.5 70t0 116.5q11 78 40 125.5t75 72t108.5 32.5t140.5 8q38 0 74.5 -1t65.5 -3.5t47 -6.5q27 -5 37.5 -15.5t12 -23.5t-0.5 -26l-6 -40q-5 8 -26 13.5t-50.5 8.5t-59.5 5t-54.5 2.5t-34.5 0.5q-72 0 -113.5 -11.5t-62.5 -44
t-30 -95.5q-8 -58 2 -89.5t40 -43t81 -11.5q57 0 89 7t47.5 25t20.5 49q1 9 2 15.5t2 10.5h-194q5 33 11.5 51.5t23.5 26.5t52 8h262l-16 -110q-8 -60 -34 -94.5t-67.5 -51t-97 -21.5t-124.5 -5h-16.5h-16.5zM376 519q-64 0 -86.5 31.5t-16.5 83.5h57q-4 -34 8.5 -46.5
t45.5 -12.5q34 0 49.5 12t18.5 47h59q-5 -66 -37 -90.5t-98 -24.5z" />
    <glyph glyph-name="gbreve" unicode="&#x11f;" horiz-adv-x="532" 
d="M196 -120q-43 0 -75.5 2t-55 8.5t-33.5 18t-8 30.5q1 6 2 16t2 14q10 -5 35.5 -10.5t57 -9t56.5 -3.5q57 0 88.5 15.5t45.5 50t16 88.5l17 -2q-15 -30 -35.5 -47t-51 -24.5t-76.5 -7.5q-62 0 -98 15.5t-48 55t-3 110.5q9 62 27 101.5t49.5 61.5t81.5 30t123 8
q22 0 53.5 -1.5t64 -4t57 -4.5t32.5 -3q-1 -3 -3 -14t-4.5 -25.5t-4.5 -29.5l-33 -239q-11 -81 -43.5 -124t-90 -59.5t-145.5 -16.5zM243 102q23 0 43 6.5t35 24.5t20 51l19 134q-7 1 -30 2.5t-49 1.5q-31 0 -50 -8.5t-29.5 -32.5t-17.5 -70q-6 -44 -1.5 -68t19.5 -32.5
t41 -8.5zM312 459q-49 0 -73.5 12t-30 40.5t1.5 78.5h55q-5 -43 6.5 -59t47.5 -16q41 0 55 18t19 57h57q-6 -51 -20 -79.5t-41.5 -40t-76.5 -11.5z" />
    <glyph glyph-name="Gdotaccent" unicode="&#x120;" horiz-adv-x="653" 
d="M263 -5q-65 2 -113 11.5t-77.5 34t-39.5 70t0 116.5q11 78 40 125.5t75 72t108.5 32.5t140.5 8q38 0 74.5 -1t65.5 -3.5t47 -6.5q27 -5 37.5 -15.5t12 -23.5t-0.5 -26l-6 -40q-5 8 -26 13.5t-50.5 8.5t-59.5 5t-54.5 2.5t-34.5 0.5q-72 0 -113.5 -11.5t-62.5 -44
t-30 -95.5q-8 -58 2 -89.5t40 -43t81 -11.5q57 0 89 7t47.5 25t20.5 49q1 9 2 15.5t2 10.5h-194q5 33 11.5 51.5t23.5 26.5t52 8h262l-16 -110q-8 -60 -34 -94.5t-67.5 -51t-97 -21.5t-124.5 -5h-16.5h-16.5zM377 519q-24 0 -38.5 5.5t-11.5 31.5q4 25 21 31t41 6
q23 0 36.5 -6.5t9.5 -30.5q-3 -26 -18.5 -31.5t-39.5 -5.5z" />
    <glyph glyph-name="gdotaccent" unicode="&#x121;" horiz-adv-x="532" 
d="M196 -120q-43 0 -75.5 2t-55 8.5t-33.5 18t-8 30.5q1 6 2 16t2 14q10 -5 35.5 -10.5t57 -9t56.5 -3.5q57 0 88.5 15.5t45.5 50t16 88.5l17 -2q-15 -30 -35.5 -47t-51 -24.5t-76.5 -7.5q-62 0 -98 15.5t-48 55t-3 110.5q9 62 27 101.5t49.5 61.5t81.5 30t123 8
q22 0 53.5 -1.5t64 -4t57 -4.5t32.5 -3q-1 -3 -3 -14t-4.5 -25.5t-4.5 -29.5l-33 -239q-11 -81 -43.5 -124t-90 -59.5t-145.5 -16.5zM243 102q23 0 43 6.5t35 24.5t20 51l19 134q-7 1 -30 2.5t-49 1.5q-31 0 -50 -8.5t-29.5 -32.5t-17.5 -70q-6 -44 -1.5 -68t19.5 -32.5
t41 -8.5zM311 459q-24 0 -38.5 5.5t-11.5 31.5q4 25 21 31t41 6q23 0 36.5 -6.5t9.5 -30.5q-3 -26 -18.5 -31.5t-39.5 -5.5z" />
    <glyph glyph-name="uni0122" unicode="&#x122;" horiz-adv-x="653" 
d="M263 -5q-65 2 -113 11.5t-77.5 34t-39.5 70t0 116.5q11 78 40 125.5t75 72t108.5 32.5t140.5 8q38 0 74.5 -1t65.5 -3.5t47 -6.5q27 -5 37.5 -15.5t12 -23.5t-0.5 -26l-6 -40q-5 8 -26 13.5t-50.5 8.5t-59.5 5t-54.5 2.5t-34.5 0.5q-72 0 -113.5 -11.5t-62.5 -44
t-30 -95.5q-8 -58 2 -89.5t40 -43t81 -11.5q57 0 89 7t47.5 25t20.5 49q1 9 2 15.5t2 10.5h-194q5 33 11.5 51.5t23.5 26.5t52 8h262l-16 -110q-8 -60 -34 -94.5t-67.5 -51t-97 -21.5t-124.5 -5h-16.5h-16.5zM203 -255q13 21 23 36t19.5 29.5t20.5 32.5q-3 0 -7.5 0.5
t-7.5 0.5q-13 2 -22 11t-6 34q4 32 24 40t53 8q14 0 25.5 -3t18 -13.5t3.5 -31.5q-4 -23 -16.5 -49.5t-29.5 -51t-35 -43.5h-63z" />
    <glyph glyph-name="uni0123" unicode="&#x123;" horiz-adv-x="532" 
d="M196 -120q-43 0 -75.5 2t-55 8.5t-33.5 18t-8 30.5q1 6 2 16t2 14q10 -5 35.5 -10.5t57 -9t56.5 -3.5q57 0 88.5 15.5t45.5 50t16 88.5l17 -2q-15 -30 -35.5 -47t-51 -24.5t-76.5 -7.5q-62 0 -98 15.5t-48 55t-3 110.5q9 62 27 101.5t49.5 61.5t81.5 30t123 8
q22 0 53.5 -1.5t64 -4t57 -4.5t32.5 -3q-1 -3 -3 -14t-4.5 -25.5t-4.5 -29.5l-33 -239q-11 -81 -43.5 -124t-90 -59.5t-145.5 -16.5zM243 102q23 0 43 6.5t35 24.5t20 51l19 134q-7 1 -30 2.5t-49 1.5q-31 0 -50 -8.5t-29.5 -32.5t-17.5 -70q-6 -44 -1.5 -68t19.5 -32.5
t41 -8.5zM315 460q-13 0 -25 3.5t-18 14t-4 31.5q4 24 16.5 50t30 50.5t33.5 42.5h64q-13 -19 -23 -34.5t-19 -30t-21 -32.5q4 0 7.5 -0.5t6.5 -1.5q14 -2 23.5 -10.5t5.5 -34.5q-4 -31 -23.5 -39.5t-53.5 -8.5z" />
    <glyph glyph-name="Hcircumflex" unicode="&#x124;" horiz-adv-x="670" 
d="M31 0l57 409q2 17 6 28t16.5 17t39.5 6h109l-25 -179h225l25 179h165l-57 -401q-2 -16 -5 -30t-14.5 -21.5t-37.5 -7.5h-115l27 196h-225l-27 -196h-164zM257 521l121 113h41l91 -113h-65l-55 53l-73 -53h-60z" />
    <glyph glyph-name="hcircumflex" unicode="&#x125;" horiz-adv-x="540" 
d="M71 0q-34 0 -42 9.5t-4 36.5l63 459h150l-16 -116q12 3 29 5t36 3t35 1q69 0 108.5 -10t57.5 -31t20.5 -55t-4.5 -83l-22 -156q-3 -27 -10.5 -40.5t-21.5 -18t-41 -4.5h-81l33 239q5 38 -1 57.5t-24 26t-50 6.5q-11 0 -25.5 -1t-27.5 -3.5t-21 -5.5l-44 -319h-97zM46 554
l121 113h41l91 -113h-65l-55 53l-73 -53h-60z" />
    <glyph glyph-name="Hbar" unicode="&#x126;" horiz-adv-x="670" 
d="M31 0l57 409q2 17 6 28t16.5 17t39.5 6h109l-25 -179h225l25 179h165l-57 -401q-2 -16 -5 -30t-14.5 -21.5t-37.5 -7.5h-115l27 196h-225l-27 -196h-164zM46 380h625l-7 -39h-624z" />
    <glyph glyph-name="hbar" unicode="&#x127;" horiz-adv-x="540" 
d="M71 0q-34 0 -42 9.5t-4 36.5l63 459h150l-16 -116q12 3 29 5t36 3t35 1q69 0 108.5 -10t57.5 -31t20.5 -55t-4.5 -83l-22 -156q-3 -27 -10.5 -40.5t-21.5 -18t-41 -4.5h-81l33 239q5 38 -1 57.5t-24 26t-50 6.5q-11 0 -25.5 -1t-27.5 -3.5t-21 -5.5l-44 -319h-97zM37 470
h276l-5 -38h-276z" />
    <glyph glyph-name="Itilde" unicode="&#x128;" horiz-adv-x="282" 
d="M31 0q14 102 28.5 204.5t28.5 203.5q2 17 6 28.5t16.5 17.5t38.5 6h110l-64 -460h-164zM249 522q-20 -1 -37 9.5t-33 21.5t-37 9q-19 0 -32 -11.5t-18 -17.5l-24 23q1 1 7 11.5t17.5 23.5t26.5 23.5t33 10.5q20 1 36.5 -9.5l33 -21t35.5 -10.5q22 0 36 12.5t20 21.5
l24 -22q-1 0 -7.5 -11.5t-18.5 -26t-27.5 -25.5t-34.5 -11z" />
    <glyph glyph-name="itilde" unicode="&#x129;" horiz-adv-x="311" 
d="M239 399q-9 -66 -18.5 -133t-18.5 -134q-6 -40 -1 -59t38 -19q7 0 15 2t11 4l-8 -55q-7 -1 -27.5 -5t-56.5 -4q-49 0 -76.5 7t-39.5 19.5t-14 28.5t1 34t6 37q4 31 9.5 69.5t11.5 78t10.5 73.5t7.5 56h75h75zM229 460q-19 0 -36 10.5t-33.5 21.5t-37.5 9q-18 0 -30.5 -12
t-17.5 -18l-25 23q1 1 7.5 11.5t17.5 24t26 23.5t32 10q20 2 37 -9t33 -21.5t35 -10.5q22 0 36 13t20 22l25 -21q-1 -1 -8 -12.5t-18.5 -26t-27.5 -26t-35 -11.5z" />
    <glyph glyph-name="Imacron" unicode="&#x12a;" horiz-adv-x="282" 
d="M31 0q14 102 28.5 204.5t28.5 203.5q2 17 6 28.5t16.5 17.5t38.5 6h110l-64 -460h-164zM53 521l7 58h280l-8 -58h-279z" />
    <glyph glyph-name="imacron" unicode="&#x12b;" horiz-adv-x="311" 
d="M239 399q-9 -66 -18.5 -133t-18.5 -134q-6 -40 -1 -59t38 -19q7 0 15 2t11 4l-8 -55q-7 -1 -27.5 -5t-56.5 -4q-49 0 -76.5 7t-39.5 19.5t-14 28.5t1 34t6 37q4 31 9.5 69.5t11.5 78t10.5 73.5t7.5 56h75h75zM34 460l7 60h277l-7 -60h-277z" />
    <glyph glyph-name="Ibreve" unicode="&#x12c;" horiz-adv-x="282" 
d="M31 0q14 102 28.5 204.5t28.5 203.5q2 17 6 28.5t16.5 17.5t38.5 6h110l-64 -460h-164zM190 519q-64 0 -86.5 31.5t-16.5 83.5h57q-4 -34 8.5 -46.5t45.5 -12.5q34 0 49.5 12t18.5 47h59q-5 -66 -37 -90.5t-98 -24.5z" />
    <glyph glyph-name="ibreve" unicode="&#x12d;" horiz-adv-x="311" 
d="M239 399q-9 -66 -18.5 -133t-18.5 -134q-6 -40 -1 -59t38 -19q7 0 15 2t11 4l-8 -55q-7 -1 -27.5 -5t-56.5 -4q-49 0 -76.5 7t-39.5 19.5t-14 28.5t1 34t6 37q4 31 9.5 69.5t11.5 78t10.5 73.5t7.5 56h75h75zM173 458q-49 0 -73.5 12t-30 40.5t1.5 78.5h55
q-5 -43 6.5 -59t47.5 -16q41 0 55 18t19 57h57q-6 -51 -20 -79.5t-41.5 -40t-76.5 -11.5z" />
    <glyph glyph-name="Iogonek" unicode="&#x12e;" horiz-adv-x="282" 
d="M31 0q14 102 28.5 204.5t28.5 203.5q2 17 6 28.5t16.5 17.5t38.5 6h110l-64 -460h-164zM67 -185q-39 0 -59 9t-25 27t-2 43q4 30 23.5 53.5t43 39t40.5 22.5h70q-9 -3 -25.5 -12.5t-35 -23t-32 -29t-15.5 -30.5q-4 -29 11 -36t40 -7q20 0 29 0.5t12 1t5 0.5
q-3 -20 -9.5 -33t-22.5 -19t-48 -6z" />
    <glyph glyph-name="iogonek" unicode="&#x12f;" horiz-adv-x="311" 
d="M239 399q-9 -66 -18.5 -133t-18.5 -134q-6 -40 -1 -59t38 -19q7 0 15 2t11 4l-8 -55q-7 -1 -27.5 -5t-56.5 -4q-49 0 -76.5 7t-39.5 19.5t-14 28.5t1 34t6 37q4 31 9.5 69.5t11.5 78t10.5 73.5t7.5 56h75h75zM172 458q-24 0 -38.5 5.5t-11.5 31.5q4 25 21 31t41 6
q23 0 36.5 -6.5t9.5 -30.5q-3 -26 -18.5 -31.5t-39.5 -5.5zM110 -185q-39 0 -59 9t-25 27t-2 43q4 30 23.5 53.5t43 39t40.5 22.5h70q-9 -3 -25.5 -12.5t-35 -23t-32 -29t-15.5 -30.5q-4 -29 11 -36t40 -7q20 0 29 0.5t12 1t5 0.5q-3 -20 -9.5 -33t-22.5 -19t-48 -6z" />
    <glyph glyph-name="Idotaccent" unicode="&#x130;" horiz-adv-x="282" 
d="M31 0q14 102 28.5 204.5t28.5 203.5q2 17 6 28.5t16.5 17.5t38.5 6h110l-64 -460h-164zM192 519q-24 0 -38.5 5.5t-11.5 31.5q4 25 21 31t41 6q23 0 36.5 -6.5t9.5 -30.5q-3 -26 -18.5 -31.5t-39.5 -5.5z" />
    <glyph glyph-name="dotlessi" unicode="&#x131;" horiz-adv-x="311" 
d="M239 399q-9 -66 -18.5 -133t-18.5 -134q-6 -40 -1 -59t38 -19q7 0 15 2t11 4l-8 -55q-7 -1 -27.5 -5t-56.5 -4q-49 0 -76.5 7t-39.5 19.5t-14 28.5t1 34t6 37q4 31 9.5 69.5t11.5 78t10.5 73.5t7.5 56h75h75z" />
    <glyph glyph-name="IJ" unicode="&#x132;" horiz-adv-x="635" 
d="M31 0q14 102 28.5 204.5t28.5 203.5q2 17 6 28.5t16.5 17.5t38.5 6h110l-64 -460h-164zM575 149q-2 -18 -5 -38t-8 -33q-9 -30 -30 -47t-47.5 -24t-54.5 -9q-30 -1 -52.5 -0.5t-45 2.5t-51.5 5l13 95q11 -4 32.5 -9t34.5 -5q23 0 33.5 12t13.5 32l46 330h111q28 0 38 -7
t10 -20.5t-3 -33.5z" />
    <glyph glyph-name="ij" unicode="&#x133;" horiz-adv-x="513" 
d="M132 -4q-67 0 -89 26t-14 85l42 292h150l-41 -286q-5 -31 3 -44.5t30 -13.5q13 0 22 2t12 3l-8 -55q-4 -1 -15.5 -3t-33 -4t-58.5 -2zM154 447q-36 0 -49.5 9t-10.5 33q4 24 20.5 33.5t52.5 9.5q35 -1 48 -10t9 -33q-3 -24 -18.5 -33t-51.5 -9zM287 -99q-37 0 -64.5 4
t-34.5 5l7 55q6 -2 21.5 -3.5t24.5 -1.5q35 0 44.5 17t14.5 57l44 312q3 22 8 33t17 15.5t35 4.5h96l-52 -379q-6 -42 -21 -68.5t-47.5 -38.5t-92.5 -12zM435 447q-36 0 -49.5 9t-10.5 33q4 24 20.5 33.5t52.5 9.5q35 -1 48 -10t9 -33q-3 -24 -18.5 -33t-51.5 -9z" />
    <glyph glyph-name="Jcircumflex" unicode="&#x134;" horiz-adv-x="354" 
d="M293 149q-2 -18 -5 -38t-8 -33q-9 -30 -30 -47t-47.5 -24t-54.5 -9q-30 -1 -52.5 -0.5t-45 2.5t-51.5 5l13 95q11 -4 32.5 -9t34.5 -5q23 0 33.5 12t13.5 32l46 330h111q28 0 38 -7t10 -20.5t-3 -33.5zM133 521l121 113h41l91 -113h-65l-55 53l-73 -53h-60z" />
    <glyph glyph-name="jcircumflex" unicode="&#x135;" horiz-adv-x="298" 
d="M-29 -36q6 -2 21.5 -3.5t24.5 -1.5q35 0 44.5 19t14.5 59q11 78 21.5 155t21.5 154q3 22 8.5 33t17.5 15.5t35 4.5h48h48q-2 -20 -7 -52.5t-10 -72t-11 -81.5t-11.5 -79t-8.5 -64q-3 -20 -5.5 -41.5t-9 -40.5t-22.5 -34.5t-46.5 -24t-80.5 -8.5q-38 0 -65.5 4t-35.5 5
q2 13 4 26.5t4 27.5zM91 460l124 133h41l89 -133h-65l-54 69l-75 -69h-60z" />
    <glyph glyph-name="uni0136" unicode="&#x136;" horiz-adv-x="629" 
d="M479 -13q-28 0 -52.5 6t-42.5 21l-16 16t-21.5 22.5t-22.5 25.5t-22 25t-19 21q-10 13 -17.5 20t-20.5 15l-27 7l-23 -166h-164l58 410q2 16 6 27t16 17t38 6h55h55q-2 -15 -5 -36.5t-6 -45t-6.5 -45t-5.5 -35.5l29 6q10 3 17.5 8.5t17.5 14.5q15 14 39 33.5t49.5 40
t43.5 34.5q25 18 53 24t66 6q29 0 47.5 -2.5t40.5 -6.5q-2 -1 -14.5 -11t-26 -21.5t-22.5 -18.5q-40 -27 -84 -57t-85.5 -60t-76.5 -58l8 46q23 -21 52.5 -49t62.5 -60.5t69 -66.5t72 -65q-6 -7 -22 -18t-39.5 -20.5t-53.5 -9.5zM198 -255q13 21 23 36t19.5 29.5t20.5 32.5
q-3 0 -7.5 0.5t-7.5 0.5q-13 2 -22 11t-6 34q4 32 24 40t53 8q14 0 25.5 -3t18 -13.5t3.5 -31.5q-4 -23 -16.5 -49.5t-29.5 -51t-35 -43.5h-63z" />
    <glyph glyph-name="uni0137" unicode="&#x137;" horiz-adv-x="547" 
d="M18 0l63 453q3 30 14.5 41t44.5 11h99l-38 -268l155 133q14 12 27 18.5t30.5 10t43.5 3.5q30 0 54.5 -1t45.5 -2q-6 -3 -20 -12.5t-29.5 -20t-28.5 -18.5l-140 -107l152 -190q13 -14 26 -27.5t25 -23.5q-43 -1 -84.5 -1h-74.5q-36 0 -51.5 8t-30.5 25l-80 101l-37 -14
l-16 -119h-150zM146 -255q13 21 23 36t19.5 29.5t20.5 32.5q-3 0 -7.5 0.5t-7.5 0.5q-13 2 -22 11t-6 34q4 32 24 40t53 8q14 0 25.5 -3t18 -13.5t3.5 -31.5q-4 -23 -16.5 -49.5t-29.5 -51t-35 -43.5h-63z" />
    <glyph glyph-name="kgreenlandic" unicode="&#x138;" horiz-adv-x="632" 
d="M70 0q4 27 8.5 63.5t10 75.5t11 75.5t9 64.5t5.5 40q2 18 -8 25.5t-26 8.5t-30.5 -0.5t-21.5 -3.5l1.5 8t2.5 18.5t2.5 18.5t1.5 9q24 6 55.5 9t64 2t59 -8t42 -21t11.5 -38q-2 -14 -2.5 -16t0 -0.5t-0.5 -3.5t-3.5 -25.5t-9.5 -65.5q6 4 22 17.5t38.5 32.5t47.5 39.5
t48 40t39 33.5h17.5h36.5h42h36.5h17.5q-13 -6 -23.5 -13.5t-19.5 -15.5q-63 -49 -106.5 -83t-55.5 -45q17 -22 44 -54.5t56 -67t52 -62t33 -39.5q2 -3 10 -11l8 -8q-2 1 -18.5 1t-42 -0.5t-52.5 -1t-48 -0.5q-34 0 -54.5 5.5t-35.5 27.5q-12 17 -27.5 38t-29.5 41t-24 34
l-27 -32q-4 -31 -8 -56t-9 -57h-17h-36h-43h-36.5h-16.5z" />
    <glyph glyph-name="Lacute" unicode="&#x139;" horiz-adv-x="537" 
d="M260 460l-52 -374h302l-11 -86h-468l57 406q3 18 6.5 30t16 18t39.5 6h110zM148 521l131 113l61 -40l-131 -73h-61z" />
    <glyph glyph-name="lacute" unicode="&#x13a;" horiz-adv-x="272" 
d="M147 -4q-70 0 -98 23.5t-19 83.5l49 348q3 22 9 34t18.5 16t35.5 4h98q-1 -3 -5 -22t-8 -42l-45 -321q-5 -36 1.5 -50.5t31.5 -14.5q9 0 19.5 2t12.5 3l-7 -55q-7 -1 -27 -5t-66 -4zM130 566l131 113l61 -40l-131 -73h-61z" />
    <glyph glyph-name="uni013B" unicode="&#x13b;" horiz-adv-x="537" 
d="M260 460l-52 -374h302l-11 -86h-468l57 406q3 18 6.5 30t16 18t39.5 6h110zM152 -255q13 21 23 36t19.5 29.5t20.5 32.5q-3 0 -7.5 0.5t-7.5 0.5q-13 2 -22 11t-6 34q4 32 24 40t53 8q14 0 25.5 -3t18 -13.5t3.5 -31.5q-4 -23 -16.5 -49.5t-29.5 -51t-35 -43.5h-63z" />
    <glyph glyph-name="uni013C" unicode="&#x13c;" horiz-adv-x="272" 
d="M147 -4q-70 0 -98 23.5t-19 83.5l49 348q3 22 9 34t18.5 16t35.5 4h98q-1 -3 -5 -22t-8 -42l-45 -321q-5 -36 1.5 -50.5t31.5 -14.5q9 0 19.5 2t12.5 3l-7 -55q-7 -1 -27 -5t-66 -4zM30 -255q13 21 23 36t19.5 29.5t20.5 32.5q-3 0 -7.5 0.5t-7.5 0.5q-13 2 -22 11t-6 34
q4 32 24 40t53 8q14 0 25.5 -3t18 -13.5t3.5 -31.5q-4 -23 -16.5 -49.5t-29.5 -51t-35 -43.5h-63z" />
    <glyph glyph-name="Lcaron" unicode="&#x13d;" horiz-adv-x="537" 
d="M260 460l-52 -374h302l-11 -86h-468l57 406q3 18 6.5 30t16 18t39.5 6h110zM360 311l13 149h67l-26 -149h-54z" />
    <glyph glyph-name="lcaron" unicode="&#x13e;" horiz-adv-x="272" 
d="M147 -4q-70 0 -98 23.5t-19 83.5l49 348q3 22 9 34t18.5 16t35.5 4h98q-1 -3 -5 -22t-8 -42l-45 -321q-5 -36 1.5 -50.5t31.5 -14.5q9 0 19.5 2t12.5 3l-7 -55q-7 -1 -27 -5t-66 -4zM264 356l24 149h67l-39 -149h-52z" />
    <glyph glyph-name="Ldot" unicode="&#x13f;" horiz-adv-x="539" 
d="M260 460l-52 -374h302l-11 -86h-468l57 406q3 18 6.5 30t16 18t39.5 6h110zM324 236q5 32 28.5 40t54.5 8q32 0 50 -8.5t14 -39.5q-3 -23 -14 -33t-27.5 -13t-38.5 -3q-21 0 -37 3t-24.5 13t-5.5 33z" />
    <glyph glyph-name="ldot" unicode="&#x140;" horiz-adv-x="285" 
d="M147 -4q-70 0 -98 23.5t-19 83.5l49 348q3 22 9 34t18.5 16t35.5 4h98q-1 -3 -5 -22t-8 -42l-45 -321q-5 -36 1.5 -50.5t31.5 -14.5q9 0 19.5 2t12.5 3l-7 -55q-7 -1 -27 -5t-66 -4zM248 233q5 32 28.5 40t54.5 8q32 0 50 -8.5t14 -39.5q-3 -23 -14 -33t-27.5 -13
t-38.5 -3q-21 0 -37 3t-24.5 13t-5.5 33z" />
    <glyph glyph-name="Lslash" unicode="&#x141;" horiz-adv-x="541" 
d="M307 241l12 -40l-317 -109l-16 40zM289 460l-52 -374h302l-11 -86h-468l57 406q3 18 6.5 30t16 18t39.5 6h110z" />
    <glyph glyph-name="lslash" unicode="&#x142;" horiz-adv-x="309" 
d="M292 267l11 -43l-284 -75l-10 43zM179 -4q-70 0 -98 23.5t-19 83.5l49 348q3 22 9 34t18.5 16t35.5 4h98q-1 -3 -5 -22t-8 -42l-45 -321q-5 -36 1.5 -50.5t31.5 -14.5q9 0 19.5 2t12.5 3l-7 -55q-7 -1 -27 -5t-66 -4z" />
    <glyph glyph-name="Nacute" unicode="&#x143;" horiz-adv-x="672" 
d="M31 0l56 404q4 23 9 35t17.5 16.5t38.5 4.5h155l177 -294l2 -23l44 317h121q-2 -2 -4.5 -12.5t-4 -23t-3.5 -22.5l-49 -353q-5 -33 -20 -41t-52 -8h-141l-182 300l-1 25l-46 -325h-117zM332 521l131 113l61 -40l-131 -73h-61z" />
    <glyph glyph-name="nacute" unicode="&#x144;" horiz-adv-x="528" 
d="M55 0q-38 0 -32 39l47 336q19 7 51.5 13t77 10t98.5 4q76 0 119.5 -8.5t62 -29t20.5 -54.5t-6 -85l-24 -169q-3 -22 -8 -34.5t-18 -17.5t-39 -5l-91 1l36 260q5 33 -12.5 47t-50.5 14q-24 0 -45.5 -5t-32.5 -13l-42 -303h-111zM242 460l154 129l62 -39l-155 -90h-61z" />
    <glyph glyph-name="uni0145" unicode="&#x145;" horiz-adv-x="672" 
d="M31 0l56 404q4 23 9 35t17.5 16.5t38.5 4.5h155l177 -294l2 -23l44 317h121q-2 -2 -4.5 -12.5t-4 -23t-3.5 -22.5l-49 -353q-5 -33 -20 -41t-52 -8h-141l-182 300l-1 25l-46 -325h-117zM213 -255q13 21 23 36t19.5 29.5t20.5 32.5q-3 0 -7.5 0.5t-7.5 0.5q-13 2 -22 11
t-6 34q4 32 24 40t53 8q14 0 25.5 -3t18 -13.5t3.5 -31.5q-4 -23 -16.5 -49.5t-29.5 -51t-35 -43.5h-63z" />
    <glyph glyph-name="uni0146" unicode="&#x146;" horiz-adv-x="528" 
d="M55 0q-38 0 -32 39l47 336q19 7 51.5 13t77 10t98.5 4q76 0 119.5 -8.5t62 -29t20.5 -54.5t-6 -85l-24 -169q-3 -22 -8 -34.5t-18 -17.5t-39 -5l-91 1l36 260q5 33 -12.5 47t-50.5 14q-24 0 -45.5 -5t-32.5 -13l-42 -303h-111zM140 -255q13 21 23 36t19.5 29.5t20.5 32.5
q-3 0 -7.5 0.5t-7.5 0.5q-13 2 -22 11t-6 34q4 32 24 40t53 8q14 0 25.5 -3t18 -13.5t3.5 -31.5q-4 -23 -16.5 -49.5t-29.5 -51t-35 -43.5h-63z" />
    <glyph glyph-name="Ncaron" unicode="&#x147;" horiz-adv-x="672" 
d="M272 634h60l58 -53l70 53h65l-123 -113h-41zM31 0l56 404q4 23 9 35t17.5 16.5t38.5 4.5h155l177 -294l2 -23l44 317h121q-2 -2 -4.5 -12.5t-4 -23t-3.5 -22.5l-49 -353q-5 -33 -20 -41t-52 -8h-141l-182 300l-1 25l-46 -325h-117z" />
    <glyph glyph-name="ncaron" unicode="&#x148;" horiz-adv-x="528" 
d="M193 593h61l55 -69l73 69h65l-126 -133h-41zM55 0q-38 0 -32 39l47 336q19 7 51.5 13t77 10t98.5 4q76 0 119.5 -8.5t62 -29t20.5 -54.5t-6 -85l-24 -169q-3 -22 -8 -34.5t-18 -17.5t-39 -5l-91 1l36 260q5 33 -12.5 47t-50.5 14q-24 0 -45.5 -5t-32.5 -13l-42 -303h-111
z" />
    <glyph glyph-name="napostrophe" unicode="&#x149;" horiz-adv-x="554" 
d="M-8 395q15 22 30.5 45.5t26.5 43.5h-4.5h-4.5q-13 1 -21 7.5t-5 25.5q2 16 10.5 23.5t22 9.5t29.5 2q24 0 37 -6.5t9 -29.5q-2 -17 -14.5 -40.5t-28 -46t-27.5 -34.5h-60zM87 0q-39 0 -33 39l47 336q20 7 52.5 13t77 10t97.5 4q76 0 119.5 -8.5t62 -29t20.5 -54.5t-6 -85
l-23 -169q-3 -22 -8.5 -34.5t-18 -17.5t-39.5 -5l-91 1l37 260q5 33 -13 47t-51 14q-24 0 -45 -5t-32 -13l-43 -303h-110z" />
    <glyph glyph-name="Eng" unicode="&#x14a;" horiz-adv-x="649" 
d="M24 0q2 3 5 15.5t6 28.5q12 90 25 180t25 180q5 35 20.5 45.5t53.5 10.5h73h73q46 -75 90.5 -150t90.5 -150q10 75 21 150t21 150h60.5h60.5q-3 -2 -5 -12.5t-3.5 -23t-3.5 -22.5q-15 -113 -31 -226t-32 -225q-3 -17 -6 -37.5t-7 -33.5q-9 -29 -30 -46t-48 -24.5
t-54 -8.5q-29 -1 -52 -1t-45.5 2.5t-52.5 4.5q4 24 7.5 48t6.5 48q11 -4 32.5 -9.5t35.5 -5.5q22 0 32.5 12t13.5 32q2 17 4.5 33.5t4.5 32.5h-20.5h-20.5l-186 309q-11 -76 -21.5 -153t-21.5 -154h-61h-61z" />
    <glyph glyph-name="eng" unicode="&#x14b;" horiz-adv-x="519" 
d="M67 375q17 5 48.5 11.5t77 11t101.5 4.5q77 0 120 -8.5t61.5 -29t20.5 -54.5t-6 -85l-16 -117q-3 -20 -5 -39t-6 -46q-3 -19 -5 -40t-9 -40t-23.5 -34t-46.5 -24t-80 -9q-32 0 -60.5 4.5t-39.5 10.5q1 4 2.5 14t3.5 20.5t2 14.5q36 -5 57 0.5t31.5 20t13.5 37.5
q10 66 19.5 132.5t17.5 132.5q3 33 -14 46t-49 13q-16 0 -31.5 -2.5t-27.5 -7t-18 -10.5l-43 -302h-17t-36.5 -0.5t-37.5 -0.5h-20q-25 0 -29.5 14t-1.5 42z" />
    <glyph glyph-name="Omacron" unicode="&#x14c;" horiz-adv-x="653" 
d="M296 -7q-79 0 -134 11t-87 37.5t-42 72.5t0 116q10 72 34 117.5t63.5 72t97.5 37.5t137 11q80 0 134.5 -11t86 -37.5t41.5 -72.5t1 -117q-10 -71 -34 -117t-63.5 -72.5t-97.5 -37t-137 -10.5zM309 78q34 0 59 6.5t42.5 23t29.5 46.5t19 76q6 47 2.5 76.5t-16.5 46
t-36.5 23t-56.5 6.5q-34 0 -59 -6.5t-43 -23t-29.5 -46t-18.5 -76.5q-6 -46 -3 -76t16.5 -46.5t37 -23t56.5 -6.5zM240 521l7 58h280l-8 -58h-279z" />
    <glyph glyph-name="omacron" unicode="&#x14d;" horiz-adv-x="530" 
d="M241 -6q-57 0 -100 9t-70 31.5t-37 63t-2 101.5q10 66 30.5 106.5t53 62t76.5 29t100 7.5q57 0 99.5 -9t69 -31.5t36 -62.5t1.5 -102q-10 -66 -30 -106.5t-52 -62t-75.5 -29t-99.5 -7.5zM248 67q27 0 46.5 10.5t32.5 39t20 82.5q8 54 3 82.5t-21.5 39t-43.5 10.5
t-47 -10.5t-33.5 -39t-21.5 -82.5t-2 -82.5t23 -39t44 -10.5zM168 460l7 60h277l-7 -60h-277z" />
    <glyph glyph-name="Obreve" unicode="&#x14e;" horiz-adv-x="653" 
d="M296 -7q-79 0 -134 11t-87 37.5t-42 72.5t0 116q10 72 34 117.5t63.5 72t97.5 37.5t137 11q80 0 134.5 -11t86 -37.5t41.5 -72.5t1 -117q-10 -71 -34 -117t-63.5 -72.5t-97.5 -37t-137 -10.5zM309 78q34 0 59 6.5t42.5 23t29.5 46.5t19 76q6 47 2.5 76.5t-16.5 46
t-36.5 23t-56.5 6.5q-34 0 -59 -6.5t-43 -23t-29.5 -46t-18.5 -76.5q-6 -46 -3 -76t16.5 -46.5t37 -23t56.5 -6.5zM378 519q-64 0 -86.5 31.5t-16.5 83.5h57q-4 -34 8.5 -46.5t45.5 -12.5q34 0 49.5 12t18.5 47h59q-5 -66 -37 -90.5t-98 -24.5z" />
    <glyph glyph-name="obreve" unicode="&#x14f;" horiz-adv-x="530" 
d="M241 -6q-57 0 -100 9t-70 31.5t-37 63t-2 101.5q10 66 30.5 106.5t53 62t76.5 29t100 7.5q57 0 99.5 -9t69 -31.5t36 -62.5t1.5 -102q-10 -66 -30 -106.5t-52 -62t-75.5 -29t-99.5 -7.5zM248 67q27 0 46.5 10.5t32.5 39t20 82.5q8 54 3 82.5t-21.5 39t-43.5 10.5
t-47 -10.5t-33.5 -39t-21.5 -82.5t-2 -82.5t23 -39t44 -10.5zM306 458q-49 0 -73.5 12t-30 40.5t1.5 78.5h55q-5 -43 6.5 -59t47.5 -16q41 0 55 18t19 57h57q-6 -51 -20 -79.5t-41.5 -40t-76.5 -11.5z" />
    <glyph glyph-name="Ohungarumlaut" unicode="&#x150;" horiz-adv-x="653" 
d="M296 -7q-79 0 -134 11t-87 37.5t-42 72.5t0 116q10 72 34 117.5t63.5 72t97.5 37.5t137 11q80 0 134.5 -11t86 -37.5t41.5 -72.5t1 -117q-10 -71 -34 -117t-63.5 -72.5t-97.5 -37t-137 -10.5zM309 78q34 0 59 6.5t42.5 23t29.5 46.5t19 76q6 47 2.5 76.5t-16.5 46
t-36.5 23t-56.5 6.5q-34 0 -59 -6.5t-43 -23t-29.5 -46t-18.5 -76.5q-6 -46 -3 -76t16.5 -46.5t37 -23t56.5 -6.5zM419 521l55 113l85 -1l-77 -112h-63zM285 521l56 113l85 -1l-78 -112h-63z" />
    <glyph glyph-name="ohungarumlaut" unicode="&#x151;" horiz-adv-x="530" 
d="M241 -6q-57 0 -100 9t-70 31.5t-37 63t-2 101.5q10 66 30.5 106.5t53 62t76.5 29t100 7.5q57 0 99.5 -9t69 -31.5t36 -62.5t1.5 -102q-10 -66 -30 -106.5t-52 -62t-75.5 -29t-99.5 -7.5zM248 67q27 0 46.5 10.5t32.5 39t20 82.5q8 54 3 82.5t-21.5 39t-43.5 10.5
t-47 -10.5t-33.5 -39t-21.5 -82.5t-2 -82.5t23 -39t44 -10.5zM345 460l60 126l85 -1l-82 -125h-63zM211 460l61 126l84 -1l-82 -125h-63z" />
    <glyph glyph-name="OE" unicode="&#x152;" horiz-adv-x="1033" 
d="M296 -7q-79 0 -134 11t-87 37.5t-42 72.5t0 116q10 72 34 117.5t63.5 72t97.5 37.5t137 11q80 0 134.5 -11t86 -37.5t41.5 -72.5t1 -117q-10 -71 -34 -117t-63.5 -72.5t-97.5 -37t-137 -10.5zM309 78q34 0 59 6.5t42.5 23t29.5 46.5t19 76q6 47 2.5 76.5t-16.5 46
t-36.5 23t-56.5 6.5q-34 0 -59 -6.5t-43 -23t-29.5 -46t-18.5 -76.5q-6 -46 -3 -76t16.5 -46.5t37 -23t56.5 -6.5zM467 0l56 399q3 23 6.5 36t16 19t39.5 6h462l-11 -86h-352l-14 -96h320l-12 -85h-319l-16 -107h352l-12 -86h-516z" />
    <glyph glyph-name="oe" unicode="&#x153;" horiz-adv-x="856" 
d="M241 -6q-57 0 -100 9t-70 31.5t-37 63t-2 101.5q10 66 30.5 106.5t53 62t76.5 29t100 7.5q57 0 99.5 -9t69 -31.5t36 -62.5t1.5 -102q-10 -66 -30 -106.5t-52 -62t-75.5 -29t-99.5 -7.5zM248 67q27 0 46.5 10.5t32.5 39t20 82.5q8 54 3 82.5t-21.5 39t-43.5 10.5
t-47 -10.5t-33.5 -39t-21.5 -82.5t-2 -82.5t23 -39t44 -10.5zM564 -6q-70 0 -114 8.5t-67.5 30t-28.5 59.5t3 98q12 79 40 125.5t85 66.5t154 20q114 0 155 -37t30 -116l-11 -77h-278q3 21 14.5 35.5t37.5 14.5h100l3 21q4 40 -9 61t-58 21q-37 0 -58.5 -11t-33.5 -39
t-20 -83q-7 -47 -0.5 -71.5t30 -33t70.5 -8.5q17 0 46 1t60 2.5t54 3t29 3.5l-2 -18q-2 -14 -9 -29.5t-21 -25.5q-20 -14 -68.5 -18t-132.5 -4z" />
    <glyph glyph-name="Racute" unicode="&#x154;" horiz-adv-x="672" 
d="M347 155h-19.5t-49.5 -0.5t-61 -0.5l-22 -154h-164l56 399q4 29 18.5 45t54.5 16q15 0 45.5 0.5t69 0.5t80.5 0.5t80 0t67 -1t41 -1.5q53 -5 76 -32.5t15 -89.5q-9 -56 -21 -81.5t-32 -39.5q-8 -5 -21 -8t-27 -3l-1 -4h15.5t14.5 -1q25 -5 34.5 -16.5t10.5 -27t-2 -31.5
l-12 -88q-3 -19 0 -27.5t4 -9.5h-123q-25 0 -38.5 8t-10.5 34l10 66q5 31 -8 39t-47 8h-33zM228 233q10 0 32.5 -0.5t49 -0.5h49.5h33q24 0 44.5 15.5t25.5 58.5q5 30 -3 47t-31 19q-14 3 -37.5 3h-49t-46.5 -0.5t-31 -0.5q-2 0 -9.5 -3t-9.5 -15zM305 521l131 113l61 -40
l-131 -73h-61z" />
    <glyph glyph-name="racute" unicode="&#x155;" horiz-adv-x="463" 
d="M167 0h-108q-22 0 -30.5 11t-3.5 44l45 324q29 7 84 15t121 8q70 0 109.5 -8t56 -24.5t18.5 -42t-3 -61.5h-143l2 14q3 24 -4 35t-18.5 14t-24.5 3q-19 0 -34.5 -4t-22.5 -12zM217 460l154 129l62 -39l-155 -90h-61z" />
    <glyph glyph-name="uni0156" unicode="&#x156;" horiz-adv-x="672" 
d="M347 155h-19.5t-49.5 -0.5t-61 -0.5l-22 -154h-164l56 399q4 29 18.5 45t54.5 16q15 0 45.5 0.5t69 0.5t80.5 0.5t80 0t67 -1t41 -1.5q53 -5 76 -32.5t15 -89.5q-9 -56 -21 -81.5t-32 -39.5q-8 -5 -21 -8t-27 -3l-1 -4h15.5t14.5 -1q25 -5 34.5 -16.5t10.5 -27t-2 -31.5
l-12 -88q-3 -19 0 -27.5t4 -9.5h-123q-25 0 -38.5 8t-10.5 34l10 66q5 31 -8 39t-47 8h-33zM228 233q10 0 32.5 -0.5t49 -0.5h49.5h33q24 0 44.5 15.5t25.5 58.5q5 30 -3 47t-31 19q-14 3 -37.5 3h-49t-46.5 -0.5t-31 -0.5q-2 0 -9.5 -3t-9.5 -15zM217 -255q13 21 23 36
t19.5 29.5t20.5 32.5q-3 0 -7.5 0.5t-7.5 0.5q-13 2 -22 11t-6 34q4 32 24 40t53 8q14 0 25.5 -3t18 -13.5t3.5 -31.5q-4 -23 -16.5 -49.5t-29.5 -51t-35 -43.5h-63z" />
    <glyph glyph-name="uni0157" unicode="&#x157;" horiz-adv-x="463" 
d="M167 0h-108q-22 0 -30.5 11t-3.5 44l45 324q29 7 84 15t121 8q70 0 109.5 -8t56 -24.5t18.5 -42t-3 -61.5h-143l2 14q3 24 -4 35t-18.5 14t-24.5 3q-19 0 -34.5 -4t-22.5 -12zM4 -255q13 21 23 36t19.5 29.5t20.5 32.5q-3 0 -7.5 0.5t-7.5 0.5q-13 2 -22 11t-6 34
q4 32 24 40t53 8q14 0 25.5 -3t18 -13.5t3.5 -31.5q-4 -23 -16.5 -49.5t-29.5 -51t-35 -43.5h-63z" />
    <glyph glyph-name="Rcaron" unicode="&#x158;" horiz-adv-x="672" 
d="M245 634h60l57 -53l71 53h65l-123 -113h-41zM347 155h-19.5t-49.5 -0.5t-61 -0.5l-22 -154h-164l56 399q4 29 18.5 45t54.5 16q15 0 45.5 0.5t69 0.5t80.5 0.5t80 0t67 -1t41 -1.5q53 -5 76 -32.5t15 -89.5q-9 -56 -21 -81.5t-32 -39.5q-8 -5 -21 -8t-27 -3l-1 -4h15.5
t14.5 -1q25 -5 34.5 -16.5t10.5 -27t-2 -31.5l-12 -88q-3 -19 0 -27.5t4 -9.5h-123q-25 0 -38.5 8t-10.5 34l10 66q5 31 -8 39t-47 8h-33zM228 233q10 0 32.5 -0.5t49 -0.5h49.5h33q24 0 44.5 15.5t25.5 58.5q5 30 -3 47t-31 19q-14 3 -37.5 3h-49t-46.5 -0.5t-31 -0.5
q-2 0 -9.5 -3t-9.5 -15z" />
    <glyph glyph-name="rcaron" unicode="&#x159;" horiz-adv-x="463" 
d="M168 593h60l55 -69l74 69h65l-126 -133h-41zM167 0h-108q-22 0 -30.5 11t-3.5 44l45 324q29 7 84 15t121 8q70 0 109.5 -8t56 -24.5t18.5 -42t-3 -61.5h-143l2 14q3 24 -4 35t-18.5 14t-24.5 3q-19 0 -34.5 -4t-22.5 -12z" />
    <glyph glyph-name="Sacute" unicode="&#x15a;" horiz-adv-x="621" 
d="M28 109q24 -11 62.5 -16.5t80 -6.5t73.5 -1h30.5t30.5 1q27 0 46.5 5.5t31 17.5t14.5 34q3 17 -2.5 26.5t-18.5 13t-34 3.5h-25.5h-36.5h-56q-33 0 -65 3t-56.5 14.5t-36.5 37t-5 70.5q7 54 29.5 84.5t58.5 45.5t83 19t104 4q34 0 73 -1t73.5 -3t52.5 -7q34 -2 49.5 -18
t12.5 -40q0 -4 -1.5 -13.5t-2.5 -18.5t-2 -10q-6 7 -26.5 11.5t-49 6.5t-56 3t-47.5 1h-91q-28 0 -46.5 -4.5t-29 -15.5t-13.5 -31q-2 -16 2 -25.5t17 -13.5t34 -4h97.5h47.5q48 0 83 -8t51.5 -36t7.5 -86q-8 -55 -34.5 -87.5t-66.5 -47.5t-92 -18q-49 -3 -91.5 -3h-91.5
q-39 1 -72 3.5t-57 9t-36 18t-10 30.5zM304 521l131 113l61 -40l-131 -73h-61z" />
    <glyph glyph-name="sacute" unicode="&#x15b;" horiz-adv-x="517" 
d="M202 -4q-24 0 -51.5 1t-53 4t-46.5 9q-17 4 -28 10.5t-14 25t2 58.5q30 -11 62.5 -17.5t63.5 -9t58 -2.5q19 0 41.5 0.5t44.5 5t37 15t18 29.5q4 23 -7.5 30t-31.5 7h-114q-46 0 -81 5t-52 27.5t-9 76.5q8 59 41.5 87.5t89.5 37.5t133 9q29 0 66.5 -1t63.5 -5
q31 -3 47.5 -9.5t22.5 -20t2 -41.5l-4 -28q-5 10 -28.5 15.5t-57.5 7.5t-71 2h-69q-23 0 -42 -2.5t-31 -12t-16 -30.5q-2 -16 4 -23.5t18 -9.5t27 -2h127q42 0 72.5 -7.5t45 -32t6.5 -76.5q-8 -60 -46 -88t-99.5 -36.5t-140.5 -8.5zM239 460l154 129l62 -39l-155 -90h-61z
" />
    <glyph glyph-name="Scircumflex" unicode="&#x15c;" horiz-adv-x="621" 
d="M28 109q24 -11 62.5 -16.5t80 -6.5t73.5 -1h30.5t30.5 1q27 0 46.5 5.5t31 17.5t14.5 34q3 17 -2.5 26.5t-18.5 13t-34 3.5h-25.5h-36.5h-56q-33 0 -65 3t-56.5 14.5t-36.5 37t-5 70.5q7 54 29.5 84.5t58.5 45.5t83 19t104 4q34 0 73 -1t73.5 -3t52.5 -7q34 -2 49.5 -18
t12.5 -40q0 -4 -1.5 -13.5t-2.5 -18.5t-2 -10q-6 7 -26.5 11.5t-49 6.5t-56 3t-47.5 1h-91q-28 0 -46.5 -4.5t-29 -15.5t-13.5 -31q-2 -16 2 -25.5t17 -13.5t34 -4h97.5h47.5q48 0 83 -8t51.5 -36t7.5 -86q-8 -55 -34.5 -87.5t-66.5 -47.5t-92 -18q-49 -3 -91.5 -3h-91.5
q-39 1 -72 3.5t-57 9t-36 18t-10 30.5zM232 521l121 113h41l91 -113h-65l-55 53l-73 -53h-60z" />
    <glyph glyph-name="scircumflex" unicode="&#x15d;" horiz-adv-x="517" 
d="M202 -4q-24 0 -51.5 1t-53 4t-46.5 9q-17 4 -28 10.5t-14 25t2 58.5q30 -11 62.5 -17.5t63.5 -9t58 -2.5q19 0 41.5 0.5t44.5 5t37 15t18 29.5q4 23 -7.5 30t-31.5 7h-114q-46 0 -81 5t-52 27.5t-9 76.5q8 59 41.5 87.5t89.5 37.5t133 9q29 0 66.5 -1t63.5 -5
q31 -3 47.5 -9.5t22.5 -20t2 -41.5l-4 -28q-5 10 -28.5 15.5t-57.5 7.5t-71 2h-69q-23 0 -42 -2.5t-31 -12t-16 -30.5q-2 -16 4 -23.5t18 -9.5t27 -2h127q42 0 72.5 -7.5t45 -32t6.5 -76.5q-8 -60 -46 -88t-99.5 -36.5t-140.5 -8.5zM175 460l124 133h41l89 -133h-65l-54 69
l-75 -69h-60z" />
    <glyph glyph-name="Scedilla" unicode="&#x15e;" horiz-adv-x="621" 
d="M28 109q24 -11 62.5 -16.5t80 -6.5t73.5 -1h30.5t30.5 1q27 0 46.5 5.5t31 17.5t14.5 34q3 17 -2.5 26.5t-18.5 13t-34 3.5h-25.5h-36.5h-56q-33 0 -65 3t-56.5 14.5t-36.5 37t-5 70.5q7 54 29.5 84.5t58.5 45.5t83 19t104 4q34 0 73 -1t73.5 -3t52.5 -7q34 -2 49.5 -18
t12.5 -40q0 -4 -1.5 -13.5t-2.5 -18.5t-2 -10q-6 7 -26.5 11.5t-49 6.5t-56 3t-47.5 1h-91q-28 0 -46.5 -4.5t-29 -15.5t-13.5 -31q-2 -16 2 -25.5t17 -13.5t34 -4h97.5h47.5q48 0 83 -8t51.5 -36t7.5 -86q-8 -55 -34.5 -87.5t-66.5 -47.5t-92 -18q-49 -3 -91.5 -3h-91.5
q-39 1 -72 3.5t-57 9t-36 18t-10 30.5zM200 -179q-34 0 -43 7t-6 29h15h36q26 0 36.5 4.5t12.5 16.5q2 16 -6.5 20t-37.5 4h-43q-1 0 -2.5 5t2 14.5t16.5 22.5q8 7 17 15.5t19.5 17t21 15t18.5 9.5h45l-64 -66q44 1 65 -2.5t26.5 -16t1.5 -39.5t-15.5 -39t-38 -14.5
t-76.5 -2.5z" />
    <glyph glyph-name="scedilla" unicode="&#x15f;" horiz-adv-x="517" 
d="M202 -4q-24 0 -51.5 1t-53 4t-46.5 9q-17 4 -28 10.5t-14 25t2 58.5q30 -11 62.5 -17.5t63.5 -9t58 -2.5q19 0 41.5 0.5t44.5 5t37 15t18 29.5q4 23 -7.5 30t-31.5 7h-114q-46 0 -81 5t-52 27.5t-9 76.5q8 59 41.5 87.5t89.5 37.5t133 9q29 0 66.5 -1t63.5 -5
q31 -3 47.5 -9.5t22.5 -20t2 -41.5l-4 -28q-5 10 -28.5 15.5t-57.5 7.5t-71 2h-69q-23 0 -42 -2.5t-31 -12t-16 -30.5q-2 -16 4 -23.5t18 -9.5t27 -2h127q42 0 72.5 -7.5t45 -32t6.5 -76.5q-8 -60 -46 -88t-99.5 -36.5t-140.5 -8.5zM179 -179q-34 0 -43 7t-6 29h15h36
q26 0 36.5 4.5t12.5 16.5q2 16 -6.5 20t-37.5 4h-43q-1 0 -2.5 5t2 14.5t16.5 22.5q8 7 17 15.5t19.5 17t21 15t18.5 9.5h45l-64 -66q44 1 65 -2.5t26.5 -16t1.5 -39.5t-15.5 -39t-38 -14.5t-76.5 -2.5z" />
    <glyph glyph-name="Scaron" unicode="&#x160;" horiz-adv-x="621" 
d="M244 634h60l58 -53l70 53h65l-123 -113h-41zM28 109q24 -11 62.5 -16.5t80 -6.5t73.5 -1h30.5t30.5 1q27 0 46.5 5.5t31 17.5t14.5 34q3 17 -2.5 26.5t-18.5 13t-34 3.5h-25.5h-36.5h-56q-33 0 -65 3t-56.5 14.5t-36.5 37t-5 70.5q7 54 29.5 84.5t58.5 45.5t83 19t104 4
q34 0 73 -1t73.5 -3t52.5 -7q34 -2 49.5 -18t12.5 -40q0 -4 -1.5 -13.5t-2.5 -18.5t-2 -10q-6 7 -26.5 11.5t-49 6.5t-56 3t-47.5 1h-91q-28 0 -46.5 -4.5t-29 -15.5t-13.5 -31q-2 -16 2 -25.5t17 -13.5t34 -4h97.5h47.5q48 0 83 -8t51.5 -36t7.5 -86q-8 -55 -34.5 -87.5
t-66.5 -47.5t-92 -18q-49 -3 -91.5 -3h-91.5q-39 1 -72 3.5t-57 9t-36 18t-10 30.5z" />
    <glyph glyph-name="scaron" unicode="&#x161;" horiz-adv-x="517" 
d="M190 593h61l54 -69l74 69h65l-126 -133h-41zM202 -4q-24 0 -51.5 1t-53 4t-46.5 9q-17 4 -28 10.5t-14 25t2 58.5q30 -11 62.5 -17.5t63.5 -9t58 -2.5q19 0 41.5 0.5t44.5 5t37 15t18 29.5q4 23 -7.5 30t-31.5 7h-114q-46 0 -81 5t-52 27.5t-9 76.5q8 59 41.5 87.5
t89.5 37.5t133 9q29 0 66.5 -1t63.5 -5q31 -3 47.5 -9.5t22.5 -20t2 -41.5l-4 -28q-5 10 -28.5 15.5t-57.5 7.5t-71 2h-69q-23 0 -42 -2.5t-31 -12t-16 -30.5q-2 -16 4 -23.5t18 -9.5t27 -2h127q42 0 72.5 -7.5t45 -32t6.5 -76.5q-8 -60 -46 -88t-99.5 -36.5t-140.5 -8.5z
" />
    <glyph glyph-name="uni0162" unicode="&#x162;" horiz-adv-x="589" 
d="M55 460h552l-12 -87h-193l-44 -319q-3 -21 -9 -33t-18 -16.5t-36 -4.5h-110l53 373h-195zM171 -253q13 21 23 36t19.5 29.5t20.5 32.5q-3 0 -7.5 0.5t-7.5 0.5q-13 2 -22 11t-6 34q4 32 24 40t53 8q14 0 25.5 -3t18 -13.5t3.5 -31.5q-4 -23 -16.5 -49.5t-29.5 -51
t-35 -43.5h-63z" />
    <glyph glyph-name="uni0163" unicode="&#x163;" horiz-adv-x="330" 
d="M66 -226q12 18 20.5 31.5t16.5 26.5t18 29h-6h-6q-12 3 -20.5 10.5t-4.5 30.5q3 27 20.5 34.5t47.5 7.5q11 0 21.5 -3t16.5 -12t4 -28q-4 -20 -15 -43.5t-26.5 -45.5t-30.5 -38h-56zM174 -4q-54 0 -82.5 11.5t-37 38t-2.5 73.5l28 202h-42l11 78h43l7 51q4 25 9 37
t16.5 15t35.5 3h96q0 -4 -1 -10t-2 -15l-12 -81h97l-11 -78h-97l-26 -190q-5 -40 -0.5 -58t37.5 -18q10 0 24.5 2t20.5 4l-7 -55q-7 -1 -35.5 -5.5t-69.5 -4.5z" />
    <glyph glyph-name="Tcaron" unicode="&#x164;" horiz-adv-x="589" 
d="M228 634h61l57 -53l71 53h64l-122 -113h-42zM55 460h552l-12 -87h-193l-44 -319q-3 -21 -9 -33t-18 -16.5t-36 -4.5h-110l53 373h-195z" />
    <glyph glyph-name="tcaron" unicode="&#x165;" horiz-adv-x="330" 
d="M174 -4q-54 0 -82.5 11.5t-37 38t-2.5 73.5l28 202h-42l11 78h43l7 51q4 25 9 37t16.5 15t35.5 3h96q0 -4 -1 -10t-2 -15l-12 -81h97l-11 -78h-97l-26 -190q-5 -40 -0.5 -58t37.5 -18q10 0 24.5 2t20.5 4l-7 -55q-7 -1 -35.5 -5.5t-69.5 -4.5zM325 462l24 149h67
l-39 -149h-52z" />
    <glyph glyph-name="Tbar" unicode="&#x166;" horiz-adv-x="585" 
d="M98 279h120l13 94h-194l12 87h551l-12 -87h-192l-14 -94h124l-5 -44h-125l-25 -181q-3 -21 -8.5 -33t-17.5 -16.5t-36 -4.5h-110l33 235h-120z" />
    <glyph glyph-name="tbar" unicode="&#x167;" horiz-adv-x="354" 
d="M31 264h262l-5 -34h-261zM54 399h43l7 51q4 26 10 37.5t18 14.5t33 3h96q0 -4 -1 -10t-2 -15l-12 -81h97l-11 -78h-96l-27 -188q-5 -40 -0.5 -59t37.5 -19q7 0 23.5 1.5t22.5 3.5l-8 -54q-7 -1 -37.5 -5.5t-66.5 -4.5q-49 0 -76.5 9.5t-39 24.5t-12.5 34.5t2.5 39.5
t6.5 38l25 179h-43q3 20 5.5 39.5t5.5 38.5z" />
    <glyph glyph-name="Utilde" unicode="&#x168;" horiz-adv-x="645" 
d="M601 228q-7 -47 -16 -84t-27 -64.5t-50 -45.5t-84 -27t-132 -9t-130.5 9t-77 27t-35 44t-6.5 61t8 78l24 169q5 31 9 47t17.5 21.5t44.5 5.5h104l-39 -275q-5 -42 2.5 -63t31 -27.5t61.5 -6.5q61 0 88.5 21t35.5 75l39 276h101q33 0 45 -5.5t12 -21.5t-4 -47zM424 522
q-20 -1 -37 9.5t-33 21.5t-37 9q-19 0 -32 -11.5t-18 -17.5l-24 23q1 1 7 11.5t17.5 23.5t26.5 23.5t33 10.5q20 1 36.5 -9.5l33 -21t35.5 -10.5q22 0 36 12.5t20 21.5l24 -22q-1 0 -7.5 -11.5t-18.5 -26t-27.5 -25.5t-34.5 -11z" />
    <glyph glyph-name="utilde" unicode="&#x169;" horiz-adv-x="524" 
d="M215 399l-36 -259q-5 -36 10.5 -50.5t54.5 -14.5q41 0 60 15.5t24 48.5l36 260h13t28 0.5t29 0.5h16q24 0 37.5 -2.5t18 -12.5t1.5 -35l-27 -194q-7 -45 -21 -76t-41.5 -50t-73 -27.5t-114.5 -8.5q-87 0 -133 12.5t-60.5 45.5t-5.5 93l28 205q4 29 15.5 39.5t45.5 10.5
q24 0 47.5 -0.5t47.5 -0.5zM357 460q-19 0 -36 10.5t-33.5 21.5t-37.5 9q-18 0 -30.5 -12t-17.5 -18l-25 23q1 1 7.5 11.5t17.5 24t26 23.5t32 10q20 2 37 -9t33 -21.5t35 -10.5q22 0 36 13t20 22l25 -21q-1 -1 -8 -12.5t-18.5 -26t-27.5 -26t-35 -11.5z" />
    <glyph glyph-name="Umacron" unicode="&#x16a;" horiz-adv-x="645" 
d="M601 228q-7 -47 -16 -84t-27 -64.5t-50 -45.5t-84 -27t-132 -9t-130.5 9t-77 27t-35 44t-6.5 61t8 78l24 169q5 31 9 47t17.5 21.5t44.5 5.5h104l-39 -275q-5 -42 2.5 -63t31 -27.5t61.5 -6.5q61 0 88.5 21t35.5 75l39 276h101q33 0 45 -5.5t12 -21.5t-4 -47zM227 521
l7 58h280l-8 -58h-279z" />
    <glyph glyph-name="umacron" unicode="&#x16b;" horiz-adv-x="524" 
d="M215 399l-36 -259q-5 -36 10.5 -50.5t54.5 -14.5q41 0 60 15.5t24 48.5l36 260h13t28 0.5t29 0.5h16q24 0 37.5 -2.5t18 -12.5t1.5 -35l-27 -194q-7 -45 -21 -76t-41.5 -50t-73 -27.5t-114.5 -8.5q-87 0 -133 12.5t-60.5 45.5t-5.5 93l28 205q4 29 15.5 39.5t45.5 10.5
q24 0 47.5 -0.5t47.5 -0.5zM162 460l7 60h277l-7 -60h-277z" />
    <glyph glyph-name="Ubreve" unicode="&#x16c;" horiz-adv-x="645" 
d="M601 228q-7 -47 -16 -84t-27 -64.5t-50 -45.5t-84 -27t-132 -9t-130.5 9t-77 27t-35 44t-6.5 61t8 78l24 169q5 31 9 47t17.5 21.5t44.5 5.5h104l-39 -275q-5 -42 2.5 -63t31 -27.5t61.5 -6.5q61 0 88.5 21t35.5 75l39 276h101q33 0 45 -5.5t12 -21.5t-4 -47zM365 519
q-64 0 -86.5 31.5t-16.5 83.5h57q-4 -34 8.5 -46.5t45.5 -12.5q34 0 49.5 12t18.5 47h59q-5 -66 -37 -90.5t-98 -24.5z" />
    <glyph glyph-name="ubreve" unicode="&#x16d;" horiz-adv-x="524" 
d="M215 399l-36 -259q-5 -36 10.5 -50.5t54.5 -14.5q41 0 60 15.5t24 48.5l36 260h13t28 0.5t29 0.5h16q24 0 37.5 -2.5t18 -12.5t1.5 -35l-27 -194q-7 -45 -21 -76t-41.5 -50t-73 -27.5t-114.5 -8.5q-87 0 -133 12.5t-60.5 45.5t-5.5 93l28 205q4 29 15.5 39.5t45.5 10.5
q24 0 47.5 -0.5t47.5 -0.5zM301 458q-49 0 -73.5 12t-30 40.5t1.5 78.5h55q-5 -43 6.5 -59t47.5 -16q41 0 55 18t19 57h57q-6 -51 -20 -79.5t-41.5 -40t-76.5 -11.5z" />
    <glyph glyph-name="Uring" unicode="&#x16e;" horiz-adv-x="645" 
d="M601 228q-7 -47 -16 -84t-27 -64.5t-50 -45.5t-84 -27t-132 -9t-130.5 9t-77 27t-35 44t-6.5 61t8 78l24 169q5 31 9 47t17.5 21.5t44.5 5.5h104l-39 -275q-5 -42 2.5 -63t31 -27.5t61.5 -6.5q61 0 88.5 21t35.5 75l39 276h101q33 0 45 -5.5t12 -21.5t-4 -47zM367 522
q-31 0 -52 4.5t-30.5 18.5t-6.5 41q5 26 18 39t36 17t54 4q32 0 53.5 -4t31.5 -17t6 -39q-6 -40 -34 -52t-76 -12zM374 562q21 0 32.5 4.5t12.5 17.5q2 14 -7.5 18.5t-31.5 4.5q-21 0 -32 -4.5t-13 -18.5q-1 -13 8 -17.5t31 -4.5z" />
    <glyph glyph-name="uring" unicode="&#x16f;" horiz-adv-x="524" 
d="M215 399l-36 -259q-5 -36 10.5 -50.5t54.5 -14.5q41 0 60 15.5t24 48.5l36 260h13t28 0.5t29 0.5h16q24 0 37.5 -2.5t18 -12.5t1.5 -35l-27 -194q-7 -45 -21 -76t-41.5 -50t-73 -27.5t-114.5 -8.5q-87 0 -133 12.5t-60.5 45.5t-5.5 93l28 205q4 29 15.5 39.5t45.5 10.5
q24 0 47.5 -0.5t47.5 -0.5zM297 454q-46 0 -69.5 16t-17.5 58t34 56t75 14q48 0 72 -14t18 -56t-35 -58t-77 -16zM304 494q20 0 31.5 6t15.5 28q3 19 -7.5 25t-30.5 6q-19 0 -31 -6t-15 -25q-4 -22 6.5 -28t30.5 -6z" />
    <glyph glyph-name="Uhungarumlaut" unicode="&#x170;" horiz-adv-x="645" 
d="M601 228q-7 -47 -16 -84t-27 -64.5t-50 -45.5t-84 -27t-132 -9t-130.5 9t-77 27t-35 44t-6.5 61t8 78l24 169q5 31 9 47t17.5 21.5t44.5 5.5h104l-39 -275q-5 -42 2.5 -63t31 -27.5t61.5 -6.5q61 0 88.5 21t35.5 75l39 276h101q33 0 45 -5.5t12 -21.5t-4 -47zM406 521
l55 113l85 -1l-77 -112h-63zM272 521l56 113l85 -1l-78 -112h-63z" />
    <glyph glyph-name="uhungarumlaut" unicode="&#x171;" horiz-adv-x="524" 
d="M215 399l-36 -259q-5 -36 10.5 -50.5t54.5 -14.5q41 0 60 15.5t24 48.5l36 260h13t28 0.5t29 0.5h16q24 0 37.5 -2.5t18 -12.5t1.5 -35l-27 -194q-7 -45 -21 -76t-41.5 -50t-73 -27.5t-114.5 -8.5q-87 0 -133 12.5t-60.5 45.5t-5.5 93l28 205q4 29 15.5 39.5t45.5 10.5
q24 0 47.5 -0.5t47.5 -0.5zM340 460l60 126l85 -1l-82 -125h-63zM206 460l61 126l84 -1l-82 -125h-63z" />
    <glyph glyph-name="Uogonek" unicode="&#x172;" horiz-adv-x="645" 
d="M601 228q-7 -47 -16 -84t-27 -64.5t-50 -45.5t-84 -27t-132 -9t-130.5 9t-77 27t-35 44t-6.5 61t8 78l24 169q5 31 9 47t17.5 21.5t44.5 5.5h104l-39 -275q-5 -42 2.5 -63t31 -27.5t61.5 -6.5q61 0 88.5 21t35.5 75l39 276h101q33 0 45 -5.5t12 -21.5t-4 -47zM251 -184
q-39 0 -59 9t-25 27t-2 43q4 30 23.5 53.5t43 39t40.5 22.5h70q-9 -3 -25.5 -12.5t-35 -23t-32 -29t-15.5 -30.5q-4 -29 11 -36t40 -7q20 0 29 0.5t12 1t5 0.5q-3 -20 -9.5 -33t-22.5 -19t-48 -6z" />
    <glyph glyph-name="uogonek" unicode="&#x173;" horiz-adv-x="524" 
d="M215 399l-36 -259q-5 -36 10.5 -50.5t54.5 -14.5q41 0 60 15.5t24 48.5l36 260h13t28 0.5t29 0.5h16q24 0 37.5 -2.5t18 -12.5t1.5 -35l-27 -194q-7 -45 -21 -76t-41.5 -50t-73 -27.5t-114.5 -8.5q-87 0 -133 12.5t-60.5 45.5t-5.5 93l28 205q4 29 15.5 39.5t45.5 10.5
q24 0 47.5 -0.5t47.5 -0.5zM198 -186q-39 0 -59 9t-25 27t-2 43q4 30 23.5 53.5t43 39t40.5 22.5h70q-9 -3 -25.5 -12.5t-35 -23t-32 -29t-15.5 -30.5q-4 -29 11 -36t40 -7q20 0 29 0.5t12 1t5 0.5q-3 -20 -9.5 -33t-22.5 -19t-48 -6z" />
    <glyph glyph-name="Wcircumflex" unicode="&#x174;" horiz-adv-x="780" 
d="M153 0q-28 0 -45.5 11t-26 29t-9.5 38l-12 382l143 -1l15 -298q1 -17 4.5 -23t16.5 -6h15l120 328h154l40 -328h18q10 0 14.5 5.5t7.5 16.5l78 306h112l-107 -380q-12 -40 -40 -60t-83 -20h-118l-25 246l-4 52l-16 -52l-87 -246h-165zM331 521l121 113h41l91 -113h-65
l-55 53l-73 -53h-60z" />
    <glyph glyph-name="wcircumflex" unicode="&#x175;" horiz-adv-x="750" 
d="M189 -5q-65 0 -103 10.5t-51.5 41.5t-5.5 92l30 204q4 34 15.5 45t41.5 11h100l-37 -259q-5 -39 6.5 -50t38.5 -11q32 0 47.5 11.5t19.5 43.5l38 265h150l-38 -266q-4 -31 8 -42.5t39 -11.5q31 0 46.5 11t21.5 51l36 258h96q33 0 41 -10.5t4 -45.5l-30 -204
q-8 -58 -29.5 -89t-64.5 -43t-114 -12q-45 0 -76.5 10t-48 30.5t-18.5 52.5h16q-12 -35 -34 -55.5t-57 -29t-88 -8.5zM287 460l124 133h41l89 -133h-65l-54 69l-75 -69h-60z" />
    <glyph glyph-name="Ycircumflex" unicode="&#x176;" horiz-adv-x="593" 
d="M190 0l25 183l-160 252l-18 25h228l90 -167l131 167h148l-30 -28l-225 -249l-17 -123q-2 -25 -10 -38t-24.5 -17.5t-45.5 -4.5h-92zM267 521l121 113h41l91 -113h-65l-55 53l-73 -53h-60z" />
    <glyph glyph-name="ycircumflex" unicode="&#x177;" horiz-adv-x="519" 
d="M208 -111q-57 0 -105 5t-76 16.5t-26 29.5l6 43q15 -9 43 -15t61 -9.5t61 -3.5q48 0 76.5 10.5t43 33.5t19.5 59l6 39q-14 -20 -34 -31.5t-49.5 -16t-72.5 -4.5q-65 0 -94 20.5t-33.5 57.5t2.5 86l19 138q2 15 6.5 27t16.5 18.5t36 6.5h101q-4 -26 -6.5 -45t-4.5 -35.5
t-4.5 -35.5t-6.5 -45q-8 -57 -4.5 -83t18.5 -33t39 -7q25 0 41.5 8t27.5 33t18 77l23 166h104q24 0 35.5 -7.5t7.5 -35.5l-41 -289q-13 -90 -72 -134t-182 -44zM167 460l124 133h41l89 -133h-65l-54 69l-75 -69h-60z" />
    <glyph glyph-name="Ydieresis" unicode="&#x178;" horiz-adv-x="593" 
d="M485 520q-24 0 -37.5 6.5t-5.5 34.5q7 26 25.5 32t42.5 6q22 0 35 -7t6 -31q-8 -28 -24.5 -34.5t-41.5 -6.5zM302 520q-24 0 -37.5 6.5t-5.5 34.5q7 26 26 32t42 6t35 -7t5 -31q-7 -27 -24 -34t-41 -7zM190 0l25 183l-160 252l-18 25h228l90 -167l131 167h148l-30 -28
l-225 -249l-17 -123q-2 -25 -10 -38t-24.5 -17.5t-45.5 -4.5h-92z" />
    <glyph glyph-name="Zacute" unicode="&#x179;" horiz-adv-x="566" 
d="M225 87h311q-4 -31 -8 -48.5t-11.5 -26t-22 -10.5t-41.5 -2h-466l12 88q1 2 18.5 17t46 39.5t62.5 54t69 59.5t66 56t52 43q7 6 15 10l12 6h-286q5 33 9.5 52t16.5 27t39 8h461q0 -1 -3 -15.5t-11 -36t-24 -45.5t-43 -45l-258 -226zM279 521l131 113l61 -40l-131 -73h-61
z" />
    <glyph glyph-name="zacute" unicode="&#x17a;" horiz-adv-x="464" 
d="M191 79h240l-3 -32q-2 -27 -15.5 -37t-42.5 -10h-380l11 73l253 247h-209l4 37q3 20 15.5 31t28.5 11h375q2 -17 -9.5 -38.5t-28.5 -42.5t-34 -37zM235 460l154 129l62 -39l-155 -90h-61z" />
    <glyph glyph-name="Zdotaccent" unicode="&#x17b;" horiz-adv-x="566" 
d="M225 87h311q-4 -31 -8 -48.5t-11.5 -26t-22 -10.5t-41.5 -2h-466l12 88q1 2 18.5 17t46 39.5t62.5 54t69 59.5t66 56t52 43q7 6 15 10l12 6h-286q5 33 9.5 52t16.5 27t39 8h461q0 -1 -3 -15.5t-11 -36t-24 -45.5t-43 -45l-258 -226zM333 519q-24 0 -38.5 5.5t-11.5 31.5
q4 25 21 31t41 6q23 0 36.5 -6.5t9.5 -30.5q-3 -26 -18.5 -31.5t-39.5 -5.5z" />
    <glyph glyph-name="zdotaccent" unicode="&#x17c;" horiz-adv-x="464" 
d="M191 79h240l-3 -32q-2 -27 -15.5 -37t-42.5 -10h-380l11 73l253 247h-209l4 37q3 20 15.5 31t28.5 11h375q2 -17 -9.5 -38.5t-28.5 -42.5t-34 -37zM298 458q-24 0 -38.5 5.5t-11.5 31.5q4 25 21 31t41 6q23 0 36.5 -6.5t9.5 -30.5q-3 -26 -18.5 -31.5t-39.5 -5.5z" />
    <glyph glyph-name="Zcaron" unicode="&#x17d;" horiz-adv-x="566" 
d="M219 634h60l57 -53l71 53h65l-123 -113h-42zM225 87h311q-4 -31 -8 -48.5t-11.5 -26t-22 -10.5t-41.5 -2h-466l12 88q1 2 18.5 17t46 39.5t62.5 54t69 59.5t66 56t52 43q7 6 15 10l12 6h-286q5 33 9.5 52t16.5 27t39 8h461q0 -1 -3 -15.5t-11 -36t-24 -45.5t-43 -45
l-258 -226z" />
    <glyph glyph-name="zcaron" unicode="&#x17e;" horiz-adv-x="464" 
d="M186 593h61l55 -69l73 69h65l-126 -133h-41zM191 79h240l-3 -32q-2 -27 -15.5 -37t-42.5 -10h-380l11 73l253 247h-209l4 37q3 20 15.5 31t28.5 11h375q2 -17 -9.5 -38.5t-28.5 -42.5t-34 -37z" />
    <glyph glyph-name="longs" unicode="&#x17f;" horiz-adv-x="410" 
d="M81 274h-35v78h36l3 35q2 53 23 85t78 33q49 1 95 -1.5t80 -6t46 -6.5v-77q-5 3 -26 6.5t-46 6t-45 2.5q-19 0 -31 -6t-17.5 -18.5t-7.5 -33.5l-22 -400q0 -39 -12.5 -64.5t-32 -40t-44 -21.5t-49 -9t-45.5 -2q-43 0 -64 7.5t-27 21t-5 30.5q9 -1 19.5 -2t24.5 -1
q46 0 65 23.5t21 86.5z" />
    <glyph glyph-name="uni018F" unicode="&#x18f;" horiz-adv-x="606" 
d="M331 465q81 0 131.5 -9.5t76.5 -33.5t32 -68t-4 -114q-9 -67 -29 -113.5t-56 -75.5t-93.5 -42t-142.5 -13q-87 0 -136.5 18.5t-67 57.5t-9.5 99q6 37 14 56t26 26t52 7h314q-3 -24 -16 -40t-43 -16h-164q-9 0 -17.5 -6t-10.5 -20q-7 -46 9 -70.5t69 -24.5q43 0 68 13.5
t39 47t22 93.5q8 56 1 84t-34 37.5t-82 9.5q-16 0 -41 -1t-53.5 -2t-55 -2.5t-45.5 -3t-24 -2.5l3 21q2 16 10 34t24 27q23 17 80 21.5t153 4.5z" />
    <glyph glyph-name="florin" unicode="&#x192;" horiz-adv-x="410" 
d="M-93 -145q-2 1 -3 9t-0.5 17.5t1.5 11.5q4 -2 14.5 -2.5t15.5 -0.5q13 0 30.5 3t34 11t29 25t16.5 45q5 36 8.5 64t7.5 52.5t7.5 50.5t8 58.5t10.5 75.5h-18.5h-19.5q0 2 2 13t3.5 25t3.5 25.5t2 13.5h19.5h18.5l4 30l4 30q4 21 14 37.5t33 29.5t63 19.5t103 6.5
q17 0 37.5 -1t39 -2.5t30.5 -2.5l12 -1q-4 -29 -6 -43t-2.5 -18.5t-1.5 -6.5l-12.5 1t-31 2.5t-36 2.5t-28.5 1q-27 0 -40.5 -4t-19 -13.5t-8.5 -25.5q-1 -11 -2 -20.5t-3 -21.5h60.5h59.5q0 -2 -2 -13.5t-3.5 -25.5t-3.5 -25t-2 -13h-59.5h-60.5l-17.5 -126t-14 -99.5
t-12.5 -91.5q-6 -37 -28.5 -61.5t-53 -38t-61.5 -19t-53 -5.5q-29 0 -46 3t-25 7t-11.5 7t-6.5 4z" />
    <glyph glyph-name="Ohorn" unicode="&#x1a0;" horiz-adv-x="653" 
d="M296 -7q-79 0 -134 11t-87 37.5t-42 72.5t0 116q10 72 34 117.5t63.5 72t97.5 37.5t137 11q80 0 134.5 -11t86 -37.5t41.5 -72.5t1 -117q-10 -71 -34 -117t-63.5 -72.5t-97.5 -37t-137 -10.5zM309 78q34 0 59 6.5t42.5 23t29.5 46.5t19 76q6 47 2.5 76.5t-16.5 46
t-36.5 23t-56.5 6.5q-34 0 -59 -6.5t-43 -23t-29.5 -46t-18.5 -76.5q-6 -46 -3 -76t16.5 -46.5t37 -23t56.5 -6.5zM479 410l5 50h21q23 0 34 14t14 33l2 21h76l-3 -20q-7 -53 -44.5 -76t-104.5 -22z" />
    <glyph glyph-name="ohorn" unicode="&#x1a1;" horiz-adv-x="530" 
d="M241 -6q-57 0 -100 9t-70 31.5t-37 63t-2 101.5q10 66 30.5 106.5t53 62t76.5 29t100 7.5q57 0 99.5 -9t69 -31.5t36 -62.5t1.5 -102q-10 -66 -30 -106.5t-52 -62t-75.5 -29t-99.5 -7.5zM248 67q27 0 46.5 10.5t32.5 39t20 82.5q8 54 3 82.5t-21.5 39t-43.5 10.5
t-47 -10.5t-33.5 -39t-21.5 -82.5t-2 -82.5t23 -39t44 -10.5zM382 349l5 50h21q23 0 34 14t14 33l2 21h76l-3 -20q-7 -53 -44.5 -76t-104.5 -22z" />
    <glyph glyph-name="Uhorn" unicode="&#x1af;" horiz-adv-x="645" 
d="M601 228q-7 -47 -16 -84t-27 -64.5t-50 -45.5t-84 -27t-132 -9t-130.5 9t-77 27t-35 44t-6.5 61t8 78l24 169q5 31 9 47t17.5 21.5t44.5 5.5h104l-39 -275q-5 -42 2.5 -63t31 -27.5t61.5 -6.5q61 0 88.5 21t35.5 75l39 276h101q33 0 45 -5.5t12 -21.5t-4 -47zM544 410
l5 50h21q23 0 34 14t14 33l2 21h76l-3 -20q-7 -53 -44.5 -76t-104.5 -22z" />
    <glyph glyph-name="uhorn" unicode="&#x1b0;" horiz-adv-x="524" 
d="M215 399l-36 -259q-5 -36 10.5 -50.5t54.5 -14.5q41 0 60 15.5t24 48.5l36 260h13t28 0.5t29 0.5h16q24 0 37.5 -2.5t18 -12.5t1.5 -35l-27 -194q-7 -45 -21 -76t-41.5 -50t-73 -27.5t-114.5 -8.5q-87 0 -133 12.5t-60.5 45.5t-5.5 93l28 205q4 29 15.5 39.5t45.5 10.5
q24 0 47.5 -0.5t47.5 -0.5zM428 349l5 50h21q23 0 34 14t14 33l2 21h76l-3 -20q-7 -53 -44.5 -76t-104.5 -22z" />
    <glyph glyph-name="uni01C5" unicode="&#x1c5;" horiz-adv-x="1116" 
d="M838 593h61l55 -69l73 69h65l-126 -133h-41zM297 -1h-73t-70 0.5t-65.5 0.5h-57.5l54 386q5 39 19.5 56t56.5 18q26 0 56.5 0.5t63.5 0.5h66.5h65.5q69 -1 115 -12t71 -36.5t31.5 -71t-3.5 -115.5q-10 -74 -32.5 -119t-60 -68.5t-95.5 -31.5t-142 -8zM315 82q37 0 63 8
t43.5 25t27.5 44.5t16 66.5q7 52 4.5 83t-15.5 46t-38 19.5t-63 4.5h-23t-27 -0.5t-26.5 -0.5t-22.5 -1q-3 -5 -6 -12.5t-5 -20.5l-37 -261h23t29.5 -0.5t30.5 -0.5h26zM843 79h240l-3 -32q-2 -27 -15.5 -37t-42.5 -10h-380l11 73l253 247h-209l4 37q3 20 15.5 31t27.5 11
h376q2 -17 -9.5 -38.5t-28.5 -42.5t-34 -37z" />
    <glyph glyph-name="uni01C6" unicode="&#x1c6;" horiz-adv-x="994" 
d="M716 593h60l55 -69l74 69h64l-126 -133h-41zM223 -2q-81 0 -126.5 18t-60 62t-4.5 122q12 80 40.5 124t75 61.5t110.5 17.5q20 0 42.5 -2t43.5 -5.5t37 -9t23 -12.5l-38 -14l21 145h147l-43 -304q-10 -69 -27.5 -109.5t-48 -60.5t-77.5 -26.5t-115 -6.5zM243 75
q26 0 43 5t27.5 17t17 33t10.5 54l17 133q-5 0 -15.5 0.5t-22 1t-22.5 0.5q-38 0 -61 -9.5t-35 -35t-20 -76.5q-6 -51 -2 -77t20 -36t43 -10zM720 79h240l-3 -32q-2 -27 -15.5 -37t-42.5 -10h-379l10 73l253 247h-209l5 37q3 20 15.5 31t27.5 11h375q2 -17 -9.5 -38.5
t-28.5 -42.5t-34 -37z" />
    <glyph glyph-name="uni01C7" unicode="&#x1c7;" horiz-adv-x="890" 
d="M260 460l-52 -374h302l-11 -86h-468l57 406q3 18 6.5 30t16 18t39.5 6h110zM830 149q-2 -18 -5 -38t-8 -33q-9 -30 -30 -47t-47.5 -24t-54.5 -9q-30 -1 -52.5 -0.5t-45 2.5t-51.5 5l13 95q11 -4 32.5 -9t34.5 -5q23 0 33.5 12t13.5 32l46 330h111q28 0 38 -7t10 -20.5
t-3 -33.5z" />
    <glyph glyph-name="uni01C9" unicode="&#x1c9;" horiz-adv-x="511" 
d="M147 -4q-70 0 -98 23.5t-19 83.5l49 348q3 22 9 34t18.5 16t35.5 4h98q-1 -3 -5 -22t-8 -42l-45 -321q-5 -36 1.5 -50.5t31.5 -14.5q9 0 19.5 2t12.5 3l-7 -55q-7 -1 -27 -5t-66 -4zM284 -99q-37 0 -64.5 4t-34.5 5l7 55q6 -2 21.5 -3.5t24.5 -1.5q35 0 44.5 17t14.5 57
l44 312q3 22 8 33t17 15.5t35 4.5h96l-52 -379q-6 -42 -21 -68.5t-47.5 -38.5t-92.5 -12zM432 447q-36 0 -49.5 9t-10.5 33q4 24 20.5 33.5t52.5 9.5q35 -1 48 -10t9 -33q-3 -24 -18.5 -33t-51.5 -9z" />
    <glyph glyph-name="uni01CA" unicode="&#x1ca;" horiz-adv-x="1026" 
d="M31 0l56 404q4 23 9 35t17.5 16.5t38.5 4.5h155l177 -294l2 -23l44 317h121q-2 -2 -4.5 -12.5t-4 -23t-3.5 -22.5l-49 -353q-5 -33 -20 -41t-52 -8h-141l-182 300l-1 25l-46 -325h-117zM965 149q-2 -18 -5 -38t-8 -33q-9 -30 -30 -47t-47.5 -24t-54.5 -9
q-30 -1 -52.5 -0.5t-45 2.5t-51.5 5l13 95q11 -4 32.5 -9t34.5 -5q23 0 33.5 12t13.5 32l46 330h111q28 0 38 -7t10 -20.5t-3 -33.5z" />
    <glyph glyph-name="uni01CC" unicode="&#x1cc;" horiz-adv-x="767" 
d="M55 0q-38 0 -32 39l47 336q19 7 51.5 13t77 10t98.5 4q76 0 119.5 -8.5t62 -29t20.5 -54.5t-6 -85l-24 -169q-3 -22 -8 -34.5t-18 -17.5t-39 -5l-91 1l36 260q5 33 -12.5 47t-50.5 14q-24 0 -45.5 -5t-32.5 -13l-42 -303h-111zM540 -99q-37 0 -64.5 4t-34.5 5l7 55
q6 -2 21.5 -3.5t24.5 -1.5q35 0 44.5 17t14.5 57l44 312q3 22 8 33t17 15.5t35 4.5h96l-52 -379q-6 -42 -21 -68.5t-47.5 -38.5t-92.5 -12zM688 447q-36 0 -49.5 9t-10.5 33q4 24 20.5 33.5t52.5 9.5q35 -1 48 -10t9 -33q-3 -24 -18.5 -33t-51.5 -9z" />
    <glyph glyph-name="Gcaron" unicode="&#x1e6;" horiz-adv-x="653" 
d="M263 634h60l57 -53l71 53h65l-123 -113h-42zM263 -5q-65 2 -113 11.5t-77.5 34t-39.5 70t0 116.5q11 78 40 125.5t75 72t108.5 32.5t140.5 8q38 0 74.5 -1t65.5 -3.5t47 -6.5q27 -5 37.5 -15.5t12 -23.5t-0.5 -26l-6 -40q-5 8 -26 13.5t-50.5 8.5t-59.5 5t-54.5 2.5
t-34.5 0.5q-72 0 -113.5 -11.5t-62.5 -44t-30 -95.5q-8 -58 2 -89.5t40 -43t81 -11.5q57 0 89 7t47.5 25t20.5 49q1 9 2 15.5t2 10.5h-194q5 33 11.5 51.5t23.5 26.5t52 8h262l-16 -110q-8 -60 -34 -94.5t-67.5 -51t-97 -21.5t-124.5 -5h-16.5h-16.5z" />
    <glyph glyph-name="gcaron" unicode="&#x1e7;" horiz-adv-x="532" 
d="M200 594h60l55 -69l74 69h64l-126 -133h-41zM196 -120q-43 0 -75.5 2t-55 8.5t-33.5 18t-8 30.5q1 6 2 16t2 14q10 -5 35.5 -10.5t57 -9t56.5 -3.5q57 0 88.5 15.5t45.5 50t16 88.5l17 -2q-15 -30 -35.5 -47t-51 -24.5t-76.5 -7.5q-62 0 -98 15.5t-48 55t-3 110.5
q9 62 27 101.5t49.5 61.5t81.5 30t123 8q22 0 53.5 -1.5t64 -4t57 -4.5t32.5 -3q-1 -3 -3 -14t-4.5 -25.5t-4.5 -29.5l-33 -239q-11 -81 -43.5 -124t-90 -59.5t-145.5 -16.5zM243 102q23 0 43 6.5t35 24.5t20 51l19 134q-7 1 -30 2.5t-49 1.5q-31 0 -50 -8.5t-29.5 -32.5
t-17.5 -70q-6 -44 -1.5 -68t19.5 -32.5t41 -8.5z" />
    <glyph glyph-name="uni01EA" unicode="&#x1ea;" horiz-adv-x="653" 
d="M296 -7q-79 0 -134 11t-87 37.5t-42 72.5t0 116q10 72 34 117.5t63.5 72t97.5 37.5t137 11q80 0 134.5 -11t86 -37.5t41.5 -72.5t1 -117q-10 -71 -34 -117t-63.5 -72.5t-97.5 -37t-137 -10.5zM309 78q34 0 59 6.5t42.5 23t29.5 46.5t19 76q6 47 2.5 76.5t-16.5 46
t-36.5 23t-56.5 6.5q-34 0 -59 -6.5t-43 -23t-29.5 -46t-18.5 -76.5q-6 -46 -3 -76t16.5 -46.5t37 -23t56.5 -6.5zM276 -188q-39 0 -59 9t-25 27t-2 43q4 30 23.5 53.5t43 39t40.5 22.5h70q-9 -3 -25.5 -12.5t-35 -23t-32 -29t-15.5 -30.5q-4 -29 11 -36t40 -7q20 0 29 0.5
t12 1t5 0.5q-3 -20 -9.5 -33t-22.5 -19t-48 -6z" />
    <glyph glyph-name="uni01EB" unicode="&#x1eb;" horiz-adv-x="530" 
d="M241 -6q-57 0 -100 9t-70 31.5t-37 63t-2 101.5q10 66 30.5 106.5t53 62t76.5 29t100 7.5q57 0 99.5 -9t69 -31.5t36 -62.5t1.5 -102q-10 -66 -30 -106.5t-52 -62t-75.5 -29t-99.5 -7.5zM248 67q27 0 46.5 10.5t32.5 39t20 82.5q8 54 3 82.5t-21.5 39t-43.5 10.5
t-47 -10.5t-33.5 -39t-21.5 -82.5t-2 -82.5t23 -39t44 -10.5zM240 -185q-39 0 -59 9t-25 27t-2 43q4 30 23.5 53.5t43 39t40.5 22.5h70q-9 -3 -25.5 -12.5t-35 -23t-32 -29t-15.5 -30.5q-4 -29 11 -36t40 -7q20 0 29 0.5t12 1t5 0.5q-3 -20 -9.5 -33t-22.5 -19t-48 -6z" />
    <glyph glyph-name="Aringacute" unicode="&#x1fa;" horiz-adv-x="605" 
d="M-27 0l213 382q22 39 55 60.5t98 21.5q52 0 82 -20t41 -62l106 -382h-177l-29 103h-208l-56 -103h-125zM188 166h152l-34 140q-1 8 -4.5 14.5t-13.5 6.5q-11 0 -16 -6.5t-9 -14.5zM345 522q-31 0 -52 4.5t-30.5 18.5t-6.5 41q5 26 18 39t36 17t54 4q32 0 53.5 -4
t31.5 -17t6 -39q-6 -40 -34 -52t-76 -12zM352 562q21 0 32.5 4.5t12.5 17.5q2 14 -7.5 18.5t-31.5 4.5q-21 0 -32 -4.5t-13 -18.5q-1 -13 8 -17.5t31 -4.5zM329 683l131 113l61 -40l-131 -73h-61z" />
    <glyph glyph-name="aringacute" unicode="&#x1fb;" horiz-adv-x="534" 
d="M224 -5q-70 0 -112.5 4.5t-63.5 17.5t-26 37t0 62q7 51 21 77.5t40.5 36.5t67.5 10q26 0 58 -0.5t63.5 -1.5t54.5 -3.5t32 -4.5q4 31 1.5 49t-13.5 27.5t-30.5 12.5t-48.5 3q-34 0 -69.5 -1t-68 -4t-60.5 -7l5 28q4 27 17.5 40t34.5 17q23 5 69.5 7t99.5 2q67 0 111.5 -7
t68 -25t29.5 -53.5t-2 -94.5l-29 -199q-18 -15 -82.5 -22.5t-167.5 -7.5zM232 57q40 0 66.5 3t38.5 10l15 112q-10 3 -29.5 5t-39 3t-31.5 1q-24 0 -39.5 -4t-23.5 -18t-13 -43q-3 -25 -0.5 -40.5t16 -22t40.5 -6.5zM300 454q-46 0 -69.5 16t-17.5 58t34 56t75 14
q48 0 72 -14t18 -56t-35 -58t-77 -16zM307 494q20 0 31.5 6t15.5 28q3 19 -7.5 25t-30.5 6q-19 0 -31 -6t-15 -25q-4 -22 6.5 -28t30.5 -6zM293 629l154 129l62 -39l-155 -90h-61z" />
    <glyph glyph-name="AEacute" unicode="&#x1fc;" horiz-adv-x="888" 
d="M-8 0q44 49 79 88t65.5 73t61.5 69.5t68 76.5t85 93q26 29 51.5 41.5t50.5 15.5t49 3h399q-3 -23 -6 -45.5t-7 -45.5h-329l-13 -90h298l-12 -91h-149.5h-149.5l-14 -97h330l-12 -91h-244.5h-243.5l13 95h-175q-21 -24 -41.5 -47.5t-40.5 -47.5h-113zM250 161h60.5h60.5
q6 41 11.5 81t11.5 81q-3 -3 -6 -5.5t-5 -5.5q-7 0 -13 -5.5t-11 -12.5q-27 -33 -54.5 -66t-54.5 -67zM525 521l131 113l61 -40l-131 -73h-61z" />
    <glyph glyph-name="aeacute" unicode="&#x1fd;" horiz-adv-x="865" 
d="M224 -5q-70 0 -112.5 4.5t-63.5 17.5t-26 37t0 62q7 51 21 77.5t40.5 36.5t67.5 10q26 0 58 -0.5t63.5 -1.5t54.5 -3.5t32 -4.5q4 31 1.5 49t-13.5 27.5t-30.5 12.5t-48.5 3q-34 0 -69.5 -1t-68 -4t-60.5 -7l5 28q4 27 17.5 40t34.5 17q23 5 69.5 7t99.5 2q67 0 111.5 -7
t68 -25t29.5 -53.5t-2 -94.5l-29 -199q-18 -15 -82.5 -22.5t-167.5 -7.5zM232 57q40 0 66.5 3t38.5 10l15 112q-10 3 -29.5 5t-39 3t-31.5 1q-24 0 -39.5 -4t-23.5 -18t-13 -43q-3 -25 -0.5 -40.5t16 -22t40.5 -6.5zM562 -6q-70 0 -114 8.5t-67.5 30t-28.5 59.5t3 98
q12 79 40 125.5t85 66.5t154 20q114 0 155 -37t30 -116l-11 -77h-278q3 21 14.5 35.5t37.5 14.5h100l3 21q4 40 -9 61t-58 21q-37 0 -58.5 -11t-33.5 -39t-20 -83q-7 -47 -0.5 -71.5t30 -33t70.5 -8.5q17 0 46 1t60 2.5t54 3t29 3.5l-2 -18q-2 -14 -9 -29.5t-21 -25.5
q-20 -14 -68.5 -18t-132.5 -4zM406 460l154 129l62 -39l-155 -90h-61z" />
    <glyph glyph-name="Oslashacute" unicode="&#x1fe;" horiz-adv-x="647" 
d="M28 230q12 83 43.5 131t77.5 71t101.5 29.5t115.5 6.5q61 0 112 -7.5t88 -30.5t52.5 -71t3.5 -129q-12 -83 -43 -131t-77 -70.5t-101.5 -29t-115.5 -6.5q-62 0 -114 7t-88 30.5t-51 71t-4 128.5zM459 229q7 51 2 81t-20.5 46t-39 21t-55.5 5t-57.5 -5t-45 -21t-33 -46
t-21.5 -81q-7 -50 -2 -81t20.5 -46.5t39.5 -20.5t56 -5t57.5 5t45 20.5t33 46.5t20.5 81zM130 -85l320 610h46l-322 -610h-44zM315 521l131 113l61 -40l-131 -73h-61z" />
    <glyph glyph-name="oslashacute" unicode="&#x1ff;" horiz-adv-x="531" 
d="M32 199q10 72 35.5 113.5t62.5 61t81 25t92 5.5t89 -6t70 -26.5t41 -61.5t2 -111q-10 -72 -35.5 -113.5t-62 -61t-81 -25t-92.5 -5.5t-89 6t-70 26.5t-41 61.5t-2 111zM360 197q8 59 1 87t-26.5 37t-48.5 9q-28 0 -50 -9t-37 -37t-23 -87q-8 -58 -1 -86t26.5 -37t48.5 -9
q28 0 50 9t37 37t23 86zM78 -85l302 522h51l-302 -522h-51zM240 460l154 129l62 -39l-155 -90h-61z" />
    <glyph glyph-name="uni0200" unicode="&#x200;" horiz-adv-x="605" 
d="M-27 0l213 382q22 39 55 60.5t98 21.5q52 0 82 -20t41 -62l106 -382h-177l-29 103h-208l-56 -103h-125zM188 166h152l-34 140q-1 8 -4.5 14.5t-13.5 6.5q-11 0 -16 -6.5t-9 -14.5zM255 520l-108 73l68 68l98 -141h-58zM362 520l-89 95l68 61l80 -156h-59z" />
    <glyph glyph-name="uni0201" unicode="&#x201;" horiz-adv-x="534" 
d="M224 -5q-70 0 -112.5 4.5t-63.5 17.5t-26 37t0 62q7 51 21 77.5t40.5 36.5t67.5 10q26 0 58 -0.5t63.5 -1.5t54.5 -3.5t32 -4.5q4 31 1.5 49t-13.5 27.5t-30.5 12.5t-48.5 3q-34 0 -69.5 -1t-68 -4t-60.5 -7l5 28q4 27 17.5 40t34.5 17q23 5 69.5 7t99.5 2q67 0 111.5 -7
t68 -25t29.5 -53.5t-2 -94.5l-29 -199q-18 -15 -82.5 -22.5t-167.5 -7.5zM232 57q40 0 66.5 3t38.5 10l15 112q-10 3 -29.5 5t-39 3t-31.5 1q-24 0 -39.5 -4t-23.5 -18t-13 -43q-3 -25 -0.5 -40.5t16 -22t40.5 -6.5zM238 460l-134 90l73 39l122 -129h-61zM347 460l-113 114
l73 38l95 -152h-55z" />
    <glyph glyph-name="uni0202" unicode="&#x202;" horiz-adv-x="605" 
d="M-27 0l213 382q22 39 55 60.5t98 21.5q52 0 82 -20t41 -62l106 -382h-177l-29 103h-208l-56 -103h-125zM188 166h152l-34 140q-1 8 -4.5 14.5t-13.5 6.5q-11 0 -16 -6.5t-9 -14.5zM363 649q49 0 73 -12t29.5 -40.5t-0.5 -78.5h-56q6 43 -5.5 59t-48.5 16q-41 0 -55 -17.5
t-19 -57.5h-57q8 51 21.5 79.5t41 40t76.5 11.5z" />
    <glyph glyph-name="uni0203" unicode="&#x203;" horiz-adv-x="534" 
d="M224 -5q-70 0 -112.5 4.5t-63.5 17.5t-26 37t0 62q7 51 21 77.5t40.5 36.5t67.5 10q26 0 58 -0.5t63.5 -1.5t54.5 -3.5t32 -4.5q4 31 1.5 49t-13.5 27.5t-30.5 12.5t-48.5 3q-34 0 -69.5 -1t-68 -4t-60.5 -7l5 28q4 27 17.5 40t34.5 17q23 5 69.5 7t99.5 2q67 0 111.5 -7
t68 -25t29.5 -53.5t-2 -94.5l-29 -199q-18 -15 -82.5 -22.5t-167.5 -7.5zM232 57q40 0 66.5 3t38.5 10l15 112q-10 3 -29.5 5t-39 3t-31.5 1q-24 0 -39.5 -4t-23.5 -18t-13 -43q-3 -25 -0.5 -40.5t16 -22t40.5 -6.5zM322 588q49 0 73 -12t29.5 -40.5t-0.5 -78.5h-56
q6 43 -5.5 59t-48.5 16q-41 0 -55 -17.5t-19 -57.5h-57q8 51 21.5 79.5t41 40t76.5 11.5z" />
    <glyph glyph-name="uni0204" unicode="&#x204;" horiz-adv-x="606" 
d="M31 0l56 399q3 23 6.5 36t16 19t39.5 6h462l-11 -86h-352l-14 -96h320l-12 -85h-319l-16 -107h352l-12 -86h-516zM276 520l-108 73l68 68l98 -141h-58zM383 520l-89 95l68 61l80 -156h-59z" />
    <glyph glyph-name="uni0205" unicode="&#x205;" horiz-adv-x="514" 
d="M238 -6q-70 0 -114 8.5t-67.5 30t-28.5 59.5t3 98q12 79 40 125.5t85 66.5t154 20q114 0 155 -37t30 -116l-11 -77h-278q3 21 14.5 35.5t37.5 14.5h100l3 21q4 40 -9 61t-58 21q-37 0 -58.5 -11t-33.5 -39t-20 -83q-7 -47 -0.5 -71.5t30 -33t70.5 -8.5q17 0 46 1t60 2.5
t54 3t29 3.5l-2 -18q-2 -14 -9 -29.5t-21 -25.5q-20 -14 -68.5 -18t-132.5 -4zM250 460l-134 90l73 39l122 -129h-61zM359 460l-113 114l73 38l95 -152h-55z" />
    <glyph glyph-name="uni0206" unicode="&#x206;" horiz-adv-x="606" 
d="M31 0l56 399q3 23 6.5 36t16 19t39.5 6h462l-11 -86h-352l-14 -96h320l-12 -85h-319l-16 -107h352l-12 -86h-516zM384 649q49 0 73 -12t29.5 -40.5t-0.5 -78.5h-56q6 43 -5.5 59t-48.5 16q-41 0 -55 -17.5t-19 -57.5h-57q8 51 21.5 79.5t41 40t76.5 11.5z" />
    <glyph glyph-name="uni0207" unicode="&#x207;" horiz-adv-x="514" 
d="M238 -6q-70 0 -114 8.5t-67.5 30t-28.5 59.5t3 98q12 79 40 125.5t85 66.5t154 20q114 0 155 -37t30 -116l-11 -77h-278q3 21 14.5 35.5t37.5 14.5h100l3 21q4 40 -9 61t-58 21q-37 0 -58.5 -11t-33.5 -39t-20 -83q-7 -47 -0.5 -71.5t30 -33t70.5 -8.5q17 0 46 1t60 2.5
t54 3t29 3.5l-2 -18q-2 -14 -9 -29.5t-21 -25.5q-20 -14 -68.5 -18t-132.5 -4zM335 588q49 0 73 -12t29.5 -40.5t-0.5 -78.5h-56q6 43 -5.5 59t-48.5 16q-41 0 -55 -17.5t-19 -57.5h-57q8 51 21.5 79.5t41 40t76.5 11.5z" />
    <glyph glyph-name="uni0208" unicode="&#x208;" horiz-adv-x="282" 
d="M31 0q14 102 28.5 204.5t28.5 203.5q2 17 6 28.5t16.5 17.5t38.5 6h110l-64 -460h-164zM103 520l-108 73l68 68l98 -141h-58zM210 520l-89 95l68 61l80 -156h-59z" />
    <glyph glyph-name="uni0209" unicode="&#x209;" horiz-adv-x="311" 
d="M239 399q-9 -66 -18.5 -133t-18.5 -134q-6 -40 -1 -59t38 -19q7 0 15 2t11 4l-8 -55q-7 -1 -27.5 -5t-56.5 -4q-49 0 -76.5 7t-39.5 19.5t-14 28.5t1 34t6 37q4 31 9.5 69.5t11.5 78t10.5 73.5t7.5 56h75h75zM107 460l-134 90l73 39l122 -129h-61zM216 460l-113 114
l73 38l95 -152h-55z" />
    <glyph glyph-name="uni020A" unicode="&#x20a;" horiz-adv-x="282" 
d="M31 0q14 102 28.5 204.5t28.5 203.5q2 17 6 28.5t16.5 17.5t38.5 6h110l-64 -460h-164zM211 649q49 0 73 -12t29.5 -40.5t-0.5 -78.5h-56q6 43 -5.5 59t-48.5 16q-41 0 -55 -17.5t-19 -57.5h-57q8 51 21.5 79.5t41 40t76.5 11.5z" />
    <glyph glyph-name="uni020B" unicode="&#x20b;" horiz-adv-x="311" 
d="M239 399q-9 -66 -18.5 -133t-18.5 -134q-6 -40 -1 -59t38 -19q7 0 15 2t11 4l-8 -55q-7 -1 -27.5 -5t-56.5 -4q-49 0 -76.5 7t-39.5 19.5t-14 28.5t1 34t6 37q4 31 9.5 69.5t11.5 78t10.5 73.5t7.5 56h75h75zM191 588q49 0 73 -12t29.5 -40.5t-0.5 -78.5h-56
q6 43 -5.5 59t-48.5 16q-41 0 -55 -17.5t-19 -57.5h-57q8 51 21.5 79.5t41 40t76.5 11.5z" />
    <glyph glyph-name="uni020C" unicode="&#x20c;" horiz-adv-x="653" 
d="M296 -7q-79 0 -134 11t-87 37.5t-42 72.5t0 116q10 72 34 117.5t63.5 72t97.5 37.5t137 11q80 0 134.5 -11t86 -37.5t41.5 -72.5t1 -117q-10 -71 -34 -117t-63.5 -72.5t-97.5 -37t-137 -10.5zM309 78q34 0 59 6.5t42.5 23t29.5 46.5t19 76q6 47 2.5 76.5t-16.5 46
t-36.5 23t-56.5 6.5q-34 0 -59 -6.5t-43 -23t-29.5 -46t-18.5 -76.5q-6 -46 -3 -76t16.5 -46.5t37 -23t56.5 -6.5zM290 520l-108 73l68 68l98 -141h-58zM397 520l-89 95l68 61l80 -156h-59z" />
    <glyph glyph-name="uni020D" unicode="&#x20d;" horiz-adv-x="530" 
d="M241 -6q-57 0 -100 9t-70 31.5t-37 63t-2 101.5q10 66 30.5 106.5t53 62t76.5 29t100 7.5q57 0 99.5 -9t69 -31.5t36 -62.5t1.5 -102q-10 -66 -30 -106.5t-52 -62t-75.5 -29t-99.5 -7.5zM248 67q27 0 46.5 10.5t32.5 39t20 82.5q8 54 3 82.5t-21.5 39t-43.5 10.5
t-47 -10.5t-33.5 -39t-21.5 -82.5t-2 -82.5t23 -39t44 -10.5zM241 460l-134 90l73 39l122 -129h-61zM350 460l-113 114l73 38l95 -152h-55z" />
    <glyph glyph-name="uni020E" unicode="&#x20e;" horiz-adv-x="653" 
d="M296 -7q-79 0 -134 11t-87 37.5t-42 72.5t0 116q10 72 34 117.5t63.5 72t97.5 37.5t137 11q80 0 134.5 -11t86 -37.5t41.5 -72.5t1 -117q-10 -71 -34 -117t-63.5 -72.5t-97.5 -37t-137 -10.5zM309 78q34 0 59 6.5t42.5 23t29.5 46.5t19 76q6 47 2.5 76.5t-16.5 46
t-36.5 23t-56.5 6.5q-34 0 -59 -6.5t-43 -23t-29.5 -46t-18.5 -76.5q-6 -46 -3 -76t16.5 -46.5t37 -23t56.5 -6.5zM398 649q49 0 73 -12t29.5 -40.5t-0.5 -78.5h-56q6 43 -5.5 59t-48.5 16q-41 0 -55 -17.5t-19 -57.5h-57q8 51 21.5 79.5t41 40t76.5 11.5z" />
    <glyph glyph-name="uni020F" unicode="&#x20f;" horiz-adv-x="530" 
d="M241 -6q-57 0 -100 9t-70 31.5t-37 63t-2 101.5q10 66 30.5 106.5t53 62t76.5 29t100 7.5q57 0 99.5 -9t69 -31.5t36 -62.5t1.5 -102q-10 -66 -30 -106.5t-52 -62t-75.5 -29t-99.5 -7.5zM248 67q27 0 46.5 10.5t32.5 39t20 82.5q8 54 3 82.5t-21.5 39t-43.5 10.5
t-47 -10.5t-33.5 -39t-21.5 -82.5t-2 -82.5t23 -39t44 -10.5zM325 588q49 0 73 -12t29.5 -40.5t-0.5 -78.5h-56q6 43 -5.5 59t-48.5 16q-41 0 -55 -17.5t-19 -57.5h-57q8 51 21.5 79.5t41 40t76.5 11.5z" />
    <glyph glyph-name="uni0210" unicode="&#x210;" horiz-adv-x="672" 
d="M347 155h-19.5t-49.5 -0.5t-61 -0.5l-22 -154h-164l56 399q4 29 18.5 45t54.5 16q15 0 45.5 0.5t69 0.5t80.5 0.5t80 0t67 -1t41 -1.5q53 -5 76 -32.5t15 -89.5q-9 -56 -21 -81.5t-32 -39.5q-8 -5 -21 -8t-27 -3l-1 -4h15.5t14.5 -1q25 -5 34.5 -16.5t10.5 -27t-2 -31.5
l-12 -88q-3 -19 0 -27.5t4 -9.5h-123q-25 0 -38.5 8t-10.5 34l10 66q5 31 -8 39t-47 8h-33zM228 233q10 0 32.5 -0.5t49 -0.5h49.5h33q24 0 44.5 15.5t25.5 58.5q5 30 -3 47t-31 19q-14 3 -37.5 3h-49t-46.5 -0.5t-31 -0.5q-2 0 -9.5 -3t-9.5 -15zM270 520l-108 73l68 68
l98 -141h-58zM377 520l-89 95l68 61l80 -156h-59z" />
    <glyph glyph-name="uni0211" unicode="&#x211;" horiz-adv-x="463" 
d="M167 0h-108q-22 0 -30.5 11t-3.5 44l45 324q29 7 84 15t121 8q70 0 109.5 -8t56 -24.5t18.5 -42t-3 -61.5h-143l2 14q3 24 -4 35t-18.5 14t-24.5 3q-19 0 -34.5 -4t-22.5 -12zM215 460l-134 90l73 39l122 -129h-61zM324 460l-113 114l73 38l95 -152h-55z" />
    <glyph glyph-name="uni0212" unicode="&#x212;" horiz-adv-x="672" 
d="M347 155h-19.5t-49.5 -0.5t-61 -0.5l-22 -154h-164l56 399q4 29 18.5 45t54.5 16q15 0 45.5 0.5t69 0.5t80.5 0.5t80 0t67 -1t41 -1.5q53 -5 76 -32.5t15 -89.5q-9 -56 -21 -81.5t-32 -39.5q-8 -5 -21 -8t-27 -3l-1 -4h15.5t14.5 -1q25 -5 34.5 -16.5t10.5 -27t-2 -31.5
l-12 -88q-3 -19 0 -27.5t4 -9.5h-123q-25 0 -38.5 8t-10.5 34l10 66q5 31 -8 39t-47 8h-33zM228 233q10 0 32.5 -0.5t49 -0.5h49.5h33q24 0 44.5 15.5t25.5 58.5q5 30 -3 47t-31 19q-14 3 -37.5 3h-49t-46.5 -0.5t-31 -0.5q-2 0 -9.5 -3t-9.5 -15zM378 649q49 0 73 -12
t29.5 -40.5t-0.5 -78.5h-56q6 43 -5.5 59t-48.5 16q-41 0 -55 -17.5t-19 -57.5h-57q8 51 21.5 79.5t41 40t76.5 11.5z" />
    <glyph glyph-name="uni0213" unicode="&#x213;" horiz-adv-x="463" 
d="M167 0h-108q-22 0 -30.5 11t-3.5 44l45 324q29 7 84 15t121 8q70 0 109.5 -8t56 -24.5t18.5 -42t-3 -61.5h-143l2 14q3 24 -4 35t-18.5 14t-24.5 3q-19 0 -34.5 -4t-22.5 -12zM299 588q49 0 73 -12t29.5 -40.5t-0.5 -78.5h-56q6 43 -5.5 59t-48.5 16q-41 0 -55 -17.5
t-19 -57.5h-57q8 51 21.5 79.5t41 40t76.5 11.5z" />
    <glyph glyph-name="uni0214" unicode="&#x214;" horiz-adv-x="645" 
d="M601 228q-7 -47 -16 -84t-27 -64.5t-50 -45.5t-84 -27t-132 -9t-130.5 9t-77 27t-35 44t-6.5 61t8 78l24 169q5 31 9 47t17.5 21.5t44.5 5.5h104l-39 -275q-5 -42 2.5 -63t31 -27.5t61.5 -6.5q61 0 88.5 21t35.5 75l39 276h101q33 0 45 -5.5t12 -21.5t-4 -47zM278 520
l-108 73l68 68l98 -141h-58zM385 520l-89 95l68 61l80 -156h-59z" />
    <glyph glyph-name="uni0215" unicode="&#x215;" horiz-adv-x="524" 
d="M215 399l-36 -259q-5 -36 10.5 -50.5t54.5 -14.5q41 0 60 15.5t24 48.5l36 260h13t28 0.5t29 0.5h16q24 0 37.5 -2.5t18 -12.5t1.5 -35l-27 -194q-7 -45 -21 -76t-41.5 -50t-73 -27.5t-114.5 -8.5q-87 0 -133 12.5t-60.5 45.5t-5.5 93l28 205q4 29 15.5 39.5t45.5 10.5
q24 0 47.5 -0.5t47.5 -0.5zM235 460l-134 90l73 39l122 -129h-61zM344 460l-113 114l73 38l95 -152h-55z" />
    <glyph glyph-name="uni0216" unicode="&#x216;" horiz-adv-x="645" 
d="M601 228q-7 -47 -16 -84t-27 -64.5t-50 -45.5t-84 -27t-132 -9t-130.5 9t-77 27t-35 44t-6.5 61t8 78l24 169q5 31 9 47t17.5 21.5t44.5 5.5h104l-39 -275q-5 -42 2.5 -63t31 -27.5t61.5 -6.5q61 0 88.5 21t35.5 75l39 276h101q33 0 45 -5.5t12 -21.5t-4 -47zM386 649
q49 0 73 -12t29.5 -40.5t-0.5 -78.5h-56q6 43 -5.5 59t-48.5 16q-41 0 -55 -17.5t-19 -57.5h-57q8 51 21.5 79.5t41 40t76.5 11.5z" />
    <glyph glyph-name="uni0217" unicode="&#x217;" horiz-adv-x="524" 
d="M215 399l-36 -259q-5 -36 10.5 -50.5t54.5 -14.5q41 0 60 15.5t24 48.5l36 260h13t28 0.5t29 0.5h16q24 0 37.5 -2.5t18 -12.5t1.5 -35l-27 -194q-7 -45 -21 -76t-41.5 -50t-73 -27.5t-114.5 -8.5q-87 0 -133 12.5t-60.5 45.5t-5.5 93l28 205q4 29 15.5 39.5t45.5 10.5
q24 0 47.5 -0.5t47.5 -0.5zM319 588q49 0 73 -12t29.5 -40.5t-0.5 -78.5h-56q6 43 -5.5 59t-48.5 16q-41 0 -55 -17.5t-19 -57.5h-57q8 51 21.5 79.5t41 40t76.5 11.5z" />
    <glyph glyph-name="uni0218" unicode="&#x218;" horiz-adv-x="621" 
d="M28 109q24 -11 62.5 -16.5t80 -6.5t73.5 -1h30.5t30.5 1q27 0 46.5 5.5t31 17.5t14.5 34q3 17 -2.5 26.5t-18.5 13t-34 3.5h-25.5h-36.5h-56q-33 0 -65 3t-56.5 14.5t-36.5 37t-5 70.5q7 54 29.5 84.5t58.5 45.5t83 19t104 4q34 0 73 -1t73.5 -3t52.5 -7q34 -2 49.5 -18
t12.5 -40q0 -4 -1.5 -13.5t-2.5 -18.5t-2 -10q-6 7 -26.5 11.5t-49 6.5t-56 3t-47.5 1h-91q-28 0 -46.5 -4.5t-29 -15.5t-13.5 -31q-2 -16 2 -25.5t17 -13.5t34 -4h97.5h47.5q48 0 83 -8t51.5 -36t7.5 -86q-8 -55 -34.5 -87.5t-66.5 -47.5t-92 -18q-49 -3 -91.5 -3h-91.5
q-39 1 -72 3.5t-57 9t-36 18t-10 30.5zM159 -255q13 21 23 36t19.5 29.5t20.5 32.5q-3 0 -7.5 0.5t-7.5 0.5q-13 2 -22 11t-6 34q4 32 24 40t53 8q14 0 25.5 -3t18 -13.5t3.5 -31.5q-4 -23 -16.5 -49.5t-29.5 -51t-35 -43.5h-63z" />
    <glyph glyph-name="uni0219" unicode="&#x219;" horiz-adv-x="517" 
d="M202 -4q-24 0 -51.5 1t-53 4t-46.5 9q-17 4 -28 10.5t-14 25t2 58.5q30 -11 62.5 -17.5t63.5 -9t58 -2.5q19 0 41.5 0.5t44.5 5t37 15t18 29.5q4 23 -7.5 30t-31.5 7h-114q-46 0 -81 5t-52 27.5t-9 76.5q8 59 41.5 87.5t89.5 37.5t133 9q29 0 66.5 -1t63.5 -5
q31 -3 47.5 -9.5t22.5 -20t2 -41.5l-4 -28q-5 10 -28.5 15.5t-57.5 7.5t-71 2h-69q-23 0 -42 -2.5t-31 -12t-16 -30.5q-2 -16 4 -23.5t18 -9.5t27 -2h127q42 0 72.5 -7.5t45 -32t6.5 -76.5q-8 -60 -46 -88t-99.5 -36.5t-140.5 -8.5zM137 -255q13 21 23 36t19.5 29.5
t20.5 32.5q-3 0 -7.5 0.5t-7.5 0.5q-13 2 -22 11t-6 34q4 32 24 40t53 8q14 0 25.5 -3t18 -13.5t3.5 -31.5q-4 -23 -16.5 -49.5t-29.5 -51t-35 -43.5h-63z" />
    <glyph glyph-name="uni021A" unicode="&#x21a;" horiz-adv-x="589" 
d="M55 460h552l-12 -87h-193l-44 -319q-3 -21 -9 -33t-18 -16.5t-36 -4.5h-110l53 373h-195zM171 -253q13 21 23 36t19.5 29.5t20.5 32.5q-3 0 -7.5 0.5t-7.5 0.5q-13 2 -22 11t-6 34q4 32 24 40t53 8q14 0 25.5 -3t18 -13.5t3.5 -31.5q-4 -23 -16.5 -49.5t-29.5 -51
t-35 -43.5h-63z" />
    <glyph glyph-name="uni021B" unicode="&#x21b;" horiz-adv-x="330" 
d="M66 -226q12 18 20.5 31.5t16.5 26.5t18 29h-6h-6q-12 3 -20.5 10.5t-4.5 30.5q3 27 20.5 34.5t47.5 7.5q11 0 21.5 -3t16.5 -12t4 -28q-4 -20 -15 -43.5t-26.5 -45.5t-30.5 -38h-56zM174 -4q-54 0 -82.5 11.5t-37 38t-2.5 73.5l28 202h-42l11 78h43l7 51q4 25 9 37
t16.5 15t35.5 3h96q0 -4 -1 -10t-2 -15l-12 -81h97l-11 -78h-97l-26 -190q-5 -40 -0.5 -58t37.5 -18q10 0 24.5 2t20.5 4l-7 -55q-7 -1 -35.5 -5.5t-69.5 -4.5z" />
    <glyph glyph-name="uni022A" unicode="&#x22a;" horiz-adv-x="653" 
d="M471 520q-24 0 -37.5 6.5t-5.5 34.5q6 26 25 32t42 6t35.5 -7t6.5 -31q-8 -28 -24.5 -34.5t-41.5 -6.5zM288 520q-24 0 -37.5 6.5t-5.5 34.5q6 26 25 32t42 6t35.5 -7t5.5 -31q-8 -27 -24.5 -34t-40.5 -7zM296 -7q-79 0 -134 11t-87 37.5t-42 72.5t0 116q10 72 34 117.5
t63.5 72t97.5 37.5t137 11q80 0 134.5 -11t86 -37.5t41.5 -72.5t1 -117q-10 -71 -34 -117t-63.5 -72.5t-97.5 -37t-137 -10.5zM309 78q34 0 59 6.5t42.5 23t29.5 46.5t19 76q6 47 2.5 76.5t-16.5 46t-36.5 23t-56.5 6.5q-34 0 -59 -6.5t-43 -23t-29.5 -46t-18.5 -76.5
q-6 -46 -3 -76t16.5 -46.5t37 -23t56.5 -6.5zM266 655l7 58h280l-8 -58h-279z" />
    <glyph glyph-name="uni022B" unicode="&#x22b;" horiz-adv-x="530" 
d="M241 -6q-57 0 -100 9t-70 31.5t-37 63t-2 101.5q10 66 30.5 106.5t53 62t76.5 29t100 7.5q57 0 99.5 -9t69 -31.5t36 -62.5t1.5 -102q-10 -66 -30 -106.5t-52 -62t-75.5 -29t-99.5 -7.5zM248 67q27 0 46.5 10.5t32.5 39t20 82.5q8 54 3 82.5t-21.5 39t-43.5 10.5
t-47 -10.5t-33.5 -39t-21.5 -82.5t-2 -82.5t23 -39t44 -10.5zM397 459q-24 0 -38 6.5t-11 34.5q4 26 21.5 32t40.5 6t37 -7t10 -31q-3 -28 -19 -34.5t-41 -6.5zM214 459q-24 0 -38 6.5t-11 34.5q4 26 21.5 32t40.5 6t36.5 -7t9.5 -31q-3 -27 -19 -34t-40 -7zM186 594l7 60
h277l-7 -60h-277z" />
    <glyph glyph-name="uni022C" unicode="&#x22c;" horiz-adv-x="653" 
d="M296 -7q-79 0 -134 11t-87 37.5t-42 72.5t0 116q10 72 34 117.5t63.5 72t97.5 37.5t137 11q80 0 134.5 -11t86 -37.5t41.5 -72.5t1 -117q-10 -71 -34 -117t-63.5 -72.5t-97.5 -37t-137 -10.5zM309 78q34 0 59 6.5t42.5 23t29.5 46.5t19 76q6 47 2.5 76.5t-16.5 46
t-36.5 23t-56.5 6.5q-34 0 -59 -6.5t-43 -23t-29.5 -46t-18.5 -76.5q-6 -46 -3 -76t16.5 -46.5t37 -23t56.5 -6.5zM437 522q-20 -1 -37 9.5t-33 21.5t-37 9q-19 0 -32 -11.5t-18 -17.5l-24 23q1 1 7 11.5t17.5 23.5t26.5 23.5t33 10.5q20 1 36.5 -9.5l33 -21t35.5 -10.5
q22 0 36 12.5t20 21.5l24 -22q-1 0 -7.5 -11.5t-18.5 -26t-27.5 -25.5t-34.5 -11zM266 663l7 58h280l-8 -58h-279z" />
    <glyph glyph-name="uni022D" unicode="&#x22d;" horiz-adv-x="530" 
d="M241 -6q-57 0 -100 9t-70 31.5t-37 63t-2 101.5q10 66 30.5 106.5t53 62t76.5 29t100 7.5q57 0 99.5 -9t69 -31.5t36 -62.5t1.5 -102q-10 -66 -30 -106.5t-52 -62t-75.5 -29t-99.5 -7.5zM248 67q27 0 46.5 10.5t32.5 39t20 82.5q8 54 3 82.5t-21.5 39t-43.5 10.5
t-47 -10.5t-33.5 -39t-21.5 -82.5t-2 -82.5t23 -39t44 -10.5zM363 460q-19 0 -36 10.5t-33.5 21.5t-37.5 9q-18 0 -30.5 -12t-17.5 -18l-25 23q1 1 7.5 11.5t17.5 24t26 23.5t32 10q20 2 37 -9t33 -21.5t35 -10.5q22 0 36 13t20 22l25 -21q-1 -1 -8 -12.5t-18.5 -26
t-27.5 -26t-35 -11.5zM194 602l7 60h277l-7 -60h-277z" />
    <glyph glyph-name="uni0230" unicode="&#x230;" horiz-adv-x="653" 
d="M296 -7q-79 0 -134 11t-87 37.5t-42 72.5t0 116q10 72 34 117.5t63.5 72t97.5 37.5t137 11q80 0 134.5 -11t86 -37.5t41.5 -72.5t1 -117q-10 -71 -34 -117t-63.5 -72.5t-97.5 -37t-137 -10.5zM309 78q34 0 59 6.5t42.5 23t29.5 46.5t19 76q6 47 2.5 76.5t-16.5 46
t-36.5 23t-56.5 6.5q-34 0 -59 -6.5t-43 -23t-29.5 -46t-18.5 -76.5q-6 -46 -3 -76t16.5 -46.5t37 -23t56.5 -6.5zM379 519q-24 0 -38.5 5.5t-11.5 31.5q4 25 21 31t41 6q23 0 36.5 -6.5t9.5 -30.5q-3 -26 -18.5 -31.5t-39.5 -5.5zM259 656l7 58h280l-8 -58h-279z" />
    <glyph glyph-name="uni0231" unicode="&#x231;" horiz-adv-x="530" 
d="M241 -6q-57 0 -100 9t-70 31.5t-37 63t-2 101.5q10 66 30.5 106.5t53 62t76.5 29t100 7.5q57 0 99.5 -9t69 -31.5t36 -62.5t1.5 -102q-10 -66 -30 -106.5t-52 -62t-75.5 -29t-99.5 -7.5zM248 67q27 0 46.5 10.5t32.5 39t20 82.5q8 54 3 82.5t-21.5 39t-43.5 10.5
t-47 -10.5t-33.5 -39t-21.5 -82.5t-2 -82.5t23 -39t44 -10.5zM306 458q-24 0 -38.5 5.5t-11.5 31.5q4 25 21 31t41 6q23 0 36.5 -6.5t9.5 -30.5q-3 -26 -18.5 -31.5t-39.5 -5.5zM187 595l7 60h277l-7 -60h-277z" />
    <glyph glyph-name="uni0232" unicode="&#x232;" horiz-adv-x="593" 
d="M190 0l25 183l-160 252l-18 25h228l90 -167l131 167h148l-30 -28l-225 -249l-17 -123q-2 -25 -10 -38t-24.5 -17.5t-45.5 -4.5h-92zM254 521l7 58h280l-8 -58h-279z" />
    <glyph glyph-name="uni0233" unicode="&#x233;" horiz-adv-x="519" 
d="M208 -111q-57 0 -105 5t-76 16.5t-26 29.5l6 43q15 -9 43 -15t61 -9.5t61 -3.5q48 0 76.5 10.5t43 33.5t19.5 59l6 39q-14 -20 -34 -31.5t-49.5 -16t-72.5 -4.5q-65 0 -94 20.5t-33.5 57.5t2.5 86l19 138q2 15 6.5 27t16.5 18.5t36 6.5h101q-4 -26 -6.5 -45t-4.5 -35.5
t-4.5 -35.5t-6.5 -45q-8 -57 -4.5 -83t18.5 -33t39 -7q25 0 41.5 8t27.5 33t18 77l23 166h104q24 0 35.5 -7.5t7.5 -35.5l-41 -289q-13 -90 -72 -134t-182 -44zM155 460l7 60h277l-7 -60h-277z" />
    <glyph glyph-name="uni0237" unicode="&#x237;" horiz-adv-x="298" 
d="M-29 -36q6 -2 21.5 -3.5t24.5 -1.5q35 0 44.5 19t14.5 59q11 78 21.5 155t21.5 154q3 22 8.5 33t17.5 15.5t35 4.5h48h48q-2 -20 -7 -52.5t-10 -72t-11 -81.5t-11.5 -79t-8.5 -64q-3 -20 -5.5 -41.5t-9 -40.5t-22.5 -34.5t-46.5 -24t-80.5 -8.5q-38 0 -65.5 4t-35.5 5
q2 13 4 26.5t4 27.5z" />
    <glyph glyph-name="uni02B9" unicode="&#x2b9;" horiz-adv-x="128" 
d="M65 555h85l-83 -156h-67z" />
    <glyph glyph-name="uni02BA" unicode="&#x2ba;" horiz-adv-x="273" 
d="M65 546h86l-84 -147h-66zM209 546h86l-84 -147h-66z" />
    <glyph glyph-name="uni02BC" unicode="&#x2bc;" horiz-adv-x="129" 
d="M65 546h86l-84 -147h-66z" />
    <glyph glyph-name="circumflex" unicode="&#x2c6;" horiz-adv-x="254" 
d="M37 460l124 133h41l89 -133h-65l-54 69l-75 -69h-60z" />
    <glyph glyph-name="caron" unicode="&#x2c7;" horiz-adv-x="254" 
d="M65 593h61l54 -69l74 69h65l-126 -133h-41z" />
    <glyph glyph-name="breve" unicode="&#x2d8;" horiz-adv-x="240" 
d="M157 458q-49 0 -73.5 12t-30 40.5t1.5 78.5h55q-5 -43 6.5 -59t47.5 -16q41 0 55 18t19 57h57q-6 -51 -20 -79.5t-41.5 -40t-76.5 -11.5z" />
    <glyph glyph-name="dotaccent" unicode="&#x2d9;" horiz-adv-x="108" 
d="M91 458q-24 0 -38.5 5.5t-11.5 31.5q4 25 21 31t41 6q23 0 36.5 -6.5t9.5 -30.5q-3 -26 -18.5 -31.5t-39.5 -5.5z" />
    <glyph glyph-name="ring" unicode="&#x2da;" horiz-adv-x="201" 
d="M133 454q-46 0 -69.5 16t-17.5 58t34 56t75 14q48 0 72 -14t18 -56t-35 -58t-77 -16zM140 494q20 0 31.5 6t15.5 28q3 19 -7.5 25t-30.5 6q-19 0 -31 -6t-15 -25q-4 -22 6.5 -28t30.5 -6z" />
    <glyph glyph-name="ogonek" unicode="&#x2db;" horiz-adv-x="183" 
d="M43 -190q-39 0 -59 9t-25 27t-2 43q4 30 23.5 53.5t43 39t40.5 22.5h70q-9 -3 -25.5 -12.5t-35 -23t-32 -29t-15.5 -30.5q-4 -29 11 -36t40 -7q20 0 29 0.5t12 1t5 0.5q-3 -20 -9.5 -33t-22.5 -19t-48 -6z" />
    <glyph glyph-name="tilde" unicode="&#x2dc;" horiz-adv-x="261" 
d="M221 460q-19 0 -36 10.5t-33.5 21.5t-37.5 9q-18 0 -30.5 -12t-17.5 -18l-25 23q1 1 7.5 11.5t17.5 24t26 23.5t32 10q20 2 37 -9t33 -21.5t35 -10.5q22 0 36 13t20 22l25 -21q-1 -1 -8 -12.5t-18.5 -26t-27.5 -26t-35 -11.5z" />
    <glyph glyph-name="hungarumlaut" unicode="&#x2dd;" horiz-adv-x="261" 
d="M171 460l60 126l85 -1l-82 -125h-63zM37 460l61 126l84 -1l-82 -125h-63z" />
    <glyph glyph-name="gravecomb" unicode="&#x300;" 
d="M179 460l-130 90l73 39l118 -129h-61z" />
    <glyph glyph-name="acutecomb" unicode="&#x301;" 
d="M37 460l154 129l62 -39l-155 -90h-61z" />
    <glyph glyph-name="uni0302" unicode="&#x302;" 
d="M37 460l124 133h41l89 -133h-65l-54 69l-75 -69h-60z" />
    <glyph glyph-name="tildecomb" unicode="&#x303;" 
d="M221 460q-19 0 -36 10.5t-33.5 21.5t-37.5 9q-18 0 -30.5 -12t-17.5 -18l-25 23q1 1 7.5 11.5t17.5 24t26 23.5t32 10q20 2 37 -9t33 -21.5t35 -10.5q22 0 36 13t20 22l25 -21q-1 -1 -8 -12.5t-18.5 -26t-27.5 -26t-35 -11.5z" />
    <glyph glyph-name="uni0304" unicode="&#x304;" 
d="M38 460l7 60h277l-7 -60h-277z" />
    <glyph glyph-name="uni0306" unicode="&#x306;" 
d="M157 458q-49 0 -73.5 12t-30 40.5t1.5 78.5h55q-5 -43 6.5 -59t47.5 -16q41 0 55 18t19 57h57q-6 -51 -20 -79.5t-41.5 -40t-76.5 -11.5z" />
    <glyph glyph-name="uni0307" unicode="&#x307;" 
d="M91 458q-24 0 -38.5 5.5t-11.5 31.5q4 25 21 31t41 6q23 0 36.5 -6.5t9.5 -30.5q-3 -26 -18.5 -31.5t-39.5 -5.5z" />
    <glyph glyph-name="uni0308" unicode="&#x308;" 
d="M274 459q-24 0 -38 6.5t-11 34.5q4 26 21.5 32t40.5 6t37 -7t10 -31q-3 -28 -19 -34.5t-41 -6.5zM91 459q-24 0 -38 6.5t-11 34.5q4 26 21.5 32t40.5 6t36.5 -7t9.5 -31q-3 -27 -19 -34t-40 -7z" />
    <glyph glyph-name="hookabovecomb" unicode="&#x309;" 
d="M89 458l1 13q2 13 12 19l20 12t11 18l2 9q2 14 -1 19.5t-15 5.5q-10 0 -14.5 -6t-7.5 -16l-49 8q12 56 82 56q40 0 58 -13.5t13 -49.5v-3q-3 -22 -15 -32t-23.5 -16t-13.5 -17v-7h-60z" />
    <glyph glyph-name="uni030A" unicode="&#x30a;" 
d="M133 454q-46 0 -69.5 16t-17.5 58t34 56t75 14q48 0 72 -14t18 -56t-35 -58t-77 -16zM140 494q20 0 31.5 6t15.5 28q3 19 -7.5 25t-30.5 6q-19 0 -31 -6t-15 -25q-4 -22 6.5 -28t30.5 -6z" />
    <glyph glyph-name="uni030B" unicode="&#x30b;" 
d="M171 460l60 126l85 -1l-82 -125h-63zM37 460l61 126l84 -1l-82 -125h-63z" />
    <glyph glyph-name="uni030C" unicode="&#x30c;" 
d="M65 593h61l54 -69l74 69h65l-126 -133h-41z" />
    <glyph glyph-name="uni030F" unicode="&#x30f;" 
d="M183 460l-134 90l73 39l122 -129h-61zM292 460l-113 114l73 38l95 -152h-55z" />
    <glyph glyph-name="uni0311" unicode="&#x311;" 
d="M175 589q49 0 73 -12t29.5 -40.5t-0.5 -78.5h-56q6 43 -5.5 59t-48.5 16q-41 0 -55 -17.5t-19 -57.5h-57q8 51 21.5 79.5t41 40t76.5 11.5z" />
    <glyph glyph-name="uni0312" unicode="&#x312;" 
d="M90 460q-13 0 -25 3.5t-18 14t-4 31.5q4 24 16.5 50t30 50.5t33.5 42.5h64q-13 -19 -23 -34.5t-19 -30t-21 -32.5q4 0 7.5 -0.5t6.5 -1.5q14 -2 23.5 -10.5t5.5 -34.5q-4 -31 -23.5 -39.5t-53.5 -8.5z" />
    <glyph glyph-name="uni031B" unicode="&#x31b;" 
d="M23 349l5 50h21q23 0 34 14t14 33l2 21h76l-3 -20q-7 -53 -44.5 -76t-104.5 -22z" />
    <glyph glyph-name="dotbelowcomb" unicode="&#x323;" 
d="M23 -160q-21 0 -37.5 3t-24.5 13t-5 32q5 33 28 41t55 8t50 -8.5t13 -40.5q-3 -22 -13.5 -32t-27 -13t-38.5 -3z" />
    <glyph glyph-name="uni0324" unicode="&#x324;" 
d="M274 -102q-24 0 -38 6.5t-11 34.5q4 26 21.5 32t40.5 6t37 -7t10 -31q-3 -28 -19 -34.5t-41 -6.5zM91 -102q-24 0 -38 6.5t-11 34.5q4 26 21.5 32t40.5 6t36.5 -7t9.5 -31q-3 -27 -19 -34t-40 -7z" />
    <glyph glyph-name="uni0326.1" unicode="&#x326;" 
d="M-62 -255q13 21 23 36t19.5 29.5t20.5 32.5q-3 0 -7.5 0.5t-7.5 0.5q-13 2 -22 11t-6 34q4 32 24 40t53 8q14 0 25.5 -3t18 -13.5t3.5 -31.5q-4 -23 -16.5 -49.5t-29.5 -51t-35 -43.5h-63z" />
    <glyph glyph-name="uni0327" unicode="&#x327;" 
d="M6 -179q-34 0 -43 7t-6 29h15h36q26 0 36.5 4.5t12.5 16.5q2 16 -6.5 20t-37.5 4h-43q-1 0 -2.5 5t2 14.5t16.5 22.5q8 7 17 15.5t19.5 17t21 15t18.5 9.5h45l-64 -66q44 1 65 -2.5t26.5 -16t1.5 -39.5t-15.5 -39t-38 -14.5t-76.5 -2.5z" />
    <glyph glyph-name="uni0328" unicode="&#x328;" 
d="M43 -190q-39 0 -59 9t-25 27t-2 43q4 30 23.5 53.5t43 39t40.5 22.5h70q-9 -3 -25.5 -12.5t-35 -23t-32 -29t-15.5 -30.5q-4 -29 11 -36t40 -7q20 0 29 0.5t12 1t5 0.5q-3 -20 -9.5 -33t-22.5 -19t-48 -6z" />
    <glyph glyph-name="uni032E" unicode="&#x32e;" 
d="M69 -172q-49 0 -73.5 12t-30 40.5t1.5 78.5h55q-5 -43 6.5 -59t47.5 -16q41 0 55 18t19 57h57q-6 -51 -20 -79.5t-41.5 -40t-76.5 -11.5z" />
    <glyph glyph-name="uni0331" unicode="&#x331;" 
d="M37 -100l7 60h277l-7 -60h-277z" />
    <glyph glyph-name="uni0335" unicode="&#x335;" 
d="M38 471h276l-5 -38h-276z" />
    <glyph glyph-name="pi" unicode="&#x3c0;" horiz-adv-x="570" 
d="M61 341h496l-3 -28h-42q-16 0 -28 -8t-14 -26l-34 -241q-2 -12 -15 -20.5t-32.5 -13.5t-41.5 -7.5t-42 -2.5l45 319h-85l-39 -275q-2 -12 -15 -20.5t-33 -13.5t-42 -7.5t-43 -2.5q8 46 13 79.5t9.5 63.5t8.5 63.5t9 78.5q2 18 -7.5 26t-25.5 8h-42z" />
    <glyph glyph-name="tsaa" unicode="&#x13a0;" horiz-adv-x="466" 
d="M422 225q-12 -88 -32.5 -135t-49 -66.5t-66.5 -23t-85 -3.5q-28 0 -69 1.5t-85 1.5l56 403q5 28 10.5 40.5t25.5 14.5q21 2 56.5 3t71 1.5t57.5 -1.5q31 -2 56 -8t41.5 -27.5t20.5 -69t-8 -131.5zM299 423q-16 2 -41.5 2t-50 -1t-38.5 -4q-13 -1 -19 -6t-8 -19l-50 -356
q29 -2 57.5 -3t50.5 -2q50 -2 84 10.5t55 53.5t33 126q9 65 9 103.5t-8.5 58.5t-27 27.5t-46.5 9.5z" />
    <glyph glyph-name="tsae" unicode="&#x13a1;" horiz-adv-x="547" 
d="M322 185q-16 2 -44 3t-59.5 1t-60 -0.5t-45.5 -1.5l-26 -187h-52l57 402q4 29 18 41.5t45 13.5q35 2 58 3t41.5 1t39 -1t49.5 -3q42 -3 62 -15.5t24.5 -41t-2.5 -78.5q-11 -87 -69 -103q30 -7 37 -27.5t4 -44.5l-12 -86q-3 -22 3 -25.5t15 -3.5q14 0 23 12.5t16 58.5h36
l-7 -45q-6 -46 -24 -55.5t-50 -9.5t-47 6t-17.5 24t1.5 55l10 69q2 15 -3.5 25.5t-20.5 12.5zM120 234q36 -1 59.5 -1.5t47 -0.5t60.5 1q34 1 58 18t31 69q8 53 -4 72.5t-49 23.5q-26 2 -71.5 2t-106.5 -6z" />
    <glyph glyph-name="tsai" unicode="&#x13a2;" horiz-adv-x="453" 
d="M64 460h391l-6 -42q-1 1 -22 1.5t-51 0.5h-56.5h-38.5l-51 -362q-4 -27 -13 -42.5t-33 -15.5h-14l59 420l-171 -2z" />
    <glyph glyph-name="tsao" unicode="&#x13a3;" horiz-adv-x="572" 
d="M327 460h172l-6 -39h-61l-10 -70q40 -1 70 -13t44 -46.5t4 -106.5q-8 -61 -21 -97t-31 -55t-42 -28q-19 -7 -42 -8t-37 0q-12 1 -26.5 5t-23.5 16.5t-6 35.5l3 26h28q-4 -18 3.5 -33.5t44.5 -15.5q23 0 41 12t31.5 44.5t22.5 94.5q7 49 4 75.5t-16.5 37t-38 12.5t-60.5 2
q-49 0 -72.5 -11t-32.5 -49q14 -15 19.5 -42t-0.5 -72q-9 -64 -31.5 -93.5t-55 -37.5t-70.5 -8t-67 8t-42.5 37.5t-4.5 93.5t32 93.5t56 37.5t70 8q20 0 37 -2t31 -7l3 23q4 25 24.5 38.5t49 19.5t55.5 6l10 69h-64zM237 135q7 47 -1 69.5t-25.5 29.5t-42.5 7t-45.5 -6.5
t-34.5 -29t-21 -70.5t0.5 -70.5t26.5 -29.5t44 -7t45 7t34 30t20 70z" />
    <glyph glyph-name="tsau" unicode="&#x13a4;" horiz-adv-x="601" 
d="M178 -5q-67 0 -105 19t-49 70.5t3 148.5q12 88 37 138t69 71t111 21q55 0 90 -12t52 -42.5t17 -87.5q10 -7 28.5 -18.5t40 -20t41 -8.5t30.5 16q18 26 9 42t-25 23l16 24l22 -11q38 -22 33 -55.5t-42 -68.5q-25 -24 -62 -17.5t-94 35.5l-2 -18t-3 -19q-12 -88 -37 -138
t-68.5 -71t-111.5 -21zM182 32q58 0 90 20.5t48 63.5t25 108q10 70 6.5 114.5t-29 66t-82.5 21.5q-58 0 -90 -20.5t-48 -63t-25 -108.5q-10 -70 -6.5 -114.5t29.5 -65.5t83 -21z" />
    <glyph glyph-name="tsav" unicode="&#x13a5;" horiz-adv-x="183" 
d="M139 399l-56 -399q-27 0 -37 5t-10.5 15t1.5 26l50 353h52zM155 474q-2 -19 -11.5 -22.5t-24.5 -3.5q-14 0 -23 3.5t-7 22.5q3 17 12.5 21.5t23.5 4.5t23.5 -4t6.5 -22z" />
    <glyph glyph-name="tsaga" unicode="&#x13a6;" horiz-adv-x="480" 
d="M30 258h85q-25 15 -35.5 37t-6.5 56q6 41 26 63.5t50 32.5t65 12.5t70 2.5q23 0 49 -2t50 -6.5t38.5 -12t12.5 -17.5l-4 -33q-8 6 -33.5 14t-58.5 13.5t-64 5.5q-36 0 -68.5 -4t-55 -19t-27.5 -49q-4 -32 21.5 -50.5t58.5 -29.5l41 -14h212l-5 -39h-100q25 -12 40.5 -34
t8.5 -72q-7 -48 -34 -72.5t-71 -33.5t-101 -11q-40 -1 -80.5 3.5t-58.5 9.5q-16 5 -22.5 17.5t-2.5 40.5q31 -15 76.5 -23.5t92.5 -8.5q18 0 42 2.5t47.5 10t40.5 23.5t21 44q3 24 -14.5 44.5t-43.5 29.5l-82 30h-185z" />
    <glyph glyph-name="tsaka" unicode="&#x13a7;" horiz-adv-x="607" 
d="M329 39q24 3 45.5 17t39 55.5t29.5 124.5q11 77 4 117t-28 55t-51.5 16.5t-66.5 1.5q-51 0 -83.5 -11.5t-49 -27.5t-18.5 -30h-35l3 20q5 34 33 53t69.5 27t86.5 8q49 0 89.5 -4.5t67.5 -25t37.5 -66t-0.5 -127.5q-11 -79 -28 -126t-40 -72t-55 -37q-14 -5 -48.5 -7.5
t-74.5 -3t-72 0.5q-39 2 -67.5 13.5t-41.5 43t-4 92.5q9 62 32 95t58.5 45.5t81.5 12.5q51 0 76.5 -12.5t32.5 -37t2 -60.5q-5 -39 -29 -69.5t-59.5 -51t-75.5 -30.5h9q26 -1 62 -2t69 3zM123 149q-5 -36 -1 -57.5t15 -33.5q30 6 67 22t66 43.5t34 64.5q10 73 -68 73
q-23 0 -46.5 -8t-41.5 -31.5t-25 -72.5z" />
    <glyph glyph-name="tsage" unicode="&#x13a8;" horiz-adv-x="353" 
d="M137 460l-24 -171l98 62q1 -13 11 -26t35 -13t47.5 19.5t37.5 39.5q11 -5 13 -16t-18 -34q-48 -52 -87 -52q-14 0 -33.5 7t-30.5 18l-79 -50l-26 -186q-4 -27 -13 -42.5t-33 -15.5h-14l64 460h52z" />
    <glyph glyph-name="tsagi" unicode="&#x13a9;" horiz-adv-x="411" 
d="M385 460h49l-129 -251q-42 -82 -70.5 -130.5t-51 -68.5t-47.5 -18q-46 4 -66.5 28t1.5 68l12 23l25 -8q-10 -16 -10 -36t28 -28q15 -5 29 7t27 31t23 36l10 17.5t22.5 40t21.5 38.5l-26 -10q-17 -7 -28.5 8t-18.5 44l-52 209h56l50 -209q2 -11 13 -14.5t18 -3.5z" />
    <glyph glyph-name="tsago" unicode="&#x13aa;" horiz-adv-x="406" 
d="M87 118l-50 -118h-46l174 396q19 44 40 54t43 10h37l74 -460h-50l-19 118h-203zM105 159h178l-42 259q-11 -3 -21.5 -11.5t-15.5 -22.5z" />
    <glyph glyph-name="tsagu" unicode="&#x13ab;" horiz-adv-x="296" 
d="M80 105q-4 -32 4.5 -49t36.5 -17q35 0 50.5 20t20.5 55l48 346h25q22 0 24 -9t-2 -40l-40 -280q-7 -55 -20 -84t-39.5 -39t-74.5 -10q-37 0 -53.5 11.5t-18.5 35t3 60.5h36z" />
    <glyph glyph-name="tsagv" unicode="&#x13ac;" horiz-adv-x="385" 
d="M373 460l-5 -40h-221l-23 -160h142l-5 -39h-142l-26 -182h221l-5 -39h-273l58 415q3 19 13 32t32 13h234z" />
    <glyph glyph-name="tsaha" unicode="&#x13ad;" horiz-adv-x="557" 
d="M219 460h172l-5 -39h-61l-17 -121h239l-8 -52l-228 -202l-28 -24.5t-27 -15.5t-41 -4q1 2 3 13t3 19l32 225h-66q-12 -48 -36.5 -60t-60.5 -12q-26 0 -45 6t-27 27t-2 65q6 41 21 60.5t37 25.5t48 6q35 0 55 -13.5t16 -63.5h66l17 121h-62zM483 259h-180l-26 -186z
M56 286q-6 -41 5.5 -52.5t32.5 -11.5q22 0 36.5 11.5t20.5 52.5q5 38 -5.5 49.5t-32.5 11.5q-20 0 -36 -11t-21 -50z" />
    <glyph glyph-name="tsahe" unicode="&#x13ae;" horiz-adv-x="353" 
d="M123 304l-9 -67h48q59 0 90 19t39 80q7 51 -13 68t-76 17h-59q-5 0 -20 -0.5t-33 -1t-31.5 -1.5t-16.5 -1l2 10q3 23 28 28t90 5h65q46 0 75 -9t40.5 -36.5t3.5 -82.5q-9 -63 -41 -91.5t-82.5 -35.5t-113.5 -7l-28 -198q-26 0 -36.5 5t-11 15t1.5 26l36 258h52z" />
    <glyph glyph-name="tsahi" unicode="&#x13af;" horiz-adv-x="477" 
d="M260 105q-4 -32 5 -49t37 -17q34 0 50.5 22.5t24.5 74.5l11 83h-171l-6 -43q-9 -61 -20 -97t-26.5 -53.5t-37 -22.5t-51.5 -5q-40 0 -57.5 11.5t-20 35t2.5 60.5h36q-4 -32 5 -49t37 -17q35 0 50.5 21.5t23.5 77.5l14 103q9 62 19 105t27 69t46.5 37.5t78.5 11.5
q50 0 76.5 -11.5t35 -36t6 -63.5t-10.5 -94l-13 -89q-8 -60 -19.5 -95t-27 -51.5t-36.5 -21t-50 -4.5q-40 0 -57.5 11.5t-20 35t2.5 60.5h36zM223 258h171l3 24q9 62 4.5 93t-22 41t-47.5 10q-47 0 -70 -28t-34 -101z" />
    <glyph glyph-name="tsaho" unicode="&#x13b0;" horiz-adv-x="228" 
d="M123 460l-28 -202h122l-6 -39h-122l-30 -219q-26 0 -36.5 5t-11 15t1.5 26l58 414h52z" />
    <glyph glyph-name="tsahu" unicode="&#x13b1;" horiz-adv-x="322" 
d="M345 460l-5 -40h-221l-59 -420h-52l58 415q3 19 13 32t32 13h234z" />
    <glyph glyph-name="tsahv" unicode="&#x13b2;" horiz-adv-x="540" 
d="M369 208h153l-5 -39h-49q0 -28 -5 -57.5t-18 -55.5t-37 -42t-62 -16q-42 0 -71 20t-55 70q-38 -49 -73.5 -69.5t-76.5 -20.5q-35 0 -60 19.5t-19 60.5q4 26 18.5 53.5t33.5 49.5l33 -18q-13 -17 -26 -39t-16 -42q-2 -19 11 -31t34 -12q45 0 120 99q-14 38 -30 92
q-11 37 -16.5 77t-0.5 80q5 30 20 45.5t38 21.5q29 8 67 7t64 -9q40 -12 33 -65q-5 -40 -22 -80t-39 -77q-16 -26 -29.5 -48.5t-26.5 -42.5q45 -100 92 -100q34 0 51 21.5t23.5 52t8.5 56.5h-68zM209 279q12 -48 27 -88q12 20 25 42t26 46q17 32 25.5 55t10.5 39q4 24 -8 38
t-45 14q-64 0 -71 -52q-2 -16 0 -39t10 -55z" />
    <glyph glyph-name="tsala" unicode="&#x13b3;" horiz-adv-x="510" 
d="M377 92l106 368h42l-125 -426q-7 -25 -18 -29.5t-27 -4.5h-17l-55 395l-154 -395h-12q-25 0 -41.5 3.5t-16.5 30.5l-5 426h47l5 -407l160 407h61z" />
    <glyph glyph-name="tsale" unicode="&#x13b4;" horiz-adv-x="500" 
d="M333 171q-11 -79 -38 -116.5t-64.5 -48.5t-82.5 -11q-44 0 -75 13t-43.5 51.5t-2.5 114.5q11 79 38 116.5t65 49t82 10.5q23 0 42.5 -3t35.5 -11q2 71 25.5 100.5t79.5 29.5q42 0 62 -11.5t26 -35t6 -60.5h-42q-1 32 -12 49t-40 17q-28 0 -41.5 -17t-17 -44.5t-1.5 -58.5
q3 -31 2.5 -68.5t-4.5 -65.5zM288 172q9 63 -0.5 94t-32.5 41t-55 10q-31 1 -56.5 -9t-43.5 -40.5t-27 -93.5q-9 -62 0 -93t32.5 -41t55.5 -11q32 0 57 9.5t43 40.5t27 93z" />
    <glyph glyph-name="tsali" unicode="&#x13b5;" horiz-adv-x="363" 
d="M7 0l45 317q8 61 29.5 93t57.5 44t87 12q71 0 103 -24t22 -94q-4 -29 -19 -49t-33 -32t-33 -17l-8 29l9.5 7.5t20.5 21.5t13 34q6 41 -9.5 62t-70.5 21q-45 0 -69 -13.5t-34 -39t-15 -60.5l-44 -312h-52z" />
    <glyph glyph-name="tsalo" unicode="&#x13b6;" horiz-adv-x="461" 
d="M226 135l18 131h39l-6 -44h33q62 0 85.5 -19t15.5 -72q-11 -82 -61.5 -110.5t-143.5 -28.5q-73 0 -118 17t-60.5 67t-2.5 147q13 88 41 140.5t79 76.5t133 24q59 0 96.5 -11.5t51.5 -47t4 -108.5h-45q5 33 2 63.5t-23 44.5q-19 13 -45.5 17t-57.5 4q-63 0 -100 -19.5
t-56 -63.5t-29 -118q-10 -67 -3.5 -106t25.5 -57.5t48.5 -23.5t65.5 -5t70 6.5t57.5 24.5t27.5 53q3 21 1 36.5t-16 24t-47 8.5h-33l-7 -51h-39z" />
    <glyph glyph-name="tsalu" unicode="&#x13b7;" horiz-adv-x="528" 
d="M436 460h36q17 0 23 -7.5t3 -29.5l-54 -382q-4 -28 -13 -34.5t-28 -6.5h-15l57 407l-208 -407h-25l-102 408l-57 -408h-39q2 2 3 8.5t2 13.5l56 401q3 22 11 29.5t24 7.5h37l5.5 -22l14.5 -58t19.5 -79.5t21 -86.5t19 -78.5t12.5 -55.5z" />
    <glyph glyph-name="tsalv" unicode="&#x13b8;" horiz-adv-x="385" 
d="M45 275h122l42 -78h68l16 115q5 35 2 60.5t-22.5 39t-65.5 13.5q-55 0 -76.5 -21t-27.5 -62h-49q10 70 50 97t110 27q51 0 83.5 -12t45 -44t3.5 -93l-45 -317h-52l22 158h-93l-40 78h-99z" />
    <glyph glyph-name="tsama" unicode="&#x13b9;" horiz-adv-x="577" 
d="M262 460h153l-6 -39h-57l-6 -46q8 -31 29 -38.5t52 3.5q43 16 69 18.5t39 -16.5q26 -33 18 -68t-53 -57l-24 -11l-10 24q19 7 32.5 23t1.5 42q-6 15 -24 16t-40 -7q-30 -10 -56 -13.5t-40 9.5q-7 6 -13 14.5t-11 15.5q-16 -16 -29.5 -27t-24.5 -22q30 -36 36.5 -84.5
t-0.5 -95.5q-6 -42 -29 -67t-52.5 -33.5t-57 -0.5t-43 33t-9.5 67q5 35 31 81.5t65 90.5q-21 18 -48 18q-33 0 -50.5 -12.5t-25 -32t-10.5 -41.5h-45q2 15 5.5 33.5t13.5 34.5q18 28 49.5 41t63.5 14q46 2 80 -21q11 9 21.5 18.5t22.5 18.5q7 5 18 18.5t12 23.5l5 36h-59z
M249 101q6 43 3 75.5t-25 66.5q-26 -31 -45 -66.5t-25 -75.5q-4 -33 7.5 -49t29.5 -16t34.5 16.5t20.5 48.5z" />
    <glyph glyph-name="tsame" unicode="&#x13ba;" horiz-adv-x="540" 
d="M425 0l28 202h-62q-13 -79 -38.5 -124t-67.5 -64t-107 -19q-67 0 -105 19t-49 70.5t3 148.5q12 88 37 138t69 71t111 21q66 0 103.5 -18t49.5 -66t1 -138h61l30 219h24q19 0 21 -8t0 -23l-60 -429h-49zM182 32q58 0 90 20.5t48 63.5t25 108q10 70 6.5 114.5t-29 66
t-82.5 21.5q-58 0 -90 -20.5t-48 -63t-25 -108.5q-10 -70 -6.5 -114.5t29.5 -65.5t83 -21z" />
    <glyph glyph-name="tsami" unicode="&#x13bb;" horiz-adv-x="445" 
d="M328 0l31 221h-275q-2 -13 -6 -43.5t-9 -67t-9 -67t-6 -43.5h-53l57 409q3 20 11.5 35.5t27.5 15.5h21q-1 -13 -5 -40.5t-9 -59.5t-9 -59.5t-6 -40.5h275l28 200h52l-57 -410q-3 -20 -11 -35t-27 -15h-21z" />
    <glyph glyph-name="tsamo" unicode="&#x13bc;" horiz-adv-x="353" 
d="M139 460h153l-6 -39h-57l-9 -67q57 -4 82 -24.5t28.5 -59t-5.5 -99.5t-24 -97t-38.5 -53t-55.5 -22t-74 -5q-47 0 -79 4.5t-46 25.5t-8 69q6 44 26 63.5t81 19.5l-5 -34q-32 0 -43.5 -12t-15.5 -36q-4 -33 6 -46t33 -15.5t56 -2.5q35 0 62 8t46 38t28 97q10 65 4.5 95.5
t-30.5 39.5t-76 9q-22 0 -48.5 -5.5t-36.5 -10.5l-2 38q8 5 36.5 11t57.5 6h4l9 65h-59z" />
    <glyph glyph-name="tsamu" unicode="&#x13bd;" horiz-adv-x="452" 
d="M14 178h143l-6 -39h-55l-9 -65q-3 -23 5 -29.5t33 -6.5q12 0 25 9t25 31l72 131l-25 -10q-17 -7 -28.5 8t-20.5 44l-58 209h56l56 -209q3 -11 14.5 -14.5t18.5 -3.5l93 188h-45l6 39h153l-6 -39h-59l-109 -212q-37 -74 -63 -120.5t-48 -69.5q-14 -16 -34.5 -19.5
t-35.5 -3.5q-39 0 -52.5 9t-12.5 29.5t5 53.5l7 51h-51z" />
    <glyph glyph-name="tsana" unicode="&#x13be;" horiz-adv-x="420" 
d="M178 -5q-67 0 -105 19t-49 70.5t3 148.5q12 88 37 138t69 71t111 21q68 0 105.5 -19t48.5 -70.5t-3 -148.5q-12 -88 -37 -138t-68.5 -71t-111.5 -21zM182 32q58 0 90 20.5t48 62.5t25 106h-270q-9 -65 -4.5 -107t31 -61.5t81.5 -19.5zM240 426q-54 0 -85.5 -18t-48 -54.5
t-26.5 -93.5h269q9 86 -11.5 125.5t-97.5 40.5z" />
    <glyph glyph-name="tsahna" unicode="&#x13bf;" horiz-adv-x="394" 
d="M234 178h143l-5 -39h-43l-17 -121q-7 -49 -29.5 -79.5t-70.5 -30.5q-14 0 -36.5 1.5t-27.5 2.5l5 38q5 -2 17 -3t18 -1q60 0 69 59l2 15q-4 -13 -28 -18t-53.5 -5h-52.5q-34 0 -46 20t-10.5 51.5t6.5 66.5l32 227h-45l5 38h45q0 1 2.5 16.5l5 31t2.5 16.5q3 20 12 30.5
t28 10.5h20q-1 -2 -3 -11t-3 -17t-1 -9l-10 -68h103l-5 -38h-103l-36 -255q-5 -40 3 -56.5t42 -16.5q17 0 39 2.5t39 9.5t18 19l11 74h-47z" />
    <glyph glyph-name="tsanah" unicode="&#x13c0;" horiz-adv-x="455" 
d="M206 -8q-73 0 -118 17t-60.5 67t-2.5 147q13 88 41 140.5t79 76.5t133 24q41 0 79 -8t61 -33.5t17 -76.5h-47q-1 19 -6 34.5t-18 24.5q-19 13 -45.5 17t-57.5 4q-63 0 -100 -19.5t-56 -63.5t-29 -118q-10 -67 -3 -107t26.5 -60t49.5 -26t66 -6q24 0 54.5 4t56 13.5
t34.5 23.5l17 119h-110l5 36h152l-22 -158q-4 -28 -34.5 -43.5t-74 -22t-87.5 -6.5z" />
    <glyph glyph-name="tsane" unicode="&#x13c1;" horiz-adv-x="512" 
d="M415 0l-79 374q-5 25 -13 38.5t-32 13.5q-29 0 -40.5 -27.5t-21.5 -98.5l-21 -145q-10 -71 -25.5 -104.5t-41 -43t-65.5 -9.5t-57.5 11.5t-20 35t2.5 60.5h36q-4 -32 5 -49t37 -17q35 0 50.5 21.5t23.5 77.5l23 162q8 54 16.5 90.5t31 55t72.5 18.5q35 0 53 -6
t27.5 -25.5t17.5 -58.5l78 -374h-57z" />
    <glyph glyph-name="tsani" unicode="&#x13c2;" horiz-adv-x="385" 
d="M67 0q-22 0 -36.5 4.5t-10.5 31.5l59 423h53l-27 -195l15.5 3.5t41 7.5t54.5 4q68 0 95 -15.5t29.5 -51.5t-6.5 -98l-9 -62q-4 -28 -13 -40.5t-33 -12.5h-14l19 139q7 49 -3 70t-31.5 26t-49.5 5q-22 0 -46 -3.5t-40 -7.5l-16 -4z" />
    <glyph glyph-name="tsano" unicode="&#x13c3;" horiz-adv-x="389" 
d="M56 37h26t68 0.5t92 0.5h98v-4q-2 -11 -7 -22.5t-20 -11.5h-323l5 37l17 19.5t44.5 51.5t61.5 71t69 79.5t65 75.5l51 59.5l27 31.5h-258l1 7q2 9 6 18t21 9h298q-4 -23 -24 -50t-50 -62z" />
    <glyph glyph-name="tsanu" unicode="&#x13c4;" horiz-adv-x="439" 
d="M205 303h-143l6 39h43l3 22q5 41 30 67t70 29q14 1 38 1.5t47 0.5t32 -2q46 -7 58 -33.5t4 -82.5l-44 -314q-2 -17 -11 -23.5t-28 -6.5h-20q1 3 2.5 11.5l3 17l1.5 8.5l12 89q-12 0 -33 -0.5t-43.5 -0.5h-40.5t-25 1q-44 4 -61.5 29.5t-11.5 66.5l1 6h-43l5 39h143
l-5 -39h-47l-1 -4q-4 -27 7.5 -44t55.5 -17h104l27 187q5 40 -8.5 56.5t-60.5 16.5q-42 0 -64 -7.5t-30.5 -21.5t-11.5 -32l-2 -20h47z" />
    <glyph glyph-name="tsanv" unicode="&#x13c5;" horiz-adv-x="708" 
d="M476 283q2 17 -5 19t-15 -1.5t-10 -4.5l-45 -27q-1 -10 -2.5 -21.5t-3.5 -22.5q-12 -88 -37 -138t-68.5 -71t-111.5 -21q-67 0 -105 19t-49 70.5t3 148.5q12 88 37 138t69 71t111 21q58 0 93.5 -13.5t51.5 -48t13 -99.5l59 42q30 22 46 13.5t13 -25.5l-4 -32
q-4 -28 2 -43.5t41 -15.5q27 0 38.5 16t15.5 43l10 68h15q14 0 15.5 -10t-4.5 -53q-7 -51 -25.5 -72.5t-69.5 -21.5q-52 0 -68.5 13.5t-9.5 58.5zM182 32q58 0 90 20.5t48 63.5t25 108q10 70 6.5 114.5t-29 66t-82.5 21.5q-58 0 -90 -20.5t-48 -63t-25 -108.5
q-10 -70 -6.5 -114.5t29.5 -65.5t83 -21z" />
    <glyph glyph-name="tsaqua" unicode="&#x13c6;" horiz-adv-x="496" 
d="M226 33h38.5h56.5t52 0.5t23 1.5l-5 -35h-391l5 35l169 -2l56 394l-171 -2l5 35h391l-5 -35q-1 1 -22 1.5t-51 0.5h-56.5h-38.5z" />
    <glyph glyph-name="tsaque" unicode="&#x13c7;" horiz-adv-x="578" 
d="M95 215l-6.5 -28t-11.5 -60q-7 -47 11.5 -70.5t74.5 -23.5q33 0 49 13t23 39.5t12 67.5h44q-5 -41 -5.5 -67.5t12 -39.5t45.5 -13q23 0 44.5 5t40.5 23.5t34.5 59t25.5 112.5t2 111t-28.5 55.5t-48 20t-57.5 3.5q-61 0 -99 -32t-54 -112h-41l3 21q11 76 65 119.5
t133 43.5q36 0 72 -4t63 -24t38.5 -66.5t-0.5 -131.5q-11 -79 -31 -135t-64.5 -83.5t-128.5 -24.5q-18 1 -40 7.5t-32 28.5q-17 -16 -42 -26t-56 -10q-61 0 -92.5 31t-22.5 98q5 35 11.5 63.5l6.5 28.5h50z" />
    <glyph glyph-name="tsaqui" unicode="&#x13c8;" horiz-adv-x="518" 
d="M136 464q42 0 71.5 -20.5t54.5 -71.5q42 51 81 71.5t78 20.5q50 0 74 -23t16 -78q-10 -66 -46 -88t-107 -22l5 34q38 0 66 15.5t34 57.5q6 28 -4 47.5t-42 19.5q-39 0 -73.5 -32.5t-61.5 -70.5q8 -19 15.5 -42.5t15.5 -49.5q11 -37 17 -77t0 -80q-4 -27 -17.5 -46
t-34.5 -25q-28 -8 -66 -8.5t-66 6.5q-21 6 -31.5 24.5t-6.5 48.5q6 40 22.5 80t38.5 77q15 26 29 48.5t27 41.5q-47 101 -92 101q-21 0 -35 -11.5t-17 -31.5q-1 -7 -2 -19.5t-3 -22.5h-45l8 57q6 44 34 56.5t63 12.5zM273 183q-6 24 -13 46t-14 41q-24 -39 -51 -87
q-16 -31 -25 -54.5t-11 -39.5q-7 -52 57 -52q33 0 48.5 14t18.5 38q2 16 0.5 39.5t-10.5 54.5z" />
    <glyph glyph-name="tsaquo" unicode="&#x13c9;" horiz-adv-x="642" 
d="M80 417l-4 -31q-4 -26 26 -26q21 0 33 14.5t20 37.5t16 48h44l26 -159l35 -224l113 259h-2q-35 0 -43 14t-3 49t16.5 48t45.5 13h86l-39 -90h14q30 0 33 16q3 20 15.5 31t58.5 12q47 1 61 -13.5t8 -60.5q-4 -32 -17.5 -54.5t-56.5 -22.5l5 34q9 0 13.5 8.5t6.5 19t3 15.5
q3 25 -4 32t-24 7t-24.5 -5.5t-9.5 -22.5q-2 -14 -15 -22t-47 -8h-35l-148 -336h-48l-63 399q-14 -39 -29 -57t-50 -18q-40 0 -51 13.5t-7 38.5l5 41h36zM380 399q-1 -11 -0.5 -20t12.5 -9h12l25 56h-30q-6 0 -11.5 -4t-7.5 -23z" />
    <glyph glyph-name="tsaquu" unicode="&#x13ca;" horiz-adv-x="649" 
d="M308 124q-4 -47 10 -69t57 -22q23 0 44.5 5t40.5 23.5t34.5 59t25.5 112.5t3.5 111.5t-25.5 56.5t-45.5 20.5t-56.5 3.5q-67 0 -106 -33t-55 -113h-41l3 21q11 76 65 119.5t133 43.5q36 0 72 -4t63 -24t38.5 -66.5t-0.5 -131.5q-11 -79 -31 -135t-64.5 -83.5
t-128.5 -24.5q-19 1 -43 9.5t-31 36.5q-19 -22 -45.5 -34t-61.5 -12q-75 0 -99.5 31t-15.5 98q5 35 14 68.5t14 43.5h49q-5 -13 -13.5 -44.5t-13.5 -63.5q-7 -47 6 -71.5t69 -24.5q50 0 68.5 30.5t26.5 91.5l1 6q6 44 32.5 64t66.5 20q79 0 70 -67l-4 -23h-37q5 31 0.5 44.5
t-33.5 13.5q-28 0 -37.5 -13.5t-14.5 -44.5z" />
    <glyph glyph-name="tsaquv" unicode="&#x13cb;" horiz-adv-x="407" 
d="M167 33q53 0 80.5 5.5t38.5 18t14 33.5l7 52h42l-8 -55q-8 -57 -53.5 -75t-111.5 -18q-60 0 -95 10.5t-47.5 39.5t-4.5 86q6 44 31 72.5t53 30.5q-34 2 -43 32t-2 74q7 48 23.5 75t51 38t93.5 11q34 0 61.5 -3t57.5 -9q14 -3 15 -11t-1 -22l-1 -8q-25 9 -63.5 13t-76.5 4
q-46 0 -76 -16t-38 -75q-7 -46 8 -64t64 -18h40l-6 -40h-39q-34 0 -54.5 -5.5t-31 -24t-16.5 -57.5q-8 -55 16.5 -73.5t71.5 -20.5z" />
    <glyph glyph-name="tsasa" unicode="&#x13cc;" horiz-adv-x="413" 
d="M397 464l-37 -259q-7 -55 -16 -94t-27 -63.5t-51.5 -36t-90.5 -11.5t-87.5 11.5t-41.5 37.5t-9 69t11 105l34 241h53l-31 -218h211l31 218h51zM181 38q43 0 67 10t37 41t21 93l3 24h-211l-5 -39q-10 -73 7 -101t81 -28z" />
    <glyph glyph-name="tsas" unicode="&#x13cd;" horiz-adv-x="690" 
d="M18 135q9 64 32.5 93.5t56.5 37.5t70 8q35 0 61.5 -7t41 -30t11.5 -70h75l10 68h-49l6 39h142l-6 -39h-46l-13 -92q-7 -49 2 -75.5t60 -26.5q31 0 53.5 15t38.5 56t26 119q9 62 4.5 97.5t-23.5 52t-54 21t-88 4.5q-52 0 -81.5 -6.5t-44 -26t-22.5 -59.5q-6 0 -18 1t-17 1
l7 48q5 32 33.5 49.5t68 24.5t75.5 7q50 0 93 -4t73.5 -22.5t43 -61.5t1.5 -122q-6 -40 -15.5 -81.5t-28 -77t-51 -57t-83.5 -21.5q-25 0 -52 7.5t-43.5 29.5t-10.5 64l4 26h-73q-10 -60 -32.5 -87t-54.5 -34.5t-69 -7.5q-38 0 -67 8t-42.5 37.5t-4.5 93.5zM238 135
q7 47 -1 69.5t-25.5 29.5t-42.5 7t-45.5 -6.5t-34.5 -29t-21 -70.5t0.5 -70.5t26.5 -29.5t44 -7t45 7t34 30t20 70z" />
    <glyph glyph-name="tsase" unicode="&#x13ce;" horiz-adv-x="371" 
d="M39 185l191 232q23 21 41.5 33.5t52.5 10.5q-1 -2 -3 -13t-3 -19l-32 -226h48l-5 -34h-48l-23 -169h-51l23 169h-194zM109 203h125l26 187z" />
    <glyph glyph-name="tsasi" unicode="&#x13cf;" horiz-adv-x="370" 
d="M131 460l-27 -193h95q47 0 77.5 -8t42 -39t1.5 -102q-8 -59 -29.5 -83.5t-58.5 -29.5t-91 -5h-126l64 460h52zM135 36q47 0 73 4t39 21.5t18 56.5q8 55 2 78t-24.5 27.5t-50.5 4.5h-93l-27 -192h63z" />
    <glyph glyph-name="tsaso" unicode="&#x13d0;" horiz-adv-x="439" 
d="M263 291q16 0 34 7q43 16 68.5 18.5t39.5 -16.5q26 -33 17.5 -68t-52.5 -57l-24 -11l-10 24q18 7 31.5 23t2.5 42q-6 15 -24 16t-40 -7q-13 -4 -25.5 -7.5t-23.5 -5.5l-35 -249h-52l31 224q-4 -1 -7.5 -1.5t-6.5 -2.5q-43 -16 -69 -18.5t-40 16.5q-25 33 -17 68t52 57
l24 11l10 -24q-18 -7 -31.5 -23t-2.5 -42q6 -15 24.5 -15.5t40.5 6.5q8 2 15.5 5t13.5 4l27 194h52z" />
    <glyph glyph-name="tsasu" unicode="&#x13d1;" horiz-adv-x="477" 
d="M30 115q7 44 33 96.5t56 98.5q-31 9 -46 30.5t-10 56.5q5 33 21 46t37.5 15t41.5 2q37 0 52 -9.5t15 -25t-10 -35t-23 -39.5l-6 -8q31 4 48.5 26t36.5 39q22 22 48 40t63 18q24 0 45 -4.5t33 -20t7 -48.5q-3 -25 -4 -37l-1 -12l-41 -2l1.5 13t4.5 38q4 22 -13.5 27.5
t-37.5 5.5q-25 0 -43.5 -13.5t-35.5 -30.5q-16 -15 -32 -33.5t-37.5 -32t-54.5 -13.5h-14q-27 -41 -50.5 -88t-30.5 -97q-7 -46 15 -64t62 -18q28 0 49.5 4t36 21.5t19.5 56.5q8 55 1.5 78t-25 27.5t-50.5 4.5l8 39q47 0 77.5 -8t42 -39t1.5 -102q-8 -59 -29.5 -83.5
t-55 -29.5t-80.5 -5q-46 0 -76.5 9t-42.5 33.5t-6 72.5zM103 397q-5 -40 40 -50q28 42 31.5 59t-5.5 20t-21 3q-9 0 -25 -3.5t-20 -28.5z" />
    <glyph glyph-name="tsasv" unicode="&#x13d2;" horiz-adv-x="433" 
d="M223 277h53l12 -34q17 3 39 22t27 55q8 53 -9.5 72t-66.5 24q-9 1 -33.5 1.5t-52 -0.5t-47.5 -3l-58 -414h-52l56 402q5 29 19 41.5t45 13.5q33 2 54 2.5t38.5 0t40.5 -1.5q58 -2 85 -15t33 -42t-1 -79q-7 -55 -38.5 -80t-69.5 -30l70 -212h-54z" />
    <glyph glyph-name="tsada" unicode="&#x13d3;" horiz-adv-x="294" 
d="M245 105q-5 -37 -14 -60.5t-28 -35t-57 -11.5q-48 0 -71.5 10t-28.5 39t2 84l40 280q4 31 8 40t26 9h25l-48 -346q-5 -35 5 -55t44 -20q29 0 43 17t18 49h36z" />
    <glyph glyph-name="tsata" unicode="&#x13d4;" horiz-adv-x="570" 
d="M295 324l63 136h51l-99 -212l32 -171l177 383h51l-215 -460h-53l-30 167l-78 -167h-53l-83 460h51l72 -383l77 166l-39 217h51z" />
    <glyph glyph-name="tsade" unicode="&#x13d5;" horiz-adv-x="529" 
d="M357 354q6 43 -15 56.5t-68 13.5q-36 0 -68.5 -4t-55 -19t-27.5 -49q-4 -32 21.5 -50.5t58.5 -29.5l41 -14h230l-5 -39h-118q25 -12 40.5 -34t8.5 -72q-7 -48 -34 -72.5t-71 -33.5t-101 -11q-40 -1 -80.5 3.5t-58.5 9.5q-16 5 -22.5 17.5t-2.5 40.5q31 -15 76.5 -23.5
t92.5 -8.5q18 0 42 2.5t47.5 10t40.5 23.5t21 44q3 24 -14.5 44.5t-43.5 29.5l-137 50q-44 17 -66 42t-16 70q6 41 26 63.5t50 32.5t65 12.5t70 2.5q30 0 60 -5t49 -21.5t14 -50.5q-3 -16 -6 -24h88l-6 -39h-131z" />
    <glyph glyph-name="tsate" unicode="&#x13d6;" horiz-adv-x="414" 
d="M50 460h139l-43 -310q-7 -51 -5 -75t15 -31.5t37 -7.5q47 0 73 4t39 21.5t18 56.5q8 55 2 78t-24.5 27.5t-50.5 4.5h-62l3 39h66q47 0 77.5 -8t42 -39t1.5 -102q-8 -59 -29.5 -83.5t-58.5 -29.5t-91 -5q-47 0 -72.5 5.5t-34.5 22.5t-6.5 51.5t11.5 93.5l35 248h-87z" />
    <glyph glyph-name="tsa_di" unicode="&#x13d7;" horiz-adv-x="501" 
d="M83 105l-3 -19q-1 -10 -1.5 -21.5t5 -19.5t22.5 -8h34q34 0 57.5 27.5t39.5 55.5l82 158l26 182h13q22 0 29 -9t4 -28l-59 -423h-52l24 169q-13 -22 -23 -40t-15 -26q-15 -25 -32.5 -49.5t-41 -40.5t-57.5 -16h-35q-37 0 -50 15t-12.5 35.5t2.5 38.5l3 19h40z" />
    <glyph glyph-name="tsati" unicode="&#x13d8;" horiz-adv-x="364" 
d="M53 105l-3 -19q-1 -10 -1.5 -21.5t5 -19.5t22.5 -8h34q34 0 57.5 27.5t39.5 55.5l82 158l20 142h-221l6 40h234q22 0 28.5 -13t3.5 -32l-58 -415h-52l24 169q-13 -22 -23 -40t-15 -26q-15 -25 -32.5 -49.5t-41 -40.5t-57.5 -16h-35q-37 0 -50 15t-12.5 35.5t2.5 38.5
l3 19h40z" />
    <glyph glyph-name="tsado" unicode="&#x13d9;" horiz-adv-x="407" 
d="M200 77l192 383h49l-233 -460h-45l-100 460h50z" />
    <glyph glyph-name="tsadu" unicode="&#x13da;" horiz-adv-x="455" 
d="M199 35q18 0 42 2.5t47.5 10t40.5 23.5t21 44q3 24 -14.5 44.5t-43.5 29.5l-137 50q-44 17 -66 42t-16 70q6 41 26 63.5t50 32.5t65 12.5t70 2.5q23 0 49 -2t50 -6.5t38.5 -12t12.5 -17.5l-4 -33q-8 6 -33.5 14t-58.5 13.5t-64 5.5q-36 0 -68.5 -4t-55 -19t-27.5 -49
q-4 -32 21.5 -50.5t58.5 -29.5l110 -37q26 -11 48 -21.5t33.5 -32.5t5.5 -68q-7 -48 -34 -72.5t-71 -33.5t-101 -11q-40 -1 -80.5 3.5t-58.5 9.5q-16 5 -22.5 17.5t-2.5 40.5q31 -15 76.5 -23.5t92.5 -8.5z" />
    <glyph glyph-name="tsadv" unicode="&#x13db;" horiz-adv-x="593" 
d="M326 316l5 36q3 28 -7 46.5t-39 18.5q-25 0 -38.5 -3.5t-23 -13t-22.5 -28.5q8 -24 15 -50.5t14 -57.5q11 -43 14.5 -96t-1.5 -93q-4 -27 -17.5 -46t-34.5 -25q-29 -8 -67 -8.5t-66 6.5q-21 6 -31 24.5t-6 48.5q5 40 24 93t41 96q20 39 39 70t36 57q21 32 39 46.5
t39.5 18.5t50.5 4q66 0 85 -51q13 21 38 34t70 13q50 0 72 -16t26 -49q3 -18 0.5 -39.5t-4.5 -35.5q-2 -11 -7.5 -25.5t-15.5 -25t-27 -10.5h-30l4 26q10 -1 20.5 9t15.5 44q5 32 -8 57t-54 25t-67.5 -22t-34.5 -78h-47zM189 207q-6 29 -12 54.5t-13 47.5q-13 -22 -26 -47.5
t-27 -54.5q-18 -37 -27.5 -69.5t-11.5 -48.5q-7 -52 56 -52q33 0 48.5 14t19.5 38q2 16 1.5 48.5t-8.5 69.5z" />
    <glyph glyph-name="tsadla" unicode="&#x13dc;" horiz-adv-x="519" 
d="M317 283q8 -10 22 -23t29 -27q11 -12 29 -27t35.5 -32.5t28 -36.5t7.5 -39q-3 -21 -9 -43.5t-28 -37.5t-74 -15q-39 0 -58 9t-25.5 23t-5 31t3.5 33q5 29 25 58t38 49l-32.5 32.5t-23.5 25.5q-13 -12 -31 -25.5t-36 -27.5l-12 -9q11 -20 22.5 -47.5t7.5 -55.5
q-3 -21 -9 -43.5t-28 -37.5t-74 -15q-39 0 -58 9t-25.5 23t-5 31t3.5 33q3 21 20 40t41.5 37t50 34t44.5 31q19 14 34 25t24 18q-1 2 -3.5 4.5t-4.5 5.5q-13 16 -28 41t-12 50q3 18 8.5 36t27.5 30t73 12q39 0 58.5 -7t26 -18.5t5.5 -25.5t-3 -27q-3 -25 -25 -50t-39 -41z
M422 93q3 16 -8 31.5t-26.5 29t-26.5 24.5q-14 -16 -30 -38.5t-19 -41.5q-1 -12 0 -26.5t13 -24.5t42 -10q24 0 35 9t15 22t5 25zM190 98q3 18 -6.5 40t-19.5 38q-28 -20 -55.5 -43t-30.5 -40q-1 -12 -1 -25t9 -22t33 -9q31 0 45.5 10t19.5 24.5t6 26.5zM285 297q6 5 11 9.5
t6 5.5q14 14 33 35t21 37q2 10 1.5 20.5t-11 17.5t-41.5 7q-30 0 -43.5 -7t-16.5 -17.5t-5 -20.5q-2 -17 11 -37.5t23 -34.5z" />
    <glyph glyph-name="tsatla" unicode="&#x13dd;" horiz-adv-x="335" 
d="M242 355q6 41 -9.5 54t-48.5 12t-52 -17.5t-25 -57.5l-43 -306h213l-5 -40h-238q-22 0 -24 9t2 40l40 280q11 76 44 104.5t91 28.5q65 0 89 -25.5t16 -81.5h-50z" />
    <glyph glyph-name="tsatle" unicode="&#x13de;" horiz-adv-x="327" 
d="M128 459l-59 -419h213l-5 -40h-238q-22 0 -23.5 9t2.5 40l57 410h53z" />
    <glyph glyph-name="tsatli" unicode="&#x13df;" horiz-adv-x="492" 
d="M475 460l-23 -158h-42l5 30q2 20 -1.5 39.5t-23.5 33.5q-19 13 -45.5 17t-57.5 4q-63 0 -100 -19.5t-56 -63.5t-29 -118q-9 -66 -4.5 -110t36 -66t101.5 -22q27 0 65 6t73.5 20t53.5 38l-6 -42q-24 -27 -77 -42t-112 -15q-73 0 -118 17t-60.5 67t-2.5 147q13 88 41 140.5
t79 76.5t133 24q95 0 124 -35l5 31h42z" />
    <glyph glyph-name="tsatlo" unicode="&#x13e0;" horiz-adv-x="497" 
d="M102 159q-29 0 -50 5.5t-30 24t-4 57.5q5 37 20.5 54t39.5 22.5t53 5.5q28 0 49.5 -5.5t32 -23t5.5 -53.5l-7 -47h137l37 261h51l-37 -259v-2h73l-6 -40h-73q-8 -57 -21 -93t-40 -53t-80 -17q-45 0 -67.5 11t-29.5 32.5t-4 51.5t8 68h-57zM258 34q33 0 48 9t22 36t14 80
h-137q-6 -47 -6.5 -74.5t12.5 -39t47 -11.5zM61 251q-4 -35 9.5 -43t38.5 -8q15 0 31 -0.5t25 -0.5l7 52q5 32 -8 40t-38 8q-24 0 -42 -8t-23 -40z" />
    <glyph glyph-name="tsatlu" unicode="&#x13e1;" horiz-adv-x="577" 
d="M30 344h62l7 51q6 44 34 56.5t63 12.5q42 0 71.5 -20.5t54.5 -71.5q42 51 81 71.5t78 20.5q50 0 74 -23t16 -78q-10 -66 -46 -88t-107 -22l5 34q38 0 66 15.5t34 57.5q6 28 -4 47.5t-42 19.5q-39 0 -73.5 -32.5t-61.5 -70.5q8 -19 15.5 -42.5t15.5 -49.5q11 -37 17 -77
t0 -80q-4 -27 -17.5 -46t-34.5 -25q-28 -8 -66 -8.5t-66 6.5q-21 6 -31.5 24.5t-6.5 48.5q6 40 22.5 80t38.5 77q15 26 29 48.5t27 41.5q-47 101 -92 101q-21 0 -35 -11.5t-17 -31.5q-1 -7 -1.5 -17t-2.5 -19h64l-6 -40h-171zM333 183q-6 24 -13 46t-14 41q-24 -39 -51 -87
q-16 -31 -25 -54.5t-11 -39.5q-7 -52 57 -52q33 0 48.5 14t18.5 38q2 16 0.5 39.5t-10.5 54.5z" />
    <glyph glyph-name="tsatlv" unicode="&#x13e2;" horiz-adv-x="423" 
d="M283 190q-23 -2 -54 -2.5t-62 0t-54 1.5l-26 -189h-52l56 402q5 33 18 43t38 12q12 1 36.5 2t53 1t55 -0.5t43.5 -1.5q38 -2 54.5 -17.5t18.5 -44.5t-4 -73q-9 -64 -34 -95.5t-87 -37.5zM119 232h136q45 0 67.5 18.5t29.5 71.5q8 53 0.5 72t-34.5 22q-24 2 -53.5 2
t-57 -0.5t-45 -1l-17.5 -0.5z" />
    <glyph glyph-name="tsatsa" unicode="&#x13e3;" horiz-adv-x="477" 
d="M485 315h-139l5 35h58q2 13 -1.5 29t-17.5 26q-19 13 -45.5 17t-57.5 4q-63 0 -100 -19.5t-56 -63.5t-29 -118q-9 -66 -4.5 -110t36 -66t101.5 -22q27 0 65 6t73.5 20t53.5 38l-6 -42q-24 -27 -77 -42t-112 -15q-73 0 -118 17t-60.5 67t-2.5 147q13 88 41 140.5t79 76.5
t133 24q85 0 119.5 -26.5t28.5 -87.5h38z" />
    <glyph glyph-name="tsatse" unicode="&#x13e4;" horiz-adv-x="420" 
d="M139 86l247 374h49l-308 -460h-53l59 425h-86l5 35h139z" />
    <glyph glyph-name="tsatsi" unicode="&#x13e5;" horiz-adv-x="447" 
d="M363 320q-24 0 -53 -21q-7 -5 -16.5 -11.5t-26.5 -19.5q37 -10 51.5 -33t14.5 -62.5t-9 -101.5l-2 -21q-3 -25 -7.5 -35.5t-13.5 -12.5t-27 -2h-12l16 115q7 51 -6 79.5t-51 38.5l-138 -105l-18 -128h-53l64 462q7 43 40 43h21q-1 -3 -3.5 -17t-4.5 -27l-2 -13l-37 -268
l203 155q23 16 42 24t41 8q35 0 50.5 -15.5t9.5 -59.5l-6 -43h-45l3 28q3 20 -1.5 31.5t-23.5 11.5z" />
    <glyph glyph-name="tsatso" unicode="&#x13e6;" horiz-adv-x="378" 
d="M113 247q12 6 30 24l165 168q23 23 43 24.5t36 -3.5l-225 -223l167 -237q-8 -4 -20 -4q-24 0 -37.5 6t-24 20t-25.5 36l-79 119q-8 11 -16 20t-19 9l-29 -206h-52l57 409q3 20 10.5 35.5t30.5 15.5h18z" />
    <glyph glyph-name="tsatsu" unicode="&#x13e7;" horiz-adv-x="358" 
d="M13 118q10 71 30.5 102t53.5 39t79 8h95l27 193h52l-40 -287q-8 -59 -15 -93.5t-20.5 -51.5t-40.5 -22.5t-74 -5.5q-54 0 -89.5 5t-50.5 29.5t-7 83.5zM176 36q24 0 38.5 7.5t24 31.5t16.5 75l11 78h-93q-31 0 -51.5 -4.5t-33 -27.5t-20.5 -78q-6 -39 2.5 -56.5t34 -21.5
t71.5 -4z" />
    <glyph glyph-name="tsatsv" unicode="&#x13e8;" horiz-adv-x="617" 
d="M396 332q2 20 -1.5 39.5t-23.5 33.5q-19 13 -45.5 17t-57.5 4q-63 0 -100 -19.5t-56 -63.5t-29 -118t-3.5 -117t38 -61t94.5 -18q31 0 59 4t50 17q25 14 34 33.5t11 39.5l6 38l74 -45l66 48l68 -57l-30 -30l-8 7t-18.5 17t-19.5 18l-66 -48l-38 28q-15 -61 -57.5 -84.5
t-123.5 -23.5q-82 0 -127 21.5t-58.5 72.5t-1.5 138q13 88 41 140.5t79 76.5t133 24q81 0 117 -23.5t34 -84.5l46 28l52 -48q11 8 24.5 18t23.5 17l10 7l22 -30l-84 -57l-52 48l-88 -45z" />
    <glyph glyph-name="tsawa" unicode="&#x13e9;" horiz-adv-x="603" 
d="M305 198h171l-6 -40h-55l-6 -43q-6 -41 6 -60t53 -19t53.5 13t14.5 32h30l-1 -12q-6 -39 -24.5 -52t-35.5 -15q-10 -1 -27.5 -1.5t-34.5 1t-27 4.5q-23 7 -33 25q-26 -22 -76 -30.5t-101 -8.5q-73 0 -118 17t-60.5 67t-2.5 147q13 88 41 140.5t79 76.5t133 24q41 0 79 -8
t61 -33.5t17 -76.5h-47q-1 19 -6 34.5t-18 24.5q-19 13 -45.5 17t-57.5 4q-63 0 -100 -19.5t-56 -63.5t-29 -118q-10 -67 -3 -107t26.5 -60t49.5 -26t66 -6q24 0 54.5 4t56 13.5t34.5 23.5l13 91h-74z" />
    <glyph glyph-name="tsawe" unicode="&#x13ea;" horiz-adv-x="682" 
d="M657 381q-4 -31 -21.5 -74.5t-43.5 -92.5t-58 -95.5t-67 -82.5q-23 -25 -43 -31t-60 -5q-26 1 -42.5 1.5t-28.5 5.5t-25 20q-9 10 -17.5 22t-15.5 26q-36 -37 -74 -60t-76 -23q-49 0 -73 23t-17 78q10 66 46 88t107 22l-5 -34q-37 0 -65.5 -15.5t-34.5 -57.5
q-6 -28 4 -47.5t42 -19.5q30 0 63.5 23t64.5 59q-18 43 -29 91.5t-14 95.5t2 83q4 27 17.5 46t34.5 25q29 8 66.5 9t65.5 -7q21 -6 31.5 -24.5t6.5 -48.5q-5 -36 -22.5 -81.5t-44 -92.5t-59.5 -89q10 -24 25 -46q14 -19 30 -24.5t43 -6.5t40 4t28 21q26 28 53.5 68.5
t50.5 83.5q-49 19 -73.5 47.5t-30.5 59.5t-3 56q4 27 17.5 46t34.5 25q29 8 66.5 9t65.5 -7q21 -6 31.5 -24.5t6.5 -48.5zM223 367q-5 -37 4 -95t28 -112q35 51 60 107.5t32 99.5q7 52 -57 52q-33 0 -48.5 -14t-18.5 -38zM482 367q-1 -10 5.5 -30t25.5 -40.5t53 -32.5
q16 32 27 59.5t13 43.5q7 52 -57 52q-33 0 -48.5 -14t-18.5 -38z" />
    <glyph glyph-name="tsawi" unicode="&#x13eb;" horiz-adv-x="425" 
d="M178 -5q-67 0 -105 19t-49 70.5t3 148.5q12 88 37 138t69 71t111 21q68 0 105.5 -19t48.5 -70.5t-3 -148.5q-12 -88 -37 -138t-68.5 -71t-111.5 -21zM182 32q73 0 105.5 33t47.5 101h-35q-48 0 -75.5 18.5t-36.5 38.5q-6 15 -25.5 28.5t-41.5 13.5h-40l-4 -31
q-10 -70 -6.5 -114.5t29.5 -65.5t83 -21zM240 426q-70 0 -102.5 -29.5t-47.5 -91.5h35q48 0 71.5 -15.5t33.5 -35.5q8 -18 25.5 -33t44.5 -15h43l2 18q10 70 6.5 114.5t-29 66t-82.5 21.5z" />
    <glyph glyph-name="tsawo" unicode="&#x13ec;" horiz-adv-x="539" 
d="M255 255q-3 -24 -26 -44.5t-54.5 -36.5t-62 -26.5t-49.5 -14.5q0 -33 11.5 -54.5t41 -31.5t83.5 -10h108q32 0 64 17.5t57 57t34 105.5l7 52q11 82 -0.5 119.5t-55.5 37.5q-26 0 -49 -8.5t-37.5 -17.5t-17.5 -13l5 40q5 8 15 17t31 15.5t59 6.5q57 0 81 -17t25.5 -59.5
t-9.5 -120.5l-7 -52q-12 -89 -41.5 -136t-71.5 -64t-94 -17h-108q-79 0 -120.5 14.5t-53 53.5t-1.5 112l15 107q7 50 29.5 74.5t50.5 32.5t51 8q24 0 49 -5t40.5 -22t10.5 -53zM66 174q16 4 39 12.5t45.5 21t38.5 28.5t19 34l8 52q3 26 -15.5 33t-41.5 7q-15 0 -31.5 -5
t-28.5 -21t-17 -49l-13 -88z" />
    <glyph glyph-name="tsawu" unicode="&#x13ed;" horiz-adv-x="407" 
d="M89 29q30 0 63.5 23t64.5 59q-18 43 -29 91.5t-14 95.5t2 83q4 27 17.5 46t34.5 25q29 8 66.5 9t65.5 -7q21 -6 31.5 -24.5t6.5 -48.5q-6 -40 -26.5 -91t-52 -103.5t-70.5 -96.5t-81 -71t-83 -27q-49 0 -74 19.5t-18 64.5q8 55 43.5 73t106.5 18l-4 -28
q-37 0 -65.5 -12.5t-33.5 -47.5q-4 -23 6.5 -36.5t42.5 -13.5zM223 367q-5 -37 4 -94.5t28 -112.5q35 51 60 107.5t32 99.5q7 52 -57 52q-33 0 -48.5 -14t-18.5 -38z" />
    <glyph glyph-name="tsawv" unicode="&#x13ee;" horiz-adv-x="380" 
d="M349 454q27 -8 15 -45q-21 5 -64 9.5t-94 3.5q-37 -1 -58 -17t-34 -60q-4 -19 -8.5 -44.5t-6.5 -37.5q22 6 59.5 11t74.5 3q23 0 44.5 -3t38.5 -15t24 -37.5t1 -71.5q-9 -63 -28 -96.5t-55 -46t-97 -12.5q-53 0 -82.5 8t-40.5 31.5t-8.5 68.5t12.5 118q12 87 25 136
t33 71t53 28q28 6 65.5 6.5t73.5 -1.5t57 -7zM94 228q-4 -31 -8 -57t-6 -47q-2 -40 6 -60t28 -26.5t52 -6.5q31 0 56 7t43 30t24 70q8 55 -3.5 75t-40.5 24q-23 3 -51.5 1.5t-54.5 -4.5t-45 -6z" />
    <glyph glyph-name="tsaya" unicode="&#x13ef;" horiz-adv-x="575" 
d="M141 177l74 52l42 -48l61 48l42 -48q15 12 32.5 27l17.5 15l18 -30l-72 -57l-43 47l-27 -21l-4 -29q-7 -51 1 -75.5t53 -24.5q23 0 44.5 5t40.5 23.5t34.5 59t25.5 112.5t2 111t-28.5 55.5t-48 20t-57.5 3.5q-61 0 -99 -32t-54 -112h-41l3 21q11 76 65 119.5t133 43.5
q36 0 72 -4t63 -24t38.5 -66.5t-0.5 -131.5q-11 -79 -31 -135t-64.5 -83.5t-128.5 -24.5q-18 1 -40 7.5t-32 28.5q-17 -16 -42 -26t-56 -10q-61 0 -92.5 31t-22.5 98q5 35 11.5 63.5l6.5 28.5h50l-6.5 -28t-11.5 -60q-7 -47 11.5 -70.5t74.5 -23.5q43 0 58 22.5t22 68.5
l4 26l-30 34l-75 -45z" />
    <glyph glyph-name="tsaye" unicode="&#x13f0;" horiz-adv-x="452" 
d="M3 50l49 -6l93 358q8 29 17.5 40t29.5 14q17 2 38.5 4t61.5 2q60 0 92 -8t42 -34t2 -80q-2 -19 -11 -40.5t-21.5 -37t-27.5 -18.5q24 -3 34 -20.5t11 -42.5t-3 -52q-8 -60 -31 -89t-65 -38t-108 -9q-29 0 -61 1.5t-61 2.5l-11 -52h-47l13 55q-15 2 -30 3.5t-25 3.5z
M295 221q-16 2 -40 3.5t-48.5 3t-41 2.5l-16.5 1l-53 -191q5 -2 23.5 -3.5t43.5 -2t49 -0.5q33 0 63.5 2.5t53 22.5t29.5 70q5 38 -2.5 57t-23.5 26t-37 9zM161 274l142 -12q27 0 47 13t27 62q6 42 -0.5 59t-31 20.5t-72.5 3.5q-38 0 -55.5 -3t-24.5 -26z" />
    </font>
</defs>
</svg>
