<?xml version="1.0" standalone="no"?>
<!DOCTYPE svg PUBLIC "-//W3C//DTD SVG 1.1//EN" "http://www.w3.org/Graphics/SVG/1.1/DTD/svg11.dtd" >
<svg xmlns="http://www.w3.org/2000/svg" xmlns:xlink="http://www.w3.org/1999/xlink" version="1.1">
<metadata>
Created by FontForge 20170731 at Fri Oct  8 07:58:22 2021
 By Aleksey,,,
Copyright 2011 The Genos Project Authors (https://github.com/googlefonts/genos)
</metadata>
<defs>
<font id="Genos-ExtraLight" horiz-adv-x="0" >
  <font-face 
    font-family="Genos ExtraLight"
    font-weight="250"
    font-stretch="normal"
    units-per-em="1000"
    panose-1="0 0 0 0 0 0 0 0 0 0"
    ascent="800"
    descent="-200"
    x-height="399"
    cap-height="460"
    bbox="-81 -187 1059.05 735"
    underline-thickness="50"
    underline-position="-175"
    unicode-range="U+0020-FB06"
  />
<missing-glyph horiz-adv-x="600" 
d="M98 0q-4 0 -4 4q-4 33 -7 85.5t-5 115.5t-2 129q0 67 2 131.5t5.5 118t7.5 85.5q0 4 4 4h402q4 0 4 -4q4 -32 7.5 -85.5t5.5 -118t2 -131.5q0 -66 -2 -129t-5 -115.5t-7 -85.5q0 -4 -4 -4h-404zM124 30h352q5 42 7 96.5t3 110t1 100.5q0 79 -4 158t-9 148h-348
q-6 -85 -9.5 -162.5t-3.5 -145.5q0 -47 0.5 -101t3 -107t7.5 -97zM170 80q-6 0 -5.5 2.5t1.5 3.5l231 502q3 6 9 6h19q8 0 2 -7l-230 -499q-4 -8 -11 -8h-16zM424 80h-16q-8 0 -11 8l-230 499q-6 7 2 7h19q6 0 9 -6l231 -502q1 -1 1.5 -3.5t-5.5 -2.5z" />
    <glyph glyph-name="fi" unicode="fi" horiz-adv-x="469" 
d="M41 352h32v68q0 35 11 60t52 25q24 0 43 -1.5t31 -3.5t14 -2v-21q-1 0 -6.5 1t-14.5 2.5t-19 2.5t-21 1q-39 0 -49 -16.5t-10 -53.5v-62h219v-21h-219v-331h-17q-8 0 -11 3.5t-3 14.5v313h-32v21zM354 352v-90v-78.5v-91.5q0 -40 8 -58.5t34 -18.5q5 0 18 1.5t17 3.5v-18
q-5 -1 -23 -3t-27 -2q-19 0 -30 5t-17 15t-9 23t-3 28.5v32.5v88v77.5v85.5h15.5h16.5zM315 478q0 12 7 15t15 3q10 0 17 -3t7 -15t-7.5 -15t-15.5 -3t-15.5 3t-7.5 15z" />
    <glyph glyph-name="fl" unicode="fl" horiz-adv-x="443" 
d="M41 352h32v68q0 35 11 60t52 25q13 0 31 -0.5t39 -1.5t42 -2.5t38.5 -2.5t28.5 -1.5t12 -0.5l-7 -21q-1 0 -11 0.5t-25.5 1.5t-33.5 2.5t-35 2.5t-31 1.5t-21 0.5q-39 0 -49 -16.5t-10 -53.5v-62h120v-21h-120v-331h-17q-8 0 -11 3.5t-3 14.5v313h-32v21zM294 472
q0 7 1.5 12.5t4.5 8.5t10 3h17v-3.5t-0.5 -7t-0.5 -10v-12.5l1 -371q0 -40 8 -58.5t34 -18.5q5 0 18.5 1.5t17.5 3.5v-18q-5 -1 -23.5 -3t-27.5 -2q-22 0 -34 8t-17.5 22.5t-6.5 33.5t-1 40z" />
    <glyph glyph-name="f_f" unicode="ff" horiz-adv-x="523" 
d="M41 352h32v68q0 35 11 60t52 25q24 0 43 -1.5t31 -3.5t14 -2v-21q-1 0 -6.5 1t-14.5 2.5t-19 2.5t-21 1q-39 0 -49 -16.5t-10 -53.5v-62h234v-21h-234v-331h-17q-8 0 -11 3.5t-3 14.5v313h-32v21zM303 351l31 1v68q0 35 11.5 60t52.5 25q24 0 43 -1.5t30.5 -3.5t13.5 -2
v-21l-5.5 1t-14.5 2.5t-19 2.5t-21 1q-39 0 -49.5 -16.5t-10.5 -53.5v-62h120v-21h-120v-331h-16q-9 0 -12 3.5t-3 14.5v313l-31 1v19z" />
    <glyph glyph-name="f_f_i" unicode="ffi" horiz-adv-x="682" 
d="M43 352h31v68q0 43 15 64t60 21q19 0 33.5 -1.5t25 -3l17.5 -2.5v-23q-6 2 -15 4t-20 3t-25 1q-36 0 -48 -14.5t-12 -54.5v-62h100v-21h-100v-331h-16q-9 0 -12 3.5t-3 14.5v313h-31v21zM251 352h32v68q0 35 11 60t52 25q24 0 43 -1.5t31 -3.5t14 -2v-21q-1 0 -6.5 1
t-14.5 2.5t-19 2.5t-21 1q-39 0 -49 -16.5t-10 -53.5v-62h219v-21h-219v-331h-17q-8 0 -11 3.5t-3 14.5v313h-32v21zM564 352v-90v-78.5v-91.5q0 -40 8 -58.5t34 -18.5q5 0 18 1.5t17 3.5v-18q-5 -1 -23 -3t-27 -2q-19 0 -30 5t-17 15t-9 23t-3 28.5v32.5v88v77.5v85.5h15.5
h16.5zM525 478q0 12 7 15t15 3q10 0 17 -3t7 -15t-7.5 -15t-15.5 -3t-15.5 3t-7.5 15z" />
    <glyph glyph-name="f_f_l" unicode="ffl" horiz-adv-x="704" 
d="M41 352h32v68q0 35 11 60t52 25q24 0 43 -1.5t31 -3.5t14 -2v-21q-1 0 -6.5 1t-14.5 2.5t-19 2.5t-21 1q-39 0 -49 -16.5t-10 -53.5v-62h199v-21h-199v-331h-17q-8 0 -11 3.5t-3 14.5v313h-32v21zM303 352h31v68q0 35 11.5 60t52.5 25q12 0 30 -0.5t39.5 -1.5t42.5 -2.5
t38.5 -2.5t28.5 -1.5t12 -0.5l-7 -21q-1 0 -11 0.5t-25.5 1.5t-33.5 2.5t-35.5 2.5t-31 1.5t-20.5 0.5q-39 0 -49.5 -16.5t-10.5 -53.5v-62h120v-21h-120v-331h-16q-9 0 -12 3.5t-3 14.5v313h-31v21zM556 472q0 7 1 12.5t4.5 8.5t10.5 3h17v-3.5t-0.5 -7t-0.5 -10v-12.5
l1 -371q0 -40 7.5 -58.5t34.5 -18.5q5 0 18 1.5t17 3.5v-18q-5 -1 -23 -3t-27 -2q-22 0 -34 8t-17.5 22.5t-6.5 33.5t-1 40z" />
    <glyph glyph-name=".notdef" horiz-adv-x="600" 
d="M98 0q-4 0 -4 4q-4 33 -7 85.5t-5 115.5t-2 129q0 67 2 131.5t5.5 118t7.5 85.5q0 4 4 4h402q4 0 4 -4q4 -32 7.5 -85.5t5.5 -118t2 -131.5q0 -66 -2 -129t-5 -115.5t-7 -85.5q0 -4 -4 -4h-404zM124 30h352q5 42 7 96.5t3 110t1 100.5q0 79 -4 158t-9 148h-348
q-6 -85 -9.5 -162.5t-3.5 -145.5q0 -47 0.5 -101t3 -107t7.5 -97zM170 80q-6 0 -5.5 2.5t1.5 3.5l231 502q3 6 9 6h19q8 0 2 -7l-230 -499q-4 -8 -11 -8h-16zM424 80h-16q-8 0 -11 8l-230 499q-6 7 2 7h19q6 0 9 -6l231 -502q1 -1 1.5 -3.5t-5.5 -2.5z" />
    <glyph glyph-name=".null" horiz-adv-x="555" 
 />
    <glyph glyph-name="nonmarkingreturn" horiz-adv-x="333" 
 />
    <glyph glyph-name="space" unicode=" " horiz-adv-x="245" 
 />
    <glyph glyph-name="exclam" unicode="!" horiz-adv-x="160" 
d="M81 150l-7 322q-1 18 3 26t20 8h14v-98l-12 -258h-18zM66 18q0 13 7.5 16.5t16.5 3.5q10 0 17 -3t7 -17q0 -8 -3.5 -12t-9 -5t-10.5 -1q-6 0 -11.5 1t-9.5 5t-4 12z" />
    <glyph glyph-name="quotedbl" unicode="&#x22;" horiz-adv-x="281" 
d="M42 343l48 142h21l-45 -142h-24zM139 343l43 142h27l-50 -142h-20z" />
    <glyph glyph-name="numbersign" unicode="#" horiz-adv-x="468" 
d="M285 118h-106l-13 -134h-24l11 134h-101l1 25h102l16 164h-96v25h97l11 127h25l-11 -128h108l11 129h25l-12 -129h111l-1 -24h-112l-15 -164h104l-1 -25h-105l-12 -133h-24zM179 143h109l15 164h-108z" />
    <glyph glyph-name="dollar" unicode="$" horiz-adv-x="441" 
d="M55 -83l23 46t27.5 56t22.5 45q-30 8 -48 21.5t-25.5 36t-7.5 56.5h14h14q0 -42 15 -64t46.5 -29t78.5 -7q30 0 57.5 2t50 11t35.5 29.5t13 58.5q0 46 -20.5 61t-68.5 15h-61.5h-61.5q-17 0 -36 1.5t-36.5 10.5t-28 28t-10.5 54q0 54 24.5 78.5t65.5 31t90 6.5
q17 0 32.5 -1t30.5 -3q14 28 29 57t28 57h22q-14 -28 -29 -57.5t-29 -58.5q31 -4 49 -18.5t25.5 -38t7.5 -58.5h-14h-13q-1 39 -13 60t-42.5 30t-83.5 9q-43 0 -76.5 -5.5t-52.5 -25.5t-19 -62t21.5 -56t60.5 -14h61.5h61.5q29 0 56.5 -4t45 -25.5t17.5 -72.5
q0 -57 -24.5 -82.5t-65 -32t-89.5 -7.5q-23 0 -43 1.5t-33 2.5l-72 -143h-22z" />
    <glyph glyph-name="percent" unicode="%" horiz-adv-x="550" 
d="M363 460l-174 -461h-25l175 461h24zM488 105q0 -47 -11.5 -69.5t-31 -29t-44.5 -6.5q-24 0 -42 7.5t-27.5 30t-9.5 67.5q0 47 11.5 69t31 29t43.5 7q25 0 43 -7.5t27.5 -30t9.5 -67.5zM465 105q0 41 -8 60.5t-21 26t-31 6.5t-31 -6.5t-20.5 -26t-7.5 -60.5t7 -60.5
t20.5 -25.5t31.5 -6t31 6t21 25.5t8 60.5zM228 355q0 -47 -11.5 -69.5t-30.5 -29t-44 -6.5q-24 0 -42 7.5t-28 30t-10 67.5q0 47 11.5 69t31 29t43.5 7q25 0 43 -7.5t27.5 -30t9.5 -67.5zM206 355q0 41 -7.5 60.5t-21 26t-32.5 6.5q-17 0 -30.5 -6.5t-21 -26t-7.5 -60.5
q0 -40 7.5 -60t20.5 -26t31 -6q19 0 32.5 6t21 26t7.5 60z" />
    <glyph glyph-name="ampersand" unicode="&#x26;" horiz-adv-x="514" 
d="M489 -1q-11 5 -31.5 19.5t-47.5 34.5q-8 -22 -25.5 -33.5t-41.5 -17.5q-29 -7 -68 -9t-78.5 0t-67.5 7t-48 18.5t-30 44t-10 84.5q0 28 7.5 55.5t22 47t35.5 23.5q-18 14 -29 32.5t-11 52.5q0 37 15.5 58.5t40 31.5t53.5 12.5t57 3.5q18 0 37 -0.5t38 -1.5t36 -3
q15 -2 30 -5t24.5 -11.5t9.5 -25.5q-13 10 -41.5 15t-60 7t-53.5 2t-48 -1.5t-50 -10t-39 -26t-15 -48.5q0 -28 14 -47.5t38 -38.5l232 -171v164q14 0 21 -2.5t10 -7t3 -13.5q1 -26 1 -56.5t-0.5 -58.5t-2.5 -45l73 -52v-28zM128 255q-20 -4 -31 -23t-15 -43t-4 -39
q0 -68 17 -94.5t53 -34.5q23 -4 55 -6t65 0t56 7q14 4 26 9.5t20.5 14.5t11.5 23q-64 47 -127 93.5t-127 92.5z" />
    <glyph glyph-name="quotesingle" unicode="'" horiz-adv-x="206" 
d="M80 360q9 20 14.5 42t7.5 31h-2h-3q-6 0 -13 3t-7 15q0 9 3.5 13t10 5.5t14.5 1.5q12 0 18 -4.5t6 -17.5t-6 -32t-13 -35.5t-10 -21.5h-20z" />
    <glyph glyph-name="parenleft" unicode="(" horiz-adv-x="241" 
d="M201 505q-31 0 -57 -10.5t-45 -38.5t-30 -80.5t-11 -135.5t11 -135.5t30 -81t45 -39.5t57 -11v-15q-40 0 -72.5 11t-56 40t-36.5 84.5t-13 145.5t13.5 146t37 86t56 41t71.5 11v-18z" />
    <glyph glyph-name="parenright" unicode=")" horiz-adv-x="241" 
d="M23 523q38 0 71 -11t56.5 -41t37 -86t13.5 -146t-13 -145.5t-36.5 -84.5t-56.5 -40t-72 -11v15q31 0 57 11t45 39.5t30 81t11 135.5t-11 135.5t-30 80.5t-45 38.5t-57 10.5v18z" />
    <glyph glyph-name="asterisk" unicode="*" horiz-adv-x="514" 
d="M379 75l-107 166l-107 -166l-34 24l126 153l-192 49l13 40l184 -72l-12 197h42l-11 -197l184 73l13 -40l-190 -50l125 -152z" />
    <glyph glyph-name="plus" unicode="+" horiz-adv-x="416" 
d="M193 -3v176h-142v24h142v161h29v-161h144v-24h-144v-176h-29z" />
    <glyph glyph-name="comma" unicode="," horiz-adv-x="169" 
d="M62 -73q9 20 14.5 42t7.5 31h-2h-3q-6 0 -13 3t-7 15q0 9 3.5 13t10 5.5t14.5 1.5q12 0 18 -4.5t6 -17.5t-6 -32t-13 -35.5t-10 -21.5h-20z" />
    <glyph glyph-name="hyphen" unicode="-" horiz-adv-x="307" 
d="M51 211h204v-21h-204v21z" />
    <glyph glyph-name="period" unicode="." horiz-adv-x="206" 
d="M99 18q0 13 7 16.5t16 3.5q10 0 17 -3t7 -17q0 -8 -3.5 -12t-9 -5t-10.5 -1t-10.5 1t-9.5 5t-4 12z" />
    <glyph glyph-name="slash" unicode="/" horiz-adv-x="355" 
d="M46 -38l234 618h29l-234 -618h-29z" />
    <glyph glyph-name="zero" unicode="0" horiz-adv-x="468" 
d="M228 -7q-39 0 -72 7.5t-58 30.5t-38.5 71t-13.5 129q0 83 15 131t42.5 71t62.5 29.5t73 6.5q39 0 72.5 -7.5t58.5 -30.5t38.5 -71t13.5 -129q0 -83 -15.5 -131t-42.5 -71t-62 -29.5t-74 -6.5zM233 15q36 0 64.5 7.5t48.5 29t30.5 64.5t10.5 114q0 72 -10.5 115t-30.5 65
t-48.5 29.5t-64.5 7.5t-64 -7.5t-47.5 -29.5t-29.5 -65t-10 -115q0 -71 10 -114t29.5 -64.5t47.5 -29t64 -7.5z" />
    <glyph glyph-name="one" unicode="1" horiz-adv-x="249" 
d="M136 0v387q0 34 -10 43t-28 9q-16 0 -34 -5t-25 -8v22q11 3 33 8.5t45 5.5q21 0 33 -7.5t17.5 -23t5.5 -38.5l-1 -393h-36z" />
    <glyph glyph-name="two" unicode="2" horiz-adv-x="449" 
d="M50 0v47.5v47.5q0 46 10.5 73t30 40.5t46.5 17.5t61 4h37.5h38.5q42 0 68.5 22.5t26.5 80.5q0 49 -19.5 71.5t-53.5 29.5q-15 3 -33 4t-40 1q-26 0 -58 -2.5t-57 -10.5q-11 -3 -22 -7t-18.5 -9t-12.5 -11v7v9.5v4.5q0 12 16 20t40.5 13t52 7.5t49.5 2.5q53 0 96.5 -7
t69 -34.5t25.5 -88.5q0 -53 -19 -81t-47.5 -38t-58.5 -10h-40.5h-42.5q-35 0 -60.5 -7.5t-38.5 -29.5t-13 -66v-76h320v-25h-354z" />
    <glyph glyph-name="three" unicode="3" horiz-adv-x="440" 
d="M198 -7q-26 0 -57.5 2t-58.5 5.5t-42 9.5q-10 3 -13 9.5t-2 13.5l1 9q25 -11 66.5 -18.5t102.5 -7.5q51 0 87 8.5t55.5 32.5t19.5 70q0 42 -10.5 61.5t-28.5 25.5t-40 6h-192v26h193q31 0 48.5 20.5t17.5 68.5q0 44 -14.5 66t-42.5 30t-70 9h-12.5h-14.5q-30 0 -61.5 -4
t-55 -9.5t-34.5 -10.5v12q0 9 5 13t18 8q14 5 55 9.5t91 4.5q71 0 108 -13.5t50 -41.5t13 -74q0 -43 -15.5 -69t-40.5 -30v-1q29 0 47.5 -22t18.5 -86q0 -53 -19.5 -81.5t-61.5 -40t-111 -11.5z" />
    <glyph glyph-name="four" unicode="4" horiz-adv-x="445" 
d="M313 0v112h-299v22l275 304q9 9 17.5 14t19 6.5t22.5 1.5q0 -1 -0.5 -7.5t-0.5 -13v-10.5v-295h59v-22h-59v-112h-34zM55 134h258v293l-3 -4l-251 -284z" />
    <glyph glyph-name="five" unicode="5" horiz-adv-x="456" 
d="M410 142q0 -46 -10.5 -74.5t-33.5 -45t-58.5 -23t-87.5 -6.5q-55 0 -99.5 5t-62.5 12q-6 3 -9.5 6.5t-4.5 8.5t0 13l1 6q25 -11 68 -18.5t103 -7.5q50 0 86.5 9.5t56 36.5t19.5 78q0 47 -11.5 71.5t-43.5 33.5t-92 9q-25 0 -51 -0.5t-50 -2.5t-42 -4.5t-28 -4.5v216h342
v-24h-311v-164q13 2 31 3t38.5 2t42.5 1h43q69 0 104 -11.5t47.5 -41t12.5 -83.5z" />
    <glyph glyph-name="six" unicode="6" horiz-adv-x="449" 
d="M222 -4q-59 0 -93.5 8t-52 31t-23.5 68t-6 118q0 78 8 126t29 72.5t58.5 33t95.5 9.5q35 0 70.5 -2.5t51.5 -7.5q18 -3 22 -11t7 -15q-1 0 -2.5 1t-5.5 1t-11 -1q-16 4 -37.5 6.5t-46.5 3.5t-52 1q-53 0 -84 -10t-46 -32t-20 -61q-1 -10 -2.5 -26t-2 -29.5t-0.5 -18.5
q28 6 65 9.5t76 5.5t73 1q26 -1 46.5 -6.5t36 -19t23 -38.5t7.5 -64q0 -46 -9 -76t-30.5 -46.5t-57 -23.5t-87.5 -7zM221 19q51 0 85 8.5t51.5 36.5t17.5 86q0 36 -8.5 58t-28 33t-52.5 14q-21 1 -52.5 0.5t-63.5 -3t-57 -5.5t-34 -5v-29t0.5 -47t1.5 -42q4 -45 20 -68
t45.5 -30t74.5 -7z" />
    <glyph glyph-name="seven" unicode="7" horiz-adv-x="392" 
d="M106 0l217 438h-303v22h318q16 0 20 -8.5t-4 -21.5q-20 -42 -41 -84.5t-43 -86t-44.5 -87.5t-43.5 -87t-42 -85h-34z" />
    <glyph glyph-name="eight" unicode="8" horiz-adv-x="448" 
d="M224 -4q-60 0 -97 6.5t-55 22t-24 41t-6 64.5q0 44 19 76.5t51 35.5q-26 2 -42.5 30.5t-16.5 74.5q0 44 15.5 69t52.5 35.5t103 10.5q50 0 82.5 -5.5t51.5 -19t27.5 -35.5t8.5 -55q0 -46 -16.5 -74.5t-42.5 -30.5q36 -3 53.5 -35.5t17.5 -76.5q0 -38 -6 -64t-25 -41.5
t-55 -22t-96 -6.5zM200 20h47q68 0 97 18.5t29 79.5q0 48 -10 71.5t-37 31.5t-79 8h-47q-51 0 -78.5 -8t-37.5 -31.5t-10 -71.5q0 -61 29 -79.5t97 -18.5zM224 253q53 0 83.5 6t43.5 26t13 62q0 33 -12 53.5t-42.5 29.5t-85.5 9q-56 0 -86 -9t-41.5 -29.5t-11.5 -53.5
q0 -42 12.5 -62t43 -26t83.5 -6z" />
    <glyph glyph-name="nine" unicode="9" horiz-adv-x="449" 
d="M55 33q15 -5 55.5 -9.5t94.5 -4.5q59 0 91.5 9t48 32t21.5 67q2 11 3 26.5t1.5 29t0.5 17.5q-16 -2 -36 -5t-43 -5q-25 -3 -52 -5t-54 -2q-77 0 -110 26.5t-33 101.5q0 64 18.5 97t59.5 44.5t106 11.5q64 0 99 -10t51.5 -34.5t20.5 -68.5t4 -110q0 -65 -5 -108.5
t-15.5 -69.5t-28.5 -39.5t-44 -19.5q-21 -5 -52 -7t-63 -2q-36 0 -68 2t-48 5q-11 2 -17 7.5t-6 15.5v8zM371 221v62.5t-2 53.5q-3 43 -19.5 65.5t-47 31t-79.5 8.5q-48 0 -81 -10t-50.5 -35.5t-17.5 -75.5q0 -47 12 -71.5t40.5 -34t78.5 -9.5q33 0 67.5 2.5t62 6.5t36.5 6z
" />
    <glyph glyph-name="colon" unicode=":" horiz-adv-x="176" 
d="M63 18q0 13 7.5 16.5t16.5 3.5q10 0 17 -3t7 -17q0 -8 -3.5 -12t-9 -5t-10.5 -1q-6 0 -11.5 1t-9.5 5t-4 12zM62 314q0 9 3.5 13t9 5t11.5 1q10 0 17 -2.5t7 -16.5q0 -8 -3.5 -12t-9 -5.5t-10.5 -1.5q-6 0 -11.5 1.5t-9.5 5.5t-4 12z" />
    <glyph glyph-name="semicolon" unicode=";" horiz-adv-x="187" 
d="M76 311q0 9 3.5 13t9 5t11.5 1q10 0 17 -3t7 -16q0 -9 -3.5 -13t-9 -5t-10.5 -1q-6 0 -11.5 1t-9.5 5t-4 13zM81 -73q9 20 14.5 42t7.5 31h-2h-3q-6 0 -13 3t-7 15q0 9 3.5 13t9.5 5.5t15 1.5q12 0 18 -4.5t6 -17.5t-6 -32t-13 -35.5t-10 -21.5h-20z" />
    <glyph glyph-name="less" unicode="&#x3c;" horiz-adv-x="368" 
d="M327 69v-31l-257 166v22l257 172v-35l-226 -148z" />
    <glyph glyph-name="equal" unicode="=" horiz-adv-x="409" 
d="M51 273h306v-21h-306v21zM51 150h306v-21h-306v21z" />
    <glyph glyph-name="greater" unicode="&#x3e;" horiz-adv-x="368" 
d="M296 215l-226 149v34l257 -172v-22l-257 -166v32z" />
    <glyph glyph-name="question" unicode="?" horiz-adv-x="377" 
d="M107 110h-16q0 13 -1 28t-1.5 30l-1 30t-0.5 28q6 0 19.5 -0.5t28.5 0t22 0.5q77 2 111.5 24t34.5 88q0 56 -26.5 79t-101.5 23h-73q-12 0 -23.5 -1t-19.5 -2t-12.5 -2t-5.5 -1v3v3.5t1 3t2 2.5q0 8 14.5 10t31.5 3q11 1 31.5 1h43t35.5 -1q42 -1 72.5 -9.5t47 -34
t16.5 -78.5q0 -48 -18 -74.5t-49 -38t-71.5 -14t-86.5 -2.5zM78 18q0 13 7.5 16.5t16.5 3.5q10 0 16.5 -3t6.5 -17q0 -8 -3.5 -12t-8.5 -5t-11 -1t-11.5 1t-9 5t-3.5 12z" />
    <glyph glyph-name="at" unicode="@" horiz-adv-x="760" 
d="M371 450q-75 0 -126.5 -10t-82.5 -35.5t-45 -72t-14 -120.5q0 -76 16.5 -121t50.5 -68t86 -30t121 -7q45 0 90 4t86.5 11.5t75.5 17t55 21.5v-14.5v-13.5q-29 -11 -75.5 -21.5t-102 -18t-114.5 -7.5q-33 0 -64 0.5t-59 3.5t-53 9.5t-44.5 16t-34.5 24.5q-30 27 -45 73
t-15 119q0 84 18 135.5t54.5 78t92 35.5t129.5 9q72 0 126 -5.5t90 -25t55 -60t19 -110.5q0 -25 -2 -55t-11.5 -57t-30.5 -44t-58 -17q-25 0 -40.5 7t-22 17.5t-8.5 21.5q-8 -14 -23.5 -24t-34.5 -17q-19 -5 -41 -7.5t-45 -2.5q-48 0 -78.5 10t-45 37.5t-14.5 81.5
q0 60 19 87t57.5 33.5t95.5 4.5q20 -1 41 -2t41 -2t35 -2t21 -2q-1 -2 -1.5 -15t-0.5 -30v-70v-70q0 -24 14.5 -30t32.5 -6q30 0 46.5 20t22.5 55t6 80q0 65 -19 101t-54 53t-83.5 21.5t-108.5 4.5zM484 319q-6 1 -26.5 2t-46 2t-47.5 1q-50 0 -77.5 -8.5t-38.5 -30.5
t-11 -62q0 -45 9.5 -69t36 -33t75.5 -9q16 0 37.5 2.5t42 12t33.5 30.5t13 57v105z" />
    <glyph glyph-name="A" unicode="A" horiz-adv-x="469" 
d="M23 0l121 398q10 32 27 49t61 17q43 0 60 -15.5t27 -50.5l125 -398h-37l-43 138h-270l-42 -138h-29zM101 160h256l-71 230q-6 18 -16 32t-41 14q-34 0 -44.5 -14.5t-15.5 -31.5z" />
    <glyph glyph-name="B" unicode="B" horiz-adv-x="569" 
d="M303 -3q-58 0 -100 0.5t-69.5 1t-43.5 1.5v414q0 29 12.5 37t34.5 9q15 0 31.5 0.5l33 1t33.5 0.5h35q20 0 40 -0.5t37.5 -1t30.5 -1.5q58 -5 82.5 -33t24.5 -78q0 -39 -12.5 -62.5t-31 -34t-34.5 -13.5q14 0 30.5 -3t31.5 -13.5t25 -34t10 -63.5q0 -47 -19 -73
t-49 -37.5t-65.5 -14t-67.5 -2.5zM298 21q31 0 60.5 2t54.5 11t40 31t15 60q0 56 -25.5 77t-98.5 21h-163q-10 0 -14 6t-4 18h180q27 0 51 8t39.5 30t15.5 64q0 38 -18.5 61t-59.5 26q-23 2 -50.5 3t-54.5 1q-35 0 -65.5 -0.5t-48.5 -1.5q-12 0 -19.5 -6t-7.5 -22v-387
q4 0 15.5 -0.5t32.5 -1t51.5 -0.5h73.5z" />
    <glyph glyph-name="C" unicode="C" horiz-adv-x="495" 
d="M52 230q0 72 14 118t42.5 72t73 36t106.5 10q36 0 69.5 -2.5t67.5 -9.5q25 -4 32 -10t7 -15v-13q-16 8 -47.5 14t-66.5 9t-62 3q-75 0 -119 -19.5t-62.5 -66t-18.5 -126.5q0 -81 17 -128t61 -66.5t123 -19.5q27 0 61.5 3t65.5 9t48 13v-12q0 -8 -7 -14.5t-32 -10.5
q-34 -7 -68 -9.5t-69 -2.5q-65 0 -110 10t-72.5 35.5t-40.5 72t-13 120.5z" />
    <glyph glyph-name="D" unicode="D" horiz-adv-x="576" 
d="M523 225q0 -87 -18 -133.5t-51.5 -66.5t-79.5 -24t-102 -4q-20 0 -47 0.5t-55 1t-49.5 1t-30.5 0.5v398q0 30 6 44.5t41 17.5q11 1 35 1.5t52.5 1t55 0.5t41.5 -1q47 -3 84.5 -9t64 -28.5t40 -69.5t13.5 -130zM125 24q6 0 26.5 -0.5t45.5 -1t48.5 -1t35.5 -0.5
q58 0 97.5 7.5t64 28.5t35 61.5t10.5 105.5q0 89 -18 135.5t-61 63t-121 16.5h-43t-57.5 -1t-42.5 -4q-10 -2 -15 -8t-5 -29v-373z" />
    <glyph glyph-name="E" unicode="E" horiz-adv-x="516" 
d="M95 0v437q0 12 2 17.5t12 5.5h365v-24h-344v-180h318v-24h-318v-208h344v-24h-379z" />
    <glyph glyph-name="F" unicode="F" horiz-adv-x="511" 
d="M95 0v437q0 8 0.5 12.5t4 7.5t9.5 3h365v-24h-344v-180h318v-24h-318v-232h-35z" />
    <glyph glyph-name="G" unicode="G" horiz-adv-x="526" 
d="M274 -9q-64 0 -106.5 12.5t-68 40.5t-36.5 73.5t-11 112.5q0 72 14.5 118.5t43.5 72t72.5 35.5t102.5 10q39 0 74.5 -2.5t69.5 -9.5q16 -2 24 -6t10.5 -9t2.5 -10v-12q-8 6 -24 9.5t-36 6.5t-41.5 5.5t-42 3.5t-36.5 1q-75 0 -118 -20t-61.5 -66.5t-18.5 -126.5
q0 -79 16.5 -126t57 -67.5t112.5 -20.5q63 0 101 13t56 49.5t20 104.5q1 15 0.5 26t-0.5 16h-198q0 10 1 15t6.5 7t15.5 2h209v-65q0 -57 -12.5 -94t-38.5 -59t-66 -31t-94 -9z" />
    <glyph glyph-name="H" unicode="H" horiz-adv-x="601" 
d="M95 0v439q0 13 3 17t13 4h19v-210h341v210h35v-438q0 -14 -3 -18t-13 -4h-19v225h-341v-225h-35z" />
    <glyph glyph-name="I" unicode="I" horiz-adv-x="225" 
d="M95 0v218.5v219.5q0 7 0.5 11.5t4 7.5t9.5 3h21v-460h-35z" />
    <glyph glyph-name="J" unicode="J" horiz-adv-x="265" 
d="M176 150v-50.5t-3 -47.5q-2 -13 -10 -26t-22.5 -21t-38.5 -8h-17.5t-22.5 1.5t-23 3.5v25q5 -2 19.5 -4t22.5 -2q31 0 45.5 12t14.5 43v384h20q7 0 10 -2.5t4 -6.5t1 -10v-291z" />
    <glyph glyph-name="K" unicode="K" horiz-adv-x="476" 
d="M433 -2q-8 0 -15.5 3.5t-16.5 10.5q-6 6 -22 25t-37 44t-43 50t-38 44.5t-22 26.5q-11 11 -18.5 15.5t-26.5 6.5h-64v-224h-35v443q0 6 1 9.5t4 5.5t7 2h12h11v-42.5v-61v-61v-42.5h65q16 1 23 6t16 15q26 28 52.5 57.5t54 59.5t53.5 60q7 6 13 8t13 2t11.5 -1.5
t7.5 -3.5q-2 -1 -14.5 -14.5t-28 -31t-28.5 -31.5q-22 -23 -45.5 -47.5t-45.5 -47.5t-41 -43l4 2q9 -5 31 -29.5t52.5 -60.5t64 -75.5t65.5 -73.5q-2 -1 -4.5 -2.5t-6.5 -2.5t-9 -1z" />
    <glyph glyph-name="L" unicode="L" horiz-adv-x="453" 
d="M130 460v-436h312v-24h-347v437q0 8 0.5 12.5t4 7.5t9.5 3h21z" />
    <glyph glyph-name="M" unicode="M" horiz-adv-x="659" 
d="M95 0v426q0 24 2 29t17 5h21l189 -417l2 -5l1 3l2 5l190 414h23q13 0 17.5 -2t4.5 -18v-418q0 -9 -1.5 -13.5t-4.5 -6.5t-10 -2h-20v420l-3 -8l-188 -412h-30l-182 403l-3 7v-410h-27z" />
    <glyph glyph-name="N" unicode="N" horiz-adv-x="601" 
d="M95 0v426q0 24 2 29t16 5h25l337 -423l1 8v415h30q-1 -1 -1.5 -5.5t-0.5 -9.5v-11v-401q0 -23 -3 -28t-17 -5h-25l-336 424v-6v-418h-28z" />
    <glyph glyph-name="O" unicode="O" horiz-adv-x="572" 
d="M281 -7q-50 0 -91.5 8t-72.5 31.5t-48 71t-17 127.5q0 82 19 130t51.5 71t76.5 30t92 7q50 0 91.5 -8t72.5 -31.5t48 -71t17 -127.5q0 -82 -19 -130t-51.5 -71t-76 -30t-92.5 -7zM285 16q47 0 83.5 7.5t62.5 29.5t39.5 64.5t13.5 113.5q0 70 -13.5 113t-39.5 65
t-62.5 29.5t-83.5 7.5t-83.5 -7.5t-62 -29.5t-38.5 -65t-13 -113q0 -71 13 -113.5t38.5 -64.5t62 -29.5t83.5 -7.5z" />
    <glyph glyph-name="P" unicode="P" horiz-adv-x="527" 
d="M90 0v205.5v205.5q0 31 12.5 39.5t35.5 9.5q33 1 77 1.5t87.5 0t72.5 -2.5q39 -3 64 -18t36.5 -41.5t11.5 -65.5q0 -46 -16.5 -77t-46.5 -46t-72 -15h-94h-95q0 8 0.5 13t3.5 8t11 3h42.5h63.5h60q28 0 52 10t39 35t15 72q0 43 -18.5 68t-60.5 29q-34 4 -77 4.5
t-81.5 -0.5t-61.5 -2q-4 0 -15 -4t-11 -23v-203.5v-205.5h-35z" />
    <glyph glyph-name="Q" unicode="Q" horiz-adv-x="572" 
d="M281 -7q-50 0 -91.5 8t-72.5 31.5t-48 71t-17 127.5q0 82 19 130t51.5 71t76.5 30t92 7q50 0 91.5 -8t72.5 -31.5t48 -71t17 -127.5q0 -82 -19 -130t-51.5 -71t-76 -30t-92.5 -7zM285 16q47 0 83.5 7.5t62.5 29.5t39.5 64.5t13.5 113.5q0 70 -13.5 113t-39.5 65
t-62.5 29.5t-83.5 7.5t-83.5 -7.5t-62 -29.5t-38.5 -65t-13 -113q0 -71 13 -113.5t38.5 -64.5t62 -29.5t83.5 -7.5zM464 -76q-8 0 -15.5 5t-16.5 14q-7 8 -24.5 28.5t-39.5 46t-43.5 51.5t-38.5 45.5t-23 25.5q4 5 7.5 6.5t8.5 1.5q6 0 12 -4.5t13 -13.5q5 -5 21 -23.5
t37.5 -44.5t44.5 -52t43 -47.5t32 -30.5q-3 -4 -7.5 -6t-10.5 -2z" />
    <glyph glyph-name="R" unicode="R" horiz-adv-x="570" 
d="M369 206h-32.5h-87t-124.5 -1v-205h-35v413q0 29 12.5 37.5t35.5 9.5q15 1 37 1t48 0.5t52.5 0.5h52t45.5 -1t33 -2q52 -5 74.5 -35.5t22.5 -86.5q0 -41 -14.5 -68.5t-41.5 -41.5q-2 -1 -6 -2t-7 -1v-1h5.5h5.5q38 -7 46 -31t8 -48v-126q0 -6 1 -11.5t2 -6.5h-21
q-8 0 -13 3.5t-5 20.5v124q0 31 -13.5 44.5t-47.5 13.5h-33zM125 230q16 0 49.5 -0.5t73 -1t73.5 -0.5h49q38 0 67 23t29 85q0 43 -16.5 68.5t-53.5 29.5q-23 3 -57.5 4t-71.5 0.5t-68 -1t-48 -1.5q-4 0 -15 -4t-11 -23v-179z" />
    <glyph glyph-name="S" unicode="S" horiz-adv-x="517" 
d="M57 51q20 -15 51 -22t65 -8.5t58 -1.5h20t19 1q47 1 82.5 11t55.5 34.5t20 70.5q0 56 -28.5 72t-81.5 16h-34.5h-36h-37.5q-26 0 -53.5 2.5t-50.5 12t-36.5 31.5t-13.5 61q0 47 17.5 74t48.5 39.5t70 16t82 3.5q26 0 59 -1.5t63 -6t48 -16.5q7 -3 11 -7t4 -10v-6.5v-7
v-6.5q-10 11 -31 18.5t-46 11.5t-48.5 5.5t-37.5 1.5h-44q-41 0 -78 -6.5t-60.5 -29t-23.5 -71.5q0 -38 16 -55.5t44 -22.5t65 -5h55h50q42 0 74.5 -7.5t51.5 -31.5t19 -77q0 -52 -24.5 -81.5t-66 -42t-93.5 -15.5q-13 -1 -26.5 -1h-27.5q-16 0 -44 1.5t-57 6t-49 12.5
t-20 23v14z" />
    <glyph glyph-name="T" unicode="T" horiz-adv-x="457" 
d="M24 460h410v-24h-188v-413q0 -12 -2 -17.5t-12 -5.5h-21v436h-187v24z" />
    <glyph glyph-name="U" unicode="U" horiz-adv-x="562" 
d="M477 182q0 -35 -3 -68.5t-21 -59.5t-58.5 -41.5t-116.5 -15.5q-57 0 -94 10t-57 28t-29 40.5t-11 49.5t-2 54v257q0 10 0.5 15t4.5 7t11 2h19v-317q0 -45 16 -71.5t51 -38t92 -11.5q86 0 124.5 28.5t38.5 93.5v316h18q8 0 12 -2t4.5 -7t0.5 -15v-254z" />
    <glyph glyph-name="V" unicode="V" horiz-adv-x="445" 
d="M224 0q-35 0 -53 19.5t-29 55.5l-116 385h35l113 -382q9 -28 24.5 -38.5t32.5 -10.5h19l135 431h29l-147 -460h-43z" />
    <glyph glyph-name="W" unicode="W" horiz-adv-x="666" 
d="M188 0q-28 0 -45.5 3.5t-27.5 20.5t-16 57l-51 379h35l49 -377q5 -32 14.5 -42.5t37.5 -10.5h35l92 430h36l94 -430h38q21 0 32.5 8t14.5 28l50 394h30l-51 -385q-5 -37 -16 -53t-30.5 -19t-48.5 -3h-42l-84 382l-6 28l-7 -29l-80 -381h-53z" />
    <glyph glyph-name="X" unicode="X" horiz-adv-x="447" 
d="M393 0q-5 0 -10 1.5t-9 4.5t-8 8l-161 205l-182 242h44l160 -214l166 -209q11 -15 17 -23t12 -15h-29zM38 0h-21q7 7 13 14.5t13 15.5l165 209l175 222h35l-189 -239l-165 -209q-4 -5 -10.5 -9t-15.5 -4z" />
    <glyph glyph-name="Y" unicode="Y" horiz-adv-x="421" 
d="M190 0v189l-155 246l-17 25h42l152 -244l159 244h32l-19 -27l-159 -244v-166q0 -7 -1 -12.5t-4.5 -8t-10.5 -2.5h-19z" />
    <glyph glyph-name="Z" unicode="Z" horiz-adv-x="437" 
d="M67 24h347q0 -8 -1 -13t-4 -7.5t-8.5 -3t-16.5 -0.5h-361v28l16.5 19.5t44.5 52.5t62 73t69 81.5t66.5 78.5t52.5 64q13 14 21.5 24.5t11.5 14.5h-325q0 8 0.5 13t4.5 8t14 3h348q0 -1 -0.5 -6.5t-2 -13t-6 -16.5t-11.5 -17l-315 -375z" />
    <glyph glyph-name="bracketleft" unicode="[" horiz-adv-x="248" 
d="M76 -34q0 -25 9.5 -35t36.5 -10h38v-18h-17h-20.5t-22 -0.5t-22 -0.5h-20.5h-17v632h119v-18h-38q-27 0 -36.5 -11t-9.5 -36v-503z" />
    <glyph glyph-name="backslash" unicode="\" horiz-adv-x="358" 
d="M83 535l194 -529h-6l-195 529h7z" />
    <glyph glyph-name="bracketright" unicode="]" horiz-adv-x="248" 
d="M124 469q0 25 -9 36t-36 11h-38v18h119v-632l-119 1v18h38q27 0 36 10t9 35v503z" />
    <glyph glyph-name="asciicircum" unicode="^" horiz-adv-x="322" 
d="M61 229h-19l106 231h23l109 -231h-24l-96 208z" />
    <glyph glyph-name="underscore" unicode="_" horiz-adv-x="743" 
d="M42 -147h659v-28h-659v28z" />
    <glyph glyph-name="grave" unicode="`" horiz-adv-x="122" 
d="M102 460l-102 84l21 21l101 -105h-20z" />
    <glyph glyph-name="a" unicode="a" horiz-adv-x="459" 
d="M219 -8q-53 0 -87 7t-52.5 22t-25.5 39t-7 58q0 51 13 78t45 37t87 10q25 0 53 -1.5t54 -3.5t44.5 -4.5t24.5 -4.5q1 53 -8.5 84t-28 45.5t-45.5 19t-60 4.5t-65.5 -3t-58.5 -9.5t-36 -18.5v9q0 18 13.5 24.5t26.5 9.5q17 5 49.5 8t65.5 3q43 0 76 -4.5t56 -20.5
t34.5 -48t11.5 -87l1 -210q-1 -22 -40.5 -32.5t-140.5 -10.5zM219 13q55 0 86.5 3t45.5 10t18 16l-1 166q-8 4 -34.5 7t-57 6t-53.5 3q-52 0 -83.5 -5.5t-45.5 -27.5t-14 -71q0 -37 9 -60.5t39 -35t91 -11.5z" />
    <glyph glyph-name="b" unicode="b" horiz-adv-x="467" 
d="M228 -2q-51 0 -83.5 6t-49.5 25.5t-23.5 58.5t-6.5 105l-1 312h32v-111q2 0 20 1t42 2t46.5 2t35.5 1q68 0 106 -19t54 -62.5t17 -116.5q0 -76 -14 -118t-39 -60.5t-60 -22t-76 -3.5zM228 21q60 0 94 12.5t48.5 52t14.5 117.5q0 64 -15 101.5t-46 55t-81 17.5
q-15 0 -38 -0.5t-47 -1.5t-41 -2t-20 -1v-181q0 -56 4 -89.5t16.5 -51t39 -23.5t71.5 -6z" />
    <glyph glyph-name="c" unicode="c" horiz-adv-x="417" 
d="M251 -5q-72 0 -117 16t-64.5 60t-19.5 128q0 85 19.5 129t64.5 60.5t117 16.5q26 0 48 -2t48 -7q15 -2 23.5 -6.5t11.5 -10.5t3 -18q-12 6 -35.5 11t-49.5 7.5t-46 2.5q-64 0 -101.5 -17.5t-53 -57t-15.5 -107.5t15 -108t52 -56.5t103 -16.5q30 0 55 2.5t44.5 7.5
t31.5 11v-13q0 -10 -16.5 -17t-46 -11t-71.5 -4z" />
    <glyph glyph-name="d" unicode="d" horiz-adv-x="459" 
d="M50 203q0 81 20 123.5t60 58t97 15.5q16 0 40 -1t49.5 -2.5t44 -3.5t24.5 -3l-13 -8v123h30v-304q0 -67 -7.5 -107.5t-26.5 -61t-53.5 -27.5t-88.5 -7q-50 0 -84 6.5t-54.5 27t-29 61t-8.5 110.5zM215 21q52 0 83.5 5.5t47.5 23.5t21 52.5t5 92.5l-1 175q-13 1 -38 2.5
t-52.5 3t-47.5 1.5q-53 0 -86.5 -14.5t-49 -53t-15.5 -110.5q0 -77 11.5 -115t41 -50.5t80.5 -12.5z" />
    <glyph glyph-name="e" unicode="e" horiz-adv-x="442" 
d="M241 -7q-52 0 -89 8.5t-59.5 31t-32.5 62.5t-10 104q0 70 16 115.5t58 68t117 22.5q59 0 95 -17t52 -53.5t16 -92.5v-48h-284q0 8 4 14t16 6h234l-1 32q-2 71 -31.5 103t-100.5 32q-60 0 -95 -18.5t-49.5 -58t-14.5 -105.5q0 -74 15.5 -113.5t51 -54t95.5 -14.5
q19 0 41.5 1.5t44.5 4.5t40 7t27 8v-9q0 -7 -5.5 -13t-25.5 -11q-24 -6 -56.5 -9t-68.5 -3z" />
    <glyph glyph-name="f" unicode="f" horiz-adv-x="235" 
d="M43 352h31v68q0 43 15 64t60 21q19 0 33.5 -1.5t25 -3l17.5 -2.5v-23q-6 2 -15 4t-20 3t-25 1q-36 0 -48 -14.5t-12 -54.5v-62h100v-21h-100v-331h-16q-9 0 -12 3.5t-3 14.5v313h-31v21z" />
    <glyph glyph-name="g" unicode="g" horiz-adv-x="467" 
d="M225 -112q-12 0 -37 1.5t-50.5 5.5t-44 11t-18.5 17v7v6q15 -9 41.5 -15t55.5 -9t49 -3q59 0 92 18t46.5 59.5t10.5 111.5l14 1q-10 -36 -37 -54t-61.5 -25t-67.5 -7q-56 0 -94 13t-56 54t-18 123q0 65 11 104.5t34.5 60.5t60 27.5t87.5 6.5q21 0 46 -1.5t49 -3t42 -3.5
t26 -4q-1 -4 -2 -18.5t-1 -33.5v-35l-1 -236q0 -64 -18 -103.5t-56.5 -57.5t-102.5 -18zM216 36q45 0 78.5 9t54 29.5t21.5 53.5v240q-11 3 -47 7t-85 4q-58 0 -91.5 -14t-48.5 -51t-15 -105q0 -70 13.5 -107.5t42 -51.5t77.5 -14z" />
    <glyph glyph-name="h" unicode="h" horiz-adv-x="456" 
d="M84 0q-12 0 -14.5 4t-2.5 20v480h32v-121q12 5 35 8.5t49 5.5t47 2q57 0 90.5 -12t49 -34t20 -51.5t4.5 -66.5v-207q0 -12 -1.5 -18.5t-5 -8t-12.5 -1.5h-13v249q0 54 -15.5 81t-46 37t-72.5 10q-17 0 -42.5 -1.5t-49 -5t-37.5 -9.5v-361h-15z" />
    <glyph glyph-name="i" unicode="i" horiz-adv-x="187" 
d="M130 -3q-37 0 -48.5 24t-11.5 67v311h32v-308q0 -45 9 -59.5t33 -14.5q5 0 18 1.5t17 3.5v-20q-3 -1 -10 -2t-17 -2t-22 -1zM86 462q-8 0 -15.5 3.5t-7.5 14.5q0 12 6.5 15.5t15.5 3.5q10 0 16.5 -3t6.5 -16q0 -11 -7 -14.5t-15 -3.5z" />
    <glyph glyph-name="j" unicode="j" horiz-adv-x="173" 
d="M40 -86q-17 0 -31.5 1t-20.5 2v20q5 -1 19.5 -2t24.5 -1q28 0 35.5 13.5t7.5 53.5v380q0 6 1 10.5t4.5 6t10.5 1.5h16v-396q0 -33 -5 -52.5t-19.5 -28t-42.5 -8.5zM92 462q-8 0 -15.5 3.5t-7.5 14.5q0 12 6.5 15.5t15.5 3.5q10 0 16.5 -3t6.5 -16q0 -11 -7 -14.5
t-15 -3.5z" />
    <glyph glyph-name="k" unicode="k" horiz-adv-x="386" 
d="M67 0v489q0 10 3 13.5t12 3.5h17v-347l209 227q6 7 12.5 10t16.5 4h13t11 -1q-2 -2 -8 -7.5t-12.5 -11.5t-13.5 -13l-133 -142l169 -195q6 -9 13 -16t13 -14q-7 -1 -14 -1h-14q-9 0 -14.5 3.5t-13.5 11.5l-162 187l-72 -76v-125h-32z" />
    <glyph glyph-name="l" unicode="l" horiz-adv-x="185" 
d="M128 -3q-34 0 -49 19t-15 68v397q0 8 1.5 13.5t5 8t11.5 2.5h15l-0.5 -8.5t-0.5 -24.5v-381q0 -38 8 -56t34 -18q6 0 19 1.5t17 3.5v-20q-5 -1 -16 -3t-30 -2z" />
    <glyph glyph-name="m" unicode="m" horiz-adv-x="655" 
d="M85 0q-11 0 -14.5 3.5t-3.5 13.5v351q5 2 15.5 7.5t27.5 11.5t43.5 10.5t62.5 4.5q31 0 54.5 -5.5t40 -17.5t26.5 -30h-10q8 13 22 23.5t32.5 17t40 10t41.5 3.5q50 0 78 -11t40 -34.5t12 -61.5v-279q0 -9 -3.5 -13t-12.5 -4h-16v148v148q0 47 -24.5 66t-74.5 19
q-23 0 -49.5 -6t-46.5 -17t-20 -27v-331h-32v330q0 18 -29 34t-71 16q-27 0 -52.5 -4t-42.5 -11.5t-20 -18.5v-346h-14z" />
    <glyph glyph-name="n" unicode="n" horiz-adv-x="459" 
d="M83 0q-16 0 -16 16v352q29 14 70.5 24.5t98.5 10.5q50 0 81.5 -7t49 -21t24 -35.5t6.5 -50.5v-272q0 -5 -1.5 -9.5t-6 -6t-10.5 -1.5h-14v292q0 44 -29 65.5t-100 21.5q-22 0 -48.5 -3.5t-50.5 -9.5t-38 -17v-349h-16z" />
    <glyph glyph-name="o" unicode="o" horiz-adv-x="465" 
d="M233 -5q-40 0 -73 6t-58 26.5t-38.5 61.5t-13.5 110t13.5 110t38.5 61.5t58 26.5t73 6q39 0 72.5 -6t58.5 -26.5t38.5 -61.5t13.5 -110q0 -70 -13.5 -111t-38.5 -61t-58.5 -26t-72.5 -6zM233 17q46 0 80 12.5t51.5 51t17.5 118.5t-17.5 118.5t-51.5 51t-80 12.5
t-79.5 -12.5t-52 -51t-18.5 -118.5t18.5 -118.5t52 -51t79.5 -12.5z" />
    <glyph glyph-name="p" unicode="p" horiz-adv-x="471" 
d="M68 -107l1 419q0 29 -0.5 50.5t-1.5 27.5q7 2 25.5 4t42 3.5t49 3t46.5 1.5q75 0 117.5 -22.5t59.5 -68.5t14 -119q-3 -70 -20 -113.5t-54 -63t-100 -19.5q-39 0 -72.5 7t-55.5 28.5t-26 62.5l7 12v-213h-32zM247 19q68 0 104.5 39.5t36.5 138.5q3 101 -33 141.5
t-127 40.5q-17 0 -43.5 -1.5t-50 -3t-33.5 -3.5v-227q0 -50 18 -77t50.5 -37.5t77.5 -10.5z" />
    <glyph glyph-name="q" unicode="q" horiz-adv-x="465" 
d="M371 -107v111q-7 0 -24.5 -1t-40 -2t-43.5 -2t-33 -1q-61 0 -101 15t-59.5 57t-19.5 121q0 65 8.5 105t29 63t56 32t88.5 9h55t55 -0.5t43.5 0t20.5 1.5q-1 -4 -2 -15t-1 -32v-461h-32zM225 20q15 0 38.5 1t47 2.5t40.5 2.5t20 1v348q-11 0 -40 1t-93 1
q-61 0 -95.5 -13.5t-48 -54t-12.5 -119.5q0 -63 16 -100.5t48 -53.5t79 -16z" />
    <glyph glyph-name="r" unicode="r" horiz-adv-x="356" 
d="M100 0h-14q-9 0 -14 4t-5 15v360q19 6 50.5 14.5t84.5 8.5q46 0 73 -7t39.5 -19t16.5 -27t4 -31h-32l-1 14q-1 23 -17 33t-39 12.5t-44 2.5q-34 0 -60 -6t-42 -14v-360z" />
    <glyph glyph-name="s" unicode="s" horiz-adv-x="418" 
d="M186 -5q-14 0 -39 1t-51.5 5t-46.5 13q-7 3 -10 5.5t-4 9t-1 16.5q17 -12 46 -18t58.5 -7.5t45.5 -1.5q36 0 67 3t55 13t37.5 30.5t13.5 53.5q0 49 -25.5 62.5t-70.5 13.5h-94q-32 0 -63 4.5t-51.5 24.5t-20.5 65q0 51 24.5 76t68 32.5t99.5 7.5q21 0 50 -1.5t59 -7.5
q16 -2 27 -5.5t17 -9t6 -13.5v-17q-11 11 -30.5 17t-43 9t-48.5 4t-47 1q-37 0 -72 -4.5t-57 -23.5t-22 -63q0 -33 13.5 -48.5t38 -20t56.5 -4.5h91q37 0 65.5 -6t44.5 -27t16 -68q0 -51 -27 -77t-72.5 -35t-102.5 -9z" />
    <glyph glyph-name="t" unicode="t" horiz-adv-x="218" 
d="M139 -3q-23 0 -37.5 7.5t-21.5 25.5t-7 49v299h-36v21h36v82q0 11 2 16t5.5 6.5t8.5 1.5h17l-0.5 -7t-0.5 -22v-77h92v-21h-92v-292q0 -39 8.5 -54t34.5 -15q11 0 21.5 2t14.5 3v-20q-5 -1 -17 -3t-28 -2z" />
    <glyph glyph-name="u" unicode="u" horiz-adv-x="454" 
d="M89 399v-276q0 -58 34 -81t102 -23q74 0 107 24.5t33 79.5v276h3h4.5h4.5h3q8 0 11.5 -1.5t4.5 -5.5t1 -13v-245q0 -45 -14 -76t-51 -46.5t-107 -15.5q-62 0 -99 13.5t-53 43t-16 79.5v247q0 12 3.5 16t12.5 4h8h8z" />
    <glyph glyph-name="v" unicode="v" horiz-adv-x="359" 
d="M185 0q-17 0 -29 5t-20.5 15.5t-14.5 27.5l-110 351h33l97 -323q9 -30 22 -38.5t48 -8.5q27 90 52 179.5t52 177.5q2 6 6 9.5t11 3.5h12l-119 -399h-40z" />
    <glyph glyph-name="w" unicode="w" horiz-adv-x="640" 
d="M194 -2q-46 0 -76 7.5t-45.5 33t-15.5 79.5v253q0 17 3 22.5t15 5.5h14v-286q0 -56 25.5 -74t81.5 -18q58 0 83.5 19t25.5 53l-1 306h33v-306q0 -34 25 -53t83 -19q56 0 81 18t25 74v286h14q13 0 15.5 -5.5t2.5 -22.5v-253q0 -53 -15.5 -79t-45 -33.5t-75.5 -7.5
q-50 0 -87 15t-45 61l10 1q-4 -29 -21.5 -46.5t-45.5 -24t-64 -6.5z" />
    <glyph glyph-name="x" unicode="x" horiz-adv-x="368" 
d="M12 0l153 198l-130 175q-7 11 -11 17t-10 10h42l132 -176l136 175h29q-4 -5 -8 -10.5t-8 -10.5l-132 -175l151 -203h-23q-9 0 -16.5 3t-13.5 11l-123 163l-137 -177h-31z" />
    <glyph glyph-name="y" unicode="y" horiz-adv-x="450" 
d="M219 -111q-39 0 -74.5 4.5t-58 12t-22.5 16.5v15q16 -9 41 -15t53 -9.5t56 -3.5q48 0 80.5 14.5t49.5 46t17 79.5v61q-8 -20 -28 -35t-50 -22t-68 -7q-73 0 -107.5 20t-44 57t-9.5 86v157q0 15 1 22t4 9t10 2h18v-51.5v-50.5v-50.5v-51.5q0 -57 19.5 -84t51 -34.5
t66.5 -7.5q36 0 67 9t50.5 34t19.5 73v214h15q11 0 14 -3t3 -21v-319q0 -88 -43 -127.5t-131 -39.5z" />
    <glyph glyph-name="z" unicode="z" horiz-adv-x="367" 
d="M52 23h295l3 -7q5 -7 -0.5 -11.5t-16.5 -4.5h-318v24l291 352h-275v6q0 9 3.5 13t12.5 4h300q0 -8 -2.5 -15t-8 -15t-16.5 -21z" />
    <glyph glyph-name="braceleft" unicode="{" horiz-adv-x="282" 
d="M128 55q0 -44 15.5 -59.5t47.5 -15.5h23.5h25.5v-5.5v-6.5v-6q-53 0 -82.5 2.5t-43.5 15t-17 42t-3 82.5q0 59 -5.5 86t-17 34t-29.5 7v5v6v5q18 0 29.5 8.5t17 37.5t5.5 87q0 53 4 82.5t18 42t43.5 15t80.5 2.5v-5v-6.5v-6.5h-48q-31 0 -47.5 -13.5t-16.5 -61.5v-68
q0 -48 -8 -74t-20 -35.5t-21 -11.5q9 -2 21 -10.5t20 -31t8 -65.5v-78z" />
    <glyph glyph-name="bar" unicode="|" horiz-adv-x="119" 
d="M76 460v-619h-32v619h32z" />
    <glyph glyph-name="braceright" unicode="}" horiz-adv-x="282" 
d="M153 55v78q0 43 8.5 65.5t20 31t21.5 10.5q-9 2 -21 11.5t-20.5 35.5t-8.5 74v68q0 48 -16 61.5t-48 13.5h-47v6.5v6.5v5q50 0 79.5 -2.5t43.5 -15t18 -42t4 -82.5q0 -58 5.5 -87t17.5 -37.5t30 -8.5v-5v-6v-5q-18 0 -29.5 -7t-17.5 -34t-6 -86q0 -53 -3.5 -82.5t-17 -42
t-43 -15t-81.5 -2.5v6v6.5v5.5h25h23q32 0 47.5 15.5t15.5 59.5z" />
    <glyph glyph-name="asciitilde" unicode="~" horiz-adv-x="357" 
d="M48 492l5 8.5t13.5 19.5t21.5 20t29 9q15 0 30.5 -5t31 -12.5t30 -12.5t28.5 -5q21 0 32 9t17 19.5t9 15.5l12 -9l-4.5 -9t-13 -20t-21.5 -19.5t-30 -9.5q-15 0 -30.5 5.5t-31 12.5t-30 12.5t-30.5 5.5q-18 0 -29.5 -9t-17 -19.5t-9.5 -15.5z" />
    <glyph glyph-name="uni00A0" unicode="&#xa0;" horiz-adv-x="245" 
 />
    <glyph glyph-name="exclamdown" unicode="&#xa1;" horiz-adv-x="163" 
d="M91 233l7 -322q1 -18 -2.5 -26t-20.5 -8h-14v98l12 258h18zM105 365q0 -13 -6.5 -16.5t-16.5 -3.5q-9 0 -16.5 3t-7.5 17q0 9 3.5 12.5t9 4.5t10.5 1q6 0 11.5 -1t9 -4.5t3.5 -12.5z" />
    <glyph glyph-name="cent" unicode="&#xa2;" horiz-adv-x="449" 
d="M241 52q-46 0 -82 10t-60.5 33t-36.5 62.5t-12 96.5q0 62 15.5 109.5t56.5 74.5t118 27q50 0 84 -8t54.5 -25.5t29.5 -44.5t9 -65h-29q1 70 -34.5 96.5t-111.5 26.5q-62 0 -97 -23t-49.5 -65.5t-14.5 -101.5q1 -74 20.5 -113.5t55.5 -53.5t85 -14q46 0 78.5 8.5t50 34.5
t17.5 77h29q0 -45 -12.5 -73t-35.5 -43t-55.5 -20.5t-72.5 -5.5zM111 0l223 523h19l-221 -523h-21z" />
    <glyph glyph-name="sterling" unicode="&#xa3;" horiz-adv-x="469" 
d="M52 205h53v159q0 61 19.5 93t58 44t92.5 12q83 0 121.5 -32.5t38.5 -90.5v-31h-32v37q0 37 -18.5 58.5t-47.5 31.5t-61 10q-33 0 -64.5 -8.5t-52.5 -35.5t-21 -85v-162h105v-16h-104v-47q0 -38 -6 -64.5t-14 -40.5t-13 -16h328v-21h-382v15q17 0 28.5 16t18 49.5
t6.5 87.5v21h-53v16z" />
    <glyph glyph-name="currency" unicode="&#xa4;" horiz-adv-x="486" 
d="M363 469q22 -23 29 -61.5t1 -77.5t-24 -65l65 -78h-21l-78 52q-23 -9 -56.5 -12t-67 0.5t-59.5 12.5l-79 -53h-21l66 81q-16 25 -21.5 61.5t1.5 73.5t26 62l-72 90h21l89 -64q36 13 78 12.5t85 -10.5l88 62h21zM120 364q0 -53 16.5 -78.5t45.5 -33.5t65 -8t63 8t42.5 34
t15.5 78q0 53 -15.5 78.5t-42.5 33.5t-63 8t-65 -8t-45.5 -33.5t-16.5 -78.5z" />
    <glyph glyph-name="yen" unicode="&#xa5;" horiz-adv-x="421" 
d="M190 0v189l-155 246l-17 25h42l152 -244l159 244h32l-19 -27l-159 -244v-166q0 -7 -1 -12.5t-4.5 -8t-10.5 -2.5h-19zM83 163h248v-17h-248v17zM83 112h248v-17h-248v17z" />
    <glyph glyph-name="brokenbar" unicode="&#xa6;" horiz-adv-x="156" 
d="M79 89v-248h-32v248h32zM79 460v-252h-32v252h32z" />
    <glyph glyph-name="section" unicode="&#xa7;" horiz-adv-x="498" 
d="M75 -99q12 -10 30.5 -15.5t39.5 -8t41.5 -3.5t35.5 -1q37 0 68.5 3.5t56 13.5t38 31t13.5 55q0 50 -26 63.5t-74 13.5q-23 0 -47 -0.5t-47 0.5q-23 0 -46 2t-42.5 11.5t-31.5 29t-12 54.5q0 53 28 78.5t71 34.5q-23 8 -38.5 28t-15.5 60t16.5 63t44 34t62.5 14t72 3
q12 0 38 -1t53.5 -5t47 -11.5t19.5 -21.5v-8.5v-7.5q-9 11 -28 17.5t-41.5 10t-44 4.5t-38.5 1q-35 0 -66 -2.5t-54 -11t-36 -27.5t-13 -52q0 -34 14 -49.5t40 -20t61 -4.5h43h43q37 0 65.5 -6t44.5 -27.5t16 -66.5q0 -36 -14 -60.5t-37.5 -37t-49.5 -12.5q26 -2 43 -25.5
t17 -66.5q0 -52 -25.5 -78t-72 -35t-108.5 -9q-10 0 -28 0.5t-40 2.5t-41 6t-31.5 10.5t-12.5 16.5q-1 4 -1 7.5v5.5zM345 77q46 0 72 29t26 68q0 29 -15 52.5t-54 24.5l-96 1h-23h-26t-10 0q-63 -4 -88 -31t-27 -58q-2 -48 19 -67t68 -19h154z" />
    <glyph glyph-name="dieresis" unicode="&#xa8;" horiz-adv-x="398" 
d="M144 460q-8 0 -16.5 3t-8.5 18q0 14 8.5 16.5t15.5 2.5q8 0 16.5 -2.5t8.5 -16.5q0 -15 -7 -18t-17 -3zM25 460q-11 0 -18 3t-7 19q0 13 8 15.5t16 2.5t16 -2.5t8 -15.5q0 -15 -7 -18.5t-16 -3.5z" />
    <glyph glyph-name="copyright" unicode="&#xa9;" horiz-adv-x="576" 
d="M28 243q0 72 34.5 125.5t93.5 83t130 29.5q72 0 130.5 -29.5t93.5 -83t35 -125.5q0 -71 -35 -127.5t-93.5 -89t-130.5 -32.5q-71 0 -130 32.5t-93.5 89t-34.5 127.5zM46 243q0 -67 32.5 -120t87 -83t120.5 -30q67 0 121 30t86.5 83t32.5 120q0 68 -32.5 117.5t-86.5 76.5
t-121 27q-66 0 -120.5 -27t-87 -76.5t-32.5 -117.5zM284 380q32 0 58 -5.5t41.5 -23t15.5 -54.5v-5.5v-5.5h-17q0 28 -7 44.5t-20 24.5q-12 9 -30 11.5t-42 2.5q-30 0 -51.5 -9t-32.5 -25q-13 -16 -18 -40t-5 -52q0 -30 7 -54t23 -41q24 -27 77 -27q24 0 42.5 3t31.5 12
q11 8 18 21t7 34v5.5v5.5h17v-4.5v-4.5q0 -36 -15.5 -54t-41.5 -23.5t-59 -5.5q-46 0 -74 14t-40.5 43t-12.5 74q0 42 11 73t38.5 48.5t78.5 17.5z" />
    <glyph glyph-name="ordfeminine" unicode="&#xaa;" horiz-adv-x="459" 
d="M219 -8q-53 0 -87 7t-52.5 22t-25.5 39t-7 58q0 51 13 78t45 37t87 10q25 0 53 -1.5t54 -3.5t44.5 -4.5t24.5 -4.5q1 53 -8.5 84t-28 45.5t-45.5 19t-60 4.5t-65.5 -3t-58.5 -9.5t-36 -18.5v9q0 18 13.5 24.5t26.5 9.5q17 5 49.5 8t65.5 3q43 0 76 -4.5t56 -20.5
t34.5 -48t11.5 -87l1 -210q-1 -22 -40.5 -32.5t-140.5 -10.5zM219 13q55 0 86.5 3t45.5 10t18 16l-1 166q-8 4 -34.5 7t-57 6t-53.5 3q-52 0 -83.5 -5.5t-45.5 -27.5t-14 -71q0 -37 9 -60.5t39 -35t91 -11.5z" />
    <glyph glyph-name="guillemotleft" unicode="&#xab;" horiz-adv-x="351" 
d="M70 264l91 -186h-23l-96 186l96 187h22zM208 264l91 -186h-23l-96 186l96 187h22z" />
    <glyph glyph-name="logicalnot" unicode="&#xac;" horiz-adv-x="513" 
d="M443 285h-401v30h422v-185h-21v155z" />
    <glyph glyph-name="uni00AD" unicode="&#xad;" horiz-adv-x="307" 
d="M51 211h204v-21h-204v21z" />
    <glyph glyph-name="registered" unicode="&#xae;" horiz-adv-x="407" 
d="M70 435q0 -38 18 -69.5t49 -50t69 -18.5q39 0 70 18.5t48.5 50t17.5 69.5q0 39 -17.5 70t-48.5 49t-70 18q-38 0 -69 -18t-49 -49t-18 -70zM50 435q0 43 21 78.5t56.5 56.5t78.5 21q44 0 79 -21t56 -56.5t21 -78.5t-21 -78.5t-56 -56.5t-79 -21q-43 0 -78.5 21
t-56.5 56.5t-21 78.5zM253 429l-11.5 0.5t-31.5 0t-45 -0.5v-77h-12v156q0 11 4.5 14t12.5 3q5 0 13.5 0.5t17.5 0.5h18h18t16.5 -0.5t12.5 -0.5q18 -2 26 -14t8 -32q0 -16 -5 -26t-15 -16h-2.5h-2.5v-1h2h2q13 -3 16 -12t3 -18v-48q0 -1 0.5 -3.5t1.5 -2.5h-7q-3 0 -4.5 1
t-1.5 7v48q0 12 -5 16.5t-17 4.5h-12zM165 438h18h26t26 -0.5t18 -0.5q13 0 24 9t11 33q0 16 -6 26t-19 11q-9 0 -21.5 0.5t-25.5 0.5t-24.5 -0.5t-17.5 -0.5q-1 0 -5 -1t-4 -8v-69z" />
    <glyph glyph-name="macron" unicode="&#xaf;" horiz-adv-x="314" 
d="M4 461v21h196v-21h-196z" />
    <glyph glyph-name="degree" unicode="&#xb0;" horiz-adv-x="287" 
d="M44 503q0 36 14 61.5t37 39t51 13.5t50.5 -13.5t36.5 -39t14 -61.5q0 -35 -14 -62.5t-37 -42.5t-50 -15q-28 0 -51 15t-37 42.5t-14 62.5zM83 503q0 -35 18.5 -56t44.5 -21t44 21t18 56q0 33 -18 52.5t-44 19.5t-44.5 -19t-18.5 -53z" />
    <glyph glyph-name="plusminus" unicode="&#xb1;" horiz-adv-x="457" 
d="M75 21h306v-21h-306v21zM74 299h141v156h23v-156h142v-25h-142v-170h-23v170h-141v25z" />
    <glyph glyph-name="uni00B2" unicode="&#xb2;" horiz-adv-x="250" 
d="M23 259v28.5v28.5q0 38 10 55t28 22.5t45 5.5h22.5h20.5q22 0 37 13.5t15 45.5q0 31 -11.5 42.5t-26.5 15.5q-11 2 -20 3t-23 1q-16 0 -33 -2t-29 -6q-7 -2 -13.5 -4.5t-11.5 -5t-7 -6.5v14q0 10 15 16t36.5 8.5t39.5 2.5q31 0 56 -4.5t39.5 -20.5t14.5 -54
q0 -32 -11 -48.5t-27.5 -22.5t-34.5 -6h-21.5h-23.5q-29 0 -44 -12t-15 -48v-43h177v-19h-204z" />
    <glyph glyph-name="uni00B3" unicode="&#xb3;" horiz-adv-x="247" 
d="M113 255q-22 0 -49 2.5t-40 7.5q-5 2 -8 5.5t-2 10.5l1 7q15 -6 38.5 -10t56.5 -4q41 0 64 12t23 50q0 35 -12.5 44.5t-28.5 9.5h-108v18h108q16 0 25 12t9 39q0 37 -17 48t-50 11h-7.5h-7.5q-17 0 -35 -2t-31.5 -5t-18.5 -6v10q0 5 2.5 8t9.5 5q11 4 33 6.5t51 2.5
q41 0 62 -7.5t29 -24.5t8 -45q0 -25 -8.5 -41t-23.5 -18v-1q19 0 28.5 -15t9.5 -49q0 -32 -11.5 -49.5t-35.5 -24.5t-64 -7z" />
    <glyph glyph-name="acute" unicode="&#xb4;" horiz-adv-x="230" 
d="M3 460l100 105l22 -21l-104 -84h-18z" />
    <glyph glyph-name="uni03BC" unicode="&#xb5;" horiz-adv-x="438" 
d="M217 -3q-52 0 -89.5 15.5t-49.5 43.5v-52v-38.5v-51.5v-17.5v-16.5t0.5 -15t0.5 -14h-9.5h-9.5q-9 0 -11.5 5.5t-2.5 17.5v170.5v158.5v170q0 13 2 18.5t6.5 6.5t12.5 1h2h4h4h2v-6v-6v-131v-131q1 -44 20.5 -67t50.5 -31.5t66 -8.5q36 0 66.5 8t50 34t19.5 82v119.5
v119.5v9.5v8.5h2h3.5h3.5h2q10 0 14.5 -1.5t5.5 -8t1 -24.5v-203q0 -38 -5 -68.5t-21 -52t-49.5 -33t-91.5 -11.5z" />
    <glyph glyph-name="paragraph" unicode="&#xb6;" horiz-adv-x="350" 
d="M254 528v-650h-36v383q-65 0 -100.5 14t-48.5 45t-13 79t14 76.5t49.5 40.5t97.5 12h37z" />
    <glyph glyph-name="periodcentered" unicode="&#xb7;" horiz-adv-x="172" 
d="M63 218q0 13 7.5 16.5t16.5 3.5q10 0 17 -3.5t7 -16.5q0 -8 -3.5 -12t-9 -5t-10.5 -1q-6 0 -11.5 1t-9.5 5t-4 12z" />
    <glyph glyph-name="cedilla" unicode="&#xb8;" horiz-adv-x="259" 
d="M57 -185q-24 0 -34.5 3.5t-10.5 13.5h23.5h44.5q30 0 40 9t10 28q0 26 -8.5 33.5t-45.5 7.5h-31q-5 0 -12.5 0.5t-13 1t-9.5 1.5q2 3 11.5 14.5t22 26.5t23 28.5t15.5 19.5h14l-55 -78q47 3 71.5 0.5t32.5 -15t8 -40.5t-13 -39t-35 -13t-48 -2z" />
    <glyph glyph-name="uni00B9" unicode="&#xb9;" horiz-adv-x="131" 
d="M62 259v230q0 19 -5.5 25.5t-17.5 6.5q-9 0 -19 -3.5t-15 -5.5v16q8 2 21 5t28 3q19 0 26 -10t7 -32l2 -235h-27z" />
    <glyph glyph-name="ordmasculine" unicode="&#xba;" horiz-adv-x="465" 
d="M233 -5q-40 0 -73 6t-58 26.5t-38.5 61.5t-13.5 110t13.5 110t38.5 61.5t58 26.5t73 6q39 0 72.5 -6t58.5 -26.5t38.5 -61.5t13.5 -110q0 -70 -13.5 -111t-38.5 -61t-58.5 -26t-72.5 -6zM233 17q46 0 80 12.5t51.5 51t17.5 118.5t-17.5 118.5t-51.5 51t-80 12.5
t-79.5 -12.5t-52 -51t-18.5 -118.5t18.5 -118.5t52 -51t79.5 -12.5z" />
    <glyph glyph-name="guillemotright" unicode="&#xbb;" horiz-adv-x="351" 
d="M43 451h22l96 -187l-96 -186h-23l91 186zM180 451h22l96 -187l-96 -186h-23l91 186z" />
    <glyph glyph-name="onequarter" unicode="&#xbc;" horiz-adv-x="490" 
d="M62 259v230q0 19 -5.5 25.5t-17.5 6.5q-9 0 -19 -3.5t-15 -5.5v16q8 2 21 5t28 3q19 0 26 -10t7 -32l2 -235h-27zM361 527l-287 -600h-24l286 600h25zM410 -71v66h-166v16l153 180q8 9 18.5 11.5t20.5 2.5v-8v-11v-172h34v-19h-34v-66h-26zM274 14h136v166z" />
    <glyph glyph-name="onehalf" unicode="&#xbd;" horiz-adv-x="531" 
d="M62 259v230q0 19 -5.5 25.5t-17.5 6.5q-9 0 -19 -3.5t-15 -5.5v16q8 2 21 5t28 3q19 0 26 -10t7 -32l2 -235h-27zM361 527l-287 -600h-24l286 600h25zM304 -71v28.5v28.5q0 38 10 55t28 22.5t45 5.5h22.5h20.5q22 0 37 13.5t15 45.5q0 31 -11.5 42.5t-26.5 15.5
q-11 2 -20 3t-23 1q-16 0 -33 -2t-29 -6q-7 -2 -13.5 -4.5t-11.5 -5t-7 -6.5v14q0 10 15 16t36.5 8.5t39.5 2.5q31 0 56 -4.5t39.5 -20.5t14.5 -54q0 -32 -11 -48.5t-27.5 -22.5t-34.5 -6h-21.5h-23.5q-29 0 -44 -12t-15 -48v-43h177v-19h-204z" />
    <glyph glyph-name="threequarters" unicode="&#xbe;" horiz-adv-x="606" 
d="M113 255q-22 0 -49 2.5t-40 7.5q-5 2 -8 5.5t-2 10.5l1 7q15 -6 38.5 -10t56.5 -4q41 0 64 12t23 50q0 35 -12.5 44.5t-28.5 9.5h-108v18h108q16 0 25 12t9 39q0 37 -17 48t-50 11h-7.5h-7.5q-17 0 -35 -2t-31.5 -5t-18.5 -6v10q0 5 2.5 8t9.5 5q11 4 33 6.5t51 2.5
q41 0 62 -7.5t29 -24.5t8 -45q0 -25 -8.5 -41t-23.5 -18v-1q19 0 28.5 -15t9.5 -49q0 -32 -11.5 -49.5t-35.5 -24.5t-64 -7zM477 527l-287 -600h-24l286 600h25zM525 -71v66h-166v16l153 180q8 9 18.5 11.5t20.5 2.5v-8v-11v-172h34v-19h-34v-66h-26zM389 14h136v166z" />
    <glyph glyph-name="questiondown" unicode="&#xbf;" horiz-adv-x="356" 
d="M259 261h16q0 -13 1 -28t1.5 -30t1.5 -30t1 -28q-7 1 -20.5 1h-27.5t-23 -1q-77 -1 -111.5 -23.5t-34.5 -88.5q0 -56 26.5 -79t101.5 -23h73q13 0 24 1t19 2t12.5 2t5.5 1v-3v-3.5t-1 -3t-1 -2.5q-1 -8 -15.5 -10t-30.5 -3q-11 0 -32 -0.5t-43 0t-36 0.5q-41 2 -71.5 10
t-47 34t-16.5 78q0 48 17.5 74.5t48.5 38t71.5 14t86.5 2.5zM288 353q0 -13 -7 -16.5t-17 -3.5q-9 0 -16 3t-7 17q0 9 3.5 12.5t9 4.5t10.5 1q6 0 11.5 -1t9 -4.5t3.5 -12.5z" />
    <glyph glyph-name="Agrave" unicode="&#xc0;" horiz-adv-x="469" 
d="M23 0l121 398q10 32 27 49t61 17q43 0 60 -15.5t27 -50.5l125 -398h-37l-43 138h-270l-42 -138h-29zM101 160h256l-71 230q-6 18 -16 32t-41 14q-34 0 -44.5 -14.5t-15.5 -31.5zM247 521l-97 66l21 20l96 -86h-20z" />
    <glyph glyph-name="Aacute" unicode="&#xc1;" horiz-adv-x="469" 
d="M23 0l121 398q10 32 27 49t61 17q43 0 60 -15.5t27 -50.5l125 -398h-37l-43 138h-270l-42 -138h-29zM101 160h256l-71 230q-6 18 -16 32t-41 14q-34 0 -44.5 -14.5t-15.5 -31.5zM211 521l95 86l21 -20l-98 -66h-18z" />
    <glyph glyph-name="Acircumflex" unicode="&#xc2;" horiz-adv-x="469" 
d="M23 0l121 398q10 32 27 49t61 17q43 0 60 -15.5t27 -50.5l125 -398h-37l-43 138h-270l-42 -138h-29zM101 160h256l-71 230q-6 18 -16 32t-41 14q-34 0 -44.5 -14.5t-15.5 -31.5zM146 521l78 86h20l79 -86h-21l-68 65l-68 -65h-20z" />
    <glyph glyph-name="Atilde" unicode="&#xc3;" horiz-adv-x="469" 
d="M23 0l121 398q10 32 27 49t61 17q43 0 60 -15.5t27 -50.5l125 -398h-37l-43 138h-270l-42 -138h-29zM101 160h256l-71 230q-6 18 -16 32t-41 14q-34 0 -44.5 -14.5t-15.5 -31.5zM279 519q-16 0 -31 8.5t-31 17t-31 8.5q-16 0 -26 -10t-14 -17l-12 9q1 3 4.5 9.5t10.5 14
t16 13.5t23 6q16 0 31 -9l30 -18t29 -9q20 0 30 12t13 20l12 -11q-1 -3 -4.5 -10t-9.5 -14.5t-16 -13.5t-24 -6z" />
    <glyph glyph-name="Adieresis" unicode="&#xc4;" horiz-adv-x="469" 
d="M23 0l121 398q10 32 27 49t61 17q43 0 60 -15.5t27 -50.5l125 -398h-37l-43 138h-270l-42 -138h-29zM101 160h256l-71 230q-6 18 -16 32t-41 14q-34 0 -44.5 -14.5t-15.5 -31.5zM293 521q-8 0 -16.5 3t-8.5 18q0 14 8.5 16.5t15.5 2.5q8 0 16.5 -2.5t8.5 -16.5
q0 -15 -7 -18t-17 -3zM174 521q-11 0 -18 3t-7 19q0 13 8 15.5t16 2.5t16 -2.5t8 -15.5q0 -15 -7 -18.5t-16 -3.5z" />
    <glyph glyph-name="Aring" unicode="&#xc5;" horiz-adv-x="469" 
d="M23 0l121 398q10 32 27 49t61 17q43 0 60 -15.5t27 -50.5l125 -398h-37l-43 138h-270l-42 -138h-29zM101 160h256l-71 230q-6 18 -16 32t-41 14q-34 0 -44.5 -14.5t-15.5 -31.5zM234 522q-25 0 -38.5 5t-19 14.5t-5.5 23.5t5.5 23t19 13.5t38.5 4.5t39 -4.5t19 -13.5
t5 -23t-5 -23.5t-19 -14.5t-39 -5zM234 537q20 0 31 5.5t11 22.5q0 16 -11 21.5t-31 5.5q-19 0 -30.5 -5.5t-11.5 -21.5q0 -17 11 -22.5t31 -5.5z" />
    <glyph glyph-name="AE" unicode="&#xc6;" horiz-adv-x="724" 
d="M2 0q25 41 49.5 80.5t48 78.5t47.5 78t49 78.5t50 80.5q17 29 34 42.5t33.5 17.5t31.5 4h358v-12v-13h-343v-179h316v-25h-157.5h-158.5v-206h343v-25h-188.5h-188.5v137h-211q-22 -34 -42.5 -68.5t-41.5 -68.5h-29zM129 159h98.5h98.5v136v135q-1 0 -3 -0.5t-4 -0.5
q-17 0 -29 -12t-22 -29q-35 -57 -69.5 -114.5t-69.5 -114.5z" />
    <glyph glyph-name="Ccedilla" unicode="&#xc7;" horiz-adv-x="495" 
d="M52 230q0 72 14 118t42.5 72t73 36t106.5 10q36 0 69.5 -2.5t67.5 -9.5q25 -4 32 -10t7 -15v-13q-16 8 -47.5 14t-66.5 9t-62 3q-75 0 -119 -19.5t-62.5 -66t-18.5 -126.5q0 -81 17 -128t61 -66.5t123 -19.5q27 0 61.5 3t65.5 9t48 13v-12q0 -8 -7 -14.5t-32 -10.5
q-34 -7 -68 -9.5t-69 -2.5q-65 0 -110 10t-72.5 35.5t-40.5 72t-13 120.5zM257 -185q-24 0 -34.5 3.5t-10.5 13.5h23.5h44.5q30 0 40 9t10 28q0 26 -8.5 33.5t-45.5 7.5h-31q-5 0 -12.5 0.5t-13 1t-9.5 1.5q2 3 11.5 14.5t22 26.5t23 28.5t15.5 19.5h14l-55 -78
q47 3 71.5 0.5t32.5 -15t8 -40.5t-13 -39t-35 -13t-48 -2z" />
    <glyph glyph-name="Egrave" unicode="&#xc8;" horiz-adv-x="516" 
d="M95 0v437q0 12 2 17.5t12 5.5h365v-24h-344v-180h318v-24h-318v-208h344v-24h-379zM292 521l-97 66l21 20l96 -86h-20z" />
    <glyph glyph-name="Eacute" unicode="&#xc9;" horiz-adv-x="516" 
d="M95 0v437q0 12 2 17.5t12 5.5h365v-24h-344v-180h318v-24h-318v-208h344v-24h-379zM256 521l95 86l21 -20l-98 -66h-18z" />
    <glyph glyph-name="Ecircumflex" unicode="&#xca;" horiz-adv-x="516" 
d="M95 0v437q0 12 2 17.5t12 5.5h365v-24h-344v-180h318v-24h-318v-208h344v-24h-379zM191 521l78 86h20l79 -86h-21l-68 65l-68 -65h-20z" />
    <glyph glyph-name="Edieresis" unicode="&#xcb;" horiz-adv-x="516" 
d="M95 0v437q0 12 2 17.5t12 5.5h365v-24h-344v-180h318v-24h-318v-208h344v-24h-379zM339 521q-8 0 -16.5 3t-8.5 18q0 14 8.5 16.5t15.5 2.5q8 0 16.5 -2.5t8.5 -16.5q0 -15 -7 -18t-17 -3zM220 521q-11 0 -18 3t-7 19q0 13 8 15.5t16 2.5t16 -2.5t8 -15.5q0 -15 -7 -18.5
t-16 -3.5z" />
    <glyph glyph-name="Igrave" unicode="&#xcc;" horiz-adv-x="225" 
d="M95 0v218.5v219.5q0 7 0.5 11.5t4 7.5t9.5 3h21v-460h-35zM125 521l-97 66l21 20l96 -86h-20z" />
    <glyph glyph-name="Iacute" unicode="&#xcd;" horiz-adv-x="225" 
d="M95 0v218.5v219.5q0 7 0.5 11.5t4 7.5t9.5 3h21v-460h-35zM89 521l95 86l21 -20l-98 -66h-18z" />
    <glyph glyph-name="Icircumflex" unicode="&#xce;" horiz-adv-x="225" 
d="M95 0v218.5v219.5q0 7 0.5 11.5t4 7.5t9.5 3h21v-460h-35zM24 521l78 86h20l79 -86h-21l-68 65l-68 -65h-20z" />
    <glyph glyph-name="Idieresis" unicode="&#xcf;" horiz-adv-x="225" 
d="M95 0v218.5v219.5q0 7 0.5 11.5t4 7.5t9.5 3h21v-460h-35zM172 521q-8 0 -16.5 3t-8.5 18q0 14 8.5 16.5t15.5 2.5q8 0 16.5 -2.5t8.5 -16.5q0 -15 -7 -18t-17 -3zM53 521q-11 0 -18 3t-7 19q0 13 8 15.5t16 2.5t16 -2.5t8 -15.5q0 -15 -7 -18.5t-16 -3.5z" />
    <glyph glyph-name="Eth" unicode="&#xd0;" horiz-adv-x="576" 
d="M523 225q0 -87 -18 -133.5t-51.5 -66.5t-79.5 -24t-102 -4q-20 0 -47 0.5t-55 1t-49.5 1t-30.5 0.5v398q0 30 6 44.5t41 17.5q11 1 35 1.5t52.5 1t55 0.5t41.5 -1q47 -3 84.5 -9t64 -28.5t40 -69.5t13.5 -130zM125 24q6 0 26.5 -0.5t45.5 -1t48.5 -1t35.5 -0.5
q58 0 97.5 7.5t64 28.5t35 61.5t10.5 105.5q0 89 -18 135.5t-61 63t-121 16.5h-43t-57.5 -1t-42.5 -4q-10 -2 -15 -8t-5 -29v-373zM21 231h227v-20h-227v20z" />
    <glyph glyph-name="Ntilde" unicode="&#xd1;" horiz-adv-x="601" 
d="M95 0v426q0 24 2 29t16 5h25l337 -423l1 8v415h30q-1 -1 -1.5 -5.5t-0.5 -9.5v-11v-401q0 -23 -3 -28t-17 -5h-25l-336 424v-6v-418h-28zM346 519q-16 0 -31 8.5t-31 17t-31 8.5q-16 0 -26 -10t-14 -17l-12 9q1 3 4.5 9.5t10.5 14t16 13.5t23 6q16 0 31 -9l30 -18t29 -9
q20 0 30 12t13 20l12 -11q-1 -3 -4.5 -10t-9.5 -14.5t-16 -13.5t-24 -6z" />
    <glyph glyph-name="Ograve" unicode="&#xd2;" horiz-adv-x="572" 
d="M281 -7q-50 0 -91.5 8t-72.5 31.5t-48 71t-17 127.5q0 82 19 130t51.5 71t76.5 30t92 7q50 0 91.5 -8t72.5 -31.5t48 -71t17 -127.5q0 -82 -19 -130t-51.5 -71t-76 -30t-92.5 -7zM285 16q47 0 83.5 7.5t62.5 29.5t39.5 64.5t13.5 113.5q0 70 -13.5 113t-39.5 65
t-62.5 29.5t-83.5 7.5t-83.5 -7.5t-62 -29.5t-38.5 -65t-13 -113q0 -71 13 -113.5t38.5 -64.5t62 -29.5t83.5 -7.5zM298 521l-97 66l21 20l96 -86h-20z" />
    <glyph glyph-name="Oacute" unicode="&#xd3;" horiz-adv-x="572" 
d="M281 -7q-50 0 -91.5 8t-72.5 31.5t-48 71t-17 127.5q0 82 19 130t51.5 71t76.5 30t92 7q50 0 91.5 -8t72.5 -31.5t48 -71t17 -127.5q0 -82 -19 -130t-51.5 -71t-76 -30t-92.5 -7zM285 16q47 0 83.5 7.5t62.5 29.5t39.5 64.5t13.5 113.5q0 70 -13.5 113t-39.5 65
t-62.5 29.5t-83.5 7.5t-83.5 -7.5t-62 -29.5t-38.5 -65t-13 -113q0 -71 13 -113.5t38.5 -64.5t62 -29.5t83.5 -7.5zM263 521l95 86l21 -20l-98 -66h-18z" />
    <glyph glyph-name="Ocircumflex" unicode="&#xd4;" horiz-adv-x="572" 
d="M281 -7q-50 0 -91.5 8t-72.5 31.5t-48 71t-17 127.5q0 82 19 130t51.5 71t76.5 30t92 7q50 0 91.5 -8t72.5 -31.5t48 -71t17 -127.5q0 -82 -19 -130t-51.5 -71t-76 -30t-92.5 -7zM285 16q47 0 83.5 7.5t62.5 29.5t39.5 64.5t13.5 113.5q0 70 -13.5 113t-39.5 65
t-62.5 29.5t-83.5 7.5t-83.5 -7.5t-62 -29.5t-38.5 -65t-13 -113q0 -71 13 -113.5t38.5 -64.5t62 -29.5t83.5 -7.5zM197 521l78 86h20l79 -86h-21l-68 65l-68 -65h-20z" />
    <glyph glyph-name="Otilde" unicode="&#xd5;" horiz-adv-x="572" 
d="M281 -7q-50 0 -91.5 8t-72.5 31.5t-48 71t-17 127.5q0 82 19 130t51.5 71t76.5 30t92 7q50 0 91.5 -8t72.5 -31.5t48 -71t17 -127.5q0 -82 -19 -130t-51.5 -71t-76 -30t-92.5 -7zM285 16q47 0 83.5 7.5t62.5 29.5t39.5 64.5t13.5 113.5q0 70 -13.5 113t-39.5 65
t-62.5 29.5t-83.5 7.5t-83.5 -7.5t-62 -29.5t-38.5 -65t-13 -113q0 -71 13 -113.5t38.5 -64.5t62 -29.5t83.5 -7.5zM331 519q-16 0 -31 8.5t-31 17t-31 8.5q-16 0 -26 -10t-14 -17l-12 9q1 3 4.5 9.5t10.5 14t16 13.5t23 6q16 0 31 -9l30 -18t29 -9q20 0 30 12t13 20l12 -11
q-1 -3 -4.5 -10t-9.5 -14.5t-16 -13.5t-24 -6z" />
    <glyph glyph-name="Odieresis" unicode="&#xd6;" horiz-adv-x="572" 
d="M281 -7q-50 0 -91.5 8t-72.5 31.5t-48 71t-17 127.5q0 82 19 130t51.5 71t76.5 30t92 7q50 0 91.5 -8t72.5 -31.5t48 -71t17 -127.5q0 -82 -19 -130t-51.5 -71t-76 -30t-92.5 -7zM285 16q47 0 83.5 7.5t62.5 29.5t39.5 64.5t13.5 113.5q0 70 -13.5 113t-39.5 65
t-62.5 29.5t-83.5 7.5t-83.5 -7.5t-62 -29.5t-38.5 -65t-13 -113q0 -71 13 -113.5t38.5 -64.5t62 -29.5t83.5 -7.5zM345 521q-8 0 -16.5 3t-8.5 18q0 14 8.5 16.5t15.5 2.5q8 0 16.5 -2.5t8.5 -16.5q0 -15 -7 -18t-17 -3zM226 521q-11 0 -18 3t-7 19q0 13 8 15.5t16 2.5
t16 -2.5t8 -15.5q0 -15 -7 -18.5t-16 -3.5z" />
    <glyph glyph-name="multiply" unicode="&#xd7;" horiz-adv-x="376" 
d="M170 198l-132 149l19 16l131 -147l134 146l19 -17l-136 -147l122 -134l-21 -19l-119 135l-125 -137l-18 17z" />
    <glyph glyph-name="Oslash" unicode="&#xd8;" horiz-adv-x="546" 
d="M40 231q0 83 19.5 131t53 71t76.5 29.5t90 6.5q48 0 89 -7.5t72.5 -30.5t49 -71t17.5 -129q0 -83 -19.5 -131t-53.5 -71t-77 -29.5t-90 -6.5q-48 0 -89.5 7.5t-72 30.5t-48 71t-17.5 129zM471 230q0 71 -13.5 114t-39.5 65t-62.5 29.5t-83.5 7.5q-46 0 -82.5 -7.5
t-62 -29.5t-38.5 -65t-13 -114q0 -70 13 -113t38.5 -64.5t62 -29t82.5 -7.5q47 0 83.5 7.5t62.5 29t39.5 64.5t13.5 113zM125 -82l233 607h21l-235 -607h-19z" />
    <glyph glyph-name="Ugrave" unicode="&#xd9;" horiz-adv-x="562" 
d="M477 182q0 -35 -3 -68.5t-21 -59.5t-58.5 -41.5t-116.5 -15.5q-57 0 -94 10t-57 28t-29 40.5t-11 49.5t-2 54v257q0 10 0.5 15t4.5 7t11 2h19v-317q0 -45 16 -71.5t51 -38t92 -11.5q86 0 124.5 28.5t38.5 93.5v316h18q8 0 12 -2t4.5 -7t0.5 -15v-254zM293 521l-97 66
l21 20l96 -86h-20z" />
    <glyph glyph-name="Uacute" unicode="&#xda;" horiz-adv-x="562" 
d="M477 182q0 -35 -3 -68.5t-21 -59.5t-58.5 -41.5t-116.5 -15.5q-57 0 -94 10t-57 28t-29 40.5t-11 49.5t-2 54v257q0 10 0.5 15t4.5 7t11 2h19v-317q0 -45 16 -71.5t51 -38t92 -11.5q86 0 124.5 28.5t38.5 93.5v316h18q8 0 12 -2t4.5 -7t0.5 -15v-254zM258 521l95 86
l21 -20l-98 -66h-18z" />
    <glyph glyph-name="Ucircumflex" unicode="&#xdb;" horiz-adv-x="562" 
d="M477 182q0 -35 -3 -68.5t-21 -59.5t-58.5 -41.5t-116.5 -15.5q-57 0 -94 10t-57 28t-29 40.5t-11 49.5t-2 54v257q0 10 0.5 15t4.5 7t11 2h19v-317q0 -45 16 -71.5t51 -38t92 -11.5q86 0 124.5 28.5t38.5 93.5v316h18q8 0 12 -2t4.5 -7t0.5 -15v-254zM192 521l78 86h20
l79 -86h-21l-68 65l-68 -65h-20z" />
    <glyph glyph-name="Udieresis" unicode="&#xdc;" horiz-adv-x="562" 
d="M477 182q0 -35 -3 -68.5t-21 -59.5t-58.5 -41.5t-116.5 -15.5q-57 0 -94 10t-57 28t-29 40.5t-11 49.5t-2 54v257q0 10 0.5 15t4.5 7t11 2h19v-317q0 -45 16 -71.5t51 -38t92 -11.5q86 0 124.5 28.5t38.5 93.5v316h18q8 0 12 -2t4.5 -7t0.5 -15v-254zM340 521
q-8 0 -16.5 3t-8.5 18q0 14 8.5 16.5t15.5 2.5q8 0 16.5 -2.5t8.5 -16.5q0 -15 -7 -18t-17 -3zM221 521q-11 0 -18 3t-7 19q0 13 8 15.5t16 2.5t16 -2.5t8 -15.5q0 -15 -7 -18.5t-16 -3.5z" />
    <glyph glyph-name="Yacute" unicode="&#xdd;" horiz-adv-x="421" 
d="M190 0v189l-155 246l-17 25h42l152 -244l159 244h32l-19 -27l-159 -244v-166q0 -7 -1 -12.5t-4.5 -8t-10.5 -2.5h-19zM199 521l95 86l21 -20l-98 -66h-18z" />
    <glyph glyph-name="Thorn" unicode="&#xde;" horiz-adv-x="469" 
d="M40 458q0 24 2.5 34t13.5 10h16v-92h219q46 0 72 -15t36.5 -45.5t10.5 -78.5q0 -47 -13 -79t-41.5 -48.5t-75.5 -16.5h-208v-127h-32v458zM72 390v-243h219q23 0 43.5 9.5t33 36.5t12.5 79q0 50 -13 75.5t-35 34t-45 8.5h-215z" />
    <glyph glyph-name="germandbls" unicode="&#xdf;" horiz-adv-x="604" 
d="M19 -143q3 -1 7.5 -3t12.5 -3t18 -1q24 0 39 12.5t15 50.5v85v83v82v83v85h-17h-24.5h-17.5v5.5v6.5v9h17.5h24.5h17v58q1 37 23.5 58t57 29.5t68.5 8.5q31 0 58 -3.5t46.5 -13.5t29 -30.5t5.5 -53.5q-1 -12 -6 -17t-12 -5h-14q-26 0 -52 -2.5t-48.5 -11t-35.5 -27
t-13 -52.5q0 -33 14 -48.5t39 -20t56 -4.5h45.5h43.5q36 0 63.5 -6.5t43 -28t15.5 -66.5q0 -50 -26 -76.5t-70.5 -35.5t-98.5 -9q-13 0 -38 1t-51 4.5t-44.5 10.5t-19.5 19l-1 13q17 -12 43.5 -18t55.5 -7.5t49 -1.5q51 0 89 7t60 28.5t22 65.5q0 50 -25 63.5t-71 13.5
h-30.5h-31h-31.5q-31 0 -61.5 5t-50.5 24.5t-20 64.5q0 53 26.5 76.5t68.5 30t91 6.5q7 38 -8.5 56.5t-43.5 24.5t-59 6q-27 0 -54.5 -7t-46.5 -27t-19 -58v-483q0 -17 -3 -30t-9.5 -22.5t-15.5 -15t-19.5 -8.5t-23.5 -3q-8 0 -20.5 0.5t-22 6t-9.5 16.5z" />
    <glyph glyph-name="agrave" unicode="&#xe0;" horiz-adv-x="459" 
d="M219 -8q-53 0 -87 7t-52.5 22t-25.5 39t-7 58q0 51 13 78t45 37t87 10q25 0 53 -1.5t54 -3.5t44.5 -4.5t24.5 -4.5q1 53 -8.5 84t-28 45.5t-45.5 19t-60 4.5t-65.5 -3t-58.5 -9.5t-36 -18.5v9q0 18 13.5 24.5t26.5 9.5q17 5 49.5 8t65.5 3q43 0 76 -4.5t56 -20.5
t34.5 -48t11.5 -87l1 -210q-1 -22 -40.5 -32.5t-140.5 -10.5zM219 13q55 0 86.5 3t45.5 10t18 16l-1 166q-8 4 -34.5 7t-57 6t-53.5 3q-52 0 -83.5 -5.5t-45.5 -27.5t-14 -71q0 -37 9 -60.5t39 -35t91 -11.5zM222 460l-102 84l21 21l101 -105h-20z" />
    <glyph glyph-name="aacute" unicode="&#xe1;" horiz-adv-x="459" 
d="M219 -8q-53 0 -87 7t-52.5 22t-25.5 39t-7 58q0 51 13 78t45 37t87 10q25 0 53 -1.5t54 -3.5t44.5 -4.5t24.5 -4.5q1 53 -8.5 84t-28 45.5t-45.5 19t-60 4.5t-65.5 -3t-58.5 -9.5t-36 -18.5v9q0 18 13.5 24.5t26.5 9.5q17 5 49.5 8t65.5 3q43 0 76 -4.5t56 -20.5
t34.5 -48t11.5 -87l1 -210q-1 -22 -40.5 -32.5t-140.5 -10.5zM219 13q55 0 86.5 3t45.5 10t18 16l-1 166q-8 4 -34.5 7t-57 6t-53.5 3q-52 0 -83.5 -5.5t-45.5 -27.5t-14 -71q0 -37 9 -60.5t39 -35t91 -11.5zM204 460l100 105l22 -21l-104 -84h-18z" />
    <glyph glyph-name="acircumflex" unicode="&#xe2;" horiz-adv-x="459" 
d="M219 -8q-53 0 -87 7t-52.5 22t-25.5 39t-7 58q0 51 13 78t45 37t87 10q25 0 53 -1.5t54 -3.5t44.5 -4.5t24.5 -4.5q1 53 -8.5 84t-28 45.5t-45.5 19t-60 4.5t-65.5 -3t-58.5 -9.5t-36 -18.5v9q0 18 13.5 24.5t26.5 9.5q17 5 49.5 8t65.5 3q43 0 76 -4.5t56 -20.5
t34.5 -48t11.5 -87l1 -210q-1 -22 -40.5 -32.5t-140.5 -10.5zM219 13q55 0 86.5 3t45.5 10t18 16l-1 166q-8 4 -34.5 7t-57 6t-53.5 3q-52 0 -83.5 -5.5t-45.5 -27.5t-14 -71q0 -37 9 -60.5t39 -35t91 -11.5zM133 460l80 105h19l80 -105h-20l-70 83l-69 -83h-20z" />
    <glyph glyph-name="atilde" unicode="&#xe3;" horiz-adv-x="459" 
d="M219 -8q-53 0 -87 7t-52.5 22t-25.5 39t-7 58q0 51 13 78t45 37t87 10q25 0 53 -1.5t54 -3.5t44.5 -4.5t24.5 -4.5q1 53 -8.5 84t-28 45.5t-45.5 19t-60 4.5t-65.5 -3t-58.5 -9.5t-36 -18.5v9q0 18 13.5 24.5t26.5 9.5q17 5 49.5 8t65.5 3q43 0 76 -4.5t56 -20.5
t34.5 -48t11.5 -87l1 -210q-1 -22 -40.5 -32.5t-140.5 -10.5zM219 13q55 0 86.5 3t45.5 10t18 16l-1 166q-8 4 -34.5 7t-57 6t-53.5 3q-52 0 -83.5 -5.5t-45.5 -27.5t-14 -71q0 -37 9 -60.5t39 -35t91 -11.5zM268 457q-16 0 -31 9t-31 17.5t-31 8.5q-16 0 -24 -11t-12 -19
l-14 8q2 4 5 11t9.5 15t15 13.5t22.5 5.5q16 0 31.5 -9t30 -17.5t28.5 -8.5q21 0 30.5 12t12.5 19l14 -8q-2 -4 -5.5 -11.5t-10 -15.5t-16.5 -13.5t-24 -5.5z" />
    <glyph glyph-name="adieresis" unicode="&#xe4;" horiz-adv-x="459" 
d="M219 -8q-53 0 -87 7t-52.5 22t-25.5 39t-7 58q0 51 13 78t45 37t87 10q25 0 53 -1.5t54 -3.5t44.5 -4.5t24.5 -4.5q1 53 -8.5 84t-28 45.5t-45.5 19t-60 4.5t-65.5 -3t-58.5 -9.5t-36 -18.5v9q0 18 13.5 24.5t26.5 9.5q17 5 49.5 8t65.5 3q43 0 76 -4.5t56 -20.5
t34.5 -48t11.5 -87l1 -210q-1 -22 -40.5 -32.5t-140.5 -10.5zM219 13q55 0 86.5 3t45.5 10t18 16l-1 166q-8 4 -34.5 7t-57 6t-53.5 3q-52 0 -83.5 -5.5t-45.5 -27.5t-14 -71q0 -37 9 -60.5t39 -35t91 -11.5zM282 460q-8 0 -16.5 3t-8.5 18q0 14 8.5 16.5t15.5 2.5
q8 0 16.5 -2.5t8.5 -16.5q0 -15 -7 -18t-17 -3zM163 460q-11 0 -18 3t-7 19q0 13 8 15.5t16 2.5t16 -2.5t8 -15.5q0 -15 -7 -18.5t-16 -3.5z" />
    <glyph glyph-name="aring" unicode="&#xe5;" horiz-adv-x="459" 
d="M219 -8q-53 0 -87 7t-52.5 22t-25.5 39t-7 58q0 51 13 78t45 37t87 10q25 0 53 -1.5t54 -3.5t44.5 -4.5t24.5 -4.5q1 53 -8.5 84t-28 45.5t-45.5 19t-60 4.5t-65.5 -3t-58.5 -9.5t-36 -18.5v9q0 18 13.5 24.5t26.5 9.5q17 5 49.5 8t65.5 3q43 0 76 -4.5t56 -20.5
t34.5 -48t11.5 -87l1 -210q-1 -22 -40.5 -32.5t-140.5 -10.5zM219 13q55 0 86.5 3t45.5 10t18 16l-1 166q-8 4 -34.5 7t-57 6t-53.5 3q-52 0 -83.5 -5.5t-45.5 -27.5t-14 -71q0 -37 9 -60.5t39 -35t91 -11.5zM215 460q-38 0 -50.5 12.5t-12.5 40.5q0 27 12.5 39.5t50.5 12.5
q39 0 51 -12.5t12 -39.5q0 -28 -12.5 -40.5t-50.5 -12.5zM215 476q20 0 31 6.5t11 30.5t-11 30.5t-31 6.5q-19 0 -30.5 -6.5t-11.5 -30.5t11 -30.5t31 -6.5z" />
    <glyph glyph-name="ae" unicode="&#xe6;" horiz-adv-x="790" 
d="M219 -8q-53 0 -87 7t-52.5 22t-25.5 39t-7 58q0 51 13 78t45 37t87 10q25 0 53 -1.5t54 -3.5t44.5 -4.5t24.5 -4.5q1 53 -8.5 84t-28 45.5t-45.5 19t-60 4.5t-65.5 -3t-58.5 -9.5t-36 -18.5v9q0 18 13.5 24.5t26.5 9.5q17 5 49.5 8t65.5 3q43 0 76 -4.5t56 -20.5
t34.5 -48t11.5 -87l1 -210q-1 -22 -40.5 -32.5t-140.5 -10.5zM219 13q55 0 86.5 3t45.5 10t18 16l-1 166q-8 4 -34.5 7t-57 6t-53.5 3q-52 0 -83.5 -5.5t-45.5 -27.5t-14 -71q0 -37 9 -60.5t39 -35t91 -11.5zM568 -7q-52 0 -89 8.5t-59.5 31t-32.5 62.5t-10 104
q0 70 16 115.5t58 68t117 22.5q59 0 95 -17t52 -53.5t16 -92.5v-48h-284q0 8 4 14t16 6h234l-1 32q-2 71 -31.5 103t-100.5 32q-60 0 -95 -18.5t-49.5 -58t-14.5 -105.5q0 -74 15.5 -113.5t51 -54t95.5 -14.5q19 0 41.5 1.5t44.5 4.5t40 7t27 8v-9q0 -7 -5.5 -13t-25.5 -11
q-24 -6 -56.5 -9t-68.5 -3z" />
    <glyph glyph-name="ccedilla" unicode="&#xe7;" horiz-adv-x="417" 
d="M251 -5q-72 0 -117 16t-64.5 60t-19.5 128q0 85 19.5 129t64.5 60.5t117 16.5q26 0 48 -2t48 -7q15 -2 23.5 -6.5t11.5 -10.5t3 -18q-12 6 -35.5 11t-49.5 7.5t-46 2.5q-64 0 -101.5 -17.5t-53 -57t-15.5 -107.5t15 -108t52 -56.5t103 -16.5q30 0 55 2.5t44.5 7.5
t31.5 11v-13q0 -10 -16.5 -17t-46 -11t-71.5 -4zM221 -185q-24 0 -34.5 3.5t-10.5 13.5h23.5h44.5q30 0 40 9t10 28q0 26 -8.5 33.5t-45.5 7.5h-31q-5 0 -12.5 0.5t-13 1t-9.5 1.5q2 3 11.5 14.5t22 26.5t23 28.5t15.5 19.5h14l-55 -78q47 3 71.5 0.5t32.5 -15t8 -40.5
t-13 -39t-35 -13t-48 -2z" />
    <glyph glyph-name="egrave" unicode="&#xe8;" horiz-adv-x="442" 
d="M241 -7q-52 0 -89 8.5t-59.5 31t-32.5 62.5t-10 104q0 70 16 115.5t58 68t117 22.5q59 0 95 -17t52 -53.5t16 -92.5v-48h-284q0 8 4 14t16 6h234l-1 32q-2 71 -31.5 103t-100.5 32q-60 0 -95 -18.5t-49.5 -58t-14.5 -105.5q0 -74 15.5 -113.5t51 -54t95.5 -14.5
q19 0 41.5 1.5t44.5 4.5t40 7t27 8v-9q0 -7 -5.5 -13t-25.5 -11q-24 -6 -56.5 -9t-68.5 -3zM229 460l-102 84l21 21l101 -105h-20z" />
    <glyph glyph-name="eacute" unicode="&#xe9;" horiz-adv-x="442" 
d="M241 -7q-52 0 -89 8.5t-59.5 31t-32.5 62.5t-10 104q0 70 16 115.5t58 68t117 22.5q59 0 95 -17t52 -53.5t16 -92.5v-48h-284q0 8 4 14t16 6h234l-1 32q-2 71 -31.5 103t-100.5 32q-60 0 -95 -18.5t-49.5 -58t-14.5 -105.5q0 -74 15.5 -113.5t51 -54t95.5 -14.5
q19 0 41.5 1.5t44.5 4.5t40 7t27 8v-9q0 -7 -5.5 -13t-25.5 -11q-24 -6 -56.5 -9t-68.5 -3zM210 460l100 105l22 -21l-104 -84h-18z" />
    <glyph glyph-name="ecircumflex" unicode="&#xea;" horiz-adv-x="442" 
d="M241 -7q-52 0 -89 8.5t-59.5 31t-32.5 62.5t-10 104q0 70 16 115.5t58 68t117 22.5q59 0 95 -17t52 -53.5t16 -92.5v-48h-284q0 8 4 14t16 6h234l-1 32q-2 71 -31.5 103t-100.5 32q-60 0 -95 -18.5t-49.5 -58t-14.5 -105.5q0 -74 15.5 -113.5t51 -54t95.5 -14.5
q19 0 41.5 1.5t44.5 4.5t40 7t27 8v-9q0 -7 -5.5 -13t-25.5 -11q-24 -6 -56.5 -9t-68.5 -3zM139 460l80 105h19l80 -105h-20l-70 83l-69 -83h-20z" />
    <glyph glyph-name="edieresis" unicode="&#xeb;" horiz-adv-x="442" 
d="M241 -7q-52 0 -89 8.5t-59.5 31t-32.5 62.5t-10 104q0 70 16 115.5t58 68t117 22.5q59 0 95 -17t52 -53.5t16 -92.5v-48h-284q0 8 4 14t16 6h234l-1 32q-2 71 -31.5 103t-100.5 32q-60 0 -95 -18.5t-49.5 -58t-14.5 -105.5q0 -74 15.5 -113.5t51 -54t95.5 -14.5
q19 0 41.5 1.5t44.5 4.5t40 7t27 8v-9q0 -7 -5.5 -13t-25.5 -11q-24 -6 -56.5 -9t-68.5 -3zM289 460q-8 0 -16.5 3t-8.5 18q0 14 8.5 16.5t15.5 2.5q8 0 16.5 -2.5t8.5 -16.5q0 -15 -7 -18t-17 -3zM170 460q-11 0 -18 3t-7 19q0 13 8 15.5t16 2.5t16 -2.5t8 -15.5
q0 -15 -7 -18.5t-16 -3.5z" />
    <glyph glyph-name="igrave" unicode="&#xec;" horiz-adv-x="179" 
d="M121 -3q-37 0 -48.5 24t-11.5 67v311h32v-308q0 -45 9 -59.5t33 -14.5q7 0 19.5 1.5t16.5 3.5v-20q-3 -1 -10.5 -2t-17.5 -2t-22 -1zM64 460l-102 84l21 21l101 -105h-20z" />
    <glyph glyph-name="iacute" unicode="&#xed;" horiz-adv-x="179" 
d="M121 -3q-37 0 -48.5 24t-11.5 67v311h32v-308q0 -45 9 -59.5t33 -14.5q7 0 19.5 1.5t16.5 3.5v-20q-3 -1 -10.5 -2t-17.5 -2t-22 -1zM46 460l100 105l22 -21l-104 -84h-18z" />
    <glyph glyph-name="icircumflex" unicode="&#xee;" horiz-adv-x="179" 
d="M121 -3q-37 0 -48.5 24t-11.5 67v311h32v-308q0 -45 9 -59.5t33 -14.5q7 0 19.5 1.5t16.5 3.5v-20q-3 -1 -10.5 -2t-17.5 -2t-22 -1zM-25 460l80 105h19l80 -105h-20l-70 83l-69 -83h-20z" />
    <glyph glyph-name="idieresis" unicode="&#xef;" horiz-adv-x="179" 
d="M121 -3q-37 0 -48.5 24t-11.5 67v311h32v-308q0 -45 9 -59.5t33 -14.5q7 0 19.5 1.5t16.5 3.5v-20q-3 -1 -10.5 -2t-17.5 -2t-22 -1zM125 460q-8 0 -16.5 3t-8.5 18q0 14 8.5 16.5t15.5 2.5q8 0 16.5 -2.5t8.5 -16.5q0 -15 -7 -18t-17 -3zM6 460q-11 0 -18 3t-7 19
q0 13 8 15.5t16 2.5t16 -2.5t8 -15.5q0 -15 -7 -18.5t-16 -3.5z" />
    <glyph glyph-name="eth" unicode="&#xf0;" horiz-adv-x="437" 
d="M95 484l165 120l12 -17l-165 -120zM35 198q0 71 14.5 111.5t40.5 60t58.5 25.5t68.5 6h23t22 -2q-22 31 -45 63t-44.5 61.5t-38.5 53t-26 36.5q3 3 6.5 6l7 6t6.5 6t5 4q38 -50 72.5 -98t67.5 -94.5t64.5 -93t62.5 -92.5v-18.5v-20.5v-19q0 -71 -14 -112.5t-39.5 -61
t-59.5 -25t-73 -5.5q-38 0 -71 6t-57 26.5t-37.5 61t-13.5 109.5zM367 242q-9 16 -19 30.5t-21 29.5q-13 19 -26.5 38.5t-26.5 37.5q-13 2 -27.5 3t-29.5 1q-47 0 -80.5 -12.5t-50.5 -51.5t-17 -120q0 -80 17 -118.5t50.5 -51t80.5 -12.5q48 0 81.5 12.5t51 51t17.5 118.5
v14.5v15v14.5z" />
    <glyph glyph-name="ntilde" unicode="&#xf1;" horiz-adv-x="459" 
d="M83 0q-16 0 -16 16v352q29 14 70.5 24.5t98.5 10.5q50 0 81.5 -7t49 -21t24 -35.5t6.5 -50.5v-272q0 -5 -1.5 -9.5t-6 -6t-10.5 -1.5h-14v292q0 44 -29 65.5t-100 21.5q-22 0 -48.5 -3.5t-50.5 -9.5t-38 -17v-349h-16zM277 457q-16 0 -31 9t-31 17.5t-31 8.5
q-16 0 -24 -11t-12 -19l-14 8q2 4 5 11t9.5 15t15 13.5t22.5 5.5q16 0 31.5 -9t30 -17.5t28.5 -8.5q21 0 30.5 12t12.5 19l14 -8q-2 -4 -5.5 -11.5t-10 -15.5t-16.5 -13.5t-24 -5.5z" />
    <glyph glyph-name="ograve" unicode="&#xf2;" horiz-adv-x="465" 
d="M233 -5q-40 0 -73 6t-58 26.5t-38.5 61.5t-13.5 110t13.5 110t38.5 61.5t58 26.5t73 6q39 0 72.5 -6t58.5 -26.5t38.5 -61.5t13.5 -110q0 -70 -13.5 -111t-38.5 -61t-58.5 -26t-72.5 -6zM233 17q46 0 80 12.5t51.5 51t17.5 118.5t-17.5 118.5t-51.5 51t-80 12.5
t-79.5 -12.5t-52 -51t-18.5 -118.5t18.5 -118.5t52 -51t79.5 -12.5zM232 460l-102 84l21 21l101 -105h-20z" />
    <glyph glyph-name="oacute" unicode="&#xf3;" horiz-adv-x="465" 
d="M233 -5q-40 0 -73 6t-58 26.5t-38.5 61.5t-13.5 110t13.5 110t38.5 61.5t58 26.5t73 6q39 0 72.5 -6t58.5 -26.5t38.5 -61.5t13.5 -110q0 -70 -13.5 -111t-38.5 -61t-58.5 -26t-72.5 -6zM233 17q46 0 80 12.5t51.5 51t17.5 118.5t-17.5 118.5t-51.5 51t-80 12.5
t-79.5 -12.5t-52 -51t-18.5 -118.5t18.5 -118.5t52 -51t79.5 -12.5zM214 460l100 105l22 -21l-104 -84h-18z" />
    <glyph glyph-name="ocircumflex" unicode="&#xf4;" horiz-adv-x="465" 
d="M233 -5q-40 0 -73 6t-58 26.5t-38.5 61.5t-13.5 110t13.5 110t38.5 61.5t58 26.5t73 6q39 0 72.5 -6t58.5 -26.5t38.5 -61.5t13.5 -110q0 -70 -13.5 -111t-38.5 -61t-58.5 -26t-72.5 -6zM233 17q46 0 80 12.5t51.5 51t17.5 118.5t-17.5 118.5t-51.5 51t-80 12.5
t-79.5 -12.5t-52 -51t-18.5 -118.5t18.5 -118.5t52 -51t79.5 -12.5zM143 460l80 105h19l80 -105h-20l-70 83l-69 -83h-20z" />
    <glyph glyph-name="otilde" unicode="&#xf5;" horiz-adv-x="465" 
d="M233 -5q-40 0 -73 6t-58 26.5t-38.5 61.5t-13.5 110t13.5 110t38.5 61.5t58 26.5t73 6q39 0 72.5 -6t58.5 -26.5t38.5 -61.5t13.5 -110q0 -70 -13.5 -111t-38.5 -61t-58.5 -26t-72.5 -6zM233 17q46 0 80 12.5t51.5 51t17.5 118.5t-17.5 118.5t-51.5 51t-80 12.5
t-79.5 -12.5t-52 -51t-18.5 -118.5t18.5 -118.5t52 -51t79.5 -12.5zM278 457q-16 0 -31 9t-31 17.5t-31 8.5q-16 0 -24 -11t-12 -19l-14 8q2 4 5 11t9.5 15t15 13.5t22.5 5.5q16 0 31.5 -9t30 -17.5t28.5 -8.5q21 0 30.5 12t12.5 19l14 -8q-2 -4 -5.5 -11.5t-10 -15.5
t-16.5 -13.5t-24 -5.5z" />
    <glyph glyph-name="odieresis" unicode="&#xf6;" horiz-adv-x="465" 
d="M233 -5q-40 0 -73 6t-58 26.5t-38.5 61.5t-13.5 110t13.5 110t38.5 61.5t58 26.5t73 6q39 0 72.5 -6t58.5 -26.5t38.5 -61.5t13.5 -110q0 -70 -13.5 -111t-38.5 -61t-58.5 -26t-72.5 -6zM233 17q46 0 80 12.5t51.5 51t17.5 118.5t-17.5 118.5t-51.5 51t-80 12.5
t-79.5 -12.5t-52 -51t-18.5 -118.5t18.5 -118.5t52 -51t79.5 -12.5zM292 460q-8 0 -16.5 3t-8.5 18q0 14 8.5 16.5t15.5 2.5q8 0 16.5 -2.5t8.5 -16.5q0 -15 -7 -18t-17 -3zM173 460q-11 0 -18 3t-7 19q0 13 8 15.5t16 2.5t16 -2.5t8 -15.5q0 -15 -7 -18.5t-16 -3.5z" />
    <glyph glyph-name="divide" unicode="&#xf7;" horiz-adv-x="418" 
d="M52 202h305v-23h-305v23zM184 34q0 13 7 16.5t15 3.5q9 0 15.5 -3.5t6.5 -16.5q0 -8 -3.5 -12t-8 -5t-9.5 -1t-10 1t-9 5t-4 12zM183 330q0 13 7 16.5t15 3.5q9 0 15.5 -3t6.5 -17q0 -8 -3 -12t-8 -5t-10 -1t-10 1t-9 5t-4 12z" />
    <glyph glyph-name="oslash" unicode="&#xf8;" horiz-adv-x="465" 
d="M108 -65l208 534h22l-209 -534h-21zM233 -5q-40 0 -73 6t-58 26.5t-38.5 61.5t-13.5 110t13.5 110t38.5 61.5t58 26.5t73 6q39 0 72.5 -6t58.5 -26.5t38.5 -61.5t13.5 -110q0 -70 -13.5 -111t-38.5 -61t-58.5 -26t-72.5 -6zM233 17q46 0 80 12.5t51.5 51t17.5 118.5
t-17.5 118.5t-51.5 51t-80 12.5t-79.5 -12.5t-52 -51t-18.5 -118.5t18.5 -118.5t52 -51t79.5 -12.5z" />
    <glyph glyph-name="ugrave" unicode="&#xf9;" horiz-adv-x="454" 
d="M89 399v-276q0 -58 34 -81t102 -23q74 0 107 24.5t33 79.5v276h3h4.5h4.5h3q8 0 11.5 -1.5t4.5 -5.5t1 -13v-245q0 -45 -14 -76t-51 -46.5t-107 -15.5q-62 0 -99 13.5t-53 43t-16 79.5v247q0 12 3.5 16t12.5 4h8h8zM228 460l-102 84l21 21l101 -105h-20z" />
    <glyph glyph-name="uacute" unicode="&#xfa;" horiz-adv-x="454" 
d="M89 399v-276q0 -58 34 -81t102 -23q74 0 107 24.5t33 79.5v276h3h4.5h4.5h3q8 0 11.5 -1.5t4.5 -5.5t1 -13v-245q0 -45 -14 -76t-51 -46.5t-107 -15.5q-62 0 -99 13.5t-53 43t-16 79.5v247q0 12 3.5 16t12.5 4h8h8zM209 460l100 105l22 -21l-104 -84h-18z" />
    <glyph glyph-name="ucircumflex" unicode="&#xfb;" horiz-adv-x="454" 
d="M89 399v-276q0 -58 34 -81t102 -23q74 0 107 24.5t33 79.5v276h3h4.5h4.5h3q8 0 11.5 -1.5t4.5 -5.5t1 -13v-245q0 -45 -14 -76t-51 -46.5t-107 -15.5q-62 0 -99 13.5t-53 43t-16 79.5v247q0 12 3.5 16t12.5 4h8h8zM138 460l80 105h19l80 -105h-20l-70 83l-69 -83h-20z
" />
    <glyph glyph-name="udieresis" unicode="&#xfc;" horiz-adv-x="454" 
d="M89 399v-276q0 -58 34 -81t102 -23q74 0 107 24.5t33 79.5v276h3h4.5h4.5h3q8 0 11.5 -1.5t4.5 -5.5t1 -13v-245q0 -45 -14 -76t-51 -46.5t-107 -15.5q-62 0 -99 13.5t-53 43t-16 79.5v247q0 12 3.5 16t12.5 4h8h8zM288 460q-8 0 -16.5 3t-8.5 18q0 14 8.5 16.5t15.5 2.5
q8 0 16.5 -2.5t8.5 -16.5q0 -15 -7 -18t-17 -3zM169 460q-11 0 -18 3t-7 19q0 13 8 15.5t16 2.5t16 -2.5t8 -15.5q0 -15 -7 -18.5t-16 -3.5z" />
    <glyph glyph-name="yacute" unicode="&#xfd;" horiz-adv-x="450" 
d="M219 -111q-39 0 -74.5 4.5t-58 12t-22.5 16.5v15q16 -9 41 -15t53 -9.5t56 -3.5q48 0 80.5 14.5t49.5 46t17 79.5v61q-8 -20 -28 -35t-50 -22t-68 -7q-73 0 -107.5 20t-44 57t-9.5 86v157q0 15 1 22t4 9t10 2h18v-51.5v-50.5v-50.5v-51.5q0 -57 19.5 -84t51 -34.5
t66.5 -7.5q36 0 67 9t50.5 34t19.5 73v214h15q11 0 14 -3t3 -21v-319q0 -88 -43 -127.5t-131 -39.5zM206 460l100 105l22 -21l-104 -84h-18z" />
    <glyph glyph-name="thorn" unicode="&#xfe;" horiz-adv-x="427" 
d="M41 -108v584q0 17 3.5 21.5t11.5 4.5h18v-136q16 4 36.5 6.5t37.5 3.5t24 1q51 0 89 -5.5t65 -23.5t40.5 -54t13.5 -96t-13.5 -95t-40 -52t-66 -22.5t-91.5 -5.5q-11 0 -41 1.5t-54 7.5v-140h-33zM347 198q0 69 -18.5 103t-58 46t-104.5 12q-25 0 -52 -3t-40 -8v-296
q19 -3 43.5 -6t50.5 -3q65 0 104 10t57 43t18 102z" />
    <glyph glyph-name="ydieresis" unicode="&#xff;" horiz-adv-x="450" 
d="M219 -111q-39 0 -74.5 4.5t-58 12t-22.5 16.5v15q16 -9 41 -15t53 -9.5t56 -3.5q48 0 80.5 14.5t49.5 46t17 79.5v61q-8 -20 -28 -35t-50 -22t-68 -7q-73 0 -107.5 20t-44 57t-9.5 86v157q0 15 1 22t4 9t10 2h18v-51.5v-50.5v-50.5v-51.5q0 -57 19.5 -84t51 -34.5
t66.5 -7.5q36 0 67 9t50.5 34t19.5 73v214h15q11 0 14 -3t3 -21v-319q0 -88 -43 -127.5t-131 -39.5zM285 460q-8 0 -16.5 3t-8.5 18q0 14 8.5 16.5t15.5 2.5q8 0 16.5 -2.5t8.5 -16.5q0 -15 -7 -18t-17 -3zM166 460q-11 0 -18 3t-7 19q0 13 8 15.5t16 2.5t16 -2.5t8 -15.5
q0 -15 -7 -18.5t-16 -3.5z" />
    <glyph glyph-name="Amacron" unicode="&#x100;" horiz-adv-x="469" 
d="M23 0l121 398q10 32 27 49t61 17q43 0 60 -15.5t27 -50.5l125 -398h-37l-43 138h-270l-42 -138h-29zM101 160h256l-71 230q-6 18 -16 32t-41 14q-34 0 -44.5 -14.5t-15.5 -31.5zM132 522v17h203v-17h-203z" />
    <glyph glyph-name="amacron" unicode="&#x101;" horiz-adv-x="459" 
d="M219 -8q-53 0 -87 7t-52.5 22t-25.5 39t-7 58q0 51 13 78t45 37t87 10q25 0 53 -1.5t54 -3.5t44.5 -4.5t24.5 -4.5q1 53 -8.5 84t-28 45.5t-45.5 19t-60 4.5t-65.5 -3t-58.5 -9.5t-36 -18.5v9q0 18 13.5 24.5t26.5 9.5q17 5 49.5 8t65.5 3q43 0 76 -4.5t56 -20.5
t34.5 -48t11.5 -87l1 -210q-1 -22 -40.5 -32.5t-140.5 -10.5zM219 13q55 0 86.5 3t45.5 10t18 16l-1 166q-8 4 -34.5 7t-57 6t-53.5 3q-52 0 -83.5 -5.5t-45.5 -27.5t-14 -71q0 -37 9 -60.5t39 -35t91 -11.5zM125 461v21h196v-21h-196z" />
    <glyph glyph-name="Abreve" unicode="&#x102;" horiz-adv-x="469" 
d="M23 0l121 398q10 32 27 49t61 17q43 0 60 -15.5t27 -50.5l125 -398h-37l-43 138h-270l-42 -138h-29zM101 160h256l-71 230q-6 18 -16 32t-41 14q-34 0 -44.5 -14.5t-15.5 -31.5zM234 521q-23 0 -44 5t-35 22.5t-15 52.5v5h23v-4q0 -14 4.5 -28.5t19.5 -24t45 -9.5
q32 0 47.5 9.5t20.5 23.5t5 29v4h21v-4q0 -36 -13.5 -53t-34 -22t-44.5 -6z" />
    <glyph glyph-name="abreve" unicode="&#x103;" horiz-adv-x="459" 
d="M219 -8q-53 0 -87 7t-52.5 22t-25.5 39t-7 58q0 51 13 78t45 37t87 10q25 0 53 -1.5t54 -3.5t44.5 -4.5t24.5 -4.5q1 53 -8.5 84t-28 45.5t-45.5 19t-60 4.5t-65.5 -3t-58.5 -9.5t-36 -18.5v9q0 18 13.5 24.5t26.5 9.5q17 5 49.5 8t65.5 3q43 0 76 -4.5t56 -20.5
t34.5 -48t11.5 -87l1 -210q-1 -22 -40.5 -32.5t-140.5 -10.5zM219 13q55 0 86.5 3t45.5 10t18 16l-1 166q-8 4 -34.5 7t-57 6t-53.5 3q-52 0 -83.5 -5.5t-45.5 -27.5t-14 -71q0 -37 9 -60.5t39 -35t91 -11.5zM222 458q-31 0 -51.5 11.5t-30 33.5t-9.5 53h18
q0 -37 18.5 -56.5t54.5 -19.5q42 0 58 19.5t16 56.5h18q0 -31 -8.5 -53t-28.5 -33.5t-55 -11.5z" />
    <glyph glyph-name="Aogonek" unicode="&#x104;" horiz-adv-x="469" 
d="M23 0l121 398q10 32 27 49t61 17q43 0 60 -15.5t27 -50.5l125 -398h-37l-43 138h-270l-42 -138h-29zM101 160h256l-71 230q-6 18 -16 32t-41 14q-34 0 -44.5 -14.5t-15.5 -31.5zM405 -170q-31 0 -51.5 5.5t-31 19.5t-10.5 40q0 21 12 39.5t28 33.5t32.5 26.5t26.5 16.5
h24q-7 -3 -23 -14t-33 -27t-29 -34t-12 -34q0 -33 17.5 -43.5t48.5 -10.5q9 0 17.5 0.5t14.5 1t8 0.5q0 -7 -2.5 -11.5t-10.5 -6.5t-26 -2z" />
    <glyph glyph-name="aogonek" unicode="&#x105;" horiz-adv-x="459" 
d="M219 -8q-53 0 -87 7t-52.5 22t-25.5 39t-7 58q0 51 13 78t45 37t87 10q25 0 53 -1.5t54 -3.5t44.5 -4.5t24.5 -4.5q1 53 -8.5 84t-28 45.5t-45.5 19t-60 4.5t-65.5 -3t-58.5 -9.5t-36 -18.5v9q0 18 13.5 24.5t26.5 9.5q17 5 49.5 8t65.5 3q43 0 76 -4.5t56 -20.5
t34.5 -48t11.5 -87l1 -210q-1 -22 -40.5 -32.5t-140.5 -10.5zM219 13q55 0 86.5 3t45.5 10t18 16l-1 166q-8 4 -34.5 7t-57 6t-53.5 3q-52 0 -83.5 -5.5t-45.5 -27.5t-14 -71q0 -37 9 -60.5t39 -35t91 -11.5zM349 -170q-31 0 -51.5 5.5t-31 19.5t-10.5 40q0 21 12 39.5
t28 33.5t32.5 26.5t26.5 16.5h24q-7 -3 -23 -14t-33 -27t-29 -34t-12 -34q0 -33 17.5 -43.5t48.5 -10.5q9 0 17.5 0.5t14.5 1t8 0.5q0 -7 -2.5 -11.5t-10.5 -6.5t-26 -2z" />
    <glyph glyph-name="Cacute" unicode="&#x106;" horiz-adv-x="495" 
d="M52 230q0 72 14 118t42.5 72t73 36t106.5 10q36 0 69.5 -2.5t67.5 -9.5q25 -4 32 -10t7 -15v-13q-16 8 -47.5 14t-66.5 9t-62 3q-75 0 -119 -19.5t-62.5 -66t-18.5 -126.5q0 -81 17 -128t61 -66.5t123 -19.5q27 0 61.5 3t65.5 9t48 13v-12q0 -8 -7 -14.5t-32 -10.5
q-34 -7 -68 -9.5t-69 -2.5q-65 0 -110 10t-72.5 35.5t-40.5 72t-13 120.5zM262 521l95 86l21 -20l-98 -66h-18z" />
    <glyph glyph-name="cacute" unicode="&#x107;" horiz-adv-x="417" 
d="M251 -5q-72 0 -117 16t-64.5 60t-19.5 128q0 85 19.5 129t64.5 60.5t117 16.5q26 0 48 -2t48 -7q15 -2 23.5 -6.5t11.5 -10.5t3 -18q-12 6 -35.5 11t-49.5 7.5t-46 2.5q-64 0 -101.5 -17.5t-53 -57t-15.5 -107.5t15 -108t52 -56.5t103 -16.5q30 0 55 2.5t44.5 7.5
t31.5 11v-13q0 -10 -16.5 -17t-46 -11t-71.5 -4zM230 460l100 105l22 -21l-104 -84h-18z" />
    <glyph glyph-name="Ccircumflex" unicode="&#x108;" horiz-adv-x="495" 
d="M52 230q0 72 14 118t42.5 72t73 36t106.5 10q36 0 69.5 -2.5t67.5 -9.5q25 -4 32 -10t7 -15v-13q-16 8 -47.5 14t-66.5 9t-62 3q-75 0 -119 -19.5t-62.5 -66t-18.5 -126.5q0 -81 17 -128t61 -66.5t123 -19.5q27 0 61.5 3t65.5 9t48 13v-12q0 -8 -7 -14.5t-32 -10.5
q-34 -7 -68 -9.5t-69 -2.5q-65 0 -110 10t-72.5 35.5t-40.5 72t-13 120.5zM197 521l78 86h20l79 -86h-21l-68 65l-68 -65h-20z" />
    <glyph glyph-name="ccircumflex" unicode="&#x109;" horiz-adv-x="417" 
d="M251 -5q-72 0 -117 16t-64.5 60t-19.5 128q0 85 19.5 129t64.5 60.5t117 16.5q26 0 48 -2t48 -7q15 -2 23.5 -6.5t11.5 -10.5t3 -18q-12 6 -35.5 11t-49.5 7.5t-46 2.5q-64 0 -101.5 -17.5t-53 -57t-15.5 -107.5t15 -108t52 -56.5t103 -16.5q30 0 55 2.5t44.5 7.5
t31.5 11v-13q0 -10 -16.5 -17t-46 -11t-71.5 -4zM158 460l80 105h19l80 -105h-20l-70 83l-69 -83h-20z" />
    <glyph glyph-name="Cdotaccent" unicode="&#x10a;" horiz-adv-x="495" 
d="M52 230q0 72 14 118t42.5 72t73 36t106.5 10q36 0 69.5 -2.5t67.5 -9.5q25 -4 32 -10t7 -15v-13q-16 8 -47.5 14t-66.5 9t-62 3q-75 0 -119 -19.5t-62.5 -66t-18.5 -126.5q0 -81 17 -128t61 -66.5t123 -19.5q27 0 61.5 3t65.5 9t48 13v-12q0 -8 -7 -14.5t-32 -10.5
q-34 -7 -68 -9.5t-69 -2.5q-65 0 -110 10t-72.5 35.5t-40.5 72t-13 120.5zM285 521q-12 0 -19.5 3.5t-7.5 18.5q0 17 7.5 20.5t19.5 3.5t19 -4t7 -20q0 -15 -7 -18.5t-19 -3.5z" />
    <glyph glyph-name="cdotaccent" unicode="&#x10b;" horiz-adv-x="417" 
d="M251 -5q-72 0 -117 16t-64.5 60t-19.5 128q0 85 19.5 129t64.5 60.5t117 16.5q26 0 48 -2t48 -7q15 -2 23.5 -6.5t11.5 -10.5t3 -18q-12 6 -35.5 11t-49.5 7.5t-46 2.5q-64 0 -101.5 -17.5t-53 -57t-15.5 -107.5t15 -108t52 -56.5t103 -16.5q30 0 55 2.5t44.5 7.5
t31.5 11v-13q0 -10 -16.5 -17t-46 -11t-71.5 -4zM249 460q-12 0 -19.5 3.5t-7.5 18.5q0 17 7.5 20.5t19.5 3.5t19 -4t7 -20q0 -15 -7 -18.5t-19 -3.5z" />
    <glyph glyph-name="Ccaron" unicode="&#x10c;" horiz-adv-x="495" 
d="M197 607h20l68 -65l67 65h22l-79 -86h-20zM52 230q0 72 14 118t42.5 72t73 36t106.5 10q36 0 69.5 -2.5t67.5 -9.5q25 -4 32 -10t7 -15v-13q-16 8 -47.5 14t-66.5 9t-62 3q-75 0 -119 -19.5t-62.5 -66t-18.5 -126.5q0 -81 17 -128t61 -66.5t123 -19.5q27 0 61.5 3t65.5 9
t48 13v-12q0 -8 -7 -14.5t-32 -10.5q-34 -7 -68 -9.5t-69 -2.5q-65 0 -110 10t-72.5 35.5t-40.5 72t-13 120.5z" />
    <glyph glyph-name="ccaron" unicode="&#x10d;" horiz-adv-x="417" 
d="M159 565h21l68 -83l70 83h20l-80 -105h-19zM251 -5q-72 0 -117 16t-64.5 60t-19.5 128q0 85 19.5 129t64.5 60.5t117 16.5q26 0 48 -2t48 -7q15 -2 23.5 -6.5t11.5 -10.5t3 -18q-12 6 -35.5 11t-49.5 7.5t-46 2.5q-64 0 -101.5 -17.5t-53 -57t-15.5 -107.5t15 -108
t52 -56.5t103 -16.5q30 0 55 2.5t44.5 7.5t31.5 11v-13q0 -10 -16.5 -17t-46 -11t-71.5 -4z" />
    <glyph glyph-name="Dcaron" unicode="&#x10e;" horiz-adv-x="576" 
d="M207 607h21l67 -65l68 65h22l-80 -86h-19zM523 225q0 -87 -18 -133.5t-51.5 -66.5t-79.5 -24t-102 -4q-20 0 -47 0.5t-55 1t-49.5 1t-30.5 0.5v398q0 30 6 44.5t41 17.5q11 1 35 1.5t52.5 1t55 0.5t41.5 -1q47 -3 84.5 -9t64 -28.5t40 -69.5t13.5 -130zM125 24
q6 0 26.5 -0.5t45.5 -1t48.5 -1t35.5 -0.5q58 0 97.5 7.5t64 28.5t35 61.5t10.5 105.5q0 89 -18 135.5t-61 63t-121 16.5h-43t-57.5 -1t-42.5 -4q-10 -2 -15 -8t-5 -29v-373z" />
    <glyph glyph-name="dcaron" unicode="&#x10f;" horiz-adv-x="459" 
d="M50 203q0 81 20 123.5t60 58t97 15.5q16 0 40 -1t49.5 -2.5t44 -3.5t24.5 -3l-13 -8v123h30v-304q0 -67 -7.5 -107.5t-26.5 -61t-53.5 -27.5t-88.5 -7q-50 0 -84 6.5t-54.5 27t-29 61t-8.5 110.5zM215 21q52 0 83.5 5.5t47.5 23.5t21 52.5t5 92.5l-1 175q-13 1 -38 2.5
t-52.5 3t-47.5 1.5q-53 0 -86.5 -14.5t-49 -53t-15.5 -110.5q0 -77 11.5 -115t41 -50.5t80.5 -12.5zM465 375l6 130h24l-13 -130h-17z" />
    <glyph glyph-name="Dcroat" unicode="&#x110;" horiz-adv-x="576" 
d="M523 225q0 -87 -18 -133.5t-51.5 -66.5t-79.5 -24t-102 -4q-20 0 -47 0.5t-55 1t-49.5 1t-30.5 0.5v398q0 30 6 44.5t41 17.5q11 1 35 1.5t52.5 1t55 0.5t41.5 -1q47 -3 84.5 -9t64 -28.5t40 -69.5t13.5 -130zM125 24q6 0 26.5 -0.5t45.5 -1t48.5 -1t35.5 -0.5
q58 0 97.5 7.5t64 28.5t35 61.5t10.5 105.5q0 89 -18 135.5t-61 63t-121 16.5h-43t-57.5 -1t-42.5 -4q-10 -2 -15 -8t-5 -29v-373zM21 231h227v-20h-227v20z" />
    <glyph glyph-name="dcroat" unicode="&#x111;" horiz-adv-x="470" 
d="M285 520h86v73h31v-73h88v-18h-88l-1 -301q0 -67 -6.5 -107.5t-24.5 -61.5t-51.5 -27.5t-86.5 -6.5q-54 0 -89 6.5t-55.5 27t-29 61.5t-8.5 110q0 80 20 123t59.5 58.5t99.5 15.5q12 0 34 -1t46.5 -2t42 -2t19.5 -1v108h-86v18zM215 19q49 0 79.5 4t47 20.5t23 52
t6.5 99.5v176q-3 0 -18.5 1.5t-38 2.5t-44.5 2t-38 1q-62 0 -94.5 -19t-44.5 -58.5t-12 -101.5q0 -80 13.5 -118.5t43 -50t77.5 -11.5z" />
    <glyph glyph-name="Emacron" unicode="&#x112;" horiz-adv-x="516" 
d="M95 0v437q0 12 2 17.5t12 5.5h365v-24h-344v-180h318v-24h-318v-208h344v-24h-379zM178 522v17h203v-17h-203z" />
    <glyph glyph-name="emacron" unicode="&#x113;" horiz-adv-x="442" 
d="M241 -7q-52 0 -89 8.5t-59.5 31t-32.5 62.5t-10 104q0 70 16 115.5t58 68t117 22.5q59 0 95 -17t52 -53.5t16 -92.5v-48h-284q0 8 4 14t16 6h234l-1 32q-2 71 -31.5 103t-100.5 32q-60 0 -95 -18.5t-49.5 -58t-14.5 -105.5q0 -74 15.5 -113.5t51 -54t95.5 -14.5
q19 0 41.5 1.5t44.5 4.5t40 7t27 8v-9q0 -7 -5.5 -13t-25.5 -11q-24 -6 -56.5 -9t-68.5 -3zM132 461v21h196v-21h-196z" />
    <glyph glyph-name="Ebreve" unicode="&#x114;" horiz-adv-x="516" 
d="M95 0v437q0 12 2 17.5t12 5.5h365v-24h-344v-180h318v-24h-318v-208h344v-24h-379zM280 521q-23 0 -44 5t-35 22.5t-15 52.5v5h23v-4q0 -14 4.5 -28.5t19.5 -24t45 -9.5q32 0 47.5 9.5t20.5 23.5t5 29v4h21v-4q0 -36 -13.5 -53t-34 -22t-44.5 -6z" />
    <glyph glyph-name="ebreve" unicode="&#x115;" horiz-adv-x="442" 
d="M241 -7q-52 0 -89 8.5t-59.5 31t-32.5 62.5t-10 104q0 70 16 115.5t58 68t117 22.5q59 0 95 -17t52 -53.5t16 -92.5v-48h-284q0 8 4 14t16 6h234l-1 32q-2 71 -31.5 103t-100.5 32q-60 0 -95 -18.5t-49.5 -58t-14.5 -105.5q0 -74 15.5 -113.5t51 -54t95.5 -14.5
q19 0 41.5 1.5t44.5 4.5t40 7t27 8v-9q0 -7 -5.5 -13t-25.5 -11q-24 -6 -56.5 -9t-68.5 -3zM229 458q-31 0 -51.5 11.5t-30 33.5t-9.5 53h18q0 -37 18.5 -56.5t54.5 -19.5q42 0 58 19.5t16 56.5h18q0 -31 -8.5 -53t-28.5 -33.5t-55 -11.5z" />
    <glyph glyph-name="Edotaccent" unicode="&#x116;" horiz-adv-x="516" 
d="M95 0v437q0 12 2 17.5t12 5.5h365v-24h-344v-180h318v-24h-318v-208h344v-24h-379zM280 521q-12 0 -19.5 3.5t-7.5 18.5q0 17 7.5 20.5t19.5 3.5t19 -4t7 -20q0 -15 -7 -18.5t-19 -3.5z" />
    <glyph glyph-name="edotaccent" unicode="&#x117;" horiz-adv-x="442" 
d="M241 -7q-52 0 -89 8.5t-59.5 31t-32.5 62.5t-10 104q0 70 16 115.5t58 68t117 22.5q59 0 95 -17t52 -53.5t16 -92.5v-48h-284q0 8 4 14t16 6h234l-1 32q-2 71 -31.5 103t-100.5 32q-60 0 -95 -18.5t-49.5 -58t-14.5 -105.5q0 -74 15.5 -113.5t51 -54t95.5 -14.5
q19 0 41.5 1.5t44.5 4.5t40 7t27 8v-9q0 -7 -5.5 -13t-25.5 -11q-24 -6 -56.5 -9t-68.5 -3zM230 460q-12 0 -19.5 3.5t-7.5 18.5q0 17 7.5 20.5t19.5 3.5t19 -4t7 -20q0 -15 -7 -18.5t-19 -3.5z" />
    <glyph glyph-name="Eogonek" unicode="&#x118;" horiz-adv-x="516" 
d="M95 0v437q0 12 2 17.5t12 5.5h365v-24h-344v-180h318v-24h-318v-208h344v-24h-379zM431 -170q-31 0 -51.5 5.5t-31 19.5t-10.5 40q0 21 12 39.5t28 33.5t32.5 26.5t26.5 16.5h24q-7 -3 -23 -14t-33 -27t-29 -34t-12 -34q0 -33 17.5 -43.5t48.5 -10.5q9 0 17.5 0.5t14.5 1
t8 0.5q0 -7 -2.5 -11.5t-10.5 -6.5t-26 -2z" />
    <glyph glyph-name="eogonek" unicode="&#x119;" horiz-adv-x="442" 
d="M241 -7q-52 0 -89 8.5t-59.5 31t-32.5 62.5t-10 104q0 70 16 115.5t58 68t117 22.5q59 0 95 -17t52 -53.5t16 -92.5v-48h-284q0 8 4 14t16 6h234l-1 32q-2 71 -31.5 103t-100.5 32q-60 0 -95 -18.5t-49.5 -58t-14.5 -105.5q0 -74 15.5 -113.5t51 -54t95.5 -14.5
q19 0 41.5 1.5t44.5 4.5t40 7t27 8v-9q0 -7 -5.5 -13t-25.5 -11q-24 -6 -56.5 -9t-68.5 -3zM316 -174q-31 0 -51.5 5.5t-31 19.5t-10.5 40q0 21 12 39.5t28 33.5t32.5 26.5t26.5 16.5h24q-7 -3 -23 -14t-33 -27t-29 -34t-12 -34q0 -33 17.5 -43.5t48.5 -10.5q9 0 17.5 0.5
t14.5 1t8 0.5q0 -7 -2.5 -11.5t-10.5 -6.5t-26 -2z" />
    <glyph glyph-name="Ecaron" unicode="&#x11a;" horiz-adv-x="516" 
d="M191 607h20l68 -65l68 65h21l-79 -86h-20zM95 0v437q0 12 2 17.5t12 5.5h365v-24h-344v-180h318v-24h-318v-208h344v-24h-379z" />
    <glyph glyph-name="ecaron" unicode="&#x11b;" horiz-adv-x="442" 
d="M140 565h20l69 -83l69 83h21l-80 -105h-19zM241 -7q-52 0 -89 8.5t-59.5 31t-32.5 62.5t-10 104q0 70 16 115.5t58 68t117 22.5q59 0 95 -17t52 -53.5t16 -92.5v-48h-284q0 8 4 14t16 6h234l-1 32q-2 71 -31.5 103t-100.5 32q-60 0 -95 -18.5t-49.5 -58t-14.5 -105.5
q0 -74 15.5 -113.5t51 -54t95.5 -14.5q19 0 41.5 1.5t44.5 4.5t40 7t27 8v-9q0 -7 -5.5 -13t-25.5 -11q-24 -6 -56.5 -9t-68.5 -3z" />
    <glyph glyph-name="Gcircumflex" unicode="&#x11c;" horiz-adv-x="526" 
d="M274 -9q-64 0 -106.5 12.5t-68 40.5t-36.5 73.5t-11 112.5q0 72 14.5 118.5t43.5 72t72.5 35.5t102.5 10q39 0 74.5 -2.5t69.5 -9.5q16 -2 24 -6t10.5 -9t2.5 -10v-12q-8 6 -24 9.5t-36 6.5t-41.5 5.5t-42 3.5t-36.5 1q-75 0 -118 -20t-61.5 -66.5t-18.5 -126.5
q0 -79 16.5 -126t57 -67.5t112.5 -20.5q63 0 101 13t56 49.5t20 104.5q1 15 0.5 26t-0.5 16h-198q0 10 1 15t6.5 7t15.5 2h209v-65q0 -57 -12.5 -94t-38.5 -59t-66 -31t-94 -9zM180 521l78 86h20l79 -86h-21l-68 65l-68 -65h-20z" />
    <glyph glyph-name="gcircumflex" unicode="&#x11d;" horiz-adv-x="467" 
d="M225 -112q-12 0 -37 1.5t-50.5 5.5t-44 11t-18.5 17v7v6q15 -9 41.5 -15t55.5 -9t49 -3q59 0 92 18t46.5 59.5t10.5 111.5l14 1q-10 -36 -37 -54t-61.5 -25t-67.5 -7q-56 0 -94 13t-56 54t-18 123q0 65 11 104.5t34.5 60.5t60 27.5t87.5 6.5q21 0 46 -1.5t49 -3t42 -3.5
t26 -4q-1 -4 -2 -18.5t-1 -33.5v-35l-1 -236q0 -64 -18 -103.5t-56.5 -57.5t-102.5 -18zM216 36q45 0 78.5 9t54 29.5t21.5 53.5v240q-11 3 -47 7t-85 4q-58 0 -91.5 -14t-48.5 -51t-15 -105q0 -70 13.5 -107.5t42 -51.5t77.5 -14zM140 460l80 105h19l80 -105h-20l-70 83
l-69 -83h-20z" />
    <glyph glyph-name="Gbreve" unicode="&#x11e;" horiz-adv-x="526" 
d="M274 -9q-64 0 -106.5 12.5t-68 40.5t-36.5 73.5t-11 112.5q0 72 14.5 118.5t43.5 72t72.5 35.5t102.5 10q39 0 74.5 -2.5t69.5 -9.5q16 -2 24 -6t10.5 -9t2.5 -10v-12q-8 6 -24 9.5t-36 6.5t-41.5 5.5t-42 3.5t-36.5 1q-75 0 -118 -20t-61.5 -66.5t-18.5 -126.5
q0 -79 16.5 -126t57 -67.5t112.5 -20.5q63 0 101 13t56 49.5t20 104.5q1 15 0.5 26t-0.5 16h-198q0 10 1 15t6.5 7t15.5 2h209v-65q0 -57 -12.5 -94t-38.5 -59t-66 -31t-94 -9zM269 521q-23 0 -44 5t-35 22.5t-15 52.5v5h23v-4q0 -14 4.5 -28.5t19.5 -24t45 -9.5
q32 0 47.5 9.5t20.5 23.5t5 29v4h21v-4q0 -36 -13.5 -53t-34 -22t-44.5 -6z" />
    <glyph glyph-name="gbreve" unicode="&#x11f;" horiz-adv-x="467" 
d="M225 -112q-12 0 -37 1.5t-50.5 5.5t-44 11t-18.5 17v7v6q15 -9 41.5 -15t55.5 -9t49 -3q59 0 92 18t46.5 59.5t10.5 111.5l14 1q-10 -36 -37 -54t-61.5 -25t-67.5 -7q-56 0 -94 13t-56 54t-18 123q0 65 11 104.5t34.5 60.5t60 27.5t87.5 6.5q21 0 46 -1.5t49 -3t42 -3.5
t26 -4q-1 -4 -2 -18.5t-1 -33.5v-35l-1 -236q0 -64 -18 -103.5t-56.5 -57.5t-102.5 -18zM216 36q45 0 78.5 9t54 29.5t21.5 53.5v240q-11 3 -47 7t-85 4q-58 0 -91.5 -14t-48.5 -51t-15 -105q0 -70 13.5 -107.5t42 -51.5t77.5 -14zM229 458q-31 0 -51.5 11.5t-30 33.5
t-9.5 53h18q0 -37 18.5 -56.5t54.5 -19.5q42 0 58 19.5t16 56.5h18q0 -31 -8.5 -53t-28.5 -33.5t-55 -11.5z" />
    <glyph glyph-name="Gdotaccent" unicode="&#x120;" horiz-adv-x="526" 
d="M274 -9q-64 0 -106.5 12.5t-68 40.5t-36.5 73.5t-11 112.5q0 72 14.5 118.5t43.5 72t72.5 35.5t102.5 10q39 0 74.5 -2.5t69.5 -9.5q16 -2 24 -6t10.5 -9t2.5 -10v-12q-8 6 -24 9.5t-36 6.5t-41.5 5.5t-42 3.5t-36.5 1q-75 0 -118 -20t-61.5 -66.5t-18.5 -126.5
q0 -79 16.5 -126t57 -67.5t112.5 -20.5q63 0 101 13t56 49.5t20 104.5q1 15 0.5 26t-0.5 16h-198q0 10 1 15t6.5 7t15.5 2h209v-65q0 -57 -12.5 -94t-38.5 -59t-66 -31t-94 -9zM269 521q-12 0 -19.5 3.5t-7.5 18.5q0 17 7.5 20.5t19.5 3.5t19 -4t7 -20q0 -15 -7 -18.5
t-19 -3.5z" />
    <glyph glyph-name="gdotaccent" unicode="&#x121;" horiz-adv-x="467" 
d="M225 -112q-12 0 -37 1.5t-50.5 5.5t-44 11t-18.5 17v7v6q15 -9 41.5 -15t55.5 -9t49 -3q59 0 92 18t46.5 59.5t10.5 111.5l14 1q-10 -36 -37 -54t-61.5 -25t-67.5 -7q-56 0 -94 13t-56 54t-18 123q0 65 11 104.5t34.5 60.5t60 27.5t87.5 6.5q21 0 46 -1.5t49 -3t42 -3.5
t26 -4q-1 -4 -2 -18.5t-1 -33.5v-35l-1 -236q0 -64 -18 -103.5t-56.5 -57.5t-102.5 -18zM216 36q45 0 78.5 9t54 29.5t21.5 53.5v240q-11 3 -47 7t-85 4q-58 0 -91.5 -14t-48.5 -51t-15 -105q0 -70 13.5 -107.5t42 -51.5t77.5 -14zM230 460q-12 0 -19.5 3.5t-7.5 18.5
q0 17 7.5 20.5t19.5 3.5t19 -4t7 -20q0 -15 -7 -18.5t-19 -3.5z" />
    <glyph glyph-name="uni0122" unicode="&#x122;" horiz-adv-x="526" 
d="M274 -9q-64 0 -106.5 12.5t-68 40.5t-36.5 73.5t-11 112.5q0 72 14.5 118.5t43.5 72t72.5 35.5t102.5 10q39 0 74.5 -2.5t69.5 -9.5q16 -2 24 -6t10.5 -9t2.5 -10v-12q-8 6 -24 9.5t-36 6.5t-41.5 5.5t-42 3.5t-36.5 1q-75 0 -118 -20t-61.5 -66.5t-18.5 -126.5
q0 -79 16.5 -126t57 -67.5t112.5 -20.5q63 0 101 13t56 49.5t20 104.5q1 15 0.5 26t-0.5 16h-198q0 10 1 15t6.5 7t15.5 2h209v-65q0 -57 -12.5 -94t-38.5 -59t-66 -31t-94 -9zM247 -175q5 14 9 27.5t7 25.5t3 18h-1.5h-2.5q-6 0 -13 3.5t-7 14.5q0 13 7.5 16t20.5 3
q7 0 12 -1.5t7 -6t2 -13.5q0 -13 -5.5 -31.5t-12.5 -34.5t-10 -21h-16z" />
    <glyph glyph-name="uni0123" unicode="&#x123;" horiz-adv-x="467" 
d="M225 -112q-12 0 -37 1.5t-50.5 5.5t-44 11t-18.5 17v7v6q15 -9 41.5 -15t55.5 -9t49 -3q59 0 92 18t46.5 59.5t10.5 111.5l14 1q-10 -36 -37 -54t-61.5 -25t-67.5 -7q-56 0 -94 13t-56 54t-18 123q0 65 11 104.5t34.5 60.5t60 27.5t87.5 6.5q21 0 46 -1.5t49 -3t42 -3.5
t26 -4q-1 -4 -2 -18.5t-1 -33.5v-35l-1 -236q0 -64 -18 -103.5t-56.5 -57.5t-102.5 -18zM216 36q45 0 78.5 9t54 29.5t21.5 53.5v240q-11 3 -47 7t-85 4q-58 0 -91.5 -14t-48.5 -51t-15 -105q0 -70 13.5 -107.5t42 -51.5t77.5 -14zM227 460q-7 0 -12 1.5t-7.5 6.5t-2.5 13
q0 14 6 32.5t12.5 34.5t9.5 20h17q-6 -13 -10 -27t-6.5 -25t-3.5 -18h2h2q6 -1 13 -4t7 -15t-7.5 -15.5t-19.5 -3.5z" />
    <glyph glyph-name="Hcircumflex" unicode="&#x124;" horiz-adv-x="601" 
d="M95 0v439q0 13 3 17t13 4h19v-210h341v210h35v-438q0 -14 -3 -18t-13 -4h-19v225h-341v-225h-35zM212 521l78 86h20l79 -86h-21l-68 65l-68 -65h-20z" />
    <glyph glyph-name="hcircumflex" unicode="&#x125;" horiz-adv-x="456" 
d="M84 0q-12 0 -14.5 4t-2.5 20v480h32v-121q12 5 35 8.5t49 5.5t47 2q57 0 90.5 -12t49 -34t20 -51.5t4.5 -66.5v-207q0 -12 -1.5 -18.5t-5 -8t-12.5 -1.5h-13v249q0 54 -15.5 81t-46 37t-72.5 10q-17 0 -42.5 -1.5t-49 -5t-37.5 -9.5v-361h-15zM-7 531l80 105h19l80 -105
h-20l-70 83l-69 -83h-20z" />
    <glyph glyph-name="Hbar" unicode="&#x126;" horiz-adv-x="601" 
d="M95 0v439q0 13 3 17t13 4h19v-210h341v210h35v-438q0 -14 -3 -18t-13 -4h-19v225h-341v-225h-35zM52 375h495v-18h-495v18z" />
    <glyph glyph-name="hbar" unicode="&#x127;" horiz-adv-x="456" 
d="M86 0q-12 0 -14.5 4t-2.5 20v480h32v-121q12 5 35 8.5t49 5.5t47 2q57 0 90.5 -12t49 -34t20 -51.5t4.5 -66.5v-207q0 -12 -1.5 -18.5t-5 -8t-12.5 -1.5h-13v249q0 54 -15.5 81t-46 37t-72.5 10q-17 0 -42.5 -1.5t-49 -5t-37.5 -9.5v-361h-15zM10 470h204v-17h-204v17z
" />
    <glyph glyph-name="Itilde" unicode="&#x128;" horiz-adv-x="225" 
d="M95 0v218.5v219.5q0 7 0.5 11.5t4 7.5t9.5 3h21v-460h-35zM158 519q-16 0 -31 8.5t-31 17t-31 8.5q-16 0 -26 -10t-14 -17l-12 9q1 3 4.5 9.5t10.5 14t16 13.5t23 6q16 0 31 -9l30 -18t29 -9q20 0 30 12t13 20l12 -11q-1 -3 -4.5 -10t-9.5 -14.5t-16 -13.5t-24 -6z" />
    <glyph glyph-name="itilde" unicode="&#x129;" horiz-adv-x="179" 
d="M121 -3q-37 0 -48.5 24t-11.5 67v311h32v-308q0 -45 9 -59.5t33 -14.5q7 0 19.5 1.5t16.5 3.5v-20q-3 -1 -10.5 -2t-17.5 -2t-22 -1zM110 457q-16 0 -31 9t-31 17.5t-31 8.5q-16 0 -24 -11t-12 -19l-14 8q2 4 5 11t9.5 15t15 13.5t22.5 5.5q16 0 31.5 -9t30 -17.5
t28.5 -8.5q21 0 30.5 12t12.5 19l14 -8q-2 -4 -5.5 -11.5t-10 -15.5t-16.5 -13.5t-24 -5.5z" />
    <glyph glyph-name="Imacron" unicode="&#x12a;" horiz-adv-x="225" 
d="M95 0v218.5v219.5q0 7 0.5 11.5t4 7.5t9.5 3h21v-460h-35zM11 522v17h203v-17h-203z" />
    <glyph glyph-name="imacron" unicode="&#x12b;" horiz-adv-x="179" 
d="M121 -3q-37 0 -48.5 24t-11.5 67v311h32v-308q0 -45 9 -59.5t33 -14.5q7 0 19.5 1.5t16.5 3.5v-20q-3 -1 -10.5 -2t-17.5 -2t-22 -1zM-32 461v21h196v-21h-196z" />
    <glyph glyph-name="Ibreve" unicode="&#x12c;" horiz-adv-x="225" 
d="M95 0v218.5v219.5q0 7 0.5 11.5t4 7.5t9.5 3h21v-460h-35zM113 521q-23 0 -44 5t-35 22.5t-15 52.5v5h23v-4q0 -14 4.5 -28.5t19.5 -24t45 -9.5q32 0 47.5 9.5t20.5 23.5t5 29v4h21v-4q0 -36 -13.5 -53t-34 -22t-44.5 -6z" />
    <glyph glyph-name="ibreve" unicode="&#x12d;" horiz-adv-x="179" 
d="M121 -3q-37 0 -48.5 24t-11.5 67v311h32v-308q0 -45 9 -59.5t33 -14.5q7 0 19.5 1.5t16.5 3.5v-20q-3 -1 -10.5 -2t-17.5 -2t-22 -1zM65 458q-31 0 -51.5 11.5t-30 33.5t-9.5 53h18q0 -37 18.5 -56.5t54.5 -19.5q42 0 58 19.5t16 56.5h18q0 -31 -8.5 -53t-28.5 -33.5
t-55 -11.5z" />
    <glyph glyph-name="Iogonek" unicode="&#x12e;" horiz-adv-x="225" 
d="M95 0v218.5v219.5q0 7 0.5 11.5t4 7.5t9.5 3h21v-460h-35zM96 -170q-31 0 -51.5 5.5t-31 19.5t-10.5 40q0 21 12 39.5t28 33.5t32.5 26.5t26.5 16.5h24q-7 -3 -23 -14t-33 -27t-29 -34t-12 -34q0 -33 17.5 -43.5t48.5 -10.5q9 0 17.5 0.5t14.5 1t8 0.5q0 -7 -2.5 -11.5
t-10.5 -6.5t-26 -2z" />
    <glyph glyph-name="iogonek" unicode="&#x12f;" horiz-adv-x="179" 
d="M121 -3q-37 0 -48.5 24t-11.5 67v311h32v-308q0 -45 9 -59.5t33 -14.5q7 0 19.5 1.5t16.5 3.5v-20q-3 -1 -10.5 -2t-17.5 -2t-22 -1zM65 460q-12 0 -19.5 3.5t-7.5 18.5q0 17 7.5 20.5t19.5 3.5t19 -4t7 -20q0 -15 -7 -18.5t-19 -3.5zM104 -170q-31 0 -51.5 5.5t-31 19.5
t-10.5 40q0 21 12 39.5t28 33.5t32.5 26.5t26.5 16.5h24q-7 -3 -23 -14t-33 -27t-29 -34t-12 -34q0 -33 17.5 -43.5t48.5 -10.5q9 0 17.5 0.5t14.5 1t8 0.5q0 -7 -2.5 -11.5t-10.5 -6.5t-26 -2z" />
    <glyph glyph-name="Idotaccent" unicode="&#x130;" horiz-adv-x="225" 
d="M95 0v218.5v219.5q0 7 0.5 11.5t4 7.5t9.5 3h21v-460h-35zM113 521q-12 0 -19.5 3.5t-7.5 18.5q0 17 7.5 20.5t19.5 3.5t19 -4t7 -20q0 -15 -7 -18.5t-19 -3.5z" />
    <glyph glyph-name="dotlessi" unicode="&#x131;" horiz-adv-x="179" 
d="M121 -3q-37 0 -48.5 24t-11.5 67v311h32v-308q0 -45 9 -59.5t33 -14.5q7 0 19.5 1.5t16.5 3.5v-20q-3 -1 -10.5 -2t-17.5 -2t-22 -1z" />
    <glyph glyph-name="IJ" unicode="&#x132;" horiz-adv-x="490" 
d="M95 0v218.5v219.5q0 7 0.5 11.5t4 7.5t9.5 3h21v-460h-35zM401 150v-50.5t-3 -47.5q-2 -13 -10 -26t-22.5 -21t-38.5 -8h-17.5t-22.5 1.5t-23 3.5v25q5 -2 19.5 -4t22.5 -2q31 0 45.5 12t14.5 43v384h20q7 0 10 -2.5t4 -6.5t1 -10v-291z" />
    <glyph glyph-name="ij" unicode="&#x133;" horiz-adv-x="361" 
d="M121 -3q-37 0 -48.5 24t-11.5 67v311h32v-308q0 -45 9 -59.5t33 -14.5q7 0 19.5 1.5t16.5 3.5v-20q-3 -1 -10.5 -2t-17.5 -2t-22 -1zM196 -86q-17 0 -31.5 1t-20.5 2v20q5 -1 19.5 -2t24.5 -1q28 0 35.5 13.5t7.5 53.5v380q0 6 1 10.5t4.5 6t10.5 1.5h16v-396
q0 -33 -5 -52.5t-19.5 -28t-42.5 -8.5zM248 462q-8 0 -15.5 3.5t-7.5 14.5q0 12 6.5 15.5t15.5 3.5q10 0 16.5 -3t6.5 -16q0 -11 -7 -14.5t-15 -3.5z" />
    <glyph glyph-name="Jcircumflex" unicode="&#x134;" horiz-adv-x="265" 
d="M176 150v-50.5t-3 -47.5q-2 -13 -10 -26t-22.5 -21t-38.5 -8h-17.5t-22.5 1.5t-23 3.5v25q5 -2 19.5 -4t22.5 -2q31 0 45.5 12t14.5 43v384h20q7 0 10 -2.5t4 -6.5t1 -10v-291zM69 521l78 86h20l79 -86h-21l-68 65l-68 -65h-20z" />
    <glyph glyph-name="jcircumflex" unicode="&#x135;" horiz-adv-x="204" 
d="M19 -65q5 -1 19.5 -2t24.5 -1q31 0 37 18.5t6 58.5v186v186q0 6 1 10.5t4 6t11 1.5h7.5h8.5v-72.5v-73.5v-75v-75v-73q0 -23 -0.5 -41.5t-3 -32.5t-9.5 -23t-19 -14t-33 -5q-17 0 -32.5 1t-21.5 2v9.5v8.5zM35 460l80 105h19l80 -105h-20l-70 83l-69 -83h-20z" />
    <glyph glyph-name="uni0136" unicode="&#x136;" horiz-adv-x="476" 
d="M433 -2q-8 0 -15.5 3.5t-16.5 10.5q-6 6 -22 25t-37 44t-43 50t-38 44.5t-22 26.5q-11 11 -18.5 15.5t-26.5 6.5h-64v-224h-35v443q0 6 1 9.5t4 5.5t7 2h12h11v-42.5v-61v-61v-42.5h65q16 1 23 6t16 15q26 28 52.5 57.5t54 59.5t53.5 60q7 6 13 8t13 2t11.5 -1.5
t7.5 -3.5q-2 -1 -14.5 -14.5t-28 -31t-28.5 -31.5q-22 -23 -45.5 -47.5t-45.5 -47.5t-41 -43l4 2q9 -5 31 -29.5t52.5 -60.5t64 -75.5t65.5 -73.5q-2 -1 -4.5 -2.5t-6.5 -2.5t-9 -1zM243 -175q5 14 9 27.5t7 25.5t3 18h-1.5h-2.5q-6 0 -13 3.5t-7 14.5q0 13 7.5 16t20.5 3
q7 0 12 -1.5t7 -6t2 -13.5q0 -13 -5.5 -31.5t-12.5 -34.5t-10 -21h-16z" />
    <glyph glyph-name="uni0137" unicode="&#x137;" horiz-adv-x="386" 
d="M67 0v489q0 10 3 13.5t12 3.5h17v-347l209 227q6 7 12.5 10t16.5 4h13t11 -1q-2 -2 -8 -7.5t-12.5 -11.5t-13.5 -13l-133 -142l169 -195q6 -9 13 -16t13 -14q-7 -1 -14 -1h-14q-9 0 -14.5 3.5t-13.5 11.5l-162 187l-72 -76v-125h-32zM198 -175q5 14 9 27.5t7 25.5t3 18
h-1.5h-2.5q-6 0 -13 3.5t-7 14.5q0 13 7.5 16t20.5 3q7 0 12 -1.5t7 -6t2 -13.5q0 -13 -5.5 -31.5t-12.5 -34.5t-10 -21h-16z" />
    <glyph glyph-name="kgreenlandic" unicode="&#x138;" horiz-adv-x="425" 
d="M88 0v66.5v83t-0.5 84t-0.5 71.5v43q0 18 -9 26t-21 9t-24 -1t-19 -4v3v6.5v6v3.5q3 1 15 3t27 2.5t30.5 -3t25 -13t9.5 -29.5v-60.5v-32v-22.5v-30v-56q7 8 21.5 23.5t36 38t48 51.5t56 62t61.5 68h6h8.5h8.5h8h6q-5 -3 -13.5 -12t-16.5 -17q-35 -38 -69.5 -74.5
t-65.5 -70.5q15 -18 42 -49t56.5 -65t54.5 -62.5t35 -40.5q2 -2 3.5 -4t2.5 -3l1 -1h-3t-7.5 -0.5t-9.5 -0.5h-8q-9 0 -15 3t-15 13l-54 62t-53.5 63t-53.5 62l-71 -77v-62v-63h-5h-7h-8.5h-7.5h-5z" />
    <glyph glyph-name="Lacute" unicode="&#x139;" horiz-adv-x="453" 
d="M130 460v-436h312v-24h-347v437q0 8 0.5 12.5t4 7.5t9.5 3h21zM93 521l95 86l21 -20l-98 -66h-18z" />
    <glyph glyph-name="lacute" unicode="&#x13a;" horiz-adv-x="185" 
d="M128 -3q-34 0 -49 19t-15 68v397q0 8 1.5 13.5t5 8t11.5 2.5h15l-0.5 -8.5t-0.5 -24.5v-381q0 -38 8 -56t34 -18q6 0 19 1.5t17 3.5v-20q-5 -1 -16 -3t-30 -2zM65 566l100 105l22 -21l-104 -84h-18z" />
    <glyph glyph-name="uni013B" unicode="&#x13b;" horiz-adv-x="453" 
d="M130 460v-436h312v-24h-347v437q0 8 0.5 12.5t4 7.5t9.5 3h21zM230 -175q5 14 9 27.5t7 25.5t3 18h-1.5h-2.5q-6 0 -13 3.5t-7 14.5q0 13 7.5 16t20.5 3q7 0 12 -1.5t7 -6t2 -13.5q0 -13 -5.5 -31.5t-12.5 -34.5t-10 -21h-16z" />
    <glyph glyph-name="uni013C" unicode="&#x13c;" horiz-adv-x="185" 
d="M128 -3q-34 0 -49 19t-15 68v397q0 8 1.5 13.5t5 8t11.5 2.5h15l-0.5 -8.5t-0.5 -24.5v-381q0 -38 8 -56t34 -18q6 0 19 1.5t17 3.5v-20q-5 -1 -16 -3t-30 -2zM88 -175q5 14 9 27.5t7 25.5t3 18h-1.5h-2.5q-6 0 -13 3.5t-7 14.5q0 13 7.5 16t20.5 3q7 0 12 -1.5t7 -6
t2 -13.5q0 -13 -5.5 -31.5t-12.5 -34.5t-10 -21h-16z" />
    <glyph glyph-name="Lcaron" unicode="&#x13d;" horiz-adv-x="453" 
d="M130 460v-436h312v-24h-347v437q0 8 0.5 12.5t4 7.5t9.5 3h21zM268 330l-6 130h24l-1 -130h-17z" />
    <glyph glyph-name="lcaron" unicode="&#x13e;" horiz-adv-x="185" 
d="M128 -3q-34 0 -49 19t-15 68v397q0 8 1.5 13.5t5 8t11.5 2.5h15l-0.5 -8.5t-0.5 -24.5v-381q0 -38 8 -56t34 -18q6 0 19 1.5t17 3.5v-20q-5 -1 -16 -3t-30 -2zM165 375l6 130h24l-13 -130h-17z" />
    <glyph glyph-name="Ldot" unicode="&#x13f;" horiz-adv-x="415" 
d="M130 460v-436h312v-24h-347v437q0 8 0.5 12.5t4 7.5t9.5 3h21zM240 218q0 13 7.5 16.5t16.5 3.5q10 0 17 -3.5t7 -16.5q0 -8 -3.5 -12t-9 -5t-10.5 -1q-6 0 -11.5 1t-9.5 5t-4 12z" />
    <glyph glyph-name="ldot" unicode="&#x140;" horiz-adv-x="206" 
d="M128 -3q-34 0 -49 19t-15 68v397q0 8 1.5 13.5t5 8t11.5 2.5h15l-0.5 -8.5t-0.5 -24.5v-381q0 -38 8 -56t34 -18q6 0 19 1.5t17 3.5v-20q-5 -1 -16 -3t-30 -2zM149 218q0 13 7.5 16.5t16.5 3.5q10 0 17 -3.5t7 -16.5q0 -8 -3.5 -12t-9 -5t-10.5 -1q-6 0 -11.5 1t-9.5 5
t-4 12z" />
    <glyph glyph-name="Lslash" unicode="&#x141;" horiz-adv-x="422" 
d="M194 206l4 -16l-193 -70l-6 17zM136 460v-436h313v-24h-347v437q0 8 0.5 12.5t3.5 7.5t10 3h20z" />
    <glyph glyph-name="lslash" unicode="&#x142;" horiz-adv-x="208" 
d="M192 209l5 -16l-191 -67l-5 17zM132 -3q-35 0 -49.5 19t-14.5 68v397q0 8 1 13.5t5 8t11 2.5h16l-0.5 -8.5t-0.5 -24.5v-381q0 -38 8 -56t34 -18q5 0 18 1.5t17 3.5v-20q-5 -1 -15.5 -3t-29.5 -2z" />
    <glyph glyph-name="Nacute" unicode="&#x143;" horiz-adv-x="601" 
d="M95 0v426q0 24 2 29t16 5h25l337 -423l1 8v415h30q-1 -1 -1.5 -5.5t-0.5 -9.5v-11v-401q0 -23 -3 -28t-17 -5h-25l-336 424v-6v-418h-28zM277 521l95 86l21 -20l-98 -66h-18z" />
    <glyph glyph-name="nacute" unicode="&#x144;" horiz-adv-x="459" 
d="M83 0q-16 0 -16 16v352q29 14 70.5 24.5t98.5 10.5q50 0 81.5 -7t49 -21t24 -35.5t6.5 -50.5v-272q0 -5 -1.5 -9.5t-6 -6t-10.5 -1.5h-14v292q0 44 -29 65.5t-100 21.5q-22 0 -48.5 -3.5t-50.5 -9.5t-38 -17v-349h-16zM213 460l100 105l22 -21l-104 -84h-18z" />
    <glyph glyph-name="uni0145" unicode="&#x145;" horiz-adv-x="601" 
d="M95 0v426q0 24 2 29t16 5h25l337 -423l1 8v415h30q-1 -1 -1.5 -5.5t-0.5 -9.5v-11v-401q0 -23 -3 -28t-17 -5h-25l-336 424v-6v-418h-28zM279 -175q5 14 9 27.5t7 25.5t3 18h-1.5h-2.5q-6 0 -13 3.5t-7 14.5q0 13 7.5 16t20.5 3q7 0 12 -1.5t7 -6t2 -13.5
q0 -13 -5.5 -31.5t-12.5 -34.5t-10 -21h-16z" />
    <glyph glyph-name="uni0146" unicode="&#x146;" horiz-adv-x="459" 
d="M83 0q-16 0 -16 16v352q29 14 70.5 24.5t98.5 10.5q50 0 81.5 -7t49 -21t24 -35.5t6.5 -50.5v-272q0 -5 -1.5 -9.5t-6 -6t-10.5 -1.5h-14v292q0 44 -29 65.5t-100 21.5q-22 0 -48.5 -3.5t-50.5 -9.5t-38 -17v-349h-16zM211 -175q5 14 9 27.5t7 25.5t3 18h-1.5h-2.5
q-6 0 -13 3.5t-7 14.5q0 13 7.5 16t20.5 3q7 0 12 -1.5t7 -6t2 -13.5q0 -13 -5.5 -31.5t-12.5 -34.5t-10 -21h-16z" />
    <glyph glyph-name="Ncaron" unicode="&#x147;" horiz-adv-x="601" 
d="M212 607h20l68 -65l68 65h21l-79 -86h-20zM95 0v426q0 24 2 29t16 5h25l337 -423l1 8v415h30q-1 -1 -1.5 -5.5t-0.5 -9.5v-11v-401q0 -23 -3 -28t-17 -5h-25l-336 424v-6v-418h-28z" />
    <glyph glyph-name="ncaron" unicode="&#x148;" horiz-adv-x="459" 
d="M143 565h20l69 -83l69 83h21l-80 -105h-19zM83 0q-16 0 -16 16v352q29 14 70.5 24.5t98.5 10.5q50 0 81.5 -7t49 -21t24 -35.5t6.5 -50.5v-272q0 -5 -1.5 -9.5t-6 -6t-10.5 -1.5h-14v292q0 44 -29 65.5t-100 21.5q-22 0 -48.5 -3.5t-50.5 -9.5t-38 -17v-349h-16z" />
    <glyph glyph-name="napostrophe" unicode="&#x149;" horiz-adv-x="449" 
d="M9 379q8 19 13.5 40t6.5 30h-1.5h-3.5q-5 0 -12 3t-7 14q0 9 3.5 13t9 5t13.5 1q12 0 17 -4.5t5 -16.5q0 -13 -5.5 -31.5t-12 -34t-9.5 -19.5h-17zM86 0q-16 0 -16 16v352q30 14 71.5 24.5t97.5 10.5q50 0 81.5 -7t49 -21t24 -35.5t6.5 -50.5v-272q0 -5 -1.5 -9.5
t-5.5 -6t-11 -1.5h-14v292q0 44 -28.5 65.5t-100.5 21.5q-22 0 -48.5 -3.5t-50 -9.5t-38.5 -17v-349h-16z" />
    <glyph glyph-name="Eng" unicode="&#x14a;" horiz-adv-x="603" 
d="M95 0q2 2 2 9.5v15.5v200.5v200.5q0 24 2.5 29t16.5 5h13h11q85 -106 169.5 -211.5t169.5 -212.5v212.5v211.5h14.5h14.5q-1 -1 -1.5 -5.5t-0.5 -9.5v-11v-234.5v-233.5q0 -21 0.5 -51t-2.5 -48q-2 -13 -10.5 -25.5t-23 -20.5t-37.5 -8h-18t-23 1.5t-23 3.5v13v12
q5 -2 19.5 -4.5t22.5 -2.5q32 0 45.5 12t13.5 43v52v51h-2h-3l-340 430v-212v-212h-15h-15z" />
    <glyph glyph-name="eng" unicode="&#x14b;" horiz-adv-x="430" 
d="M41 368q6 3 22.5 11t52.5 15.5t100 7.5q48 0 78 -6.5t47 -20.5t23.5 -35.5t6.5 -50.5v-202q0 -33 0.5 -54t0.5 -26q0 -21 -1 -38t-4 -30t-10 -22t-19 -13.5t-31 -4.5q-17 0 -32.5 2t-23.5 3q0 3 0.5 6t0.5 6v6q39 -5 58 0t24 22.5t5 48.5v150v150q0 45 -32 66.5t-94 21.5
q-35 0 -65.5 -4.5t-50.5 -12t-24 -20.5v-344h-3h-4.5h-5h-3.5q-8 0 -12 3.5t-4 13.5v351z" />
    <glyph glyph-name="Omacron" unicode="&#x14c;" horiz-adv-x="572" 
d="M281 -7q-50 0 -91.5 8t-72.5 31.5t-48 71t-17 127.5q0 82 19 130t51.5 71t76.5 30t92 7q50 0 91.5 -8t72.5 -31.5t48 -71t17 -127.5q0 -82 -19 -130t-51.5 -71t-76 -30t-92.5 -7zM285 16q47 0 83.5 7.5t62.5 29.5t39.5 64.5t13.5 113.5q0 70 -13.5 113t-39.5 65
t-62.5 29.5t-83.5 7.5t-83.5 -7.5t-62 -29.5t-38.5 -65t-13 -113q0 -71 13 -113.5t38.5 -64.5t62 -29.5t83.5 -7.5zM184 522v17h203v-17h-203z" />
    <glyph glyph-name="omacron" unicode="&#x14d;" horiz-adv-x="465" 
d="M233 -5q-40 0 -73 6t-58 26.5t-38.5 61.5t-13.5 110t13.5 110t38.5 61.5t58 26.5t73 6q39 0 72.5 -6t58.5 -26.5t38.5 -61.5t13.5 -110q0 -70 -13.5 -111t-38.5 -61t-58.5 -26t-72.5 -6zM233 17q46 0 80 12.5t51.5 51t17.5 118.5t-17.5 118.5t-51.5 51t-80 12.5
t-79.5 -12.5t-52 -51t-18.5 -118.5t18.5 -118.5t52 -51t79.5 -12.5zM135 461v21h196v-21h-196z" />
    <glyph glyph-name="Obreve" unicode="&#x14e;" horiz-adv-x="572" 
d="M281 -7q-50 0 -91.5 8t-72.5 31.5t-48 71t-17 127.5q0 82 19 130t51.5 71t76.5 30t92 7q50 0 91.5 -8t72.5 -31.5t48 -71t17 -127.5q0 -82 -19 -130t-51.5 -71t-76 -30t-92.5 -7zM285 16q47 0 83.5 7.5t62.5 29.5t39.5 64.5t13.5 113.5q0 70 -13.5 113t-39.5 65
t-62.5 29.5t-83.5 7.5t-83.5 -7.5t-62 -29.5t-38.5 -65t-13 -113q0 -71 13 -113.5t38.5 -64.5t62 -29.5t83.5 -7.5zM286 521q-23 0 -44 5t-35 22.5t-15 52.5v5h23v-4q0 -14 4.5 -28.5t19.5 -24t45 -9.5q32 0 47.5 9.5t20.5 23.5t5 29v4h21v-4q0 -36 -13.5 -53t-34 -22
t-44.5 -6z" />
    <glyph glyph-name="obreve" unicode="&#x14f;" horiz-adv-x="465" 
d="M233 -5q-40 0 -73 6t-58 26.5t-38.5 61.5t-13.5 110t13.5 110t38.5 61.5t58 26.5t73 6q39 0 72.5 -6t58.5 -26.5t38.5 -61.5t13.5 -110q0 -70 -13.5 -111t-38.5 -61t-58.5 -26t-72.5 -6zM233 17q46 0 80 12.5t51.5 51t17.5 118.5t-17.5 118.5t-51.5 51t-80 12.5
t-79.5 -12.5t-52 -51t-18.5 -118.5t18.5 -118.5t52 -51t79.5 -12.5zM232 458q-31 0 -51.5 11.5t-30 33.5t-9.5 53h18q0 -37 18.5 -56.5t54.5 -19.5q42 0 58 19.5t16 56.5h18q0 -31 -8.5 -53t-28.5 -33.5t-55 -11.5z" />
    <glyph glyph-name="Ohungarumlaut" unicode="&#x150;" horiz-adv-x="572" 
d="M281 -7q-50 0 -91.5 8t-72.5 31.5t-48 71t-17 127.5q0 82 19 130t51.5 71t76.5 30t92 7q50 0 91.5 -8t72.5 -31.5t48 -71t17 -127.5q0 -82 -19 -130t-51.5 -71t-76 -30t-92.5 -7zM285 16q47 0 83.5 7.5t62.5 29.5t39.5 64.5t13.5 113.5q0 70 -13.5 113t-39.5 65
t-62.5 29.5t-83.5 7.5t-83.5 -7.5t-62 -29.5t-38.5 -65t-13 -113q0 -71 13 -113.5t38.5 -64.5t62 -29.5t83.5 -7.5zM329 521l20 86h32l-34 -86h-18zM230 521l21 86h30l-32 -86h-19z" />
    <glyph glyph-name="ohungarumlaut" unicode="&#x151;" horiz-adv-x="465" 
d="M233 -5q-40 0 -73 6t-58 26.5t-38.5 61.5t-13.5 110t13.5 110t38.5 61.5t58 26.5t73 6q39 0 72.5 -6t58.5 -26.5t38.5 -61.5t13.5 -110q0 -70 -13.5 -111t-38.5 -61t-58.5 -26t-72.5 -6zM233 17q46 0 80 12.5t51.5 51t17.5 118.5t-17.5 118.5t-51.5 51t-80 12.5
t-79.5 -12.5t-52 -51t-18.5 -118.5t18.5 -118.5t52 -51t79.5 -12.5zM275 460l29 105h32l-43 -105h-18zM176 460l29 105h32l-42 -105h-19z" />
    <glyph glyph-name="OE" unicode="&#x152;" horiz-adv-x="883" 
d="M281 -7q-50 0 -91.5 8t-72.5 31.5t-48 71t-17 127.5q0 82 19 130t51.5 71t76.5 30t92 7q50 0 91.5 -8t72.5 -31.5t48 -71t17 -127.5q0 -82 -19 -130t-51.5 -71t-76 -30t-92.5 -7zM285 16q47 0 83.5 7.5t62.5 29.5t39.5 64.5t13.5 113.5q0 70 -13.5 113t-39.5 65
t-62.5 29.5t-83.5 7.5t-83.5 -7.5t-62 -29.5t-38.5 -65t-13 -113q0 -71 13 -113.5t38.5 -64.5t62 -29.5t83.5 -7.5zM516 0v437q0 12 2 17.5t12 5.5h365v-24h-344v-180h318v-24h-318v-208h344v-24h-379z" />
    <glyph glyph-name="oe" unicode="&#x153;" horiz-adv-x="777" 
d="M233 -5q-40 0 -73 6t-58 26.5t-38.5 61.5t-13.5 110t13.5 110t38.5 61.5t58 26.5t73 6q39 0 72.5 -6t58.5 -26.5t38.5 -61.5t13.5 -110q0 -70 -13.5 -111t-38.5 -61t-58.5 -26t-72.5 -6zM233 17q46 0 80 12.5t51.5 51t17.5 118.5t-17.5 118.5t-51.5 51t-80 12.5
t-79.5 -12.5t-52 -51t-18.5 -118.5t18.5 -118.5t52 -51t79.5 -12.5zM576 -7q-52 0 -89 8.5t-59.5 31t-32.5 62.5t-10 104q0 70 16 115.5t58 68t117 22.5q59 0 95 -17t52 -53.5t16 -92.5v-48h-284q0 8 4 14t16 6h234l-1 32q-2 71 -31.5 103t-100.5 32q-60 0 -95 -18.5
t-49.5 -58t-14.5 -105.5q0 -74 15.5 -113.5t51 -54t95.5 -14.5q19 0 41.5 1.5t44.5 4.5t40 7t27 8v-9q0 -7 -5.5 -13t-25.5 -11q-24 -6 -56.5 -9t-68.5 -3z" />
    <glyph glyph-name="Racute" unicode="&#x154;" horiz-adv-x="570" 
d="M369 206h-32.5h-87t-124.5 -1v-205h-35v413q0 29 12.5 37.5t35.5 9.5q15 1 37 1t48 0.5t52.5 0.5h52t45.5 -1t33 -2q52 -5 74.5 -35.5t22.5 -86.5q0 -41 -14.5 -68.5t-41.5 -41.5q-2 -1 -6 -2t-7 -1v-1h5.5h5.5q38 -7 46 -31t8 -48v-126q0 -6 1 -11.5t2 -6.5h-21
q-8 0 -13 3.5t-5 20.5v124q0 31 -13.5 44.5t-47.5 13.5h-33zM125 230q16 0 49.5 -0.5t73 -1t73.5 -0.5h49q38 0 67 23t29 85q0 43 -16.5 68.5t-53.5 29.5q-23 3 -57.5 4t-71.5 0.5t-68 -1t-48 -1.5q-4 0 -15 -4t-11 -23v-179zM271 521l95 86l21 -20l-98 -66h-18z" />
    <glyph glyph-name="racute" unicode="&#x155;" horiz-adv-x="356" 
d="M100 0h-14q-9 0 -14 4t-5 15v360q19 6 50.5 14.5t84.5 8.5q46 0 73 -7t39.5 -19t16.5 -27t4 -31h-32l-1 14q-1 23 -17 33t-39 12.5t-44 2.5q-34 0 -60 -6t-42 -14v-360zM177 460l100 105l22 -21l-104 -84h-18z" />
    <glyph glyph-name="uni0156" unicode="&#x156;" horiz-adv-x="570" 
d="M369 206h-32.5h-87t-124.5 -1v-205h-35v413q0 29 12.5 37.5t35.5 9.5q15 1 37 1t48 0.5t52.5 0.5h52t45.5 -1t33 -2q52 -5 74.5 -35.5t22.5 -86.5q0 -41 -14.5 -68.5t-41.5 -41.5q-2 -1 -6 -2t-7 -1v-1h5.5h5.5q38 -7 46 -31t8 -48v-126q0 -6 1 -11.5t2 -6.5h-21
q-8 0 -13 3.5t-5 20.5v124q0 31 -13.5 44.5t-47.5 13.5h-33zM125 230q16 0 49.5 -0.5t73 -1t73.5 -0.5h49q38 0 67 23t29 85q0 43 -16.5 68.5t-53.5 29.5q-23 3 -57.5 4t-71.5 0.5t-68 -1t-48 -1.5q-4 0 -15 -4t-11 -23v-179zM272 -175q5 14 9 27.5t7 25.5t3 18h-1.5h-2.5
q-6 0 -13 3.5t-7 14.5q0 13 7.5 16t20.5 3q7 0 12 -1.5t7 -6t2 -13.5q0 -13 -5.5 -31.5t-12.5 -34.5t-10 -21h-16z" />
    <glyph glyph-name="uni0157" unicode="&#x157;" horiz-adv-x="356" 
d="M100 0h-14q-9 0 -14 4t-5 15v360q19 6 50.5 14.5t84.5 8.5q46 0 73 -7t39.5 -19t16.5 -27t4 -31h-32l-1 14q-1 23 -17 33t-39 12.5t-44 2.5q-34 0 -60 -6t-42 -14v-360zM67 -175q5 14 9 27.5t7 25.5t3 18h-1.5h-2.5q-6 0 -13 3.5t-7 14.5q0 13 7.5 16t20.5 3q7 0 12 -1.5
t7 -6t2 -13.5q0 -13 -5.5 -31.5t-12.5 -34.5t-10 -21h-16z" />
    <glyph glyph-name="Rcaron" unicode="&#x158;" horiz-adv-x="570" 
d="M205 607h21l67 -65l68 65h22l-80 -86h-19zM369 206h-32.5h-87t-124.5 -1v-205h-35v413q0 29 12.5 37.5t35.5 9.5q15 1 37 1t48 0.5t52.5 0.5h52t45.5 -1t33 -2q52 -5 74.5 -35.5t22.5 -86.5q0 -41 -14.5 -68.5t-41.5 -41.5q-2 -1 -6 -2t-7 -1v-1h5.5h5.5q38 -7 46 -31
t8 -48v-126q0 -6 1 -11.5t2 -6.5h-21q-8 0 -13 3.5t-5 20.5v124q0 31 -13.5 44.5t-47.5 13.5h-33zM125 230q16 0 49.5 -0.5t73 -1t73.5 -0.5h49q38 0 67 23t29 85q0 43 -16.5 68.5t-53.5 29.5q-23 3 -57.5 4t-71.5 0.5t-68 -1t-48 -1.5q-4 0 -15 -4t-11 -23v-179z" />
    <glyph glyph-name="rcaron" unicode="&#x159;" horiz-adv-x="356" 
d="M107 565h20l69 -83l69 83h21l-80 -105h-19zM100 0h-14q-9 0 -14 4t-5 15v360q19 6 50.5 14.5t84.5 8.5q46 0 73 -7t39.5 -19t16.5 -27t4 -31h-32l-1 14q-1 23 -17 33t-39 12.5t-44 2.5q-34 0 -60 -6t-42 -14v-360z" />
    <glyph glyph-name="Sacute" unicode="&#x15a;" horiz-adv-x="517" 
d="M57 51q20 -15 51 -22t65 -8.5t58 -1.5h20t19 1q47 1 82.5 11t55.5 34.5t20 70.5q0 56 -28.5 72t-81.5 16h-34.5h-36h-37.5q-26 0 -53.5 2.5t-50.5 12t-36.5 31.5t-13.5 61q0 47 17.5 74t48.5 39.5t70 16t82 3.5q26 0 59 -1.5t63 -6t48 -16.5q7 -3 11 -7t4 -10v-6.5v-7
v-6.5q-10 11 -31 18.5t-46 11.5t-48.5 5.5t-37.5 1.5h-44q-41 0 -78 -6.5t-60.5 -29t-23.5 -71.5q0 -38 16 -55.5t44 -22.5t65 -5h55h50q42 0 74.5 -7.5t51.5 -31.5t19 -77q0 -52 -24.5 -81.5t-66 -42t-93.5 -15.5q-13 -1 -26.5 -1h-27.5q-16 0 -44 1.5t-57 6t-49 12.5
t-20 23v14zM252 521l95 86l21 -20l-98 -66h-18z" />
    <glyph glyph-name="sacute" unicode="&#x15b;" horiz-adv-x="418" 
d="M186 -5q-14 0 -39 1t-51.5 5t-46.5 13q-7 3 -10 5.5t-4 9t-1 16.5q17 -12 46 -18t58.5 -7.5t45.5 -1.5q36 0 67 3t55 13t37.5 30.5t13.5 53.5q0 49 -25.5 62.5t-70.5 13.5h-94q-32 0 -63 4.5t-51.5 24.5t-20.5 65q0 51 24.5 76t68 32.5t99.5 7.5q21 0 50 -1.5t59 -7.5
q16 -2 27 -5.5t17 -9t6 -13.5v-17q-11 11 -30.5 17t-43 9t-48.5 4t-47 1q-37 0 -72 -4.5t-57 -23.5t-22 -63q0 -33 13.5 -48.5t38 -20t56.5 -4.5h91q37 0 65.5 -6t44.5 -27t16 -68q0 -51 -27 -77t-72.5 -35t-102.5 -9zM192 460l100 105l22 -21l-104 -84h-18z" />
    <glyph glyph-name="Scircumflex" unicode="&#x15c;" horiz-adv-x="517" 
d="M57 51q20 -15 51 -22t65 -8.5t58 -1.5h20t19 1q47 1 82.5 11t55.5 34.5t20 70.5q0 56 -28.5 72t-81.5 16h-34.5h-36h-37.5q-26 0 -53.5 2.5t-50.5 12t-36.5 31.5t-13.5 61q0 47 17.5 74t48.5 39.5t70 16t82 3.5q26 0 59 -1.5t63 -6t48 -16.5q7 -3 11 -7t4 -10v-6.5v-7
v-6.5q-10 11 -31 18.5t-46 11.5t-48.5 5.5t-37.5 1.5h-44q-41 0 -78 -6.5t-60.5 -29t-23.5 -71.5q0 -38 16 -55.5t44 -22.5t65 -5h55h50q42 0 74.5 -7.5t51.5 -31.5t19 -77q0 -52 -24.5 -81.5t-66 -42t-93.5 -15.5q-13 -1 -26.5 -1h-27.5q-16 0 -44 1.5t-57 6t-49 12.5
t-20 23v14zM187 521l78 86h20l79 -86h-21l-68 65l-68 -65h-20z" />
    <glyph glyph-name="scircumflex" unicode="&#x15d;" horiz-adv-x="418" 
d="M186 -5q-14 0 -39 1t-51.5 5t-46.5 13q-7 3 -10 5.5t-4 9t-1 16.5q17 -12 46 -18t58.5 -7.5t45.5 -1.5q36 0 67 3t55 13t37.5 30.5t13.5 53.5q0 49 -25.5 62.5t-70.5 13.5h-94q-32 0 -63 4.5t-51.5 24.5t-20.5 65q0 51 24.5 76t68 32.5t99.5 7.5q21 0 50 -1.5t59 -7.5
q16 -2 27 -5.5t17 -9t6 -13.5v-17q-11 11 -30.5 17t-43 9t-48.5 4t-47 1q-37 0 -72 -4.5t-57 -23.5t-22 -63q0 -33 13.5 -48.5t38 -20t56.5 -4.5h91q37 0 65.5 -6t44.5 -27t16 -68q0 -51 -27 -77t-72.5 -35t-102.5 -9zM121 460l80 105h19l80 -105h-20l-70 83l-69 -83h-20z
" />
    <glyph glyph-name="Scedilla" unicode="&#x15e;" horiz-adv-x="517" 
d="M57 51q20 -15 51 -22t65 -8.5t58 -1.5h20t19 1q47 1 82.5 11t55.5 34.5t20 70.5q0 56 -28.5 72t-81.5 16h-34.5h-36h-37.5q-26 0 -53.5 2.5t-50.5 12t-36.5 31.5t-13.5 61q0 47 17.5 74t48.5 39.5t70 16t82 3.5q26 0 59 -1.5t63 -6t48 -16.5q7 -3 11 -7t4 -10v-6.5v-7
v-6.5q-10 11 -31 18.5t-46 11.5t-48.5 5.5t-37.5 1.5h-44q-41 0 -78 -6.5t-60.5 -29t-23.5 -71.5q0 -38 16 -55.5t44 -22.5t65 -5h55h50q42 0 74.5 -7.5t51.5 -31.5t19 -77q0 -52 -24.5 -81.5t-66 -42t-93.5 -15.5q-13 -1 -26.5 -1h-27.5q-16 0 -44 1.5t-57 6t-49 12.5
t-20 23v14zM236 -185q-24 0 -34.5 3.5t-10.5 13.5h23.5h44.5q30 0 40 9t10 28q0 26 -8.5 33.5t-45.5 7.5h-31q-5 0 -12.5 0.5t-13 1t-9.5 1.5q2 3 11.5 14.5t22 26.5t23 28.5t15.5 19.5h14l-55 -78q47 3 71.5 0.5t32.5 -15t8 -40.5t-13 -39t-35 -13t-48 -2z" />
    <glyph glyph-name="scedilla" unicode="&#x15f;" horiz-adv-x="418" 
d="M186 -5q-14 0 -39 1t-51.5 5t-46.5 13q-7 3 -10 5.5t-4 9t-1 16.5q17 -12 46 -18t58.5 -7.5t45.5 -1.5q36 0 67 3t55 13t37.5 30.5t13.5 53.5q0 49 -25.5 62.5t-70.5 13.5h-94q-32 0 -63 4.5t-51.5 24.5t-20.5 65q0 51 24.5 76t68 32.5t99.5 7.5q21 0 50 -1.5t59 -7.5
q16 -2 27 -5.5t17 -9t6 -13.5v-17q-11 11 -30.5 17t-43 9t-48.5 4t-47 1q-37 0 -72 -4.5t-57 -23.5t-22 -63q0 -33 13.5 -48.5t38 -20t56.5 -4.5h91q37 0 65.5 -6t44.5 -27t16 -68q0 -51 -27 -77t-72.5 -35t-102.5 -9zM183 -185q-24 0 -34.5 3.5t-10.5 13.5h23.5h44.5
q30 0 40 9t10 28q0 26 -8.5 33.5t-45.5 7.5h-31q-5 0 -12.5 0.5t-13 1t-9.5 1.5q2 3 11.5 14.5t22 26.5t23 28.5t15.5 19.5h14l-55 -78q47 3 71.5 0.5t32.5 -15t8 -40.5t-13 -39t-35 -13t-48 -2z" />
    <glyph glyph-name="Scaron" unicode="&#x160;" horiz-adv-x="517" 
d="M187 607h20l68 -65l68 65h21l-79 -86h-20zM57 51q20 -15 51 -22t65 -8.5t58 -1.5h20t19 1q47 1 82.5 11t55.5 34.5t20 70.5q0 56 -28.5 72t-81.5 16h-34.5h-36h-37.5q-26 0 -53.5 2.5t-50.5 12t-36.5 31.5t-13.5 61q0 47 17.5 74t48.5 39.5t70 16t82 3.5q26 0 59 -1.5
t63 -6t48 -16.5q7 -3 11 -7t4 -10v-6.5v-7v-6.5q-10 11 -31 18.5t-46 11.5t-48.5 5.5t-37.5 1.5h-44q-41 0 -78 -6.5t-60.5 -29t-23.5 -71.5q0 -38 16 -55.5t44 -22.5t65 -5h55h50q42 0 74.5 -7.5t51.5 -31.5t19 -77q0 -52 -24.5 -81.5t-66 -42t-93.5 -15.5q-13 -1 -26.5 -1
h-27.5q-16 0 -44 1.5t-57 6t-49 12.5t-20 23v14z" />
    <glyph glyph-name="scaron" unicode="&#x161;" horiz-adv-x="418" 
d="M122 565h20l69 -83l70 83h20l-80 -105h-19zM186 -5q-14 0 -39 1t-51.5 5t-46.5 13q-7 3 -10 5.5t-4 9t-1 16.5q17 -12 46 -18t58.5 -7.5t45.5 -1.5q36 0 67 3t55 13t37.5 30.5t13.5 53.5q0 49 -25.5 62.5t-70.5 13.5h-94q-32 0 -63 4.5t-51.5 24.5t-20.5 65q0 51 24.5 76
t68 32.5t99.5 7.5q21 0 50 -1.5t59 -7.5q16 -2 27 -5.5t17 -9t6 -13.5v-17q-11 11 -30.5 17t-43 9t-48.5 4t-47 1q-37 0 -72 -4.5t-57 -23.5t-22 -63q0 -33 13.5 -48.5t38 -20t56.5 -4.5h91q37 0 65.5 -6t44.5 -27t16 -68q0 -51 -27 -77t-72.5 -35t-102.5 -9z" />
    <glyph glyph-name="uni0162" unicode="&#x162;" horiz-adv-x="457" 
d="M24 460h410v-24h-188v-413q0 -12 -2 -17.5t-12 -5.5h-21v436h-187v24zM201 -185q-24 0 -34.5 3.5t-10.5 13.5h23.5h44.5q30 0 40 9t10 28q0 26 -8.5 33.5t-45.5 7.5h-31q-5 0 -12.5 0.5t-13 1t-9.5 1.5q2 3 11.5 14.5t22 26.5t23 28.5t15.5 19.5h14l-55 -78
q47 3 71.5 0.5t32.5 -15t8 -40.5t-13 -39t-35 -13t-48 -2z" />
    <glyph glyph-name="uni0163" unicode="&#x163;" horiz-adv-x="218" 
d="M139 -3q-23 0 -37.5 7.5t-21.5 25.5t-7 49v299h-36v21h36v82q0 11 2 16t5.5 6.5t8.5 1.5h17l-0.5 -7t-0.5 -22v-77h92v-21h-92v-292q0 -39 8.5 -54t34.5 -15q11 0 21.5 2t14.5 3v-20q-5 -1 -17 -3t-28 -2zM105 -185q-24 0 -34.5 3.5t-10.5 13.5h23.5h44.5q30 0 40 9
t10 28q0 26 -8.5 33.5t-45.5 7.5h-31q-5 0 -12.5 0.5t-13 1t-9.5 1.5q2 3 11.5 14.5t22 26.5t23 28.5t15.5 19.5h14l-55 -78q47 3 71.5 0.5t32.5 -15t8 -40.5t-13 -39t-35 -13t-48 -2z" />
    <glyph glyph-name="Tcaron" unicode="&#x164;" horiz-adv-x="457" 
d="M140 607h21l67 -65l68 65h22l-80 -86h-19zM24 460h410v-24h-188v-413q0 -12 -2 -17.5t-12 -5.5h-21v436h-187v24z" />
    <glyph glyph-name="tcaron" unicode="&#x165;" horiz-adv-x="218" 
d="M139 -3q-23 0 -37.5 7.5t-21.5 25.5t-7 49v299h-36v21h36v82q0 11 2 16t5.5 6.5t8.5 1.5h17l-0.5 -7t-0.5 -22v-77h92v-21h-92v-292q0 -39 8.5 -54t34.5 -15q11 0 21.5 2t14.5 3v-20q-5 -1 -17 -3t-28 -2zM159 459l6 130h24l-13 -130h-17z" />
    <glyph glyph-name="Tbar" unicode="&#x166;" horiz-adv-x="449" 
d="M76 305h130v131h-186v24h409v-24h-187v-131h133v-12h-133v-270q0 -12 -2.5 -17.5t-12.5 -5.5h-21v293h-130v12z" />
    <glyph glyph-name="tbar" unicode="&#x167;" horiz-adv-x="233" 
d="M29 318h155v-13h-155v13zM39 399h36v82q0 8 1.5 13.5t4.5 8t10 2.5h17l-0.5 -7t-0.5 -22v-77h91v-21h-91v-286q0 -40 8 -58.5t35 -18.5q5 0 18.5 1.5t17.5 3.5v-18q-5 -1 -24 -3t-28 -2q-19 0 -30 5.5t-17 15.5t-8.5 23t-3 28.5t-0.5 32.5v276h-36v11v10z" />
    <glyph glyph-name="Utilde" unicode="&#x168;" horiz-adv-x="562" 
d="M477 182q0 -35 -3 -68.5t-21 -59.5t-58.5 -41.5t-116.5 -15.5q-57 0 -94 10t-57 28t-29 40.5t-11 49.5t-2 54v257q0 10 0.5 15t4.5 7t11 2h19v-317q0 -45 16 -71.5t51 -38t92 -11.5q86 0 124.5 28.5t38.5 93.5v316h18q8 0 12 -2t4.5 -7t0.5 -15v-254zM326 519
q-16 0 -31 8.5t-31 17t-31 8.5q-16 0 -26 -10t-14 -17l-12 9q1 3 4.5 9.5t10.5 14t16 13.5t23 6q16 0 31 -9l30 -18t29 -9q20 0 30 12t13 20l12 -11q-1 -3 -4.5 -10t-9.5 -14.5t-16 -13.5t-24 -6z" />
    <glyph glyph-name="utilde" unicode="&#x169;" horiz-adv-x="454" 
d="M89 399v-276q0 -58 34 -81t102 -23q74 0 107 24.5t33 79.5v276h3h4.5h4.5h3q8 0 11.5 -1.5t4.5 -5.5t1 -13v-245q0 -45 -14 -76t-51 -46.5t-107 -15.5q-62 0 -99 13.5t-53 43t-16 79.5v247q0 12 3.5 16t12.5 4h8h8zM273 457q-16 0 -31 9t-31 17.5t-31 8.5q-16 0 -24 -11
t-12 -19l-14 8q2 4 5 11t9.5 15t15 13.5t22.5 5.5q16 0 31.5 -9t30 -17.5t28.5 -8.5q21 0 30.5 12t12.5 19l14 -8q-2 -4 -5.5 -11.5t-10 -15.5t-16.5 -13.5t-24 -5.5z" />
    <glyph glyph-name="Umacron" unicode="&#x16a;" horiz-adv-x="562" 
d="M477 182q0 -35 -3 -68.5t-21 -59.5t-58.5 -41.5t-116.5 -15.5q-57 0 -94 10t-57 28t-29 40.5t-11 49.5t-2 54v257q0 10 0.5 15t4.5 7t11 2h19v-317q0 -45 16 -71.5t51 -38t92 -11.5q86 0 124.5 28.5t38.5 93.5v316h18q8 0 12 -2t4.5 -7t0.5 -15v-254zM179 522v17h203v-17
h-203z" />
    <glyph glyph-name="umacron" unicode="&#x16b;" horiz-adv-x="454" 
d="M89 399v-276q0 -58 34 -81t102 -23q74 0 107 24.5t33 79.5v276h3h4.5h4.5h3q8 0 11.5 -1.5t4.5 -5.5t1 -13v-245q0 -45 -14 -76t-51 -46.5t-107 -15.5q-62 0 -99 13.5t-53 43t-16 79.5v247q0 12 3.5 16t12.5 4h8h8zM131 461v21h196v-21h-196z" />
    <glyph glyph-name="Ubreve" unicode="&#x16c;" horiz-adv-x="562" 
d="M477 182q0 -35 -3 -68.5t-21 -59.5t-58.5 -41.5t-116.5 -15.5q-57 0 -94 10t-57 28t-29 40.5t-11 49.5t-2 54v257q0 10 0.5 15t4.5 7t11 2h19v-317q0 -45 16 -71.5t51 -38t92 -11.5q86 0 124.5 28.5t38.5 93.5v316h18q8 0 12 -2t4.5 -7t0.5 -15v-254zM281 521
q-23 0 -44 5t-35 22.5t-15 52.5v5h23v-4q0 -14 4.5 -28.5t19.5 -24t45 -9.5q32 0 47.5 9.5t20.5 23.5t5 29v4h21v-4q0 -36 -13.5 -53t-34 -22t-44.5 -6z" />
    <glyph glyph-name="ubreve" unicode="&#x16d;" horiz-adv-x="454" 
d="M89 399v-276q0 -58 34 -81t102 -23q74 0 107 24.5t33 79.5v276h3h4.5h4.5h3q8 0 11.5 -1.5t4.5 -5.5t1 -13v-245q0 -45 -14 -76t-51 -46.5t-107 -15.5q-62 0 -99 13.5t-53 43t-16 79.5v247q0 12 3.5 16t12.5 4h8h8zM228 458q-31 0 -51.5 11.5t-30 33.5t-9.5 53h18
q0 -37 18.5 -56.5t54.5 -19.5q42 0 58 19.5t16 56.5h18q0 -31 -8.5 -53t-28.5 -33.5t-55 -11.5z" />
    <glyph glyph-name="Uring" unicode="&#x16e;" horiz-adv-x="562" 
d="M477 182q0 -35 -3 -68.5t-21 -59.5t-58.5 -41.5t-116.5 -15.5q-57 0 -94 10t-57 28t-29 40.5t-11 49.5t-2 54v257q0 10 0.5 15t4.5 7t11 2h19v-317q0 -45 16 -71.5t51 -38t92 -11.5q86 0 124.5 28.5t38.5 93.5v316h18q8 0 12 -2t4.5 -7t0.5 -15v-254zM281 522
q-25 0 -38.5 5t-19 14.5t-5.5 23.5t5.5 23t19 13.5t38.5 4.5t39 -4.5t19 -13.5t5 -23t-5 -23.5t-19 -14.5t-39 -5zM281 537q20 0 31 5.5t11 22.5q0 16 -11 21.5t-31 5.5q-19 0 -30.5 -5.5t-11.5 -21.5q0 -17 11 -22.5t31 -5.5z" />
    <glyph glyph-name="uring" unicode="&#x16f;" horiz-adv-x="454" 
d="M89 399v-276q0 -58 34 -81t102 -23q74 0 107 24.5t33 79.5v276h3h4.5h4.5h3q8 0 11.5 -1.5t4.5 -5.5t1 -13v-245q0 -45 -14 -76t-51 -46.5t-107 -15.5q-62 0 -99 13.5t-53 43t-16 79.5v247q0 12 3.5 16t12.5 4h8h8zM220 460q-38 0 -50.5 12.5t-12.5 40.5q0 27 12.5 39.5
t50.5 12.5q39 0 51 -12.5t12 -39.5q0 -28 -12.5 -40.5t-50.5 -12.5zM220 476q20 0 31 6.5t11 30.5t-11 30.5t-31 6.5q-19 0 -30.5 -6.5t-11.5 -30.5t11 -30.5t31 -6.5z" />
    <glyph glyph-name="Uhungarumlaut" unicode="&#x170;" horiz-adv-x="562" 
d="M477 182q0 -35 -3 -68.5t-21 -59.5t-58.5 -41.5t-116.5 -15.5q-57 0 -94 10t-57 28t-29 40.5t-11 49.5t-2 54v257q0 10 0.5 15t4.5 7t11 2h19v-317q0 -45 16 -71.5t51 -38t92 -11.5q86 0 124.5 28.5t38.5 93.5v316h18q8 0 12 -2t4.5 -7t0.5 -15v-254zM324 521l20 86h32
l-34 -86h-18zM225 521l21 86h30l-32 -86h-19z" />
    <glyph glyph-name="uhungarumlaut" unicode="&#x171;" horiz-adv-x="454" 
d="M89 399v-276q0 -58 34 -81t102 -23q74 0 107 24.5t33 79.5v276h3h4.5h4.5h3q8 0 11.5 -1.5t4.5 -5.5t1 -13v-245q0 -45 -14 -76t-51 -46.5t-107 -15.5q-62 0 -99 13.5t-53 43t-16 79.5v247q0 12 3.5 16t12.5 4h8h8zM270 460l29 105h32l-43 -105h-18zM171 460l29 105h32
l-42 -105h-19z" />
    <glyph glyph-name="Uogonek" unicode="&#x172;" horiz-adv-x="562" 
d="M477 182q0 -35 -3 -68.5t-21 -59.5t-58.5 -41.5t-116.5 -15.5q-57 0 -94 10t-57 28t-29 40.5t-11 49.5t-2 54v257q0 10 0.5 15t4.5 7t11 2h19v-317q0 -45 16 -71.5t51 -38t92 -11.5q86 0 124.5 28.5t38.5 93.5v316h18q8 0 12 -2t4.5 -7t0.5 -15v-254zM301 -170
q-31 0 -51.5 5.5t-31 19.5t-10.5 40q0 21 12 39.5t28 33.5t32.5 26.5t26.5 16.5h24q-7 -3 -23 -14t-33 -27t-29 -34t-12 -34q0 -33 17.5 -43.5t48.5 -10.5q9 0 17.5 0.5t14.5 1t8 0.5q0 -7 -2.5 -11.5t-10.5 -6.5t-26 -2z" />
    <glyph glyph-name="uogonek" unicode="&#x173;" horiz-adv-x="454" 
d="M89 399v-276q0 -58 34 -81t102 -23q74 0 107 24.5t33 79.5v276h3h4.5h4.5h3q8 0 11.5 -1.5t4.5 -5.5t1 -13v-245q0 -45 -14 -76t-51 -46.5t-107 -15.5q-62 0 -99 13.5t-53 43t-16 79.5v247q0 12 3.5 16t12.5 4h8h8zM246 -172q-31 0 -51.5 5.5t-31 19.5t-10.5 40
q0 21 12 39.5t28 33.5t32.5 26.5t26.5 16.5h24q-7 -3 -23 -14t-33 -27t-29 -34t-12 -34q0 -33 17.5 -43.5t48.5 -10.5q9 0 17.5 0.5t14.5 1t8 0.5q0 -7 -2.5 -11.5t-10.5 -6.5t-26 -2z" />
    <glyph glyph-name="Wcircumflex" unicode="&#x174;" horiz-adv-x="666" 
d="M188 0q-28 0 -45.5 3.5t-27.5 20.5t-16 57l-51 379h35l49 -377q5 -32 14.5 -42.5t37.5 -10.5h35l92 430h36l94 -430h38q21 0 32.5 8t14.5 28l50 394h30l-51 -385q-5 -37 -16 -53t-30.5 -19t-48.5 -3h-42l-84 382l-6 28l-7 -29l-80 -381h-53zM243 521l78 86h20l79 -86h-21
l-68 65l-68 -65h-20z" />
    <glyph glyph-name="wcircumflex" unicode="&#x175;" horiz-adv-x="640" 
d="M194 -2q-46 0 -76 7.5t-45.5 33t-15.5 79.5v253q0 17 3 22.5t15 5.5h14v-286q0 -56 25.5 -74t81.5 -18q58 0 83.5 19t25.5 53l-1 306h33v-306q0 -34 25 -53t83 -19q56 0 81 18t25 74v286h14q13 0 15.5 -5.5t2.5 -22.5v-253q0 -53 -15.5 -79t-45 -33.5t-75.5 -7.5
q-50 0 -87 15t-45 61l10 1q-4 -29 -21.5 -46.5t-45.5 -24t-64 -6.5zM231 460l80 105h19l80 -105h-20l-70 83l-69 -83h-20z" />
    <glyph glyph-name="Ycircumflex" unicode="&#x176;" horiz-adv-x="421" 
d="M190 0v189l-155 246l-17 25h42l152 -244l159 244h32l-19 -27l-159 -244v-166q0 -7 -1 -12.5t-4.5 -8t-10.5 -2.5h-19zM133 521l78 86h20l79 -86h-21l-68 65l-68 -65h-20z" />
    <glyph glyph-name="ycircumflex" unicode="&#x177;" horiz-adv-x="450" 
d="M219 -111q-39 0 -74.5 4.5t-58 12t-22.5 16.5v15q16 -9 41 -15t53 -9.5t56 -3.5q48 0 80.5 14.5t49.5 46t17 79.5v61q-8 -20 -28 -35t-50 -22t-68 -7q-73 0 -107.5 20t-44 57t-9.5 86v157q0 15 1 22t4 9t10 2h18v-51.5v-50.5v-50.5v-51.5q0 -57 19.5 -84t51 -34.5
t66.5 -7.5q36 0 67 9t50.5 34t19.5 73v214h15q11 0 14 -3t3 -21v-319q0 -88 -43 -127.5t-131 -39.5zM135 460l80 105h19l80 -105h-20l-70 83l-69 -83h-20z" />
    <glyph glyph-name="Ydieresis" unicode="&#x178;" horiz-adv-x="421" 
d="M190 0v189l-155 246l-17 25h42l152 -244l159 244h32l-19 -27l-159 -244v-166q0 -7 -1 -12.5t-4.5 -8t-10.5 -2.5h-19zM281 521q-8 0 -16.5 3t-8.5 18q0 14 8.5 16.5t15.5 2.5q8 0 16.5 -2.5t8.5 -16.5q0 -15 -7 -18t-17 -3zM162 521q-11 0 -18 3t-7 19q0 13 8 15.5
t16 2.5t16 -2.5t8 -15.5q0 -15 -7 -18.5t-16 -3.5z" />
    <glyph glyph-name="Zacute" unicode="&#x179;" horiz-adv-x="437" 
d="M67 24h347q0 -8 -1 -13t-4 -7.5t-8.5 -3t-16.5 -0.5h-361v28l16.5 19.5t44.5 52.5t62 73t69 81.5t66.5 78.5t52.5 64q13 14 21.5 24.5t11.5 14.5h-325q0 8 0.5 13t4.5 8t14 3h348q0 -1 -0.5 -6.5t-2 -13t-6 -16.5t-11.5 -17l-315 -375zM195 521l95 86l21 -20l-98 -66h-18
z" />
    <glyph glyph-name="zacute" unicode="&#x17a;" horiz-adv-x="367" 
d="M52 23h295l3 -7q5 -7 -0.5 -11.5t-16.5 -4.5h-318v24l291 352h-275v6q0 9 3.5 13t12.5 4h300q0 -8 -2.5 -15t-8 -15t-16.5 -21zM165 460l100 105l22 -21l-104 -84h-18z" />
    <glyph glyph-name="Zdotaccent" unicode="&#x17b;" horiz-adv-x="437" 
d="M67 24h347q0 -8 -1 -13t-4 -7.5t-8.5 -3t-16.5 -0.5h-361v28l16.5 19.5t44.5 52.5t62 73t69 81.5t66.5 78.5t52.5 64q13 14 21.5 24.5t11.5 14.5h-325q0 8 0.5 13t4.5 8t14 3h348q0 -1 -0.5 -6.5t-2 -13t-6 -16.5t-11.5 -17l-315 -375zM218 521q-12 0 -19.5 3.5
t-7.5 18.5q0 17 7.5 20.5t19.5 3.5t19 -4t7 -20q0 -15 -7 -18.5t-19 -3.5z" />
    <glyph glyph-name="zdotaccent" unicode="&#x17c;" horiz-adv-x="367" 
d="M52 23h295l3 -7q5 -7 -0.5 -11.5t-16.5 -4.5h-318v24l291 352h-275v6q0 9 3.5 13t12.5 4h300q0 -8 -2.5 -15t-8 -15t-16.5 -21zM184 460q-12 0 -19.5 3.5t-7.5 18.5q0 17 7.5 20.5t19.5 3.5t19 -4t7 -20q0 -15 -7 -18.5t-19 -3.5z" />
    <glyph glyph-name="Zcaron" unicode="&#x17d;" horiz-adv-x="437" 
d="M129 607h21l67 -65l68 65h22l-80 -86h-19zM67 24h347q0 -8 -1 -13t-4 -7.5t-8.5 -3t-16.5 -0.5h-361v28l16.5 19.5t44.5 52.5t62 73t69 81.5t66.5 78.5t52.5 64q13 14 21.5 24.5t11.5 14.5h-325q0 8 0.5 13t4.5 8t14 3h348q0 -1 -0.5 -6.5t-2 -13t-6 -16.5t-11.5 -17
l-315 -375z" />
    <glyph glyph-name="zcaron" unicode="&#x17e;" horiz-adv-x="367" 
d="M94 565h21l68 -83l70 83h20l-80 -105h-19zM52 23h295l3 -7q5 -7 -0.5 -11.5t-16.5 -4.5h-318v24l291 352h-275v6q0 9 3.5 13t12.5 4h300q0 -8 -2.5 -15t-8 -15t-16.5 -21z" />
    <glyph glyph-name="longs" unicode="&#x17f;" horiz-adv-x="262" 
d="M87 331h-32v21h32v57q2 54 14 75t56 21q26 0 46.5 -1.5t34 -3.5t14.5 -3v-19l-12.5 2t-29 3.5t-32.5 1.5q-25 0 -38.5 -7t-17.5 -26t-4 -55v-484q0 -17 -3 -30t-10 -22.5t-15.5 -15t-20 -8.5t-24.5 -3q-8 0 -20.5 1.5t-21.5 6t-9 15.5q5 -2 13.5 -4.5t24.5 -2.5
q24 0 39.5 12.5t15.5 53.5v415z" />
    <glyph glyph-name="uni018F" unicode="&#x18f;" horiz-adv-x="485" 
d="M222 469q60 0 102 -10t68 -35.5t38 -72.5t12 -120q0 -80 -18.5 -132.5t-66.5 -78.5t-137 -26q-66 0 -107.5 20t-60.5 61.5t-19 106.5q0 19 7 31t21 18t35 6h330q0 -9 -4.5 -16t-17.5 -7h-299q-13 0 -25 -8.5t-12 -28.5q0 -82 36 -119t117 -37q71 0 111 21t56 67.5
t16 121.5q0 86 -17 131.5t-57.5 62t-110.5 16.5q-18 0 -38.5 -1t-41.5 -3.5t-40 -5.5t-34 -6t-24 -8v9q0 9 7 16t29 12q29 8 66 11.5t79 3.5z" />
    <glyph glyph-name="florin" unicode="&#x192;" horiz-adv-x="265" 
d="M-1 -161q-1 2 -1 4.5v5v4.5q4 -2 14.5 -2.5t15.5 -0.5q13 0 24.5 2.5t19.5 9t13 19t5 32.5v84v82.5v83v83.5v85h-15.5h-16.5v5v6v5.5v4.5h16.5h15.5v30v30q1 27 4.5 44t12 28.5t24.5 16t41 4.5q17 0 32 -1t26.5 -2.5t18 -2.5l6.5 -1v-8.5v-6v-4.5l-7 1t-18.5 2.5
t-23.5 2.5t-23 1q-27 0 -40 -7t-17.5 -25.5t-4.5 -53.5v-24v-24h58h57v-4.5v-5.5v-6v-5h-57h-58v-142v-139v-138q0 -21 -5 -35.5t-14.5 -24t-22.5 -14t-27 -4.5q-11 0 -22 1t-19 2t-12 2z" />
    <glyph glyph-name="Ohorn" unicode="&#x1a0;" horiz-adv-x="572" 
d="M281 -7q-50 0 -91.5 8t-72.5 31.5t-48 71t-17 127.5q0 82 19 130t51.5 71t76.5 30t92 7q50 0 91.5 -8t72.5 -31.5t48 -71t17 -127.5q0 -82 -19 -130t-51.5 -71t-76 -30t-92.5 -7zM285 16q47 0 83.5 7.5t62.5 29.5t39.5 64.5t13.5 113.5q0 70 -13.5 113t-39.5 65
t-62.5 29.5t-83.5 7.5t-83.5 -7.5t-62 -29.5t-38.5 -65t-13 -113q0 -71 13 -113.5t38.5 -64.5t62 -29.5t83.5 -7.5zM395 441l-5 19h21q16 0 24.5 9t11.5 20t3 17v23h25v-20q0 -33 -21.5 -51.5t-58.5 -16.5z" />
    <glyph glyph-name="ohorn" unicode="&#x1a1;" horiz-adv-x="465" 
d="M233 -5q-40 0 -73 6t-58 26.5t-38.5 61.5t-13.5 110t13.5 110t38.5 61.5t58 26.5t73 6q39 0 72.5 -6t58.5 -26.5t38.5 -61.5t13.5 -110q0 -70 -13.5 -111t-38.5 -61t-58.5 -26t-72.5 -6zM233 17q46 0 80 12.5t51.5 51t17.5 118.5t-17.5 118.5t-51.5 51t-80 12.5
t-79.5 -12.5t-52 -51t-18.5 -118.5t18.5 -118.5t52 -51t79.5 -12.5zM302 380l-5 19h21q16 0 24.5 9t11.5 20t3 17v23h25v-20q0 -33 -21.5 -51.5t-58.5 -16.5z" />
    <glyph glyph-name="Uhorn" unicode="&#x1af;" horiz-adv-x="562" 
d="M477 182q0 -35 -3 -68.5t-21 -59.5t-58.5 -41.5t-116.5 -15.5q-57 0 -94 10t-57 28t-29 40.5t-11 49.5t-2 54v257q0 10 0.5 15t4.5 7t11 2h19v-317q0 -45 16 -71.5t51 -38t92 -11.5q86 0 124.5 28.5t38.5 93.5v316h18q8 0 12 -2t4.5 -7t0.5 -15v-254zM455 441l-5 19h21
q16 0 24.5 9t11.5 20t3 17v23h25v-20q0 -33 -21.5 -51.5t-58.5 -16.5z" />
    <glyph glyph-name="uhorn" unicode="&#x1b0;" horiz-adv-x="454" 
d="M89 399v-276q0 -58 34 -81t102 -23q74 0 107 24.5t33 79.5v276h3h4.5h4.5h3q8 0 11.5 -1.5t4.5 -5.5t1 -13v-245q0 -45 -14 -76t-51 -46.5t-107 -15.5q-62 0 -99 13.5t-53 43t-16 79.5v247q0 12 3.5 16t12.5 4h8h8zM379 380l-5 19h21q16 0 24.5 9t11.5 20t3 17v23h25v-20
q0 -33 -21.5 -51.5t-58.5 -16.5z" />
    <glyph glyph-name="uni01C5" unicode="&#x1c5;" horiz-adv-x="943" 
d="M670 565h20l69 -83l69 83h21l-80 -105h-19zM523 225q0 -87 -18 -133.5t-51.5 -66.5t-79.5 -24t-102 -4q-20 0 -47 0.5t-55 1t-49.5 1t-30.5 0.5v398q0 30 6 44.5t41 17.5q11 1 35 1.5t52.5 1t55 0.5t41.5 -1q47 -3 84.5 -9t64 -28.5t40 -69.5t13.5 -130zM125 24
q6 0 26.5 -0.5t45.5 -1t48.5 -1t35.5 -0.5q58 0 97.5 7.5t64 28.5t35 61.5t10.5 105.5q0 89 -18 135.5t-61 63t-121 16.5h-43t-57.5 -1t-42.5 -4q-10 -2 -15 -8t-5 -29v-373zM628 23h294l4 -7q5 -7 -0.5 -11.5t-16.5 -4.5h-318v24l291 352h-276v6q0 9 4 13t13 4h300
q0 -8 -2.5 -15t-8.5 -15t-16 -21z" />
    <glyph glyph-name="uni01C6" unicode="&#x1c6;" horiz-adv-x="827" 
d="M554 565h20l69 -83l69 83h21l-80 -105h-19zM50 203q0 81 20 123.5t60 58t97 15.5q16 0 40 -1t49.5 -2.5t44 -3.5t24.5 -3l-13 -8v123h30v-304q0 -67 -7.5 -107.5t-26.5 -61t-53.5 -27.5t-88.5 -7q-50 0 -84 6.5t-54.5 27t-29 61t-8.5 110.5zM215 21q52 0 83.5 5.5
t47.5 23.5t21 52.5t5 92.5l-1 175q-13 1 -38 2.5t-52.5 3t-47.5 1.5q-53 0 -86.5 -14.5t-49 -53t-15.5 -110.5q0 -77 11.5 -115t41 -50.5t80.5 -12.5zM512 23h294l4 -7q5 -7 -1 -11.5t-16 -4.5h-318v24l291 352h-276v6q0 9 3.5 13t13.5 4h299q1 -8 -1.5 -15t-8.5 -15
t-16 -21z" />
    <glyph glyph-name="uni01C7" unicode="&#x1c7;" horiz-adv-x="719" 
d="M130 460v-436h312v-24h-347v437q0 8 0.5 12.5t4 7.5t9.5 3h21zM629 150v-50.5t-3 -47.5q-2 -13 -10 -26t-22.5 -21t-38.5 -8h-17.5t-22.5 1.5t-23 3.5v25q5 -2 19.5 -4t22.5 -2q31 0 45.5 12t14.5 43v384h20q7 0 10 -2.5t4 -6.5t1 -10v-291z" />
    <glyph glyph-name="uni01C9" unicode="&#x1c9;" horiz-adv-x="358" 
d="M128 -3q-34 0 -49 19t-15 68v397q0 8 1.5 13.5t5 8t11.5 2.5h15l-0.5 -8.5t-0.5 -24.5v-381q0 -38 8 -56t34 -18q6 0 19 1.5t17 3.5v-20q-5 -1 -16 -3t-30 -2zM225 -86q-17 0 -31.5 1t-20.5 2v20q5 -1 19.5 -2t24.5 -1q28 0 35.5 13.5t7.5 53.5v380q0 6 1 10.5t4.5 6
t10.5 1.5h16v-396q0 -33 -5 -52.5t-19.5 -28t-42.5 -8.5zM277 462q-8 0 -15.5 3.5t-7.5 14.5q0 12 6.5 15.5t15.5 3.5q10 0 16.5 -3t6.5 -16q0 -11 -7 -14.5t-15 -3.5z" />
    <glyph glyph-name="uni01CA" unicode="&#x1ca;" horiz-adv-x="866" 
d="M95 0v426q0 24 2 29t16 5h25l337 -423l1 8v415h30q-1 -1 -1.5 -5.5t-0.5 -9.5v-11v-401q0 -23 -3 -28t-17 -5h-25l-336 424v-6v-418h-28zM777 150v-50.5t-3 -47.5q-2 -13 -10 -26t-22.5 -21t-38.5 -8h-17.5t-22.5 1.5t-23 3.5v25q5 -2 19.5 -4t22.5 -2q31 0 45.5 12
t14.5 43v384h20q7 0 10 -2.5t4 -6.5t1 -10v-291z" />
    <glyph glyph-name="uni01CC" unicode="&#x1cc;" horiz-adv-x="631" 
d="M83 0q-16 0 -16 16v352q29 14 70.5 24.5t98.5 10.5q50 0 81.5 -7t49 -21t24 -35.5t6.5 -50.5v-272q0 -5 -1.5 -9.5t-6 -6t-10.5 -1.5h-14v292q0 44 -29 65.5t-100 21.5q-22 0 -48.5 -3.5t-50.5 -9.5t-38 -17v-349h-16zM499 -86q-17 0 -31.5 1t-20.5 2v20q5 -1 19.5 -2
t24.5 -1q28 0 35.5 13.5t7.5 53.5v380q0 6 1 10.5t4.5 6t10.5 1.5h16v-396q0 -33 -5 -52.5t-19.5 -28t-42.5 -8.5zM551 462q-8 0 -15.5 3.5t-7.5 14.5q0 12 6.5 15.5t15.5 3.5q10 0 16.5 -3t6.5 -16q0 -11 -7 -14.5t-15 -3.5z" />
    <glyph glyph-name="Gcaron" unicode="&#x1e6;" horiz-adv-x="526" 
d="M180 607h20l68 -65l68 65h21l-79 -86h-20zM274 -9q-64 0 -106.5 12.5t-68 40.5t-36.5 73.5t-11 112.5q0 72 14.5 118.5t43.5 72t72.5 35.5t102.5 10q39 0 74.5 -2.5t69.5 -9.5q16 -2 24 -6t10.5 -9t2.5 -10v-12q-8 6 -24 9.5t-36 6.5t-41.5 5.5t-42 3.5t-36.5 1
q-75 0 -118 -20t-61.5 -66.5t-18.5 -126.5q0 -79 16.5 -126t57 -67.5t112.5 -20.5q63 0 101 13t56 49.5t20 104.5q1 15 0.5 26t-0.5 16h-198q0 10 1 15t6.5 7t15.5 2h209v-65q0 -57 -12.5 -94t-38.5 -59t-66 -31t-94 -9z" />
    <glyph glyph-name="gcaron" unicode="&#x1e7;" horiz-adv-x="467" 
d="M141 565h20l69 -83l69 83h21l-80 -105h-19zM225 -112q-12 0 -37 1.5t-50.5 5.5t-44 11t-18.5 17v7v6q15 -9 41.5 -15t55.5 -9t49 -3q59 0 92 18t46.5 59.5t10.5 111.5l14 1q-10 -36 -37 -54t-61.5 -25t-67.5 -7q-56 0 -94 13t-56 54t-18 123q0 65 11 104.5t34.5 60.5
t60 27.5t87.5 6.5q21 0 46 -1.5t49 -3t42 -3.5t26 -4q-1 -4 -2 -18.5t-1 -33.5v-35l-1 -236q0 -64 -18 -103.5t-56.5 -57.5t-102.5 -18zM216 36q45 0 78.5 9t54 29.5t21.5 53.5v240q-11 3 -47 7t-85 4q-58 0 -91.5 -14t-48.5 -51t-15 -105q0 -70 13.5 -107.5t42 -51.5
t77.5 -14z" />
    <glyph glyph-name="uni01EA" unicode="&#x1ea;" horiz-adv-x="572" 
d="M281 -7q-50 0 -91.5 8t-72.5 31.5t-48 71t-17 127.5q0 82 19 130t51.5 71t76.5 30t92 7q50 0 91.5 -8t72.5 -31.5t48 -71t17 -127.5q0 -82 -19 -130t-51.5 -71t-76 -30t-92.5 -7zM285 16q47 0 83.5 7.5t62.5 29.5t39.5 64.5t13.5 113.5q0 70 -13.5 113t-39.5 65
t-62.5 29.5t-83.5 7.5t-83.5 -7.5t-62 -29.5t-38.5 -65t-13 -113q0 -71 13 -113.5t38.5 -64.5t62 -29.5t83.5 -7.5zM316 -170q-31 0 -51.5 5.5t-31 19.5t-10.5 40q0 21 12 39.5t28 33.5t32.5 26.5t26.5 16.5h24q-7 -3 -23 -14t-33 -27t-29 -34t-12 -34q0 -33 17.5 -43.5
t48.5 -10.5q9 0 17.5 0.5t14.5 1t8 0.5q0 -7 -2.5 -11.5t-10.5 -6.5t-26 -2z" />
    <glyph glyph-name="uni01EB" unicode="&#x1eb;" horiz-adv-x="465" 
d="M233 -5q-40 0 -73 6t-58 26.5t-38.5 61.5t-13.5 110t13.5 110t38.5 61.5t58 26.5t73 6q39 0 72.5 -6t58.5 -26.5t38.5 -61.5t13.5 -110q0 -70 -13.5 -111t-38.5 -61t-58.5 -26t-72.5 -6zM233 17q46 0 80 12.5t51.5 51t17.5 118.5t-17.5 118.5t-51.5 51t-80 12.5
t-79.5 -12.5t-52 -51t-18.5 -118.5t18.5 -118.5t52 -51t79.5 -12.5zM268 -170q-31 0 -51.5 5.5t-31 19.5t-10.5 40q0 21 12 39.5t28 33.5t32.5 26.5t26.5 16.5h24q-7 -3 -23 -14t-33 -27t-29 -34t-12 -34q0 -33 17.5 -43.5t48.5 -10.5q9 0 17.5 0.5t14.5 1t8 0.5
q0 -7 -2.5 -11.5t-10.5 -6.5t-26 -2z" />
    <glyph glyph-name="Aringacute" unicode="&#x1fa;" horiz-adv-x="469" 
d="M23 0l121 398q10 32 27 49t61 17q43 0 60 -15.5t27 -50.5l125 -398h-37l-43 138h-270l-42 -138h-29zM101 160h256l-71 230q-6 18 -16 32t-41 14q-34 0 -44.5 -14.5t-15.5 -31.5zM234 522q-25 0 -38.5 5t-19 14.5t-5.5 23.5t5.5 23t19 13.5t38.5 4.5t39 -4.5t19 -13.5
t5 -23t-5 -23.5t-19 -14.5t-39 -5zM234 537q20 0 31 5.5t11 22.5q0 16 -11 21.5t-31 5.5q-19 0 -30.5 -5.5t-11.5 -21.5q0 -17 11 -22.5t31 -5.5zM211 638l95 86l21 -20l-98 -66h-18z" />
    <glyph glyph-name="aringacute" unicode="&#x1fb;" horiz-adv-x="459" 
d="M219 -8q-53 0 -87 7t-52.5 22t-25.5 39t-7 58q0 51 13 78t45 37t87 10q25 0 53 -1.5t54 -3.5t44.5 -4.5t24.5 -4.5q1 53 -8.5 84t-28 45.5t-45.5 19t-60 4.5t-65.5 -3t-58.5 -9.5t-36 -18.5v9q0 18 13.5 24.5t26.5 9.5q17 5 49.5 8t65.5 3q43 0 76 -4.5t56 -20.5
t34.5 -48t11.5 -87l1 -210q-1 -22 -40.5 -32.5t-140.5 -10.5zM219 13q55 0 86.5 3t45.5 10t18 16l-1 166q-8 4 -34.5 7t-57 6t-53.5 3q-52 0 -83.5 -5.5t-45.5 -27.5t-14 -71q0 -37 9 -60.5t39 -35t91 -11.5zM215 460q-38 0 -50.5 12.5t-12.5 40.5q0 27 12.5 39.5t50.5 12.5
q39 0 51 -12.5t12 -39.5q0 -28 -12.5 -40.5t-50.5 -12.5zM215 476q20 0 31 6.5t11 30.5t-11 30.5t-31 6.5q-19 0 -30.5 -6.5t-11.5 -30.5t11 -30.5t31 -6.5zM200 589l100 105l22 -21l-104 -84h-18z" />
    <glyph glyph-name="AEacute" unicode="&#x1fc;" horiz-adv-x="724" 
d="M2 0q25 41 49.5 80.5t48 78.5t47.5 78t49 78.5t50 80.5q17 29 34 42.5t33.5 17.5t31.5 4h358v-12v-13h-343v-179h316v-25h-157.5h-158.5v-206h343v-25h-188.5h-188.5v137h-211q-22 -34 -42.5 -68.5t-41.5 -68.5h-29zM129 159h98.5h98.5v136v135q-1 0 -3 -0.5t-4 -0.5
q-17 0 -29 -12t-22 -29q-35 -57 -69.5 -114.5t-69.5 -114.5zM357 521l100 105l22 -21l-104 -84h-18z" />
    <glyph glyph-name="aeacute" unicode="&#x1fd;" horiz-adv-x="790" 
d="M219 -8q-53 0 -87 7t-52.5 22t-25.5 39t-7 58q0 51 13 78t45 37t87 10q25 0 53 -1.5t54 -3.5t44.5 -4.5t24.5 -4.5q1 53 -8.5 84t-28 45.5t-45.5 19t-60 4.5t-65.5 -3t-58.5 -9.5t-36 -18.5v9q0 18 13.5 24.5t26.5 9.5q17 5 49.5 8t65.5 3q43 0 76 -4.5t56 -20.5
t34.5 -48t11.5 -87l1 -210q-1 -22 -40.5 -32.5t-140.5 -10.5zM219 13q55 0 86.5 3t45.5 10t18 16l-1 166q-8 4 -34.5 7t-57 6t-53.5 3q-52 0 -83.5 -5.5t-45.5 -27.5t-14 -71q0 -37 9 -60.5t39 -35t91 -11.5zM568 -7q-52 0 -89 8.5t-59.5 31t-32.5 62.5t-10 104
q0 70 16 115.5t58 68t117 22.5q59 0 95 -17t52 -53.5t16 -92.5v-48h-284q0 8 4 14t16 6h234l-1 32q-2 71 -31.5 103t-100.5 32q-60 0 -95 -18.5t-49.5 -58t-14.5 -105.5q0 -74 15.5 -113.5t51 -54t95.5 -14.5q19 0 41.5 1.5t44.5 4.5t40 7t27 8v-9q0 -7 -5.5 -13t-25.5 -11
q-24 -6 -56.5 -9t-68.5 -3zM376 460l100 105l22 -21l-104 -84h-18z" />
    <glyph glyph-name="Oslashacute" unicode="&#x1fe;" horiz-adv-x="546" 
d="M40 231q0 83 19.5 131t53 71t76.5 29.5t90 6.5q48 0 89 -7.5t72.5 -30.5t49 -71t17.5 -129q0 -83 -19.5 -131t-53.5 -71t-77 -29.5t-90 -6.5q-48 0 -89.5 7.5t-72 30.5t-48 71t-17.5 129zM471 230q0 71 -13.5 114t-39.5 65t-62.5 29.5t-83.5 7.5q-46 0 -82.5 -7.5
t-62 -29.5t-38.5 -65t-13 -114q0 -70 13 -113t38.5 -64.5t62 -29t82.5 -7.5q47 0 83.5 7.5t62.5 29t39.5 64.5t13.5 113zM125 -82l233 607h21l-235 -607h-19zM250 521l95 86l21 -20l-98 -66h-18z" />
    <glyph glyph-name="oslashacute" unicode="&#x1ff;" horiz-adv-x="465" 
d="M108 -65l208 534h22l-209 -534h-21zM233 -5q-40 0 -73 6t-58 26.5t-38.5 61.5t-13.5 110t13.5 110t38.5 61.5t58 26.5t73 6q39 0 72.5 -6t58.5 -26.5t38.5 -61.5t13.5 -110q0 -70 -13.5 -111t-38.5 -61t-58.5 -26t-72.5 -6zM233 17q46 0 80 12.5t51.5 51t17.5 118.5
t-17.5 118.5t-51.5 51t-80 12.5t-79.5 -12.5t-52 -51t-18.5 -118.5t18.5 -118.5t52 -51t79.5 -12.5zM199 460l100 105l22 -21l-104 -84h-18z" />
    <glyph glyph-name="uni0200" unicode="&#x200;" horiz-adv-x="469" 
d="M23 0l121 398q10 32 27 49t61 17q43 0 60 -15.5t27 -50.5l125 -398h-37l-43 138h-270l-42 -138h-29zM101 160h256l-71 230q-6 18 -16 32t-41 14q-34 0 -44.5 -14.5t-15.5 -31.5zM201 520l-91 86l26 19l83 -105h-18zM277 520l-77 97l25 16l70 -113h-18z" />
    <glyph glyph-name="uni0201" unicode="&#x201;" horiz-adv-x="459" 
d="M219 -8q-53 0 -87 7t-52.5 22t-25.5 39t-7 58q0 51 13 78t45 37t87 10q25 0 53 -1.5t54 -3.5t44.5 -4.5t24.5 -4.5q1 53 -8.5 84t-28 45.5t-45.5 19t-60 4.5t-65.5 -3t-58.5 -9.5t-36 -18.5v9q0 18 13.5 24.5t26.5 9.5q17 5 49.5 8t65.5 3q43 0 76 -4.5t56 -20.5
t34.5 -48t11.5 -87l1 -210q-1 -22 -40.5 -32.5t-140.5 -10.5zM219 13q55 0 86.5 3t45.5 10t18 16l-1 166q-8 4 -34.5 7t-57 6t-53.5 3q-52 0 -83.5 -5.5t-45.5 -27.5t-14 -71q0 -37 9 -60.5t39 -35t91 -11.5zM190 459l-91 86l26 19l83 -105h-18zM266 459l-77 97l25 16
l70 -113h-18z" />
    <glyph glyph-name="uni0202" unicode="&#x202;" horiz-adv-x="469" 
d="M23 0l121 398q10 32 27 49t61 17q43 0 60 -15.5t27 -50.5l125 -398h-37l-43 138h-270l-42 -138h-29zM101 160h256l-71 230q-6 18 -16 32t-41 14q-34 0 -44.5 -14.5t-15.5 -31.5zM140 521v5q1 36 15 53t35 22.5t44 4.5q24 0 44.5 -5.5t34 -22.5t13.5 -53v-4h-21v4
q0 15 -5 29.5t-20.5 23.5t-47.5 9q-30 0 -45 -9t-19.5 -23.5t-4.5 -29.5v-4h-23z" />
    <glyph glyph-name="uni0203" unicode="&#x203;" horiz-adv-x="459" 
d="M223 555q34 0 54 -11.5t28.5 -33t8.5 -53.5h-18q0 37 -15.5 56.5t-57.5 19.5q-36 0 -55 -19.5t-19 -56.5h-18q0 32 9.5 53.5t30 33t52.5 11.5zM219 -8q-53 0 -87 7t-52.5 22t-25.5 39t-7 58q0 51 13 78t45 37t87 10q25 0 53 -1.5t54 -3.5t44.5 -4.5t24.5 -4.5
q1 53 -8.5 84t-28 45.5t-45.5 19t-60 4.5t-65.5 -3t-58.5 -9.5t-36 -18.5v9q0 18 13.5 24.5t26.5 9.5q17 5 49.5 8t65.5 3q43 0 76 -4.5t56 -20.5t34.5 -48t11.5 -87l1 -210q-1 -22 -40.5 -32.5t-140.5 -10.5zM219 13q55 0 86.5 3t45.5 10t18 16l-1 166q-8 4 -34.5 7t-57 6
t-53.5 3q-52 0 -83.5 -5.5t-45.5 -27.5t-14 -71q0 -37 9 -60.5t39 -35t91 -11.5z" />
    <glyph glyph-name="uni0204" unicode="&#x204;" horiz-adv-x="516" 
d="M95 0v437q0 12 2 17.5t12 5.5h365v-24h-344v-180h318v-24h-318v-208h344v-24h-379zM247 520l-91 86l26 19l83 -105h-18zM323 520l-77 97l25 16l70 -113h-18z" />
    <glyph glyph-name="uni0205" unicode="&#x205;" horiz-adv-x="442" 
d="M241 -7q-52 0 -89 8.5t-59.5 31t-32.5 62.5t-10 104q0 70 16 115.5t58 68t117 22.5q59 0 95 -17t52 -53.5t16 -92.5v-48h-284q0 8 4 14t16 6h234l-1 32q-2 71 -31.5 103t-100.5 32q-60 0 -95 -18.5t-49.5 -58t-14.5 -105.5q0 -74 15.5 -113.5t51 -54t95.5 -14.5
q19 0 41.5 1.5t44.5 4.5t40 7t27 8v-9q0 -7 -5.5 -13t-25.5 -11q-24 -6 -56.5 -9t-68.5 -3zM197 459l-91 86l26 19l83 -105h-18zM273 459l-77 97l25 16l70 -113h-18z" />
    <glyph glyph-name="uni0206" unicode="&#x206;" horiz-adv-x="516" 
d="M95 0v437q0 12 2 17.5t12 5.5h365v-24h-344v-180h318v-24h-318v-208h344v-24h-379zM186 521v5q1 36 15 53t35 22.5t44 4.5q24 0 44.5 -5.5t34 -22.5t13.5 -53v-4h-21v4q0 15 -5 29.5t-20.5 23.5t-47.5 9q-30 0 -45 -9t-19.5 -23.5t-4.5 -29.5v-4h-23z" />
    <glyph glyph-name="uni0207" unicode="&#x207;" horiz-adv-x="442" 
d="M229 555q34 0 54 -11.5t28.5 -33t8.5 -53.5h-18q0 37 -15.5 56.5t-57.5 19.5q-36 0 -54.5 -19.5t-18.5 -56.5h-18q0 32 9.5 53.5t30 33t51.5 11.5zM241 -7q-52 0 -89 8.5t-59.5 31t-32.5 62.5t-10 104q0 70 16 115.5t58 68t117 22.5q59 0 95 -17t52 -53.5t16 -92.5v-48
h-284q0 8 4 14t16 6h234l-1 32q-2 71 -31.5 103t-100.5 32q-60 0 -95 -18.5t-49.5 -58t-14.5 -105.5q0 -74 15.5 -113.5t51 -54t95.5 -14.5q19 0 41.5 1.5t44.5 4.5t40 7t27 8v-9q0 -7 -5.5 -13t-25.5 -11q-24 -6 -56.5 -9t-68.5 -3z" />
    <glyph glyph-name="uni0208" unicode="&#x208;" horiz-adv-x="225" 
d="M95 0v218.5v219.5q0 7 0.5 11.5t4 7.5t9.5 3h21v-460h-35zM80 520l-91 86l26 19l83 -105h-18zM156 520l-77 97l25 16l70 -113h-18z" />
    <glyph glyph-name="uni0209" unicode="&#x209;" horiz-adv-x="179" 
d="M121 -3q-37 0 -48.5 24t-11.5 67v311h32v-308q0 -45 9 -59.5t33 -14.5q7 0 19.5 1.5t16.5 3.5v-20q-3 -1 -10.5 -2t-17.5 -2t-22 -1zM32 459l-91 86l26 19l83 -105h-18zM108 459l-77 97l25 16l70 -113h-18z" />
    <glyph glyph-name="uni020A" unicode="&#x20a;" horiz-adv-x="225" 
d="M95 0v218.5v219.5q0 7 0.5 11.5t4 7.5t9.5 3h21v-460h-35zM19 521v5q1 36 15 53t35 22.5t44 4.5q24 0 44.5 -5.5t34 -22.5t13.5 -53v-4h-21v4q0 15 -5 29.5t-20.5 23.5t-47.5 9q-30 0 -45 -9t-19.5 -23.5t-4.5 -29.5v-4h-23z" />
    <glyph glyph-name="uni020B" unicode="&#x20b;" horiz-adv-x="179" 
d="M65 555q34 0 54 -11.5t28.5 -33t8.5 -53.5h-18q0 37 -15.5 56.5t-57.5 19.5q-36 0 -54.5 -19.5t-18.5 -56.5h-19q0 32 9.5 53.5t30 33t52.5 11.5zM121 -3q-37 0 -48.5 24t-11.5 67v311h32v-308q0 -45 9 -59.5t33 -14.5q7 0 19.5 1.5t16.5 3.5v-20q-3 -1 -10.5 -2
t-17.5 -2t-22 -1z" />
    <glyph glyph-name="uni020C" unicode="&#x20c;" horiz-adv-x="572" 
d="M281 -7q-50 0 -91.5 8t-72.5 31.5t-48 71t-17 127.5q0 82 19 130t51.5 71t76.5 30t92 7q50 0 91.5 -8t72.5 -31.5t48 -71t17 -127.5q0 -82 -19 -130t-51.5 -71t-76 -30t-92.5 -7zM285 16q47 0 83.5 7.5t62.5 29.5t39.5 64.5t13.5 113.5q0 70 -13.5 113t-39.5 65
t-62.5 29.5t-83.5 7.5t-83.5 -7.5t-62 -29.5t-38.5 -65t-13 -113q0 -71 13 -113.5t38.5 -64.5t62 -29.5t83.5 -7.5zM253 520l-91 86l26 19l83 -105h-18zM329 520l-77 97l25 16l70 -113h-18z" />
    <glyph glyph-name="uni020D" unicode="&#x20d;" horiz-adv-x="465" 
d="M233 -5q-40 0 -73 6t-58 26.5t-38.5 61.5t-13.5 110t13.5 110t38.5 61.5t58 26.5t73 6q39 0 72.5 -6t58.5 -26.5t38.5 -61.5t13.5 -110q0 -70 -13.5 -111t-38.5 -61t-58.5 -26t-72.5 -6zM233 17q46 0 80 12.5t51.5 51t17.5 118.5t-17.5 118.5t-51.5 51t-80 12.5
t-79.5 -12.5t-52 -51t-18.5 -118.5t18.5 -118.5t52 -51t79.5 -12.5zM200 459l-91 86l26 19l83 -105h-18zM276 459l-77 97l25 16l70 -113h-18z" />
    <glyph glyph-name="uni020E" unicode="&#x20e;" horiz-adv-x="572" 
d="M281 -7q-50 0 -91.5 8t-72.5 31.5t-48 71t-17 127.5q0 82 19 130t51.5 71t76.5 30t92 7q50 0 91.5 -8t72.5 -31.5t48 -71t17 -127.5q0 -82 -19 -130t-51.5 -71t-76 -30t-92.5 -7zM285 16q47 0 83.5 7.5t62.5 29.5t39.5 64.5t13.5 113.5q0 70 -13.5 113t-39.5 65
t-62.5 29.5t-83.5 7.5t-83.5 -7.5t-62 -29.5t-38.5 -65t-13 -113q0 -71 13 -113.5t38.5 -64.5t62 -29.5t83.5 -7.5zM192 521v5q1 36 15 53t35 22.5t44 4.5q24 0 44.5 -5.5t34 -22.5t13.5 -53v-4h-21v4q0 15 -5 29.5t-20.5 23.5t-47.5 9q-30 0 -45 -9t-19.5 -23.5t-4.5 -29.5
v-4h-23z" />
    <glyph glyph-name="uni020F" unicode="&#x20f;" horiz-adv-x="465" 
d="M233 555q34 0 54 -11.5t28.5 -33t8.5 -53.5h-18q0 37 -15.5 56.5t-57.5 19.5q-36 0 -55 -19.5t-19 -56.5h-18q0 32 9.5 53.5t30 33t52.5 11.5zM233 -5q-40 0 -73 6t-58 26.5t-38.5 61.5t-13.5 110t13.5 110t38.5 61.5t58 26.5t73 6q39 0 72.5 -6t58.5 -26.5t38.5 -61.5
t13.5 -110q0 -70 -13.5 -111t-38.5 -61t-58.5 -26t-72.5 -6zM233 17q46 0 80 12.5t51.5 51t17.5 118.5t-17.5 118.5t-51.5 51t-80 12.5t-79.5 -12.5t-52 -51t-18.5 -118.5t18.5 -118.5t52 -51t79.5 -12.5z" />
    <glyph glyph-name="uni0210" unicode="&#x210;" horiz-adv-x="570" 
d="M369 206h-32.5h-87t-124.5 -1v-205h-35v413q0 29 12.5 37.5t35.5 9.5q15 1 37 1t48 0.5t52.5 0.5h52t45.5 -1t33 -2q52 -5 74.5 -35.5t22.5 -86.5q0 -41 -14.5 -68.5t-41.5 -41.5q-2 -1 -6 -2t-7 -1v-1h5.5h5.5q38 -7 46 -31t8 -48v-126q0 -6 1 -11.5t2 -6.5h-21
q-8 0 -13 3.5t-5 20.5v124q0 31 -13.5 44.5t-47.5 13.5h-33zM125 230q16 0 49.5 -0.5t73 -1t73.5 -0.5h49q38 0 67 23t29 85q0 43 -16.5 68.5t-53.5 29.5q-23 3 -57.5 4t-71.5 0.5t-68 -1t-48 -1.5q-4 0 -15 -4t-11 -23v-179zM261 520l-91 86l26 19l83 -105h-18zM337 520
l-77 97l25 16l70 -113h-18z" />
    <glyph glyph-name="uni0211" unicode="&#x211;" horiz-adv-x="356" 
d="M100 0h-14q-9 0 -14 4t-5 15v360q19 6 50.5 14.5t84.5 8.5q46 0 73 -7t39.5 -19t16.5 -27t4 -31h-32l-1 14q-1 23 -17 33t-39 12.5t-44 2.5q-34 0 -60 -6t-42 -14v-360zM163 459l-91 86l26 19l83 -105h-18zM239 459l-77 97l25 16l70 -113h-18z" />
    <glyph glyph-name="uni0212" unicode="&#x212;" horiz-adv-x="570" 
d="M369 206h-32.5h-87t-124.5 -1v-205h-35v413q0 29 12.5 37.5t35.5 9.5q15 1 37 1t48 0.5t52.5 0.5h52t45.5 -1t33 -2q52 -5 74.5 -35.5t22.5 -86.5q0 -41 -14.5 -68.5t-41.5 -41.5q-2 -1 -6 -2t-7 -1v-1h5.5h5.5q38 -7 46 -31t8 -48v-126q0 -6 1 -11.5t2 -6.5h-21
q-8 0 -13 3.5t-5 20.5v124q0 31 -13.5 44.5t-47.5 13.5h-33zM125 230q16 0 49.5 -0.5t73 -1t73.5 -0.5h49q38 0 67 23t29 85q0 43 -16.5 68.5t-53.5 29.5q-23 3 -57.5 4t-71.5 0.5t-68 -1t-48 -1.5q-4 0 -15 -4t-11 -23v-179zM200 521v5q1 36 15 53t35 22.5t44 4.5
q24 0 44.5 -5.5t34 -22.5t13.5 -53v-4h-21v4q0 15 -5 29.5t-20.5 23.5t-47.5 9q-30 0 -45 -9t-19.5 -23.5t-4.5 -29.5v-4h-23z" />
    <glyph glyph-name="uni0213" unicode="&#x213;" horiz-adv-x="356" 
d="M196 555q34 0 54 -11.5t28.5 -33t8.5 -53.5h-18q0 37 -15.5 56.5t-57.5 19.5q-36 0 -54.5 -19.5t-18.5 -56.5h-18q0 32 9.5 53.5t30 33t51.5 11.5zM100 0h-14q-9 0 -14 4t-5 15v360q19 6 50.5 14.5t84.5 8.5q46 0 73 -7t39.5 -19t16.5 -27t4 -31h-32l-1 14q-1 23 -17 33
t-39 12.5t-44 2.5q-34 0 -60 -6t-42 -14v-360z" />
    <glyph glyph-name="uni0214" unicode="&#x214;" horiz-adv-x="562" 
d="M477 182q0 -35 -3 -68.5t-21 -59.5t-58.5 -41.5t-116.5 -15.5q-57 0 -94 10t-57 28t-29 40.5t-11 49.5t-2 54v257q0 10 0.5 15t4.5 7t11 2h19v-317q0 -45 16 -71.5t51 -38t92 -11.5q86 0 124.5 28.5t38.5 93.5v316h18q8 0 12 -2t4.5 -7t0.5 -15v-254zM248 520l-91 86
l26 19l83 -105h-18zM324 520l-77 97l25 16l70 -113h-18z" />
    <glyph glyph-name="uni0215" unicode="&#x215;" horiz-adv-x="454" 
d="M89 399v-276q0 -58 34 -81t102 -23q74 0 107 24.5t33 79.5v276h3h4.5h4.5h3q8 0 11.5 -1.5t4.5 -5.5t1 -13v-245q0 -45 -14 -76t-51 -46.5t-107 -15.5q-62 0 -99 13.5t-53 43t-16 79.5v247q0 12 3.5 16t12.5 4h8h8zM195 459l-91 86l26 19l83 -105h-18zM271 459l-77 97
l25 16l70 -113h-18z" />
    <glyph glyph-name="uni0216" unicode="&#x216;" horiz-adv-x="562" 
d="M477 182q0 -35 -3 -68.5t-21 -59.5t-58.5 -41.5t-116.5 -15.5q-57 0 -94 10t-57 28t-29 40.5t-11 49.5t-2 54v257q0 10 0.5 15t4.5 7t11 2h19v-317q0 -45 16 -71.5t51 -38t92 -11.5q86 0 124.5 28.5t38.5 93.5v316h18q8 0 12 -2t4.5 -7t0.5 -15v-254zM187 521v5
q1 36 15 53t35 22.5t44 4.5q24 0 44.5 -5.5t34 -22.5t13.5 -53v-4h-21v4q0 15 -5 29.5t-20.5 23.5t-47.5 9q-30 0 -45 -9t-19.5 -23.5t-4.5 -29.5v-4h-23z" />
    <glyph glyph-name="uni0217" unicode="&#x217;" horiz-adv-x="454" 
d="M228 555q34 0 54 -11.5t28.5 -33t8.5 -53.5h-18q0 37 -15.5 56.5t-57.5 19.5q-36 0 -54.5 -19.5t-18.5 -56.5h-19q0 32 9.5 53.5t30 33t52.5 11.5zM89 399v-276q0 -58 34 -81t102 -23q74 0 107 24.5t33 79.5v276h3h4.5h4.5h3q8 0 11.5 -1.5t4.5 -5.5t1 -13v-245
q0 -45 -14 -76t-51 -46.5t-107 -15.5q-62 0 -99 13.5t-53 43t-16 79.5v247q0 12 3.5 16t12.5 4h8h8z" />
    <glyph glyph-name="uni0218" unicode="&#x218;" horiz-adv-x="517" 
d="M57 51q20 -15 51 -22t65 -8.5t58 -1.5h20t19 1q47 1 82.5 11t55.5 34.5t20 70.5q0 56 -28.5 72t-81.5 16h-34.5h-36h-37.5q-26 0 -53.5 2.5t-50.5 12t-36.5 31.5t-13.5 61q0 47 17.5 74t48.5 39.5t70 16t82 3.5q26 0 59 -1.5t63 -6t48 -16.5q7 -3 11 -7t4 -10v-6.5v-7
v-6.5q-10 11 -31 18.5t-46 11.5t-48.5 5.5t-37.5 1.5h-44q-41 0 -78 -6.5t-60.5 -29t-23.5 -71.5q0 -38 16 -55.5t44 -22.5t65 -5h55h50q42 0 74.5 -7.5t51.5 -31.5t19 -77q0 -52 -24.5 -81.5t-66 -42t-93.5 -15.5q-13 -1 -26.5 -1h-27.5q-16 0 -44 1.5t-57 6t-49 12.5
t-20 23v14zM242 -175q5 14 9 27.5t7 25.5t3 18h-1.5h-2.5q-6 0 -13 3.5t-7 14.5q0 13 7.5 16t20.5 3q7 0 12 -1.5t7 -6t2 -13.5q0 -13 -5.5 -31.5t-12.5 -34.5t-10 -21h-16z" />
    <glyph glyph-name="uni0219" unicode="&#x219;" horiz-adv-x="418" 
d="M186 -5q-14 0 -39 1t-51.5 5t-46.5 13q-7 3 -10 5.5t-4 9t-1 16.5q17 -12 46 -18t58.5 -7.5t45.5 -1.5q36 0 67 3t55 13t37.5 30.5t13.5 53.5q0 49 -25.5 62.5t-70.5 13.5h-94q-32 0 -63 4.5t-51.5 24.5t-20.5 65q0 51 24.5 76t68 32.5t99.5 7.5q21 0 50 -1.5t59 -7.5
q16 -2 27 -5.5t17 -9t6 -13.5v-17q-11 11 -30.5 17t-43 9t-48.5 4t-47 1q-37 0 -72 -4.5t-57 -23.5t-22 -63q0 -33 13.5 -48.5t38 -20t56.5 -4.5h91q37 0 65.5 -6t44.5 -27t16 -68q0 -51 -27 -77t-72.5 -35t-102.5 -9zM189 -175q5 14 9 27.5t7 25.5t3 18h-1.5h-2.5
q-6 0 -13 3.5t-7 14.5q0 13 7.5 16t20.5 3q7 0 12 -1.5t7 -6t2 -13.5q0 -13 -5.5 -31.5t-12.5 -34.5t-10 -21h-16z" />
    <glyph glyph-name="uni021A" unicode="&#x21a;" horiz-adv-x="457" 
d="M24 460h410v-24h-188v-413q0 -12 -2 -17.5t-12 -5.5h-21v436h-187v24zM207 -175q5 14 9 27.5t7 25.5t3 18h-1.5h-2.5q-6 0 -13 3.5t-7 14.5q0 13 7.5 16t20.5 3q7 0 12 -1.5t7 -6t2 -13.5q0 -13 -5.5 -31.5t-12.5 -34.5t-10 -21h-16z" />
    <glyph glyph-name="uni021B" unicode="&#x21b;" horiz-adv-x="218" 
d="M139 -3q-23 0 -37.5 7.5t-21.5 25.5t-7 49v299h-36v21h36v82q0 11 2 16t5.5 6.5t8.5 1.5h17l-0.5 -7t-0.5 -22v-77h92v-21h-92v-292q0 -39 8.5 -54t34.5 -15q11 0 21.5 2t14.5 3v-20q-5 -1 -17 -3t-28 -2zM111 -175q5 14 9 27.5t7 25.5t3 18h-1.5h-2.5q-6 0 -13 3.5
t-7 14.5q0 13 7.5 16t20.5 3q7 0 12 -1.5t7 -6t2 -13.5q0 -13 -5.5 -31.5t-12.5 -34.5t-10 -21h-16z" />
    <glyph glyph-name="uni022A" unicode="&#x22a;" horiz-adv-x="572" 
d="M281 -7q-50 0 -91.5 8t-72.5 31.5t-48 71t-17 127.5q0 82 19 130t51.5 71t76.5 30t92 7q50 0 91.5 -8t72.5 -31.5t48 -71t17 -127.5q0 -82 -19 -130t-51.5 -71t-76 -30t-92.5 -7zM285 16q47 0 83.5 7.5t62.5 29.5t39.5 64.5t13.5 113.5q0 70 -13.5 113t-39.5 65
t-62.5 29.5t-83.5 7.5t-83.5 -7.5t-62 -29.5t-38.5 -65t-13 -113q0 -71 13 -113.5t38.5 -64.5t62 -29.5t83.5 -7.5zM345 521q-8 0 -16.5 3t-8.5 18q0 14 8.5 16.5t15.5 2.5q8 0 16.5 -2.5t8.5 -16.5q0 -15 -7 -18t-17 -3zM226 521q-11 0 -18 3t-7 19q0 13 8 15.5t16 2.5
t16 -2.5t8 -15.5q0 -15 -7 -18.5t-16 -3.5zM184 616v17h203v-17h-203z" />
    <glyph glyph-name="uni022B" unicode="&#x22b;" horiz-adv-x="465" 
d="M233 -5q-40 0 -73 6t-58 26.5t-38.5 61.5t-13.5 110t13.5 110t38.5 61.5t58 26.5t73 6q39 0 72.5 -6t58.5 -26.5t38.5 -61.5t13.5 -110q0 -70 -13.5 -111t-38.5 -61t-58.5 -26t-72.5 -6zM233 17q46 0 80 12.5t51.5 51t17.5 118.5t-17.5 118.5t-51.5 51t-80 12.5
t-79.5 -12.5t-52 -51t-18.5 -118.5t18.5 -118.5t52 -51t79.5 -12.5zM292 460q-8 0 -16.5 3t-8.5 18q0 14 8.5 16.5t15.5 2.5q8 0 16.5 -2.5t8.5 -16.5q0 -15 -7 -18t-17 -3zM173 460q-11 0 -18 3t-7 19q0 13 8 15.5t16 2.5t16 -2.5t8 -15.5q0 -15 -7 -18.5t-16 -3.5z
M135 555v21h196v-21h-196z" />
    <glyph glyph-name="uni022C" unicode="&#x22c;" horiz-adv-x="572" 
d="M281 -7q-50 0 -91.5 8t-72.5 31.5t-48 71t-17 127.5q0 82 19 130t51.5 71t76.5 30t92 7q50 0 91.5 -8t72.5 -31.5t48 -71t17 -127.5q0 -82 -19 -130t-51.5 -71t-76 -30t-92.5 -7zM285 16q47 0 83.5 7.5t62.5 29.5t39.5 64.5t13.5 113.5q0 70 -13.5 113t-39.5 65
t-62.5 29.5t-83.5 7.5t-83.5 -7.5t-62 -29.5t-38.5 -65t-13 -113q0 -71 13 -113.5t38.5 -64.5t62 -29.5t83.5 -7.5zM331 519q-16 0 -31 8.5t-31 17t-31 8.5q-16 0 -26 -10t-14 -17l-12 9q1 3 4.5 9.5t10.5 14t16 13.5t23 6q16 0 31 -9l30 -18t29 -9q20 0 30 12t13 20l12 -11
q-1 -3 -4.5 -10t-9.5 -14.5t-16 -13.5t-24 -6zM184 610v17h203v-17h-203z" />
    <glyph glyph-name="uni022D" unicode="&#x22d;" horiz-adv-x="465" 
d="M233 -5q-40 0 -73 6t-58 26.5t-38.5 61.5t-13.5 110t13.5 110t38.5 61.5t58 26.5t73 6q39 0 72.5 -6t58.5 -26.5t38.5 -61.5t13.5 -110q0 -70 -13.5 -111t-38.5 -61t-58.5 -26t-72.5 -6zM233 17q46 0 80 12.5t51.5 51t17.5 118.5t-17.5 118.5t-51.5 51t-80 12.5
t-79.5 -12.5t-52 -51t-18.5 -118.5t18.5 -118.5t52 -51t79.5 -12.5zM278 457q-16 0 -31 9t-31 17.5t-31 8.5q-16 0 -24 -11t-12 -19l-14 8q2 4 5 11t9.5 15t15 13.5t22.5 5.5q16 0 31.5 -9t30 -17.5t28.5 -8.5q21 0 30.5 12t12.5 19l14 -8q-2 -4 -5.5 -11.5t-10 -15.5
t-16.5 -13.5t-24 -5.5zM135 550v21h196v-21h-196z" />
    <glyph glyph-name="uni0230" unicode="&#x230;" horiz-adv-x="572" 
d="M281 -7q-50 0 -91.5 8t-72.5 31.5t-48 71t-17 127.5q0 82 19 130t51.5 71t76.5 30t92 7q50 0 91.5 -8t72.5 -31.5t48 -71t17 -127.5q0 -82 -19 -130t-51.5 -71t-76 -30t-92.5 -7zM285 16q47 0 83.5 7.5t62.5 29.5t39.5 64.5t13.5 113.5q0 70 -13.5 113t-39.5 65
t-62.5 29.5t-83.5 7.5t-83.5 -7.5t-62 -29.5t-38.5 -65t-13 -113q0 -71 13 -113.5t38.5 -64.5t62 -29.5t83.5 -7.5zM286 521q-12 0 -19.5 3.5t-7.5 18.5q0 17 7.5 20.5t19.5 3.5t19 -4t7 -20q0 -15 -7 -18.5t-19 -3.5zM184 629v17h203v-17h-203z" />
    <glyph glyph-name="uni0231" unicode="&#x231;" horiz-adv-x="465" 
d="M233 -5q-40 0 -73 6t-58 26.5t-38.5 61.5t-13.5 110t13.5 110t38.5 61.5t58 26.5t73 6q39 0 72.5 -6t58.5 -26.5t38.5 -61.5t13.5 -110q0 -70 -13.5 -111t-38.5 -61t-58.5 -26t-72.5 -6zM233 17q46 0 80 12.5t51.5 51t17.5 118.5t-17.5 118.5t-51.5 51t-80 12.5
t-79.5 -12.5t-52 -51t-18.5 -118.5t18.5 -118.5t52 -51t79.5 -12.5zM233 460q-12 0 -19.5 3.5t-7.5 18.5q0 17 7.5 20.5t19.5 3.5t19 -4t7 -20q0 -15 -7 -18.5t-19 -3.5zM135 545v21h196v-21h-196z" />
    <glyph glyph-name="uni0232" unicode="&#x232;" horiz-adv-x="421" 
d="M190 0v189l-155 246l-17 25h42l152 -244l159 244h32l-19 -27l-159 -244v-166q0 -7 -1 -12.5t-4.5 -8t-10.5 -2.5h-19zM120 522v17h203v-17h-203z" />
    <glyph glyph-name="uni0233" unicode="&#x233;" horiz-adv-x="450" 
d="M219 -111q-39 0 -74.5 4.5t-58 12t-22.5 16.5v15q16 -9 41 -15t53 -9.5t56 -3.5q48 0 80.5 14.5t49.5 46t17 79.5v61q-8 -20 -28 -35t-50 -22t-68 -7q-73 0 -107.5 20t-44 57t-9.5 86v157q0 15 1 22t4 9t10 2h18v-51.5v-50.5v-50.5v-51.5q0 -57 19.5 -84t51 -34.5
t66.5 -7.5q36 0 67 9t50.5 34t19.5 73v214h15q11 0 14 -3t3 -21v-319q0 -88 -43 -127.5t-131 -39.5zM128 461v21h196v-21h-196z" />
    <glyph glyph-name="uni0237" unicode="&#x237;" horiz-adv-x="204" 
d="M19 -65q5 -1 19.5 -2t24.5 -1q31 0 37 18.5t6 58.5v186v186q0 6 1 10.5t4 6t11 1.5h7.5h8.5v-72.5v-73.5v-75v-75v-73q0 -23 -0.5 -41.5t-3 -32.5t-9.5 -23t-19 -14t-33 -5q-17 0 -32.5 1t-21.5 2v9.5v8.5z" />
    <glyph glyph-name="uni02B9" unicode="&#x2b9;" horiz-adv-x="70" 
d="M43 543h27l-50 -143h-20z" />
    <glyph glyph-name="uni02BA" unicode="&#x2ba;" horiz-adv-x="578" 
d="M40 534h27l-50 -135h-20zM184 534h27l-50 -135h-20z" />
    <glyph glyph-name="uni02BC" unicode="&#x2bc;" horiz-adv-x="70" 
d="M43 534h27l-50 -135h-20z" />
    <glyph glyph-name="circumflex" unicode="&#x2c6;" horiz-adv-x="271" 
d="M1 460l80 105h19l80 -105h-20l-70 83l-69 -83h-20z" />
    <glyph glyph-name="caron" unicode="&#x2c7;" horiz-adv-x="269" 
d="M1 565h20l69 -83l70 83h20l-80 -105h-19z" />
    <glyph glyph-name="breve" unicode="&#x2d8;" horiz-adv-x="245" 
d="M93 458q-31 0 -51.5 11.5t-30 33.5t-9.5 53h18q0 -37 18.5 -56.5t54.5 -19.5q42 0 58 19.5t16 56.5h18q0 -31 -8.5 -53t-28.5 -33.5t-55 -11.5z" />
    <glyph glyph-name="dotaccent" unicode="&#x2d9;" horiz-adv-x="160" 
d="M27 460q-12 0 -19.5 3.5t-7.5 18.5q0 17 7.5 20.5t19.5 3.5t19 -4t7 -20q0 -15 -7 -18.5t-19 -3.5z" />
    <glyph glyph-name="ring" unicode="&#x2da;" horiz-adv-x="280" 
d="M67 460q-38 0 -50.5 12.5t-12.5 40.5q0 27 12.5 39.5t50.5 12.5q39 0 51 -12.5t12 -39.5q0 -28 -12.5 -40.5t-50.5 -12.5zM67 476q20 0 31 6.5t11 30.5t-11 30.5t-31 6.5q-19 0 -30.5 -6.5t-11.5 -30.5t11 -30.5t31 -6.5z" />
    <glyph glyph-name="ogonek" unicode="&#x2db;" horiz-adv-x="219" 
d="M94 -180q-31 0 -51.5 5.5t-31 19.5t-10.5 40q0 21 12 39.5t28 33.5t32.5 26.5t26.5 16.5h24q-7 -3 -23 -14t-33 -27t-29 -34t-12 -34q0 -33 17.5 -43.5t48.5 -10.5q9 0 17.5 0.5t14.5 1t8 0.5q0 -7 -2.5 -11.5t-10.5 -6.5t-26 -2z" />
    <glyph glyph-name="tilde" unicode="&#x2dc;" horiz-adv-x="307" 
d="M143 457q-16 0 -31 9t-31 17.5t-31 8.5q-16 0 -24 -11t-12 -19l-14 8q2 4 5 11t9.5 15t15 13.5t22.5 5.5q16 0 31.5 -9t30 -17.5t28.5 -8.5q21 0 30.5 12t12.5 19l14 -8q-2 -4 -5.5 -11.5t-10 -15.5t-16.5 -13.5t-24 -5.5z" />
    <glyph glyph-name="hungarumlaut" unicode="&#x2dd;" horiz-adv-x="257" 
d="M99 460l29 105h32l-43 -105h-18zM0 460l29 105h32l-42 -105h-19z" />
    <glyph glyph-name="gravecomb" unicode="&#x300;" 
d="M105 460l-102 84l21 21l101 -105h-20z" />
    <glyph glyph-name="acutecomb" unicode="&#x301;" 
d="M3 460l100 105l22 -21l-104 -84h-18z" />
    <glyph glyph-name="uni0302" unicode="&#x302;" 
d="M1 460l80 105h19l80 -105h-20l-70 83l-69 -83h-20z" />
    <glyph glyph-name="tildecomb" unicode="&#x303;" 
d="M143 457q-16 0 -31 9t-31 17.5t-31 8.5q-16 0 -24 -11t-12 -19l-14 8q2 4 5 11t9.5 15t15 13.5t22.5 5.5q16 0 31.5 -9t30 -17.5t28.5 -8.5q21 0 30.5 12t12.5 19l14 -8q-2 -4 -5.5 -11.5t-10 -15.5t-16.5 -13.5t-24 -5.5z" />
    <glyph glyph-name="uni0304" unicode="&#x304;" 
d="M4 461v21h196v-21h-196z" />
    <glyph glyph-name="uni0306" unicode="&#x306;" 
d="M93 458q-31 0 -51.5 11.5t-30 33.5t-9.5 53h18q0 -37 18.5 -56.5t54.5 -19.5q42 0 58 19.5t16 56.5h18q0 -31 -8.5 -53t-28.5 -33.5t-55 -11.5z" />
    <glyph glyph-name="uni0307" unicode="&#x307;" 
d="M27 460q-12 0 -19.5 3.5t-7.5 18.5q0 17 7.5 20.5t19.5 3.5t19 -4t7 -20q0 -15 -7 -18.5t-19 -3.5z" />
    <glyph glyph-name="uni0308" unicode="&#x308;" 
d="M144 460q-8 0 -16.5 3t-8.5 18q0 14 8.5 16.5t15.5 2.5q8 0 16.5 -2.5t8.5 -16.5q0 -15 -7 -18t-17 -3zM25 460q-11 0 -18 3t-7 19q0 13 8 15.5t16 2.5t16 -2.5t8 -15.5q0 -15 -7 -18.5t-16 -3.5z" />
    <glyph glyph-name="hookabovecomb" unicode="&#x309;" 
d="M41 455v10q0 10 11 16.5t21.5 15t10.5 23.5v3q0 21 -6.5 28t-28.5 7q-21 0 -27 -8.5t-9 -18.5l-16 4q8 40 53 40q30 0 44 -10t14 -41v-2q0 -20 -12.5 -30t-24.5 -16t-12 -17v-4h-18z" />
    <glyph glyph-name="uni030A" unicode="&#x30a;" 
d="M67 460q-38 0 -50.5 12.5t-12.5 40.5q0 27 12.5 39.5t50.5 12.5q39 0 51 -12.5t12 -39.5q0 -28 -12.5 -40.5t-50.5 -12.5zM67 476q20 0 31 6.5t11 30.5t-11 30.5t-31 6.5q-19 0 -30.5 -6.5t-11.5 -30.5t11 -30.5t31 -6.5z" />
    <glyph glyph-name="uni030B" unicode="&#x30b;" 
d="M99 460l29 105h32l-43 -105h-18zM0 460l29 105h32l-42 -105h-19z" />
    <glyph glyph-name="uni030C" unicode="&#x30c;" 
d="M1 565h20l69 -83l70 83h20l-80 -105h-19z" />
    <glyph glyph-name="uni030F" unicode="&#x30f;" 
d="M91 460l-91 86l26 19l83 -105h-18zM167 460l-77 97l25 16l70 -113h-18z" />
    <glyph glyph-name="uni0311" unicode="&#x311;" 
d="M93 556q35 0 55 -11.5t28.5 -33t8.5 -53.5h-18q0 37 -16 56.5t-58 19.5q-36 0 -54.5 -19.5t-18.5 -56.5h-18q0 32 9.5 53.5t30 33t51.5 11.5z" />
    <glyph glyph-name="uni0312" unicode="&#x312;" 
d="M22 461q-7 0 -12 1.5t-7.5 6.5t-2.5 13q0 14 6 32.5t12.5 34.5t9.5 20h17q-6 -13 -10 -27t-6.5 -25t-3.5 -18h2h2q6 -1 13 -4t7 -15t-7.5 -15.5t-19.5 -3.5z" />
    <glyph glyph-name="uni031B" unicode="&#x31b;" 
d="M5 380l-5 19h21q16 0 24.5 9t11.5 20t3 17v23h25v-20q0 -33 -21.5 -51.5t-58.5 -16.5z" />
    <glyph glyph-name="dotbelowcomb" unicode="&#x323;" 
d="M24 -113q-5 0 -10.5 1t-9.5 5t-4 13q0 12 7.5 15.5t15.5 3.5q10 0 16.5 -3t6.5 -16q0 -9 -3.5 -13t-8 -5t-10.5 -1z" />
    <glyph glyph-name="uni0324" unicode="&#x324;" 
d="M144 -101q-8 0 -16.5 3t-8.5 18q0 14 8.5 16.5t15.5 2.5q8 0 16.5 -2.5t8.5 -16.5q0 -15 -7 -18t-17 -3zM25 -101q-11 0 -18 3t-7 19q0 13 8 15.5t16 2.5t16 -2.5t8 -15.5q0 -15 -7 -18.5t-16 -3.5z" />
    <glyph glyph-name="uni0326" unicode="&#x326;" 
d="M5 -175q5 14 9 27.5t7 25.5t3 18h-1.5h-2.5q-6 0 -13 3.5t-7 14.5q0 13 7.5 16t20.5 3q7 0 12 -1.5t7 -6t2 -13.5q0 -13 -5.5 -31.5t-12.5 -34.5t-10 -21h-16z" />
    <glyph glyph-name="uni0327" unicode="&#x327;" 
d="M57 -185q-24 0 -34.5 3.5t-10.5 13.5h23.5h44.5q30 0 40 9t10 28q0 26 -8.5 33.5t-45.5 7.5h-31q-5 0 -12.5 0.5t-13 1t-9.5 1.5q2 3 11.5 14.5t22 26.5t23 28.5t15.5 19.5h14l-55 -78q47 3 71.5 0.5t32.5 -15t8 -40.5t-13 -39t-35 -13t-48 -2z" />
    <glyph glyph-name="uni0328" unicode="&#x328;" 
d="M94 -180q-31 0 -51.5 5.5t-31 19.5t-10.5 40q0 21 12 39.5t28 33.5t32.5 26.5t26.5 16.5h24q-7 -3 -23 -14t-33 -27t-29 -34t-12 -34q0 -33 17.5 -43.5t48.5 -10.5q9 0 17.5 0.5t14.5 1t8 0.5q0 -7 -2.5 -11.5t-10.5 -6.5t-26 -2z" />
    <glyph glyph-name="uni032E" unicode="&#x32e;" 
d="M93 -124q-31 0 -51.5 11.5t-30 33.5t-9.5 53h18q0 -37 18.5 -56.5t54.5 -19.5q42 0 58 19.5t16 56.5h18q0 -31 -8.5 -53t-28.5 -33.5t-55 -11.5z" />
    <glyph glyph-name="uni0331" unicode="&#x331;" 
d="M0 -99v21h196v-21h-196z" />
    <glyph glyph-name="uni0335" unicode="&#x335;" 
d="M0 470h204v-17h-204v17z" />
    <glyph glyph-name="pi" unicode="&#x3c0;" horiz-adv-x="406" 
d="M42 341h322v-15h-33q-14 0 -22 -8t-8 -26v-265q0 -12 -1.5 -18.5t-5 -10t-9.5 -4t-15 -0.5v332h-132v-299q0 -12 -2 -18.5t-5.5 -10t-9.5 -4t-15 -0.5v75.5v73.5v73.5v75.5q0 18 -9 26t-22 8h-33v15z" />
    <glyph glyph-name="tsaa" unicode="&#x13a0;" horiz-adv-x="466" 
d="M423 225q0 -88 -13.5 -135t-39.5 -66.5t-63.5 -23t-84.5 -3.5q-28 0 -69.5 1.5t-85.5 1.5v403q0 28 4 40.5t24 14.5q21 2 56 3t70.5 1.5t57.5 -1.5q31 -2 57.5 -8t46 -27.5t30 -69t10.5 -131.5zM272 423q-17 2 -42 2t-49.5 -1t-38.5 -4q-12 -1 -17.5 -6t-5.5 -19v-356
q29 -2 57.5 -3t51.5 -2q50 -2 82 10.5t47.5 53.5t15.5 126q0 65 -5 103.5t-17 58.5t-31 27.5t-48 9.5z" />
    <glyph glyph-name="tsae" unicode="&#x13a1;" horiz-adv-x="547" 
d="M328 185q-16 2 -44.5 3t-60 1t-59.5 -0.5t-45 -1.5v-187h-52v402q0 29 12.5 41.5t43.5 13.5q34 2 57 3t41.5 1t39 -1t50.5 -3q42 -3 64 -15.5t30.5 -41t8.5 -78.5q2 -87 -55 -103q31 -7 41 -27.5t10 -44.5v-86q0 -22 6.5 -25.5t15.5 -3.5q14 0 21.5 12.5t7.5 58.5h36v-45
q0 -46 -16.5 -55.5t-48.5 -9.5t-48 6t-21 24t-6 55v69q0 15 -7 25.5t-22 12.5zM119 234q36 -1 59.5 -1.5t47 -0.5t60.5 1q34 1 55.5 18t21.5 69q0 53 -14.5 72.5t-52.5 23.5q-26 2 -71.5 2t-105.5 -6v-178z" />
    <glyph glyph-name="tsai" unicode="&#x13a2;" horiz-adv-x="453" 
d="M32 460h391v-42q-1 1 -22.5 1.5t-51.5 0.5h-56.5h-38.5v-362q0 -27 -7 -42.5t-31 -15.5h-14v420l-170 -2v42z" />
    <glyph glyph-name="tsao" unicode="&#x13a3;" horiz-adv-x="572" 
d="M294 460h172v-39h-61v-70q40 -1 71.5 -13t50.5 -46.5t19 -106.5q0 -61 -7.5 -97t-23 -55t-38.5 -28q-18 -7 -40.5 -8t-37.5 0q-12 1 -27 5t-26 16.5t-11 35.5v26h28q-2 -18 8 -33.5t47 -15.5q23 0 39 12t25 44.5t9 94.5q0 49 -6.5 75.5t-21 37t-39.5 12.5t-61 2
q-49 0 -71 -11t-26 -49q17 -15 26 -42t9 -72q0 -64 -18.5 -93.5t-49.5 -37.5t-69 -8t-68.5 8t-48 37.5t-17.5 93.5t19 93.5t51 37.5t69 8q20 0 37 -2t32 -7v23q0 25 18.5 38.5t46.5 19.5t55 6v69h-64v39zM250 135q0 47 -11 69.5t-29.5 29.5t-43.5 7t-44.5 -6.5t-30.5 -29
t-11 -70.5t11 -70.5t30.5 -29.5t44.5 -7t43.5 7t29.5 30t11 70z" />
    <glyph glyph-name="tsau" unicode="&#x13a4;" horiz-adv-x="601" 
d="M211 -5q-67 0 -108 19t-59 70.5t-18 148.5q0 88 18 138t59 71t108 21q55 0 91.5 -12t58 -42.5t29.5 -87.5q11 -7 31.5 -18.5t43 -20t41.5 -8.5t28 16q15 26 3.5 42t-28.5 23l13 24l23 -11q41 -22 41 -55.5t-32 -68.5q-22 -24 -59.5 -17.5t-99.5 35.5q0 -9 0.5 -18
t0.5 -19q0 -88 -18 -138t-58.5 -71t-108.5 -21zM210 32q58 0 87 20.5t39 63.5t10 108q0 70 -10 114.5t-38.5 66t-85.5 21.5q-58 0 -87 -20.5t-39 -63t-10 -108.5q0 -70 10 -114.5t39 -65.5t86 -21z" />
    <glyph glyph-name="tsav" unicode="&#x13a5;" horiz-adv-x="183" 
d="M118 399v-399q-26 0 -37 5t-13 15t-2 26v353h52zM124 474q0 -19 -9 -22.5t-24 -3.5q-14 0 -23.5 3.5t-9.5 22.5q0 17 9 21.5t23 4.5t24 -4t10 -22z" />
    <glyph glyph-name="tsaga" unicode="&#x13a6;" horiz-adv-x="480" 
d="M26 258h85q-27 15 -41 37t-14 56q0 41 17 63.5t45.5 32.5t63 12.5t69.5 2.5q23 0 49.5 -2t51 -6.5t40 -12t15.5 -17.5v-33q-9 6 -35.5 14t-60 13.5t-64.5 5.5q-36 0 -68.5 -4t-52.5 -19t-20 -49q0 -32 28.5 -50.5t62.5 -29.5l43 -14h212v-39h-100q27 -12 45.5 -34
t18.5 -72q0 -48 -23.5 -72.5t-66 -33.5t-99.5 -11q-40 -1 -81 3.5t-60 9.5q-16 5 -24.5 17.5t-8.5 40.5q33 -15 79.5 -23.5t93.5 -8.5q18 0 41.5 2.5t46 10t37.5 23.5t15 44q0 24 -20.5 44.5t-47.5 29.5l-87 30h-185v39z" />
    <glyph glyph-name="tsaka" unicode="&#x13a7;" horiz-adv-x="607" 
d="M356 39q23 3 42.5 17t31.5 55.5t12 124.5q0 77 -12.5 117t-35.5 55t-53.5 16.5t-66.5 1.5q-50 0 -81.5 -11.5t-46 -27.5t-14.5 -30h-35v20q0 34 25.5 53t66 27t85.5 8q49 0 90 -4.5t71.5 -25t47 -66t16.5 -127.5q0 -79 -10 -126t-30 -72t-50 -37q-13 -5 -47 -7.5t-74 -3
t-72 0.5q-39 2 -69.5 13.5t-47.5 43t-17 92.5q0 62 18 95t52 45.5t80 12.5q77 0 102 -28.5t25 -81.5q0 -39 -19.5 -69.5t-52 -51t-71.5 -30.5h9q26 -1 62.5 -2t68.5 3zM134 149q0 -36 7 -57.5t20 -33.5q29 6 64 22t60 43.5t25 64.5q0 73 -78 73q-23 0 -45.5 -8t-37.5 -31.5
t-15 -72.5z" />
    <glyph glyph-name="tsage" unicode="&#x13a8;" horiz-adv-x="353" 
d="M105 460v-171l89 62q3 -13 14.5 -26t36.5 -13t45 19.5t32 39.5q11 -5 15 -16t-13 -34q-40 -52 -79 -52q-14 0 -34.5 7t-33.5 18l-72 -50v-186q0 -27 -7 -42.5t-31 -15.5h-14v460h52z" />
    <glyph glyph-name="tsagi" unicode="&#x13a9;" horiz-adv-x="411" 
d="M352 460h49l-94 -251q-30 -82 -51.5 -130.5t-41.5 -68.5t-45 -18q-47 4 -70.5 28t-8.5 68l9 23l26 -8q-7 -16 -4.5 -36t31.5 -28q16 -5 28.5 7t22.5 31t18 36l7.5 17.5t17 40t15.5 38.5l-24 -10q-16 -7 -30 8t-25 44l-81 209h56l79 -209q4 -11 15.5 -14.5t18.5 -3.5z" />
    <glyph glyph-name="tsago" unicode="&#x13aa;" horiz-adv-x="406" 
d="M103 118l-34 -118h-46l119 396q13 44 32.5 54t41.5 10h37l138 -460h-50l-35 118h-203zM115 159h178l-78 259q-25 -7 -33 -34z" />
    <glyph glyph-name="tsagu" unicode="&#x13ab;" horiz-adv-x="296" 
d="M97 105q0 -32 11.5 -49t39.5 -17q35 0 47.5 20t12.5 55v346h25q22 0 25 -9t3 -40v-280q0 -55 -9 -84t-34 -39t-73 -10q-37 0 -55 11.5t-23.5 35t-5.5 60.5h36z" />
    <glyph glyph-name="tsagv" unicode="&#x13ac;" horiz-adv-x="385" 
d="M341 460v-40h-221v-160h142v-39h-142v-182h221v-39h-273v415q0 19 8.5 32t30.5 13h234z" />
    <glyph glyph-name="tsaha" unicode="&#x13ad;" horiz-adv-x="557" 
d="M187 460h172v-39h-61v-121h239v-52l-200 -202l-24.5 -24.5t-25 -15.5t-40.5 -4q1 2 1.5 13t0.5 19v225h-66q-5 -48 -28 -60t-59 -12q-26 0 -46 6t-31 27t-11 65q0 41 12 60.5t33.5 25.5t47.5 6q35 0 57 -13.5t25 -63.5h66v121h-62v39zM479 259h-180v-186zM48 286
q0 -41 13 -52.5t34 -11.5q22 0 35 11.5t13 52.5q0 38 -12 49.5t-34 11.5q-20 0 -34.5 -11t-14.5 -50z" />
    <glyph glyph-name="tsahe" unicode="&#x13ae;" horiz-adv-x="353" 
d="M113 304v-67h48q59 0 87 19t28 80q0 51 -22.5 68t-78.5 17h-59q-5 0 -20 -0.5t-32.5 -1t-31 -1.5t-16.5 -1v10q0 23 24.5 28t89.5 5h65q46 0 76 -9t45.5 -36.5t15.5 -82.5q0 -63 -28.5 -91.5t-78 -35.5t-112.5 -7v-198q-26 0 -37 5t-13 15t-2 26v258h52z" />
    <glyph glyph-name="tsahi" unicode="&#x13af;" horiz-adv-x="477" 
d="M278 105q0 -32 11.5 -49t39.5 -17q34 0 47 22.5t14 74.5v83h-171v-43q0 -61 -6 -97t-19.5 -53.5t-34 -22.5t-50.5 -5q-40 0 -59.5 11.5t-25 35t-5.5 60.5h36q0 -32 11.5 -49t39.5 -17q35 0 47.5 21.5t12.5 77.5v103q0 83 7.5 132t37 70t94.5 21q50 0 78 -11.5t40.5 -36
t15 -63.5t2.5 -94v-89q0 -60 -6.5 -95t-19.5 -51.5t-33.5 -21t-49.5 -4.5q-40 0 -59.5 11.5t-25 35t-5.5 60.5h36zM219 258h171v24q0 62 -8.5 93t-27.5 41t-49 10q-47 0 -66.5 -28t-19.5 -101v-39z" />
    <glyph glyph-name="tsaho" unicode="&#x13b0;" horiz-adv-x="228" 
d="M91 460v-202h122v-39h-122v-219q-26 0 -37 5t-13 15t-2 26v414h52z" />
    <glyph glyph-name="tsahu" unicode="&#x13b1;" horiz-adv-x="322" 
d="M313 460v-40h-221v-420h-52v415q0 19 8.5 32t30.5 13h234z" />
    <glyph glyph-name="tsahv" unicode="&#x13b2;" horiz-adv-x="540" 
d="M372 208h153v-39h-49q4 -28 3.5 -57.5t-10 -55.5t-31 -42t-59.5 -16q-42 0 -74.5 20t-64.5 70q-31 -49 -63.5 -69.5t-73.5 -20.5q-35 0 -63 19.5t-28 60.5q0 26 11 53.5t27 49.5l35 -18q-10 -17 -20 -39t-10 -42q0 -19 15 -31t36 -12q45 0 106 99q-10 20 -21 43t-22 49
q-16 37 -27.5 77t-11.5 80q0 30 13 45.5t35 21.5q29 8 66.5 7t65.5 -9q42 -12 42 -65q0 -40 -11 -80t-28 -77q-12 -26 -22.5 -48.5t-20.5 -42.5q59 -100 106 -100q34 0 48 21.5t16 52t0 56.5h-68v39zM202 279q10 -25 19.5 -46.5t19.5 -41.5q10 20 19.5 42t19.5 46
q13 32 18 55t5 39q0 24 -13.5 38t-46.5 14q-64 0 -64 -52q0 -16 5 -39t18 -55z" />
    <glyph glyph-name="tsala" unicode="&#x13b3;" horiz-adv-x="510" 
d="M396 92l55 368h42l-65 -426q-4 -25 -14.5 -29.5t-26.5 -4.5h-17l-110 395l-99 -395h-12q-25 0 -41.5 3.5t-20.5 30.5l-65 426h47l62 -407l103 407h61z" />
    <glyph glyph-name="tsale" unicode="&#x13b4;" horiz-adv-x="500" 
d="M341 171q0 -59 -12 -94.5t-34 -53t-51 -23t-63 -5.5q-44 0 -77 13t-51 51.5t-18 114.5q0 59 12.5 94.5t34.5 53t51 23t62 5.5q23 0 43.5 -3t36.5 -11q-7 71 12 100.5t75 29.5q42 0 63.5 -11.5t31 -35t14.5 -60.5h-42q-5 32 -18.5 49t-42.5 17q-28 0 -39.5 -17
t-10.5 -44.5t7 -58.5q7 -31 11.5 -68.5t4.5 -65.5zM296 172q0 63 -13.5 94t-38 41t-56.5 10q-31 1 -55.5 -9t-38 -40.5t-13.5 -93.5q0 -62 13.5 -93t38 -41t56.5 -11q32 0 56 9.5t37.5 40.5t13.5 93z" />
    <glyph glyph-name="tsali" unicode="&#x13b5;" horiz-adv-x="363" 
d="M40 0v317q0 61 17 93t51 44t85 12q71 0 106.5 -24t35.5 -94q0 -29 -12 -49t-28.5 -32t-30.5 -17l-12 29l8.5 7.5t17 21.5t8.5 34q0 41 -18.5 62t-73.5 21q-45 0 -67 -13.5t-28.5 -39t-6.5 -60.5v-312h-52z" />
    <glyph glyph-name="tsalo" unicode="&#x13b6;" horiz-adv-x="461" 
d="M239 135v131h39v-44h33q62 0 88 -19t26 -72q0 -82 -46.5 -110.5t-139.5 -28.5q-73 0 -120.5 17t-70 67t-22.5 147q0 88 20.5 140.5t68.5 76.5t130 24q59 0 98 -11.5t58 -47t19 -108.5h-45q0 33 -6.5 63.5t-29.5 44.5q-20 13 -47.5 17t-58.5 4q-63 0 -97 -19.5t-47 -63.5
t-13 -118q0 -67 11.5 -106t33.5 -57.5t52 -23.5t66 -5t69 6.5t54 24.5t21 53q0 31 -11.5 50t-60.5 19h-33v-51h-39z" />
    <glyph glyph-name="tsalu" unicode="&#x13b7;" horiz-adv-x="528" 
d="M404 460h36q17 0 24 -7.5t7 -29.5v-382q0 -28 -8.5 -34.5t-27.5 -6.5h-15v407l-151 -407h-25l-159 408v-408h-39q2 2 2 8.5v13.5v401q0 22 7 29.5t23 7.5h37l8.5 -22t22.5 -58t31 -79.5t33 -86.5t29.5 -78.5t20.5 -55.5z" />
    <glyph glyph-name="tsalv" unicode="&#x13b8;" horiz-adv-x="385" 
d="M39 275h122l53 -78h68v115q0 35 -6.5 60.5t-28 39t-67.5 13.5q-55 0 -73.5 -21t-18.5 -62h-49q0 70 36 97t106 27q51 0 85 -12t51.5 -44t16.5 -93v-317h-52v158h-93l-51 78h-99v39z" />
    <glyph glyph-name="tsama" unicode="&#x13b9;" horiz-adv-x="577" 
d="M229 460h153v-39h-57v-46q12 -31 34.5 -38.5t51.5 3.5q41 16 66.5 18.5t41.5 -16.5q30 -33 27 -68t-44 -57l-23 -11l-13 24q17 7 28.5 23t-3.5 42q-8 15 -26.5 16t-39.5 -7q-28 -10 -53.5 -13.5t-41.5 9.5q-7 6 -14.5 14.5t-13.5 15.5q-14 -16 -25.5 -27t-21.5 -22
q35 -36 48 -84.5t13 -95.5q0 -42 -19.5 -67t-47.5 -33.5t-56.5 -0.5t-48 33t-19.5 67q0 35 19.5 81.5t52.5 90.5q-24 18 -51 18q-33 0 -48.5 -12.5t-20.5 -32t-5 -41.5h-45q0 15 1 33.5t9 34.5q14 28 43.5 41t61.5 14q46 2 83 -21q9 9 19 18.5t20 18.5q6 5 15 18.5t9 23.5
v36h-59v39zM267 101q0 43 -8 75.5t-34 66.5q-22 -31 -36 -66.5t-14 -75.5q0 -33 14 -49t32 -16t32 16.5t14 48.5z" />
    <glyph glyph-name="tsame" unicode="&#x13ba;" horiz-adv-x="540" 
d="M457 0v202h-62q-2 -79 -21 -124t-58.5 -64t-104.5 -19q-67 0 -108 19t-59 70.5t-18 148.5q0 88 18 138t59 71t108 21q66 0 106 -18t59 -66t20 -138h61v219h24q19 0 22 -8t3 -23v-429h-49zM210 32q58 0 87 20.5t39 63.5t10 108q0 70 -10 114.5t-38.5 66t-85.5 21.5
q-58 0 -87 -20.5t-39 -63t-10 -108.5q0 -70 10 -114.5t39 -65.5t86 -21z" />
    <glyph glyph-name="tsami" unicode="&#x13bb;" horiz-adv-x="445" 
d="M360 0v221h-275v-43.5t0.5 -67t0.5 -67v-43.5h-53v409q0 20 6.5 35.5t25.5 15.5h21v-40.5t-0.5 -59.5t-0.5 -59.5v-40.5h275v200h52v-410q0 -20 -6 -35t-25 -15h-21z" />
    <glyph glyph-name="tsamo" unicode="&#x13bc;" horiz-adv-x="353" 
d="M106 460h153v-39h-57v-67q57 -4 85 -24.5t37 -59t9 -99.5t-10.5 -97t-31 -53t-52 -22t-73.5 -5q-47 0 -80 4.5t-50 25.5t-17 69q0 44 17 63.5t78 19.5v-34q-32 0 -42 -12t-10 -36q0 -33 12.5 -46t35.5 -15.5t56 -2.5q35 0 61 8t40.5 38t14.5 97q0 65 -9.5 95.5t-36 39.5
t-77.5 9q-22 0 -47.5 -5.5t-34.5 -10.5l-8 38q7 5 35 11t57 6h4v65h-59v39z" />
    <glyph glyph-name="tsamu" unicode="&#x13bd;" horiz-adv-x="452" 
d="M21 178h143v-39h-55v-65q0 -23 9 -29.5t34 -6.5q12 0 23.5 9t20.5 31l54 131l-24 -10q-16 -7 -29.5 8t-26.5 44l-88 209h56l86 -209q5 -11 16.5 -14.5t18.5 -3.5l67 188h-45v39h153v-39h-59l-79 -212q-27 -74 -46.5 -120.5t-38.5 -69.5q-12 -16 -31.5 -19.5t-34.5 -3.5
q-39 0 -54 9t-17 29.5t-2 53.5v51h-51v39z" />
    <glyph glyph-name="tsana" unicode="&#x13be;" horiz-adv-x="420" 
d="M211 -5q-67 0 -108 19t-59 70.5t-18 148.5q0 88 18 138t59 71t108 21q68 0 108.5 -19t58.5 -70.5t18 -148.5q0 -88 -18 -138t-58.5 -71t-108.5 -21zM210 32q58 0 87 20.5t39 62.5t10 106h-270q1 -65 11.5 -107t39.5 -61.5t84 -19.5zM212 426q-54 0 -83 -18t-40 -54.5
t-13 -93.5h269q-3 86 -29.5 125.5t-103.5 40.5z" />
    <glyph glyph-name="tsahna" unicode="&#x13bf;" horiz-adv-x="394" 
d="M238 178h143v-39h-43v-121q0 -49 -18 -79.5t-66 -30.5q-14 0 -36.5 1.5t-28.5 2.5v38q5 -2 17.5 -3t18.5 -1q60 0 60 59v15q-2 -13 -25.5 -18t-53 -5h-52.5q-34 0 -48.5 20t-17.5 51.5t-3 66.5v227h-45v38h45q0 1 0.5 16.5t0.5 31v16.5q0 20 7.5 30.5t26.5 10.5h20
q-1 -2 -1.5 -11t-0.5 -17v-9v-68h103v-38h-103v-255q0 -40 10.5 -56.5t44.5 -16.5q17 0 38.5 2.5t37.5 9.5t16 19v74h-47v39z" />
    <glyph glyph-name="tsanah" unicode="&#x13c0;" horiz-adv-x="455" 
d="M239 -8q-73 0 -120.5 17t-70 67t-22.5 147q0 88 20.5 140.5t68.5 76.5t130 24q41 0 80 -8t65.5 -33.5t27.5 -76.5h-47q-3 19 -10.5 34.5t-21.5 24.5q-20 13 -47.5 17t-58.5 4q-63 0 -97 -19.5t-47 -63.5t-13 -118q0 -67 12.5 -107t35 -60t53 -26t66.5 -6q24 0 54 4
t54.5 13.5t31.5 23.5v119h-110v36h152v-158q0 -28 -28 -43.5t-71 -22t-87 -6.5z" />
    <glyph glyph-name="tsane" unicode="&#x13c1;" horiz-adv-x="512" 
d="M447 0l-131 374q-9 25 -18.5 38.5t-33.5 13.5q-29 0 -37 -27.5t-8 -98.5v-145q0 -71 -11 -104.5t-35 -43t-64 -9.5t-59.5 11.5t-25 35t-5.5 60.5h36q0 -32 11.5 -49t39.5 -17q35 0 47.5 21.5t12.5 77.5v162q0 54 3.5 90.5t23.5 55t70 18.5q35 0 54 -6t31.5 -25.5
t25.5 -58.5l130 -374h-57z" />
    <glyph glyph-name="tsani" unicode="&#x13c2;" horiz-adv-x="385" 
d="M99 0q-22 0 -37 4.5t-15 31.5v423h53v-195l33 7.5t76 7.5q51 0 79.5 -8.5t41.5 -27.5t16.5 -50.5t3.5 -78.5v-62q0 -28 -7.5 -40.5t-31.5 -12.5h-14v139q0 49 -13 70t-35 26t-50 5q-22 0 -45.5 -3.5t-39 -7.5l-15.5 -4v-224z" />
    <glyph glyph-name="tsano" unicode="&#x13c3;" horiz-adv-x="389" 
d="M83 37h26t68 0.5t92 0.5h98v-4q0 -11 -3.5 -22.5t-18.5 -11.5h-323v37l19 26t49 67t64 88.5t66 91.5t54.5 75.5t28.5 39.5h-258v7q0 9 3 18t20 9h298q-1 -23 -17 -50t-42 -62z" />
    <glyph glyph-name="tsanu" unicode="&#x13c4;" horiz-adv-x="439" 
d="M195 303h-143v39h43v22q0 41 21 67t66 29q14 1 38 1.5t47 0.5t32 -2q47 -7 62.5 -33.5t15.5 -82.5v-314q0 -17 -8 -23.5t-27 -6.5h-20q1 3 1.5 11.5t0.5 17v8.5v89q-12 0 -33 -0.5t-43.5 -0.5h-40.5t-25 1q-45 4 -66 29.5t-21 66.5v6h-43v39h143v-39h-47v-4q0 -27 14 -44
t58 -17h104v187q0 40 -16 56.5t-63 16.5q-42 0 -63 -7.5t-27.5 -21.5t-6.5 -32v-20h47v-39z" />
    <glyph glyph-name="tsanv" unicode="&#x13c5;" horiz-adv-x="708" 
d="M468 283q0 17 -7 19t-14.5 -1.5t-9.5 -4.5l-42 -27q0 -10 0.5 -21.5t0.5 -22.5q0 -88 -18 -138t-58.5 -71t-108.5 -21q-67 0 -108 19t-59 70.5t-18 148.5q0 88 18 138t59 71t108 21q58 0 95.5 -13.5t58.5 -48t27 -99.5l53 42q27 22 44 13.5t17 -25.5v-32q0 -28 8 -43.5
t43 -15.5q27 0 36.5 16t9.5 43v68h15q14 0 17 -10t3 -53q0 -51 -15 -72.5t-66 -21.5q-52 0 -70.5 13.5t-18.5 58.5zM210 32q58 0 87 20.5t39 63.5t10 108q0 70 -10 114.5t-38.5 66t-85.5 21.5q-58 0 -87 -20.5t-39 -63t-10 -108.5q0 -70 10 -114.5t39 -65.5t86 -21z" />
    <glyph glyph-name="tsaqua" unicode="&#x13c6;" horiz-adv-x="496" 
d="M254 33h38.5h56.5t51.5 0.5t22.5 1.5v-35h-391v35l170 -2v394l-170 -2v35h391v-35q-1 1 -22.5 1.5t-51.5 0.5h-56.5h-38.5v-394z" />
    <glyph glyph-name="tsaque" unicode="&#x13c7;" horiz-adv-x="578" 
d="M97 215l-3 -28t-3 -60q0 -47 21.5 -70.5t77.5 -23.5q33 0 47.5 13t17.5 39.5t3 67.5h44q0 -41 3.5 -67.5t17.5 -39.5t47 -13q23 0 44 5t37.5 23.5t26 59t9.5 112.5t-13.5 111t-36 55.5t-50.5 20t-58 3.5q-61 0 -94.5 -32t-38.5 -112h-41v21q0 76 48 119.5t127 43.5
q36 0 72.5 -4t66.5 -24t48 -66.5t18 -131.5q0 -60 -6.5 -106t-25.5 -77.5t-57 -47t-101 -12.5q-18 1 -41 7.5t-36 28.5q-15 -16 -38.5 -26t-54.5 -10q-61 0 -97 31t-36 98q-1 35 2 63.5l3 28.5h50z" />
    <glyph glyph-name="tsaqui" unicode="&#x13c8;" horiz-adv-x="518" 
d="M103 464q42 0 74.5 -20.5t64.5 -71.5q35 51 71 71.5t75 20.5q50 0 77 -23t27 -78q0 -66 -33 -88t-104 -22v34q38 0 64 15.5t26 57.5q2 28 -11 47.5t-45 19.5q-39 0 -68.5 -32.5t-51.5 -70.5q11 -19 21.5 -42.5t22.5 -49.5q17 -37 28 -77t11 -80q0 -27 -11 -46t-31 -25
q-28 -8 -65.5 -8.5t-66.5 6.5q-22 6 -35 24.5t-13 48.5q0 40 11.5 80t27.5 77q11 26 22 48.5t21 41.5q-61 101 -106 101q-21 0 -33.5 -11.5t-12.5 -31.5q0 -7 0.5 -19.5t0.5 -22.5h-45v57q0 44 26 56.5t61 12.5zM280 183q-10 24 -20 46t-20 41q-9 -19 -18.5 -41t-19.5 -46
q-13 -31 -18 -54.5t-5 -39.5q0 -52 64 -52q33 0 46.5 14t13.5 38q0 16 -5 39.5t-18 54.5z" />
    <glyph glyph-name="tsaquo" unicode="&#x13c9;" horiz-adv-x="642" 
d="M54 417v-31q0 -26 30 -26q21 0 30.5 14.5t14.5 37.5t10 48h44l48 -159l67 -224l76 259h-2q-35 0 -45 14t-10 49t10 48t44 13h86l-27 -90h14q14 0 22.5 4t8.5 12q0 20 11 31t57 12q47 1 63 -13.5t16 -60.5q0 -32 -10 -54.5t-53 -22.5v34q9 0 12.5 8.5t4 19t0.5 15.5
q0 25 -8 32t-25 7t-23.5 -5.5t-6.5 -22.5q0 -14 -12 -22t-46 -8h-35l-101 -336h-48l-119 399q-8 -39 -20.5 -57t-47.5 -18q-40 0 -53 13.5t-13 38.5v41h36zM356 399q0 -11 2 -20t14 -9h12l17 56h-30q-6 0 -10.5 -4t-4.5 -23z" />
    <glyph glyph-name="tsaquu" unicode="&#x13ca;" horiz-adv-x="649" 
d="M323 124q2 -47 19 -69t60 -22q23 0 44 5t37.5 23.5t26 59t9.5 112.5t-12.5 111.5t-33.5 56.5t-48 20.5t-57 3.5q-67 0 -101 -33t-39 -113h-41v21q0 76 48 119.5t127 43.5q36 0 72.5 -4t66.5 -24t48 -66.5t18 -131.5q0 -60 -6.5 -106t-25.5 -77.5t-57 -47t-101 -12.5
q-19 1 -44.5 9.5t-36.5 36.5q-15 -22 -40 -34t-60 -12q-75 0 -104 31t-29 98q-1 35 3.5 68.5t8.5 43.5h49q-4 -13 -8 -44.5t-4 -63.5q0 -47 16.5 -71.5t72.5 -24.5q50 0 64 30.5t14 91.5v6q0 44 23.5 64t63.5 20q79 0 79 -67v-23h-37q0 31 -6.5 44.5t-35.5 13.5
q-28 0 -35.5 -13.5t-7.5 -44.5v-29z" />
    <glyph glyph-name="tsaquv" unicode="&#x13cb;" horiz-adv-x="407" 
d="M194 33q53 0 79.5 5.5t36 18t9.5 33.5v52h42v-55q0 -38 -19.5 -58t-54 -27.5t-78.5 -7.5q-60 0 -96.5 10.5t-53 39.5t-16.5 86q0 44 21 72.5t48 30.5q-34 2 -47 32t-13 74q0 48 13 75t46 38t92 11q34 0 62 -3t59 -9q14 -3 16 -11t2 -22v-8q-25 9 -64.5 13t-77.5 4
q-30 0 -53 -6.5t-35.5 -26t-12.5 -58.5q0 -46 17 -64t66 -18h40v-40h-39q-34 0 -53.5 -5.5t-28 -24t-8.5 -57.5q0 -55 27 -73.5t74 -20.5z" />
    <glyph glyph-name="tsasa" unicode="&#x13cc;" horiz-adv-x="413" 
d="M364 464v-259q0 -55 -3.5 -94t-18 -63.5t-46 -36t-88.5 -11.5t-89 11.5t-47 37.5t-19 69t-4 105v241h53v-218h211v218h51zM208 38q43 0 65.5 10t31 41t8.5 93v24h-211v-39q0 -49 9 -77t32 -40t65 -12z" />
    <glyph glyph-name="tsas" unicode="&#x13cd;" horiz-adv-x="690" 
d="M30 135q0 64 19 93.5t51 37.5t69 8q35 0 62.5 -7t45.5 -30t22 -70h75v68h-49v39h142v-39h-46v-92q0 -49 12.5 -75.5t63.5 -26.5q31 0 51 15t30.5 56t10.5 119q0 62 -9.5 97.5t-31 52t-57 21t-88.5 4.5q-52 0 -80.5 -6.5t-40.5 -26t-14 -59.5q-6 0 -18 1t-17 1v48
q0 32 26 49.5t64.5 24.5t74.5 7q50 0 93.5 -4t76.5 -22.5t52 -61.5t19 -122q0 -40 -4 -81.5t-17.5 -77t-43 -57t-80.5 -21.5q-25 0 -53 7.5t-47.5 29.5t-19.5 64v26h-73q-1 -60 -20 -87t-49.5 -34.5t-67.5 -7.5q-38 0 -68.5 8t-48 37.5t-17.5 93.5zM250 135q0 47 -11 69.5
t-29.5 29.5t-43.5 7t-44.5 -6.5t-30.5 -29t-11 -70.5t11 -70.5t30.5 -29.5t44.5 -7t43.5 7t29.5 30t11 70z" />
    <glyph glyph-name="tsase" unicode="&#x13ce;" horiz-adv-x="371" 
d="M45 185l159 232q20 21 37 33.5t51 10.5q-1 -2 -1.5 -13t-0.5 -19v-226h48v-34h-48v-169h-51v169h-194v16zM113 203h125v187z" />
    <glyph glyph-name="tsasi" unicode="&#x13cf;" horiz-adv-x="370" 
d="M99 460v-193h95q47 0 78.5 -8t47.5 -39t16 -102q0 -59 -18 -83.5t-54.5 -29.5t-90.5 -5h-126v460h52zM162 36q47 0 72.5 4t36 21.5t10.5 56.5q0 55 -9 78t-28.5 27.5t-51.5 4.5h-93v-192h63z" />
    <glyph glyph-name="tsaso" unicode="&#x13d0;" horiz-adv-x="439" 
d="M254 291q16 0 33 7q41 16 66.5 18.5t41.5 -16.5q30 -33 27 -68t-44 -57l-23 -11l-13 24q17 7 28.5 23t-3.5 42q-8 15 -26.5 16t-39.5 -7q-13 -4 -24.5 -7.5t-22.5 -5.5v-249h-52v224q-4 -1 -7.5 -1.5t-6.5 -2.5q-40 -16 -65.5 -18.5t-42.5 16.5q-30 33 -27 68t44 57
l23 11l13 -24q-17 -7 -28.5 -23t3.5 -42q8 -15 26.5 -15.5t39.5 6.5q8 2 15 5t13 4v194h52v-168z" />
    <glyph glyph-name="tsasu" unicode="&#x13d1;" horiz-adv-x="477" 
d="M47 115q0 44 19 96.5t42 98.5q-68 19 -68 87q0 33 14 46t35.5 15t41.5 2q49 0 63 -16t7 -41t-21 -52l-4 -8q20 3 32.5 14t22.5 25.5t20 25.5q19 22 42.5 40t60.5 18q24 0 46 -4.5t36 -20t14 -48.5q0 -25 0.5 -37l0.5 -12l-40 -2l-0.5 13t-0.5 38q0 22 -18 27.5t-38 5.5
q-25 0 -41.5 -13.5t-31.5 -30.5q-14 -15 -27.5 -33.5t-33 -32t-52.5 -13.5h-14q-21 -41 -38 -88t-17 -97q0 -46 24.5 -64t64.5 -18q28 0 49 4t32.5 21.5t11.5 56.5q0 55 -9 78t-28.5 27.5t-51.5 4.5l2 39q47 0 78.5 -8t47.5 -39t16 -102q0 -59 -17.5 -83.5t-50.5 -29.5
t-80 -5q-46 0 -77.5 9t-47.5 33.5t-16 72.5zM80 397q0 -40 47 -50q22 42 23 59t-8.5 20t-21.5 3q-6 0 -15.5 -1t-17 -7.5t-7.5 -23.5z" />
    <glyph glyph-name="tsasv" unicode="&#x13d2;" horiz-adv-x="433" 
d="M216 277h53l17 -34q17 3 36 22t19 55q0 53 -19.5 72t-69.5 24q-9 1 -33.5 1.5t-52 -0.5t-47.5 -3v-414h-52v402q0 29 12.5 41.5t43.5 13.5q33 2 54 2.5t38.5 0t40.5 -1.5q58 -2 87 -15t39 -42t10 -79q0 -55 -27.5 -80t-65.5 -30l100 -212h-54z" />
    <glyph glyph-name="tsada" unicode="&#x13d3;" horiz-adv-x="294" 
d="M262 105q0 -37 -5.5 -60.5t-23 -35t-55.5 -11.5q-48 0 -73 10t-34 39t-9 84v280q0 31 3 40t25 9h25v-346q0 -35 13 -55t47 -20q29 0 40 17t11 49h36z" />
    <glyph glyph-name="tsata" unicode="&#x13d4;" horiz-adv-x="570" 
d="M282 324l44 136h51l-70 -212l57 -171l123 383h51l-151 -460h-53l-53 167l-55 -167h-53l-147 460h51l126 -383l53 166l-69 217h51z" />
    <glyph glyph-name="tsade" unicode="&#x13d5;" horiz-adv-x="529" 
d="M339 354q0 43 -22.5 56.5t-69.5 13.5q-36 0 -68.5 -4t-52.5 -19t-20 -49q0 -32 28.5 -50.5t62.5 -29.5l43 -14h230v-39h-118q27 -12 45.5 -34t18.5 -72q0 -48 -23.5 -72.5t-66 -33.5t-99.5 -11q-40 -1 -81 3.5t-60 9.5q-16 5 -24.5 17.5t-8.5 40.5q33 -15 79.5 -23.5
t93.5 -8.5q18 0 41.5 2.5t46 10t37.5 23.5t15 44q0 24 -20.5 44.5t-47.5 29.5l-144 50q-47 17 -72.5 42t-25.5 70q0 41 17 63.5t45.5 32.5t63 12.5t69.5 2.5q30 0 61 -5t52 -21.5t21 -50.5q0 -16 -3 -24h88v-39h-131v32z" />
    <glyph glyph-name="tsate" unicode="&#x13d6;" horiz-adv-x="414" 
d="M18 460h139v-310q0 -51 6 -75t19.5 -31.5t37.5 -7.5q47 0 72.5 4t36 21.5t10.5 56.5q0 55 -9 78t-28.5 27.5t-51.5 4.5h-62l-2 39h66q47 0 78.5 -8t47.5 -39t16 -102q0 -59 -18 -83.5t-54.5 -29.5t-90.5 -5q-47 0 -73 5.5t-37.5 22.5t-13.5 51.5t-2 93.5v248h-87v39z" />
    <glyph glyph-name="tsa_di" unicode="&#x13d7;" horiz-adv-x="501" 
d="M100 105v-19q0 -15 4 -32t29 -17h34q34 0 53.5 27.5t31.5 55.5l60 158v182h13q22 0 30.5 -9t8.5 -28v-423h-52v169q-9 -22 -16.5 -40t-11.5 -26q-12 -25 -26 -49.5t-35 -40.5t-55 -16h-35q-37 0 -52 15t-18 35.5t-3 38.5v19h40z" />
    <glyph glyph-name="tsati" unicode="&#x13d8;" horiz-adv-x="364" 
d="M70 105v-19q0 -15 4 -32t29 -17h34q34 0 53.5 27.5t31.5 55.5l60 158v142h-221v40h234q22 0 30.5 -13t8.5 -32v-415h-52v169q-9 -22 -16.5 -40t-11.5 -26q-12 -25 -26 -49.5t-35 -40.5t-55 -16h-35q-37 0 -52 15t-18 35.5t-3 38.5v19h40z" />
    <glyph glyph-name="tsado" unicode="&#x13d9;" horiz-adv-x="407" 
d="M222 77l138 383h49l-169 -460h-45l-164 460h50z" />
    <glyph glyph-name="tsadu" unicode="&#x13da;" horiz-adv-x="455" 
d="M226 35q18 0 41.5 2.5t46 10t37.5 23.5t15 44q0 24 -20.5 44.5t-47.5 29.5l-144 50q-47 17 -72.5 42t-25.5 70q0 41 17 63.5t45.5 32.5t63 12.5t69.5 2.5q23 0 49.5 -2t51 -6.5t40 -12t15.5 -17.5v-33q-9 6 -35.5 14t-60 13.5t-64.5 5.5q-36 0 -68.5 -4t-52.5 -19
t-20 -49q0 -32 28.5 -50.5t62.5 -29.5l115 -37q27 -11 51 -21.5t38.5 -32.5t14.5 -68q0 -48 -23.5 -72.5t-66 -33.5t-99.5 -11q-40 -1 -81 3.5t-60 9.5q-16 5 -24.5 17.5t-8.5 40.5q33 -15 79.5 -23.5t93.5 -8.5z" />
    <glyph glyph-name="tsadv" unicode="&#x13db;" horiz-adv-x="593" 
d="M314 316v36q-1 28 -14 46.5t-42 18.5q-25 0 -38 -3.5t-21 -13t-18 -28.5q11 -24 21.5 -50.5t22.5 -57.5q17 -43 28 -96t11 -93q0 -27 -11 -46t-31 -25q-28 -8 -65.5 -8.5t-66.5 6.5q-22 6 -35 24.5t-13 48.5q0 40 11.5 93t27.5 96q15 39 29.5 70t27.5 57q16 32 32.5 46.5
t37 18.5t49.5 4q67 0 92 -51q11 21 34 34t68 13q50 0 74 -16t33 -49q5 -18 6 -39.5t1 -35.5q-1 -11 -4.5 -25.5t-12 -25t-25.5 -10.5h-30v26q11 -1 20 9t9 44q0 32 -16 57t-57 25t-64.5 -22t-23.5 -78h-47zM192 207q-19 57 -39 102q-19 -45 -39 -102q-13 -37 -18 -69.5
t-5 -48.5q0 -52 64 -52q33 0 46.5 14t13.5 38q0 16 -5 48.5t-18 69.5z" />
    <glyph glyph-name="tsadla" unicode="&#x13dc;" horiz-adv-x="519" 
d="M310 283q10 -10 25.5 -23t32.5 -27q13 -12 32.5 -27t39.5 -32.5t33.5 -36.5t13.5 -39q0 -16 -1 -33t-9.5 -31t-28.5 -23t-59 -9t-59 9t-28.5 23t-9.5 31t-1 33q0 29 16.5 58t31.5 49q-21 18 -37 32.5t-27 25.5q-12 -12 -27.5 -25.5t-32.5 -27.5l-11 -9q14 -20 29.5 -47.5
t15.5 -55.5q0 -16 -1 -33t-9.5 -31t-28.5 -23t-59 -9t-59 9t-28.5 23t-9.5 31t-1 33q0 21 14.5 40t36.5 37t45 34t40 31q17 14 30.5 25t21.5 18q-2 2 -5 4.5t-5 5.5q-15 16 -33.5 41t-18.5 50q0 18 3 36t23.5 30t71.5 12q52 0 72 -12t23 -30t3 -36q0 -25 -19 -50t-33 -41z
M442 93q0 16 -13 31.5t-30 29t-30 24.5q-12 -16 -25 -38.5t-13 -41.5q0 -12 3 -26.5t16.5 -24.5t43.5 -10q24 0 34 9t12 22t2 25zM209 98q0 18 -12.5 40t-24.5 38q-25 -20 -49.5 -43t-24.5 -40q0 -12 2 -25t12 -22t34 -9q31 0 44 10t16 24.5t3 26.5zM276 297l9.5 9.5
l5.5 5.5q12 14 28 35t16 37q0 10 -2 20.5t-13.5 17.5t-42.5 7q-30 0 -42 -7t-14 -17.5t-2 -20.5q0 -17 15.5 -37.5t28.5 -34.5z" />
    <glyph glyph-name="tsatla" unicode="&#x13dd;" horiz-adv-x="335" 
d="M225 355q0 41 -17.5 54t-50.5 12t-49.5 -17.5t-16.5 -57.5v-306h213v-40h-238q-22 0 -25 9t-3 40v280q0 76 29.5 104.5t87.5 28.5q65 0 92.5 -25.5t27.5 -81.5h-50z" />
    <glyph glyph-name="tsatle" unicode="&#x13de;" horiz-adv-x="327" 
d="M96 459v-419h213v-40h-238q-22 0 -25 9t-3 40v410h53z" />
    <glyph glyph-name="tsatli" unicode="&#x13df;" horiz-adv-x="492" 
d="M442 460v-158h-42v30q0 20 -6 39.5t-29 33.5q-20 13 -47.5 17t-58.5 4q-63 0 -97 -19.5t-47 -63.5t-13 -118q0 -66 11 -110t45.5 -66t104.5 -22q27 0 64.5 6t70.5 20t48 38v-42q-20 -27 -71 -42t-110 -15q-73 0 -120.5 17t-70 67t-22.5 147q0 88 20.5 140.5t68.5 76.5
t130 24q94 0 129 -35v31h42z" />
    <glyph glyph-name="tsatlo" unicode="&#x13e0;" horiz-adv-x="497" 
d="M112 159q-29 0 -51 5.5t-34 24t-12 57.5q0 37 13.5 54t36.5 22.5t52 5.5q28 0 50 -5.5t35 -23t13 -53.5v-47h137v261h51v-259v-2h73v-40h-73q0 -57 -8 -93t-32.5 -53t-77.5 -17q-45 0 -69 11t-34 32.5t-11.5 51.5t-1.5 68h-57zM285 34q33 0 47 9t17 36t3 80h-137
q0 -47 3.5 -74.5t18 -39t48.5 -11.5zM58 251q0 -35 15 -43t40 -8q15 0 31 -0.5t25 -0.5v52q0 32 -14 40t-39 8q-24 0 -41 -8t-17 -40z" />
    <glyph glyph-name="tsatlu" unicode="&#x13e1;" horiz-adv-x="577" 
d="M14 344h62v51q0 44 26 56.5t61 12.5q42 0 74.5 -20.5t64.5 -71.5q35 51 71 71.5t75 20.5q50 0 77 -23t27 -78q0 -66 -33 -88t-104 -22v34q38 0 64 15.5t26 57.5q2 28 -11 47.5t-45 19.5q-39 0 -68.5 -32.5t-51.5 -70.5q11 -19 21.5 -42.5t22.5 -49.5q17 -37 28 -77
t11 -80q0 -27 -11 -46t-31 -25q-28 -8 -65.5 -8.5t-66.5 6.5q-22 6 -35 24.5t-13 48.5q0 40 11.5 80t27.5 77q11 26 22 48.5t21 41.5q-61 101 -106 101q-21 0 -33.5 -11.5t-12.5 -31.5q0 -7 0.5 -17t0.5 -19h64v-40h-171v40zM340 183q-10 24 -20 46t-20 41q-9 -19 -18.5 -41
t-19.5 -46q-13 -31 -18 -54.5t-5 -39.5q0 -52 64 -52q33 0 46.5 14t13.5 38q0 16 -5 39.5t-18 54.5z" />
    <glyph glyph-name="tsatlv" unicode="&#x13e2;" horiz-adv-x="423" 
d="M289 190q-23 -2 -54 -2.5t-62 0t-54 1.5v-189h-52v402q0 33 11.5 43t36.5 12q12 1 36.5 2t53 1t55 -0.5t43.5 -1.5q39 -2 57.5 -17.5t24.5 -44.5t6 -73q0 -64 -20.5 -95.5t-81.5 -37.5zM119 232h136q45 0 64.5 18.5t19.5 71.5t-10 72t-37 22q-24 2 -54 2t-57 -0.5
t-44.5 -1l-17.5 -0.5v-184z" />
    <glyph glyph-name="tsatsa" unicode="&#x13e3;" horiz-adv-x="477" 
d="M473 315h-139v35h58q-1 13 -6.5 29t-20.5 26q-20 13 -47.5 17t-58.5 4q-63 0 -97 -19.5t-47 -63.5t-13 -118q0 -66 11 -110t45.5 -66t104.5 -22q27 0 64.5 6t70.5 20t48 38v-42q-20 -27 -71 -42t-110 -15q-73 0 -120.5 17t-70 67t-22.5 147q0 88 20.5 140.5t68.5 76.5
t130 24q85 0 123 -26.5t41 -87.5h38v-35z" />
    <glyph glyph-name="tsatse" unicode="&#x13e4;" horiz-adv-x="420" 
d="M159 86l195 374h49l-244 -460h-53v425h-86v35h139v-374z" />
    <glyph glyph-name="tsatsi" unicode="&#x13e5;" horiz-adv-x="447" 
d="M354 320q-25 0 -51 -21q-7 -5 -15 -11.5t-23 -19.5q38 -10 56 -33t23.5 -62.5t5.5 -101.5v-21q0 -25 -3 -35.5t-11.5 -12.5t-26.5 -2h-12v115q0 51 -16.5 79.5t-56.5 38.5l-124 -105v-128h-53v462q0 43 34 43h21q-1 -3 -1.5 -17t-0.5 -27v-13v-268l181 155q20 16 38.5 24
t40.5 8q35 0 52.5 -15.5t17.5 -59.5v-43h-45v28q0 20 -6 31.5t-25 11.5z" />
    <glyph glyph-name="tsatso" unicode="&#x13e6;" horiz-adv-x="378" 
d="M111 247q11 7 26 24l142 168q20 23 39.5 24.5t36.5 -3.5l-194 -223l200 -237q-7 -4 -19 -4q-24 0 -38.5 6t-26.5 20t-31 36l-96 119q-10 11 -19 20t-20 9v-206h-52v409q0 20 5.5 35.5t28.5 15.5h18v-213z" />
    <glyph glyph-name="tsatsu" unicode="&#x13e7;" horiz-adv-x="358" 
d="M29 118q0 71 16 102t48 39t78 8h95v193h52v-287q0 -59 -2 -93.5t-13.5 -51.5t-37.5 -22.5t-73 -5.5q-54 0 -90 5t-54.5 29.5t-18.5 83.5zM203 36q24 0 38 7.5t19.5 31.5t5.5 75v78h-93q-31 0 -51 -4.5t-29 -27.5t-9 -78q0 -39 10.5 -56.5t36.5 -21.5t72 -4z" />
    <glyph glyph-name="tsatsv" unicode="&#x13e8;" horiz-adv-x="617" 
d="M381 332q0 20 -6 39.5t-29 33.5q-20 13 -47.5 17t-58.5 4q-63 0 -97 -19.5t-47 -63.5t-13 -118t13 -117t47 -61t97 -18q31 0 58.5 4t47.5 17q23 14 29 33.5t6 39.5v38l81 -45l59 48l76 -57l-26 -30l-9 7t-21 17t-22 18l-59 -48l-42 28q-6 -61 -45.5 -84.5t-120.5 -23.5
q-82 0 -130 21.5t-68.5 72.5t-20.5 138q0 88 20.5 140.5t68.5 76.5t130 24q81 0 120.5 -23.5t45.5 -84.5l42 28l59 -48q10 8 22 18t21 17l9 7l26 -30l-76 -57l-59 48l-81 -45v38z" />
    <glyph glyph-name="tsawa" unicode="&#x13e9;" horiz-adv-x="603" 
d="M309 198h171v-40h-55v-43q0 -41 14.5 -60t55.5 -19t51.5 13t10.5 32h30v-12q0 -39 -16.5 -52t-33.5 -15q-10 -1 -27.5 -1.5t-34.5 1t-28 4.5q-24 7 -36 25q-23 -22 -72 -30.5t-100 -8.5q-73 0 -120.5 17t-70 67t-22.5 147q0 88 20.5 140.5t68.5 76.5t130 24q41 0 80 -8
t65.5 -33.5t27.5 -76.5h-47q-3 19 -10.5 34.5t-21.5 24.5q-20 13 -47.5 17t-58.5 4q-63 0 -97 -19.5t-47 -63.5t-13 -118q0 -67 12.5 -107t35 -60t53 -26t66.5 -6q24 0 54 4t54.5 13.5t31.5 23.5v91h-74v40z" />
    <glyph glyph-name="tsawe" unicode="&#x13ea;" horiz-adv-x="682" 
d="M635 381q0 -31 -11 -74.5t-30 -92.5t-44.5 -95.5t-55.5 -82.5q-20 -25 -39 -31t-59 -5q-26 1 -43 1.5t-29.5 5.5t-27.5 20q-10 10 -20.5 22t-19.5 26q-31 -37 -65.5 -60t-72.5 -23q-49 0 -76.5 23t-27.5 78q0 66 33 88t104 22v-34q-37 0 -63.5 -15.5t-26.5 -57.5
q-1 -28 11.5 -47.5t44.5 -19.5q30 0 60 23t56 59q-24 43 -41.5 91.5t-27.5 95.5t-10 83q0 27 11 46t31 25q28 8 66 9t66 -7q22 -6 35 -24.5t13 -48.5q0 -36 -11 -81.5t-31 -92.5t-47 -89q16 -27 32 -46q17 -19 33.5 -24.5t43.5 -6.5t39.5 4t25.5 21q22 28 43.5 68.5
t38.5 83.5q-52 19 -80 47.5t-39 59.5t-11 56q0 27 11 46t31 25q28 8 66 9t66 -7q22 -6 35 -24.5t13 -48.5zM203 367q0 -37 17 -95t44 -112q28 51 45 107.5t18 99.5q0 52 -64 52q-33 0 -46.5 -14t-13.5 -38zM462 367q0 -10 9.5 -30t31.5 -40.5t58 -32.5q11 32 18 59.5t7 43.5
q0 52 -64 52q-33 0 -46.5 -14t-13.5 -38z" />
    <glyph glyph-name="tsawi" unicode="&#x13eb;" horiz-adv-x="425" 
d="M211 -5q-67 0 -108 19t-59 70.5t-18 148.5q0 88 18 138t59 71t108 21q68 0 108.5 -19t58.5 -70.5t18 -148.5q0 -88 -18 -138t-58.5 -71t-108.5 -21zM210 32q73 0 101 33t33 101h-35q-48 0 -78 18.5t-42 38.5q-8 15 -29.5 28.5t-43.5 13.5h-40v-31q0 -70 10 -114.5
t39 -65.5t86 -21zM212 426q-70 0 -98 -29.5t-35 -91.5h35q48 0 73.5 -15.5t38.5 -35.5q11 -18 30.5 -33t46.5 -15h43v18q0 70 -10 114.5t-38.5 66t-85.5 21.5z" />
    <glyph glyph-name="tsawo" unicode="&#x13ec;" horiz-adv-x="539" 
d="M252 255q0 -24 -20 -44.5t-49 -36.5t-58 -26.5t-48 -14.5q5 -33 19 -54.5t45.5 -31.5t85.5 -10h108q32 0 61.5 17.5t48.5 57t19 105.5v52q0 82 -17 119.5t-61 37.5q-26 0 -47.5 -8.5t-35.5 -17.5t-16 -13v40q4 8 12.5 17t28.5 15.5t58 6.5q57 0 83.5 -17t34 -59.5
t7.5 -120.5v-52q0 -89 -22.5 -136t-62 -64t-91.5 -17h-108q-79 0 -123 14.5t-61 53.5t-17 112v107q0 50 19 74.5t46 32.5t50 8q24 0 50 -5t43.5 -22t17.5 -53v-67zM74 174q16 4 37.5 12.5t42.5 21t35 28.5t14 34v52q0 26 -19.5 33t-42.5 7q-16 0 -31 -5t-25.5 -21t-10.5 -49
v-88v-25z" />
    <glyph glyph-name="tsawu" unicode="&#x13ed;" horiz-adv-x="407" 
d="M117 29q30 0 60 23t56 59q-24 43 -41.5 91.5t-27.5 95.5t-10 83q0 27 11 46t31 25q28 8 66 9t66 -7q22 -6 35 -24.5t13 -48.5q0 -40 -13.5 -91t-38 -103.5t-57 -96.5t-70.5 -71t-79 -27q-49 0 -76.5 19.5t-27.5 64.5q0 55 33 73t104 18v-28q-37 0 -63.5 -12.5
t-26.5 -47.5q-1 -23 11.5 -36.5t44.5 -13.5zM203 367q0 -37 17 -94.5t44 -112.5q28 51 45 107.5t18 99.5q0 52 -64 52q-33 0 -46.5 -14t-13.5 -38z" />
    <glyph glyph-name="tsawv" unicode="&#x13ee;" horiz-adv-x="380" 
d="M317 454q16 -4 20.5 -15t1.5 -30q-22 5 -65.5 9.5t-94.5 3.5q-37 -1 -56 -17t-25 -60q-1 -19 -2.5 -44.5t-1.5 -37.5q21 6 58 11t74 3q23 0 45 -3t40.5 -15t29.5 -37.5t11 -71.5q0 -63 -14 -96.5t-48.5 -46t-95.5 -12.5q-53 0 -83.5 8t-45 31.5t-18.5 68.5t-4 118
q0 87 6 136t23 71t49 28q27 6 64.5 6.5t73.5 -1.5t58 -7zM94 228v-57t1 -47q3 -40 14 -60t32 -26.5t53 -6.5q31 0 55 7t38.5 30t14.5 70q0 55 -14.5 75t-43.5 24q-36 5 -79.5 0t-70.5 -9z" />
    <glyph glyph-name="tsaya" unicode="&#x13ef;" horiz-adv-x="575" 
d="M148 177l67 52l49 -48l54 48l49 -48q13 12 28.5 27l15.5 15l22 -30l-64 -57l-50 47l-24 -21v-29q1 -51 12 -75.5t56 -24.5q23 0 44 5t37.5 23.5t26 59t9.5 112.5t-13.5 111t-36 55.5t-50.5 20t-58 3.5q-61 0 -94.5 -32t-38.5 -112h-41v21q0 76 48 119.5t127 43.5
q36 0 72.5 -4t66.5 -24t48 -66.5t18 -131.5q0 -60 -6.5 -106t-25.5 -77.5t-57 -47t-101 -12.5q-18 1 -41 7.5t-36 28.5q-15 -16 -38.5 -26t-54.5 -10q-61 0 -97 31t-36 98q-1 35 2 63.5l3 28.5h50l-3 -28t-3 -60q0 -47 21.5 -70.5t77.5 -23.5q43 0 55 22.5t13 68.5v26
l-35 34l-68 -45v38z" />
    <glyph glyph-name="tsaye" unicode="&#x13f0;" horiz-adv-x="452" 
d="M25 50l49 -6l43 358q4 29 12 40t28 14q16 2 37.5 4t61.5 2q60 0 93 -8t46.5 -34t13.5 -80q0 -19 -5.5 -40.5t-16 -37t-25.5 -18.5q24 -3 36.5 -20.5t17 -42.5t4.5 -52q0 -60 -18.5 -89t-59 -38t-106.5 -9q-29 0 -61.5 1.5t-61.5 2.5l-4 -52h-47l6 55q-16 2 -31 3.5
t-25 3.5zM293 221q-16 2 -41 3.5t-49.5 3t-41 2.5l-16.5 1l-26 -191q8 -3 44 -4.5t73 -1.5q24 0 47.5 1t42.5 8.5t30.5 27.5t11.5 58t-10 57t-27 26t-38 9zM151 274l144 -12q27 0 45 13t18 62q0 42 -9 59t-33.5 20.5t-72.5 3.5q-38 0 -55.5 -3t-20.5 -26z" />
    <glyph glyph-name="tsayi" unicode="&#x13f1;" horiz-adv-x="581" 
d="M294 460h172v-39h-61v-71q31 0 56.5 -5t44.5 -21.5t29.5 -49.5t10.5 -89q0 -61 -7.5 -97t-23 -55t-38.5 -28q-18 -7 -42 -8t-39 0q-23 2 -42.5 7.5t-31 22t-11.5 51.5q0 36 15.5 56.5t55.5 20.5q64 0 64 -43v-11h-30q0 10 -5.5 17.5t-28.5 7.5q-19 0 -27 -11t-8 -37
q0 -47 71 -47q23 0 39 12t25 44.5t9 94.5q0 49 -6.5 75.5t-20 37t-35 12.5t-52.5 2q-40 0 -64 -10.5t-43 -49.5l-120 -249l-80 124h-50v40h78l46 -71l92 192q20 41 46.5 52.5t75.5 12.5v71h-64v39z" />
    <glyph glyph-name="tsayo" unicode="&#x13f2;" horiz-adv-x="359" 
d="M92 271q13 5 35 7.5t46 2.5q59 0 92.5 -13t47 -43.5t13.5 -83.5v-89q0 -28 -12 -40.5t-30 -12.5h-10v126q0 49 -12 74t-35 34t-56 9q-10 0 -27 -1.5t-31.5 -3.5t-20.5 -6q0 -67 -0.5 -118.5t-0.5 -112.5q-16 0 -33.5 4.5t-17.5 31.5v300q0 57 15.5 84.5t45 36t70.5 8.5
q63 0 91 -15.5t35 -42.5t7 -61h-45q0 23 -5 41.5t-21.5 29t-53.5 10.5q-51 0 -69 -23.5t-18 -70.5v-62z" />
    <glyph glyph-name="tsayu" unicode="&#x13f3;" horiz-adv-x="624" 
d="M309 198h171v-40h-55v-94q0 -28 -28 -43.5t-71 -22t-87 -6.5q-73 0 -120.5 17t-70 67t-22.5 147q0 88 20.5 140.5t68.5 76.5t130 24q34 0 67 -5.5t59 -21t38 -47.5l70 46l59 -48q10 8 22 18t21 17l9 7l26 -30l-76 -57l-59 48l-63 -45h-47q-3 19 -10.5 34.5t-21.5 24.5
q-20 13 -47.5 17t-58.5 4q-63 0 -97 -19.5t-47 -63.5t-13 -118q0 -67 12.5 -107t35 -60t53 -26t66.5 -6q24 0 54 4t54.5 13.5t31.5 23.5v91h-74v40z" />
    <glyph glyph-name="tsayv" unicode="&#x13f4;" horiz-adv-x="428" 
d="M37 402q0 29 11.5 41.5t31.5 13.5q28 2 59.5 3.5t59.5 1.5q73 0 112 -8t53.5 -34t14.5 -80q0 -19 -5.5 -40.5t-16 -37t-25.5 -18.5q24 -3 36.5 -20.5t17 -42.5t4.5 -52q0 -60 -18.5 -89t-59 -38t-106.5 -9q-43 0 -90.5 2t-78.5 5v402zM274 217q-22 0 -56 0.5t-69 0.5h-60
v-178q8 -3 44 -4.5t73 -1.5q24 0 47.5 1t42.5 8.5t30.5 27.5t11.5 58q0 56 -16 72t-48 16zM89 262h176q27 0 45 13t18 62q0 42 -10 59t-40.5 20.5t-93.5 3.5q-22 0 -42.5 -1t-36.5 -3q-7 -1 -11.5 -5t-4.5 -20v-129z" />
    <glyph glyph-name="Wgrave" unicode="&#x1e80;" horiz-adv-x="666" 
d="M188 0q-28 0 -45.5 3.5t-27.5 20.5t-16 57l-51 379h35l49 -377q5 -32 14.5 -42.5t37.5 -10.5h35l92 430h36l94 -430h38q21 0 32.5 8t14.5 28l50 394h30l-51 -385q-5 -37 -16 -53t-30.5 -19t-48.5 -3h-42l-84 382l-6 28l-7 -29l-80 -381h-53zM344 521l-97 66l21 20l96 -86
h-20z" />
    <glyph glyph-name="wgrave" unicode="&#x1e81;" horiz-adv-x="640" 
d="M194 -2q-46 0 -76 7.5t-45.5 33t-15.5 79.5v253q0 17 3 22.5t15 5.5h14v-286q0 -56 25.5 -74t81.5 -18q58 0 83.5 19t25.5 53l-1 306h33v-306q0 -34 25 -53t83 -19q56 0 81 18t25 74v286h14q13 0 15.5 -5.5t2.5 -22.5v-253q0 -53 -15.5 -79t-45 -33.5t-75.5 -7.5
q-50 0 -87 15t-45 61l10 1q-4 -29 -21.5 -46.5t-45.5 -24t-64 -6.5zM320 460l-102 84l21 21l101 -105h-20z" />
    <glyph glyph-name="Wacute" unicode="&#x1e82;" horiz-adv-x="666" 
d="M188 0q-28 0 -45.5 3.5t-27.5 20.5t-16 57l-51 379h35l49 -377q5 -32 14.5 -42.5t37.5 -10.5h35l92 430h36l94 -430h38q21 0 32.5 8t14.5 28l50 394h30l-51 -385q-5 -37 -16 -53t-30.5 -19t-48.5 -3h-42l-84 382l-6 28l-7 -29l-80 -381h-53zM308 521l95 86l21 -20
l-98 -66h-18z" />
    <glyph glyph-name="wacute" unicode="&#x1e83;" horiz-adv-x="640" 
d="M194 -2q-46 0 -76 7.5t-45.5 33t-15.5 79.5v253q0 17 3 22.5t15 5.5h14v-286q0 -56 25.5 -74t81.5 -18q58 0 83.5 19t25.5 53l-1 306h33v-306q0 -34 25 -53t83 -19q56 0 81 18t25 74v286h14q13 0 15.5 -5.5t2.5 -22.5v-253q0 -53 -15.5 -79t-45 -33.5t-75.5 -7.5
q-50 0 -87 15t-45 61l10 1q-4 -29 -21.5 -46.5t-45.5 -24t-64 -6.5zM302 460l100 105l22 -21l-104 -84h-18z" />
    <glyph glyph-name="Wdieresis" unicode="&#x1e84;" horiz-adv-x="666" 
d="M188 0q-28 0 -45.5 3.5t-27.5 20.5t-16 57l-51 379h35l49 -377q5 -32 14.5 -42.5t37.5 -10.5h35l92 430h36l94 -430h38q21 0 32.5 8t14.5 28l50 394h30l-51 -385q-5 -37 -16 -53t-30.5 -19t-48.5 -3h-42l-84 382l-6 28l-7 -29l-80 -381h-53zM391 521q-8 0 -16.5 3
t-8.5 18q0 14 8.5 16.5t15.5 2.5q8 0 16.5 -2.5t8.5 -16.5q0 -15 -7 -18t-17 -3zM272 521q-11 0 -18 3t-7 19q0 13 8 15.5t16 2.5t16 -2.5t8 -15.5q0 -15 -7 -18.5t-16 -3.5z" />
    <glyph glyph-name="wdieresis" unicode="&#x1e85;" horiz-adv-x="640" 
d="M194 -2q-46 0 -76 7.5t-45.5 33t-15.5 79.5v253q0 17 3 22.5t15 5.5h14v-286q0 -56 25.5 -74t81.5 -18q58 0 83.5 19t25.5 53l-1 306h33v-306q0 -34 25 -53t83 -19q56 0 81 18t25 74v286h14q13 0 15.5 -5.5t2.5 -22.5v-253q0 -53 -15.5 -79t-45 -33.5t-75.5 -7.5
q-50 0 -87 15t-45 61l10 1q-4 -29 -21.5 -46.5t-45.5 -24t-64 -6.5zM380 460q-8 0 -16.5 3t-8.5 18q0 14 8.5 16.5t15.5 2.5q8 0 16.5 -2.5t8.5 -16.5q0 -15 -7 -18t-17 -3zM261 460q-11 0 -18 3t-7 19q0 13 8 15.5t16 2.5t16 -2.5t8 -15.5q0 -15 -7 -18.5t-16 -3.5z" />
    <glyph glyph-name="uni1E9E" unicode="&#x1e9e;" horiz-adv-x="604" 
d="M111 -30v80v73v77v92v118q1 27 17.5 46t43 30t56 15.5t54.5 4.5q31 0 64 -3.5t60.5 -13.5t43 -30.5t11.5 -53.5q0 -5 -3.5 -9t-8.5 -6.5t-9.5 -4t-6.5 -1.5q-31 -7 -68 -17t-70 -22.5t-54.5 -30.5t-21.5 -41q0 -38 30.5 -47t77.5 -9h34.5h20.5q36 0 63.5 -6.5t43 -28
t15.5 -66.5q0 -50 -25 -76.5t-62 -35.5t-74 -9q-13 0 -38 1t-51 4.5t-44.5 10.5t-19.5 19l-1 13q17 -12 43.5 -18t55.5 -7.5t49 -1.5q34 0 65.5 7t52 28.5t20.5 65.5q0 50 -25.5 63.5t-71.5 13.5h-22.5h-36.5q-31 0 -61.5 4t-50.5 20t-20 52q0 30 24 51t61 36.5t78.5 26.5
t77.5 20q3 27 -11 43.5t-37 25.5t-49 12t-47 3q-20 0 -44.5 -4t-46.5 -13.5t-36.5 -27.5t-14.5 -47v-426h-31z" />
    <glyph glyph-name="uni1EA0" unicode="&#x1ea0;" horiz-adv-x="469" 
d="M23 0l121 398q10 32 27 49t61 17q43 0 60 -15.5t27 -50.5l125 -398h-37l-43 138h-270l-42 -138h-29zM101 160h256l-71 230q-6 18 -16 32t-41 14q-34 0 -44.5 -14.5t-15.5 -31.5zM234 -113q-5 0 -10.5 1t-9.5 5t-4 13q0 12 7.5 15.5t15.5 3.5q10 0 16.5 -3t6.5 -16
q0 -9 -3.5 -13t-8 -5t-10.5 -1z" />
    <glyph glyph-name="uni1EA1" unicode="&#x1ea1;" horiz-adv-x="459" 
d="M219 -8q-53 0 -87 7t-52.5 22t-25.5 39t-7 58q0 51 13 78t45 37t87 10q25 0 53 -1.5t54 -3.5t44.5 -4.5t24.5 -4.5q1 53 -8.5 84t-28 45.5t-45.5 19t-60 4.5t-65.5 -3t-58.5 -9.5t-36 -18.5v9q0 18 13.5 24.5t26.5 9.5q17 5 49.5 8t65.5 3q43 0 76 -4.5t56 -20.5
t34.5 -48t11.5 -87l1 -210q-1 -22 -40.5 -32.5t-140.5 -10.5zM219 13q55 0 86.5 3t45.5 10t18 16l-1 166q-8 4 -34.5 7t-57 6t-53.5 3q-52 0 -83.5 -5.5t-45.5 -27.5t-14 -71q0 -37 9 -60.5t39 -35t91 -11.5zM223 -113q-5 0 -10.5 1t-9.5 5t-4 13q0 12 7.5 15.5t15.5 3.5
q10 0 16.5 -3t6.5 -16q0 -9 -3.5 -13t-8 -5t-10.5 -1z" />
    <glyph glyph-name="uni1EA2" unicode="&#x1ea2;" horiz-adv-x="469" 
d="M23 0l121 398q10 32 27 49t61 17q43 0 60 -15.5t27 -50.5l125 -398h-37l-43 138h-270l-42 -138h-29zM101 160h256l-71 230q-6 18 -16 32t-41 14q-34 0 -44.5 -14.5t-15.5 -31.5zM223 521v9q0 11 7.5 15t17 7t16.5 7.5t7 15.5v3q0 18 -8.5 25.5t-25.5 7.5q-25 0 -31 -25
l-19 5q4 18 16.5 27.5t35.5 9.5q27 0 40.5 -10t13.5 -40v-2q0 -17 -7.5 -24t-17.5 -9.5t-17 -6t-7 -12.5v-3h-21z" />
    <glyph glyph-name="uni1EA3" unicode="&#x1ea3;" horiz-adv-x="459" 
d="M219 -8q-53 0 -87 7t-52.5 22t-25.5 39t-7 58q0 51 13 78t45 37t87 10q25 0 53 -1.5t54 -3.5t44.5 -4.5t24.5 -4.5q1 53 -8.5 84t-28 45.5t-45.5 19t-60 4.5t-65.5 -3t-58.5 -9.5t-36 -18.5v9q0 18 13.5 24.5t26.5 9.5q17 5 49.5 8t65.5 3q43 0 76 -4.5t56 -20.5
t34.5 -48t11.5 -87l1 -210q-1 -22 -40.5 -32.5t-140.5 -10.5zM219 13q55 0 86.5 3t45.5 10t18 16l-1 166q-8 4 -34.5 7t-57 6t-53.5 3q-52 0 -83.5 -5.5t-45.5 -27.5t-14 -71q0 -37 9 -60.5t39 -35t91 -11.5zM217 455v10q0 10 11 16.5t21.5 15t10.5 23.5v3q0 21 -6.5 28
t-28.5 7q-21 0 -27 -8.5t-9 -18.5l-16 4q8 40 53 40q30 0 44 -10t14 -41v-2q0 -20 -12.5 -30t-24.5 -16t-12 -17v-4h-18z" />
    <glyph glyph-name="uni1EA4" unicode="&#x1ea4;" horiz-adv-x="469" 
d="M23 0l121 398q10 32 27 49t61 17q43 0 60 -15.5t27 -50.5l125 -398h-37l-43 138h-270l-42 -138h-29zM101 160h256l-71 230q-6 18 -16 32t-41 14q-34 0 -44.5 -14.5t-15.5 -31.5zM146 521l78 86h20l79 -86h-21l-68 65l-68 -65h-20zM319 592l95 86l21 -20l-98 -66h-18z" />
    <glyph glyph-name="uni1EA5" unicode="&#x1ea5;" horiz-adv-x="459" 
d="M219 -8q-53 0 -87 7t-52.5 22t-25.5 39t-7 58q0 51 13 78t45 37t87 10q25 0 53 -1.5t54 -3.5t44.5 -4.5t24.5 -4.5q1 53 -8.5 84t-28 45.5t-45.5 19t-60 4.5t-65.5 -3t-58.5 -9.5t-36 -18.5v9q0 18 13.5 24.5t26.5 9.5q17 5 49.5 8t65.5 3q43 0 76 -4.5t56 -20.5
t34.5 -48t11.5 -87l1 -210q-1 -22 -40.5 -32.5t-140.5 -10.5zM219 13q55 0 86.5 3t45.5 10t18 16l-1 166q-8 4 -34.5 7t-57 6t-53.5 3q-52 0 -83.5 -5.5t-45.5 -27.5t-14 -71q0 -37 9 -60.5t39 -35t91 -11.5zM133 460l80 105h19l80 -105h-20l-70 83l-69 -83h-20zM327 531
l100 105l22 -21l-104 -84h-18z" />
    </font>
</defs>
</svg>
